<?xml version="1.0" encoding="utf-8"?>
<!-- Generator: Adobe Illustrator 23.1.1, SVG Export Plug-In . SVG Version: 6.00 Build 0)  -->
<svg version="1.1" id="Layer_1" xmlns="http://www.w3.org/2000/svg" xmlns:xlink="http://www.w3.org/1999/xlink" x="0px" y="0px"
	 viewBox="0 0 100 100" style="enable-background:new 0 0 100 100;" xml:space="preserve">
<path d="M42.3,100c-4.9-0.1-9.7-0.8-14-3.2c-6.3-3.4-9.5-8.8-9.8-15.9c-0.4-8.4,2.6-15.8,7.3-22.6c2.2-3.2,5-6.1,7.8-8.8
	c0.5-0.5,0.8-0.4,1.2,0.1c0.8,1.1,1.7,2.2,2.6,3.2c0.5,0.6,0.4,0.9-0.1,1.3c-3.9,3.9-6.8,8.3-8.1,13.7c-0.8,3.1-0.9,6.3-0.2,9.5
	c1.4,6.2,5.4,9.7,11.5,11c7.2,1.5,13.9,0.2,20.5-2.7c6-2.7,11.2-6.4,15.4-11.5c4.5-5.6,6.9-11.9,6.6-19.2
	c-0.2-5.8-4.1-10.6-9.7-12.2c-5.1-1.5-10.1-1-15.2,0.1c-2.3,0.5-4.5,1.1-6.6,2.1c-0.5,0.2-0.8,0.2-1.1-0.4c-0.8-1.4-1.6-2.8-2.5-4.2
	c-0.3-0.5-0.3-0.7,0.3-1c7.5-3.8,15.4-6.1,23.9-5.6c6.2,0.3,11.9,2.1,16.8,5.9c6.3,5,8.5,11.5,7,19.3c-1.1,5.8-3.8,10.9-7.3,15.6
	c-5.2,6.9-11.2,12.8-18.7,17.2c-6.8,4-14.1,6.7-21.9,7.8C46.1,99.9,44.2,100,42.3,100z M25.5,0.9c-1.7,4.3-3.3,8.6-5,12.9
	c-0.3,0.7-0.5,1-1.3,1c-4.9,0.3-9.8,0.7-14.7,1.1c-0.2,0-0.6-0.1-0.7,0.2c-0.1,0.3,0.2,0.5,0.3,0.7c3.6,5,7.1,9.9,10.7,14.9
	c2.1,2.9,4.9,4.5,8.5,4.7c2,0.1,3.9,0.2,5.9,0.3c0.6,0,1,0.2,1.3,0.7c4.6,5.7,9.3,11.3,13.9,17c2.7,3.2,5.3,6.5,8,9.7
	c0.6,0.7,1.3,1.1,2.3,0.9c0.9-0.2,1.5-0.9,1.7-1.8c0.2-0.8-0.3-1.4-0.7-2C49.6,51.8,43.6,42.4,37.5,33c-0.4-0.6-0.5-1.1-0.3-1.8
	c0.5-1.7,0.9-3.5,1.5-5.2c1.3-4,0.6-7.6-1.8-10.9c-2.8-3.8-5.6-7.7-8.4-11.6c-0.8-1.2-1.7-2.3-2.6-3.6C25.7,0.5,25.6,0.7,25.5,0.9z
	 M59.9,59.2c1.6,2.5,1.4,5.3-0.2,7.7c-2,2.9-7.1,3.7-9.5,1.2c-1.1-1.2-2.3-2.2-3.3-3.5c-1.3-1.7-2.7-3.3-4.1-5
	c-0.3-0.4-0.4-0.5-0.8,0c-1.4,1.6-2.6,3.3-3.5,5.3C36,70.6,38.3,76.1,44,78.4c2.8,1.1,5.7,1.4,8.6,0.8c5.7-1.1,10.4-4.1,14.3-8.3
	c2.6-2.8,4.5-6.1,5.1-9.9c1-5.6-2.2-9.9-7.8-10.6c-3.2-0.4-6.2,0.2-9.4,1.2C56.6,54.1,58.3,56.7,59.9,59.2z"/>
</svg>
