<?xml version="1.0" encoding="utf-8"?>
<!-- Generator: Adobe Illustrator 23.1.1, SVG Export Plug-In . SVG Version: 6.00 Build 0)  -->
<svg version="1.1" id="Layer_1" xmlns="http://www.w3.org/2000/svg" xmlns:xlink="http://www.w3.org/1999/xlink" x="0px" y="0px"
	 viewBox="0 0 100 100" style="enable-background:new 0 0 100 100;" xml:space="preserve">
<g transform="translate(0,0)">
	<path d="M31.6,0v13.1h36.9V0H31.6z M35.3,17.4l-0.5,1.1c-0.5,1-2.4,2.7-5,4.3c-2.6,1.6-5.9,3.3-9,5c-3.2,1.7-6.3,3.4-8.8,5.2
		c-2.4,1.8-4.5,3.8-4.5,6.6v48.3c0,4.3,3.2,7.4,6.5,9.3c3.3,1.9,6.7,2.8,9,2.8h54.2c2.3,0,5.7-0.9,9-2.8c3.3-1.9,6.5-4.9,6.5-9.3
		V39.6c0-2.8-2.1-4.8-4.5-6.6c-2.4-1.8-5.6-3.5-8.8-5.2c-3.2-1.7-6.4-3.4-9-5c-2.6-1.6-4.5-3.3-5-4.3l-0.5-1.1
		C64.7,17.4,35.3,17.4,35.3,17.4z M37.5,21.2h25c1.3,1.8,3.3,3.3,5.7,4.8c2.8,1.8,6.1,3.5,9.3,5.1c3.2,1.7,6.2,3.4,8.3,4.9
		c2.1,1.6,3,3,3,3.6H11.2c0-0.6,0.9-2,3-3.6c2.1-1.6,5.1-3.2,8.3-4.9c3.2-1.7,6.5-3.4,9.3-5.1C34.2,24.5,36.2,23,37.5,21.2z
		 M43.2,53.2h13.6v10.2h10.2v13.6H56.8v10.2H43.2V76.9H33.1V63.3h10.2V53.2z"/>
</g>
</svg>
