<?xml version="1.0" encoding="utf-8"?>
<!-- Generator: Adobe Illustrator 23.1.1, SVG Export Plug-In . SVG Version: 6.00 Build 0)  -->
<svg version="1.1" id="Layer_1" xmlns="http://www.w3.org/2000/svg" xmlns:xlink="http://www.w3.org/1999/xlink" x="0px" y="0px"
	 viewBox="0 0 100 100" style="enable-background:new 0 0 100 100;" xml:space="preserve">
<path d="M9.2,0l19,19.9c-1.6,1-3.1,2.2-4.5,3.4L9.9,18.7l6.9,12.9c-1.7,2.9-3.1,6-4,9.4c-1,3.8-1.4,7.7-1.2,11.4L0.4,60.8l13.2,1.6
	c0.5,1.4,1.1,2.8,1.7,4.2L0,73.1v20.2l19.1-20.7c1.3,1.7,2.7,3.3,4.3,4.7l-4.7,11.2L31.5,83c1.6,0.8,3.2,1.5,4.9,2l-8.9,15h22
	l-1.5-13.1c2,0,3.9-0.1,5.8-0.4l7.2,10.6l3.1-13.8c2.8-1.4,5.5-3.1,7.9-5.2l12,4.1l-4.9-12.3c0.7-1.2,1.4-2.4,2-3.7L100,79.5V55.5
	l-15.9,0.6c0.2-1.5,0.4-3.1,0.4-4.6l13-7.6l-14.4-3.2c-1.8-6.5-5.5-12.4-10.4-17L96.5,0H76.9L68,19.9c-1.4-0.9-2.8-1.7-4.4-2.5
	L61.9,3.4l-8.3,11c-2.4-0.4-4.7-0.5-7-0.4c-3.1,0.1-6.1,0.6-9,1.5L34.5,0L9.2,0L9.2,0z M47.9,17.9c2.8,0,5.7,0.4,8.5,1.1
	c3.6,1,7,2.5,9.9,4.5L61.3,35l8.6-8.6c1.9,1.7,3.5,3.6,4.9,5.6l-6.5,8.8L79,40.3c1.6,5,2.1,10.4,1.1,15.9l-12.9,0.5L77.6,64
	c-5.4,11.8-17.3,19.3-30.2,19l-1.6-14l-7.5,12.6c-6.9-2.1-12.7-6.4-16.7-11.9l8.7-9.5l-11.5,4.9c-1-2-1.8-4.1-2.4-6.3L28.9,52
	l-13.2-5.3c0.2-1.5,0.5-3.1,0.9-4.6c2.2-8.3,7.5-15,14.3-19.2l10.5,11l-2.9-14.4c2.7-0.8,5.5-1.3,8.3-1.4
	C47.1,17.9,47.5,17.9,47.9,17.9L47.9,17.9z M49,35.3c-8.3,0-15.1,6.7-15.1,15.1c0,8.3,6.7,15.1,15.1,15.1s15.1-6.7,15.1-15.1
	C64.1,42.1,57.4,35.3,49,35.3L49,35.3z"/>
</svg>
