<?xml version="1.0" encoding="utf-8"?>
<!-- Generator: Adobe Illustrator 23.1.1, SVG Export Plug-In . SVG Version: 6.00 Build 0)  -->
<svg version="1.1" id="Layer_1" xmlns="http://www.w3.org/2000/svg" xmlns:xlink="http://www.w3.org/1999/xlink" x="0px" y="0px"
	 viewBox="0 0 100 100" style="enable-background:new 0 0 100 100;" xml:space="preserve">
<path d="M23.7,64.2l12.1,12.1C23.3,89.5,14.6,98.6,12.9,99.5c-4.2,2.1-9.8-2.6-9.8-2.6s-4.7-5.6-2.6-9.8
	C1.4,85.4,10.5,76.7,23.7,64.2z M27.2,64.7l8.1,8.1L56,52.1L47.9,44L27.2,64.7z M76.8,31.3l-8.1-8.1l-3.1,3.1l8.1,8.1L76.8,31.3z
	 M74.7,38.7L61.3,25.3L47,39.6L60.4,53L74.7,38.7z M64,52.4l3.2,12.9l-8.4,8.4c7.3,1.9,19.4,3,28.6-6.2c9.1-9.1,8-20.3,6-27.2
	l-6.5,6.5l-12.7-4.7L64,52.4z M96,37.8l-1.1,1.1c2.3,7.2,4,19.8-6.2,30c-10.3,10.3-23.8,8.6-31.5,6.4L56,76.5c0,0,21.4,10.8,36.3-4
	C107.1,57.7,96,37.8,96,37.8z M32.4,12.6c-9.2,9.2-8.1,21.3-6.2,28.6l8.4-8.4L47.6,36l10.2-10.2l-4.7-12.7l6.5-6.5
	C52.7,4.6,41.5,3.5,32.4,12.6z M24.7,42.7c-2.2-7.6-3.9-21.1,6.4-31.5c10.2-10.2,22.8-8.5,30-6.2L62.2,4c0,0-19.8-11.2-34.7,3.7
	c-14.8,14.8-4,36.3-4,36.3L24.7,42.7z"/>
</svg>
