<?xml version="1.0" encoding="utf-8"?>
<!-- Generator: Adobe Illustrator 23.1.1, SVG Export Plug-In . SVG Version: 6.00 Build 0)  -->
<svg version="1.1" id="Layer_1" xmlns="http://www.w3.org/2000/svg" xmlns:xlink="http://www.w3.org/1999/xlink" x="0px" y="0px"
	 viewBox="0 0 100 100" style="enable-background:new 0 0 100 100;" xml:space="preserve">
<g>
	<polygon points="69.7,39.6 14.9,1.4 10.3,7.9 65.1,46.1 	"/>
	<polygon points="81,57.1 85.7,60.5 90.3,53.9 85.5,50.6 	"/>
	<path d="M66.1,51.1c-7.8,5.6-14.2,7.1-20.6,7.4c0.6,0.9,1.4,2.1,2.4,3.2c2,2.4,4.7,5,7.7,7.4c2.9,2.3,6.1,4.4,9.3,5.9l7.5-0.3
		c-0.7-4.9-0.8-10.7,3.8-17.3l9.9-14.2l-9.7-6.7L66.3,51L66.1,51.1z"/>
	<path d="M98.5,80.2c-0.4-0.9-0.9-1.6-1.3-2c-0.4-0.4-0.6-0.5-0.8-0.5c-0.2,0-0.4,0.1-0.8,0.5c-0.4,0.4-0.9,1.1-1.3,2
		c-0.8,1.9-1.5,4.8-1.5,8c0,0.5,0,0.9,0,1.4l4.4-3.9l-3.6,8.8c0.2,0.6,0.4,1.2,0.6,1.7c0.4,0.9,0.9,1.6,1.3,2
		c0.4,0.4,0.6,0.5,0.8,0.5c0.2,0,0.4-0.1,0.8-0.5c0.4-0.4,0.9-1.1,1.3-2c0.8-1.9,1.5-4.8,1.5-8S99.4,82.2,98.5,80.2z"/>
	<path d="M20.3,78.8c-1.3-1.6-2-3.2-2.5-4.9c-0.9,0.3-1.9,0.5-2.9,0.5c-1.1,0-2.1-0.2-3-0.6v0c-0.4,1.5-1,2.9-1.8,4.6
		c-1.5,0-3-0.1-4.5-0.2c-3,1.9-4.6,4.6-5.3,7.5l8,1.7L0,89v0.2c0.1,4,2.1,7.2,4.3,8.1c29.2,1.8,57.9,1.3,86.5,0.4
		c-0.4-1-0.8-2.2-1.1-3.4l-10.5-1.7c0,0,6.9-1.2,10-1.7C89.1,90,89,89.1,89,88.2c0-3.6,0.6-6.9,1.8-9.5c0.1-0.4,0.3-0.7,0.5-1v-0.1
		C67.8,79.1,44.1,79.4,20.3,78.8z"/>
	<path d="M14.9,67.8c-0.9,0-1.7,0.3-2.2,0.6c-0.5,0.3-0.6,0.6-0.6,0.8c0,0.2,0.1,0.5,0.6,0.8c0.5,0.3,1.3,0.6,2.2,0.6
		c0.9,0,1.7-0.3,2.2-0.6c0.5-0.3,0.6-0.6,0.6-0.8c0-0.2-0.1-0.5-0.6-0.8C16.6,68,15.8,67.8,14.9,67.8z"/>
</g>
</svg>
