<?xml version="1.0" encoding="utf-8"?>
<!-- Generator: Adobe Illustrator 24.1.3, SVG Export Plug-In . SVG Version: 6.00 Build 0)  -->
<svg version="1.1" id="Layer_1" xmlns="http://www.w3.org/2000/svg" xmlns:xlink="http://www.w3.org/1999/xlink" x="0px" y="0px"
	 viewBox="0 0 100 100" style="enable-background:new 0 0 100 100;" xml:space="preserve">
<g transform="translate(0,0)">
	<path d="M6.4,1.5c0,0,0.8,12.1,4.4,21.6C5.3,24.7,0,27.8,0,27.8s5.2,7.5,10.8,11.3c4.4-1.2,8.8-2.1,13.1-2.7c0-0.1,7.7-0.5,13-2.4
		c1.8-0.6-19.8-21.6-18.9-22.6c0.9-1,24.7,18.2,25.3,17.2c2.9-5.7,0.5-12.7-6.2-19.2C29,1.8,6.4,1.5,6.4,1.5z M88.8,2.8
		c-3.3,0-6.3,1.4-8.3,3.7c-3.2,3.6-2.5,10.6-4.4,13.9c-2.5,4-15.9,14.4-15.9,14.4s9.1,0.4,16.8,3.7c1.9-3.7,2.4-5.3,7-9.1
		c2.1-1.7,5.7-3.4,8.8-4.8c4.3-2,7.1-5.7,7.2-10.5C100,7.8,95,2.8,88.8,2.8L88.8,2.8z M45.9,39.5C31.7,39.4,17,41.9,2.4,47.2v19.5
		c0,17.6,14.2,31.8,31.8,31.8h20.6c17.6,0,31.8-14.2,31.8-31.8V47.2C73.9,42.2,60.1,39.6,45.9,39.5L45.9,39.5z"/>
</g>
</svg>
