<?xml version="1.0" encoding="utf-8"?>
<!-- Generator: Adobe Illustrator 23.1.1, SVG Export Plug-In . SVG Version: 6.00 Build 0)  -->
<svg version="1.1" id="Layer_1" xmlns="http://www.w3.org/2000/svg" xmlns:xlink="http://www.w3.org/1999/xlink" x="0px" y="0px"
	 viewBox="0 0 200 100" style="enable-background:new 0 0 200 100;" xml:space="preserve">
<g>
	<path d="M45.7,85.7c0,0.2,0.2,0.5-0.1,0.7c-0.2,0.1-0.1,0.2-0.1,0.3c-0.2,0.2-0.3,0.4-0.5,0.5c0.2,0.4,0.4,1.9,0.5,2.3
		c-0.2-0.1-0.1-1.3-0.6-2.2c-0.1,0-0.3,0.1-0.4,0.1c0.7,1.8,0.5,2.9,0.4,4.2c-0.1-1.1,0.2-3-0.7-4c-0.2,0-0.3,0.2-0.5,0.2
		c0.4,1.5,0,3.4,0.1,3.7c-0.1-0.1,0.4-3.1-0.5-3.8c-0.1,0-0.2-0.1-0.2,0c0.1,0.6-1,3.2-1.6,3.4c0.3-0.5,1.9-2.6,1.1-3.7
		c-0.4,0-0.6,0.3-0.9,0.4c0-0.1-0.1,0-0.2,0c-0.2,0.1-0.4,0.3-0.6,0.2c-0.3,0.1-0.6,0.2-0.9,0.1c-0.1,0.1-0.3,0.1-0.5,0
		c-0.2-0.2-0.4-0.1-0.6-0.1c-0.1-0.2-0.5-0.2-0.7-0.4c-0.3-0.2-0.6,0.2-0.7-0.2c-0.3-0.1-0.6-0.2-0.8,0.1c-0.3,0.4-0.8,0.3-1.2,0.3
		c-0.1,0.2-0.2,0-0.3,0.1c-0.1,0.1-0.3,0.1-0.3,0.2c0.5,0,1.1-0.1,1.6,0.1c0.1,0.5-0.6,0.3-0.8,0.4c0,0.2,1,0.3,0.7,0.7
		c-0.3,0.2-1.4-0.3-1.9-0.2c0,0.1,0.2,0.1,0.3,0.2c0.3,0,0.5,0.3,0.7,0.3c0.2,0.1-0.1,0.3-0.2,0.4c-0.3,0.4-2.1-0.8-2.3-0.7
		c-0.2-0.2-0.5-0.1-0.8-0.1c-0.1,0-0.1,0-0.1-0.1c-0.1,0-0.2,0-0.3,0c-0.2,0.4-0.8,0-1.1,0.3c-0.1,0-0.8,0.1-1.1,0.2
		c-0.8-0.3-1.7-0.3-1.9-0.3c0.1,0.1,0.4,0.1,0.4,0.3c0.1,0.1,0.3,0.1,0.2,0.3c-0.1,0.1-0.1,0.1-0.2,0.1c-0.2-0.2-0.5-0.1-0.7-0.1
		c0,0.1,0.5,0.4,0.7,0.8c0,0.2-0.7,0.4-1,0c-0.4-0.6-1.2-0.4-1.4-0.5c-0.1,0-0.2,0-0.1,0.1c0.3,0.1,1,1.2,0.4,1.8
		c-0.6,0.1-0.1-1.1-0.8-1.3c-0.6-0.4-2.6-0.4-3.1-0.6c0,0,0,0,0,0c-0.7,0-1.5,0.2-2.2,0.3c-0.6,0.2-2.1,0-1.9-0.6
		c0.1,0,0.1-0.1,0.1-0.1c0.1-0.1,0.3-0.1,0.3-0.3c-0.2,0.1-0.6,0-0.8-0.1c-0.1,0-0.4-0.1-0.5,0c-0.2,0-0.4-0.2-0.6-0.1
		c-0.2-0.1-0.4-0.1-0.5,0.1c-0.1-0.1-0.3,0-0.4-0.1c-0.2,0.2-0.6,0-0.8,0.3c-0.5-0.1-0.8,0.3-1.3,0.4c-0.9,0.3-3.5,0.5-4.8,0
		c-0.2,0-0.4-0.1-0.6-0.1c-1.6-0.1-2.9-0.3-3.5-0.2c-0.7,0.3-1.7,0.7-1.7,1.6c-0.1,0.2-0.1,0.4,0,0.7c0.1,0.7,0.6,1.3,1.2,1.5
		c0.7,0.3,1.4,0.1,2.1,0.3c1,0.1,1.8,0.2,2.8,0.2c1.1-0.1,4.4,0,5.7-0.3c0.3-0.1,3.2-0.6,5.6-0.5c1.9,0,2.9,1.5,3.3,1.3
		c0.1,0.1,0,0.2,0,0.3c-1,1-2.4-0.8-3.4-0.8c-1.2-0.1-6.3,0.6-7.9,0.9c-0.3,0.1-7.7,0.2-9.3-1c-1.5-0.9-1.3-3-0.9-3.7
		c1-2.4,4.7-1.7,5.6-1.7c0,0,5.6,0.9,5.6-0.2c0.4-0.4,0-1,0.4-1.4c0-0.2,0-0.3,0.1-0.5c-0.1-0.8,0.1-1.5,0.2-2.3
		c-0.1-0.2,0.1-0.3,0.2-0.5c0.1-0.3-0.1-0.7,0.2-1c-0.2-0.2,0.3-1,0.2-1.3c0.4-1.1,1.2-2,1.3-2.5c0.3-0.2,0.4-0.3,0.5-0.6
		c0.4-0.5,0.7-1.1,1.3-1.3c0.4-0.3,0.5-0.6,0.9-0.9c0.1,0.1,0.2,0.1,0.3,0c0.6-0.7,1.5-0.8,2.1-1.5c0.2-0.1,0.3,0.1,0.5,0
		c0.6,0,1-0.4,1.6-0.4c0.4,0.2,0.7-0.2,1.2-0.1c0.3,0,0.7,0.1,0.9-0.1c0.9,0.2,1.7,0.1,2.5,0.5c1-0.1,3,0.5,3.3,1.1
		c0,0.3,0.4,0.3,0.6,0.4c0.4,0.1,0.7,0.7,1.3,0.7c-0.1,0.4,1.9,1.7,2.4,1.3c-0.2-0.4-0.5-0.9-0.3-1.3c0-0.6,0.5-2.4,2.6-1.6
		c0.2,0.1,0.4,0.2,0.6,0.3c1.8,0.9,1.7,2.9,1.7,3.8c0,0.3,0.2,0.4,0.2,0.7c0,0,0,0.1,0.1,0c0.2-0.1,0-0.4,0.2-0.4
		c0.1,0.2,0.1,0.4,0.2,0.5c0,0,0-0.2,0.1-0.1c0.1,0,0.1,0.1,0.2,0.1c0.1-0.1-0.1-0.3,0.1-0.2c0.1,0.4,0.4,0.6,0.8,0.7
		c0.1,0.1,0,0.2,0.2,0.3c0,0.3,0.3,0.2,0.4,0.4c0.1-0.1,0.1,0.1,0.3,0.1c0.1,0.1,0.2,0.1,0.2,0.2c0.2,0.3,0.6,0.2,0.6,0.5
		c0.3,0.1,0.3,0.6,0.6,0.6c0,0.2,0.3,0.1,0.2,0.3c0.3,0,0.3,0.3,0.4,0.5c0.3,0.1,0.3,0.6,0.6,0.7c0.1,0,0,0.2,0.1,0.2
		c0.5-0.2,0.6-1,0.7-1.5c0.1,0,0.1,0.1,0.1,0.1c-0.1,0.6-0.3,1.2-0.6,1.8c0,0,0.1,0,0.1,0c0.8-0.6,0.6-0.9,0.8-1.4
		c0.1,0,0.1,0.1,0.1,0.2c-0.1,0.5-0.4,1-0.6,1.5c0.1,0.1,0.1,0.3,0.3,0.3c0.8-0.3,0.8-0.3,1-0.7c0.1,0,0.1,0,0.1,0.1
		C46.7,85.4,46.1,85.5,45.7,85.7"/>
</g>
<path d="M98.3,0c1.1,0,2.2,0,3.3,0c0.3,0.1,0.6,0.1,0.9,0.2c6.9,0.5,13.2,2.8,18.7,7.1c9.2,7.2,13.9,16.7,13.9,28.3
	c0.1,20.2,0,40.4,0,60.6c0,2.7-1,3.8-3.8,3.8c-20.9,0-41.8,0-62.7,0c-1.8,0-3.2-0.5-4-2.1c0-21.7,0-43.4,0-65
	c0.2-1.2,0.4-2.5,0.6-3.7C67.7,15.1,79.1,3.4,93,0.8C94.8,0.4,96.6,0.3,98.3,0z M70.6,94c19.6,0,39.2,0,58.7,0c0-2.9,0-5.8,0-8.7
	c-0.4,0-0.8,0-1.2,0c-17.9,0-35.8,0-53.7,0c-0.4,0-0.8,0-1.2,0c-1.5,0.2-2.6,1.3-2.6,2.8C70.6,90,70.6,92,70.6,94z M83.9,79.3
	c15.2,0,30.3,0,45.4,0c0-2.9,0-5.8,0-8.7c-0.4,0-0.8,0-1.1,0c-11.9,0-23.7,0-35.6,0c-1.9,0-3.8,0-5.7,0c-1.6,0-3,1-3,2.5
	C83.8,75.1,83.9,77.2,83.9,79.3z M129.3,55.9c-0.4,0-0.8,0-1.1,0c-6.6,0-13.3,0-19.9,0c-2.7,0-5.4,0-8.1,0c-1.5,0-2.9,0.8-3,2.1
	c-0.2,2.2,0,4.4,0,6.6c10.7,0,21.4,0,32.2,0C129.3,61.7,129.3,58.9,129.3,55.9z M129.3,41.3c-0.1,0-0.2-0.1-0.2-0.1
	c-5.4,0-10.7,0-16.1,0c-1.3,0-2.5,1-2.6,2.3c-0.1,2.1,0,4.3,0,6.4c6.4,0,12.6,0,19,0C129.3,47.1,129.3,44.2,129.3,41.3z"/>
</svg>
