<?xml version="1.0" encoding="utf-8"?>
<!-- Generator: Adobe Illustrator 23.1.1, SVG Export Plug-In . SVG Version: 6.00 Build 0)  -->
<svg version="1.1" id="Layer_1" xmlns="http://www.w3.org/2000/svg" xmlns:xlink="http://www.w3.org/1999/xlink" x="0px" y="0px"
	 viewBox="0 0 100 100" style="enable-background:new 0 0 100 100;" xml:space="preserve">
<path d="M85.7,22.3c3.5-1.7,5.9-5.2,5.9-9.4L88.2,0H11.8L8.3,12.9c0,4,2.3,7.5,5.6,9.3v37h-3v37.3h3v3.5h4.8v-3.5h62.2v3.5h4.8v-3.5
	h3.2V59.2h-3.2L85.7,22.3z M18.8,59.2V23.3c5.8,0,10.4-4.7,10.4-10.4c0,5.8,4.7,10.4,10.4,10.4c5.8,0,10.4-4.7,10.4-10.4
	c0,5.8,4.7,10.4,10.4,10.4c5.8,0,10.4-4.7,10.4-10.4c0,5.7,4.5,10.2,10.1,10.4v35.9L18.8,59.2L18.8,59.2z"/>
</svg>
