<?xml version="1.0" encoding="utf-8"?>
<!-- Generator: Adobe Illustrator 23.1.1, SVG Export Plug-In . SVG Version: 6.00 Build 0)  -->
<svg version="1.1" id="Layer_1" xmlns="http://www.w3.org/2000/svg" xmlns:xlink="http://www.w3.org/1999/xlink" x="0px" y="0px"
	 viewBox="0 0 100 100" style="enable-background:new 0 0 100 100;" xml:space="preserve">
<path d="M96.2,94.1c-3.8,2.2-7.5,2.1-11.2-0.2c-5-3.1-10.2-3.3-15.2-0.1c-4.1,2.5-8,2.5-12.1,0c-4.9-3.1-10-3.1-15,0
	c-4.1,2.5-8,2.6-12.1,0c-5-3.1-10.2-3-15.2,0C11.6,96.2,7.9,96.4,4,94c-0.5-0.3-1.2-0.4-1.7-0.3c-0.8,0.1-1.4,0.8-1.5,1.7
	c-0.1,1,0.3,1.7,1.1,2.2c5,3.1,10.2,3.2,15.2,0.1c4.1-2.6,8-2.6,12.2,0c4.9,3.1,10.1,3.1,15,0c4.1-2.6,8-2.6,12.1,0
	c4.9,3.1,10,3.1,15,0c4.1-2.6,8.1-2.7,12.2,0c2.2,1.5,4.8,2.1,7.4,2.2c2.8,0,5.4-0.8,7.7-2.3c1.2-0.8,1.6-2,1-3
	C98.7,93.6,97.5,93.3,96.2,94.1z"/>
<path d="M2.2,87.8c5.1,3,10.2,2.9,15.3-0.3c3.8-2.4,7.5-2.4,11.3,0c5.3,3.3,10.5,3.3,15.8,0c3.8-2.4,7.6-2.3,11.4,0
	c5.2,3.2,10.4,3.3,15.6,0c3.9-2.4,7.7-2.5,11.6,0c2.3,1.5,4.9,2.4,7.4,2.3c3.1,0,5.8-0.8,8-2.2c1.2-0.8,1.5-2,0.8-3
	c-0.6-1-1.9-1.2-3-0.5c-3.9,2.3-7.6,2.1-11.4-0.3c-5-3.1-10.2-3.2-15.1-0.1c-4.1,2.6-8,2.6-12.1,0c-2.4-1.6-5.1-2.3-7.9-2.2
	c-2.8,0.1-5.3,1-7.7,2.5c-3.5,2.3-7.2,2.3-10.8,0.1c-5.5-3.4-11-3.4-16.5,0c-2.1,1.3-4.5,1.9-6.9,1.3c-1.3-0.3-2.6-1-3.9-1.5
	c-0.8-0.4-1.6-0.5-2.4,0.1c-0.7,0.5-1.1,1.3-0.8,2C1,86.7,1.6,87.4,2.2,87.8z"/>
<path d="M83.3,23.1c4,0,7.1-2.9,7.1-6.8c0-3.8-2.9-6.9-6.6-7c-3.8-0.2-7.1,2.9-7.2,6.9C76.5,19.8,79.6,23.1,83.3,23.1z"/>
<path d="M92.1,9c0.5-0.1,0.7-0.1,0.8-0.2c0.9-0.9,1.9-1.7,2.7-2.7c0.4-0.6,0.3-1.6-0.5-1.9c-0.5-0.3-1.5-0.4-1.9-0.1
	c-0.9,0.6-1.6,1.4-2.3,2.3c-0.3,0.4-0.3,1.2,0,1.7C91.2,8.5,91.8,8.8,92.1,9z"/>
<path d="M74.9,23.4c-0.5,0.1-0.8,0-1,0.2c-0.9,0.9-2,1.8-2.7,2.9c-0.5,0.6,0,1.4,0.6,1.8c0.6,0.5,1.3,0.5,1.9,0
	c0.7-0.6,1.5-1.3,2-2.1c0.3-0.4,0.4-1.2,0.2-1.8C75.9,23.9,75.2,23.6,74.9,23.4z"/>
<path d="M93.7,16.1c0,0.8,0.7,1.7,1.7,1.7c0.9,0,1.8,0,2.7,0c0.9,0,1.5-0.7,1.5-1.7c0-0.9-0.6-1.6-1.5-1.6c-0.4,0-0.9,0-1.3,0
	c-0.5,0-0.9,0-1.4,0C94.5,14.6,93.8,15.3,93.7,16.1z"/>
<path d="M85.1,28c-0.1-0.9-0.7-1.5-1.6-1.5s-1.7,0.6-1.7,1.5c-0.1,1-0.1,1.9,0,2.9c0.1,0.8,0.9,1.5,1.6,1.5c0.9,0,1.6-0.6,1.6-1.6
	c0-0.4,0-0.9,0-1.3C85.1,29,85.1,28.5,85.1,28z"/>
<path d="M81.8,4.3c0.1,0.9,0.8,1.6,1.7,1.6c0.9,0,1.6-0.6,1.6-1.6c0.1-0.9,0.1-1.9,0-2.8S84.4,0,83.5,0s-1.6,0.6-1.7,1.5
	c-0.1,0.5,0,0.9,0,1.4l0,0C81.8,3.4,81.8,3.8,81.8,4.3z"/>
<path d="M68.8,17.8c1,0.1,1.9,0.1,2.9,0c0.9-0.1,1.5-0.8,1.5-1.7c0-0.9-0.6-1.5-1.5-1.6c-0.5,0-0.9,0-1.4,0s-0.9,0-1.4,0
	c-0.9,0.1-1.6,0.8-1.6,1.7C67.3,17,68,17.8,68.8,17.8z"/>
<path d="M73.4,8.5c0.8,0.7,1.7,0.6,2.3-0.1c0.6-0.6,0.6-1.7-0.1-2.4c-0.6-0.6-1.2-1.2-1.8-1.8c-0.3-0.3-0.7-0.4-1.3-0.7
	c-0.5,0.4-1.1,0.7-1.3,1.2c-0.2,0.5-0.1,1.2,0.2,1.6C72,7.2,72.7,7.9,73.4,8.5z"/>
<path d="M93.3,28.2c0.4,0.3,1.2,0.2,1.7,0c0.4-0.2,0.7-0.8,0.9-1.1c-0.1-0.5-0.1-0.9-0.2-1c-0.8-0.9-1.7-1.8-2.6-2.6
	c-0.6-0.4-1.4-0.2-1.9,0.4s-0.7,1.4-0.1,2C91.7,26.8,92.5,27.6,93.3,28.2z"/>
<path d="M85,70.2c-0.3,0-0.6,0-1,0c0,2.7,0,5.3,0,7.9c-1.7,0.3-3.3,0.5-4.9,0.8c0-2.9,0-5.7,0-8.6c-3.5,0-6.9,0-10.4,0
	c0,2.9,0,7.5,0,10.2l-4.9,1.7c0-2.6,0-9.3,0-12c-3.5,0-6.9,0-10.5,0c0,3.2,0,6.4,0,9.8c-1.5-0.4-2.9-0.8-4.4-1.1
	c-0.5-0.1-0.6-0.3-0.6-0.8c0-1.9,0-3.9,0-5.8c0-0.7,0-1.3,0-2.1c-1.5,0-2.8,0-4.2,0c0-1.7,0-3.3,0-5c0.4,0,0.7,0,1,0
	c11.1,0,22.1,0,33.2,0c6.9,0,13.7,0,20.6,0c1,0,1.1,0.1,1.1,1s0,1.9,0,2.8c0,1-0.1,1.1-1.1,1.1C94.2,70.2,89.6,70.2,85,70.2z"/>
</svg>
