<?xml version="1.0" encoding="utf-8"?>
<!-- Generator: Adobe Illustrator 23.1.1, SVG Export Plug-In . SVG Version: 6.00 Build 0)  -->
<svg version="1.1" id="Layer_1" xmlns="http://www.w3.org/2000/svg" xmlns:xlink="http://www.w3.org/1999/xlink" x="0px" y="0px"
	 viewBox="0 0 100 100" style="enable-background:new 0 0 100 100;" xml:space="preserve">
<g>
	<path d="M7.6,79.5c0.2,0.1,0.4,0.2,0.6,0.2c1.6,0.5,2.9-0.2,4.3-0.9c7-4.1,14.1-4.1,21,0c2.2,1.3,4,1.3,6.1,0
		c3.7-2.4,7.7-3.4,12.1-3c3.4,0.3,6.4,1.3,9.2,3.2c1.8,1.2,3.6,1.2,5.3,0c0.2-0.2,0.5-0.3,0.7-0.4c3.7-2.1,7.6-3.1,11.9-2.7
		c3.4,0.3,6.5,1.4,9.3,3.3c1.3,0.9,2.7,1.2,4.1,0.4c1.8-1,3.5-1.9,5.7-1.7c-2.5-2.1-5.3-3.7-8.2-5.1c-9.4-4.4-19.3-6.5-29.5-7.3
		c-0.2-1.7-0.9-3.1-2-4.1c0.5-0.4,0.9-0.8,1.4-1.2c0.8-0.1,1.4-0.5,1.9-0.9c0.5-0.5,0.7-1.1,0.7-1.8c0-0.6,0-1.2-0.2-1.7
		c1.8-0.8,2.5-3.5,1.6-6.5c-0.9-3-3.2-5.2-5.2-5.2h0c-0.2,0-0.3,0-0.5,0c0,0-0.1,0-0.1,0c2,0.8,2.9,5.1,2.1,8.2
		c-1.7-1.2-3.4-3.1-4.4-5.4c-0.2,1.1-0.2,2.5,0.2,3.9c0.9,3,3.1,5.2,5.2,5.2c0.2,0.5,0.2,1,0.2,1.4c0,0.4-0.2,0.8-0.4,1.1
		c-0.2,0.2-0.4,0.4-0.8,0.5c-0.7-1.7-3.5-3.1-7.1-3.7l0.5-1.7c0.5-0.1,1-0.6,1-1.2c0-0.7-0.5-1.2-1.2-1.2c-0.7,0-1.2,0.5-1.2,1.2
		c0,0.3,0.1,0.6,0.3,0.8L51.6,55c-0.9-0.1-1.8-0.1-2.7-0.1c-0.8,0-1.6,0-2.3,0.1L46,53.1c0.3-0.2,0.4-0.5,0.4-0.9
		c0-0.7-0.5-1.2-1.2-1.2c-0.7,0-1.2,0.5-1.2,1.2c0,0.5,0.4,1,0.8,1.2l0.5,1.7c-3.8,0.6-6.7,2-7.5,3.7c-0.4,0-0.7-0.1-0.9-0.2
		c-0.3-0.2-0.5-0.5-0.6-0.9c-0.1-0.4-0.2-0.8-0.1-1.3c2,0.4,4.5-1.4,5.8-4.1c0.5-1,0.8-2.1,0.8-3c-1.4,1.7-3.2,2.9-5.1,3.6
		c-0.2-2.9,1.7-6.6,4-6.6c0,0,0.1,0,0.1,0c-0.3-0.3-0.6-0.5-0.9-0.6c-0.3-0.1-0.6-0.2-1-0.2c-1.9,0-4,1.7-5.2,4.1
		c-1.2,2.5-1,5.1,0.3,6.2c-0.1,0.7-0.1,1.5,0.2,2.2c0.2,0.6,0.6,1.1,1.1,1.5c0.4,0.3,1,0.4,1.6,0.4c0.6,0.6,1.2,1.1,1.9,1.6
		c-1,1-1.5,2.4-1.7,4c-2.6,0.3-5.2,0.6-7.8,1.1c-7.9,1.4-15.5,3.6-22.5,7.4c-2,1.1-3.9,2.4-5.8,3.6c0,0.1,0.1,0.2,0.1,0.3
		C4.2,77.7,5.9,78.5,7.6,79.5z M57.3,62.1c0.9,0.6,1.5,1.8,1.8,3.3c-0.3,0-0.5,0-0.8-0.1c-0.4,0-0.8,0-1.1-0.1
		c-0.2-1-0.4-1.8-0.9-2.6C56.6,62.5,56.9,62.3,57.3,62.1z M55.1,63.1c0.4,0.6,0.6,1.2,0.8,2c-0.5,0-1-0.1-1.5-0.1
		c-0.1-0.6-0.1-1.1-0.2-1.6c0,0,0-0.1,0-0.1C54.5,63.3,54.8,63.2,55.1,63.1z M48.9,64c1.6,0,3-0.1,4.2-0.3c0,0,0,0,0,0.1
		c0.1,0.4,0.1,0.8,0.2,1.3c-2.7-0.1-5.4-0.1-8.1,0c0-0.5,0.1-0.9,0.2-1.3C46.3,63.9,47.5,64,48.9,64z M44.1,63.6
		c-0.1,0.5-0.2,1-0.2,1.6c-0.5,0-1,0.1-1.5,0.1c0.1-0.7,0.4-1.4,0.7-1.9C43.4,63.4,43.8,63.5,44.1,63.6z M40.8,62.3
		c0.4,0.2,0.7,0.4,1.2,0.6c-0.4,0.7-0.6,1.5-0.8,2.4c-0.6,0-1.3,0.1-1.9,0.2C39.5,64.1,40,63,40.8,62.3z"/>
	<path d="M96.1,94.1c-3.8,2.2-7.5,2.1-11.2-0.2c-5-3.1-10.2-3.3-15.2-0.1c-4.1,2.5-8,2.5-12.1,0c-4.9-3.1-10-3.1-15,0
		c-4.1,2.5-8,2.6-12.1,0c-5-3.1-10.2-3-15.2,0c-3.9,2.4-7.6,2.5-11.5,0.2c-0.5-0.3-1.2-0.4-1.7-0.3c-0.8,0.1-1.4,0.8-1.5,1.7
		c-0.1,1,0.3,1.7,1.1,2.2c5,3.1,10.2,3.2,15.2,0.1c4.1-2.6,8-2.6,12.2,0c4.9,3.1,10.1,3.1,15,0c4.1-2.6,8-2.6,12.1,0
		c4.9,3.1,10,3.1,15,0c4.1-2.6,8.1-2.7,12.2,0c2.2,1.5,4.8,2.1,7.4,2.2c2.8,0,5.4-0.8,7.7-2.3c1.2-0.8,1.6-2,1-3
		C98.5,93.6,97.3,93.3,96.1,94.1z"/>
	<path d="M2,87.8c5.1,3,10.2,2.9,15.3-0.3c3.8-2.4,7.5-2.4,11.3,0c5.3,3.3,10.5,3.3,15.8,0c3.8-2.4,7.6-2.3,11.4,0
		c5.2,3.2,10.4,3.3,15.6,0c3.9-2.4,7.7-2.5,11.6,0c2.3,1.5,4.9,2.4,7.4,2.3c3.1,0,5.8-0.8,8-2.2c1.2-0.8,1.5-2,0.8-3
		c-0.6-1-1.9-1.2-3-0.5c-3.9,2.3-7.6,2.1-11.4-0.3c-5-3.1-10.2-3.2-15.1-0.1c-4.1,2.6-8,2.6-12.1,0c-2.4-1.6-5.1-2.3-7.9-2.2
		c-2.8,0.1-5.3,1-7.7,2.5c-3.5,2.3-7.2,2.3-10.8,0.1c-5.5-3.4-11-3.4-16.5,0c-2.1,1.3-4.5,1.9-6.9,1.3c-1.3-0.3-2.6-1-3.9-1.5
		C3,83.6,2.2,83.5,1.4,84c-0.7,0.5-1.1,1.3-0.8,2C0.9,86.7,1.4,87.4,2,87.8z"/>
	<path d="M83.1,23.1c4,0,7.1-2.9,7.1-6.8c0-3.8-2.9-6.9-6.6-7c-3.8-0.2-7.1,2.9-7.2,6.9C76.3,19.8,79.4,23.1,83.1,23.1z"/>
	<path d="M92,9c0.5-0.1,0.7-0.1,0.8-0.2c0.9-0.9,1.9-1.7,2.7-2.7c0.4-0.6,0.3-1.6-0.5-1.9c-0.5-0.3-1.5-0.4-1.9-0.1
		c-0.9,0.6-1.6,1.4-2.3,2.3c-0.3,0.4-0.3,1.2,0,1.7C91,8.5,91.6,8.8,92,9z"/>
	<path d="M74.7,23.4c-0.5,0.1-0.8,0-1,0.2c-0.9,0.9-2,1.8-2.7,2.9c-0.5,0.6,0,1.4,0.6,1.8c0.6,0.5,1.3,0.5,1.9,0
		c0.7-0.6,1.5-1.3,2-2.1c0.3-0.4,0.4-1.2,0.2-1.8C75.7,23.9,75,23.6,74.7,23.4z"/>
	<path d="M93.6,16.1c0,0.8,0.7,1.7,1.7,1.7c0.9,0,1.8,0,2.7,0c0.9,0,1.5-0.7,1.5-1.7c0-0.9-0.6-1.6-1.5-1.6c-0.4,0-0.9,0-1.3,0
		c-0.5,0-0.9,0-1.4,0C94.3,14.6,93.6,15.3,93.6,16.1z"/>
	<path d="M84.9,28c-0.1-0.9-0.7-1.5-1.6-1.5c-0.9,0-1.7,0.6-1.7,1.5c-0.1,1-0.1,1.9,0,2.9c0.1,0.8,0.9,1.5,1.6,1.5
		c0.9,0,1.6-0.6,1.6-1.6c0-0.4,0-0.9,0-1.3C84.9,29,85,28.5,84.9,28z"/>
	<path d="M81.6,4.3c0.1,0.9,0.8,1.6,1.7,1.6c0.9,0,1.6-0.6,1.6-1.6c0.1-0.9,0.1-1.9,0-2.8C84.9,0.6,84.2,0,83.4,0
		c-0.9,0-1.6,0.6-1.7,1.5c-0.1,0.5,0,0.9,0,1.4c0,0,0,0,0,0C81.6,3.4,81.6,3.8,81.6,4.3z"/>
	<path d="M68.6,17.8c1,0.1,1.9,0.1,2.9,0c0.9-0.1,1.5-0.8,1.5-1.7c0-0.9-0.6-1.5-1.5-1.6c-0.5,0-0.9,0-1.4,0c-0.5,0-0.9,0-1.4,0
		c-0.9,0.1-1.6,0.8-1.6,1.7C67.1,17,67.8,17.8,68.6,17.8z"/>
	<path d="M73.3,8.5C74,9.2,75,9.1,75.6,8.4c0.6-0.6,0.6-1.7-0.1-2.4c-0.6-0.6-1.2-1.2-1.8-1.8C73.5,4,73,3.9,72.4,3.6
		C72,4,71.3,4.3,71.1,4.8C70.9,5.3,71,6,71.3,6.5C71.8,7.2,72.6,7.9,73.3,8.5z"/>
	<path d="M93.1,28.2c0.4,0.3,1.2,0.2,1.7,0c0.4-0.2,0.7-0.8,0.9-1.1c-0.1-0.5-0.1-0.9-0.2-1c-0.8-0.9-1.7-1.8-2.6-2.6
		c-0.6-0.4-1.4-0.2-1.9,0.4c-0.5,0.6-0.7,1.4-0.1,2C91.5,26.8,92.3,27.6,93.1,28.2z"/>
</g>
</svg>
