<?xml version="1.0" encoding="utf-8"?>
<!-- Generator: Adobe Illustrator 23.1.1, SVG Export Plug-In . SVG Version: 6.00 Build 0)  -->
<svg version="1.1" id="Layer_1" xmlns="http://www.w3.org/2000/svg" xmlns:xlink="http://www.w3.org/1999/xlink" x="0px" y="0px"
	 viewBox="0 0 100 100" style="enable-background:new 0 0 100 100;" xml:space="preserve">
<path d="M8.4,15.8C24.4,16.1,38.7,12,50,0c11.3,12,25.6,16.1,41.7,15.8c0.1,1.2,0.3,2.3,0.4,3.3c1.9,25.7-4.6,48.5-23,67.3
	c-5.4,5.5-11.6,9.8-18.3,13.4c-0.4,0.2-1.1,0.2-1.4,0c-21.8-12-35-30.3-40-54.6c-1.9-9.3-2.2-18.7-1.2-28.2
	C8.3,16.7,8.3,16.3,8.4,15.8z M12.4,20.2c0,0.3-0.1,0.6-0.1,0.8c-0.7,8.5-0.1,16.9,1.8,25.2c4.7,21.1,16.3,37.4,35,48.4
	c0.7,0.4,1.2,0.5,1.9,0.1c9.7-5.7,17.9-13,24.1-22.5c10-15.1,13.7-31.9,12.9-49.9c0-0.7-0.2-1.4-0.2-2.2c-14.2-0.4-26.9-4.4-37.7-14
	C39.3,15.7,26.6,19.8,12.4,20.2z M49.7,11.8c-9.3,7.7-20.1,11.4-32,12c-1,0.1-1.3,0.4-1.3,1.4c-0.3,7.2,0.3,14.3,1.9,21.3
	C22.6,65.1,32.6,79.6,49,89.6c0.7,0.4,1.2,0.6,2,0.1c7-4.3,13.1-9.5,18.2-16c7.1-9.2,11.4-19.6,13.4-31c1-5.8,1.4-11.7,1.2-17.5
	c0-1-0.3-1.4-1.3-1.4c-1.1,0-2.2-0.1-3.3-0.2c-9.8-1.1-18.7-4.3-26.7-10.2c-0.8-0.6-1.5-1.2-2.3-1.8C49.9,11.7,49.8,11.7,49.7,11.8z
	"/>
</svg>
