<?xml version="1.0" encoding="utf-8"?>
<!-- Generator: Adobe Illustrator 23.1.1, SVG Export Plug-In . SVG Version: 6.00 Build 0)  -->
<svg version="1.1" id="Layer_1" xmlns="http://www.w3.org/2000/svg" xmlns:xlink="http://www.w3.org/1999/xlink" x="0px" y="0px"
	 viewBox="0 0 100 100" style="enable-background:new 0 0 100 100;" xml:space="preserve">
<path d="M48,5.3c-6,0-12.1,1.9-17.5,5.7c-9.7,6.8-14.2,18-12.6,28.4c3.6-1.3,7.4-2,11.5-2c5.6,0,10.8,1.3,15.4,3.7
	c6-6.4,14.7-10.4,24.5-10.4c2,0,4,0.2,5.9,0.5C75,26,73.5,20.9,70.4,16.5C65.2,9.1,56.8,5.3,48,5.3z M42.1,8.4l2.2,1.6l6.2-0.9
	l-1.7,2.8l2.9,2.4l-4.3,1.8L44.9,20l-3.7-0.5L35.1,22l-0.3-2.4l-5.1-0.8l3.3-2.6l-0.2-3.5l4.5-0.8L42.1,8.4z M70.6,33.6
	c-8.9,0-16.9,3.7-22.3,9.6c7.9,5.4,13,14.2,13,24c0,6.5-2.2,12.5-6,17.4c4.4,2.5,9.7,4,15.3,4c16.2,0,29.4-12.3,29.4-27.5
	S86.8,33.6,70.6,33.6z M74.2,37.2l3.3,2.2l5.3,0.6l0.4,2.4l4.6,3.2L85,46.4l0.4,3.4l-3.9-1.4l-4.1,1l-2.1-2.6l-5.5-2.1l1.4-1.8
	l-2.7-3.6l3.8,0.3L74.2,37.2z M29.4,39.7C13.2,39.7,0,52.1,0,67.2s13.2,27.5,29.4,27.5s29.4-12.3,29.4-27.5
	C58.8,52.1,45.6,39.7,29.4,39.7L29.4,39.7z M37.8,43.4l1.9,3.1l8.1,1.8l-3.4,2.7l2.4,4.4l-6.2,0.3l-5.1,3.8l-4.3-2.4l-8.8,0.3
	l0.8-3.3l-5.8-3.4l5.4-1.7l1.5-4.5l5.9,1.2L37.8,43.4L37.8,43.4z"/>
</svg>
