<?xml version="1.0" encoding="utf-8"?>
<!-- Generator: Adobe Illustrator 23.1.1, SVG Export Plug-In . SVG Version: 6.00 Build 0)  -->
<svg version="1.1" id="Layer_1" xmlns="http://www.w3.org/2000/svg" xmlns:xlink="http://www.w3.org/1999/xlink" x="0px" y="0px"
	 viewBox="0 0 100 100" style="enable-background:new 0 0 100 100;" xml:space="preserve">
<path d="M48.5,0c1.1-0.3,0.9,0.9,1.5,1.2c0.6-0.3,0.4-1.5,1.5-1.2c0,31.8,0,63.6,0,95.5c-1,0-2,0-3,0C48.5,63.7,48.5,31.9,48.5,0z
	 M44.5,95.7c-0.4-1.9-0.8-3.8-1.2-5.8c-0.3-1.5-0.6-3.1-1.2-4.5c-3.6-8.4-7.3-16.7-10.9-25.1c-7.5-17.2-15-34.3-22.4-51.5
	C8.7,8.7,8.6,8.5,8.5,8.3C7.4,8.5,7.9,9.5,7.6,10c-0.7-0.1-1-1.3-1.9-0.4c12.7,29.2,25.4,58.3,38.1,87.5c0,0,0.1,0,0.1-0.1
	c0-0.2-0.1-0.3-0.1-0.5c0.3-0.1,0.5-0.1,0.8-0.2C44.6,96.1,44.5,95.9,44.5,95.7z M56.2,97.1C68.9,67.9,81.7,38.7,94.4,9.6
	c-0.9-0.8-1.3,0.4-1.9,0.4c-0.4-0.5,0.2-1.6-0.9-1.7c-0.2,0.4-0.3,0.7-0.5,1c-10.5,24-20.9,48-31.4,72c-1.1,2.5-2.5,5-2.8,7.8
	c-0.1,1-0.4,2-0.6,3c-0.3,1.4-0.6,2.8-0.9,4.2c0.3,0.1,0.6,0.2,0.8,0.2c-0.1,0.2-0.1,0.3-0.1,0.5C56.1,97.1,56.2,97.1,56.2,97.1z
	 M47,94.8c0-2.9,0-5.8,0-8.7c0-0.4,0-0.8-0.1-1.2c-2.2-10.4-4.3-20.8-6.5-31.3C37.1,37.8,33.8,21.9,30.5,6c-0.3-1.3-0.6-2.7-0.8-4
	c-1.2-0.1-0.8,1.1-1.3,1.5c-0.6-0.2-0.7-1.4-1.8-0.8C33,33.8,39.5,64.9,46,96c0.1,0,0.1,0,0.2,0c0-0.1,0-0.3,0-0.5
	c0.3,0,0.5,0,0.9,0C47,95.3,47,95,47,94.8z M70.3,2.6c-2.2,10.7-4.5,21.3-6.7,32c-3.3,15.7-6.5,31.3-9.8,47C53.5,83,53.1,84.5,53,86
	c-0.1,2.7,0,5.3,0,8c0,0.5,0,1,0,1.5c0.3,0,0.6,0,0.9,0.1c0,0.2,0,0.3,0,0.4c0,0,0.1,0,0.1,0c6.5-31.1,13-62.3,19.5-93.4
	c-1.1-0.5-1.2,0.7-1.8,0.8C71.2,3,71.5,1.9,70.4,2C70.4,2.2,70.3,2.4,70.3,2.6z M6.4,15.6c-0.1,0.2-0.2,0.4-0.2,0.6
	c-1.1,3-1.1,6.1-0.4,9.1c1.2,5.1,4,9.4,7.7,13.1c1.4,1.5,3.1,2.7,4.6,4.1c0.1-0.1,0.1-0.1,0.2-0.2c-3.9-9-7.8-18-11.7-27
	C6.5,15.5,6.4,15.5,6.4,15.6z M93,28.8c1.4-3.4,2.1-6.9,1.3-10.6c-0.2-1-0.5-1.9-0.8-2.8c-0.1,0-0.1,0-0.2,0
	c-3.9,9-7.8,17.9-11.8,27.1C86.2,39.7,90.9,34,93,28.8z M76.1,39.9c3.9-9,7.8-17.9,11.8-27C87.7,13,87.6,13,87.5,13
	c-0.2,0.1-0.5,0.2-0.7,0.3c-3,1.4-5.3,3.5-7,6.3c-3.2,5.2-4.3,10.8-4.1,16.8c0,1.1,0.2,2.3,0.3,3.4C76,39.9,76.1,39.9,76.1,39.9z
	 M12.1,13C16,22,20,30.9,23.9,40c0.1-0.3,0.1-0.4,0.1-0.5c0.7-5.6,0.1-11-2-16.3c-1.5-3.8-3.8-7-7.4-9.1c-0.8-0.5-1.6-0.8-2.4-1.2
	C12.2,12.9,12.2,13,12.1,13z M38.4,35.9c0.1-0.1,0.1-0.3,0.2-0.5c1.6-4.6,2.1-9.4,1.6-14.2c-0.4-3.5-1.4-6.9-3.5-9.8
	c-1.2-1.7-2.6-3.1-4.5-4.3c2,9.7,4,19.3,6.1,28.9C38.3,36,38.4,35.9,38.4,35.9z M61.8,36c2-9.6,4-19.2,6-28.9
	c-0.3,0.2-0.6,0.4-0.8,0.5c-2.9,2.1-4.8,4.9-6,8.2c-1.6,4.5-1.8,9.2-1,13.9c0.3,2.1,0.9,4.2,1.4,6.3C61.6,36,61.7,36,61.8,36z
	 M73.7,8.5c-2,9.6-4,19.2-6,28.9c0.2-0.1,0.2-0.2,0.3-0.2c3.9-4.2,6.7-9.1,8-14.8c0.9-3.8,0.9-7.6-0.7-11.2
	c-0.4-0.9-0.9-1.8-1.4-2.7C73.8,8.5,73.8,8.5,73.7,8.5z M25.7,9.1c-2.2,3.7-2.6,7.8-1.9,11.9c1,5.9,3.7,11,7.7,15.5
	c0.2,0.3,0.5,0.5,0.8,0.9c-2-9.8-4-19.4-6-29.1C26,8.7,25.9,8.9,25.7,9.1z M53.1,35.3c1.5-2.4,2.6-4.9,3.5-7.5
	c1.5-4.7,2-9.5,0.9-14.4c-0.7-3-2.1-5.6-4.4-7.7C53.1,15.6,53.1,25.3,53.1,35.3z M46.3,6.3c-2.9,3.1-4.1,6.9-4.3,11
	c-0.3,6.3,1.4,12.1,4.6,17.5c0.1,0.1,0.2,0.3,0.4,0.5c0-9.9,0-19.6,0-29.5C46.7,5.9,46.5,6.1,46.3,6.3z M48.5,97
	c0.5,0.9,1,1.7,1.5,2.6c0.5-0.9,1-1.7,1.5-2.6C50.4,97,49.5,97,48.5,97z M51.9,99.4c0.6-0.6,1.1-1.2,1.7-1.9
	c-0.4-0.2-0.7-0.2-0.9,0.2c-0.3,0.5-0.6,1.1-0.9,1.6C51.8,99.4,51.9,99.4,51.9,99.4z M46.5,100c-0.3-0.6-0.8-1-1.2-1.5
	c-0.3-0.4-0.5-0.4-0.9,0C45.2,99,45.9,99.5,46.5,100z M48.2,99.6c-0.7-1.8-1.1-2.2-1.8-2C47,98.2,47.5,98.8,48.2,99.6z M55.5,98.3
	c-0.2,0-0.6,0-0.7,0.1c-0.5,0.5-0.9,1-1.4,1.5c0,0,0.1,0.1,0.1,0.1c0.7-0.5,1.4-1,2.1-1.5C55.5,98.4,55.5,98.3,55.5,98.3z"/>
</svg>
