<?xml version="1.0" encoding="utf-8"?>
<!-- Generator: Adobe Illustrator 23.1.1, SVG Export Plug-In . SVG Version: 6.00 Build 0)  -->
<svg version="1.1" id="Layer_1" xmlns="http://www.w3.org/2000/svg" xmlns:xlink="http://www.w3.org/1999/xlink" x="0px" y="0px"
	 viewBox="0 0 100 100" style="enable-background:new 0 0 100 100;" xml:space="preserve">
<path d="M93.5,88.7c0,0,11.1-26.6-3.1-60.5c-1.9-4.5-5.7-3.8-9-3.9l8.6-8.5l2,6.7l7.2-20L81.2,13.3l5.4,0.3L77.4,23
	c-1.6-1.6-1-4.5-2.8-8.1C72.5,10.7,54.6,0,34.1,4.1C13.6,8.2,13.6,8.2,13.6,8.2S15.6,2.5,8.4,1C1.3-0.5-2.8,5.6,2.3,10.7
	C2.8,11.3,3.4,11.7,4,12c2.2,11.1,9.5,47,14,63.1L11,83h9.7l2.6,8.7l4.7-6.2c15.2,3.7,49.6,8.4,62,8.8c2,6.2,8.1,6.1,9.7,2
	C101.7,91.2,93.5,88.7,93.5,88.7z M7.2,13.3c5.4,1.1,12.9-0.7,21.3-1.5c10-0.9,29.1,0.6,43.4,16.9L30,71l-7.2-1.4l-2.4,2.7
	C16.2,58.3,9.5,24.8,7.2,13.3z M30.9,81.7l2.1-2.8l-1.4-5.2l42.5-42.2c1,1.4,2,2.8,3,4.3c14.4,23.1,13.3,40,12.3,52.3
	c-0.2,1.9-0.1,3.5,0.2,4.9C77.5,91.1,46,85.9,30.9,81.7z"/>
</svg>
