<?xml version="1.0" encoding="utf-8"?>
<!-- Generator: Adobe Illustrator 23.1.1, SVG Export Plug-In . SVG Version: 6.00 Build 0)  -->
<svg version="1.1" id="Layer_1" xmlns="http://www.w3.org/2000/svg" xmlns:xlink="http://www.w3.org/1999/xlink" x="0px" y="0px"
	 viewBox="0 0 210.5 100" style="enable-background:new 0 0 210.5 100;" xml:space="preserve">
<path d="M89.1,71.6H65.3c-2.8,0-5-2.2-5-5c0-2.8,2.2-5,5-5h23.8c2.8,0,5,2.2,5,5C94.1,69.4,91.9,71.6,89.1,71.6z M145.2,71.6h-23.8
	c-2.8,0-5-2.2-5-5c0-2.8,2.2-5,5-5h23.8c2.8,0,5,2.2,5,5C150.2,69.4,147.9,71.6,145.2,71.6z M89.1,85.8H65.3c-2.8,0-5-2.2-5-5
	s2.2-5,5-5h23.8c2.8,0,5,2.2,5,5C94.1,83.6,91.9,85.8,89.1,85.8z M145.2,85.8h-23.8c-2.8,0-5-2.2-5-5s2.2-5,5-5h23.8
	c2.8,0,5,2.2,5,5C150.2,83.6,147.9,85.8,145.2,85.8z M89.1,100H65.3c-2.8,0-5-2.2-5-5s2.2-5,5-5h23.8c2.8,0,5,2.2,5,5
	C94.1,97.8,91.9,100,89.1,100z M145.2,100h-23.8c-2.8,0-5-2.2-5-5s2.2-5,5-5h23.8c2.8,0,5,2.2,5,5S147.9,100,145.2,100z M145.2,57.4
	H65.3c-2.8,0-5-2.2-5-5s2.2-5,5-5h79.8c2.8,0,5,2.2,5,5C150.2,55.2,147.9,57.4,145.2,57.4z M127.5,43H83c-2.8,0-5-2.2-5-5s2.2-5,5-5
	h44.5c2.8,0,5,2.2,5,5S130.3,43,127.5,43z M109.1,29.2h-7.7c-2.8,0-5-2.2-5-5s2.2-5,5-5h7.7c2.8,0,5,2.2,5,5S111.8,29.2,109.1,29.2z
	 M163.6,44l-14.3-11.1V17.8c0-1.8-1.5-3.3-3.3-3.3h-4.9c-1.8,0-3.3,1.5-3.3,3.3V24L108.2,1c-1.8-1.4-4.3-1.4-6.1,0L46.9,44
	c-2.2,1.7-2.6,4.8-0.9,7c1.7,2.2,4.8,2.6,7,0.9l52.2-40.6l52.2,40.6c0.9,0.7,2,1.1,3.1,1.1c1.5,0,3-0.7,3.9-1.9
	C166.2,48.9,165.8,45.7,163.6,44z"/>
<path d="M175.8,79.9v10.2v9.6H172V87C171.9,84.2,173.4,81.5,175.8,79.9z M179.8,99.7h19.4v-2.4h-19.4V99.7z M203.3,79.9v10.2v9.6
	h3.8V87C207.2,84.2,205.6,81.5,203.3,79.9z M200.3,55.1l-0.8-6.4c-0.2-1.6-1.6-2.9-3.2-2.9h-13.4c-1.6,0-3,1.3-3.2,2.9l-0.8,6.4
	c-5.1,0.9-8.5,2.3-8.5,3.9c0,1.5,3,3,7.5,3.8c-0.1,0.5-0.1,1.2-0.1,1.8c0,5.1,2.4,9.6,6.1,11.9l0,0l-4.9,1.9V90h21.2V78.4l-4.9-1.9
	c3.6-2.3,6.1-6.8,6.1-11.9c0-0.6,0-1.2-0.1-1.7h-0.1c4.7-0.9,7.6-2.2,7.6-3.8C208.8,57.4,205.4,56,200.3,55.1z"/>
</svg>
