<?xml version="1.0" encoding="utf-8"?>
<!-- Generator: Adobe Illustrator 23.1.1, SVG Export Plug-In . SVG Version: 6.00 Build 0)  -->
<svg version="1.1" id="Layer_1" xmlns="http://www.w3.org/2000/svg" xmlns:xlink="http://www.w3.org/1999/xlink" x="0px" y="0px"
	 viewBox="0 0 200 100" style="enable-background:new 0 0 200 100;" xml:space="preserve">
<g transform="translate(0,-288.53332)">
	<path d="M101.6,315.1c-0.6,0-1.2,0.2-1.7,0.7c0,0,0,0-0.1,0l-31,25.2h65.6l-31.1-25.2c0,0,0,0-0.1,0
		C102.8,315.3,102.2,315.1,101.6,315.1L101.6,315.1z M101.6,324.4c2.6,0,4.8,2.1,4.8,4.8l0,0c0,2.6-2.1,4.8-4.8,4.8h0
		c-2.6,0-4.8-2.1-4.8-4.8l0,0C96.9,326.6,99,324.4,101.6,324.4L101.6,324.4z"/>
	<path d="M92.9,363.2v25.4h17.4v-25.4H92.9z M97.7,374.3c0.9,0,1.6,0.7,1.6,1.6l0,0c0,0.9-0.7,1.6-1.6,1.6h0c-0.9,0-1.6-0.7-1.6-1.6
		l0,0C96.1,375,96.8,374.3,97.7,374.3L97.7,374.3z"/>
	<path d="M67.5,306.1v3.2h1.6v14.2l9.5-7.7v-6.5h1.6v-3.2H67.5z"/>
	<path d="M101.6,304.5c3,0,6.1,1,8.5,3.1l34.4,27.8c4.2,3.4-1,9.6-5,6l-34.4-27.8c-2-1.8-5-1.8-7,0l-34.3,27.8c-4,3.6-9.2-2.6-5-6
		l34.3-27.8C95.5,305.6,98.6,304.5,101.6,304.5z"/>
	<path d="M90.5,288.7c-2.2,0-4,1.8-4,4v2.4c0,0.5-0.3,0.8-0.8,0.8H73.9c-2.2,0-4,1.8-4,4v2.4c0,0.9,0.7,1.6,1.6,1.6
		c0.9,0,1.6-0.7,1.6-1.6c0,0,0,0,0,0v-2.4c0-0.5,0.3-0.8,0.8-0.8h11.9c2.2,0,4-1.8,4-4v-2.4c0-0.5,0.3-0.8,0.8-0.8h12.7
		c0.9,0,1.6-0.7,1.6-1.6c0-0.9-0.7-1.6-1.6-1.6c0,0,0,0,0,0L90.5,288.7z"/>
	<path d="M69.1,382.2c-1.8,0-3.2,1.4-3.2,3.2c0,1.8,1.4,3.2,3.2,3.2h20.7v-6.3H69.1z"/>
	<path d="M113.4,382.2v6.3h20.7c1.8,0,3.2-1.4,3.2-3.2c0-1.8-1.4-3.2-3.2-3.2H113.4z"/>
	<path d="M69.1,372.7c-1.8,0-3.2,1.4-3.2,3.2c0,1.8,1.4,3.2,3.2,3.2h20.7v-6.3H69.1z"/>
	<path d="M113.4,372.7v6.3h20.7c1.8,0,3.2-1.4,3.2-3.2c0-1.8-1.4-3.2-3.2-3.2H113.4z"/>
	<path d="M69.1,363.2c-1.8,0-3.2,1.4-3.2,3.2c0,1.8,1.4,3.2,3.2,3.2h20.7v-6.3H69.1z"/>
	<path d="M113.4,363.2v6.3h20.7c1.8,0,3.2-1.4,3.2-3.2c0-1.8-1.4-3.2-3.2-3.2H113.4z"/>
	<path d="M134.1,353.7h-65c-1.8,0-3.2,1.4-3.2,3.2v0c0,1.8,1.4,3.2,3.2,3.2h65c1.8,0,3.2-1.4,3.2-3.2v0
		C137.3,355.1,135.9,353.7,134.1,353.7z"/>
	<path d="M134.1,344.1h-65c-1.8,0-3.2,1.4-3.2,3.2v0c0,1.8,1.4,3.2,3.2,3.2h65c1.8,0,3.2-1.4,3.2-3.2v0
		C137.3,345.6,135.9,344.1,134.1,344.1z"/>
</g>
<g>
	<path d="M167.9,79.6l0.2-12.3v0.1c0.3,1.8,1,6.8,1.4,9.1c0.7-0.7,1.7-1.1,2.8-1.1c0.3,0,0.5,0.1,0.8,0.1c-0.4-2.4-1-6.8-1.3-8.5
		c-0.4-2.9-2.4-5-5-5.7c-1.1,0.8-2.4,1.2-3.8,1.2s-2.7-0.4-3.8-1.2c-2.6,0.7-4.6,2.8-5,5.7c-0.3,2.4-1.5,10-1.6,10.1
		c-0.2,1,0.5,1.9,1.6,2.1c0.1,0,0.2,0,0.3,0c0.9,0,1.7-0.6,1.8-1.6c0-0.1,1.2-7.8,1.6-10.1v-0.1l0.2,12.3l-1.6,17.8
		c-0.1,1.3,0.9,2.5,2.2,2.6c1.3,0.1,2.5-0.9,2.6-2.2l1.6-17.4h0.2l1.6,17.4c0.1,1.2,1.1,2.2,2.4,2.2c0.1,0,0.2,0,0.2,0
		c1.3-0.1,2.3-1.3,2.2-2.6L167.9,79.6z"/>
	<path d="M172.3,76.5c-1.6,0-2.8,1.2-2.8,2.8c0,0.5,0.4,0.9,0.9,0.9c0.5,0,0.9-0.4,0.9-0.9c0-0.5,0.4-0.9,0.9-0.9
		c0.5,0,0.9,0.4,0.9,0.9V99c0,0.5,0.4,0.9,0.9,0.9c0.5,0,0.9-0.4,0.9-0.9V79.3C175.2,77.7,173.9,76.5,172.3,76.5z"/>
	<path d="M158.1,55.5c0,0.2-0.1,0.4-0.1,0.5c0,2.8,2.3,5.1,5.1,5.1c2.8,0,5.1-2.3,5.1-5.1c0-0.2,0-0.4-0.1-0.5H158.1z"/>
	<path d="M156.7,54.8h12.9c0.3,0,0.6-0.3,0.6-0.6c0-0.3-0.3-0.6-0.6-0.6h-1.8l-0.4-3c-0.2-1.3-1.5-2.1-2.7-1.7l-0.9,0.3
		c-0.4,0.1-0.9,0.1-1.2,0l-0.9-0.3c-1.2-0.4-2.5,0.4-2.7,1.7l-0.4,3h-1.8c-0.3,0-0.6,0.3-0.6,0.6C156.1,54.6,156.3,54.8,156.7,54.8z
		"/>
</g>
<g>
	<path d="M23.7,74.7c11.8,0,23.5,0,35.3,0c0.2,0,0.5-0.2,0.5-0.5v-4.3c0-0.2-0.2-0.5-0.5-0.5c-12.6,0-22.7,0-35.3,0
		c-0.3,0-0.5,0.2-0.5,0.5v4.3C23.2,74.5,23.4,74.7,23.7,74.7z"/>
	<path d="M58.7,97.7h-1.2c0-7.1,0-14.2,0-21.2c0-0.3-0.2-0.5-0.5-0.5H25.5c-0.3,0-0.5,0.2-0.5,0.5c0,7.1,0,14.2,0,21.2h-1.2
		c-0.4,0-0.7,0.3-0.7,0.7v0.9c0,0.4,0.3,0.7,0.7,0.7c2,0,4.1,0,6.1,0c0.4,0,0.7-0.3,0.7-0.7v-0.9c0-0.4-0.3-0.7-0.7-0.7h-1.2v-5.4
		c0-6.9,5.6-12.5,12.5-12.5c6.9,0,12.5,5.6,12.5,12.5l0,5.4h-1.2c-0.4,0-0.7,0.3-0.7,0.7v0.9c0,0.4,0.3,0.7,0.7,0.7c2,0,4.1,0,6.1,0
		c0.4,0,0.7-0.3,0.7-0.7v-0.9C59.4,98,59.1,97.7,58.7,97.7z"/>
	<path d="M42.9,87.7c-1.9-1.7-0.5-4.2-0.5-4.2c-6.7,4.8-4.8,10-4.5,11.5c-1.9-0.9-1.6-4.7-1.6-4.7c0,0,0,0-0.1,0.1
		c-2,1.8-2.4,4.8-2.4,4.8c-0.1,0.9-0.2,1.7-0.2,1.7c0,1.1,0.2,2.2,0.7,3.1H39c1.2-0.6,2.7-1.7,3.2-4c0,0,0.6,2.3-0.7,3.8
		c1.5-1,4.5-3.6,1.6-8.3c1.6,0.8,5.6,3.5,3,8.2c-0.1,0.1-0.1,0.2-0.2,0.4h2.4c0.4-1,0.7-2,0.7-3.1c0-1.2-0.3-2.3-0.7-3.3
		C46.9,91,44.8,89.4,42.9,87.7z"/>
</g>
</svg>
