<?xml version="1.0" encoding="utf-8"?>
<!-- Generator: Adobe Illustrator 23.1.1, SVG Export Plug-In . SVG Version: 6.00 Build 0) -->
<svg version="1.1" id="Layer_1" xmlns="http://www.w3.org/2000/svg" xmlns:xlink="http://www.w3.org/1999/xlink" x="0px" y="0px" viewBox="0 0 200 100" style="enable-background:new 0 0 200 100;" xml:space="preserve">
	<path
		class="st0"
		d="M150.3,58.5c-14.5-18.2-12.1-38.5-23.6-38.5c-5,0-12.3,3.4-15.9,9C106.7,11.6,99,0,90.2,0
	C79.6,0,70.6,16.6,67.6,39.6c-2.1-2-7.2-3.1-9.7-3.1c-9.1,0-13.4,12.2-16.4,31.8c-3,19.6-16.8,31.8-7.8,31.8h44.7
	c-0.1-1.2-0.1-2.4-0.1-3.5c0-18.2,9.1-32.9,20.4-32.9c11.3,0,20.4,14.7,20.4,32.9c0,1.2,0,2.4-0.1,3.5h47.8
	C178.4,100,164.8,76.7,150.3,58.5L150.3,58.5z"/>
</svg>