<?xml version="1.0" encoding="utf-8"?>
<!-- Generator: Adobe Illustrator 23.1.1, SVG Export Plug-In . SVG Version: 6.00 Build 0)  -->
<svg version="1.1" id="Layer_1" xmlns="http://www.w3.org/2000/svg" xmlns:xlink="http://www.w3.org/1999/xlink" x="0px" y="0px"
	 viewBox="0 0 100 150" style="enable-background:new 0 0 100 150;" xml:space="preserve">
<path d="M76.1-0.3c0.5,1,1.1,2.1,1.7,3.3c0.5-0.4,1-0.7,1.5-1.1c0.2,0.6,0.5,1.2,0.8,2c0.5-1.2,0.9-2.2,1.3-3.2
	c0.3,3.5,1.2,6.8,0.1,10.4c-0.8,2.7,0.5,5.9,0.8,8.9c0.1,0.4,0.6,0.9,0.5,1.2c-0.4,2.3,1,3.7,2.3,5.3c1.2,1.5,0.8,6.4-0.3,8.1
	c-0.5,0.7-0.8,1.6-0.8,2.5c-0.1,9.8-0.7,19.6-0.1,29.4c0.5,9.1,0.2,18.3,2.7,27.2c0.8,2.8,0.5,5.8,0.5,8.8
	c-0.1,4.4-0.3,8.7-0.5,13.1c0,0.5-0.1,1.1-0.1,1.6c-0.1,6.5-0.3,13.1-0.3,19.6c0,2.1,0.1,4.2,0.5,6.3c0.5,2.5,0.2,3.1-2.3,3.1
	c-0.4,0-0.9-0.1-1.4-0.2c-0.1-0.9-0.3-1.7-0.2-2.5c0.4-7.3,0.9-14.7,1.2-22c0.2-5.1,0.1-10.2,0.3-15.3c0.2-6.1-0.6-12-2-17.9
	c-0.9-3.7-0.4-7.6-0.6-11.4c-0.1-1.5-0.2-3-0.3-4.5c-0.2-2.4-0.5-4.8-0.4-7.2c0-5.4,0.2-10.9,0.3-16.3c0-2.8,0-5.5,0-8.3
	c-3.9,0.8-5.9,3-6.2,6.6c-0.4,5.3-0.8,10.5-1.5,15.8c-0.4,3.1-1.5,6.1-2.5,9.2c-1.1-3.9-1.5-8-4.2-11.4c-2.4-3.2-4.1-6.9-6.6-10.3
	c-0.6,2.7-1,5.1-0.1,7.8c0.8,2.3,1.1,4.7,1.3,7.2c0.5,5,0.8,10.1,1.2,15.1c0.2,3.1,0.3,6.3,0.4,9.4c0.2,3.7,0.4,7.3,0.5,11
	c0,1.4-0.3,2.7-0.3,4.1c0,1.5,0,3,0.2,4.5c0.4,3,0.5,6.3,1.7,9.1c1.5,3.5,1.8,7,2.4,10.6c0.2,1.1,1.2,2.2,1.1,3.1
	c-0.2,1.6-1.1,3.1-1.8,5.1c1,1,2.9,1.7,5,2c0.7,0.1,1.4,0.8,2,1.2c-0.7,0.5-1.3,1.3-2,1.3c-3,0.2-6.1,0.2-9.2,0.4
	c-1,0-2.1,0.3-3.1,0.4c-1.8,0.2-3.6,0.2-5.1-1.3c-0.4-0.4-1.4-0.6-2-0.5c-1.9,0.2-2.9-0.5-2.8-2.5c0-0.6-0.2-1.2-0.8-1.7
	c-0.2,1.2-0.3,2.3-0.5,3.5c-0.3,1.2-0.9,1.6-2.1,1c-2.2-1.1-4.4-1.3-6.9,0.1c-0.2,1.5-0.4,3.2-0.7,4.9c-0.4,2.3-2.4,3-4.2,3.5
	c-1.8,0.5-3.6,0-4.6-1.6c-0.3-0.5,0.1-1.7,0.4-2.4c0.5-1.1,1.3-2.1,2.1-3.5c-3.8-0.2-7.1-0.5-10.7-0.7c0-0.5-0.1-1.2,0-1.9
	c0.2-1.2,0.2-2-1.2-2.4c-0.5-0.1-1.1-1.2-1-1.8c0.5-2.4-0.4-3.9-2.3-4.5c1.9-6.5,4-12.6,5.4-18.9c1.8-8.9,2.6-17.9,1.7-27
	c-0.1-1.3-0.1-2.7-1.8-3.2c-0.3-0.1-0.6-1.2-0.5-1.8c1.4-6.6,0.5-13.2-0.4-19.8c-0.2-1.6,0-3.3,0-5.1c-0.9-0.4-2.1-0.8-3.1-1.2
	c-3.2-1.4-3.9-4-2.5-7.2c1.7-3.6,3.2-7.3,4.3-11.2c1.1-3.9,3-7.1,6.2-9.6c1.5-1.2,2.9-2.8,3.8-4.4c1.8-3.3,4.2-6,6.7-8.7
	c1.1-1.3,2-2.8,2.7-4.4c1.9-3.7,7.6-6.5,11.5-5.6c2.8,0.6,4.9,2.9,5.3,5.8c0.4,2.8,0.5,5.7,1,8.5c0.4,1.8,1.3,3.4,2,5.1
	c0.2,0.5,0.4,1,0.6,1.5c1.1,3.3,2.2,6.5,3.2,9.8c0,0.1,0.1,0.3,0.2,0.4c1.7,2.5,8.3,3.2,10.6,1.1c0.4-0.4,0.9-0.9,1.4-1
	c3.1-0.4,3-0.5,3.1-4.7c0-0.7,0.2-1.5,0.7-1.9c1.3-1.2,1.2-2.4,0.8-3.9c-0.5-2.2-1-4.4-1.2-6.6c-0.1-1.7-0.6-2.9-1.7-4.2
	c-1.2-1.6-2.2-3.7-2.4-5.6c-0.2-2.3,0.6-4.6,1-7C75.6-0.3,75.8-0.3,76.1-0.3z"/>
</svg>
