<?xml version="1.0" encoding="utf-8"?>
<!-- Generator: Adobe Illustrator 23.1.1, SVG Export Plug-In . SVG Version: 6.00 Build 0)  -->
<svg version="1.1" id="Layer_1" xmlns="http://www.w3.org/2000/svg" xmlns:xlink="http://www.w3.org/1999/xlink" x="0px" y="0px"
	 viewBox="0 0 100 150" style="enable-background:new 0 0 100 150;" xml:space="preserve">
<path d="M22.6,149.9c-0.3-2.5,0.6-4.4,2.7-5.6c2.3-1.3,2.2-3.6,2.5-5.6c0.9-5.6,1.6-11.2,2.3-16.8c0.3-2,0.8-4-0.5-6
	c-2.1-3.1-0.1-6.2,0.2-9.3c0.7-5.7,1.8-11.3,2.7-17c0.1-0.4,0.2-1,0.1-1.1c-1.1-1-0.2-2.1-0.4-3.1c-0.7-4,1.5-7.4,1.8-11.2
	c0.2-2.7,0.2-5.7,1.3-8.1c1-2.2,1.2-4.5,1.8-6.7c0.4-1.2-0.1-2.5-0.1-4.3c-1,3.8-1.7,7.1-2.7,10.3c-1,3.3-2.3,6.5-3.4,9.8
	c-0.1,0.4-0.2,0.8-0.2,1.2c0,3.2,0,6.3,0,9.6C30,86,29.6,86,29,86.1c-0.7,4-1.3,8.1-2,12.1c-1.3,7.7-2.7,15.4-4,23.1
	c-0.2,1.3-0.3,1.3,1.5,2.9c-2.2,1-2.6,2-2.2,4.5c0.2,1.2,0.1,2.6-0.3,3.8c-1,3.1-2.1,6.1-3.6,9.1c0-1,0-1.9,0-2.9c0-2,0.1-4,0-6
	c-0.1-1.7,0.2-3.2,1.2-4.7c0.6-0.9,0.6-2.1,0.9-3.3c-0.7-0.3-1.2-0.5-1.7-0.8c3.4-3.7,2.6-8.5,3.5-12.9c1.5-7.4,2.5-15,3.7-22.5
	c0.2-1.2,0-2.6-0.3-3.8c-0.6-2.4-1-4.8,0-7.2c1-2.4,1.1-4.9,0.9-7.5c-0.4-4.7,0.6-9.4,1.5-14c0.3-1.4,0.2-2.4-1-3.4
	c-0.6-0.5-0.8-1.9-0.6-2.7c0.9-2.8,2-5.5,3-8.2c0.4-1.2,0.7-2.4,1-3.6c0.6-2.1,1.3-4,3.3-5.3c0.9-0.6,1.6-2,1.9-3.2
	c2-9.4,3.8-18.8,5.7-28.2c0.1-0.6,0.6-1.1,1-1.7c0.3,0.1,0.5,0.2,0.8,0.3C41.4,10.2,40,20.1,38.5,30c0.2,0.1,0.3,0.2,0.5,0.3
	c0.7-0.6,1.4-1.2,2.2-1.7c0.8-0.5,1.6-0.8,2.5-1.1c0.8-0.2,1.6-1.8,1.2-2.8c-2-5.3-1.7-10.8-0.4-16.1c0.3-1.2,2.2-2.1,3.5-2.8
	c0.7-0.4,1.8-0.1,2.7-0.2c0.5,0,0.9-0.2,1.4-0.3c0.1,0.4,0.1,0.7,0.2,1.2c0.5-0.3,0.9-0.5,1-0.6c0.6,0.6,1.1,1,1.4,1.5
	c0.3,0.5,0.7,1,0.8,1.6c0.2,1.1,0.1,2.3,0.4,3.3c1.5,4.4,0.4,8.6-0.7,12.9c-0.2,0.7,0.1,1.5,0.3,2.5c1-0.6,1.5-1,1.7-1.1
	c1.3,0.6,2.3,1.1,3.3,1.5c2.4,1.1,4.9,2,7.3,3.2c1,0.5,1.7,1.7,2.2,2.7c1.1,2.1,2.1,4.4,3.1,6.6c0.9,2,1.6,4.1,2.5,6.1
	c0.7,1.5,0.7,2.7-0.1,4.2c-1,2-1.1,4.2-1.1,6.5c0,4-0.9,8-1.4,12c-0.1,0.4-0.5,0.9-0.4,1.3c1.1,3-1,5.9-0.4,8.9
	c0.1,0.6-0.4,1.4-0.5,2.1c-0.2,0.8-0.5,1.7-0.3,2.5c0.3,1.1,0,1.7-1,1.9c-1.4,0.3-1.6,1.1-1.1,2.4c0.9,2.5,0.9,5.1,0.6,7.8
	c-0.3,3.1,0.3,6.3,0.7,9.4c0.1,0.5,0.9,0.8,1.5,1.3c2.3,4.7,2.2,9.9,2.4,15.2c0.1,2.6,1.1,5.1,1.6,7.6c0.3,1.5,0.6,3.1,0.9,4.6
	c0.3,1.6,0.6,3.2,0.9,4.8c0.1,0.3,0.3,0.7,0.3,1c-0.6,2.8,1,4.5,2.8,6c0.7,0.5,1.2,1.1,0.7,2.1c-0.6,1.2-1.4,0.9-2.3,0.8
	c-3.1-0.4-6.2-0.9-8.9-2.5c-0.5-0.3-1.1-1-1.1-1.6c-0.2-1.6-0.1-3.2-0.4-4.7c-0.1-0.9-0.6-1.8-0.9-2.7c-0.2-0.7-0.4-1.4-0.2-2
	c0.4-1.3,0.3-2.5-0.3-3.8c-2.4-5.3-4.1-10.8-5-16.5c-0.1-0.7-0.1-1.4-0.1-2c0-1.2,0-2.4-1.5-2.8c-0.3-0.1-0.6-0.5-0.7-0.9
	c-1-5.7-3.4-10.8-6.3-15.7c-0.5-0.9-0.8-2-1.3-3c-1.7,0.1-3.1,0.5-3.8,2.2c-1.5,3.4-3.1,6.7-4.6,10c-0.3,0.6-0.2,1.3-0.3,2
	c-0.1,0.6,0,1.3-0.3,1.8c-2,3.5-1.9,7.2-1.4,11c0.1,1.2-0.5,2.4-0.7,3.6c-0.7,4.1-1.4,8.2-2.2,12.3c-0.3,1.4-1,2.7-1.7,3.9
	c-0.9,1.6-0.8,3.1-0.5,4.8c0.5,3,0.4,3-2.3,4.4C30.7,149.3,26,150.4,22.6,149.9z M64.7,50.5c-2.5,4.7-1.1,9.4-1.9,13.8
	c0,0.1,0.1,0.2,0.1,0.3c1,1.8,2.1,3.6,3.1,5.4c0.2,0,0.4,0,0.5-0.1c0.2-1.2,0.7-2.5,0.7-3.7c-0.3-3.6,0.1-7.3-1.4-10.8
	c-0.2-0.4,0-0.9-0.1-1.3C65.5,53,65.1,51.9,64.7,50.5z"/>
</svg>
