<?xml version="1.0" encoding="utf-8"?>
<!-- Generator: Adobe Illustrator 23.1.1, SVG Export Plug-In . SVG Version: 6.00 Build 0)  -->
<svg version="1.1" id="Layer_1" xmlns="http://www.w3.org/2000/svg" xmlns:xlink="http://www.w3.org/1999/xlink" x="0px" y="0px"
	 viewBox="0 0 100 150" style="enable-background:new 0 0 100 150;" xml:space="preserve">
<path d="M87.6,103.3c-3.1,1.9-3.1,2-1.3,5c1.3,2.2,1,3.1-1.5,3.4c-1.9,0.3-3.9-0.1-5.9-0.2c-0.3,0-0.9-0.3-1-0.2
	c-1.6,1.9-4.3,3.7-4.5,5.7c-0.4,4.4,0.1,9,0.9,13.4c0.8,4.4,2.8,8.3,8.1,9.1c1.2,0.2,2.2,1.1,3.3,1.7c-0.1,0.4-0.2,0.7-0.3,1.1
	c-1.4,0.1-2.9,0.3-4.3,0.3c-3.2,0-6.4-0.2-9.5-0.2c-1.9,0-2.6-0.8-2.6-2.7c0.3-6.4-2-12.3-4.4-18c-0.9-2.1-2.1-4.1-3.4-5.9
	c-0.6-0.8-2-1.4-3.1-1.6c-1.5-0.3-3.2,0-4.8-0.1c-1.9-0.1-3.8-0.4-3.5,3c-0.3-0.1-0.5-0.3-0.8-0.4c-0.7-1.3-1.5-2.6-2-4
	c-0.9-2.5-2.3-4.2-4.7-5.4c-1.1-0.6-1.8-2-2.7-3.1c-0.1,0.4-0.8,1.4-0.5,2c1.7,3.7-0.5,6.8-1,10.2c-1.2,7.8-2.5,15.5-3.5,23.3
	c-0.2,1.9-0.6,2.9-2.7,3c-1.6,0.1-3.1,0.8-4.6,0.9c-0.8,0.1-1.6-0.5-2.3-0.8c0.3-0.8,0.3-2.1,0.9-2.5c4.6-3.3,4.6-8,4.2-12.9
	c0-0.3-0.1-0.5-0.1-0.8c0.1-6.4,0.2-12.8,0.4-19.2c0.1-4.6,0.5-9.2,0.6-13.8c0-0.9-0.5-1.9-1-2.6c-2.2-3-2.8-6.2-2-9.8
	c0.5-2.5,1.2-5.1,1-7.6c-0.2-2.8-1.2-5.6-1.9-8.6c-1.3,2.1-1.9,4-1,6.3c0.9,2.5-0.8,5.1-2.6,5.4c-7,14.9-13.6,29.5-22.5,42.9
	c-0.3-0.1-0.5-0.3-0.8-0.4c0.9-1.9,1.7-3.8,2.6-5.6C8.3,101.7,14,89.8,19.5,77.9c0.6-1.4,0.4-3.1,0.5-4.7c1-7.4,2.1-14.7,3.2-22.5
	c0.7,0.8,1,1.2,1.4,1.6c1.1-1.9,2.4-3.7,3.3-5.6c0.6-1.3,0.5-2.9,0.8-4.3c0.5-2.6,1.4-5.1,1.6-7.7c0.4-5.1,3.3-7.8,7.7-9.6
	c0.6-0.2,1.1-0.4,1.7-0.7c0.1,0,0.1-0.1-0.1,0.2c0.2-2.1,0.4-3.9,0.5-5.6c0-0.4,0.3-1,0.1-1.3c-1.4-2.6,0.5-4.7,1.2-6.9
	c0.7-2.5,2.9-3.9,5.6-4.2c2.6-0.3,4.5,0.8,5.8,2.9c1.1,1.8,1.8,3.7,2.9,6c-0.1,0,0.5,0,1.7,0.1c-3.9,2.4-1.4,4.4-0.7,6.9
	c0.9,3.3,4,2.9,5.7,4.5c-0.2,4,1.8,7.3,3.7,10.7c1.9,3.3,3.4,6.9,5.2,10.4c0.7-0.3,1.3-0.5,2-0.8c0.4,1.1,0.9,2.2,1.2,3.3
	c1.1,5.4,3.1,10.2,6.2,14.8c1.2,1.8,2.2,4.2,1,6.9c-0.4,0.9,1.6,3.4,3.1,4.3c4.8,2.7,4.3,4.8,10,4.6c3.8-0.1,4.3-0.6,8-0.9
	c0,0-1.5,0.7-1.9,0.9c-3.9,2.4-2,5.8-3,10c-0.9,4.2-2.4,5.9-3.8,8.7c-0.8,1.6-3,3.2-4.3,4.5C88.5,104.4,88.8,104.3,87.6,103.3z"/>
</svg>
