<?xml version="1.0" encoding="utf-8"?>
<!-- Generator: Adobe Illustrator 23.1.1, SVG Export Plug-In . SVG Version: 6.00 Build 0)  -->
<svg version="1.1" id="Layer_1" xmlns="http://www.w3.org/2000/svg" xmlns:xlink="http://www.w3.org/1999/xlink" x="0px" y="0px"
	 viewBox="0 0 100 150" style="enable-background:new 0 0 100 150;" xml:space="preserve">
<path d="M61.6,34.1c0.3,0.4,0.5,0.7,0.8,1c0.6,0.6,1.3,1.1,1.9,1.7c2.6,2.3,3.4,5.3,3.2,8.6c-0.1,0.9-0.3,1.7-0.6,2.6
	c0-0.8-0.1-1.6-0.1-2.4c-0.6,0.8-1.3,1.5-2.2,1.8c-0.1,0-0.3,0.3-0.3,0.4c0.1,1.1,0.2,2.2,0.3,3.2c0,0.1,0.1,0.2,0.2,0.3
	c0.7,0.4,1,1.1,0.8,2c-0.3,1.3,0.5,2.5,1.9,2.6c0.6,0,1.3-0.1,1.9-0.2c0.9-0.2,1.8-0.7,2.8-0.5c0.1,0,0.3-0.2,0.4-0.3
	c0.5-0.9,0.9-1.7,1.3-2.6c0.1-0.2,0-0.4-0.1-0.6c-0.4-0.7-0.1-1.2,0.7-1.3c0.1,0,0.3-0.1,0.4-0.2c0.7-0.5,1.4-1,2.2-1.4
	c0.1,1,0.6,1.9,0.1,2.8c-0.1,0.1,0.1,0.4,0.1,0.6c0.2,0.7-0.1,1.1-0.8,1.2c-0.1,0-0.3,0.1-0.4,0.3c-0.4,0.7-0.7,1.5-1.1,2.2
	c-0.4,0.6-0.2,1.2-0.2,1.8c0,0.2,0.2,0.3,0.3,0.5c0.5,0.6,0.5,1.1,0,1.6c0.3,0.5,0.4,1-0.3,1.4c-0.1,0-0.1,0.2-0.1,0.4
	c-0.1,0.2-0.1,0.4-0.2,0.5c-0.8,0.2-1.2,1.4-2.3,1c0.4,0.6,0.7,1.1,1,1.6c0.4,0.8,0.5,1.6,0.2,2.5c0,0.2,0,0.4,0.1,0.5
	c0.4,0.5,0.8,0.9,1.3,1.3c0.1,0.1,0.3,0.1,0.4,0c0.4-0.3,0.8-0.6,1.2-0.9c0.4,0.7,0.4,0.8-0.4,1.2c-0.5,0.2-0.6,0.5-0.2,0.9
	c0.2,0.3,0.4,0.7,0.6,1.1c0,0.1-0.1,0.1-0.1,0.2c-0.5-0.2-1-0.3-1.7-0.5c-0.2,0.6-0.3,1.3-0.5,2c-0.5-0.7-0.3-1.5-0.1-2.3
	c-0.5-0.3-0.9-0.7-1.4-1c-0.5,1.6-0.1,3,0.2,4.5c0.7,4.1,0.8,8.3,0.6,12.5c0,0.9-0.2,1.8-0.3,2.7c0,0.4-0.2,0.8-0.4,1.2
	c-0.1-0.6-0.1-1.2-0.2-1.9c0,0-0.1,0-0.1,0c0,1.1-0.1,2.2-0.2,3.3c-0.2,2-0.6,4-1.3,5.9c-0.2,0.5-0.2,1.1-0.2,1.6c0,0.8,0,1.5,0,2.3
	c0,0.6-0.1,1.2,0.1,1.7c0.2,0.7,0.1,1.3-0.1,1.9c-0.1,0.4-0.1,0.9-0.1,1.3c0,0.2,0,0.4,0,0.6c-0.1,0.5-0.2,1,0.2,1.5
	c0,0.1,0,0.2,0.1,0.2c0.1,2.3,0.2,4.7,0.3,7c0,0.4,0.1,0.7,0.4,0.9c0.2,0.2,0.4,0.6,0.4,0.9c-0.1,0.8-0.3,1.5-0.5,2.3
	c-0.3,1.6-0.7,3.2-0.7,4.9c0.1,2.2-0.1,4.3,0.1,6.5c0.1,1.8,0.2,3.6,0.9,5.3c0.3,0.7,0.5,1.4,0.7,2c0.2,0.5,0.4,0.9,0.9,1.2
	c0.3,0.1,0.4,0.5,0.5,0.9c0.4,1.7,1.6,2.7,3.3,3.1c1.9,0.5,2.7,2.3,2.1,4.1c-0.1,0.3-0.1,0.6-0.1,0.9c0,0.5-0.2,0.8-0.8,0.9
	c-1.8,0.2-3.5,0.5-5.3,0.2c-1.9-0.4-3.3-1.4-4-3.3c-0.3-1-0.8-1.9-1.2-2.9c-0.1,0-0.1,0-0.2,0c0,0.4-0.1,0.8-0.1,1.1
	c0,1,0.1,2,0.1,3c0,0.4-0.2,0.5-0.5,0.7c-0.8,0.4-1.5,0.4-2.3,0c-0.1-0.1-0.3-0.2-0.3-0.4c-0.3-2.6-0.5-5.1-0.8-7.7
	c0-0.5-0.1-1-0.1-1.5c0.3,0.1,0.5,0.2,0.8,0.3c0-0.3,0-0.6-0.1-0.8c-0.1-1-0.1-2.1,0.8-2.8c0.1,0,0.1-0.1,0.1-0.2
	c-0.1-1,0.3-2.1-0.3-3.1c0-0.1-0.1-0.2-0.1-0.2c0.4-0.8-0.1-1.5-0.2-2.2c-0.1-0.7-0.1-1.4-0.2-2c-0.4-2.1-0.7-4.2-1.1-6.4
	c-0.2-0.8-0.6-1.6-0.7-2.5c-0.1-0.9-0.4-1.9,0.2-2.8c0.1-0.1,0-0.4,0-0.6c0-1.3-0.1-2.7-0.1-4c0-0.3,0.1-0.5,0.1-0.8
	c0-0.3,0.1-0.7,0-1c-0.2-0.5-0.2-0.9-0.2-1.5c0.1-0.8-0.1-1.7-0.1-2.6c0-0.3,0-0.6,0-0.9c0-0.1,0-0.3,0-0.4c-0.8-1.6-1-3.2-0.7-5
	c0.1-0.6,0-1.2-0.1-1.8c-0.2-1.7-0.5-3.4-0.8-5.1c-3.3,7.9-6.6,15.9-11.5,23.1c-0.1,0-0.2-0.1-0.3-0.1c0.1-0.6,0.1-1.2,0.2-1.7
	c1-3.7,2-7.3,3.2-11c1.3-3.9,2.8-7.7,4.2-11.5c0.9-2.5,1.9-4.9,2.8-7.3c0.1-0.2,0.1-0.4,0.1-0.6c0-1.1-0.1-2.3-0.2-3.4
	c-0.1-1.2,0-0.9-1.1-1c-0.4,1-0.8,2-1.2,3c-1,2.5-2.1,5-3.1,7.5c-1.1,2.8-2.3,5.6-3.4,8.4c-0.3,0.7-0.8,1.3-1.1,2
	c-0.6,1.2-1.1,2.4-1.6,3.6c-0.5,1.5-0.9,3-1.5,4.4c-0.4,0.9-1,1.7-1.4,2.5c0,0.1-0.1,0.2-0.1,0.3c-0.2,0.6-0.4,1.2-0.6,1.8
	c-0.3,1.2-0.6,2.4-0.9,3.6c-0.2,0.7-0.3,1.3-0.4,2c-0.1,0.5,0,0.9,0,1.4c0.1,0.9-0.3,1.7-0.5,2.6c0,0.1-0.2,0.2-0.2,0.4
	c-0.6,1.6-1.2,3.2-1.8,4.7c-0.5,1.2-1,2.4-1.1,3.8c0,0.4-0.4,0.7-0.5,1.1c-0.2,0.6-0.3,1.1-0.6,1.7c-0.4,0.9,0.3,1.9-0.4,2.7
	c-0.1,0.2-0.1,0.5-0.1,0.8c0.1,1.3-0.1,2.5-0.3,3.7c-0.2,1.9-0.2,3.8-0.3,5.7c0,0.3,0,0.9-0.1,1c-0.5,0.2-1.1,0.3-1.6,0.4
	c-0.2,0-0.5-0.1-0.7-0.2c-0.1,0-0.1,0-0.1,0.1c-0.8,1.5-2.1,2.2-3.7,2.1c-1.5,0-2.9-0.1-4.4-0.2c-1.1-0.1-1.2-0.3-1.3-1.4
	c0-0.2-0.1-0.4-0.1-0.6c-0.7-1.9,0.1-3.5,2-4.2c0.3-0.1,0.6-0.2,0.8-0.3c0.3-0.3,0.6-0.7,0.7-1.1c0.1-0.5,0.2-1,0.6-1.4
	c0.4-0.6,0.7-1.2,1-1.9c0.2-0.5,0.4-1,0.7-1.6c0.2-0.4,0.3-0.8,0.3-1.3c-0.1-0.7,0.2-1.3,0.7-1.8c0.4-0.5,0.6-1,0.4-1.6
	c-0.1-0.5-0.1-1.3,0.2-1.7c0.5-0.9,0.8-1.8,1-2.7c0.4-2,0.6-4,0.6-6c0-1,0-2,0.1-3c0-0.4,0.4-0.7,0.6-1.1c0.1-0.2,0.2-0.4,0.3-0.6
	c0.6-2.3,1.1-4.5,1.7-6.8c0.1-0.6,0.5-1.1,0.7-1.6c0.1-0.4,0.2-0.9,0.2-1.3c0-0.6,0.1-1.1,0.6-1.6c0.2-0.1,0.2-0.5,0.2-0.7
	c-0.2-0.7-0.1-1.4,0.2-2.1c1-1.7,1.1-3.6,1.2-5.6c0.1-2.6,0.5-5.1,0.6-7.7c0.1-2.4,0.6-4.7,1.3-6.9c0.6-1.8,1.3-3.6,1.9-5.4
	c0.1-0.3,0.2-0.6,0.2-0.8c-0.2-1.4-0.4-2.7-0.7-4c0-0.1-0.1-0.2-0.2-0.2c0,0.3,0.1,0.5,0.1,0.8c0,0.3,0.1,0.6,0.1,0.8
	c-0.1,0.3-0.2,0.5-0.4,0.8c-0.2-0.2-0.4-0.5-0.5-0.7c-0.2-0.6-0.4-1.3-0.6-1.9c-0.2-0.6-0.4-1.2-0.6-1.8c-0.2-0.5-0.4-1-0.6-1.5
	c-0.4-0.9-0.9-1.8-1.3-2.7c-0.1-0.2-0.2-0.4-0.4-0.5c-0.9-0.6-1.5-1.5-2.6-1.9c-0.1,0-0.2-0.3-0.3-0.4c-0.1-0.1-0.2-0.3-0.3-0.4
	c-0.7-0.5-1.4-0.9-2.1-1.3c-0.1,0-0.2-0.1-0.2-0.1c-0.3-0.7-1-1-1.5-1.2c-0.7-0.3-0.9-0.9-1.4-1.3c0,0-0.1-0.1-0.2,0
	c0.3,0.5,0.5,1,0.8,1.4c-0.5,0.2-0.9,0.4-1.3,0.5c-0.6-1-1.3-1.9-1.9-3c-0.5-0.8-0.8-1.6-1.2-2.4c-0.1-0.2,0.1-0.5,0.2-0.7
	c-0.4-0.5-0.8-1-1.2-1.6c-0.2-0.2-0.4-0.5-0.6-0.7c-0.8-0.7-1.1-1.2-0.6-2.1c0.8-1.4,1.6-2.7,2.5-4c0.5-0.8,1.1-1.5,1.7-2.2
	c0.3-0.4,0.3-0.7,0-1c-0.3-0.3-0.3-0.6,0-0.9c1-1.2,1.9-2.4,3-3.6c1.1-1.1,1.8-2.4,2.4-3.9c0.3-0.6,0.5-1.2,0.8-1.8
	c-2.5-3.4-4-7.1-5-11.1c-0.3-1-0.3-2-0.5-3c-0.1-0.5-0.4-1-0.2-1.5c0-0.1-0.1-0.2-0.2-0.3c-0.1-0.1-0.2-0.2-0.2-0.3
	c0.1-0.6-0.2-1.1-0.3-1.7c-0.1-0.2-0.2-0.4-0.3-0.6c-0.1-0.3-0.2-0.6-0.3-0.9c-0.1-0.3,0-0.6-0.1-0.9c-1-2.4-2.6-4.4-4.6-6
	c-0.4-0.3-0.9-0.6-1.5-0.8c-1.8-0.7-2.6-3.1-1.4-4.7c1-1.3,2.5-1.7,4.1-1.5c1.4,0.2,2.4,1,2.9,2.3c0.4,0.9,0.4,1.8-0.5,2.5
	C31.6,12.5,35.8,20,40,27.7c0.2-0.7,0.3-1.3,0.5-1.8c0-0.1-0.1-0.3-0.2-0.4c-0.1-0.3-0.1-0.7-0.2-1c-1.7-3.7-3.3-7.4-5-11.1
	c-0.1-0.3-0.4-0.6-0.7-0.9c-1.3-1-2-2.5-2.7-4c-0.3-0.8-0.7-1.6-1.1-2.6c0.7,0.5,1.2,0.9,1.9,1.4c-0.4-1-0.8-1.9-1.3-3.1
	c0.7,0.5,1.2,0.9,1.8,1.3c0.2-0.3,0.2-0.3-0.9-2.7c0.5,0.3,1,0.6,1.5,0.9c0.1,0,0.1-0.1,0.2-0.1c-0.1-0.3-0.2-0.5-0.4-0.9
	c0.4,0.2,0.7,0.4,1,0.6c0.1-0.5,0.2-0.9,0.3-1.6C35,2.5,35.4,3.3,35.8,4c-0.2-0.9-0.3-1.7,0.2-2.6c0.3,1,0.7,1.8,1.7,2.2
	c0.1-0.3,0.2-0.6,0.3-1c0.5,1,1,1.9,1.4,2.9c-0.2-1.2-0.8-2.3-0.2-3.6c0.9,1.9,2,3.7,2.2,5.8c0,0.1,0.1,0.3,0,0.4
	c-0.2,1.2,0.3,2.1,0.8,3.1c0.4,0.9,0.8,1.8,1.3,2.7c1.2-1.1,2.4-2.2,3.6-3.3c0,0,0-0.1-0.1-0.1c-0.8,0.5-1.5,1-2.3,1.5c0,0,0,0,0,0
	c0.4-0.4,0.9-0.9,1.3-1.3c2-1.8,4.2-3.3,6.7-4.1c1.7-0.5,3.4-0.5,5.2,0.1c0.7,0.3,1.4,0.3,2.1,0.5c1.2,0.3,2.2,1,2.8,2
	c-0.5-0.3-0.9-0.6-1.2-0.8c0,0-0.1,0.1-0.1,0.1c0.3,0.2,0.6,0.4,0.9,0.7c0.5,0.4,1.2,0.8,1.5,1.4c0.3,0.6,0.7,1,1,1.6
	c0,0-0.1,0.1-0.1,0.1c-0.2-0.2-0.5-0.5-0.7-0.7c-0.2-0.3-0.4-0.5-0.7-0.8c-0.1,0.1-0.1,0.2-0.1,0.2c2.1,2.5,2.9,5.4,2.9,8.6
	c0,1.9-0.3,3.8-0.5,5.7c0,0.5-0.1,1-0.2,1.4c0-0.7,0-1.5,0-2.2c0,0-0.1,0-0.1,0c-0.1,0.6-0.2,1.1-0.4,1.7c0,0-0.1,0-0.1,0
	c0.1-0.7,0.2-1.4,0.2-2.1c-0.4,0.7-0.6,2-0.4,3.4c0.1,1.2,0.4,2.3,0.5,3.5c-0.4-1.3-0.8-2.6-1.2-3.9c-0.2,1-0.1,3.8,0.6,5.5
	c-0.2-0.3-0.3-0.5-0.5-0.8c0,0-0.1,0-0.1,0c0.2,0.5,0.4,1.1,0.6,1.6c-0.8-1-1-2.3-1.3-3.6c0,0.6,0.1,1.2,0.1,1.8c0,0,0,0-0.1,0
	c-0.1-0.5-0.2-1-0.3-1.6c-0.1,1.5,0.5,2.8,0.2,4.1c-0.3-1.6-0.5-3.2-0.8-4.8c-0.7,1.5-0.5,3-0.3,4.5c-0.1-0.5-0.3-1-0.4-1.5
	c0,0-0.1,0-0.1,0C61.5,32.9,61.6,33.5,61.6,34.1c-0.1-0.3-0.2-0.6-0.3-0.9c-0.1-0.9-0.2-1.8-0.3-2.6c0,0-0.1,0-0.1,0
	c-0.1,0.4-0.1,0.7-0.2,1.1c0,0-0.1,0-0.1,0c0-0.4,0-0.8-0.1-1.3c-0.5,1.5-0.1,3.4,0.9,3.9C61.6,34.3,61.6,34.2,61.6,34.1z
	 M37.1,54.1c-0.1,0.2-0.2,0.5-0.3,0.6c-0.5,0.5-0.4,1,0,1.5c0,0.1,0.1,0.1,0.1,0.2c1,2.1,2.3,4,3.9,5.6c0.8,0.9,1.9,1.3,3.1,1.3
	c0.8,0,1.4,0.3,2,0.9c0.2,0.3,0.5,0.5,0.8,0.9c0.2-1,0.3-1.9,0.5-2.8c0.1-0.6,0.2-1.1,0.8-1c0.2-0.5,0.3-1,0.4-1.4
	c0-0.1,0.1-0.2,0.1-0.3c0.1-1.4-0.2-2.8-1-4c-0.5-0.8-1.2-1.5-1.3-2.3c-0.2-1.2-1.3-1.4-1.8-2.3c-1-0.2-1.3-1-1.6-1.8
	c-0.3-0.7-0.5-1.3-0.9-2.1c-0.7,1.5-0.9,3-0.8,4.5c0.1,1.5,0.5,2.9,1.3,4.2c-1.5-1.3-2.4-2.9-2.5-4.8c-0.1-1.5,0-3-0.1-4.5
	c0-0.8-0.1-1.5-0.2-2.3c-0.1,0-0.1,0-0.2,0c-0.2,0.3-0.4,0.6-0.7,0.8c-0.6,0.5-1.2,1-1.7,1.6c-0.7,0.7-1.3,1.5-2.3,2.1
	c-1,0.6-1.8,1.7-2.6,2.6c-0.1,0.1,0,0.3-0.1,0.6c0.3-0.3,0.5-0.5,0.7-0.6C34.2,52.2,35.6,53.1,37.1,54.1z M31.5,14.2
	c0.3,0.7,0.5,1.4,0.7,2c0,0.1-0.1,0.3-0.1,0.4c0,0.2-0.1,0.4,0,0.5c0.5,0.6,0.3,1.3,0.5,1.9c0.1,0.4,0,0.8,0.1,1.2
	c0.7,2.4,2,4.5,3.4,6.5c0.8,1,1.7,1.9,2.6,2.9c0.3,0.3,1.1,0.2,1.1-0.2c0.1-0.5,0.3-1.1,0-1.6c-1.9-3.3-3.7-6.6-5.5-9.9
	c-0.8-1.4-1.6-2.9-2.4-4.3C31.6,13.9,31.5,14.1,31.5,14.2z M36.1,9.5c-0.1,0-0.1,0-0.2,0.1c0.1,0.5,0,1.1,0.2,1.6
	c1.5,3.5,3.1,6.9,4.7,10.3c0.1,0.1,0.1,0.2,0.2,0.3c0.3-0.6,0.2-1.2-0.1-1.7c-0.2-0.4-0.4-0.9-0.6-1.4c-1.3-2.9-2.6-5.8-3.9-8.7
	C36.3,9.8,36.2,9.7,36.1,9.5z M40.5,23.8c0.1,0,0.2-0.1,0.3-0.1c-0.1-0.5-0.2-1-0.4-1.4c-1.3-2.9-2.7-5.8-4-8.7
	c-0.3-0.6-0.6-1.3-0.9-1.9c-0.1,0-0.1,0-0.2,0.1c0.1,0.5,0.2,1.1,0.4,1.6c1.2,2.7,2.4,5.3,3.6,8C39.7,22.1,40.1,22.9,40.5,23.8z
	 M30.8,12.1c0.1,0,0.1,0,0.2-0.1c-0.4-0.8-0.8-1.5-1.3-2.3c-1.2-2.1-2.4-4.2-3.5-6.3c-0.3-0.5-0.6-0.3-1-0.2
	c-0.4,0.2-0.6,0.4-0.4,0.8c0.3,0.5,0.5,1,0.9,1.3c1.8,1.4,3,3.2,4.1,5.1C30.2,11.1,30.5,11.6,30.8,12.1z M41,18.4c0.1,0,0.2,0,0.3,0
	c0-0.3,0.1-0.6,0-0.9c-1.1-2.6-2.3-5.1-3.5-7.6C37.6,9.5,37.2,9.3,37,9c-0.1,0.1-0.2,0.1-0.2,0.2C38.2,12.2,39.6,15.3,41,18.4z
	 M41.8,17.1c0.4-0.3,0.5-0.6,0.2-1.1c-0.6-1.3-1.2-2.6-1.8-4c-0.7-1.5-0.7-1.5-1.8-2.2C39.6,12.2,40.7,14.6,41.8,17.1z M42.5,15.3
	c0.5-0.3,0.5-0.7,0.3-1.1c-0.6-1.3-1.2-2.7-1.8-4c-0.1-0.3-0.4-0.4-0.6-0.7c-0.1,0-0.1,0.1-0.2,0.1c0,0.3,0,0.6,0.1,0.9
	C41,12.1,41.7,13.7,42.5,15.3z M41,28.8c-0.1-0.8-0.1-1.6-0.2-2.4c-0.1,0-0.1,0-0.2,0C40.5,27.2,39.9,28.1,41,28.8z M71.8,64
	c0.4,1,0.7,1.8,1,2.7c0.1,0,0.1,0,0.2-0.1C72.8,65.7,72.6,64.8,71.8,64z M41.6,18.1c-0.6,0.6-0.5,1,0.2,1.5
	C41.8,19.2,41.7,18.7,41.6,18.1z M46.2,67.6c-0.1,0-0.1,0-0.2,0.1c0.1,0.4,0.2,0.8,0.3,1.2c0.1,0,0.1,0,0.2,0
	c0.1-0.3,0.2-0.6,0.3-0.9C46.5,67.8,46.3,67.7,46.2,67.6z M42.4,16.9c-0.5,0.4-0.4,0.8-0.1,1.2C42.8,17.5,42.8,17.5,42.4,16.9z
	 M27.2,4.6c0.1-0.8-0.1-1.1-0.8-1.4C26.7,3.7,26.9,4.2,27.2,4.6z M43.2,15.5c-0.1,0.4-0.2,0.7-0.3,1.1c0.1,0,0.1,0,0.2,0.1
	C43.4,16.3,43.8,16.1,43.2,15.5z"/>
</svg>
