<?xml version="1.0" encoding="utf-8"?>
<!-- Generator: Adobe Illustrator 23.1.1, SVG Export Plug-In . SVG Version: 6.00 Build 0)  -->
<svg version="1.1" id="Layer_1" xmlns="http://www.w3.org/2000/svg" xmlns:xlink="http://www.w3.org/1999/xlink" x="0px" y="0px"
	 viewBox="0 0 100 150" style="enable-background:new 0 0 100 150;" xml:space="preserve">
<g>
	<path d="M40.3,13.4v0.1c-0.5-0.1-1-0.2-1.4-0.2c-0.7,0-0.9,0.2-0.8,0.9c0,0.7-0.4,1.2-1,1.3c-0.2,0-0.5,0-0.7,0.1
		c-0.4,0.1-0.8,0.2-1.1,0.5c-0.1,0.1,0.2,0.7,0.4,1c0.6,0.8,0.6,1.3-0.1,2c-1,1-2.2,1.5-3.4,1.9c-3.8,1-7,3.1-10,5.5
		c-1,0.8-1,1-0.5,2.2c0.5,1.4,1,2.8-0.1,4.3c-0.6,0.9-0.8,1.9,0.1,2.8c0.4,0.4,0.5,0.8,0.1,1.4c-0.5,0.9-0.7,1.9-1,2.8
		c-0.2,0.5-0.3,1.1-0.4,1.6c-0.1,1.3-0.1,2.6-0.2,3.8c-0.1,1.4-0.2,2.9-0.5,4.3c-0.3,1.3-0.9,2.6-1.5,3.9c-0.3,0.8-0.4,1.5,0,2.3
		c0.2,0.3,0.4,0.6,0.5,0.9c0.4,0.9,1,1.9,1.2,2.9c0.4,1.4,0.4,2.9,0.7,4.3c0.7,3.4,1.5,6.8,2.3,10.2c0.1,0.4,0.1,0.7,0.2,1.1
		c-0.7-0.2-1.1-1-1.9-0.8c-0.1-0.1-0.1-0.3-0.2-0.4c-1.2-0.8-2.4-1.5-3.7-2.3c-0.7-0.5-1.5-0.9-2.1-1.5c-0.9-0.7-1.6-1.6-2.5-2.4
		c-0.1-0.1-0.4-0.3-0.6-0.2c-0.9,0.1-1.8,0.3-2.6,0.5c-0.3,0.1-0.4,0.2-0.3,0.6c0.2,0.5,0.4,1.2,0.5,1.8c0.1,0.5,0.3,0.6,0.7,0.8
		c2.2,0.9,4.4,1.6,6.4,3.1c2.3,1.7,4.7,3.2,7,4.8c0.5,0.3,0.7,0.8,0.8,1.4c0,0.7,0.2,1.4,0.3,2.1c0.1,1,0.7,1.4,1.6,1.6
		c0.3,0.1,0.7,0.2,1,0.2c-0.1,0.2-0.1,0.4-0.2,0.5c-1.6,4.4-3.1,8.8-4.7,13.2c-0.5,1.2-0.1,2.2,0.6,3.1c0.2,0.3,0.5,0.5,0.7,0.7
		s0.3,0.5,0.3,0.7c0,0.5,0.4,1,0.2,1.5c0,0.1,0.1,0.3,0.2,0.5c0.1,0.1,0.2,0.3,0.2,0.4c-0.1,1-0.2,2-0.3,3c-0.1,0.7-0.3,1.3-0.2,2
		c0.1,0.9,0.3,1.8,0.5,2.6c0.1,0.4,0.1,0.9,0,1.4c-0.6,2.1-0.7,4.2-0.2,6.3c0.7,2.7,1.1,5.5,1,8.3c0,1,0,2.1-0.1,3.1s0.3,2-0.1,3
		c0,0.1,0,0.3,0.1,0.4c0.1,0.7-0.3,1.5,0.1,2.2c0,0,0,0.1-0.1,0.2c-0.1,0.5-0.3,1.1-0.4,1.6c-0.2,0.7-0.3,1.4-0.5,2.1
		c-0.1,0.4-0.2,1,0,1.3c0.3,0.6,0.2,1.1,0.2,1.6c0,0.8-0.1,1.6,0.1,2.4c0.4,1.9,2.2,3.3,4,3.3c0.9,0,1.8,0,2.6,0
		c0.9-0.1,1.8-0.4,2.5-1.1c0.8-0.9,0.9-2.2,0.3-3.5c-0.3-0.6-0.7-1.2-1-1.8c-0.2-0.4-0.2-0.8,0.2-1.1c0.4-0.3,0.4-0.8,0.4-1.3
		c-0.2-1.5-0.5-2.9-0.5-4.4c0-3.6,0.5-7.1,1.4-10.5c0.7-2.5,1.4-4.9,2-7.4c0.2-0.9,0.7-1.8,0.6-2.8c0-0.1,0.2-0.4,0.4-0.5
		c0.5-0.3,1.1-0.5,1.6-0.8c0.7-0.4,1.2-0.9,1-1.8c-0.1-0.3,0-0.6,0.1-0.9c0.6-1,1.1-1.9,1.8-2.9c0.1-0.1,0.4-0.2,0.6-0.1
		c0.8,0.3,1.5,0.6,2.3,0.9c0.4,0.2,0.7,0.1,1,0c0.7-0.4,1.5-0.6,2.3-0.9c0.4-0.2,0.6,0,0.7,0.3c0.6,0.9,0.7,1.9,0.6,3
		c-0.1,1.5-0.1,3-0.1,4.5c0,0.4,0.2,0.8,0.6,1c0.5,0.3,0.9,1.4,0.7,2c-0.2,0.5-0.4,1-0.6,1.5c-0.4,0.8-0.4,1.6,0.3,2.3
		c0.3,0.3,0.5,0.7,0.7,1.1c0.3,0.6,0.5,1.3,0.8,1.8c1,1.9,1.3,3.9,0.9,6c0,0.3,0,0.5,0,0.8c0,2.3,0,4.5,0.1,6.8
		c0,0.3,0.1,0.7,0.3,0.9s0.5,0.4,0.8,0.4c0.1,0,0.3-0.3,0.4-0.4c0.3-0.4,0.6-0.4,1,0c-0.1,0-0.2,0.1-0.2,0.1
		c-0.2,0.1-0.3,0.2-0.5,0.3c0.1,0.1,0.3,0.3,0.4,0.4c0.3,0.1,0.6,0.1,0.8,0.2c0.7,0.1,1.5,0,2,0.4c1.4,0.9,3,1.3,4.6,1.7
		c2.2,0.5,4.4,0.9,6.6,0.7s2.9-1.2,3.1-3.5c0.1-0.7-0.3-1.1-1-1.3c-1.5-0.4-3-0.8-4.5-1.3c-0.7-0.2-1.3-0.5-1.6-1.2
		c-0.4-0.7-0.8-1.3-1.2-2c-0.2-0.4-0.5-0.7-0.6-1.1c-0.8-1.7-1.2-3.4-1.3-5.2c-0.3-3.6-0.2-7.1,0.4-10.7c0-0.1,0.1-0.3,0.2-0.4
		c0.7-0.8,0.7-1.7,0.2-2.7c-0.1-0.2-0.2-0.5-0.1-0.7c0.8-2.5,1.4-5,1.8-7.6c0-0.2,0.1-0.4,0.2-0.7c1.2,0.7,2.3,1.4,3.4,2.1
		c2.3,1.4,4.5,2.8,6.8,4.3c2.2,1.5,4.6,2.7,6.7,4.3c0.8,0.5,1.6,1,2.4,1.5c2.4,1.5,4.7,3,7.1,4.5c1,0.6,2,1.3,3,1.7
		c1.5,0.5,3.2,0.8,4.8,1.3c0.2,0.1,0.4,0.1,0.8,0.1c-0.1-0.2-0.1-0.3-0.2-0.4c-0.9-1.2-1.9-2.4-2.8-3.6c-0.4-0.5-0.8-1-1.3-1.4
		c-2.3-1.5-4.6-3-7-4.5c-0.6-0.4-1.2-0.7-2-1.1c-0.2-0.4-1.5-1.3-2.2-1.3c-0.3-0.3-0.4-0.6-0.7-0.7c-1.5-1-3.1-2-4.6-3
		c-3.8-2.5-7.7-4.9-11.5-7.4c-0.1-0.1-0.3-0.3-0.3-0.4c0-0.9,0-1.9,0-2.8c-0.3-3.6-0.7-7.3-1.1-10.9c-0.3-2.9-0.7-5.7-1.1-8.5
		c-0.5-3.3-1-6.7-1.4-10c-0.2-1.4,0-2.8-0.6-4.2c-0.1-0.3,0.1-0.9,0.3-1.2c0.4-0.6,0.4-1.2,0.2-1.8c-0.4-1-0.7-2-0.9-3
		c-0.1-0.7-0.1-1.4-0.1-2.1c0.1,0,0.1,0,0.2,0c0.2,0.4,0.4,0.8,0.6,1.2c1.2,2.1,1.8,4.3,1.9,6.8c0.1,2,0.2,4,0.4,6
		c0.1,0.7,0.4,1.5,0.9,2c0.7,0.7,1.2,1.4,1.1,2.5s0,2.1,0,3.2c0,0.2,0.2,0.4,0.3,0.5c0.4,0.2,0.5,0.4,0.5,0.8c0,0.3,0.2,0.6,0.3,1
		c0.3-0.1,0.6-0.3,0.9-0.4c0,0,0.1,0,0.1-0.1c0,0.1,0,0.1,0.1,0.1c0.2,0.2,0.3,0.7,0.5,0.7s0.6-0.2,0.7-0.4c0.4-0.5,0.8-1,1.2-1.5
		c1.1-1.3,1.3-2.8,0.9-4.4c-0.2-0.8-0.4-1.7-0.6-2.5c-0.2-1-0.3-2-0.7-2.8c-1-2.6-1.4-5.3-2-7.9c-0.3-1.5-0.6-3-1-4.5
		c-0.1-0.6-0.5-1.1-0.6-1.7c-0.4-2.4-0.8-4.9-2.4-7c-0.5-0.7-0.6-1.5-0.2-2.4c0.1-0.4,0.3-0.8,0.3-1.2c0.1-2.4,0.1-4.7,0.1-7.1
		c0-0.6-0.1-1.3-0.1-1.9c-0.1-0.6-0.1-1.2-0.3-1.7c-0.2-0.7-0.1-1.3,0.5-1.8c1.2-1,1.3-1.9,0.5-3.2c-1.5-2.2-3.5-3.7-5.7-5.1
		c-0.8-0.5-1.6-1.1-2.4-1.7c-0.4-0.3-0.4-0.7,0.1-1c0.5-0.2,0.5-0.6,0.3-1c-0.3-0.6-0.3-1.2,0.2-1.7c0,0,0.1-0.1,0.1-0.2
		c0.4-0.7,0.4-0.9-0.2-1.4c-0.3-0.3-0.6-0.6-0.8-0.9c-0.6-1.1-1.6-1.8-2.8-2.1c-0.5-0.1-0.4-0.4-0.2-0.7c0.5-0.8,1-1.5,1.5-2.3
		c0.4,0.2,0.8,0.7,1.5,0.4c-0.3-0.5-0.6-0.9-0.8-1.3c-0.2-0.5-0.3-1,0.2-1.4C57.9,9.8,58,9.5,58,9.3c-0.6-1.7-1.2-3.3-1.8-4.9
		c-1.8-4.3-6.3-5.2-9.8-3.8c-2.9,1.2-4.4,3.7-5.3,6.6c-0.3,0.9-0.4,2-1.8,2c0,0.1,0,0.1,0,0.2c0.4,0.3,0.8,0.6,1.2,0.9
		c0,0.4,0,0.7,0.1,1.1c0.1,0.4,0.3,0.8,0.4,1.2c0,0.1-0.1,0.3-0.2,0.4C40.6,13.2,40.4,13.3,40.3,13.4z"/>
</g>
</svg>
