<?xml version="1.0" encoding="utf-8"?>
<!-- Generator: Adobe Illustrator 23.1.1, SVG Export Plug-In . SVG Version: 6.00 Build 0) -->
<svg version="1.1" id="Layer_1" xmlns="http://www.w3.org/2000/svg" xmlns:xlink="http://www.w3.org/1999/xlink" x="0px" y="0px" viewBox="0 0 100 100" style="enable-background:new 0 0 100 100;" xml:space="preserve">
	<path
		class="st0"
		d="M90.6,70.6L89.5,70l-0.3,0.2c0,0,0.9,1.1,1.7,1.8c0.8,0.7-0.1,0.8-0.1,0.8l-0.9-0.2l-1.8-0.9l-0.5-0.1l-0.4-0.1
	L69.1,62l0.3-0.8l0.4-0.7l0.4-0.6c0,0,0.1-0.5,0-0.9c-0.2-0.4-1.8-2.7-1.8-2.7l-0.2-0.4v-0.7l-0.5-0.6c0,0-0.2-0.8-0.3-1.4
	c0-1.6-2.4-9-2.4-9l0.1-0.4l0.4-0.6l0.1-0.6L65.1,42l-0.3-0.4c2.4-2.1-0.1-4.3-0.1-4.3L64.3,37l-0.1-0.9l-0.4-0.4l-0.3-0.3l-0.3-0.6
	l-0.5-0.7l-0.3-0.7l-0.7-0.9l-0.1-0.8l-0.8-0.8l-0.2-0.6l-0.5-1l-0.4-0.6L59.6,28l-0.3-0.5l-0.2-0.6L59,26.3c0,0-0.3-0.2-0.6-0.6
	c0-0.6-0.7-1.2-0.7-1.2s-0.3-0.3-0.4-0.3c0.9-1.7-2-1.7-2-1.7l-0.4,0.5l-0.6,0.1L54,22.5l-0.3-0.7l-0.5-0.2l-0.6-0.4l-0.3-0.7
	l-0.1-0.6l0.1-1l-0.2-1.3L51.9,17l0.2-0.5l0.5-0.7l0.4-0.5l1-0.1l-0.9-1.7L53,12.9l-0.1-0.6l-0.6-0.4l-0.1,0.4l-0.4-0.1
	c0,0,0.1-0.3-0.2-1.2c-0.3-1.2-2.5-4-2.5-4l-0.3-0.6l-0.4-0.8V4.7L49,4.3l1-0.4l0.6-0.4L51,2.7l0.1-1l-0.2-0.4l-1.4-0.1L49.1,1
	l-0.3-0.7L48.4,0c0,0-0.3,0-0.7,0.3c-0.5,0.3-1.2,2.3-1.2,2.3v1.7v1c0,0-0.4,0.7-1,1.3C44.6,7,43.2,8,43.2,8l-0.4,0.4L41,8.3
	l-0.5-0.2L40.1,8l-0.3,0.4l-0.1,0.4l0.1,0.7l0.3,0.7l0.5,0.7l0.3,0.4l-0.1,1.1l-0.2,0.4l-0.1,0.4l-0.2,1L40,14.5l-0.3,0.6
	c-1.3,3.3-1.9,4-1.9,4l-0.5,0.6l-0.4,0.1c0,0-0.3-0.5-0.8-0.7c-0.5,0.2-1,1.2-1,1.2l-0.5,0.1l-0.4-0.1l-0.5-0.1c0,0-0.3,0.1-0.8-0.2
	c-0.4-0.4-0.9,0-1.4-0.1c-0.5-0.4-1.3-0.2-1.8-0.3c-0.5-0.2-1.6-0.2-1.6-0.2l-0.3-0.1c0,0-0.6-0.4-0.7-0.5c-2,0-5.6-1-5.6-1H21
	l1.1,2l-0.4,0.1L21.3,20l-0.2,0.4l-0.2,0.4l-0.5,0.3l-0.1,0.5L20,22.1l-0.7,0.7L19,23.2l0.2,2.2c0,0,0.2-0.5,0.5-0.4
	c-0.5,0.4-1.2,3-1.2,3l-0.1,2l-0.3,0.4c0,0,0.2,0.4-0.1,0.5c-1,0.4-2.8,2.4-2.8,2.4l-9.9-5.1L5,27.5l-0.6-0.4l-0.5-0.3l-0.5,0.3
	L1.2,26l-0.5-0.4l-0.6-0.1L0,26l0.1,0.5l0.5,0.1l2,1.7l0.2,0.6l0.9,0.3l0.5-0.1l10.4,5.6l0.1,1.1l0.3,0.4l0.5,0.3l0.2,0.6l0.5,0.1
	l0.1,0.4l0.6,0.3l0.6,0.3l0.3,0.5h0.5l0.4,0.3l0.9-0.1l0.5-0.4l0.6-0.3l13.1,7.1l0.3,0.6l-0.7,0.2l-0.3,0.6l0.2,0.6
	c0,0,0.2,0.4-0.1,1c-0.7,0.5-1.9,2.4-1.9,2.4L30.8,52L30,52.8l-1.4,1.8l-1.2,1.6c0,0-0.2,0.3-0.7,1.5c-1.1,1.8-5.8,5.5-7.3,6.5
	c-1.7,0.8-0.3,3.1,0.2,3.3c-0.4,0.7,0.5,3.1,0.5,3.1l-0.4,0.1l-0.5,0.2L18.3,71l-0.1,0.5l3.3,2.5l0.2,0.5l0.1,0.9l0.2,0.9l0.2,1
	c0,0,0.1,0.2,0.5,0.6c-0.1,1,3.2,8.4,3.2,8.4l-0.3,0.2l-0.1,0.5l0.1,0.7L25.3,88l0.1,0.7l-0.1,0.6L25,89.8c0,0-0.2,0.8-0.8,1.3
	c-0.9,0-3.4,2-3.4,2s-0.6,0.5-1.4,0.9c-0.7,0.2-1,1.6-1,1.6s0.1,0.4-0.1,0.8c-0.3,0.2-0.2,0.4,0.7,1c0.9,0.6,5.8-0.6,5.8-0.6
	l1.1-0.4c0,0,1-0.6,2.4-1c1.2-0.5,4.7-0.6,5.4-0.6S33.9,94,34,94c0.2-0.9-1.3-3.6-1.3-3.6l-0.1-0.6l0.1-0.6l0.5-0.6v-0.8l-0.3-0.4
	l-0.1-0.8L32,86.3l-0.5-0.1c0,0,0-2.7,0.2-4.7c0.5-4.3-0.8-7.7-0.8-7.7l-0.3-0.8l-0.2-0.6l1.2-1.6l-0.3-0.7L31,69.6l0.6-0.7l0.7-0.5
	l4.8-2.3h0.6l0.1,2.5c0,0,0.6,0.5,2.1,0.9c1.5,0.5,7.8-0.6,7.8-0.6s0.4-0.4,0.8-0.1c2.2,3.3,5,3.2,5,3.2l0.7,0.5l0.4,0.9l0.5,1.1
	l0.5,0.4l0.7,0.4l0.6,1l1.2,0.2l0.2,0.7l0.9,1l0.9,0.2l0.7,0.8l0.4,0.5l0.7,0.5l0.6,0.4c0,0,1.2,1.9,2.9,3.5c1.8,0.7,6.7,6,6.7,6
	l0.1,0.6L72,91.3l0.4,1l1.2,1.1c0,0,1.2,0.6,1.7,1.5c0.4,0.9,0.9,1.9,0.9,1.9l0.5,2l0.8,1.2H79h1.5l1.6-0.9l0.7-0.6l-0.1-0.8
	l-0.5-0.9l-0.9-0.7l-1.5-2l-0.3-0.5L79,93.1v-0.4l-1.4-2.1l-0.3-0.5l0.1-0.7l0.1-0.6v-0.9H77l-0.5,0.3l-0.4,0.2c0,0-2.2-4.9-3.8-8.4
	c-1.3-3.5-4.2-5-4.2-5L68,74.7l-0.5-0.8l-0.3-0.6l-0.5-0.1l-0.5-0.4c0,0-0.7-0.4-1-1.1c0.7-1.3-1.3-1.4-1.6-1.4
	c0.2-1.1-0.6-1.2-0.6-1.2l-0.3-0.4l1-1.4l-0.3-0.4l-2.5-3.7c0.3-0.7,1.4-1,1.4-1l0.5,0.3l0.6,0.3l0.8,0.7l0.9,0.2h0.8l0.5,0.1
	l0.8,0.1l0.7-0.2l0.6-0.6L87,72.8c0,0,2.2,1.5,3.2,2c1,0.5-0.2,0.6-0.2,0.6l-1.8,0.4l-0.5,0.6c4.9,2.8,12.2,1.8,12.3,1.9
	C99.4,75.8,90.6,70.6,90.6,70.6z M34.7,43.4V44l-12.9-7.1V36v-0.8l0.1-0.7l0.1-2l0.3-0.4c0,0,2.3-1.9,2.9-2.9
	c0.1,0.1,1.2,1.4,2.4,0.5c0.4,0.3,0.7,0.5,0.7,0.5l0.4,0.1l0.3,0.2c0,0,0.6,0.7,1.4,0.4c0.5,0.8,1.5,2.5,2.5,2.2
	c0.3,0.7,0.4,1.1,0.4,1.1l0.4,0.4c0,0,0.2,1.9,0.7,3c0.2,1.3,0.1,1.7,0.1,1.7s-0.1,0.8,0,1.2c0.1,0.5-0.2,0.8,0.1,1.2
	c0.2,0.3,0.2,1.2,0.2,1.2L34.7,43.4z M63.5,57.1c0,0.5-0.1,0.8-0.1,0.8l-0.3,0.5l-0.2,0.4L57.3,56L57,55.1l0.2-0.4l0.4-0.4v-0.6
	c0,0-4.3-5-5.3-5.1c0-0.7,0.1-1.4,0.1-1.4l-0.2-0.8l-0.3-0.9l-0.3-0.6l-0.4-0.4l-0.4-0.4c0,0,0.2-1.5,0.5-2.1
	c0.4-0.6,0.5-1.3,0.5-1.3l0.3-0.8l0.2-0.8l0.3-0.6l0.3-0.4h0.5l0.6,0.4l0.3,0.7l0.1,0.7l0.4,0.4l0.5,0.1l0.4,0.4l0.1,0.6l-0.5,0.3
	l1,0.7l0.3,0.4l0.3,0.5l0.2,0.7l0.2,0.5l-0.1,1.1l0.2,0.8l0.5,0.3l0.5,0.4c0,0,1,3.2,2.2,4.9C61.6,53.3,63.8,56.5,63.5,57.1z"/>
</svg>