<?xml version="1.0" encoding="utf-8"?>
<!-- Generator: Adobe Illustrator 23.1.1, SVG Export Plug-In . SVG Version: 6.00 Build 0)  -->
<svg version="1.1" id="Layer_1" xmlns="http://www.w3.org/2000/svg" xmlns:xlink="http://www.w3.org/1999/xlink" x="0px" y="0px"
	 viewBox="0 0 100 150" style="enable-background:new 0 0 100 150;" xml:space="preserve">
<path d="M31.3,66.6c-1.4-0.7-2.9-1.6-4.4-2.2C26,64,25,64.1,24,63.9c-2.1-0.5-2.1-0.6-2.4-2.6c-0.9-6.4,0.1-12.6,1.9-18.7
	c0.4-1.4,0.3-2.9,0.5-4.4c0-0.1-0.1-0.4-0.2-0.4c-1.3-0.6-0.6-1.4-0.2-2.2c0.9-1.8,1.7-3.7,2.6-5.4c1.3-2.4,4.1-3.5,6.7-2.8
	c1.8,0.4,3.3,0,4.9-0.7c0.9-0.4,1.9-0.4,3.1-0.7c-1.2-1.1-2.2-2.1-1.5-3.8c-0.7,0-1.2,0-2.1,0c1-1.1,1.9-2,2.9-3.1
	c-0.9-0.1-1.6-0.2-2.7-0.4c1-0.7,1.7-1.2,2.5-1.7c2.5-1.4,4.4-3.2,6.1-5.6C49.8,6.1,55.8,6,61.1,9c1,0.5,1.8,1.4,2.6,2.1
	c0.1,0.1,0.2,0.3,0.3,0.3c1.7-0.3,1.9,1.2,2.5,2.1c0.5,0.6,1,1.4-0.1,2c-0.1,0-0.2,0.2-0.1,0.3c0.7,1.4-0.7,1.5-1.3,1.9
	c-1.9,1-2.7,2.6-1.8,4.7c0.3,0.8,0,1.3-0.7,1.4c-0.7,0.1-1.1,0.2-1.3,1c-0.1,0.2-0.7,0.3-1.1,0.5c0.6,0.9,0,1.2-0.5,1.4
	c-0.1,0.8-0.1,1.5-0.2,2.4c0.9,0.7,2.1,1.7,3.5,2.7c-0.9,0.1-1.6,0.2-2.5,0.3c0.2,0.2,0.3,0.4,0.4,0.5c2.6,1.7,3.6,4.6,5.1,7.1
	c0.6,1,1.1,2.1,1.8,3c0.2,0.4,0.7,0.5,1.3,0.9c0.4-2.3,0.8-4.2,0.1-6.4c-0.4-1-0.1-2.4,0.1-3.5c0.2-0.7,1-1.1,1.5-1.7
	c0.3-0.3,0.6-0.7,0.7-1.1c1.5-9,3-18.1,4.5-27.1c0.1-0.7,0.3-1.4,0.3-2.1c0.1-1,0.5-1.7,1.6-1.6c1.2,0.2,0.9,1.2,0.8,1.9
	c-0.7,4.5-1.4,9-2.1,13.5c-0.9,5.4-1.7,10.7-2.6,16.1c0,0.3,0.1,0.7,0.3,0.8c1.4,1.2,2.1,3.6,1.4,5.3c-0.1,0.4-0.2,0.8-0.4,1.1
	c-1.6,2-0.7,4.1-0.2,6.3c0.6,2.5,0.8,5.1,1.1,7.7c0.1,0.7-0.1,1.5-0.3,2.2c-0.7,2.8-1.7,3.5-4.5,2.8c-1-0.2-1.4-0.3-1.6,1
	c-1.3,8.2-2.6,16.3-4,24.4c-0.6,3.5-1.5,7-2.2,10.4c-0.3,1.6-0.3,3.1,0.3,4.7c0.8,2.1,1.1,4.3,0.8,6.6c-0.2,1.8,0.4,3.6,0.5,5.5
	c0.3,3.5,0.7,7,0.8,10.5c0,3.1-0.4,6.3-0.5,9.4c0,1.7,0.3,3.4,0.6,5.1c0.2,1.2,0.9,2.3,1.1,3.5c0.3,1.1,0.2,2.2-0.7,3.1
	c-0.8,0.7-0.5,2.4,0.5,2.9c0.5,0.3,1.1,0.5,1.6,0.7c1.2,0.4,1.6,1.4,0.8,2.3c-0.7,0.8-1.7,1.4-2.6,1.8c-2.4,0.8-4.7,0.8-6.9-0.6
	c-0.3-0.2-0.7-0.1-1.1-0.1c-0.2,0-0.4,0.3-0.5,0.2c-2.8-1.1-5.2,1.1-8,0.8c-2.6-0.3-5.4,0.3-8,0.1c-2.6-0.2-5.2-0.8-7.7-1.4
	c-1.6-0.4-3.2-0.9-4.5-2.1c-1.6-1.5-2.2-3.2-1.9-5.4c0.2-1.3-0.1-2.6-0.3-3.9c-0.1-0.4-0.4-0.9-0.8-0.9c-2.1-0.4-1.9-2.1-2.1-3.5
	c-0.1-1.3-0.1-2.6-0.2-3.9c0-0.3-0.3-0.7-0.5-1c-0.3-0.5-0.9-0.9-1-1.4c-0.8-3.7-0.5-7.4,0.1-11.1c0.6-3.7,1.3-7.5,1.3-11.2
	c0-3.8,0.5-7.6,0.9-11.3c0.3-3.2,0.8-6.5,1.3-9.7c0.1-0.7,0.5-1.4,0.8-2.1c0.3-0.9,0.7-1.8,0.9-2.8c0.4-1.9,0.6-3.8,1.1-5.6
	C30,70.5,30.7,68.6,31.3,66.6z M56.2,59.3c0.4-0.3,0.7-0.6,1-0.8c1.1-0.6,2.8,0.1,2.9,1.3c0.1,1.1,0,2.3-0.3,3.4
	c-0.4,1.5-1.1,2.9-1.5,4c0.9,3.5,1.4,6.8,2.6,10c1.3,3.3,0.6,6.8,1.3,10.1c0.6-1.8,1-3.6,1.3-5.5c1.4-8.3,2.7-16.5,4-24.8
	c0.2-1.1,0-2-0.8-2.8c-1-0.9-1.7-2-2.7-2.8c-0.4-0.3-1.1-0.4-1.6-0.5c-0.3-0.1-0.6-0.1-0.9,0c-0.4,0.1-0.9,0.1-1.1,0.3
	c-1,1.1-1.8,2.3-2.9,3.3C56.2,55.9,56.1,57.4,56.2,59.3z"/>
</svg>
