<?xml version="1.0" encoding="utf-8"?>
<!-- Generator: Adobe Illustrator 23.1.1, SVG Export Plug-In . SVG Version: 6.00 Build 0)  -->
<svg version="1.1" id="Layer_1" xmlns="http://www.w3.org/2000/svg" xmlns:xlink="http://www.w3.org/1999/xlink" x="0px" y="0px"
	 viewBox="0 0 100 150" style="enable-background:new 0 0 100 150;" xml:space="preserve">
<path d="M66.8,7.5c-0.7,1.8-2,2.9-3.5,3.7c-0.7,0.4-3.4,3.2-3.7,3.8c-0.1,0.1-0.1,0.3-0.3,0.6c1.2,0.2,2.3,0.4,3.6,0.7
	c-0.7,0.3-1.2,0.5-1.9,0.8c0.5,0.6,1,1,1.9,0.8c6.3-1.2,12.4-0.7,18.3,1.9c9.9,4.5,16.1,12.1,18.1,22.7c2.4,12.9-3.5,25.6-14.8,32.2
	c-6,3.5-12.5,4.8-19.4,4c-0.2,0-0.4,0-0.8-0.1c0.1,1.1,0.2,2.3,0.2,3.4c0,3.5,0,6.9,0,10.4c0,2.3,0,4.6,0.4,6.8
	c0.4,1.9,1.3,3.7,2.1,5.6c0.1,0.2,0.3,0.3,0.5,0.3c1.3,0.3,2.3,1,3.2,2.1c-0.4,0-0.7-0.1-1-0.1c-0.9-0.1-1.1,0-0.7,0.9
	c0.4,1,0.9,1.8,1.4,2.8c-0.2,0-0.5,0-0.9,0c0.2,0.8,0.3,1.5,0.5,2.4c-0.4-0.2-0.6-0.3-0.9-0.5c-0.6,0.7-0.4,1.5-0.3,2.3
	c0.1,0.7,0.2,1.5,0.3,2.2c0.2,1.4,0.3,2.9,0.5,4.3c0,0.2,0.1,0.3,0.1,0.5c-0.5,4,1,7.8,1.2,11.8c0.1,2,0.9,4,1.3,6
	c0.4,1.9,0.8,3.7,1.1,5.6c0,0.2-0.2,0.6-0.4,0.7c-0.5,0.2-1,0.2-1.5,0.2c-1.3,0-2.5,0-3.8,0c-0.4,0-1,0.1-1.3-0.1
	c-0.4-0.2-0.9-0.7-0.9-1c-0.2-1.9-0.1-3.9-0.3-5.8c-0.4-4.2-0.9-8.3-2.1-12.3c-0.3-1-0.8-1.9-1.1-2.8c-0.1-0.4-0.3-0.7-0.3-1.1
	c-0.5-2.4-0.9-4.8-1.5-7.5c-0.4,0.5-0.6,0.9-1,1.5c-0.3-1.5-0.6-2.7-0.8-4.1c-0.2,0.2-0.5,0.4-0.7,0.5c0-1.4,0-2.8,0-4.4
	c-0.6,0.3-1.1,0.5-1.7,0.8c0-2.1,1.4-3.1,3.1-3.7c-0.1-0.3-0.1-0.5-0.2-0.7c-1.5-3-2.2-6.2-2.9-9.4c-0.8-4-2-7.9-3.1-11.8
	c-0.3-1.2-0.6-2.5-1-3.7C51.9,80,51.4,79,51,77.9c-0.1,0-0.2,0-0.3,0.1c-0.3,0.6-0.5,1.2-0.9,2c-0.3-0.9-0.6-1.6-0.9-2.4
	c-0.6,0.3-0.4,1.5-1.3,0.9c-1.1,4.5-2.6,8.9-3,13.6c-0.3,3.5-1.3,6.9-2,10.4c-0.1,0.5-0.2,0.9-0.3,1.4c-0.1,0.6-0.3,1.2-0.1,1.7
	c0.2,0.4,0.9,0.5,1.3,0.8c0.7,0.7,1.4,1.6,2,2.4c-0.1,0.1-0.1,0.1-0.2,0.2c-0.5-0.1-1-0.2-1.8-0.4c0.3,0.7,0.4,1.3,0.7,1.8
	c0.3,0.5,0.7,0.9,1.1,1.5c-0.6,0-1.1,0.1-1.6,0.1c0,1.3,0,2.5,0,3.9c-0.4-0.4-0.6-0.7-0.8-0.9c-1.1,1.9-1.2,4.1-1.5,6.2
	c-0.5,3.5-1.1,6.9-0.8,10.4c0.2,2.5,0.2,5.1,0.3,7.6c0,0.2,0.1,0.5,0,0.7c-0.4,1.6-0.8,3.2-1.4,4.8c-0.1,0.4-0.8,0.7-1.3,0.8
	c-1.9,0-3.9,0-5.8-0.1c-0.2,0-0.4-0.3-0.5-0.5c0-0.6-0.1-1.2,0.1-1.7c1.3-2.7,1.8-5.6,2.1-8.5c0.2-1.8,0-3.6,0-5.4
	c0-1,0.1-2,0.1-2.9c0-0.1,0-0.1,0-0.2c-0.3-3.9-0.6-7.8-0.9-11.7c0-0.1-0.1-0.1-0.2-0.2c-0.3,0.3-0.5,0.7-0.8,1c-0.1,0-0.2,0-0.3,0
	c-0.1-1.2-0.1-2.5-0.2-3.7c-0.2,0-0.5,0.1-0.8,0.2c0.3-1.2,0.7-2.4,1-3.7c-0.1,0-0.2-0.1-0.3-0.1c-0.4,0.2-0.7,0.3-1.2,0.6
	c0.2-1.2,0.7-2.2,1.8-2.5c2-0.4,2.4-1.8,2.8-3.5c1-4.7,1.1-9.4,0.6-14.2c-0.4-3.6-0.6-7.2-0.9-10.8c0-0.3-0.1-0.6-0.3-1
	c-0.1,0.2-0.3,0.5-0.4,0.7c-0.1,0-0.2-0.1-0.3-0.1c0.1-0.8,0.3-1.6,0.4-2.5c0,0-0.2-0.2-0.4-0.3c0.4-0.7,0.8-1.3,1.2-2.1
	c-0.5,0-0.8,0-1.3,0.1c0.5-1,1-1.8,1.4-2.8c-0.2-0.1-0.5-0.2-0.9-0.4c1.2-0.8,2.2-1.7,2.1-3.3c-0.3,0-0.6,0-1,0.1c0.4-1,0.7-2,1.1-3
	c-0.1,0-0.3-0.1-0.5-0.2c0.5-0.7,1-1.4,1.6-2.2c-0.4-0.1-0.7-0.1-1.2-0.3c2-1.9,3.9-3.8,2.1-6.6c-0.6,1.3-1.3,2.8-1.9,4.3
	c-0.4,1-0.8,2.1-1.3,3.2c-0.9,2.4-1.8,4.8-2.7,7.2c-0.1,0.4-0.1,0.8-0.2,1.2c-0.1,0.7-0.2,1.5-0.3,2.3c0,0,0.2,0,0.4,0.1
	c0.3,0.1,0.8,0.2,0.8,0.3c0,0.4-0.1,0.9-0.2,1.3c-0.1,0.2-0.4,0.4-0.4,0.6c0.6,2-1.4,3.1-1.7,4.8c0,0.2-0.4,0.3-0.7,0.4
	c0.6,1.1,1.1,2.3,1.6,3.4c0.4,1-0.1,1.9-0.6,2.7c-0.1,0.2-0.6,0.2-0.9,0.3c-0.3-1.2-0.6-2.3-0.9-3.4c-0.1,0-0.2,0-0.3,0
	c-0.5,1.5-1.1,3-1.6,4.4c-4.5,12.4-9,24.8-13.5,37.2c-1.2,3.2-2.5,6.4-3.6,9.6c-0.7,2-1.8,3.6-3.2,5.1c-2.4,2.6-4.9,5.2-7.3,7.8
	c-0.1-0.1-0.2-0.1-0.3-0.2c0.1-1.1,0.2-2.3,0.4-3.4c0.7-4.4,1.1-8.8,3.1-12.8c1.2-2.6,2.5-5.1,3.7-7.7c6.4-13.2,12.8-26.4,19.2-39.6
	c0.4-0.8,0.7-1.6,1.2-2.4c0.3-0.6,0.2-1.1-0.2-1.5c-0.8-0.7-1.7-1.2-2.5-1.8c-0.2-0.2-0.5-0.5-0.5-0.7c0-0.2,0.3-0.6,0.5-0.7
	c0.7-0.2,1.4-0.2,2.3-0.3c0.4-1.7,0.8-3.6,0.5-5.6c-0.1-0.4,0.1-0.8,0.2-1.2c0.3-1.1,0.8-2.2,1-3.4c0.2-0.9,0-1.9,0-3
	c1.3-1.1,1.2-2.7,1.2-4.3c0-0.4-0.1-0.9,0-1.2c0.8-1.6,0.8-3.3,1.2-5c0.1-0.3,0.2-0.7,0.1-1c-0.3-1.3,0.1-2.4,0.6-3.6
	c0.9-2,1.8-4,1.6-6.2c0-0.6-0.2-1.2-0.3-1.7c-0.1-0.1-0.2-0.1-0.3-0.2c-0.5,0.5-0.9,1.1-1.5,1.7c-0.3-1.7-0.3-3.3,1-4.7
	c-0.8,0.1-1.3,0.1-1.8,0.2c1.1-1.9,2.2-3.7,3.2-5.6c0-0.1-0.1-0.1-0.1-0.2c-0.8,0.3-1.6,0.6-2.4,0.9c0.8-2.6,2.9-3.5,5.2-4.2
	c-0.3-0.5-0.5-0.9-0.8-1.6c2.9,0.7,5.4-0.4,7.9-0.9c-0.3-1.1-0.7-2.2-1-3.3c-0.2,0.2-0.5,0.4-1,0.7c0.1-0.8,0.2-1.4,0.3-2
	c-1.7,0.1-2.4,0.9-2.6,2.7c-0.1,0-0.2,0-0.3,0c0-0.9,0.1-1.8,0.1-2.8c-0.5,0.4-1.1,0.8-1.7,1.3c0.6-2.5,2.7-2.9,4.5-3.9
	c-0.3-0.2-0.6-0.5-0.9-0.7c2.5,0.8,3.9-1.1,5.3-2.2c0-1-0.1-1.8,0-2.6c0.1-0.7-0.2-0.9-0.8-1.2c-2.4-0.9-4-2.4-4.2-5.1
	c0-0.1,0-0.2,0-0.3c0,0,0,0,0.1-0.1c1.5,1.5,3.3,2.3,5.4,2.3c0.8,0,1.4-0.3,2.1-0.8c1.3-1,2.8-2,4.2-2.9c0.9-0.5,1.8-0.3,2.6,0.3
	c1.4,1.1,2.6,2.4,3.4,4c0.2,0.3,0.6,0.6,1,0.7c1.9,0.4,3.7,0,5.5-0.8C66.2,7.8,66.4,7.7,66.8,7.5z"/>
</svg>
