<?xml version="1.0" encoding="utf-8"?>
<!-- Generator: Adobe Illustrator 23.1.1, SVG Export Plug-In . SVG Version: 6.00 Build 0)  -->
<svg version="1.1" id="Layer_1" xmlns="http://www.w3.org/2000/svg" xmlns:xlink="http://www.w3.org/1999/xlink" x="0px" y="0px"
	 viewBox="0 0 100 100" style="enable-background:new 0 0 100 100;" xml:space="preserve">
<path d="M52,69.3c-1.3,0-2.6,0-4,0c0,0.1,0,0.2,0,0.3c0,7.8,0,15.6,0,23.4c0,3.4-2.4,6.3-5.7,6.8c-4.5,0.8-7.8-2.7-8.1-6
	c0-0.3,0-0.5,0-0.8c0-16.9,0-33.8,0-50.7c0-0.2-0.1-0.4-0.2-0.5C28,35.9,22.1,30,16.2,24.1c-1.2-1.2-1.8-2.6-1.8-4.3
	c0-3.4,2.7-6,6.1-5.9c1.6,0,2.9,0.6,4.1,1.8c4.6,4.6,9.2,9.2,13.9,13.9c0.2,0.2,0.3,0.2,0.5,0.2c7.4,0,14.8,0,22.2,0
	c0.2,0,0.4-0.1,0.5-0.2c4.6-4.6,9.2-9.2,13.9-13.9c2.8-2.8,7.5-2.2,9.5,1.3c1.2,2.2,0.9,4.9-0.7,6.8c-0.1,0.2-0.3,0.3-0.4,0.5
	C77.8,30.1,71.9,36,66,41.9c-0.1,0.1-0.2,0.3-0.2,0.5c0,16.9,0,33.8,0,50.8c0,3.4-2.6,6.3-6,6.8c-4.2,0.6-7.4-2.6-7.8-5.8
	c0-0.3-0.1-0.7-0.1-1c0-7.8,0-15.6,0-23.4C52,69.5,52,69.4,52,69.3z M50,0c7.6-0.1,13.9,6.5,13.9,13.7c0,7.5-6.2,14-13.9,14
	s-14-6.5-13.9-14.2C36.2,6.3,42.3-0.1,50,0z"/>
</svg>
