<?xml version="1.0" encoding="utf-8"?>
<!-- Generator: Adobe Illustrator 23.1.1, SVG Export Plug-In . SVG Version: 6.00 Build 0)  -->
<svg version="1.1" id="Layer_1" xmlns="http://www.w3.org/2000/svg" xmlns:xlink="http://www.w3.org/1999/xlink" x="0px" y="0px"
	 viewBox="0 0 100 150" style="enable-background:new 0 0 100 150;" xml:space="preserve">
<path d="M68.3,26.7c3.3,1.5,5.1,3,5.7,4.6l0.1,0.4l1.3-0.1c0.7,0,1.5-0.1,1.8-0.1h0.6l-0.3-0.3c-0.9-0.9-3-2.4-4.9-3.4
	c-0.9-0.4-4.5-2.4-5.4-2.7c0,0,0.1-0.4,0.4-1.5c0.3-0.7,0.9-2.2,1.2-3.3c0.3-1,1-2.8,1.5-4c0.4-1.2,0.9-2.5,1-3
	c0.4-1.2,0.4-1.3,0.9-1.6c0.3-0.1,0.3-0.3,0.4-0.7c0.1-0.4,0.1-0.6,0-0.7c-0.1-0.3-0.1-0.6,0.3-0.7c0.3-0.1,0.3-0.1,0.6-1.2
	c0.1-0.6,0.6-1.6,0.9-2.5c0.7-2.1,1.3-2.7,2.7-3.1l0.4-0.1l-0.3-0.4c-0.6-1-1.8-1.6-3-1.8c-0.3,0-0.9,0-1.2,0l-0.6,0.1l0.1,0.3
	c0.3,0.6,0.4,1.2,0.4,1.6c0,0.6,0,0.6-0.7,2.2c-0.4,0.9-1,2.1-1.2,2.7c-0.4,0.9-0.6,0.9-0.4,1.2c0.1,0.4,0,0.6-0.3,0.6
	c-0.1,0-0.3,0.1-0.6,0.6c-0.3,0.4-0.3,0.6-0.1,0.9c0.1,0.4,0,0.6-0.4,1.2c-0.3,0.3-0.7,1.5-1.5,2.8c-0.6,1.3-1.5,3-1.9,3.9
	c-0.4,0.9-1.2,2.4-1.5,3.3c-0.4,1-0.7,1.6-0.7,1.6h-0.1c0-0.1,0-0.4,0-0.6c0.1-1.5-0.6-2.2-2.1-2.4c-1,0-2.1,0.1-3,0.1
	c-0.1-0.1-0.1-0.6-0.4-0.7c-1.3-0.9-1.6-2.1-1.6-3.6s-0.3-2.8-0.6-4.3c0-0.1-0.3-0.3-0.6-0.3c-0.1,0.1-0.3,0.3-0.3,0.4
	s0,0.4,0.1,0.7c-0.4-1.3-0.7-2.4-1.2-3.6c0-0.1,0.1-0.4,0.1-0.6c-0.7-0.6-1.5-1.3-2.5-1.6c-0.1,0-0.3-0.1-0.6-0.1c0,0,0-0.1-0.1-0.1
	c0.1,0,0.3,0,0.4,0c-0.4-0.7-0.9-1-1.5-0.7c-2.5,0.7-4.6,2.2-5.7,4.6c-1,2.5-1.6,5.1-2.4,7.6c-0.1,0.3-0.1,0.7-0.3,1.2
	c-0.3-0.3-0.4-0.6-0.7-0.9c-1.2-2.2-2.5-4.3-3.7-6.6c-0.1-0.1-0.1-0.3-0.1-0.4c-0.1-0.9-0.4-1.3-1.3-1.5c-0.6-0.1-1-0.3-0.9-1
	C34.1,8.8,34,9,33.8,9c-0.6,0.6-0.7,0.6-0.9,0c0-0.3-0.1-0.4-0.1-0.7c-0.6,0.4-0.7,0.9-0.4,1.2c0.7,0.6,0.7,1.3,0.6,2.1
	c-0.1,0.6,0.1,1,0.6,1.5c0.4,0.3,0.9,0.9,1.2,1.3c1,1.8,2.1,3.4,3.1,5.2c0.7,1.2,1.3,2.4,2.1,3.6c0.1,0.3,0.1,0.7,0,1
	c-0.4,0.7-1.6,0.7-2.1-0.1c-0.3-0.4-0.4-1-0.9-1.5c-1.5-1.6-2.4-3.7-3.3-5.8c-0.1-0.4-0.3-1-0.9-1.2c-0.7-0.3-1.2-0.9-1.3-1.6
	c-0.1-0.7-0.6-1.2-1.3-1.2c-0.9,0-1,0.1-1.2,1c0,0.1,0,0.3-0.1,0.4c-0.1,0.4,0,0.9,0.4,1.2c0.7,0.4,1,1.2,1.2,2.1
	c0,0.3,0.3,0.7,0.4,1c0.4,0.4,1,0.9,1.3,1.5c0.6,0.7,1.2,1.6,1.8,2.5c0.6,0.9,1.2,1.9,1.8,2.8c0.1,0.3,0.3,0.7-0.1,1
	c-1.2,0.6-1.6,1.6-2.1,2.7c-0.9,1.6-1.2,3.6-1.5,5.4c-0.6,2.4-0.7,4.8,0,7.3c0.1,0.4,0.1,0.9,0,1.3c-0.4,0.7-0.7,1.6-2.1,1.6
	c-0.3,0-0.7,0-1,0.3c-0.1,0.1-0.3,0.4-0.3,0.6c0,0.1,0.3,0.3,0.6,0.4c0.1,0,0.3,0,0.4,0c0.7-0.1,0.9,0,1,0.6c0,0.6-0.1,0.9-0.9,0.9
	c-0.4,0-1,0.1-1.5,0.1s-0.6,0.1-0.6,0.6c0,0.4,0.3,0.6,0.7,0.6c0.4,0,0.7,0,1.2,0c0.1,0,0.3,0.3,0.4,0.4c0.1,0.4,0.1,0.9,0.1,1.3
	c0,0.3,0,0.6-0.1,0.9c0,0.1-0.3,0.4-0.4,0.4c-0.1,0-0.3-0.3-0.4-0.4c-0.3-0.6-0.4-1-0.7-1.6h-0.1c0,0.1-0.1,0.3-0.1,0.4
	c0,0.4-0.1,1-0.1,1.5c0,3,0.1,6,0.1,9c0,2.4,0,4.8,0,7.3c0,1.9,0,3.9-0.9,5.8c-0.3,0.6-0.1,0.9,0.6,0.9c0.1,0,0.3,0,0.6,0.1
	c-0.1,0.7-0.3,1.5-0.6,2.1c-0.4,1.2-0.3,2.1,0.7,2.8c1.2,0.7,2.2,1.8,3.6,1.9c0.4,0,0.6,0.3,0.6,0.7c-0.1,0.6-0.1,1.3-0.3,1.9
	c-0.3,2.2-0.4,4.6-1,6.9c-0.7,3.3-1.6,6.6-2.5,9.7c-0.4,1.6-0.4,3.3-0.4,4.9c-3,7.2-5.4,13-5.7,13.9c-0.7,1.9-1.2,3.6-1.3,5.1
	c-0.1,1.2-0.4,3.9-0.3,3.9c0.1,0,2.1-2.4,2.8-3.3c0.9-1.2,1.5-2.4,2.5-4.3c0.1-0.4,1-2.4,2.4-5.2c0.1,0,0.3,0,0.3,0h0.1
	c0.7-0.3,1-0.1,1,0.7c0,1,0,2.2,0.1,3.3c0.1,2.2,0.4,4.3,0.6,6.6c0.1,1.8,0.6,3.6,0.3,5.4c-0.1,0.9-0.3,1.8-0.4,2.7h-0.1
	c-0.1-0.1-0.1-0.3-0.3-0.4c-0.1-0.1-0.3-0.3-0.3-0.4c-0.6,0.4-0.7,0.7-0.6,1.5c0.1,1.3,0.1,2.7-0.4,3.9c-0.3,0.6-0.6,1,0.1,1.5
	c-1.2,0.9-2.2,1.9-3.6,2.4c-0.6,0.3-1.2,0.6-1.8,0.9c-0.9,0.4-1.8,1-2.2,2.1c-0.7,1.6-0.4,2.2,1.2,2.4c1.2,0,2.2,0,3.4,0
	c2.1,0,4.2-0.4,6.3-0.9c0.1,0,0.3-0.1,0.4-0.3c0.6-0.6,1.2-0.7,2.1-0.7c1.9,0.1,3.9-0.1,5.8-0.7c0.9-0.3,1-0.6,0.9-1.6
	c-0.4-1.8-0.9-3.6-1.3-5.4c-0.1-0.4-0.1-0.9,0.1-1.3c0.4-0.4,0.4-1,0.3-1.6c-0.1-0.3-0.1-0.6-0.3-1c-0.4-1.2-0.4-2.4,0-3.6
	c0.1-0.1,0.1-0.4,0.1-0.6c0.1-3.4,0.6-6.9,1.5-10.3c0.7-2.4,1-4.9,0.6-7.5c-0.1-0.6,0.1-0.9,0.9-1c1.5-0.3,3.1-0.6,4.6-0.9
	c0.7-0.1,0.9,0.1,1,0.7c0.1,1.6,0.1,3.3,0.3,4.8c0,0.3,0.1,0.6,0.4,0.6c0.4,0.1,0.4-0.3,0.6-0.6c0.1-0.6,0.4-1.2,1.2-1.2
	c0.9-0.1,1.8-0.1,2.8-0.1c0.4,0,0.6,0.3,0.7,0.6c0.1,1,0.3,1.9,0.4,3c0.1,0.9,0.4,1.8,0.7,2.7c0.1,0.6,0.6,1,0.6,1.6
	c0.3,1.6,0.4,3.3,0.7,4.9c0,0.1,0,0.4-0.1,0.6c-0.3,0.6-0.3,1-0.1,1.6c0.1,1.6,0.3,3.3,0.4,4.9c0,0.3,0,0.6-0.4,0.6
	c-0.4,0.1-0.4,0.4-0.3,0.7c0.4,0.6,0.3,1.2,0.1,1.9c-0.1,0.4,0,0.7,0.4,0.7c0.4,0,0.6,0.3,0.4,0.7c-0.6,1.5-1,3-2.1,4.3
	c-0.3,0.3-0.6,0.7-0.4,1.2c0.1,1,0.3,1.9,0.6,3c0.1,0.7,0.9,1,1.6,1c2.7-0.3,5.1-1,6.9-3c0.4-0.4,0.9-0.9,1-1.5
	c0.1-0.9,0.4-1.9,0.6-2.8c0.1-0.6,0-1.3,0.1-1.9c0-0.3,0-0.6,0.1-0.9c0.3-0.9,0.6-1.8,0.9-2.7c0-0.1-0.1-0.4-0.3-0.6
	c-1.2-0.7-1.3-1.5-0.6-2.7c0.3-0.6,0.6-1.2,0.3-1.8c-0.4-0.9-0.3-1.8-0.3-2.7c0.1-2.5,0.3-4.9,0.6-7.5c0-0.7,0.3-1.3,0.6-2.1
	c0-0.1,0.1-0.3,0.1-0.4c-0.1-0.7-0.3-1.5-0.4-2.2c-0.3-1.5-0.1-2.8,1.3-3.7c0.1,0,0.1-0.1,0.1-0.3c0-0.1,0.1-0.4,0.1-0.6
	c-0.1,0-0.4,0-0.6,0c-0.6,0.1-1,0.4-1.6,0.3c0.6-0.3,1-0.6,1.5-0.7c1-0.4,1.5-1.2,1.5-2.2c0-1.2,0-2.2-0.1-3.4
	c-0.1-2.1-0.6-4.3-0.7-6.4c-0.3-5.2-0.4-10.6-0.6-15.9c0-0.9,0-1,0.9-1.3c0.1,0,0.3-0.1,0.4-0.1c0.4-0.3,0.6-0.1,0.9,0.3
	c1.2,2.1,2.4,4,3.7,6.1c0.6,0.9,1.5,1,2.2,0.3c0.6-0.6,0.7-1.2,0.1-2.2c-1.2-1.9-2.4-4-3.6-6c-0.1-0.1-0.1-0.3-0.1-0.6h0.1
	c0.3,0.6,0.7,1.2,1,1.8c0.4,0.7,0.7,1.5,1.3,2.1c0.4,0.7,1,0.9,1.8,0.4c0.9-0.4,1.2-1.2,0.6-2.2c-0.7-1.5-1.5-3-2.4-4.2
	c-1.3-1.9-1.3-4.2-1-6.4c0.1-0.9,0.4-1.8,0.4-2.7c0-0.9,0.3-1.8,0.4-2.7c0.4-2.1,1-4,1.2-6.3c0-1.6,0.3-3.1,0.4-4.8
	c0-1,0.1-2.2,0.1-3.3c0-0.3-0.3-0.4-0.3-0.7c-0.1,0.1-0.3,0.3-0.4,0.4c-0.1,0.4-0.3,0.9-0.6,1.2c-0.1,0.1-0.4,0.4-0.6,0.4
	c-0.6,0.1-1-0.1-1.3-0.7c-0.1-0.4-0.3-0.9-0.4-1.2c-0.3-0.9-0.6-1.8-0.9-2.7c-0.1-0.6-0.6-1.2-0.7-1.9c-0.3-0.7-0.1-0.9,0.6-1.3
	c0.4-0.1,0.6-0.4,0.6-0.9c-0.1-0.4,0-0.7,0.4-1c0.6-0.4,0.6-1,0.3-1.6c-0.1-0.4-0.3-0.9-0.4-1.5c-0.1-0.4-0.1-1-0.3-1.5
	c-0.3-0.9-0.3-1,0.7-1.3c0.7-0.1,0.9-0.6,0.6-1.2s-0.4-1-0.6-1.6c-0.3-0.7-0.4-1.5-1.2-2.1c-0.1-0.1-0.1-0.3-0.1-0.4
	c-0.4-0.9-0.7-1.8-1.2-2.5c-0.3-0.4-0.9-0.7-1.3-1c-0.7-0.6-1.3-1-2.1-1.6l0.3-0.6L68.3,26.7z M35.6,69.7c0.1-1.3,0.3-2.7,0.6-4
	c0-0.3,0.4-0.7,0.6-1c0.1-0.3,0.3-0.6,0.3-0.9c0.1-0.9,0-1.8,0.3-2.5c0.9-2.2,1.2-4.6,1.5-7c0,0.1,0.1,0.3,0.1,0.4c0,3-0.6,6-1.5,9
	c-0.7,2.5-1.3,5.1-1.9,7.6c0,0,0,0-0.1,0.1C35.5,70.7,35.5,70.1,35.6,69.7z M65.6,61.4c-1.3-2.4-2.7-4.8-3.9-7
	c-0.4-0.9-0.6-1.6,0-2.5c0.3-0.6,0.4-1.2,0.9-1.8c0.4,1.3,1.2,2.7,1.5,4c0.1,0.9,0,1.8,0.9,2.5c0.1,0.1,0,0.4,0,0.7
	c-0.3,0.7-0.3,1.2,0.3,1.8c0.4,0.6,0.7,1.2,0.7,1.9c0,0.3,0.1,0.6,0.1,1C65.7,61.7,65.7,61.6,65.6,61.4z"/>
</svg>
