<?xml version="1.0" encoding="utf-8"?>
<!-- Generator: Adobe Illustrator 23.1.1, SVG Export Plug-In . SVG Version: 6.00 Build 0)  -->
<svg version="1.1" id="Layer_1" xmlns="http://www.w3.org/2000/svg" xmlns:xlink="http://www.w3.org/1999/xlink" x="0px" y="0px"
	 viewBox="0 0 100 100" style="enable-background:new 0 0 100 100;" xml:space="preserve">
<path d="M84.7,0H15.3C6.9,0,0,6.9,0,15.3v69.3C0,93.1,6.9,100,15.3,100h69.3c8.4,0,15.3-6.9,15.3-15.3V15.3C100,6.9,93.1,0,84.7,0z
	 M92.5,84.7c0,4.3-3.5,7.8-7.8,7.8H15.3c-4.3,0-7.8-3.5-7.8-7.8V15.3c0-4.3,3.5-7.8,7.8-7.8h69.3c4.3,0,7.8,3.5,7.8,7.8V84.7z
	 M81,29.7c2.3,2.3,2.3,6,0,8.3L47.8,71.2c-1.1,1.1-2.7,1.7-4.2,1.7c-1.5,0-3-0.6-4.2-1.7L21.6,53.4c-2.3-2.3-2.3-6,0-8.3
	c2.3-2.3,6-2.3,8.3,0l13.7,13.7l29-29C74.9,27.4,78.7,27.4,81,29.7L81,29.7z"/>
</svg>
