<?xml version="1.0" encoding="utf-8"?>
<!-- Generator: Adobe Illustrator 23.1.1, SVG Export Plug-In . SVG Version: 6.00 Build 0)  -->
<svg version="1.1" id="Layer_1" xmlns="http://www.w3.org/2000/svg" xmlns:xlink="http://www.w3.org/1999/xlink" x="0px" y="0px"
	 viewBox="0 0 100 100" style="enable-background:new 0 0 100 100;" xml:space="preserve">
<g id="aFWbU8.tif">
	<g>
		<path d="M27.8,39.1c0.5-1.7,1.8-2.2,3.6-1.9c1.1,0.2,2.3,0.2,3.5,0.2c0.4,0,0.9-0.6,1.1-1.1c1.4-5,2.8-9.9,4.1-14.9
			c1.3-4.8,2.7-9.7,3.9-14.5C44.3,5.4,45,5,46.3,5C51.6,4.9,56.8,4.8,62,4.7c0.5,0,0.9,0,1.6,0C62.5,2.9,60,2.5,60,0.2
			c2.2-0.7,3.8,0.6,5.5,1.5c1.5,0.8,2.9,1.8,4.3,2.7c0.3,0.2,0.8,0.1,1.3,0.1c6.6-0.1,13.1-0.3,19.7-0.4c0.5,0,1.2,0.2,1.6,0.6
			c2.6,2.2,4.1,5.1,4.9,8.2c2.9,11.2,1.6,21.9-4.2,31.9c-0.8,1.3-1.8,2.5-2.8,3.6c-2.4,2.6-5.4,4.1-9.2,3.4
			c-0.5,2.3-1.1,4.6-1.5,6.9c-0.1,0.6-0.1,1.2-1,1.2c-0.2,0-0.5,0.4-0.6,0.7C76.2,66.8,74.6,73,73,79.1c0,0.2-0.1,0.4-0.1,0.5
			c0.9,2.7-0.8,5-1,7.5c0,0.2-0.3,0.5-0.5,0.6c-1.6,0.8-3.1,1.8-4.8,2.1c-4.7,0.9-8.8,3.4-12.9,5.5c-2.8,1.5-5.4,3.4-8.5,4.4
			c-0.5,0.2-1.3,0.2-1.7,0c-1.9-1-3.9-1.9-5.5-3.2c-5.5-4.6-12.1-7.1-18.1-10.7c-1.4-0.8-2.7-1.9-4.2-2.4c-1.9-0.6-3.8-1.4-5.5-2.4
			C9.2,80.7,8.7,80,8.5,79c-0.3-1.5-0.7-3-0.9-4.5c-0.1-0.7,0.3-1.5,0.2-2.2c-0.3-1.8-0.7-3.5-1.1-5.2C5.8,63.2,4.9,59.3,4,55.5
			c-0.1-0.6-0.1-1.3-1-1.3c-0.1,0-0.4-0.4-0.4-0.7c-0.4-2-0.7-3.9-1.1-5.9c-0.2-0.8,0.1-1.2,0.9-1.3c1-0.1,2-0.4,3-0.5
			c2.9-0.2,5.2-1.7,7.6-3.2c1.4-0.9,3-1.7,4.5-2.4c0.4-0.2,0.9,0,1.4-0.1c0.3,0,0.7,0,0.9-0.2c1.2-0.8,2.5-0.8,3.9-0.7
			C24.9,39.5,26.3,39.2,27.8,39.1z"/>
	</g>
</g>
</svg>
