<?xml version="1.0" encoding="utf-8"?>
<!-- Generator: Adobe Illustrator 23.1.1, SVG Export Plug-In . SVG Version: 6.00 Build 0)  -->
<svg version="1.1" id="Layer_1" xmlns="http://www.w3.org/2000/svg" xmlns:xlink="http://www.w3.org/1999/xlink" x="0px" y="0px"
	 viewBox="0 0 100 98" style="enable-background:new 0 0 100 98;" xml:space="preserve">
<path d="M99.9,42.4c0,0.3,0,0.5,0,0.7c0,12.8,0,25.6,0,38.4c0,0.5-0.2,0.8-0.6,1C87.6,87.4,75.8,92.4,64,97.3
	c-0.2,0.1-0.4,0.1-0.7,0.3c0-0.3,0-0.5,0-0.7c0-12.8,0-25.6,0-38.4c0-0.5,0.1-0.7,0.6-0.9c11.8-5,23.6-10,35.4-14.9
	C99.5,42.5,99.7,42.5,99.9,42.4z M12.7,37.4c0.1-2.4,0.4-4.7,1.1-6.9c2.5-8.5,7-15.6,14-21.1c2.8-2.2,6-3.9,9.6-4.6
	c1.7-0.3,3.4-0.2,5,0.3C51.2,8.1,60,11,68.9,14c0.2,0.1,0.5,0.2,0.6,0.2c-2,1.1-4.1,2.2-6.1,3.5C56.6,22.6,51.8,29,48.6,36.6
	c-1.5,3.6-2.5,7.3-2.9,11.3c0,0.2-0.1,0.4-0.1,0.7C34.7,44.8,23.7,41.1,12.7,37.4z M39.5,75.7c0-8.4,0-16.7,0-25
	c0.3,0.1,0.5,0.1,0.7,0.2c1.6,0.5,3.3,1.1,4.9,1.6c0.4,0.1,0.6,0.3,0.6,0.7c0,13,0,25.9,0,38.8c0,0.1,0,0.2,0,0.4
	c-1.4-0.5-2.7-0.9-4.1-1.4c-9.4-3.3-18.8-6.5-28.1-9.8c-0.5-0.2-0.7-0.4-0.7-1c0-12.7,0-25.4,0-38c0-0.2,0-0.5,0-0.8
	c1.8,0.6,3.5,1.2,5.3,1.8c0.1,0,0.2,0.4,0.2,0.6c0,2,0,3.9,0,5.9c0,6.1,0,12.1,0,18.1c0,0.4,0,0.6,0.5,0.8
	c6.8,2.3,13.7,4.6,20.5,6.9C39.3,75.7,39.3,75.7,39.5,75.7z M63.2,53.6c0.2-1.4,0.3-2.6,0.5-3.8c2.1-9.6,7-17.6,14.8-23.6
	c2.7-2.1,5.7-3.7,9.1-4.4c4.9-1,8.6,1,10.5,5.7c1.3,3.2,1.7,6.7,1.8,10.1c0,0.4-0.2,0.5-0.5,0.6C88.7,42.8,77.8,47.4,67,51.9
	C65.8,52.5,64.6,53,63.2,53.6z M83.6,18.9c-3.1,1.2-5.7,2.7-8.1,4.6c-7.2,5.8-12.1,13.2-14.7,22c-0.7,2.3-0.9,4.8-1.4,7.2
	c0,0.1,0,0.2-0.1,0.4c-3.2-1.1-6.5-2.2-9.8-3.3c0.3-1.9,0.4-3.8,0.9-5.7c1.7-7.3,5.3-13.6,10.4-19c3.1-3.2,6.6-5.7,10.8-7.3
	c1.8-0.7,3.7-1.1,5.7-0.9c0.2,0,0.4,0,0.5,0.1C79.7,17.7,81.5,18.3,83.6,18.9z M59.3,97.3c-2.2-0.8-4.3-1.5-6.5-2.2
	c-0.9-0.3-1.7-0.6-2.6-0.9c-0.5-0.1-0.7-0.4-0.7-0.9c0-8.6,0-17.2,0-25.9c0-4.2,0-8.3,0-12.5c0-0.2,0-0.5,0-0.8
	c1.1,0.4,2.1,0.7,3.2,1.1c2,0.7,4.1,1.4,6.2,2.1c0.3,0.1,0.5,0.2,0.5,0.6c0,13.1,0,26.2,0,39.2C59.4,97.1,59.4,97.2,59.3,97.3z
	 M32.8,1.9c-1.8,1-3.6,1.8-5.3,2.9c-6,3.9-10.4,9.3-13.8,15.5c-2.4,4.4-3.9,9-4.6,14C9,34.7,9,35,9,35.2S8.9,35.7,8.9,36
	c-0.2-0.1-0.4-0.1-0.6-0.2c-2.5-0.8-5-1.7-7.6-2.5c-0.4-0.1-0.6-0.3-0.5-0.8c0.2-4.2,1.4-8.2,3.1-12c2.5-5.8,6.1-10.8,11-14.8
	c3-2.4,6.2-4.3,10-5.1c2-0.4,3.9-0.5,5.9,0.4C31,1.4,32,1.7,32.8,1.9z M8.7,79.7c-1.5-0.5-3-1-4.4-1.5c-1.2-0.4-2.5-0.9-3.7-1.3
	C0.2,76.8,0,76.5,0,76.1c0-0.3,0-0.5,0-0.8c0-12.4,0-24.7,0-37.1c0-0.3,0-0.6,0-1c0.8,0.3,1.4,0.5,2.1,0.7c2,0.7,4.1,1.4,6.2,2.1
	c0.3,0.1,0.5,0.2,0.5,0.6c0,12.9,0,25.8,0,38.8C8.8,79.5,8.8,79.6,8.7,79.7z M35.6,49.3c0,7,0,14,0,21c-0.8-0.2-1.5-0.5-2.2-0.7
	c-3.6-1.2-7.1-2.4-10.7-3.6c-0.4-0.1-0.5-0.3-0.5-0.7c0-6.7,0-13.4,0-20.1c0-0.1,0-0.2,0-0.4C26.7,46.3,31.1,47.8,35.6,49.3z
	 M30.7,63.6c0-1.8,0-3.6,0-5.4c0-0.3,0.2-0.7,0.4-0.9c1.2-1.1,1.7-2.7,1.1-4.1c-0.5-1.5-1.9-2.4-3.4-2.4s-2.9,0.9-3.4,2.3
	c-0.6,1.4-0.3,3.1,0.9,4.1c0.4,0.3,0.5,0.7,0.5,1.1c0,1.2,0,2.4,0,3.6c0,0.5,0,1.1,0,1.7C28.1,63.6,29.3,63.6,30.7,63.6z"/>
</svg>
