<?xml version="1.0" encoding="utf-8"?>
<!-- Generator: Adobe Illustrator 24.1.3, SVG Export Plug-In . SVG Version: 6.00 Build 0)  -->
<svg version="1.1" id="Layer_1" xmlns="http://www.w3.org/2000/svg" xmlns:xlink="http://www.w3.org/1999/xlink" x="0px" y="0px"
	 viewBox="0 0 100 100" style="enable-background:new 0 0 100 100;" xml:space="preserve">
<g transform="translate(0,0)">
	<path d="M37.2,0c-9.7,0-18.5,1.9-25,5.2c-6.6,3.3-11.2,8-11.2,13.9c0,0.6,0.1,1.2,0.2,1.8l0,1.4C1,42.2,5,61.8,4.7,81
		c-0.1,5.6,3.4,10.5,9.1,13.8c5.7,3.3,13.6,5.2,23.3,5.2c9.7,0,17.1-1.9,22.3-5.3c5.2-3.4,8-8.3,8-13.7c0-0.8,0-1.5,0-2.3
		c10.1-0.3,18.1-5.6,23.3-12.6c5.3-7.1,8.2-15.9,8.3-23.9s-2.4-16.1-9.4-19.3c-3.5-1.6-7.3-1.6-11.8-0.3c-1.5,0.4-3,1-4.6,1.8
		c0-0.7,0-1.4,0-2.1v-1.6c0.1-0.5,0.1-1.1,0.1-1.6c0-5.9-4.6-10.7-11.2-13.9C55.6,1.9,46.9,0,37.2,0L37.2,0z M37.2,4.5
		c9.1,0,17.3,1.9,23,4.7c5.7,2.8,8.7,6.5,8.7,9.9s-3,7.1-8.7,9.9c-5.7,2.8-14,4.7-23,4.7s-17.3-1.9-23-4.7c-5.7-2.8-8.7-6.5-8.7-9.9
		s3-7.1,8.7-9.9C19.9,6.3,28.1,4.5,37.2,4.5L37.2,4.5z M20.5,13.8c-5.6,1.6-9.1,4-9.1,6.7c0,4.8,11.6,8.8,25.9,8.8
		s25.9-3.9,25.9-8.8c0-2.5-3-4.7-7.8-6.3c1.3,1,2,2.1,2,3.3c0,4.1-8.8,7.5-19.7,7.5C26.8,25,18,21.6,18,17.5
		C18,16.2,18.9,14.9,20.5,13.8L20.5,13.8z M83.6,30.2c1,0,1.9,0.2,2.5,0.5c2.6,1.2,4.4,5.5,4.3,11.5c-0.1,6.1-2.3,13.3-6.4,18.8
		c-3.9,5.2-9.1,8.7-16.1,9.1c1-12,3.4-24.1,4.6-35.5C77.5,31.4,81.1,30.2,83.6,30.2L83.6,30.2z"/>
</g>
</svg>
