<?xml version="1.0" encoding="utf-8"?>
<!-- Generator: Adobe Illustrator 23.1.1, SVG Export Plug-In . SVG Version: 6.00 Build 0)  -->
<svg version="1.1" id="Layer_1" xmlns="http://www.w3.org/2000/svg" xmlns:xlink="http://www.w3.org/1999/xlink" x="0px" y="0px"
	 viewBox="0 0 100 100" style="enable-background:new 0 0 100 100;" xml:space="preserve">
<path d="M22,19.1c-1.8-1.9-1.9-4.1,0-6c3.9-3.9,7.8-7.9,11.8-11.8c1.9-1.8,4.1-1.8,6,0c7.9,7.9,15.8,15.8,23.7,23.7
	c1.9,1.9,1.8,4.1,0,6c-3.9,3.9-7.7,7.8-11.6,11.6c-0.8,0.7-1.9,1.1-2.8,1.7c-0.1-0.1-0.1-0.2-0.2-0.3c-1.4,0-2.4-0.7-3.4-1.6
	C38.7,35.8,32,29.1,25.3,22.4C24.2,21.3,23.1,20.2,22,19.1z M99.1,54.5c0-1.6-0.5-2.1-2.1-2.1c-5.8,0-11.6,0-17.4,0
	c-5.9,0-11.8,0-17.6,0c-1.4,0-1.8,0.4-2,1.8c-0.2,1.2-0.7,1.9-1.9,2.1c-1.6,0.3-1.8,0.7-1.8,2.3c0,5.3,0,10.7,0,16
	c0,1.9,0.4,2.3,2.3,2.4c9.4,0,18.9,0,28.3,0c2,0,2.3-0.3,2.9-2.1c1.5-4.4,4.1-7.9,8.1-10.3c0.9-0.5,1.2-1.2,1.2-2.1
	C99.1,59.8,99.1,57.1,99.1,54.5z M93.7,94.9c-2.3-1.5-3.9-3.6-4.8-6.2c-0.7-1.9-1-3.9-1.5-5.8c-0.3-1.3-0.4-1.5-1.8-1.5
	c-3.8,0-7.6,0-11.4,0c-3.3,0-6.6,0-9.9,0c-3.5,0-3-0.2-3.5,3c-0.7,4.1-2.2,7.9-5.8,10.4c-1.3,0.9-1.8,2-1.7,3.5
	c0.1,1.2,0.5,1.8,1.7,1.8c3.1,0,6.2,0,9.3,0c0.8,0,1.4-0.3,1.8-1.1c2.6-6,13.7-6,16.4,0c0.2,0.5,1,1,1.5,1c3.2,0.1,6.4,0.1,9.6,0
	c0.8,0,1.3-0.4,1.5-1.2C95.5,97.2,95,95.8,93.7,94.9z M32.2,39.5c1-1.1,1-2,0-3.1c-1.3-1.3-2.5-2.6-3.8-3.8c-1-0.9-1.9-1-2.9,0
	c-8,7.9-15.9,15.9-23.9,23.9c-1,1-1,2,0,3c1.3,1.3,2.5,2.6,3.8,3.8c0.4,0.4,0.9,0.6,1.5,0.9c0.6-0.4,1.2-0.7,1.7-1.2
	c5.8-5.8,11.6-11.5,17.3-17.3C28,43.6,30.1,41.6,32.2,39.5z M49.6,56.9c-3.6,0-7.2,0-10.8,0c-3.7,0-7.4,0-11,0c-0.9,0-1.6,0.2-2.1,1
	c-0.5,0.8-0.1,1.5,0.4,2.2c1.7,2.4,3.7,4.3,6.1,6c5.2,3.5,11.1,5.1,17.3,5.8c1.7,0.2,2.3-0.3,2.3-2c0-3.6,0-7.2,0-10.8
	C51.8,57.4,51.3,56.9,49.6,56.9z M95.2,14.4c-0.6,1.4-1.5,2.6-2.8,3.5c-0.2,0.1-0.5,0.2-0.7,0.1c-0.2-0.1-0.3-0.4-0.3-0.6
	c-0.1-0.4-0.1-0.9-0.1-1.3c-0.3-3.6-1.5-6.9-3.8-9.7c-0.3-0.4-0.7-0.8-1.1-1.2c-0.1,0.1-0.1,0.1-0.1,0.1c0,0.2-0.1,0.4-0.1,0.6
	c-0.4,3.4-1.7,6.6-3.8,9.3c-1.3,1.6-2.6,3.2-3.8,4.9c-2.8,4-3.1,8.3-0.9,12.7c1.8,3.7,4.8,5.9,9,6.3c4.1,0.4,7.4-1.3,9.8-4.6
	c1.8-2.4,2.6-5.2,2.6-8.3c0.1-3.8-0.7-7.5-2.1-11.1c-0.4-0.9-0.8-1.7-1.2-2.7C95.6,13.3,95.4,13.9,95.2,14.4z"/>
</svg>
