<?xml version="1.0" encoding="utf-8"?>
<!-- Generator: Adobe Illustrator 23.1.1, SVG Export Plug-In . SVG Version: 6.00 Build 0)  -->
<svg version="1.1" id="Layer_1" xmlns="http://www.w3.org/2000/svg" xmlns:xlink="http://www.w3.org/1999/xlink" x="0px" y="0px"
	 viewBox="0 0 100 100" style="enable-background:new 0 0 100 100;" xml:space="preserve">
<g>
	<path d="M25.3,22.4c6.7,6.7,13.4,13.4,20.1,20.1c0.9,0.9,2,1.7,3.4,1.6c0.1,0.1,0.1,0.2,0.2,0.3c1-0.6,2.1-1,2.8-1.7
		c3.9-3.8,7.8-7.7,11.6-11.6c1.9-1.9,1.9-4.2,0-6C55.6,17.2,47.7,9.3,39.7,1.4c-1.8-1.8-4.1-1.8-6,0C29.8,5.3,25.9,9.2,22,13.2
		c-1.8,1.8-1.8,4.1,0,6C23.1,20.2,24.2,21.3,25.3,22.4z"/>
	<path d="M99.1,54.5c0-1.6-0.5-2.1-2.1-2.1c-5.8,0-11.6,0-17.4,0c-5.9,0-11.8,0-17.6,0c-1.4,0-1.8,0.4-2,1.8
		c-0.2,1.2-0.7,1.9-1.9,2.1c-1.6,0.3-1.8,0.7-1.8,2.3c0,5.3,0,10.7,0,16c0,1.9,0.4,2.3,2.3,2.4c9.4,0,18.9,0,28.3,0
		c2,0,2.3-0.3,2.9-2.1c1.5-4.4,4.1-7.9,8.1-10.3c0.9-0.5,1.2-1.2,1.2-2.1C99.1,59.8,99.1,57.1,99.1,54.5z"/>
	<path d="M93.7,94.9c-2.3-1.5-3.9-3.6-4.8-6.2c-0.7-1.9-1-3.9-1.5-5.8c-0.3-1.3-0.4-1.5-1.8-1.5c-3.8,0-7.6,0-11.4,0
		c-3.3,0-6.6,0-9.9,0c-3.5,0-3-0.2-3.5,3c-0.7,4.1-2.2,7.9-5.8,10.4c-1.3,0.9-1.8,2-1.7,3.5c0.1,1.2,0.5,1.8,1.7,1.8
		c3.1,0,6.2,0,9.3,0c0.8,0,1.4-0.3,1.8-1.1c2.6-6,13.7-6,16.4,0c0.2,0.5,1,1,1.5,1c3.2,0.1,6.4,0.1,9.6,0c0.8,0,1.3-0.4,1.5-1.2
		C95.5,97.2,95,95.8,93.7,94.9z"/>
	<path d="M32.2,39.5c1-1.1,1-2,0-3.1c-1.3-1.3-2.5-2.6-3.8-3.8c-1-0.9-1.9-1-2.9,0c-8,7.9-15.9,15.9-23.9,23.9c-1,1-1,2,0,3
		c1.3,1.3,2.5,2.6,3.8,3.8c0.4,0.4,0.9,0.6,1.5,0.9c0.6-0.4,1.2-0.7,1.7-1.2c5.8-5.8,11.6-11.5,17.3-17.3
		C28,43.6,30.1,41.6,32.2,39.5z"/>
	<path d="M49.6,56.9c-3.6,0-7.2,0-10.8,0c-3.7,0-7.4,0-11,0c-0.9,0-1.6,0.2-2.1,1c-0.5,0.8-0.1,1.5,0.4,2.2c1.7,2.4,3.7,4.3,6.1,6
		c5.2,3.5,11.1,5.1,17.3,5.8c1.7,0.2,2.3-0.3,2.3-2c0-3.6,0-7.2,0-10.8C51.8,57.4,51.3,56.9,49.6,56.9z"/>
	<path d="M78.4,29.5c2.3,2,4.1,4.3,5.3,7.1c0.6,1.3,0.9,2.6,1.5,3.9c0.1,0.3,0.6,0.7,0.9,0.7c0.3,0,0.6-0.4,0.8-0.7
		c0.2-0.2,0.2-0.5,0.3-0.7c1.4-4,3.1-7.7,6.3-10.6c0.4-0.4,0.6-1,0.8-1.5c-0.2-0.6-0.4-1.1-0.6-1.5c-0.1-0.2-0.3-0.4-0.5-0.6
		c-3.8-4.5-6.1-9.7-7.1-15.4c-0.1-0.5-0.5-0.9-0.8-1.4c-0.3,0.5-0.7,0.9-0.9,1.4c-0.5,1.8-0.9,3.6-1.4,5.3c-1.1,3.6-2.5,7.1-5,10.1
		C76.8,27.1,76.8,28.1,78.4,29.5z"/>
</g>
</svg>
