<?xml version="1.0" encoding="utf-8"?>
<!-- Generator: Adobe Illustrator 23.1.1, SVG Export Plug-In . SVG Version: 6.00 Build 0)  -->
<svg version="1.1" id="Layer_1" xmlns="http://www.w3.org/2000/svg" xmlns:xlink="http://www.w3.org/1999/xlink" x="0px" y="0px"
	 viewBox="0 0 100 100" style="enable-background:new 0 0 100 100;" xml:space="preserve">
<g transform="translate(0,0)">
	<path d="M31.4,0l18.9,15.1L66.7,16l-0.2,3.9l-34-1.9l-25-1l47.9,14.3l-41.7,52l-3.1-3.7L0.2,100l52.4-42.7l10.9,2.4l-8.2,8.6
		L52.7,66L40.6,83.7l48.8-29.5l-24.6-6.8l21.1-17.2c0.2,0.1,0.5,0.2,0.7,0.3c4.9,1.3,10.5-3.5,12.4-10.9c2-7.3-0.4-14.3-5.4-15.6
		c-4.9-1.3-10.5,3.5-12.4,10.9c-0.3,1.2-0.5,2.3-0.6,3.4L31.4,0L31.4,0z"/>
</g>
</svg>
