<?xml version="1.0" encoding="utf-8"?>
<!-- Generator: Adobe Illustrator 23.1.1, SVG Export Plug-In . SVG Version: 6.00 Build 0)  -->
<svg version="1.1" id="Layer_1" xmlns="http://www.w3.org/2000/svg" xmlns:xlink="http://www.w3.org/1999/xlink" x="0px" y="0px"
	 viewBox="0 0 100 100" style="enable-background:new 0 0 100 100;" xml:space="preserve">
<path d="M43.7,68.8C33.4,60.4,36,48,39,41.1c3-6.9,10.4-15.3,18-18.9c-6.8,9.7-12.7,24.5-5,26c7.7,1.5,8.7-13.9,8.7-13.9
	c8,9.7,3.3,29.4-6.9,34.4c14.1,0,21.9-11.6,21.9-21.6C75.7,29.6,64.5,8.4,48.2,0c5.1,18-11.8,21.5-20.4,38.7
	C21.2,51.9,26.4,67.6,43.7,68.8z M65.8,79l12.3-6.2l-3.3-6.5L50,74.1l-24.8-7.8l-3.3,6.5L34.2,79l-17.4,5.4l7.2,15.5L50,87l6.7,3.4
	L50.7,93l1.3,2.1l11.4-1.5v0l12.6,6.3l7.2-15.5L65.8,79z"/>
<line x1="50.3" y1="50" x2="49.7" y2="50"/>
</svg>
