<?xml version="1.0" encoding="utf-8"?>
<!-- Generator: Adobe Illustrator 23.1.1, SVG Export Plug-In . SVG Version: 6.00 Build 0)  -->
<svg version="1.1" id="Layer_1" xmlns="http://www.w3.org/2000/svg" xmlns:xlink="http://www.w3.org/1999/xlink" x="0px" y="0px"
	 viewBox="0 0 100 100" style="enable-background:new 0 0 100 100;" xml:space="preserve">
<path d="M10.6,55c0.9,1.3,1.7,2.6,2.7,3.8c2.7,3.5,6,6.5,10,8.6c1.8,0.9,3.6,1.7,5.7,1.8c2.9,0.1,4.7-1.5,4.7-4.5
	c0-3.6-1.3-6.6-3.5-9.4c-1.9-2.3-4.1-4.2-6.5-5.9c-3-2.2-6-4.2-9-6.4c-2.6-1.9-5-4-7-6.5c-3.2-4.3-4-9-2.8-14.2c0.5-2,1.2-3.9,2-5.8
	c0.1-0.1,0.1-0.2,0.2-0.4c0.1,0.5,0.2,1,0.3,1.4c1.3,5.3,4.1,9.6,8.6,12.7c1.6,1.1,3.3,1.8,5.2,1.9c2.4,0.1,4-1.2,4.6-3.5
	c0.5-1.7,0.4-3.4,0.1-5.2c0-0.2-0.1-0.4,0-0.6c0.2,0.3,0.4,0.7,0.6,1c1.9,3.5,4.2,6.7,7.4,9.1c2.2,1.7,4.5,2.9,7.3,3.2
	c2.9,0.3,5.4-0.4,7.3-2.8c1.2-1.6,1.6-3.5,1.4-5.5c-0.3-3.4-1.9-6.2-3.9-8.9c-1.8-2.4-4-4.5-6.3-6.4c-0.1-0.1-0.2-0.2-0.3-0.3
	c0,0,0-0.1-0.1-0.2c0.2,0.1,0.4,0.1,0.6,0.2c7.7,2.4,15.3,5.3,22.5,8.9c6.9,3.5,13.5,7.5,19.4,12.6c4.9,4.2,9.1,8.9,12.3,14.5
	c2.5,4.3,4.2,8.9,4.9,13.9c1.2,9.1-1,17.3-6.6,24.6C87,93.7,79.6,97.9,70.8,99.5c-7.1,1.2-14,0.3-20.6-2.2c-5.5-2.1-10.5-5.2-15-8.9
	c-5.9-4.9-10.9-10.7-15.2-17.1c-3.5-5.1-6.4-10.4-9.1-15.9C10.7,55.2,10.7,55.1,10.6,55z M75.4,49.7c0.5,0.9,0.9,1.8,1.5,2.6
	c2.6,3.3,6.1,5.5,10,6.8c1.1,0.4,2.3,0.6,3.5,0.4c1.2-0.2,1.9-1,1.9-2.2c0-0.3,0-0.6-0.1-0.9c-0.4-1.9-1.2-3.7-2.3-5.3
	c-1.7-2.5-3.9-4.5-6.4-6.1c-7.6-4.8-15.8-5.9-24.4-3.4c-1.2,0.3-2.3,0.8-3.5,1.3c0.4,0.3,0.7,0.6,1,0.8c1.8,1.1,3.7,2.2,5.6,3.3
	c2.3,1.3,4.6,2.5,6.4,4.5c2.4,2.5,3.7,5.6,4.3,8.9c-1.1-0.5-2.1-1-3.3-1.4c-2.7-0.9-5.5-1.1-8.3-1.5c-2.3-0.3-4.6-0.7-6.7-1.5
	c-2.9-1.1-5-3.1-5.6-6.3c-0.1-0.6-0.2-1.3-0.3-2c-7.8,6.8-11.8,19.2-7,30.9c1.7,4.2,4.4,7.8,7.9,10.8c3.3,2.7,10.1,6,12,5.7
	c-4.3-3-5.4-9.6-5.3-13c0.6,1,1.2,2,1.9,2.9c1.4,2,3,3.9,5.3,5.1c3.2,1.7,6.4,0.9,8.2-2.3c1.1-1.9,1.5-3.9,1.4-6
	c0-3.4-1-6.5-2.7-9.4c-2.3-4-5.6-7.1-9.5-9.6c-0.2-0.1-0.3-0.2-0.6-0.4c0.3,0,0.4,0,0.5-0.1c2.5-0.1,5,0.1,7.4,0.8
	c4.3,1.2,7.8,3.5,10.2,7.4c2.1,3.5,2.8,7.2,1.8,11.2c-0.3,1.1-0.9,2.1-1.3,3.1c1.1-0.7,2.3-1.6,3.3-2.6c2.7-2.7,3.5-5.9,2.3-9.6
	c-0.6-1.7-1.4-3.4-2.4-4.9c-1.5-2.4-3.1-4.8-4.6-7.2c-1.3-2.2-2.4-4.4-2.7-7C74.9,52.2,75,50.9,75.4,49.7z M19.1,0
	c0.5,0.2,1,0.3,1.5,0.4c2.9,1.1,5.5,2.9,7.7,5c1.5,1.4,2.9,2.9,3.8,4.7c0.3,0.6,0.6,1.3,0.7,1.9c0.3,1.6-0.3,2.7-1.6,3.5
	c-2,1.1-4.2,1.5-6.4,1.4c-4.5-0.1-8.5-1.6-12.4-3.7c-3.2-1.7-6.1-3.8-8.6-6.5c-1.4-1.5-2.6-3.2-3-5.3c-0.1-0.3-0.1-0.6-0.2-1
	c0.8,0.5,1.5,1.1,2.3,1.6C6.8,4.5,11,6.1,15.5,6.7c1.1,0.2,2.3,0.2,3.4-0.1c1.6-0.4,2.4-1.5,1.9-3.1c-0.3-1.1-0.9-2-1.4-3
	c-0.1-0.2-0.2-0.3-0.3-0.5C19,0.1,19.1,0.1,19.1,0z M44.7,60.7c1.9-0.1,3.6,0.2,5.3,0.8c5.3,1.9,9.6,5.1,12.8,9.8
	c0.8,1.1,1.3,2.4,1.5,3.7c0.3,3-1.8,5-4.7,4.4c-3-0.6-5.5-2.2-7.3-4.6c-0.3-0.3-0.4-0.7-0.7-1.2c0.7,0.3,1.2,0.5,1.7,0.6
	c0.2,0.1,0.5,0.1,0.7,0.1c0.6,0,0.9-0.3,0.9-0.9c-0.1-0.7-0.2-1.4-0.4-1.9c-1.8-3.8-4.3-7.1-7.6-9.7c-0.3-0.2-0.6-0.4-1-0.6
	C45.5,61,45.2,60.9,44.7,60.7z"/>
</svg>
