<?xml version="1.0" encoding="utf-8"?>
<!-- Generator: Adobe Illustrator 24.1.3, SVG Export Plug-In . SVG Version: 6.00 Build 0)  -->
<svg version="1.1" id="Layer_1" xmlns="http://www.w3.org/2000/svg" xmlns:xlink="http://www.w3.org/1999/xlink" x="0px" y="0px"
	 viewBox="0 0 100 100" style="enable-background:new 0 0 100 100;" xml:space="preserve">
<path d="M0,57.3c0.4-2,0.7-4.1,1.3-6.1C3.4,44.4,7.5,38.9,12.6,34c4.9-4.8,10.6-8.6,16.6-11.9c0.3-0.2,0.7-0.4,1.2-0.6
	c-1-1.2-1.9-2.3-2.8-3.5c-0.6-0.7-1.2-1.4-1.6-2.2c-0.7-1.4-0.3-2.6,1.2-3.1c1.4-0.4,2.9-0.7,4.3-0.7c6.6-0.2,12.9,0.9,18.9,3.6
	c0.9,0.4,1.8,0.5,2.7,0.4c7.9-0.6,15.6-0.1,23.3,2c9.2,2.6,17.1,7.2,23.2,14.7c0.5,0.6,0.5,1,0.2,1.6c-2.7,5.3-6.6,9.5-11.3,13.1
	c-6.9,5.2-14.8,8.3-23.2,10.1c-1.1,0.2-2.3,0.4-3.4,0.6c-0.5,0.1-1.1,0.3-1.5,0.6c-3.8,2.5-7.8,4.8-12,6.5c-1.5,0.6-2.9,1.1-4.5,0.9
	c-2-0.3-2.9-1.6-2.2-3.6c0.5-1.2,1.1-2.4,1.6-3.7c-1.5-0.2-3-0.4-4.4-0.7c-3.1-0.6-6.2-1.5-9.4-1.9c-5.6-0.7-11.2-0.5-16.6,1.2
	c-1.9,0.6-3.6,1.4-5.2,2.9c0.1-0.7,0-1.4,0.2-2c0.5-1.9,1.8-3.4,3.3-4.5c1.5-1.1,3.1-2,4.7-3c0.8-0.5,1.2-1.2,0.8-1.9
	c-0.4-0.6-1-0.8-1.7-0.5c-3.2,1.5-6.1,3.4-8.2,6.3c-1,1.4-1.7,3-1.7,4.7c-0.1,2.3,1,4,2.7,5.4c2.8,2.3,6.2,3.1,9.7,3.3
	c4.9,0.3,9.5-0.6,14-2.6c0.1-0.1,0.3-0.2,0.4-0.2c0.7,0,1.5-0.1,2,0.2c0.7,0.4,0.6,1.3,0.3,2.1c-0.8,2.1-1.9,4-3.5,5.6
	c-1.5,1.4-3,2.8-4.7,4c-3.1,2.2-4.8,5-4.8,8.9c0,0.6-0.6,1.2-0.9,1.8c-0.3,0-0.7,0-1,0c-2.8-2.1-5.9-3.9-8.5-6.2
	c-5.3-4.6-9-10.2-10.4-17.2c-0.2-0.9-0.3-1.8-0.5-2.8C0,60.3,0,58.8,0,57.3z M52.7,29.9c0-1.7,0-3.3,0-5c0-1-0.4-1.7-1.1-1.7
	c-0.8-0.1-1.3,0.5-1.3,1.6c0,3.3-0.1,6.5,0.1,9.8c0.2,4,0.8,7.9,2.1,11.7c1.1,3.3,3.1,5.7,6.4,7c0.8,0.3,1.5,0.1,1.8-0.6
	c0.3-0.8,0-1.4-0.8-1.6c-2.9-1.1-4.4-3.3-5.3-6.1C53.1,39.9,52.7,34.9,52.7,29.9z M78.5,31.2c0-1.7-1.4-3.2-3.2-3.2
	c-1.8,0-3.2,1.4-3.2,3.2c0,1.7,1.4,3.2,3.2,3.2C77,34.4,78.5,33,78.5,31.2z"/>
</svg>
