<?xml version="1.0" encoding="utf-8"?>
<!-- Generator: Adobe Illustrator 23.1.1, SVG Export Plug-In . SVG Version: 6.00 Build 0)  -->
<svg version="1.1" id="Layer_1" xmlns="http://www.w3.org/2000/svg" xmlns:xlink="http://www.w3.org/1999/xlink" x="0px" y="0px"
	 viewBox="0 0 100 100" style="enable-background:new 0 0 100 100;" xml:space="preserve">
<path d="M38.1,54c-3.7,2.2-7.6,2.7-11.5,1c-2.9-1.2-5-3.3-6.3-6.1c-1.3-2.9-1.3-5.9-0.3-8.9c1-3.1,3.3-5,6.3-6.5
	c-3.3-1.7-5.7-4-6.5-7.6c-0.8-3.5-0.4-6.8,1.6-9.8c3.1-4.7,10.3-7.6,16.8-3.3c-0.2-4.5,1.6-8,5.1-10.7c2.2-1.7,4.8-2.3,7.6-2.1
	c5.8,0.2,11.5,6,11,12.9c3.6-2.4,7.3-2.9,11.2-1.3c2.7,1.1,4.7,3,6.1,5.5c1.6,3,1.8,6.1,0.8,9.3c-1,3.3-3.3,5.4-6.4,7
	c3.3,1.6,5.7,3.8,6.5,7.4c0.7,3.1,0.6,6.1-1,8.9c-3.4,6-11.2,8.2-17.3,4.3c0.2,4.6-1.6,8.2-5.4,10.8c-2.4,1.6-5.1,2.1-7.9,1.8
	C42.9,66,37.7,60.9,38.1,54z M38.1,33.4c0,6.6,5.2,11.8,11.8,11.9c6.5,0,11.9-5.2,11.9-11.8c0-6.7-5.3-12.1-11.8-12.1
	C43.5,21.4,38.2,26.8,38.1,33.4z M7.2,57.2c-0.3,13.9,6.6,28.6,21.9,37.4c13.5,7.8,33.2,7.3,46.4-3c11.3-8.7,17.2-20.1,17.3-34.5
	c-22-0.8-43,18.5-42.8,39.1C50,74.2,27.4,56,7.2,57.2z"/>
</svg>
