<?xml version="1.0" encoding="utf-8"?>
<!-- Generator: Adobe Illustrator 23.1.1, SVG Export Plug-In . SVG Version: 6.00 Build 0)  -->
<svg version="1.1" id="Layer_1" xmlns="http://www.w3.org/2000/svg" xmlns:xlink="http://www.w3.org/1999/xlink" x="0px" y="0px"
	 viewBox="0 0 100 100" style="enable-background:new 0 0 100 100;" xml:space="preserve">
<path d="M21.7,0C6.7,0.5,0.3,15,0.2,22.3c-0.5,27.6,32.8,14.1,33.4,27.5c0.7,14.6-21.4,16.8-22.4-1.1c-5.9,23.7,12.6,36,28.5,31.9
	l-0.2-0.1V68.8h12c-0.2-0.8-0.2-1.7-0.2-2.5c0-0.5,0-1,0.1-1.5H39.4V51.2l10.6-6.1l6.2,10.7c1-0.8,2.2-1.5,3.5-1.9l-6.2-10.8
	l11.2-6.5l11.4,6.6l-6.4,11c1.2,0.6,2.3,1.3,3.3,2.2l6.5-11.2l10.4,6v13.6H77.5c0.1,0.5,0.1,1,0.1,1.5c0,0.9-0.1,1.7-0.2,2.5h12.8
	v11.7L78.9,87l-6.1-10.5c-1,0.8-2.2,1.5-3.4,2L75.4,89l-10.6,6.1l-10.5-6l5.9-10.3c-1.3-0.4-2.5-1-3.6-1.8l-5.8,10.1L45,83.7
	c-3.1,5-7,7.7-11,8.5C52,102.6,76,103.4,89.4,89.6c13.7-14.1,13.1-37.3,4.4-54.2c-6,12.1-26.4,2.9-19.7-10.1
	c1.6-3.1,2.3-5.9,2.3-8.4l5.8-1.6l-1.7,6.2l3.8,1l1.7-6.2l4.5,4.5l2.8-2.8l-4.5-4.5l6.2-1.7L94,8l-6.2,1.7l1.7-6.2l-3.9-1l-1.7,6.2
	l-4.5-4.5l-2.8,2.8l4.5,4.5L75.5,13c-2.4-6-10.3-9.7-22.4-10c17.9,2.6,11.3,25.2,1.7,28.4c-8.4,2.8-12.8-1.4-11.1-7.8
	c2.1-8.3-2.6-12.9-8-13.6l-4-0.7l3-3.5l-3-2.6l-3,3.5l-1.5-4.3l-3.8,1.3L25,8l-4.5-0.8l-0.7,3.9l4.5,0.8l-3,3.5l3,2.6l3-3.5l1.5,4.3
	l3.8-1.3l-1.5-4.3l3.9,0.7c6.2,10.7-12.1,20.2-20.2,8.5C9.2,14.1,9.8,4.5,21.7,0L21.7,0z M62.6,57.2c-1.9,0.4-3.6,1.3-4.9,2.7
	l4.9,2.8V57.2z M66.6,57.3v5.4l4.6-2.7C70,58.7,68.4,57.7,66.6,57.3z M55.6,63.3c-0.3,0.9-0.5,1.9-0.5,3c0,1,0.1,1.9,0.4,2.8l5-2.9
	L55.6,63.3L55.6,63.3z M73.2,63.5l-4.6,2.7l4.7,2.7c0.2-0.8,0.4-1.7,0.4-2.6C73.6,65.3,73.5,64.4,73.2,63.5L73.2,63.5z M62.6,69.6
	l-5,2.9c1.3,1.4,3,2.4,5,2.8V69.6L62.6,69.6z M66.6,69.6v5.6c1.9-0.5,3.5-1.5,4.8-2.9L66.6,69.6L66.6,69.6z M9.4,79.1l-3.8,1
	l1.6,6.1L1,84.6l-1,3.9l6.1,1.6l-4.5,4.5l2.8,2.8L8.9,93l1.6,6.1l3.9-1l-1.6-6.1l6.1,1.6l1-3.9l-6.1-1.6l4.5-4.5l-2.8-2.8L11,85.2
	L9.4,79.1L9.4,79.1z"/>
</svg>
