<?xml version="1.0" encoding="utf-8"?>
<!-- Generator: Adobe Illustrator 23.1.1, SVG Export Plug-In . SVG Version: 6.00 Build 0)  -->
<svg version="1.1" id="Layer_1" xmlns="http://www.w3.org/2000/svg" xmlns:xlink="http://www.w3.org/1999/xlink" x="0px" y="0px"
	 viewBox="0 0 150 100" style="enable-background:new 0 0 150 100;" xml:space="preserve">
<g>
	<path d="M71.3,3.4c-1.2-1-2.2-2.3-3.3-3.4c-1.5,1.6-3,3.2-4.4,4.8c-0.3,0.3-0.5,0.8-0.5,1.2c0,7.6,0,15.2,0,22.8c0,0.3,0,0.6,0,0.8
		c-1,0-1.8,0-2.7,0c0-0.3,0-0.6,0-0.8c0-6.9,0-13.7,0-20.6c0-0.3-0.2-0.8-0.4-1c-0.9-1-1.9-2-2.8-3.1c-0.6-0.6-1.1-1.2-1.7-1.8
		C54,4,52.6,5.5,51.1,7c-0.4,0.4-0.6,0.8-0.6,1.4c0,6.8,0,13.5,0,20.3c0,0.3,0,0.6,0,0.9c-1,0-1.8,0-2.7,0c0-0.4,0-0.6,0-0.9
		c0-3.6,0-7.2,0-10.8c0-0.4-0.2-0.9-0.5-1.2c-1.3-1.5-2.7-2.9-4-4.3c-0.1-0.2-0.3-0.3-0.5-0.4c-1.5,1.6-3,3.2-4.4,4.8
		C38.2,17,38,17.5,38,17.9c0,3.7,0,7.3,0,11c0,0.3,0,0.6,0,0.8c-1,0-1.8,0-2.7,0c0-0.3,0-0.6,0-0.8c0-1.7,0-3.4,0-5.2
		c0-0.3,0-0.6-0.2-0.7c-1.5-1.7-3.1-3.4-4.7-5c-0.1,0-0.2,0-0.2,0.1c-1.5,1.6-3.1,3.3-4.5,4.9c-0.2,0.2-0.2,0.5-0.2,0.8
		c0,1.7,0,3.5,0,5.2c0,0.3,0,0.5,0,0.8c-1,0-1.9,0-2.9,0c0-0.3,0-0.6,0-0.9c0-3.7-0.1-7.4,0-11.1c0.1-2-0.9-3.1-2.6-3.9
		c-0.3-0.2-0.7-0.3-1.1-0.4c3.8-2.3,3.5-6.3,1.8-8.3c-2-2.4-5.5-2.7-7.8-0.6c-1.1,0.9-1.6,2.1-1.7,3.6c-0.1,2.4,1,4.1,3,5.3
		c-0.5,0.2-0.9,0.3-1.2,0.5c-1.6,0.8-2.4,1.9-2.4,3.8c0.1,7.2,0.1,14.5,0.1,21.7c0,2.4-0.1,4.7-0.1,7.1c0,17.6,0,35.2,0,52.8
		c0,0.2,0,0.5,0,0.7c4,0,7.9,0,11.9,0c0-5.6,0-11.2,0-16.8c1,0,1.9,0,2.9,0c0,2.8,0,5.5,0,8.2c3.3,0,6.5,0,9.8,0c0-2.8,0-5.5,0-8.2
		c0.9,0,1.8,0,2.7,0c0,2.8,0,5.5,0,8.2c0.2,0,0.3,0.1,0.4,0.1c3,0,6,0,8.9,0c0.5,0,0.6-0.3,0.6-0.7c0-2.3,0-4.6,0-6.8
		c0-0.3,0-0.5,0-0.8c0.9,0,1.8,0,2.7,0c0,0.3,0,0.6,0,0.9c0,2.2,0,4.4,0,6.6c0,0.6,0.1,0.8,0.8,0.8c2.8,0,5.6,0,8.4,0
		c0.2,0,0.5,0,0.8-0.1c0-2.8,0-5.5,0-8.2c0.9,0,1.8,0,2.7,0c0,2.8,0,5.5,0,8.2c3.3,0,6.5,0,9.8,0c0-0.4,0-0.7,0-1
		c0-27.5,0-55.1,0-82.6C73.1,6,72.7,4.7,71.3,3.4z M25.4,41.1c0,10.9,0,21.8,0,32.8c0,0.3,0,0.6,0,0.9c-1,0-1.9,0-2.9,0
		c0-12.2,0-24.4,0-36.6c0.9,0,1.7-0.1,2.5-0.1c0.2,0,0.5,0.3,0.5,0.5C25.5,39.4,25.4,40.2,25.4,41.1z M38,40.8c0,11,0,22,0,33.1
		c0,0.3,0,0.6,0,0.9c-0.9,0-1.7,0-2.7,0c0-0.3-0.1-0.6-0.1-0.8c0-7.1,0-14.1,0-21.2c0-2.1,0-4.3,0-6.4c0-2,0-4.1,0-6.1
		c0-0.5,0-1-0.1-1.4c-0.1-0.6,0.1-0.9,0.8-0.8c0.4,0,0.9,0,1.3,0c0.7-0.1,0.9,0.2,0.8,0.8C38,39.5,38,40.1,38,40.8z M50.6,74.8
		c-0.8,0-1.6,0-2.3,0c-0.2,0-0.4-0.3-0.4-0.5c-0.1-0.3,0-0.7,0-1c0-8.1,0-16.3,0-24.4c0-1.5-0.1-3-0.1-4.6c0-1.7,0.1-3.3,0.1-5
		c0-1.2,0-1.2,1.2-1.2c1.5,0,1.5,0,1.5,1.5c0,11.4,0,22.9,0,34.3C50.6,74.2,50.6,74.5,50.6,74.8z M63.1,74.8c-0.9,0-1.7,0-2.6,0
		c0-0.3,0-0.5,0-0.8c0-11.7,0-23.4,0-35.1c0-0.6,0.2-0.9,0.8-0.8c0.6,0.1,1.2,0,1.9,0C63.1,50.4,63.1,62.5,63.1,74.8z"/>
	<path d="M139.5,17.7c0-2.2-0.8-3.3-2.8-4.1c-0.3-0.1-0.5-0.2-0.8-0.3c3.2-2.4,3.9-5.6,1.9-8.2c-1.8-2.4-5.2-2.8-7.6-0.9
		c-1.1,0.9-1.8,2.1-2,3.6c-0.2,2.4,0.9,4.2,3,5.5c-0.5,0.2-1,0.4-1.4,0.6c-1.5,0.8-2.3,1.9-2.3,3.6c0.1,3.8,0,7.5,0,11.3
		c0,0.3,0,0.6,0,0.9c-1,0-2,0-2.9,0c0-0.3,0-0.6,0-0.8c0-1.7,0-3.4,0-5.1c0-0.4-0.2-0.8-0.4-1.1c-1.3-1.4-2.6-2.8-3.9-4.2
		c-0.2-0.2-0.3-0.4-0.5-0.7c-1.6,1.7-3,3.3-4.5,4.8c-0.4,0.4-0.6,0.8-0.6,1.4c0,1.3,0,2.7,0,4c0,0.6,0,1.2,0,1.7c-1,0-1.8,0-2.7,0
		c0-0.3,0-0.6,0-0.9c0-3.7,0-7.3,0-11c0-0.4-0.2-0.8-0.4-1.1c-1.3-1.5-2.7-3-4.1-4.4c-0.1-0.1-0.3-0.2-0.4-0.4
		c-1.5,1.6-3,3.2-4.4,4.8c-0.3,0.3-0.5,0.8-0.5,1.1c0,3.7,0,7.4,0,11.1c0,0.3,0,0.5,0,0.8c-0.9,0-1.8,0-2.7,0c0-0.3,0-0.6,0-0.9
		c0-6.8,0-13.6,0-20.4c0-0.3,0-0.6-0.1-0.8c-1.6-1.7-3.1-3.4-4.8-5.2c-0.2,0.2-0.2,0.4-0.4,0.5c-1.4,1.5-2.7,2.9-4,4.4
		c-0.3,0.3-0.4,0.8-0.4,1.1c0,6.8,0,13.6,0,20.4c0,0.3,0,0.6,0,0.9c-1,0-1.8,0-2.7,0c0-0.3,0-0.6,0-0.9c0-7.6,0-15.2,0-22.8
		c0-0.3,0-0.6-0.2-0.8c-1.5-1.7-3.1-3.4-4.7-5.1c-0.1,0.1-0.2,0.1-0.2,0.1c-1.5,1.6-3.1,3.3-4.5,4.9C77.1,5.3,77,5.6,77,5.9
		c0,28.3,0,56.6,0,84.8c0,0.2,0,0.5,0,0.7c3.3,0,6.6,0,9.9,0c0-2.8,0-5.5,0-8.3c0.9,0,1.8,0,2.7,0c0,0.3,0,0.6,0,0.8
		c0,2.3,0,4.5,0,6.8c0,0.6,0.2,0.7,0.7,0.7c2.8,0,5.7,0,8.5,0c0.2,0,0.4,0,0.6-0.1c0-2.8,0-5.5,0-8.2c0.9,0,1.8,0,2.7,0
		c0,2.8,0,5.5,0,8.2c3.3,0,6.5,0,9.9,0c0-2.8,0-5.5,0-8.3c0.9,0,1.8,0,2.7,0c0,2.8,0,5.5,0,8.2c3.3,0,6.5,0,9.8,0c0-2.8,0-5.5,0-8.2
		c1,0,1.9,0,2.9,0c0,5.6,0,11.2,0,16.8c4,0,7.9,0,11.9,0c0-0.4,0-0.7,0-1c0-16.9,0-33.8,0-50.7C139.5,38.1,139.5,27.9,139.5,17.7z
		 M89.5,74.8c-0.9,0-1.7,0-2.6,0c0-12.2,0-24.4,0-36.7c0.9,0,1.7,0,2.6,0C89.5,50.4,89.5,62.6,89.5,74.8z M102.1,74.8
		c-0.9,0-1.7,0-2.6,0c0-12.2,0-24.4,0-36.6c0.8,0,1.7,0,2.6,0C102.1,50.4,102.1,62.6,102.1,74.8z M114.7,47.9c0,8.6,0,17.2,0,25.9
		c0,0.3,0,0.7,0,1c-0.9,0-1.8,0-2.7,0c0-12.2,0-24.4,0-36.7c0.8,0,1.5-0.1,2.3-0.1c0.5,0,0.5,0.3,0.5,0.7
		C114.8,41.8,114.7,44.8,114.7,47.9z M127.5,40.8c0,2.2,0,4.4,0,6.7c0,8.8,0,17.6,0,26.4c0,0.3,0,0.6,0,0.9c-0.9,0-1.8,0-2.6,0
		c-0.1,0-0.3-0.2-0.3-0.4c-0.1-0.2,0-0.4,0-0.6c0-7.6,0-15.3,0-22.9c0-3.5,0-7,0-10.4c0-0.6,0-1.3-0.1-1.9c0-0.5,0.2-0.6,0.6-0.6
		c0.6,0,1.3,0,1.9,0c0.4,0,0.6,0.2,0.6,0.6C127.6,39.3,127.5,40.1,127.5,40.8z"/>
</g>
</svg>
