<?xml version="1.0" encoding="utf-8"?>
<!-- Generator: Adobe Illustrator 23.1.1, SVG Export Plug-In . SVG Version: 6.00 Build 0)  -->
<svg version="1.1" id="Layer_1" xmlns="http://www.w3.org/2000/svg" xmlns:xlink="http://www.w3.org/1999/xlink" x="0px" y="0px"
	 viewBox="0 0 150 100" style="enable-background:new 0 0 150 100;" xml:space="preserve">
<path d="M13.1,79.8c1.6-1.2,4.2-0.8,6.3-0.9c2.9-0.1,3.4-2.4,5.4-3.3c1.7-0.7,3.5-0.7,5.1-0.9c3.5-0.5,5.5-2.7,7.5-4.8
	c1-1,1.9-2.3,3.2-3c1.1-0.6,2.7-1,3.8-1.6c1.1-0.7,1.7-1.8,2.7-2.6c0.7-0.5,1.6-1.2,2.2-1.4c1.3-0.4,2.6,0.3,4,0
	c1.7-0.3,3.2-1.5,5-1.9c2.4-0.6,5.1,0.1,7.9-0.5c0-0.4,0-0.7,0.1-0.9c0.4-1,0.8-1.9,1.2-2.8c-1.5,0.6-4.3,0.8-3.8,0.8
	c-0.3,0.6-1.1,1.1-1.8,1.6c-0.7,0.5-1.4,1.3-2.3,1.1c-0.1-0.8,0.2-1.7,0.1-2.2c-2.2,0.7-2.4,3.4-4.9,3.8c-0.2-2.6,1.2-3.7,2-5.3
	c-1,0.6-1.9,1.4-2.8,2.2c-1.2,1-2.6,2.5-4.6,2.2c0.7-2.4,2.1-4.1,4.1-5.2c-1.6,0.5-4.5,1.2-6.1,0.2c0.4-1,1.6-1.6,2.8-2
	c1.6-0.5,3.7-0.8,5.5-0.6c-0.1,0.2-0.1,0.2,0,0c0,0,0,0,0,0c0.1-0.4,0.4-1.4,0.8-2.3c0.7-2.1,1.7-4.1,3.2-5.6
	c0.5-0.5,1.3-1.3,2.2-2.1c-3.9-4.2-9.1-9-8.5-17.3c0.1-2,0.7-3.7,1.3-5.4c-0.1-0.3-0.5-0.4-0.4-0.8c0.2-0.5,0.6,0,0.8-0.4
	c-0.4-0.5-1.3-0.4-1.3-1.3c0.3-0.6,1.4-0.1,1.7-0.2c-0.2-0.7-1.1-0.4-1.6-0.6c-0.6-0.3-0.9-0.7-0.9-1.4c0.9-0.7,2.2,0.8,2.9-0.1
	c-0.4-1-2.3-1-1.9-2.4c0.9-0.1,1.6,0.8,2.3,0.2C56,10.6,55,10.4,55,9.3c1.4-0.3,1.7,1.5,2.8,0.9c0-0.7-0.8-0.6-0.7-1.4
	c0.9-0.7,2,1.3,2.9,0.3c0-0.7-0.6-0.7-0.5-1.4c1-0.5,1.5,0.8,2.4,0.3c0-0.5-0.1-1,0.2-1.2c1.1-0.4,1.7,0.5,2.7,0.5
	C65.1,6.5,65,5.4,65.7,5c1.5-0.4,2.7,0.3,4.1,0.4c0.7-0.6,0.1-2.5,1.7-2.2c0.4,0.2,0.2,1.1,0.6,1.3c0.8-0.5,1.7-0.8,3.1-0.7
	c0.5,0.4,0.9,0.8,1,1.5c0.7-0.9,3.5-1.6,3.7,0.2c0.9-0.8,3.9-1.2,4,0.6c1.3-0.7,3.9-0.6,3.6,1.5c0.8-0.6,3-1.6,3.5,0
	c0.7-0.4,1.7-1.4,2.7-1.2c0.8,0.2,0.9,1.2,1.2,2c1.2-0.5,1.4-2.4,3.2-2c0.3,0.3,0.3,1,0.5,1.4c1.1,0.7,1.9-0.8,2.9-0.7
	c1.1,0,1.3,1.3,2.2,1.9c0.7-0.5,0.9-1.5,1.7-1.5c0.9,0,1,0.9,1.7,1.3c0.6-0.4,0.9-1.1,1.4-1.5c1,0.1,1.1,1.1,1.9,1.3
	c0.5,0,0.7-1.2,1.3-1.4c1.3-0.5,2.3,0.9,3,1.1c0.5,0.2,1.3,0.1,1.7,0c0.5-0.1,1.4-0.8,1.8-1.2c0.9-0.8,1.5-2.2,1.5-3.4
	c0.1-1.2-0.6-2.4-0.2-3.8c0.9,0.3,1.1,1.3,1.5,2.2c0.4,0.8,0.8,1.7,0.8,2.9c0,1.8-1.2,3.4-2.2,4.5c-1,1-2.3,1.9-3.7,2.7
	c-4.1,2.4-9.1,3.4-14.6,4.5c-7.3,1.4-14.4,3.1-18.8,6.7c-0.6,0.9-1.7,1.8-1.3,3.4c0.5-0.4,0.9-0.7,1.4-0.6c0.7,0.1,0.9,1,1.5,1.3
	c0.7,0,0.8-0.5,1.5-0.5c0.7,0.5,0.1,1.7,1,1.9c0.5,0.1,1-0.6,1.6-0.6c1.5,0,1,1.5,1.9,2.2c0.9-0.2,0.9-1.2,2-1.1
	c0.7,0.3,0.4,1.5,1.1,1.7c0.6,0.2,1.2-0.5,1.9-0.6c0.7,0.3,0.7,1.3,1.3,1.6c0.4,0.1,1.7,0.2,2.2,0.4l2.2,1.9c1.4,1,2.7,1.9,4,3
	c0.9-1.1,2.8-1.9,4.6-1.7c1.9,0.2,4.3,1.4,6,2.4c5.1,3.2,9.5,8.4,11.8,13.6c0.1,0.3,0,0.8,0.2,1c2,0.2,3.2,2.1,5,2.8
	c0.6,0.2,1.4,0.1,2.2,0.3c1.5,0.3,2.6,1.1,3.7,2c-1.2,1.1-4.2,1.4-5.6,0.2c1,1.2,1.9,2.5,2.2,4.4c-1.9,0.1-3.2-0.7-4.4-1.9
	c-1.1-1.1-0.7-0.2-0.2,0.8c0.5,1.1,1.2,2.3,0.6,3.3c-2.4-1.3-4.4-3.4-6.2-4.9c1,1.4,1.6,3.2,1.7,5.4c-3.7-0.4-4.5-4-6.3-6.1
	c-0.4-0.5-1.6-1.3-2.3-1.7c0.1,0.5,0.2,1,0.2,1.5c0.4,4.9-3,10.4-2.3,15.4c0,0,6.6,4.8,7.9,8.1c0.5,1.4,1.1,2.9,1.2,4.2
	c0,0.6,0.1,3.8,0,4.5c0,0,0,0,0,0c0,0.2,0,0.1,0,0c1.7,0,3.4,0.3,4.8,0.7c1.4,0.4,2.8,1,3.4,2.2c-1.6,1.1-4.5,0-6-0.2
	c1.9,1.1,3.3,2.7,3.8,5.2c-1.4,0.2-2.1-0.4-3-1c-1.6-1.2-2.9-2.8-4.3-3.7c0.8,1.6,2.3,3,1.9,5.4c-0.4,0.1-0.9-0.2-1.2-0.4
	c-1.2-0.9-1.9-2.7-3.3-3.7c-0.5-0.4-1-0.7-1.6-0.9c1,1.1,1.7,3.4,1.2,5.3c-2.6-0.9-3.5-3.7-4.9-6.3c-1.2-2.2-2.2-4.4-2.4-6.4
	c-0.6-4.6-8.4,2-13,3.3c-5,1.4-10.6,1.6-16,2.7c-4.4,0.9-12.5,3.4-19.8,0.9c0.4-0.5-2.2,1-4.8,1.1c-1.8,0.1-3.3-1.4-5.4-0.9
	c-2.9,0.7-6,1.4-9.1,1.7c-1.6,0.1-3.2,0.1-4.8,0.2c-2.9,0.2-5.8,1.1-8.9,0.9c-1.7-0.1-3.3-0.3-4.8-0.4c-2.3-0.1-4.4,0.4-6.5,0.5
	c-2.8,0.1-4.5-0.3-6.3-1.3c-0.7-0.8-1.3-1.8-1.1-3.6c0.9-0.8-0.2-3.5,1.2-3.8c0.4,0.8,0,2.2,0.8,2.6c0.9-0.2,0.7-1.5,1.6-1.6
	c0.5,1.1,0.1,3,1.6,3c0.4-0.7-0.1-2.3,0.9-2.3c0.8,1.1,0.8,3,2.6,3.2c0.7-0.3,0.3-1.7,1.2-1.7c0.4,0.4,0.3,1.4,1.3,1.1
	c0.2-0.7,0-1.7,0.7-1.8c0.6,0.4,0.1,1.9,1.1,1.9c0.6-0.4,0.3-1.6,1.3-1.6c0.5,0.4,0.3,1.5,1.2,1.4c0.5-0.2,0.3-1.1,1-1.1
	c0.1,0.7,0.2,1.4,0.8,1.6c0.6-0.1,0.3-1.2,1-1.2c0.4,0.5,0.5,1.2,1.1,1.1c0.8-0.1,0.4-1.3,1.2-1.5c0.5,0.6,0.5,1.7,1.5,1.7
	c0.3-0.5-0.1-1.2,0.2-1.5c0.7-0.2,0.6,1.2,1.5,1.1c0.5-0.6-0.1-1.6,0.5-2.2c0.3,0.4,0.3,1,0.8,1.2c0.8-0.7-0.5-3.1,0.8-3.5
	c0.3,0.5,0.2,1.5,1.1,1.4c0.3-0.9-0.3-2.6,0.7-2.9c0.5,0.5,0.1,2,1.1,2c0.6-0.2,0.3-1.2,0.6-1.6c0.7,0.1,0.3,1.4,1,1.4
	c0-0.5,0.1-1,0.3-1.3c0.6-0.1,0.3,0.7,0.9,0.7c0.4-0.3,0.2-1.2,0.5-1.6c0.5,0.1,0.3,1,0.9,0.9c0.7-0.1,0.5-1.2,0.9-1.6
	c0.5,0.1,0.1,1.1,0.9,0.9c0.4-0.1,0-0.6,0.1-1c0.3-0.2,0.4,0.6,0.8,0.5c0.1-0.1,0.1-0.4,0.1-0.7c0.4,0,0.5,0.3,0.9,0.1
	c2.6-1.4,3.9-4.1,5.8-6.3c0.5-0.5-2.6,2.1-2.8,2.8c-0.4,0.3-0.5-0.7-0.9-0.3c-0.1,0.3-0.1,0.9-0.1,1.3c-0.7,0.1-0.4-0.9-0.9-0.9
	c-0.6,0.2-0.5,1.2-0.5,2c-0.8,0-0.5-1.1-1.4-1c-0.2,0.4-0.2,1.1-0.2,1.7c-0.6-0.1-0.5-0.9-1-1c-0.6,0.1-0.9,0.3-1.1,0.8
	c-0.2,0.3,0.1,1-0.4,1.1c-0.8-0.2-0.4-1.4-1.2-1.3c-0.7,0-0.6,0.7-0.6,1.8c-1.1-0.1-0.6-1.7-1.6-1.8c-0.7-0.1-0.1,1.1-0.7,1.1
	c-0.6-0.4-0.3-1.6-1.1-1.5c-0.8,0-0.5,1.3-0.7,2.2c-0.5,0.2-0.6-0.8-1.1-0.9c-0.9,0.5-1.1,1.6-1,3.1c-0.9,0.1-0.6-1-1.3-1.1
	c-0.6,0.8-0.5,2.2-0.7,3.4c-1.1-0.1-0.7-1.6-1.3-2.2c-0.6-0.2-1.7,0.1-2,0.8c0,0.7,0.1,1.5,0,1.9c-1.4-0.1-0.7-3.2-2.3-3.3
	c-0.5,0.5,0,1.5,0,2.2c-1.2,0-1-2.2-2-2.8c-0.7,0.3-0.1,1.9-0.6,2.3c-0.9-0.5-0.6-2.3-1.4-2.9c-0.3,0.5-0.2,1.5-0.3,2.2
	c-1-0.2-0.6-1.9-1.2-2.6c-1.1,0.4-0.5,1.8-0.5,3c-1.1,0-0.6-1.6-1.4-1.8c-0.8,0.5-0.1,1.8-0.2,2.8c-1.1,0.1-0.7-1.2-1.3-1.5
	c-0.6,0.4-0.3,1.6-0.5,2.3c-1.3-0.7-0.4-4-2.9-3.2c-0.1,0.3-0.2,0.7-0.3,1.1c-0.1,0.4,0.2,1-0.2,1.1c-0.9-0.3-0.2-2.3-1.3-2.4
	c-0.8,0.2-0.5,1.5-1.1,1.8c-0.8-0.5-0.3-2.3-1.6-2c-0.2,0-0.3,0.1-0.5,0.4c-0.1,0.5,0.1,0.9,0.1,1.3c-0.8-0.3-0.9-1.5-1.2-2.6
	c-0.3-1-0.7-2-0.8-3C11,82.3,11.9,80.6,13.1,79.8z"/>
</svg>
