<?xml version="1.0" encoding="utf-8"?>
<!-- Generator: Adobe Illustrator 23.1.1, SVG Export Plug-In . SVG Version: 6.00 Build 0)  -->
<svg version="1.1" id="Layer_1" xmlns="http://www.w3.org/2000/svg" xmlns:xlink="http://www.w3.org/1999/xlink" x="0px" y="0px"
	 viewBox="0 0 100 100" style="enable-background:new 0 0 100 100;" xml:space="preserve">
<path d="M81.2,87.6c-3,0-6,0-9,0c-2,0-3.5-0.8-4.7-2.5c-2.2-3.3-4.5-6.7-6.8-10c-0.4-0.6-1.2-1.2-1.9-1.5
	c-13.2-4.5-26.3-8.9-39.5-13.4c-2-0.7-3.6-1.8-4.8-3.6C10,49.8,5.4,42.9,0.8,36c-1.5-2.2-1-5.1,1.2-6.7c2.1-1.6,5.1-1.2,6.7,1
	c4.5,5.9,9,11.9,13.5,17.8c0.4,0.6,1.2,1.1,1.9,1.3c12.5,3.2,24.9,6.4,37.4,9.6c2.6,0.7,4.4,2.1,5.6,4.5c2.4,4.5,5,8.9,7.5,13.4
	c0.2,0.4,0.8,0.8,1.3,0.8c4.9,0.3,9.7,0.6,14.6,0.9c2.9,0.2,4.9,2,4.9,4.6c-0.1,2.6-2.2,4.4-5.1,4.4C87.3,87.6,84.3,87.5,81.2,87.6
	C81.2,87.6,81.2,87.6,81.2,87.6z M9.2,16C7,17.5,4.7,18.8,2,18.9c-1.1,0.1-2,0.6-1.9,1.8c0.1,1.3,1.1,1.6,2.2,1.6
	c3,0.1,5.8-0.6,8.4-2.1c4.8-2.7,9.3-2.3,13.9,0.6c6.1,3.9,12.5,4,18.8,0.3c4.5-2.6,8.8-2.6,13.3,0c6.4,3.7,12.7,3.6,18.9-0.4
	c4.5-2.9,9-3.2,13.7-0.6c2.6,1.4,5.3,2.2,8.3,2.1c1.6,0,2.3-0.5,2.4-1.6c0-1.4-0.9-1.8-2-1.9c-2.4-0.2-4.4-1.2-6.4-2.5
	c-6-4-12.2-4.3-18.5-0.8c-4.5,2.5-8.9,2.6-13.4-0.2c-6.3-3.9-12.8-3.9-19.2,0c-4.5,2.8-8.9,2.8-13.4,0.2c-2.4-1.4-5-2.3-6.9-2.3
	C15.7,13.1,12.3,13.9,9.2,16z M83.8,75c5.3-0.1,9.7-4.5,9.6-9.8c-0.1-5.4-4.5-9.6-9.9-9.5c-5.3,0.1-9.5,4.5-9.4,9.8
	C74.2,70.8,78.5,75.1,83.8,75z"/>
</svg>
