<?xml version="1.0" encoding="utf-8"?>
<!-- Generator: Adobe Illustrator 23.1.1, SVG Export Plug-In . SVG Version: 6.00 Build 0)  -->
<svg version="1.1" id="Layer_1" xmlns="http://www.w3.org/2000/svg" xmlns:xlink="http://www.w3.org/1999/xlink" x="0px" y="0px"
	 viewBox="0 0 300 100" style="enable-background:new 0 0 300 100;" xml:space="preserve">
<path d="M176.9,50c0-14.8-12.1-26.9-26.9-26.9S123.1,35.2,123.1,50s12.1,26.9,26.9,26.9S176.9,64.8,176.9,50z M177.6,26.7
	c0.5-0.2,1.4-0.4,1.9-0.9c2.1-2,4.2-4,6.1-6.1c1.3-1.5,1.1-3.7-0.3-5.1c-1.4-1.3-3.6-1.5-5-0.2c-2.1,1.9-4.1,3.9-6,6
	c-1.1,1.1-1.2,2.6-0.5,4C174.4,25.9,175.6,26.5,177.6,26.7z M126.7,77.6c-0.2-2.1-0.9-3.3-2.4-3.9s-2.9-0.4-4.1,0.8
	c-1.9,1.8-3.7,3.6-5.5,5.5c-1.5,1.6-1.5,3.9,0,5.4s3.8,1.5,5.4,0c1.9-1.8,3.7-3.6,5.5-5.5C126.2,79.1,126.4,78.1,126.7,77.6z
	 M182.2,86.5c2.1-0.2,3.3-0.9,4-2.4s0.4-2.9-0.8-4.1c-1.8-1.9-3.6-3.7-5.5-5.5c-1.6-1.5-3.9-1.5-5.4,0c-1.6,1.5-1.6,3.8,0,5.5
	c1.7,1.8,3.5,3.6,5.4,5.3C180.6,85.9,181.7,86.2,182.2,86.5z M126.7,22.4c-0.2-0.5-0.4-1.4-0.9-1.9c-1.9-2.1-3.9-4.1-6-6
	c-1.5-1.4-3.7-1.1-5.1,0.3c-1.4,1.4-1.6,3.6-0.2,5c1.9,2.1,3.9,4.1,6,6c1.1,1.1,2.6,1.2,4,0.5C125.9,25.6,126.5,24.3,126.7,22.4z
	 M200,51c-1,2.2-2.7,3-5.1,2.9c-2.1-0.1-4.1,0-6.2,0c-2.4,0-4.1-1.6-4.1-3.8s1.7-3.8,4.1-3.8c2.1,0,4.2,0.1,6.2,0
	c2.4-0.3,4.1,0.5,5.1,2.7C200,49.7,200,50.3,200,51z M149,100c-2.2-1-3-2.7-2.9-5.1c0.1-2.1,0-4.1,0-6.2c0-2.4,1.6-4.1,3.8-4.1
	c2.2,0,3.8,1.7,3.8,4.1c0,2.1-0.1,4.2,0,6.2c0.3,2.4-0.5,4.1-2.7,5.1C150.3,100,149.7,100,149,100z M100,49c1-2.2,2.7-3,5.1-2.9
	c2.1,0.1,4.1,0,6.2,0c2.3,0,4,1.6,4,3.8s-1.7,3.8-4.1,3.8c-2.1,0-4.2-0.1-6.2,0c-2.3,0.3-4-0.5-5-2.7C100,50.3,100,49.7,100,49z
	 M151,0c2.2,1,3,2.7,2.9,5.1c-0.1,2.1,0,4.1,0,6.2c0,2.3-1.7,4.1-3.8,4c-2.2,0-3.8-1.7-3.8-4.1c0-2.1,0.1-4.2,0-6.2
	c-0.3-2.3,0.5-4,2.7-5C149.7,0,150.3,0,151,0z"/>
<path d="M270.6,54.7c0,0.2,0,0.3,0,0.4c0,6.4,0,12.8,0,19.2c0,0.3-0.1,0.4-0.3,0.5c-5.9,2.5-11.8,5-17.7,7.4
	c-0.1,0.1-0.2,0.1-0.4,0.2c0-0.2,0-0.3,0-0.4c0-6.4,0-12.8,0-19.2c0-0.3,0.1-0.4,0.3-0.5c5.9-2.5,11.8-5,17.7-7.5
	C270.4,54.8,270.5,54.8,270.6,54.7z M226.9,52.2c0.1-1.2,0.2-2.4,0.6-3.5c1.3-4.3,3.5-7.8,7-10.6c1.4-1.1,3-2,4.8-2.3
	c0.9-0.2,1.7-0.1,2.5,0.2c4.4,1.5,8.8,3,13.3,4.5c0.1,0.1,0.3,0.1,0.3,0.1c-1,0.6-2.1,1.1-3.1,1.8c-3.4,2.5-5.8,5.7-7.4,9.5
	c-0.8,1.8-1.3,3.7-1.5,5.7c0,0.1-0.1,0.2-0.1,0.4C237.9,55.9,232.4,54.1,226.9,52.2z M240.3,71.4c0-4.2,0-8.4,0-12.5
	c0.2,0.1,0.3,0.1,0.4,0.1c0.8,0.3,1.7,0.6,2.5,0.8c0.2,0.1,0.3,0.2,0.3,0.4c0,6.5,0,13,0,19.4c0,0.1,0,0.1,0,0.2
	c-0.7-0.3-1.4-0.5-2.1-0.7c-4.7-1.7-9.4-3.3-14.1-4.9c-0.3-0.1-0.4-0.2-0.4-0.5c0-6.4,0-12.7,0-19c0-0.1,0-0.3,0-0.4
	c0.9,0.3,1.8,0.6,2.7,0.9c0.1,0,0.1,0.2,0.1,0.3c0,1,0,2,0,3c0,3.1,0,6.1,0,9.1c0,0.2,0,0.3,0.3,0.4c3.4,1.2,6.9,2.3,10.3,3.5
	C240.2,71.4,240.2,71.4,240.3,71.4z M252.2,60.3c0.1-0.7,0.2-1.3,0.3-1.9c1.1-4.8,3.5-8.8,7.4-11.8c1.4-1.1,2.9-1.9,4.6-2.2
	c2.5-0.5,4.3,0.5,5.3,2.9c0.7,1.6,0.9,3.4,0.9,5.1c0,0.2-0.1,0.3-0.3,0.3c-5.4,2.3-10.8,4.6-16.2,6.9
	C253.5,59.8,252.9,60,252.2,60.3z M262.4,43c-1.6,0.6-2.9,1.4-4.1,2.3c-3.6,2.9-6.1,6.6-7.4,11c-0.4,1.2-0.5,2.4-0.7,3.6
	c0,0.1,0,0.1-0.1,0.2c-1.6-0.6-3.3-1.1-4.9-1.7c0.2-1,0.2-1.9,0.5-2.9c0.9-3.7,2.7-6.8,5.2-9.5c1.6-1.6,3.3-2.9,5.4-3.7
	c0.9-0.4,1.9-0.6,2.9-0.5c0.1,0,0.2,0,0.3,0.1C260.5,42.4,261.4,42.7,262.4,43z M250.2,82.2c-1.1-0.4-2.2-0.8-3.3-1.1
	c-0.5-0.2-0.9-0.3-1.3-0.5c-0.3-0.1-0.4-0.2-0.4-0.5c0-4.3,0-8.6,0-13c0-2.1,0-4.2,0-6.3c0-0.1,0-0.3,0-0.4c0.6,0.2,1.1,0.4,1.6,0.6
	c1,0.4,2.1,0.7,3.1,1.1c0.2,0.1,0.3,0.1,0.3,0.3c0,6.6,0,13.1,0,19.6C250.3,82.1,250.3,82.1,250.2,82.2z M237,34.5
	c-0.9,0.5-1.8,0.9-2.7,1.5c-3,2-5.2,4.7-6.9,7.8c-1.2,2.2-2,4.5-2.3,7c-0.1,0.2-0.1,0.4-0.1,0.5c0,0.1-0.1,0.3-0.1,0.4
	c-0.1-0.1-0.2-0.1-0.3-0.1c-1.3-0.4-2.5-0.9-3.8-1.3c-0.2-0.1-0.3-0.2-0.3-0.4c0.1-2.1,0.7-4.1,1.6-6c1.3-2.9,3.1-5.4,5.5-7.4
	c1.5-1.2,3.1-2.2,5-2.6c1-0.2,2-0.3,3,0.2C236.1,34.2,236.6,34.3,237,34.5z M224.9,73.4c-0.8-0.3-1.5-0.5-2.2-0.8
	c-0.6-0.2-1.3-0.5-1.9-0.7c-0.2-0.1-0.3-0.2-0.3-0.4c0-0.2,0-0.3,0-0.4c0-6.2,0-12.4,0-18.6c0-0.2,0-0.3,0-0.5
	c0.4,0.2,0.7,0.3,1.1,0.4c1,0.4,2.1,0.7,3.1,1.1c0.2,0.1,0.3,0.1,0.3,0.3c0,6.5,0,12.9,0,19.4C225,73.3,225,73.3,224.9,73.4z
	 M238.4,58.2c0,3.5,0,7,0,10.5c-0.4-0.1-0.8-0.3-1.1-0.4c-1.8-0.6-3.6-1.2-5.4-1.8c-0.2-0.1-0.3-0.2-0.3-0.4c0-3.4,0-6.7,0-10.1
	c0-0.1,0-0.1,0-0.2C233.9,56.7,236.1,57.4,238.4,58.2z M235.9,65.3c0-0.9,0-1.8,0-2.7c0-0.2,0.1-0.4,0.2-0.5
	c0.6-0.6,0.9-1.4,0.6-2.1c-0.3-0.8-1-1.2-1.7-1.2s-1.5,0.5-1.7,1.2c-0.3,0.7-0.2,1.6,0.5,2.1c0.2,0.2,0.3,0.4,0.3,0.6
	c0,0.6,0,1.2,0,1.8c0,0.3,0,0.6,0,0.9C234.6,65.3,235.2,65.3,235.9,65.3z"/>
<g>
	<path d="M75.7,38.2c0,1,0,1.9,0,2.9c0,1.4,0,2.8,0.1,4.1c0,0.2,0,0.3-0.3,0.3c-4,0.3-8,0.5-12,0.8c-1.5,0.1-3,0.2-4.5,0.3
		c5.1,0.1,10.2,0.3,15.4,0.4c0.3,3.8,0.7,7.6,1,11.4c-5.2,0.3-10.3,0.7-15.5,1c0,0,0,0,0,0c5.2,0.1,10.4,0.3,15.6,0.4
		c0.2,2.4,0.4,4.8,0.6,7.2c-16.4,0.4-32.8,0.7-49.2,1.1c0.3-2.9,0.6-5.8,0.9-8.7c-0.4-0.1-0.7-0.2-1.1-0.3c0.1-3.8,0.2-7.5,0.3-11.3
		c5.5-0.4,11-0.7,16.4-1.1c0,0,0,0,0-0.1c-5.7-0.2-11.4-0.3-17.1-0.5c-0.1-2.4-0.1-4.7-0.2-7.1C42.6,38.9,59.1,38.6,75.7,38.2z"/>
	<path d="M47.1,69.9c2.3,0,4.6-0.1,6.9-0.1c0.1,4.9,0.3,9.7,0.4,14.6c-2.3,0-4.5,0-6.9,0C47.4,79.6,47.3,74.8,47.1,69.9z"/>
	<path d="M53,36.6c-2.2,0-4.5,0.1-6.8,0.1c0-0.8,0-1.5,0-2.2c0-0.3,0-0.6,0-0.9c-0.1-0.6,0.2-1,0.7-1.2c0.6-0.3,1.3-0.5,1.9-0.7
		c1-0.2,2.1-0.2,3.1,0.2c0.2,0.1,0.5,0.2,0.7,0.3s0.4,0.4,0.4,0.6C53,34.1,53,35.3,53,36.6z"/>
</g>
</svg>
