<?xml version="1.0" encoding="utf-8"?>
<!-- Generator: Adobe Illustrator 22.1.0, SVG Export Plug-In . SVG Version: 6.00 Build 0)  -->
<svg version="1.1" id="Layer_1" xmlns="http://www.w3.org/2000/svg" xmlns:xlink="http://www.w3.org/1999/xlink" x="0px" y="0px"
	 viewBox="0 0 150 100" style="enable-background:new 0 0 150 100;" xml:space="preserve">
<g>
	<path d="M74.6,9C74.6,9,74.6,9.1,74.6,9c-0.3,0.1-0.6,0-1,0c-0.5,0-0.6,0.1-0.5,0.6c0,0.4-0.2,0.8-0.7,0.9c-0.1,0-0.3,0-0.4,0
		c-0.3,0.1-0.6,0.2-0.7,0.3c-0.1,0.1,0.1,0.5,0.3,0.7c0.4,0.6,0.4,0.9-0.1,1.3c-0.6,0.7-1.4,1-2.3,1.3c-2.5,0.7-4.7,2.1-6.7,3.7
		c-0.7,0.5-0.7,0.7-0.4,1.5c0.3,0.9,0.6,1.9,0,2.9c-0.4,0.6-0.5,1.2,0.1,1.8c0.3,0.3,0.3,0.6,0.1,1c-0.3,0.6-0.5,1.2-0.7,1.9
		c-0.1,0.4-0.2,0.7-0.2,1.1c-0.1,0.8,0,1.7-0.1,2.6c-0.1,1-0.1,1.9-0.3,2.9c-0.2,0.9-0.6,1.7-1,2.6c-0.2,0.5-0.2,1,0,1.5
		c0.1,0.2,0.2,0.4,0.3,0.6c0.3,0.6,0.6,1.2,0.8,1.9c0.2,0.9,0.3,1.9,0.5,2.8c0.5,2.3,1,4.5,1.5,6.8c0.1,0.2,0.1,0.5,0.1,0.7
		c-0.5-0.1-0.8-0.7-1.3-0.5c0-0.1-0.1-0.2-0.1-0.3c-0.8-0.5-1.6-1-2.4-1.6c-0.5-0.3-1-0.6-1.4-1c-0.6-0.5-1.1-1.1-1.6-1.6
		c-0.1-0.1-0.3-0.2-0.4-0.1c-0.6,0.1-1.2,0.2-1.8,0.3c-0.2,0-0.3,0.1-0.2,0.4c0.1,0.4,0.2,0.8,0.3,1.3c0,0.3,0.2,0.4,0.5,0.5
		c1.5,0.6,3,1.1,4.3,2c1.5,1.1,3.1,2.1,4.7,3.2c0.3,0.2,0.5,0.5,0.5,0.9c0,0.5,0.1,0.9,0.2,1.4c0.1,0.7,0.5,1,1.1,1.1
		c0.2,0.1,0.4,0.1,0.7,0.2c0,0.1-0.1,0.2-0.1,0.3c-1,2.9-2.1,5.9-3.1,8.8c-0.3,0.8-0.1,1.4,0.4,2.1c0.1,0.2,0.3,0.3,0.4,0.5
		c0.1,0.1,0.2,0.3,0.2,0.5c0,0.3,0.3,0.6,0.1,1c0,0.1,0.1,0.2,0.1,0.3c0,0.1,0.1,0.2,0.1,0.3c-0.1,0.7-0.1,1.3-0.2,2
		c-0.1,0.4-0.2,0.9-0.1,1.3c0,0.6,0.2,1.2,0.3,1.8c0,0.3,0.1,0.6,0,0.9c-0.4,1.4-0.5,2.8-0.1,4.2c0.4,1.8,0.7,3.7,0.7,5.6
		c0,0.7,0,1.4-0.1,2.1c-0.1,0.7,0.2,1.4,0,2c0,0.1,0,0.2,0,0.3c0.1,0.5-0.2,1,0,1.5c0,0,0,0.1,0,0.1c-0.1,0.4-0.2,0.7-0.3,1.1
		c-0.1,0.5-0.2,0.9-0.3,1.4c0,0.3-0.1,0.6,0,0.9c0.2,0.4,0.2,0.7,0.2,1.1c0,0.5-0.1,1.1,0.1,1.6c0.3,1.2,1.4,2.2,2.7,2.2
		c0.6,0,1.2,0,1.7,0c0.6,0,1.2-0.2,1.6-0.7c0.6-0.6,0.6-1.5,0.2-2.3c-0.2-0.4-0.4-0.8-0.7-1.2c-0.1-0.3-0.1-0.5,0.1-0.7
		c0.3-0.2,0.3-0.5,0.2-0.8c-0.1-1-0.3-2-0.3-2.9c0-2.4,0.3-4.7,0.9-7c0.5-1.6,0.9-3.3,1.3-4.9c0.2-0.6,0.5-1.2,0.4-1.9
		c0-0.1,0.2-0.2,0.3-0.3c0.3-0.2,0.7-0.4,1-0.6c0.5-0.3,0.8-0.6,0.7-1.2c0-0.2,0-0.4,0.1-0.6c0.4-0.7,0.8-1.3,1.2-1.9
		c0-0.1,0.3-0.1,0.4-0.1c0.5,0.2,1,0.4,1.5,0.6c0.2,0.1,0.4,0.1,0.7,0c0.5-0.2,1-0.4,1.5-0.6c0.2-0.1,0.4,0,0.5,0.2
		c0.4,0.6,0.5,1.3,0.4,2c-0.1,1-0.1,2-0.1,3c0,0.3,0.1,0.5,0.4,0.6c0.3,0.2,0.6,1,0.5,1.3c-0.1,0.3-0.3,0.7-0.4,1
		c-0.3,0.6-0.3,1.1,0.2,1.6c0.2,0.2,0.3,0.5,0.4,0.8c0.2,0.4,0.3,0.8,0.5,1.2c0.7,1.3,0.9,2.6,0.6,4c0,0.2,0,0.4,0,0.5
		c0,1.5,0,3,0.1,4.5c0,0.2,0.1,0.4,0.2,0.6c0.1,0.1,0.3,0.2,0.5,0.3c0.1,0,0.2-0.2,0.3-0.3c0.2-0.2,0.4-0.3,0.7,0
		c-0.1,0-0.1,0-0.1,0.1c-0.1,0.1-0.2,0.1-0.3,0.2c0.1,0.1,0.2,0.2,0.3,0.2c0.2,0.1,0.4,0.1,0.6,0.1c0.5,0.1,1,0,1.3,0.2
		c1,0.6,2,0.9,3.1,1.1c1.5,0.3,2.9,0.6,4.4,0.5c1.5-0.1,1.9-0.8,2.1-2.3c0-0.5-0.2-0.7-0.7-0.9c-1-0.3-2-0.6-3-0.9
		c-0.4-0.1-0.8-0.3-1.1-0.8c-0.2-0.4-0.5-0.9-0.8-1.3c-0.1-0.2-0.3-0.5-0.4-0.7c-0.5-1.1-0.8-2.3-0.9-3.5c-0.2-2.4-0.1-4.7,0.3-7.1
		c0-0.1,0-0.2,0.1-0.3c0.5-0.6,0.5-1.1,0.1-1.8c-0.1-0.1-0.1-0.3-0.1-0.4c0.6-1.6,1-3.3,1.2-5.1c0-0.1,0.1-0.3,0.1-0.4
		c0.8,0.5,1.5,1,2.2,1.4c1.5,0.9,3,1.9,4.5,2.8c1.5,1,3,1.8,4.5,2.8c0.5,0.4,1.1,0.7,1.6,1c1.6,1,3.1,2,4.7,3c0.7,0.4,1.3,0.9,2,1.1
		c1,0.4,2.1,0.6,3.2,0.8c0.1,0,0.3,0.1,0.5,0.1c-0.1-0.2-0.1-0.2-0.1-0.3c-0.6-0.8-1.2-1.6-1.9-2.4c-0.3-0.3-0.5-0.7-0.9-0.9
		c-1.5-1-3.1-2-4.6-3c-0.4-0.3-0.8-0.5-1.4-0.8c-0.1-0.3-1-0.8-1.5-0.8c-0.2-0.2-0.3-0.4-0.5-0.5c-1-0.7-2-1.3-3.1-2
		c-2.6-1.6-5.1-3.3-7.7-4.9c-0.1-0.1-0.2-0.2-0.2-0.3c0-0.6,0-1.3,0-1.9c-0.2-2.4-0.5-4.9-0.7-7.3c-0.2-1.9-0.5-3.8-0.7-5.7
		c-0.3-2.2-0.6-4.4-0.9-6.7c-0.1-0.9,0-1.9-0.4-2.8c-0.1-0.2,0-0.6,0.2-0.8c0.3-0.4,0.3-0.8,0.1-1.2c-0.2-0.7-0.5-1.3-0.6-2
		c-0.1-0.4-0.1-0.9-0.1-1.4c0,0,0.1,0,0.1,0c0.1,0.3,0.3,0.5,0.4,0.8c0.8,1.4,1.2,2.9,1.2,4.5c0,1.3,0.1,2.7,0.3,4
		c0.1,0.5,0.3,1,0.6,1.3c0.5,0.5,0.8,1,0.7,1.7c-0.1,0.7,0,1.4,0,2.1c0,0.1,0.1,0.3,0.2,0.3c0.2,0.1,0.4,0.3,0.4,0.6
		c0,0.2,0.1,0.4,0.2,0.6c0.2-0.1,0.4-0.2,0.6-0.3c0,0,0,0,0.1,0c0,0,0,0.1,0,0.1c0.1,0.2,0.2,0.4,0.3,0.4c0.2,0,0.4-0.1,0.5-0.3
		c0.3-0.3,0.5-0.7,0.8-1c0.7-0.9,0.9-1.9,0.6-2.9c-0.1-0.6-0.3-1.1-0.4-1.7c-0.1-0.6-0.2-1.3-0.4-1.9c-0.7-1.7-0.9-3.5-1.3-5.3
		c-0.2-1-0.4-2-0.7-3c-0.1-0.4-0.4-0.8-0.4-1.2c-0.3-1.6-0.5-3.3-1.6-4.6c-0.4-0.5-0.4-1-0.2-1.6c0.1-0.3,0.2-0.5,0.2-0.8
		c0-1.6,0.1-3.2,0.1-4.7c0-0.4,0-0.9-0.1-1.3c0-0.4-0.1-0.8-0.2-1.2c-0.2-0.5,0-0.8,0.4-1.2c0.8-0.7,0.9-1.2,0.3-2.1
		c-1-1.5-2.3-2.5-3.8-3.4c-0.5-0.3-1.1-0.7-1.6-1.1c-0.2-0.2-0.3-0.5,0.1-0.6c0.3-0.2,0.3-0.4,0.2-0.7c-0.2-0.4-0.2-0.8,0.1-1.1
		c0,0,0-0.1,0.1-0.1c0.3-0.5,0.3-0.6-0.1-0.9c-0.2-0.2-0.4-0.4-0.5-0.6c-0.4-0.7-1.1-1.2-1.9-1.4c-0.3-0.1-0.3-0.3-0.1-0.5
		c0.3-0.5,0.6-1,1-1.5c0.2,0.2,0.5,0.5,1,0.3c-0.2-0.3-0.4-0.6-0.5-0.9c-0.1-0.3-0.2-0.6,0.2-0.9c0.1-0.1,0.1-0.3,0.1-0.4
		C86,5.1,85.6,4.1,85.2,3C84,0.1,81-0.5,78.6,0.5c-2,0.8-2.9,2.5-3.5,4.4c-0.2,0.6-0.3,1.3-1.2,1.3c0,0,0,0.1,0,0.1
		c0.3,0.2,0.6,0.4,0.8,0.6c0,0.3,0,0.5,0.1,0.7C74.8,7.9,75,8.2,75,8.5c0,0.1-0.1,0.2-0.1,0.3C74.8,8.8,74.7,8.9,74.6,9z"/>
</g>
<path d="M39.3,5.2c0,0.2-0.1,0.3-0.2,0.3c-0.1,0-0.2,0.1-0.2,0.3c0,0.2-0.2,0.5-0.2,0.6l-0.2,0.3l-0.4-0.3c-0.3-0.2-0.4-0.3-0.6-0.1
	c-0.1,0.1-0.1,0.3,0.1,0.7c0.2,0.4,0.2,0.5,0,0.9c-0.1,0.2-0.2,0.5-0.1,0.7c0.1,0.2-0.8,2.5-1,2.7c0,0-0.1-0.1,0-0.3
	c0.1-0.6,0-0.6-0.3-0.3C36,10.8,35.8,11,35.7,11c-0.2,0-0.8,1.3-1,2l-0.1,0.5L34.5,13c-0.3-1-1.2-2.7-1.8-3.4c-0.8-0.9-1-1-3.2-1.2
	c-0.8-0.1-1.3,0.1-2,0.5c-0.4,0.3-0.8,0.5-1,0.5c-0.9,0.2-2.4,1.8-2.9,3.1c-0.2,0.4-0.4,1.4-0.5,2.2c-0.1,0.9-0.3,1.6-0.5,1.8
	c-0.1,0.2-0.5,0.8-0.7,1.3c-0.4,0.8-2.2,2.8-2.3,2.6c-0.1-0.1,3.1-9.8,3.2-10c0.1-0.1,0.2-0.4,0.3-0.7c0-0.2,0.2-0.5,0.3-0.7
	c0.4-0.4,0.3-0.5-0.2-0.2l-0.4,0.3l0-0.3c0-0.2,0-0.3-0.2-0.4c-0.3-0.1-1,1-1,1.6c-0.1,0.8-0.6,1.2-3.2,2.1
	c-4.2,1.5-6.7,2.9-8.7,4.9c-2.6,2.7-3,3.1-4,5.1c-0.5,1.1-1.1,2.3-1.3,2.7c-0.2,0.4-0.4,1.1-0.6,1.4c-0.3,0.7-0.7,2.2-0.6,2.6
	c0,0.1,0,0.7-0.2,1.3c-0.2,1-0.3,1.1-0.7,1.2c-0.3,0.1-0.6,0.3-0.9,0.7c-0.4,0.5-0.5,0.8-0.7,1.7l-0.2,1.1l0.5,0.6
	c0.3,0.3,0.6,0.6,0.7,0.6c0.2,0.1,0.3,0.4,0.4,1.5c0.2,1.6,0.4,2.4,0.7,2.9c0.1,0.2,0.4,0.8,0.7,1.3c0.8,1.5,1.9,2.4,4.5,3.7
	c1.9,0.9,2.1,1.1,2,1.3c-0.1,0.3-0.1,0.9,0,1c0,0,0.2,0,0.3-0.1c0.1-0.1,0.3-0.1,0.4-0.1c0.1,0.1,0.2-0.1,0.2-0.5
	c0-0.3,1.1-3.8,2.4-7.9l2.4-7.3l2.8-2c1.5-1.1,3-2.2,3.3-2.4c0.3-0.3,0.6-0.4,0.7-0.3c0.4,0.4,0.9,4.9,0.6,5.4
	c-0.1,0.2-0.1,0.3,0.1,0.3c0.1,0.1,0.3,0.7,0.4,1.5c0.2,1.4,0.2,1.4-0.1,2.2l-0.3,0.7l0.4,1c0.2,0.5,0.5,1.1,0.7,1.2
	c0.3,0.2,0.3,0.3,0.2,1.4c-0.1,0.7-0.2,1.3-0.3,1.5c-0.1,0.2-0.1,0.3-0.1,0.5c0.2,0.3,0.2,1.5-0.1,2.1c-0.1,0.3-0.3,0.8-0.6,1
	c-0.5,0.6-2,1.6-3.5,2.4c-0.9,0.5-1.5,0.9-2.9,2.2c-3.9,3.7-4.8,4.3-10.3,6.4c-3.9,1.5-4.4,1.8-4.8,2.6c-0.1,0.2-0.3,1-0.4,1.8
	l-0.2,1.4l-0.6,0.4c-0.3,0.2-0.7,0.5-0.7,0.7c-0.2,0.3,0,0.6,1.5,2.2c0.5,0.6,0.8,1.1,1.4,2.6c0.4,1.1,0.9,2.4,1.1,2.9
	c0.5,1.4,2.5,4.8,4,6.5c1,1.2,2.8,2.7,5.3,4.3c2.1,1.4,2.1,1.4,2,1.8c-0.2,1.2-1.2,3.7-1.4,3.5c-0.2-0.2-0.6,0.6-0.6,1.3
	c0,0.8,0.5,2,1,2.3c0.2,0.1,0.5,0.1,1-0.1c1.3-0.4,1.8-1,1.9-2.3c0-0.3,0.1-0.5,0.3-0.6c0.1,0,0.3-0.3,0.3-0.5
	c0.3-1.3,0.2-1.3,0.9-0.3c0.7,1,1.4,1.6,2.5,2.1c1.1,0.4,3.4,0.9,5.1,1.1c1.5,0.2,2.4,0.4,3.7,1c1.3,0.7,1.6,0.6,4.4-0.8
	c3.1-1.6,4.4-2,7-2.5c1.3-0.3,2.1-0.6,2.3-1c0.2-0.4,0.1-1.5-0.1-2.1c-0.1-0.3-1-2.3-2-4.4c-1.8-3.9-3.8-8.5-4.4-9.9
	c-0.2-0.6-0.3-0.9-0.2-1.8c0.1-0.6,0-1-0.1-1.1c-0.1,0-0.1,0-0.2,0.1c0,0.1-0.1,0-0.1-0.2c-0.2-0.6-0.1-2.8,0.1-3.8
	c0.1-0.5,0.3-1.5,0.4-2.2c0.4-2.2,0.3-2,0.8-1.9c0.8,0.1,1.3,0.8,2,2.3c0.8,1.8,1.1,2.3,1.7,2.6c0.7,0.3,1,0.3,2-0.1
	c1.2-0.5,1.3-0.5,2.3,0.5c0.7,0.7,1,1,1.9,1.3c1.4,0.6,1.9,0.9,2.5,1.9c0.6,0.9,0.6,0.9,1.7,0.7c0.6-0.2,0.7-0.1,2.9,0.3
	c0.9,0.2,0.9,0.2,0.6,0c-0.2-0.2-1.2-0.8-2.2-1.5c-2.2-1.4-5.4-3.7-6.1-4.5c-0.5-0.5-2.6-2.9-3.3-3.8c-0.7-0.9-1.2-2-2.1-4.9
	c-0.6-1.8-1-3.3-1.3-4.9c-0.7-4.1-1-5.2-1.7-6.5c-0.4-0.6-0.8-1.3-1-1.4c-0.3-0.2-1.1-1.4-1.4-2.1c-0.1-0.1-0.4-0.5-0.7-0.9
	c-0.3-0.3-0.7-0.8-0.8-1.1c-0.3-1,0.1-4.4,0.7-4.7c0.1-0.1,0.2-0.2,0.1-0.3c0-0.1,0.1-0.5,0.3-0.8c0.7-1.1,1-2.3,0.7-3.4
	c-0.1-0.3-0.2-0.7-0.2-0.8c-0.1-0.2,0.4-1.1,1.5-2.9c1.5-2.6,2.4-4,3.5-5.1c0.7-0.7,1.6-2.1,2.4-3.4c0.3-0.6,1-1.6,1.5-2.2
	c1.4-1.8,1.7-2.6,1.3-3.4c-0.2-0.4-0.2-0.6,0-1.2l0.2-0.7l-0.6-0.6c-0.3-0.4-0.7-0.8-0.7-1c-0.1-0.2-0.4-0.7-0.8-1
	C44.3,6.8,44,6.5,44,6.3c0-0.4-0.4-1-0.7-1.2C43.1,5,42.2,5,41.2,4.9l-1.8,0L39.3,5.2z M43.7,6.2c0,0.3,0,0.3-0.1,0.1
	c-0.2-0.3-0.2-0.6,0-0.5C43.7,5.8,43.7,6,43.7,6.2z M39.2,7.2c0.1,0.1,0.2,0.2,0.1,0.2c-0.1,0-0.3-0.1-0.4-0.2
	C38.8,7.1,38.7,7,38.8,7C38.9,7,39.1,7.1,39.2,7.2z M41.5,8.8c0,0.3,0.1,0.7,0.3,0.9c0.2,0.2,0.3,0.8,0.4,1.2
	c0.1,0.4,0.2,0.9,0.4,1.2l0.3,0.4L42.4,13c-1.4,1.3-2,1.9-2.9,3.2c-1.1,1.6-2,2.6-2.6,3l-0.4,0.3l0.3-0.5c0.2-0.3,0.5-0.8,0.7-1.2
	c0.2-0.3,0.8-1,1.2-1.4c0.9-0.8,1.4-1.7,1.3-2.1c0-0.2,0-0.4,0.1-0.5c0.2-0.3-0.1-0.5-0.3-0.2c-0.1,0.1-0.3,0.2-0.4,0.2
	c-0.1,0-0.4,0.1-0.5,0.3c-0.4,0.4-1,1.7-1.1,2.3c-0.1,0.4-1.9,3.4-2.3,3.9c-0.1,0.1-0.2,0-0.2-0.6c0-0.7,0-0.9,0.4-1.6
	c0.3-0.4,0.8-1.1,1.1-1.4c0.9-0.9,1.3-1.6,1.3-2.4c0-0.7,0-0.7-0.2-0.5c-0.4,0.4-0.5,0.2-0.5-0.7c0-0.5,0-0.9-0.1-0.9
	c-0.1,0-0.1,0.1-0.2,0.2c0,0.1-0.3,0.2-0.5,0.3l-0.4,0.2l0.6-1.5c0.3-0.8,0.7-1.7,0.8-2l0.2-0.5l1.5,0c1.3,0,1.5,0,1.7-0.3
	c0.1-0.2,0.3-0.3,0.3-0.3C41.4,8.3,41.5,8.6,41.5,8.8z M21.8,12.5c-0.3,0.8-1.4,4.3-2.5,7.9c-1.1,3.5-2.1,6.5-2.3,6.7
	c-0.2,0.2-0.9,0.8-4.5,3.3c-1.1,0.8-1.1,0.8-1.8,0.7C10,31,9.8,31,8.5,31.6c-0.2,0.1-0.4,0.2-0.5,0.2c-0.1,0,0-0.1,0.1-0.3
	c0.4-0.4,0-0.4-0.9,0.1c-0.6,0.3-0.9,0.4-1.3,0.3c-0.4-0.1-1.4-0.3-1.7-0.4c-0.1,0,0.5-2.2,0.8-2.9c0.2-0.4,0.3-1,0.3-1.4
	c0-1,1.1-3.4,2.2-4.9c0.5-0.7,1.1-1.9,1.1-2.2c0-0.3,1.5-2.1,2.4-3c1.8-1.6,4.4-3.1,7.7-4.4c2-0.8,2.9-1.2,3.2-1.7
	c0.1-0.2,0.3-0.3,0.3-0.3C22.3,11,22.1,11.7,21.8,12.5z M35.2,14.6C35,14.9,35,14.9,35,14.7c0-0.2,0.1-0.3,0.2-0.4
	C35.4,13.9,35.4,14.1,35.2,14.6z M35.3,15.5c0,0.3-0.1,0.5-0.2,0.4c0,0,0-0.3,0-0.6c0.1-0.3,0.1-0.5,0.2-0.4
	C35.4,15,35.3,15.2,35.3,15.5z M36,16.4c-0.1,0.4-0.3,1-0.5,1.3l-0.3,0.5v-0.7c0-0.4,0.1-0.9,0.2-1c0.1-0.3,0.7-0.8,0.8-0.8
	C36.2,15.6,36.1,16,36,16.4z M23.3,17.8c0,1-0.1,1.3-1.3,2.5c-0.8,0.8-1.1,1.3-1.4,2.1c-0.2,0.5-0.3,1.1-0.3,1.2
	c0.1,0.2-0.4,0.7-1.3,1.6c-0.8,0.8-1.4,1.3-1.3,1.2c0-0.1,0.3-1,0.7-2.1c0.6-1.8,0.6-1.9,0.8-1.5c0.2,0.5,0.3,0.5,0.2,0
	c-0.1-0.8,0.2-1.4,1.4-2.5c0.6-0.6,1.4-1.3,1.7-1.6c0.6-0.6,0.6-0.6,0.7-1.5C23,16.2,23.2,16.6,23.3,17.8z M24.9,19.1
	c-0.2,0.7-2.3,3.3-2.8,3.6c-0.5,0.3-0.8,0.3-0.8,0.1c0-0.1,0.1-0.2,0.2-0.1c0.1,0,0.2-0.1,0.2-0.2c0-0.1,0.1-0.3,0.3-0.4
	c0.3-0.2,0.3-0.2,0.1,0.1c-0.1,0.1,0.3-0.2,0.9-0.8c1.1-1.2,1.7-1.9,1.8-2.7c0.1-0.3,0.1-0.4,0.2-0.2C25.1,18.5,25,18.9,24.9,19.1z
	 M13.1,39.7c-1.2,3.9-2.3,7-2.3,7.1c0,0-0.2-0.1-0.3-0.3c-0.1-0.2-0.8-0.6-1.5-0.9c-0.7-0.3-1.7-0.9-2.1-1.2C5.3,43.3,4,41.6,4,40.5
	c0-0.3-0.1-1-0.3-1.5c-0.3-1.3-0.4-2.3-0.1-2.5c0.1-0.1,0.2-0.3,0.2-0.6l-0.1-0.4l0.6,0.1c0.3,0,0.9,0,1.3-0.1c0.5-0.1,0.7-0.1,1,0
	c0.5,0.3,3.7,0.2,4.1-0.2c0.2-0.1,0.6-0.3,0.9-0.4c0.7-0.2,1.3-0.6,2.5-1.6c0.5-0.4,0.9-0.7,0.9-0.7C15.3,32.6,14.3,35.8,13.1,39.7z
	"/>
<g>
	<defs>
		<path id="SVGID_1_" d="M140.7,52c-0.5,0.5-0.5,1.6,0.1,2c0.2,0.2,0.4,0.1,0.6,0.1c0.2,0,0.4,0,0.6,0.3
			C142,53.8,142.1,50.5,140.7,52 M146.1,51.6c-0.3-0.5-1.6-1-1.4,0c0.1,0.7,0.1,1.3,0.2,2C145.8,53.4,146.5,52.6,146.1,51.6
			 M137.2,50.1c0.2-0.1-0.5-2.6-0.6-2.8c-0.3-0.1-0.2,0.7-0.1,1.4C136.7,49.4,137,50.2,137.2,50.1C137.2,50.2,137.2,50.1,137.2,50.1
			 M138.8,47.4c0-0.2,0-0.3-0.1-0.2c0,0.1-0.1,0.2-0.1,0.3c0,0.1,0,0.1,0,0.1C138.7,47.6,138.7,47.5,138.8,47.4 M139.4,47.1
			C139.5,47,139.4,47,139.4,47.1C139.3,47.1,139.3,47.1,139.4,47.1C139.4,47.1,139.4,47.1,139.4,47.1 M120.6,47.2
			c0.1-0.1,0.1-0.3,0.1-0.4c0-0.2-0.1,0-0.1,0.2C120.5,47.1,120.5,47.2,120.6,47.2C120.5,47.2,120.6,47.2,120.6,47.2 M139.5,46.4
			C139.5,46.4,139.3,46.4,139.5,46.4c0,0.1,0,0.1,0,0.1C139.5,46.5,139.5,46.4,139.5,46.4 M140.7,45.4c0-0.1-0.1-0.2-0.1-0.1
			C140.6,45.4,140.7,45.4,140.7,45.4C140.7,45.4,140.7,45.4,140.7,45.4 M140.8,50c0.5-0.1,1.4-0.4,1.4-1c-0.1-0.7,0.2-3.7-0.7-3.8
			l-0.6,1.2c0,0.5-1.1,0.8-1.4,0.9c-0.1,0-0.1-0.1-0.1-0.2c-1-0.3-0.5,3.4-0.5,3.9c0,0,0,0,0,0C139.2,50.9,140.3,50.1,140.8,50
			 M139.3,44.6c-0.1,0.1-0.1,0.1-0.1,0.1C139.2,44.8,139.3,44.7,139.3,44.6 M138,43.7c-0.1-0.1-0.1-0.2-0.1-0.1c0,0.1,0,0.2,0.1,0.2
			c0,0,0,0,0.1,0C138.1,43.8,138.1,43.8,138,43.7 M138,43.3c0,0.1,0,0.1,0.1,0.1C138.1,43.4,138,43.3,138,43.3 M136.6,43
			c0,0.3,0.3,0.8,0.5,0.9C137.1,43.5,136.8,43.1,136.6,43 M120.5,38.3c0,0,0.3,1.7,0.3,2.1C120.9,39.6,121,39.1,120.5,38.3
			 M118.3,30.2L118.3,30.2C118.2,30.2,118.2,30.2,118.3,30.2C118.2,30.2,118.3,30.2,118.3,30.2 M116.2,25.7c0-0.1-0.1-0.1-0.2-0.2
			c-0.1,0.1-0.1,0.2-0.2,0.4C115.9,25.9,116.2,25.8,116.2,25.7 M116.4,25.1c-0.1,0.1-0.2,0.3-0.3,0.4c0,0.1,0,0.1,0,0.1
			C116.2,25.6,116.4,25.1,116.4,25.1 M116.6,20.1c-0.1,0.2-0.2,0.3-0.2,0.6C116.5,20.5,116.6,20.3,116.6,20.1 M131.9,19.3
			C131.8,19.3,131.9,19.6,131.9,19.3c0.1,0,0.1,0.1,0.2,0.1C132,19.2,132,19.2,131.9,19.3 M131.4,19.2
			C131.4,19.1,131.3,19.1,131.4,19.2C131.3,19.1,131.3,19.2,131.4,19.2C131.4,19.2,131.4,19.2,131.4,19.2 M132.6,19.2
			c0-0.1,0-0.2-0.1-0.1c-0.1,0.1-0.1,0.2,0,0.3c0,0,0,0,0,0C132.6,19.4,132.6,19.3,132.6,19.2 M131.6,19
			C131.6,19,131.6,19.1,131.6,19C131.6,19.1,131.6,19.1,131.6,19 M132,18.9C132,19,132,19,132,18.9C132,19,132,19,132,18.9
			 M131.9,18.9C131.9,18.9,131.8,18.9,131.9,18.9C131.8,18.9,131.9,18.9,131.9,18.9 M132.1,18.9c0-0.1,0-0.2,0-0.1
			c0,0.1,0,0.2,0,0.2c0,0,0,0,0,0C132.1,19,132.1,19,132.1,18.9 M132.6,18.7c-0.1,0.1-0.1,0.2,0.1,0.2
			C132.7,18.9,132.7,18.8,132.6,18.7 M131.8,18.6C131.8,18.6,131.8,18.7,131.8,18.6C131.8,18.7,131.8,18.7,131.8,18.6 M132.2,18.6
			c-0.2-0.1,0,0.4,0,0.4C132.2,19,132.5,18.7,132.2,18.6 M131.8,18.6L131.8,18.6 M130.9,18.7C130.8,18.4,130.8,18.7,130.9,18.7
			 M132.1,18.5C132.1,18.6,132.1,18.6,132.1,18.5C132.1,18.6,132.1,18.6,132.1,18.5 M131.5,18.5C131.5,18.5,131.5,18.6,131.5,18.5
			C131.5,18.6,131.5,18.6,131.5,18.5 M131.1,18.5C131.1,18.5,131.2,18.5,131.1,18.5C131.2,18.5,131.3,18.5,131.1,18.5 M130.9,18.4
			C130.9,18.4,131,18.5,130.9,18.4C131,18.5,130.9,18.4,130.9,18.4 M131.6,18.4C131.5,18.3,131.5,18.4,131.6,18.4
			C131.6,18.4,131.6,18.4,131.6,18.4C131.6,18.4,131.6,18.4,131.6,18.4 M132,18.4C132,18.4,132,18.3,132,18.4
			C132,18.5,132,18.5,132,18.4C132,18.5,132,18.5,132,18.4 M131.7,18.4c0,0.1-0.1,0.2,0,0.1c0.1-0.1,0.1-0.3,0.1-0.2
			C131.8,18.3,131.8,18.3,131.7,18.4 M132.1,18.3C132,18.3,132,18.3,132.1,18.3C132,18.3,132.1,18.3,132.1,18.3
			C132.1,18.3,132.1,18.3,132.1,18.3 M132.2,18.6c0.2,0,0.2-0.1,0.2-0.2c-0.1-0.1-0.2-0.2-0.1-0.2C132.1,18.1,132.2,18.6,132.2,18.6
			 M131.8,18.2c-0.1,0.1-0.1,0.1-0.1,0.1C131.6,18.3,131.8,18.2,131.8,18.2 M118,18.2c-0.7-0.5-1.2,1-1.3,1.4
			C116.8,19.5,117.9,18.3,118,18.2 M131.2,17.8c0,0.1,0,0.1,0,0.1C131.2,18,131.2,17.9,131.2,17.8 M118,17.7c0,0,0.1,0,0.1,0
			C118.2,17.7,118.3,17.7,118,17.7 M135.9,7.9c0.4,3.5-0.9,6.7-2.8,9c-0.6,0.7-0.6,2.2,0.1,2.9c0.7,0.7,1.8,0.8,2.6,1.4
			c0.2,0.2,1.6,2,1.5,2.2c-0.1,0-0.2,0-0.3,0c0.8,1,1,2.7,1.1,3.9c0,0.5,0.1,1.2,0.1,1.7c-0.5,0.9,0.5,0.8,0.9,1
			c0.3,0.1,0.5,0.9,0.5,1.3c-0.1,0.5-0.9,0-0.7,0.6c0.7,0.4,1.4,0.2,2.1,0c0.6-0.2,1.2-0.3,1.8-0.1c0.4,0.1,0.7,0.1,1,0.1
			c0.6,0,1-0.1,1.5,1c0.7,1.5,1.7,4,0.4,5.5c-0.6,0.6,0.1,3,0.2,4c0.3,1.9-0.3,3-2.2,3c0.1,1.2,0,2.5,0.4,3.6c0.2,0.6,3.5,0.6,4.2,1
			c1,0.6,2.8,2.3,1.2,3c-0.2,0.1-1.9,1-1.9,0.5c0-0.3,0.1-2.2-0.5-2.1c-0.2,0.6,0.3,1.1-0.1,1.8c-0.7,1.1-2,0.5-1.9,1.8
			c0.1,2.4,0.3,4.7,0.4,7.1c0.2,3.4,0.4,6.8,0.6,10.2c0.1,1.8,1.5,21.2,0.6,21.2c-1.5,0-2.3-16.6-2.5-18.4
			c-0.7-6.8-1.4-13.7-2.1-20.5c-0.7,0.2-1.8,0.2-2.2-0.4c-0.3-0.4-0.1-1.4-0.3-1.6c-0.2-0.2-0.4,1.7-0.3,1.8c0.2,0.6-0.2,1.4,0,2.1
			c0,0.8,0,1.5,0,2.3c0,0.5-0.6,1-0.6,0.3c-0.1,2.2-0.6,4.4-0.2,6.5c0.4,2.2,0.8,4.3-0.8,6.4c0,0.3-0.1,0.6-0.3,0.9
			c-0.4,0.6-0.4,1-0.4,1.8c-0.1,1.2-0.3,2.4-0.4,3.6c-0.3,2-0.3,4.1-0.8,6.1c-0.2,0.8,0.2,1.3,0.7,1.8c0.6,0.6,1.7,1,2.3,1.7
			c0.4,0.5,1.4,0.5,2.3,0.5c0.4,0,0.7,0,1,0c1.1,0.1,1.4,1.1,1.8,1.8c0.7,1.1-2.4,1.2-2.9,1.3c-1.3,0.1-2.7,0.1-4-0.5
			c-1.3-0.6-2.2-1.2-3.6-1.2c0,0.3,0.3,1.3,0,1.3c-0.9,0.1-2.5,0.3-3.4-0.1c-0.8-0.4-1.1-3.8-0.7-4.6c-0.1-0.1-0.7-0.3-0.2-0.9
			c0.3-0.3,0.7-2.2,1-1.8c0.3-0.3,0-1.9,0-2.2c-0.1-1.3-0.2-2.6-0.2-3.9c0-1.3-0.1-2.6,0-3.9c0.1-0.7-0.7-0.7-0.3-1.7
			c0.6-0.1,0.8-2.5,0.7-3.2c0-0.2-0.5-0.4-0.5-0.8c0-0.3,0.4-1.4,0.7-1.6c-0.4-0.8-1.5-1.9-1.5-2.9c-1.8,1.7-0.9,5-1.8,6.8
			c-0.3,0.7-0.3,1.8-0.4,2.5c-0.1,0.5-0.2,0.9-0.2,1.4c-0.1,0.7-0.7,1.1-0.8,1.7c-0.1,1.1-0.2,2.7-0.6,3.7c-0.2,0.6-0.7,1.2-0.7,1.9
			c0,0.8-0.1,1.7-0.2,2.5c0,0.7-0.7,3.8,0,4.1c0.8,0.4,0.4,1,0.5,1.8c0.7-0.1,0.8,1.2,1.2,1.6c0.4,0.4,1,0.9,1.3,1.3
			c0.3,0.4,0.9,0.5,1.2,1.1c0.3,0.5,0.2,0.8,0.5,1.2c0.4,0.5-0.1,0.8-0.5,0.9c-1.8,0.7-4.2,0.2-6-0.4c-0.8-0.3-1.4-0.7-1.7-1.5
			c-0.2-0.6-1.6-0.1-1.8-1.2c0,0.2-0.1,0.3-0.2,0.4c-0.1,0-0.1-0.3-0.1-0.4c0.1-0.8,0.3-0.9-0.1-1.5c-0.5-0.6-0.6-2.8-0.1-3.4
			c0-1.6,0.1-3.4,0-5.1c-0.8,1.5-0.9,3.1-2.9,1.8c-0.3-0.2-0.4-0.8-0.4-1.5v-0.1c0-0.7,0.1-1.4,0.1-1.7c0-0.4-0.1-1,0.1-1.4
			c0.2-0.5,0.6-0.6,0.7-1.2c0.2-1.6,0.9-3.8,0.6-5.3c-0.3-1.5,0.5-3.5,0.7-4.9c0.3-1.6,0.6-3.3,0.9-4.9c0.6-3.7,1.5-7.3,2.2-11
			c-0.7-1.3-0.1-2.8-0.5-4.1c-0.1-0.3-0.1-0.4,0.1-0.7c0.2-0.3,0.4-0.5,0.6-0.8c-0.1-0.2-0.1-0.3-0.1-0.5c0.1-0.2,0.1-0.5,0.1-0.8
			c0,0,0.1,0,0.1,0c0-0.1,0.1-0.3,0.1-0.4c0,0,0,0,0,0c0.1-0.1,0.1-0.1,0,0c0,0,0,0,0,0v0c-0.1,0.1-0.2,0.3-0.2,0.4
			c0-0.3,0.1-0.6,0.4-0.6c0.1-0.1-0.3-0.4-0.2-0.6c0.2-0.5,0.3-0.3,0.2-1c-0.2-1.3-0.3-2.6-0.5-3.9c-0.2-1.9-1.1-3.4-1.3-5.2
			c-0.4,0-0.9,0.5-1.2,0.7c-1,0.7-0.5-0.7,0.1-1.1c0.5-0.4,1-0.3,0.9-1c-0.1-0.7-0.2-1.4-0.2-2.1c0-0.9-0.2-0.6-0.6-0.9
			c0,0-0.4-0.5-0.4-0.5c0,0-0.1-0.2-0.1-0.5c0,0,0,0,0.1,0c0.2,0,0-0.1,0-0.2c0,0-0.1,0-0.1,0.1c0-0.2-0.1-0.4-0.1-0.5c0,0,0,0,0,0
			c0,0,0,0,0,0c0-0.2-0.1-0.3-0.1-0.3c-0.2,0.1-0.2,0.5-0.3,0.8c0.2-0.4,0-1.4-0.1-1.7c-0.1-0.3-0.7-1.4-1.1-1.3
			c-0.1,0.4,0.2,3.2,0,3.2c-0.6,0.1-0.2-3.7,0.1-4c0.7-0.9,0-3.1,0.3-4.4c-0.1,0.1-0.3,0.6-0.3,0.5c-0.5-0.2,1.2-3.2,1.4-3.4
			c0.3-0.3,0.4-0.5,0.9-0.7c0.1,0,1.3,0,1.3-0.1c0.1,0.1,2.4,0,2.5-0.1c-0.1,0-0.3,0-0.4,0c0.4-0.1,0.9-0.3,1.4-0.3
			c-0.7-1,0.3-1.5,0.7-2.1c0.5-0.9,0.9-2.5,1.9-2.6c-0.1,0-0.4-0.2-0.4-0.3c0,0,0.5-1.3,0.5-1.4c0.3-1,1.2-2,1.2-3
			c0.1-0.9,1.6-1.3,1.8-1.9c0.2-0.8,3.2-1.8,3.9-1.9c0.1,0,0.2,0,0.3,0C135,3.5,135.7,6.3,135.9,7.9"/>
	</defs>
	<use xlink:href="#SVGID_1_"  style="overflow:visible;"/>
	<clipPath id="SVGID_2_">
		<use xlink:href="#SVGID_1_"  style="overflow:visible;"/>
	</clipPath>
</g>
</svg>
