<?xml version="1.0" encoding="utf-8"?>
<!-- Generator: Adobe Illustrator 23.1.1, SVG Export Plug-In . SVG Version: 6.00 Build 0)  -->
<svg version="1.1" id="Layer_1" xmlns="http://www.w3.org/2000/svg" xmlns:xlink="http://www.w3.org/1999/xlink" x="0px" y="0px"
	 viewBox="0 0 100 100" style="enable-background:new 0 0 100 100;" xml:space="preserve">
<path d="M74.4,24.8c-0.1,5.5-0.3,11.1-0.4,16.6c0,0.7,0,1.4,0.1,2.1c0.1,0.6,0.4,1.2,0.8,1.7c0.8,0.8,1.7,0.9,2.7,0.5
	c0.5-0.2,0.9-0.5,1.3-0.7c0.1-0.1,0.1-0.2,0.2-0.2c4.2-7.5,8.4-15,12.6-22.5c0.1-0.3,0.3-0.5,0.4-0.8c0.4-0.6,1-0.9,1.6-1.1
	c0.8-0.2,1.6-0.3,2.4-0.2c0.8,0.1,1.5,0.5,2.1,1c1.1,1,1.7,2.1,1.7,3.6c0,0.1,0,0.3-0.1,0.4c-3.3,7-6.3,14.2-9,21.5
	c-1.1,3-1.9,6.1-2.4,9.3c-0.6,3.5-0.9,6.9-0.7,10.4c0.1,1.4,0.2,2.7,0.3,4.1c0.1,3.1-0.3,6.1-1.1,9.1c-0.4,1.5-0.9,3-1.4,4.5
	c-0.2,0.6-0.6,1.1-0.9,1.6c-1.4,2.4-2.8,4.7-4.5,6.8c-1.2,1.5-2.4,2.9-4,4c-1,0.8-2.1,1.3-3.3,1.6c-1.7,0.5-3.5,0.8-5.2,1
	c-6.1,0.7-12.3,0.9-18.4,0.8c-1.9,0-3.7-0.3-5.6-0.5c-7.3-1.1-14.5-2.7-21.7-4.4c-3.9-0.9-7.9-1.9-11.8-2.9
	c-1.9-0.5-3.8-0.7-5.8-0.9c-0.8-0.1-1.7-0.2-2.4-0.5C0.5,90,0,88.9,0,87.4c0-2.1,1-3.7,2.5-4.9c1.5-1.1,3.1-1.9,4.9-2.4
	c1.2-0.3,2.3-0.3,3.5-0.2c2,0.2,4.1,0.4,6.1,0.6s4,0.4,6.1,0.6c1.5,0.1,3.1,0.3,4.6,0.4c0.7,0,1.5-0.1,2.2-0.3
	c1.7-0.4,3.2-1.2,4.5-2.3c1.3-1.1,2-2.6,2.4-4.3c0.3-1.4,0.2-2.8,0.1-4.3c-0.1-2.2-0.3-4.5-0.6-6.7c-0.4-3.8-1.5-7.5-3.5-10.9
	c-1.1-2-2.4-3.9-3.6-5.9c-4.7-7.4-9.5-14.7-14.2-22.1c-0.4-0.6-0.6-1.3-0.6-2.1c-0.1-0.8-0.1-1.6,0-2.4c0.1-0.9,0.6-1.7,1.3-2.3
	c0.9-0.8,2-1.3,3.3-1.2c0.8,0,1.5,0.3,2.1,0.7c1.3,0.8,2.3,1.8,3.2,3c6.1,8.4,12.3,16.7,18.4,25.1c0.5,0.6,1.1,1,1.9,1.2
	c0.5,0.2,1.1,0.2,1.7,0.3c1,0.1,1.6-0.4,1.8-1.4c0.2-0.9,0-1.8-0.1-2.6c-1.4-6.6-2.9-13.3-4.3-19.9c-1.2-5.6-2.4-11.2-3.7-16.9
	c-0.3-1.6-0.1-3,0.6-4.4c0.5-1,1.4-1.6,2.5-1.7c1.9-0.2,3.7,0,5.4,1c0.9,0.5,1.6,1.2,1.8,2.3c0.8,4.3,2,8.6,3,12.9
	c2,8.4,4,16.7,6,25c0.2,0.9,0.8,1.5,1.6,1.6c1.1,0.1,2-0.4,2.4-1.3c0.1-0.2,0.1-0.4,0.1-0.7c0.3-4,0.6-7.9,0.8-11.9
	c0.3-3.8,0.5-7.7,0.8-11.5c0.3-3.5,0.5-7.1,0.8-10.6c0-0.5,0-1.1,0.1-1.6C66,4.8,66.1,4.4,66.3,4c0.9-1.4,2.1-2,3.7-1.9
	c1,0.1,2,0.3,2.8,1c1.1,0.9,1.8,2,2,3.4c0.1,0.5,0,1,0,1.5C74.7,13.6,74.5,19.2,74.4,24.8L74.4,24.8z"/>
</svg>
