<?xml version="1.0" encoding="utf-8"?>
<!-- Generator: Adobe Illustrator 23.1.1, SVG Export Plug-In . SVG Version: 6.00 Build 0)  -->
<svg version="1.1" id="Layer_1" xmlns="http://www.w3.org/2000/svg" xmlns:xlink="http://www.w3.org/1999/xlink" x="0px" y="0px"
	 viewBox="0 0 100 100" style="enable-background:new 0 0 100 100;" xml:space="preserve">
<g transform="translate(0,0)">
	<path d="M37.5,0c-3.5,0-6.2,2.8-6.2,6.2v25h-25C2.8,31.2,0,34,0,37.5l0,0v25c0,3.5,2.8,6.2,6.2,6.2l0,0h25v25
		c0,3.5,2.8,6.2,6.2,6.2l0,0h25c3.5,0,6.2-2.8,6.2-6.2l0,0v-25h25c3.5,0,6.2-2.8,6.2-6.2l0,0v-25c0-3.5-2.8-6.2-6.2-6.2l0,0h-25v-25
		C68.8,2.8,66,0,62.5,0H37.5z"/>
</g>
</svg>
