<?xml version="1.0" encoding="utf-8"?>
<!-- Generator: Adobe Illustrator 24.1.3, SVG Export Plug-In . SVG Version: 6.00 Build 0)  -->
<svg version="1.1" id="Layer_1" xmlns="http://www.w3.org/2000/svg" xmlns:xlink="http://www.w3.org/1999/xlink" x="0px" y="0px"
	 viewBox="0 0 100 100" style="enable-background:new 0 0 100 100;" xml:space="preserve">
<path d="M43.7,97.6c-0.7-9.7-1.1-19.4-2.3-29.1C39.3,51.4,35,34.9,26.8,19.6C22.9,12.4,18.2,5.9,12.2,0c8.6,2.1,22.3,15.4,29.2,28.4
	c6.6,12.3,9.4,25.7,10.5,40.2c5.1-18.7,7.9-37.6,22.8-50.9c-10.5,24.8-12.2,51-12.9,77.4c5.8-22,18.3-39.2,36.8-52.2
	C85.7,60,74.1,77.6,72.8,100c-14.5,0-28.8,0-43.4,0C26,75.5,17.5,53.1,1.4,33.9c24.2,14.5,35.6,37.2,41.3,63.8
	C43.1,97.6,43.4,97.6,43.7,97.6z"/>
</svg>
