<?xml version="1.0" encoding="utf-8"?>
<!-- Generator: Adobe Illustrator 24.1.3, SVG Export Plug-In . SVG Version: 6.00 Build 0)  -->
<svg version="1.1" id="Layer_1" xmlns="http://www.w3.org/2000/svg" xmlns:xlink="http://www.w3.org/1999/xlink" x="0px" y="0px"
	 viewBox="0 0 100 100" style="enable-background:new 0 0 100 100;" xml:space="preserve">
<path d="M22.1,88.9c-1.2,3.7-2.4,7.3-3.7,11.1c-3-0.9-5.8-1.8-9.2-2.8c1.9-4.4,3.9-8.6,5.4-12.9c0.7-2.1,1.1-4.8,0.6-6.9
	C12.9,68,12,58.6,13.9,49.1c2.1-11,7.8-19.7,17.8-24.8c10.8-5.6,22.2-10.2,33.3-15.2c6.5-2.9,12.9-5.9,20-9.1c1.3,5,3,10.8,4.1,16.7
	c2.4,12,2.7,24-0.7,35.9C82.4,73,67.6,83.7,48,88.8C37.6,91.4,31.7,91.3,22.1,88.9z"/>
</svg>
