<?xml version="1.0" encoding="utf-8"?>
<!-- Generator: Adobe Illustrator 24.1.3, SVG Export Plug-In . SVG Version: 6.00 Build 0)  -->
<svg version="1.1" id="Layer_1" xmlns="http://www.w3.org/2000/svg" xmlns:xlink="http://www.w3.org/1999/xlink" x="0px" y="0px"
	 viewBox="0 0 100 100" style="enable-background:new 0 0 100 100;" xml:space="preserve">
<path d="M83.4,16.1c0.8-3,1.3-5.1,1.9-7.2c0.4,0,0.8,0.1,1.2,0.1c-0.2,1.8-0.4,3.6-0.6,5.7c1.4-1.5,2.7-2.8,3.9-4.2
	c0.3,0.3,0.6,0.6,0.9,0.8c-1.1,1.6-2.1,3.2-3.5,5.4c2.4-1.1,4.2-2,6.1-2.9c0.2,0.4,0.3,0.7,0.5,1.1C92.1,16,90.4,17.3,88,19
	c3-0.3,5-0.5,7-0.7c0.1,0.2,0.2,0.5,0.3,0.7c-0.4,0.4-0.8,0.9-1.3,1c-1.8,0.4-3.5,0.8-5.3,0.8c-3.8,0-5.5,1.9-6.6,5.6
	c-3.3,11-7.7,21.5-14,31.2c-3.2,4.9-6.9,9.3-12.4,12.6c10.7,0.7,25.2-9,30.4-20.2c-2.5-2.3-5.1-4.7-8.2-7.6c3.5-0.7,4.1,2.3,6.1,2.9
	c0.4-2-2.4-3.7-1.4-5.8c0.3-0.1,0.6-0.1,0.9-0.2c0.9,1.7,1.7,3.5,2.6,5.2c0.2,0,0.4,0,0.6,0c0-2,0-3.9,0-5.9
	c0.4-0.1,0.9-0.1,1.3-0.2c0.3,2.2,0.5,4.4,0.8,7.3c1.3-2.5,2.3-4.5,3.3-6.5c0.4,0.1,0.8,0.3,1.2,0.4c-0.5,1.7-1.1,3.5-1.7,5.4
	c1.6-1.2,3.1-2.2,4.6-3.3c0.2,0.3,0.4,0.6,0.7,0.9c-1.4,1.3-2.9,2.6-4.3,3.8c0.2,0.2,0.3,0.4,0.5,0.6c2-0.5,3.9-0.9,5.9-1.4
	c0.1,0.4,0.2,0.8,0.3,1.2c-1.9,0.8-3.8,1.6-5.8,2.5c0,0.2,0,0.3,0.1,0.5c2.1,0.2,4.2,0.5,6.3,0.7c0,0.4-0.1,0.9-0.1,1.3
	c-1.5,0-3.1,0.3-4.6,0c-4.8-1-7.7,0.6-10.6,4.8C77,67.2,65.9,72.2,53,73.1c-1,0.1-2,0.1-3.5,0.2c-0.9,8.8-1.9,17.6-2.8,26.7
	c-1.2-0.1-2.1-0.2-3.3-0.4c0.9-9.3,1.8-18.4,2.7-27.7c-1.4-0.3-2.6-0.5-3.9-0.8C30.4,68.4,22.5,60.7,17.6,50
	c-2.9-6.3-4.6-13.1-6.5-19.7c-0.5-1.8-1.2-2.7-3-3C6,27,3.9,26.6,1.7,26.1c-0.5-0.1-1-0.5-1.5-0.8c0.1-0.3,0.1-0.6,0.2-0.9
	C2.2,24.6,4,24.8,6.7,25c-2.1-1.4-3.5-2.4-5-3.4c0.9-1.1,0.9-1.1,6.1,1.2c-0.9-1.3-1.8-2.6-2.6-3.9c-0.2-0.4,0-1,0-1.5
	c0.5,0.2,1.1,0.2,1.4,0.5c1.1,1.4,2.1,2.9,3.6,4.2c-0.2-2.2-0.3-4.4-0.5-6.6c0.4-0.1,0.7-0.2,1.1-0.2c0.5,1.7,0.9,3.4,1.5,5.5
	c0.7-2.1,1.3-3.8,1.9-5.4c0.4,0.1,0.8,0.2,1.1,0.3c-0.3,1.9-0.6,3.9-1,6.3c1.7-1.8,3.1-3.3,4.5-4.8c0.3,0.3,0.6,0.6,0.9,0.8
	c-1.2,1.7-2.3,3.5-3.8,5.7c2.5-1.1,4.5-2,6.5-2.8c0.2,0.4,0.4,0.8,0.5,1.2c-2.7,1.6-5.5,3-8,4.8c-0.8,0.5-1.7,1.9-1.5,2.7
	c2,11.4,5.8,22.1,13.9,30.8c4.8,5.1,11.3,8.4,17,8.8c-5.6-6.9-8.5-14.9-11.1-23c-0.5-1.5-1.2-1.8-2.6-1.6c-2.9,0.4-5.9,0.6-8.8,0.9
	c-0.1-0.4-0.2-0.8-0.3-1.2c1.8-0.5,3.7-0.9,6.1-1.5c-2.3-0.8-4.1-1.4-5.9-1.9c0.1-0.4,0.2-0.8,0.3-1.3c1.9,0.4,3.9,0.7,6.7,1.2
	c-1.9-1.6-3.1-2.6-4.3-3.6c-0.3-0.2-0.2-0.8-0.4-1.2c0.5,0,1.1-0.3,1.4-0.1c1.5,1.1,3,2.3,4.9,3.1c-0.9-2-1.7-4.1-2.6-6.1
	c0.3-0.2,0.6-0.4,0.9-0.6c1,1.4,2,2.7,3.3,4.5c0-2.1,0-3.8,0-6.1c2.8,1.8,1,4.6,2.5,6.6c0.8-2,1.5-3.8,2.4-6.2c1.9,3-0.8,5-0.3,7.9
	c1.5-2,2.8-3.6,4.1-5.3c0.4,0.2,0.7,0.4,1.1,0.7c-0.2,0.7-0.1,1.5-0.5,1.9c-1.4,1.7-2.8,3.4-4.5,4.8c-1.8,1.6-2,3.2-1.1,5.2
	c2.6,5.8,5,11.7,7.7,17.4c0.6,1.3,1.7,2.3,3,4.1c0-2.3,0-3.9,0-5.4c-0.4-14.4-0.8-28.8-1-43.2c0-2.6-1-3.7-3.3-4.3
	c-2.9-0.8-5.7-1.8-8.5-2.9c-0.6-0.2-1-1.1-1.5-1.6c0.8-0.1,1.6-0.6,2.2-0.4c1.7,0.4,3.3,1,5.3,1.1c-1.7-1.6-3.5-3.2-5.3-4.8
	c1.4-2.8,2.5-0.6,3.6,0.2c1.3,1,2.4,2,4.2,2.8c-0.7-1.4-1.4-2.8-2-4.3c-0.5-1.2-2.3-2.7,0.7-3.6c1.3,2.6,2.5,5,3.7,7.5
	c0.2,0,0.5,0,0.7,0c0-1.7-0.2-3.3,0.1-5C45.5,2.3,44-0.4,47.7,0c0,2.3,0,4.5,0,6.7c0.2,0,0.4,0.1,0.6,0.1c0.8-2,1.7-4.1,2.5-6.1
	c2,0.9,2,0.9,1,3.5c-0.5,1.4-1.1,2.9-1.6,4.3c0.2,0.1,0.4,0.2,0.6,0.3c1.7-1.8,3.3-3.7,4.9-5.4c2,1.6,2,1.6-0.1,3.8
	c-1.1,1.2-2.3,2.4-3.5,3.7c3.2,0.6,5.6-3.3,8.6-1.5c0.1,0.4,0.1,0.7,0.2,1.1c-3.8,1.5-7.5,2.9-11.2,4.5c-0.9,0.4-2,1.8-2,2.7
	c0.3,16.1,0.8,32.2,1.2,48.3c0,0.8,0.2,1.5,0.3,2.4c2.9-0.3,4.4-2.3,5.2-4.4c1.7-4.4,3.4-8.9,4.3-13.6c1.2-6.1,1.5-12.4,2.3-18.6
	c0.3-2-0.5-2.8-2.3-3.4c-2.7-0.8-5.4-1.8-8.1-2.7c0.1-0.4,0.1-0.8,0.2-1.1c1.8,0.3,3.5,0.6,5.7,0.9c-1.4-1.6-2.6-3-3.8-4.3
	c0.3-0.3,0.6-0.5,0.9-0.8c1.6,1.2,3.1,2.5,5.3,4.2c-1.1-2.6-1.9-4.5-2.7-6.4c0.4-0.2,0.8-0.4,1.3-0.6c1.1,1.9,2.1,3.7,3.6,6.3
	c0.2-3,0.3-5.1,0.4-7.3c0.4,0,0.8,0,1.2,0c0.2,1.7,0.3,3.5,0.6,6.1c1.1-2.3,1.8-3.9,2.6-5.4c0.4,0.1,0.8,0.2,1.2,0.3
	c-0.5,1.9-1,3.9-1.6,5.8c0.2,0.2,0.5,0.4,0.7,0.6c1.1-1.6,2.1-3.3,3.2-4.9c0.4,0.3,0.8,0.6,1.2,0.9c0.6,2.6-2.8,3.1-3.3,5.5
	c2.1-0.5,4.1-1.1,6.1-1.6c0.1,0.4,0.2,0.8,0.3,1.2c-2.6,1.1-5.2,2.3-7.8,3.2c-1.8,0.6-2.3,1.5-2.5,3.4c-1,8.3-2,16.6-3.5,24.8
	c-0.7,3.6-2.5,7-3.5,10.9c2-1.8,4.2-3.5,5.9-5.5c6.9-8.1,11-17.7,14.8-27.4c1.5-3.8,2.6-7.7,4.1-11.5c0.6-1.6,0.4-2.6-1.2-3.4
	c-1.8-0.9-3.5-2-5.1-3.1c-0.6-0.5-1-1.3-1.5-2c0.8,0.2,1.6,0.2,2.3,0.5c1,0.5,2,1.1,3.4,2c-1.2-2.2-2.1-3.9-3-5.6
	c0.3-0.2,0.7-0.4,1-0.5c1.1,1.4,2.3,2.9,3.9,5c-0.3-2.7-0.5-4.6-0.6-6.6c0.4,0,0.8-0.1,1.2-0.1C81.9,11,82.6,13.2,83.4,16.1z"/>
</svg>
