<?xml version="1.0" encoding="utf-8"?>
<!-- Generator: Adobe Illustrator 24.1.3, SVG Export Plug-In . SVG Version: 6.00 Build 0)  -->
<svg version="1.1" id="Layer_1" xmlns="http://www.w3.org/2000/svg" xmlns:xlink="http://www.w3.org/1999/xlink" x="0px" y="0px"
	 viewBox="0 0 100 100" style="enable-background:new 0 0 100 100;" xml:space="preserve">
<path d="M45.4,44.3c-1.8,6.2-3.4,12.4-5.6,18.4c-0.9,2.5-3.1,4.7-5.2,6.4c-5.1,3.9-10.5,7.5-15.7,11.2c-6.9-11.1-4.8-26.9,5-35.7
	c10.8-9.8,24-12.3,38-11.4c12.4,0.8,24.2,4.2,35.6,9c1.9,0.8,2.8,1.8,2.4,4c-2,12.9-5.5,25.3-13.5,35.8
	c-10.3,13.5-24,20.3-41.3,17.4c-9.1-1.5-16.4-6.7-23.4-13.8c4.7-4.1,8.9-8.4,13.7-11.8c5.7-4.1,11.7-7.9,17.9-11.1
	c2.4-1.2,5.8-1.1,8.6-0.6c6.5,1.2,13,2.9,20.1,4.6c-5.6-5.3-12.1-7-18.8-9.4c9.1-3.6,18.3-7.2,27.2-10.7
	c-6.8-0.7-21.4,4.5-46.1,16.5c0.8-3.2,2-6.3,2.3-9.5c0.3-3.1-0.2-6.2-0.4-9.4C45.9,44.1,45.7,44.2,45.4,44.3z M56.3,0.7
	c-0.5-0.6-2.1-0.9-3-0.6c-3.1,1-6.1,2.1-9,3.4c-14,6.3-26.9,14.1-36,26.9c-5.7,8-8.9,16.9-8,26.9C1,66,5.6,72.4,13.2,77.9
	c-0.6-2.4-1-3.9-1.3-5.4c-1.7-8.2-1.4-16.5,3.5-23.4c3.2-4.4,3.6-7.8,0.1-11.7c-0.1-0.1,0.1-0.4,0.3-0.9c1.9,1.5,3.8,3,5.5,4.4
	c3.7-2.2,7.4-4.4,11-6.7c1.4-0.9,2.7-2.2,3.6-3.6c4-6.5,7.8-13.1,11.7-19.7c0.4-0.7,1-1.3,1.5-1.9c0.2,0.2,0.3,0.4,0.5,0.6
	c-3.4,7.1-6.9,14.1-10.3,21.2c0.3,0.3,0.7,0.5,1,0.8c1.4-0.9,2.8-1.9,4.3-2.8c0.1,0.1,0.4,1,0.8,1c8.1-0.1,16.3-0.3,24.6-0.5
	C67.4,19,62.6,9.5,56.3,0.7z"/>
</svg>
