<?xml version="1.0" encoding="utf-8"?>
<!-- Generator: Adobe Illustrator 24.1.3, SVG Export Plug-In . SVG Version: 6.00 Build 0)  -->
<svg version="1.1" id="Layer_1" xmlns="http://www.w3.org/2000/svg" xmlns:xlink="http://www.w3.org/1999/xlink" x="0px" y="0px"
	 viewBox="0 0 100 100" style="enable-background:new 0 0 100 100;" xml:space="preserve">
<path d="M99.7,46.4c-5-1.1-10-2.2-15-3.2c-5-1-9.4,0.2-13.4,3.5C66.2,51,62,56.2,58.8,63c3.3-0.7,6.1-1.1,8.7-2
	c2.5-0.8,4.7-0.7,6.9,0.6c6.1,3.4,10.9,8,14.1,14.3c3.2,6.3,6.8,12.4,10.2,18.5c-2.2-0.2-2.9-0.8-4.5-3.1c-2.4-3.7-4.7-7.5-7.5-10.9
	c-4.4-5.4-9.9-9.4-16.9-10.6c-4.6-0.8-9,0.3-13,2.7c-0.8,0.5-1.4,1.8-1.5,2.8c-0.3,3.6-0.3,7.2-0.4,10.9c-0.1,2.3,0,4.5,0,6.9
	c-2,0-3.5,0-5.5,0c-0.3-3.3-0.7-6.6-0.8-9.9c-0.1-5.4-3-8.8-7.4-11.1c-7.6-4-14.8-2.9-21.8,1.7C13,78.2,8.8,84.4,4.8,90.8
	c-1,1.7-2.7,3-4.1,4.5c-0.3-0.2-0.5-0.4-0.8-0.6c0.2-0.5,0.4-1,0.6-1.5c3.5-6.4,6.8-12.8,10.5-19c3.2-5.5,7.7-10,13.6-12.6
	c1.8-0.8,4.2-0.7,6.3-0.4c2.6,0.3,5.1,1.1,8.2,1.8c-0.6-1.1-0.8-1.7-1.2-2.3c-5.4-8.1-10.8-16.2-16.4-24.1c-2.4-3.3-5.5-6.2-8.4-9.1
	C8.6,22.9,5.4,17.4,2.4,11.8c13.9,13,28.3,25.6,39.2,41.5C40.2,37,37.4,21,38.2,4.7c1.3,7.4,2.4,14.9,4.1,22.2
	c1.8,7.7,4.2,15.3,6.3,23c0.7,2.7,1.1,5.5,1.8,8.6c0.7-0.6,1.2-1.1,1.7-1.5c6.8-5.6,13.6-11.3,20.5-16.8c2.7-2.2,5.8-2.6,9-1.4
	c6.2,2.3,12.3,4.7,18.5,7.1C99.9,46.1,99.8,46.2,99.7,46.4z"/>
</svg>
