<?xml version="1.0" encoding="utf-8"?>
<!-- Generator: Adobe Illustrator 24.1.3, SVG Export Plug-In . SVG Version: 6.00 Build 0)  -->
<svg version="1.1" id="Layer_1" xmlns="http://www.w3.org/2000/svg" xmlns:xlink="http://www.w3.org/1999/xlink" x="0px" y="0px"
	 viewBox="0 0 100 100" style="enable-background:new 0 0 100 100;" xml:space="preserve">
<path d="M53.7,93.8C52.9,62.1,47,31.5,42.3,0c6.3,5.7,10.6,12,13.6,19.2c5.8,14,6.8,28.6,4.8,43.3C59.4,71.8,56.9,81,55,90.2
	C54.7,91.3,54.2,92.3,53.7,93.8z M52.8,100C49.9,68.4,26.2,40.5,1.6,40.3C18.7,60.3,35.9,80.3,52.8,100z M78.9,50.3
	C65.1,61.1,60.5,76.5,57.3,92.7c11.9-17.5,26.5-32.5,41.1-48.6C90.7,44.3,84.3,46.1,78.9,50.3z"/>
</svg>
