<?xml version="1.0" encoding="utf-8"?>
<!-- Generator: Adobe Illustrator 24.1.3, SVG Export Plug-In . SVG Version: 6.00 Build 0)  -->
<svg version="1.1" id="Layer_1" xmlns="http://www.w3.org/2000/svg" xmlns:xlink="http://www.w3.org/1999/xlink" x="0px" y="0px"
	 viewBox="0 0 100 100" style="enable-background:new 0 0 100 100;" xml:space="preserve">
<path d="M46.4,80.7c-1.2-1.5-2.4-3-4-4.8c-0.8,8.8-1.8,17.2-7.6,24.1c-4-3.2-3.7-3-1.9-7.4c2.5-6,4.6-12.2,6.8-18.4
	c0.4-1,0.2-2.2,0.4-3.5c-1.5,0.7-2.7,1.6-4.1,1.9c-1.8,0.4-3.8,1.2-5.1-1.2c-0.2-0.4-0.8-0.6-1.3-0.7c-5.2-1.1-10.4-2.1-15.4-3.2
	c1.2-0.4,2.8-0.7,4.2-1.5c1.1-0.6,2.6-1.7,2.6-2.5c0-1.2-1-2.7-2-3.5c-4.1-3.1-8.4-6-12.5-8.9c1.5-1.1,3.1-2,4.3-3.3
	c0.8-0.8,1.1-2.2,1.3-3.4c0.4-3.2-3.1-5.5-1.3-9.6c1.1-2.4-1.2-6.4-1.9-9.4c4.5,1.5,9,7.2,14.5,3.2c2,1.7,3.8,3.3,5.6,4.7
	c2,1.5,3.4,1.1,3.6-1.4c0.2-4.1-0.1-8.1-0.3-12.2c0-1-0.3-2-0.4-2.6c2.3,0,4.7,0.7,6.4-0.2c1.7-0.9,2.6-3.2,3.9-4.9
	c0.3-0.4,0.4-1.2,0.7-1.3c5.2-1.4,5.8-6.2,7.4-10.1c0.1-0.2,0.2-0.3,0.6-0.7c0.6,4.4,0.6,9.1,6.1,10c1,10.1,1,10.1,9.9,7.4
	c-0.8,4.5-1.7,9-2.5,13.5c-0.2,1-0.6,2-0.8,3c-0.8,4.4,1,6,5.3,4.7c1.3-0.4,2.5-0.9,3.7-1.5c1.2-0.5,2.4-1.1,3.8-1.7
	c1.6,2.3,3.6,3.6,6.5,2c0.3-0.2,0.9,0.1,1.4,0.1c3.1,0.3,6.1,0.7,9.2,1c-1.4,1.8-3.4,3.6-4.3,5.8c-0.8,2-0.4,4.6-0.6,7.4
	c-8.5,5.7-8.6,6-4.6,13.5c-1.7,0.6-3.3,1.4-5,1.8c-3.8,1-7.7,2.1-11.6,2.7c-3.4,0.6-5,2.3-4,5.7c0.7,2.5,1.8,5,3,8.5
	c-5.8-1.6-10.9-3-16.1-4.3c-1-0.3-2.1,0-3.2,0C46.8,80,46.6,80.4,46.4,80.7z"/>
</svg>
