<?xml version="1.0" encoding="utf-8"?>
<!-- Generator: Adobe Illustrator 24.1.3, SVG Export Plug-In . SVG Version: 6.00 Build 0)  -->
<svg version="1.1" id="Layer_1" xmlns="http://www.w3.org/2000/svg" xmlns:xlink="http://www.w3.org/1999/xlink" x="0px" y="0px"
	 viewBox="0 0 100 100" style="enable-background:new 0 0 100 100;" xml:space="preserve">
<path d="M48.2,53C40.3,34.7,29.2,19.5,9.5,12.6c15.7,2.4,29.6,7.8,38.1,22.3c7.3,12.5,7.6,26.1,4.8,39.9c-0.5,2.7-2.3,2.1-4,1.4
	C28.5,68.7,13.6,55.8,6,35.6C3.6,29,2,22.1,0.1,15.3c-0.3-1-0.2-2.7,0.3-3c0.9-0.5,2.3-0.3,3.3,0.1c16.4,6.6,29,17.7,38.9,32.1
	C44.6,47.2,46.3,50.1,48.2,53z M58.9,65.5c-3.9,5.9-6.4,12.3-7.8,19.2c-0.1,0.5-0.3,1.2-0.2,1.6c0.3,0.7,0.8,1.6,1.3,1.7
	c0.6,0.1,1.5-0.6,1.8-1.2c0.5-1,0.6-2.1,0.7-3.2c0.2-1.8,1-2.6,2.9-2.9c5.6-1.1,11.3-2.2,16.8-3.8c6.9-2,13.4-4.9,18.7-9.9
	c4.1-3.9,6.8-8.5,6.8-14.4c0-2.7-0.7-4.3-3.7-4.2c-1.5,0.1-3-0.2-3.7-0.3C77.8,48.1,66.7,53.7,58.9,65.5z M64,67.3
	c8-7.9,17.5-13.1,28.8-14.9C83.2,57.3,73.6,62.3,64,67.3z"/>
</svg>
