<?xml version="1.0" encoding="utf-8"?>
<!-- Generator: Adobe Illustrator 24.1.3, SVG Export Plug-In . SVG Version: 6.00 Build 0)  -->
<svg version="1.1" id="Layer_1" xmlns="http://www.w3.org/2000/svg" xmlns:xlink="http://www.w3.org/1999/xlink" x="0px" y="0px"
	 viewBox="0 0 100 100" style="enable-background:new 0 0 100 100;" xml:space="preserve">
<path d="M46.6,36.7c-2.1-2.5-3.6-4.6-5.4-6.4c-0.5-0.5-1.9-0.3-2.7-0.1c-6.3,1.9-12.3,1.8-17.4-2.7c-1.4-1.3-2.3-3.2-3.4-4.9
	c1.8-0.9,3.6-2.4,5.5-2.7c2.7-0.5,5.5-0.1,8.3-0.1c-1.2-1-2.5-2.2-4.1-3.5c-3.4,2.8-7.7,2.7-12.1,1.3c-2.5-0.8-2.9-1.9-1.5-4.2
	c1.7-2.7,4.2-3.9,7.3-3.8c1.1,0,2.2,0.2,2.7,0.3C25,7,25.8,4.1,27.2,1.6c1.3-2.2,2.7-2,4.5-0.1c3.1,3.4,2.9,7-0.6,12.1
	c1.9,2,3.9,3.9,5.6,5.7c0.7-2.3,1.4-4.9,2.4-7.3c0.5-1.1,1.9-1.9,2.8-2.8c0.9,1,2.1,1.9,2.7,3c2.3,4.9,1.1,9.3-2.4,13.5
	c2,2.4,3.9,4.8,6.3,7.8c0.2-1.4,0.2-2.2,0.4-3c0.8-3.2,1.5-6.4,2.6-9.4c1-2.8,2.5-2.9,4.4-0.5c3.9,4.9,4.5,10.5,3.1,16.5
	c-0.1,0.5-0.2,1.2-0.5,1.6c-3.3,4.9-0.8,8.6,2.4,12.3c0.6-3.3,0.9-6.7,1.9-9.9c1-3.1,2.4-6.1,4.2-8.8c2.2-3.1,5.3-2.5,6.4,1.2
	c2.4,8.3,2.2,16.5-1.6,24.3c-1,2-2.6,3.5-4.2,5.5c1,2.1,2.1,4.4,3.5,7.4c0.4-2.3,0.5-4,1.1-5.5c1.5-3.5,3.2-6.9,5.2-10.1
	c1.5-2.4,4.1-2.2,5.8-0.3c1.5,1.7,3,4,3.4,6.2c1,5.8,0.2,11.7-2.9,16.8c-1.6,2.7-4.4,4.6-7,7.3c0.7,2.8,1.6,6.5,2.5,10.2
	c0.2,0.8,0.5,1.7,0.4,2.5c-0.1,0.8-0.8,1.4-1.2,2.2c-0.7-0.6-1.8-1-2-1.8c-0.8-2.9-1.3-5.8-2-8.9c-7.4,2-14.2,1-20.7-2.3
	c-3.3-1.7-6-4.1-7.8-7.5c-1.2-2.4-0.6-4.1,1.7-5.3c3.4-1.9,7.1-2,10.6-0.9c4.2,1.4,8.2,3.4,12.4,5.2c-1.5-3.5-3.1-7.4-4.8-11.3
	c-2.8,0.6-5.3,1.3-7.8,1.6c-6.6,0.8-12.9,0.1-18.6-3.7c-2.6-1.7-5.7-4-5-7.2c0.7-3.1,4.4-4,7.5-4.6c5.1-1,9.8,0.5,14.4,2.7
	c1.3,0.6,2.6,1.3,4.4,1.6c-2.2-3.5-4.3-7-6.7-10.4c-0.3-0.5-1.9-0.3-2.8-0.2c-7.1,1.3-13.6,0.4-19.2-4.4c-2.7-2.3-2.6-3.6,0.7-5.3
	c3.1-1.6,6.4-2.1,9.8-1.5C43.6,36,44.7,36.3,46.6,36.7z"/>
</svg>
