<?xml version="1.0" encoding="utf-8"?>
<!-- Generator: Adobe Illustrator 24.1.3, SVG Export Plug-In . SVG Version: 6.00 Build 0)  -->
<svg version="1.1" id="Layer_1" xmlns="http://www.w3.org/2000/svg" xmlns:xlink="http://www.w3.org/1999/xlink" x="0px" y="0px"
	 viewBox="0 0 100 100" style="enable-background:new 0 0 100 100;" xml:space="preserve">
<path d="M78.6,0c-2.9,13.6,2.8,27,3.4,40.8c0.3,8.8-0.2,17.6-0.9,26.4c-0.4,5.2-3.1,9.6-6.9,13.2C63.8,90.6,51.4,97.1,36,100
	c11.4-10,19.6-21.2,25.4-34.1c5.9-13,8.7-26.8,8.5-41.2c-0.2,0.7-0.5,1.4-0.7,2.2C65.4,44,60.2,60.7,51.3,76.1
	c-5,8.6-11,16.2-19.8,21.4c-2.4,1.4-3.8,1.2-5.5-1c-9.4-12.1-10.3-25.1-4.4-38.9C26,47.3,33.1,38.9,41,31.4
	c8-7.6,16.9-14.5,25.4-21.6C70.5,6.4,74.6,3.2,78.6,0z"/>
</svg>
