<?xml version="1.0" encoding="utf-8"?>
<!-- Generator: Adobe Illustrator 24.1.3, SVG Export Plug-In . SVG Version: 6.00 Build 0)  -->
<svg version="1.1" id="Layer_1" xmlns="http://www.w3.org/2000/svg" xmlns:xlink="http://www.w3.org/1999/xlink" x="0px" y="0px"
	 viewBox="0 0 100 100" style="enable-background:new 0 0 100 100;" xml:space="preserve">
<path d="M56,41.2c1.1-7.6,4.2-13.9,12.3-25.6c-4.4,1.6-9.1,7.4-15.8,19.2C46.1,18.4,65.8,0.1,88.9,1.6c-0.3,2.6-0.4,5.2-0.9,7.8
	c-1.5,9.1-3.9,17.9-9.6,25.4C72.7,42.2,64,44.6,56,41.2z M45.6,51.3c1-2.4,1.9-4.8,2.2-7.3c2-15.1-14-32.1-30.4-32.1
	c-1.3,6.7-0.6,19.8,1.4,27.6c1.5,5.6,3.6,10.9,7.9,15.1c4.2,4.1,9.2,6.1,15.1,5.9c-0.1-12.3-3.5-21.5-14.1-38.7
	C37.6,29.2,44.1,38.6,45.6,51.3z M68.5,72.7c9.6-2,17.9-6.8,25.7-12.5c1.7-1.3,3.4-2.7,5.8-4.6c-6-3.5-11.2-6.9-16.8-9.6
	c-5.1-2.5-10.7-3.4-16.4-2.4c-6.8,1.1-14,6.4-15.9,12.1c11.5-6.1,23.1-6,34.8-1.9c-14.7-1.4-28.1,2.3-40.8,9.9
	C49.9,71.4,58.4,74.7,68.5,72.7z M78.2,97.1c0-7.7-4.3-14.4-11.4-17.9c-7.5-3.7-21.4-3.7-28.7,2.1c13.4,0.4,17,1,20.5,3.8
	c-9-2-17.5-1.3-26.3,1.2C41.9,97.8,65.4,100.6,78.2,97.1z M12,56.3c10.4,5.5,14.4,15.1,16.7,26c0-4.8,0-9.5-0.8-14
	C25.4,55.4,17.5,48,5.3,46.1c-2.8-0.4-3.8,0.6-4.5,2.9c-1.9,6.6-0.2,12.6,3.9,17.5c5.3,6.3,11.5,12,17.4,17.8c1,0.9,2.3,1.5,4.4,2.7
	C23.4,75.1,19.8,64.7,12,56.3z"/>
</svg>
