<?xml version="1.0" encoding="utf-8"?>
<!-- Generator: Adobe Illustrator 24.1.3, SVG Export Plug-In . SVG Version: 6.00 Build 0)  -->
<svg version="1.1" id="Layer_1" xmlns="http://www.w3.org/2000/svg" xmlns:xlink="http://www.w3.org/1999/xlink" x="0px" y="0px"
	 viewBox="0 0 100 100" style="enable-background:new 0 0 100 100;" xml:space="preserve">
<path d="M52.7,17.2c-0.4,6.9-0.5,13.9-1.3,20.8c-1,8.9-4,17.2-8.1,25.1c-0.6,1.1-0.9,2.6-0.7,3.8c1.1,6.3-1.6,11.8-7.1,14.2
	c-5.4,2.3-11.7,0.6-15.1-4.2c-3.3-4.7-2.9-11.1,0.9-15.4c4.1-4.5,10.1-5.3,15.7-2.2c0.4,0.2,0.8,0.5,1.4,0.9
	c3.4-6.1,5.5-12.5,6.8-19.2c2.4-12.2,2-24.4-1.2-36.4c-0.5-1.8-0.9-3.6,1.3-4.4c2-0.8,3,0.7,3.8,2.2C54.4,11,60.3,18.8,68.1,25
	c1.6,1.3,3.3,2.3,5.1,3.6c0.8-0.7,1.4-1.3,2-1.8c2.8-2.2,6.6-1.8,8.9,0.8c2.3,2.6,2.1,6.6-0.4,9c-2.5,2.3-6.4,2.3-9,0
	c-1.6-1.4-3.4-2.5-5-3.9c-5.1-4.4-10.2-9-15.2-13.5C53.8,18.6,53.1,17.7,52.7,17.2z M71.9,39.5c-3.5,1.5-5.4,5.3-4.7,9.1
	c0.7,3.6,4,6.3,7.7,6.4c4.4,0.1,7.3-2.8,8.4-8.3c3.2,3.2,5.5,3.9,8.1,2.4c2.4-1.4,3.3-3.5,2.7-6.2c-0.5-2.4-2.2-3.8-4.6-4.2
	c-3-0.4-4.9,1.1-6.7,5.2C79.7,39.3,75.8,37.8,71.9,39.5z M18.4,100c5.3,0,9.6-4.4,9.5-9.7c-0.1-5.2-4.3-9.4-9.5-9.4
	c-5.4-0.1-9.6,4.2-9.6,9.6C8.8,95.8,13,100,18.4,100z M44.5,73c-0.1,4.3,3.4,7.8,7.7,7.9c4.5,0.1,8-3.4,7.9-7.9
	c0-4.3-3.5-7.8-7.8-7.8C48.1,65.2,44.6,68.7,44.5,73z M24.2,48.3c0,4.3,3.6,7.8,7.8,7.8c4.4,0,7.9-3.6,7.8-8.1
	c-0.1-4.4-3.5-7.7-7.9-7.6C27.6,40.5,24.2,44,24.2,48.3z M48.2,88.5c-0.1-3.6-3.1-6.5-6.6-6.4c-3.6,0.1-6.4,3.1-6.4,6.7
	c0.1,3.6,3.1,6.4,6.6,6.4C45.4,95.1,48.2,92.1,48.2,88.5z M8.7,63.3c-3.6,0-6.4,2.9-6.4,6.5c0,3.7,2.8,6.4,6.5,6.4
	c3.7,0,6.4-2.8,6.4-6.5C15.2,66.2,12.3,63.3,8.7,63.3z M92.7,26.8c-2.9,0-5.2,2.3-5.1,5.2c0.1,2.8,2.3,5,5,5c2.9,0,5.1-2.3,5.1-5.2
	C97.7,29,95.5,26.8,92.7,26.8z M15.4,50.3c-2.7-0.1-4.8,1.9-4.9,4.6c-0.1,2.7,1.9,4.9,4.6,4.9c2.7,0.1,4.8-1.9,4.9-4.6
	C20.1,52.5,18.1,50.3,15.4,50.3z M85.4,16.2c-2.1,0-3.9,1.7-4,3.8c-0.1,2.2,1.8,4.1,4.1,4c2.1-0.1,3.8-1.8,3.8-4
	C89.3,18,87.5,16.3,85.4,16.2z M72.7,16.9c-2.2,0-4,1.8-3.9,4.1c0.1,2.4,1.4,3.7,3.8,3.9c2.3,0.1,4.1-1.6,4.1-3.9
	C76.7,18.7,74.9,16.9,72.7,16.9z M70.7,36.2c-1.3-0.8-2.5-2.2-3.8-2.4c-1.9-0.2-3.2,1.2-3.2,3.3c0.1,2.1,1.4,3.4,3.3,3.1
	c1.3-0.2,2.5-1.7,3.7-2.6C70.7,37.1,70.7,36.7,70.7,36.2z"/>
</svg>
