<?xml version="1.0" encoding="utf-8"?>
<!-- Generator: Adobe Illustrator 23.1.1, SVG Export Plug-In . SVG Version: 6.00 Build 0)  -->
<svg version="1.1" id="Layer_1" xmlns="http://www.w3.org/2000/svg" xmlns:xlink="http://www.w3.org/1999/xlink" x="0px" y="0px"
	 viewBox="0 0 100 100" style="enable-background:new 0 0 100 100;" xml:space="preserve">
<path d="M42.8,44.9h51.3c0,25.1-3.4,50.6-25.7,55.1C48.2,94.7,42.8,70,42.8,44.9L42.8,44.9z M40.9,76.1V70c-3.9,1.1-7.9,1.8-12,2.2
	c0-24.5,0.5-47.6-5.3-70.5c-5.5,23.6-5.8,45.9-5.8,70.6c-4-0.3-8-1.1-12-2.4v6.1h14.7c1.9,7.5,1.4,14.9-0.2,22.4h6
	c-1.5-7.5-1.8-14.9-0.2-22.4H40.9L40.9,76.1z M66.9,11.9c-3.6-6-10.1-10-15.6-11.9c-5.8,1.9-11.5,6-15.4,11.9l0,0
	c3.8,10.2,3.8,12.2,0,22.4c4.2,3.3,8.6,5.3,13,5.9c-0.4-5.5-0.8-10.9,0.3-16.4c-2.9-0.3-5-1.3-7.9-3V14l0,0c7.6,4.1,13.2,4,21.1,0
	v6.9c-2.8,1.4-4.7,2.4-7.5,2.8c0.8,5.5,0.7,10.9,0.3,16.4c4-0.7,7.9-2.6,11.8-5.7C63.9,24.1,63.9,22.1,66.9,11.9z"/>
</svg>
