<?xml version="1.0" encoding="utf-8"?>
<!-- Generator: Adobe Illustrator 23.1.1, SVG Export Plug-In . SVG Version: 6.00 Build 0)  -->
<svg version="1.1" id="Layer_1" xmlns="http://www.w3.org/2000/svg" xmlns:xlink="http://www.w3.org/1999/xlink" x="0px" y="0px"
	 viewBox="0 0 100 100" style="enable-background:new 0 0 100 100;" xml:space="preserve">
<path d="M51.3,0c-0.3,0-0.7,0-1,0c-6.9,0-12.5,7.1-12.5,16c0,4.5,1.5,8.5,3.8,11.4c-1.7,0.3-3.2,0.8-4.6,1.5l0-0.1
	c-4.4,2.2-7.3,6.5-9,12.3c-0.9,3.1-1.4,6.7-1.6,10.4c0,0.1,0,0.3,0,0.4c0,0.2,0,0.4,0,0.6l0,0c0,0.1,0,0.2,0,0.3l0,0
	c0,0.1,0,0.1,0,0.2c-0.1,4.8,0.3,9.8,1.2,14.6h5l-0.2-21.7l0.4-0.4l3.5,0l0.3,26.7l1.8,27.9h9.9V63.1h3.9V100h9.3l2.4-32.4h0
	L64,45.5l3.3,0l0.6,0.7l-0.2,21.4h5.1c3.4-16.5,0-33.2-9.9-38.6l0,0v0c-1.3-0.7-2.7-1.2-4.2-1.5c2.4-2.9,4-7,4-11.6
	c0-8.3-4.9-15.1-11.2-16h0C51.5,0,51.4,0,51.3,0L51.3,0z M22.1,0l4.6,19.9l5.6,7.3c1.1-0.9,2.3-1.6,3.5-2.2
	c-1.2-2.8-1.8-5.9-1.8-9.1c0-0.3,0-0.5,0-0.8L22.1,0L22.1,0z M77.9,0L66.7,14.2c0,0.5,0.1,1.1,0.1,1.7c0,3.5-0.7,6.8-2.1,9.7
	c1,0.5,2,1.2,2.9,1.9l5.8-7.5L77.9,0L77.9,0z M9.5,13.3l9.7,16l7.9,3.8c0.7-1.1,1.4-2.2,2.3-3.2l-6.8-8.8L9.5,13.3L9.5,13.3z
	 M90.5,13.3l-13.2,7.8l-7,9.1c0.8,0.9,1.5,2,2.2,3.1l8.2-3.9L90.5,13.3L90.5,13.3z M2.1,29.8l11.2,8.8L24.2,40l0,0
	c0.3-1.1,0.7-2.2,1.2-3.3L15.7,32L2.1,29.8L2.1,29.8z M97.9,29.8L84.3,32l-9.9,4.7c0.5,1,0.9,2.1,1.2,3.2c0,0,0,0.1,0,0.1l11-1.4
	L97.9,29.8L97.9,29.8z M12.9,42.5L0.3,45l16,5.7l6.1,0.9c0.1-2.7,0.4-5.3,0.9-7.7L12.9,42.5L12.9,42.5z M87.1,42.5l-10.4,1.3
	c0.6,2.5,0.9,5.1,1.1,7.7l5.8-0.9l16-5.7L87.1,42.5L87.1,42.5z M15.8,54.5L0.1,65.6l18.3-0.2l4.3-3.9c-0.2-2-0.3-4-0.4-5.9
	L15.8,54.5L15.8,54.5z M84.2,54.5l-6.3,1c0,2.1-0.1,4.2-0.3,6.4l3.9,3.5l18.3,0.2L84.2,54.5z M14,70.9L3.2,83.2L19,78.9l4.8-7.9
	C23.8,71,14,70.9,14,70.9z M85.9,70.9L76.1,71l4.8,7.9l15.8,4.3L85.9,70.9L85.9,70.9z M29.5,80.3l-8,4l-2.5,14.6l10.7-10.2
	L29.5,80.3L29.5,80.3z M70.3,80.3l-0.2,8.5l10.7,10.2l-2.5-14.6L70.3,80.3L70.3,80.3z"/>
</svg>
