<?xml version="1.0" encoding="utf-8"?>
<!-- Generator: Adobe Illustrator 23.1.1, SVG Export Plug-In . SVG Version: 6.00 Build 0)  -->
<svg version="1.1" id="Layer_1" xmlns="http://www.w3.org/2000/svg" xmlns:xlink="http://www.w3.org/1999/xlink" x="0px" y="0px"
	 viewBox="0 0 200 100" style="enable-background:new 0 0 200 100;" xml:space="preserve">
<g>
	<path d="M102,21.6c0-0.8,0-0.8-0.8-0.9c-2.1-0.2-4.2-0.3-6.3-0.4c-1.3-0.1-2.5,0.3-3.6,1c-0.1,0.1-0.2,0.3-0.2,0.4
		c0,0.4,0,0.7,0,1.1c-0.3,0-0.6,0.1-0.9,0.1c-3.2,0.2-6.5,0.4-9.7,0.5c-5,0.3-10,0.5-15,0.7c-0.4,0-0.6,0.1-0.9,0.3
		c-3.2,2.4-8,2.5-11.3,0.3c-0.2-0.1-0.5-0.2-0.8-0.2c-4.7,0.1-9.4,0-14-0.4c-3.8-0.3-7.5-0.9-11.2-1.5c-3.3-0.6-6.6-1.4-9.9-2.4
		c-0.5-0.2-1-0.3-1.5-0.5c0,3.1,0,6.2,0,9.2c10.6,1,21.3,1.6,32,1.7c0,0.3-0.1,0.5-0.1,0.8c-0.8,0-1.7,0-2.5,0c-0.7,0-1.4,0-2.1,0.3
		c-1.1,0.4-2.2,0.4-3.2-0.2c-0.2-0.1-0.5-0.2-0.8-0.2c-2.1-0.1-4.3-0.2-6.4-0.3c-0.4,0-0.7,0-1.2-0.1c1.2,2.6,2.7,4.8,5.2,6.2
		c3.7,2.1,7.4,1.4,11.1-0.2c0,0.2,0,0.4,0,0.5c0,4.7,0,9.5,0,14.2c0,14.3,0,28.5,0,42.8c0,0.3,0,0.6,0,0.9c0.2,2,1.2,3.5,3,4.2
		c1.9,0.8,3.7,0.5,5.2-0.9c1.2-1.1,1.7-2.5,1.7-4.1c0-10.6,0-21.3,0-31.9c0-0.2,0-0.4,0-0.6c0.2,0,0.3,0,0.4,0c4.7,0,9.3,0,14,0
		c0.3,0,0.4,0.2,0.5,0.4c0.9,2.9,1.7,5.8,2.6,8.7c0.5,1.5,0.9,3.1,1.4,4.7c-0.2,0-0.3,0-0.4,0.1c-1.1,0.3-2.2,0.5-3.3,0.8
		c-0.4,0.1-0.8,0.3-0.8,0.7c0,0.5,0.5,0.6,0.8,0.7c1.1,0.3,2.2,0.6,3.4,0.8c2.7,0.4,5.3,0.5,8,0.4c2.5-0.1,4.9-0.2,7.3-0.8
		c0.6-0.1,1.1-0.4,1.6-0.6c0.5-0.3,0.5-0.6,0-0.9c-0.3-0.2-0.6-0.4-1-0.4c-1.5-0.3-2.9-0.5-4.4-0.8c-0.5-0.1-1-0.1-1.6-0.1
		c0.4-1.2,0.3-2.4-0.1-3.5c-0.7-2.1-1.3-4.3-1.9-6.4c-1-3.3-2-6.7-3-10c-0.3-0.9-0.7-1.7-1.5-2.4c-0.1,0.8-0.2,1.4-0.3,2.1
		c-0.3,2.3-2.4,3.9-4.6,3.5c-2.2-0.3-3.7-2.4-3.4-4.7c0.1-0.7,0.2-1.5,0.3-2.3c-0.7,0-1.2,0-1.8,0c0-5.2,0-10.3,0-15.4
		c0,0,0.1,0,0.1-0.1c0.5,0.8,1,1.5,1.3,2.3c1,2.1,1.3,4.3,1.4,6.6c0.2,3-0.1,5.9-0.6,8.8c-0.3,2,0.8,3.6,2.7,3.9
		c1.7,0.3,3.4-1,3.7-2.8c0.2-2,0.6-4,0.7-6c0.3-3.9,0-7.8-1.3-11.5c-1-2.9-2.5-5.4-5-7.2c-0.1-0.1-0.2-0.2-0.4-0.4
		c0.2,0,0.4,0,0.5,0c1.9-0.1,3.8-0.1,5.6-0.2c3.5-0.1,7.1-0.3,10.6-0.4c0.2,0,0.3,0.1,0.5,0.3c0.4,0.6,0.7,1.2,1.2,1.7
		c0.4,0.5,0.9,0.9,1.4,1.3c1,0.9,1.3,2.3,0.6,3.4c-2.3,3.7-4.6,7.2-7.4,10.6c-0.3,0.3-0.5,0.6-0.8,0.9c0,0.1,0.1,0.1,0.1,0.1
		c0.1,0.1,0.2,0.1,0.3,0.1c2.6,1.4,5.3,2.3,8.3,2.6c2.4,0.3,4.9,0.1,7.2-0.6c0.3-0.1,0.4-0.3,0.4-0.6c0-2.3,0-4.6,0-6.9
		c-0.1-2,0.2-4,0.6-6.1c0.4-2.4,0.9-4.7,0.7-7.2c0-0.1,0-0.2,0-0.3c0.7,0,1.4-0.1,2.1-0.1c0-2.3,0-4.6,0-6.9c-0.7,0-1.4,0.1-2.2,0.1
		C102,21.9,102,21.8,102,21.6z M84.7,77.9c0.9-0.1,1.8-0.2,2.7-0.3c0.2,0,0.3-0.1,0.5-0.2c0-0.1,0-0.1,0-0.2
		c-0.4-0.1-0.8-0.2-1.2-0.2c-0.4,0-0.8,0-1.2-0.1c0,0,0-0.1,0-0.1c0.1-0.1,0.3-0.2,0.4-0.2c1.2,0.1,2.3,0.2,3.5,0.4
		c0.2,0,0.3,0.1,0.4,0.2c0,0,0,0.1,0,0.1c-0.2,0.1-0.4,0.2-0.7,0.3c-1.2,0.2-2.4,0.3-3.7,0.5c-0.4,0-0.8,0-1.2,0.1
		c0,0,0-0.1-0.1-0.1C84.3,78,84.5,77.9,84.7,77.9z M76.8,77.4c0.3-0.2,0.6-0.2,0.8,0.1c0.2,0.2,0.4,0.4,0.7,0.6c0,0,0,0.1,0,0.1
		c-0.5-0.1-0.9-0.2-1.4-0.3c-0.1,0-0.2-0.2-0.3-0.3C76.6,77.5,76.7,77.4,76.8,77.4z"/>
	<path d="M95.1,96.2c-0.3-1.7-0.6-3.4-0.9-5c-0.1-0.3-0.2-0.4-0.5-0.5c-1.3-0.2-2.7-0.4-4-0.5c-0.4,0-0.8-0.2-1.1-0.5
		c-0.9-1-1.2-2.9-0.5-4.1c0.3-0.5,0.7-0.8,1.3-0.9c1.2-0.3,2.3-0.6,3.5-0.9c0.3-0.1,0.3-0.2,0.3-0.5c0-1.6,0-3.2,0-4.7
		c0,0,0-0.1-0.1-0.2c-0.4,0.2-0.7,0.3-1.1,0.4c-1.6,0.5-3.3,0.7-5,0.8c-2.1,0.1-4.2,0.2-6.3,0.1c-1.7,0-3.5-0.2-5.2-0.4
		c-1.2-0.1-2.4-0.4-3.6-1c0,0.3,0,0.4,0,0.6c0.1,3.7,0,7.3-0.4,11c-0.3,2.6-0.7,5.2-1.6,7.7c-0.3,0.8-0.2,0.9,0.6,1.2
		c0.1,0,0.1,0,0.2,0.1c1.9,0.6,3.9,0.8,5.9,0.9c5.4,0.2,10.8,0.4,16.1-0.5c0.8-0.1,1.6-0.4,2.3-0.6c0.4-0.1,0.5-0.3,0.4-0.8
		C95.3,97.4,95.2,96.8,95.1,96.2z"/>
	<path d="M58.8,7.2c-5.5-0.1-9.4,4.4-9.3,9.3c0.1,5,4.3,9.1,9.5,8.9c4.6-0.2,8.7-4.1,8.7-9.1C67.7,11.3,63.7,7.2,58.8,7.2z"/>
	<path d="M58.6,6.2c4.5,0,7.5,2.3,9.5,6.3c0.1-0.4,0.2-0.7,0.2-1.1c-0.1-0.8-0.1-1.5-0.3-2.3c-0.8-3.5-2.6-6.3-5.7-8.1
		c-2.3-1.3-4.6-1.4-6.9-0.2c-3.9,2.1-5.8,5.5-6.4,9.8c-0.1,0.6-0.1,1.2,0.2,1.9C51.1,8.5,54.2,6.2,58.6,6.2z"/>
	<path d="M96.7,83.1c-2.3,0.9-4.7,1.6-7.1,2.1c-0.5,0.1-0.8,0.4-1,0.9c-0.4,1.1-0.3,2.1,0.4,3.1c0.2,0.2,0.6,0.4,0.9,0.5
		c0.9,0.1,1.7,0.1,2.6,0.2c1.4,0.3,2.8,0.7,4.1,1.1c0.6,0.2,0.7,0.2,1-0.3c0.1-0.2,0.2-0.4,0.3-0.6c0.5-1.2,0.8-2.5,0.8-3.8
		c0,0,0.1,0,0.1,0c-0.2-0.9-0.3-1.7-0.6-2.6C97.9,83.1,97.4,82.9,96.7,83.1z M96.9,89.9c0,0.1-0.1,0.2-0.2,0.2c-0.1,0-0.1,0-0.2,0
		c0.4-2,0.5-4,0.4-6c0-0.1,0.1-0.2,0.1-0.4c0.2,0.2,0.3,0.4,0.4,0.6C98.2,86.2,97.9,88.1,96.9,89.9z"/>
	<path d="M35.4,21.4c-0.7-2.4-3.7-3.1-5.4-1.3c-0.5,0.5-0.8,1.2-0.9,2c2.2,0.3,4.4,0.6,6.6,1C35.6,22.4,35.6,21.9,35.4,21.4z"/>
	<path d="M176.4,85.6c-7.8,0-15.5,0-23.3,0c-0.7,0-1.4,0-2.3,0c2.2,2,3.3,4.3,3.3,7.2c0,2.8-1.1,5.2-3.3,7.2c1.2,0,2.1,0,3.1,0
		c7.5,0,15,0,22.5,0c3,0,5.5-1.7,6.4-4.5c0.3-1,0.3-2.2,0.3-3.3C183.1,88.4,180.2,85.6,176.4,85.6z M156.4,89
		c0.1-0.1,0.4-0.1,0.6-0.1c6.5,0,13,0,19.5,0c0.8,0,1.2,0.3,1.3,0.9c0.1,0.7-0.4,1.2-1.2,1.2c-3.3,0-6.6,0-9.9,0c0,0,0,0,0,0
		c-3.2,0-6.4,0-9.6,0c-0.3,0-0.6,0-0.8-0.1c-0.3-0.2-0.6-0.6-0.6-0.9C155.7,89.6,156.1,89.2,156.4,89z M177,95.6c-0.2,0-0.5,0-0.7,0
		c-3.2,0-6.4,0-9.5,0c-3.2,0-6.3,0-9.5,0c-0.2,0-0.4,0-0.6,0c-0.6-0.1-1-0.5-1-1c0-0.6,0.4-1,1-1c0.5,0,1.1,0,1.6,0
		c6,0,12.1,0,18.1,0c0.2,0,0.3,0,0.5,0c0.5,0.1,0.9,0.4,0.9,1C177.9,95.1,177.6,95.5,177,95.6z"/>
	<path d="M135.1,83.4c3.9,0,7.2-3.3,7.2-7.2c0-3.9-3.2-7.2-7.1-7.2c-4,0-7.3,3.2-7.3,7.2C127.9,80.1,131.2,83.4,135.1,83.4z"/>
	<path d="M124.9,85.6c-3.9,0-7.2,3.2-7.2,7.1c0,4,3.2,7.3,7.2,7.3c3.8,0,7.2-3.2,7.2-7C132.1,88.9,129,85.6,124.9,85.6z"/>
	<path d="M145,85.6c-4-0.1-7.3,3-7.4,7c-0.1,3.9,3.1,7.2,7.1,7.4c3.8,0.1,7.2-3.1,7.3-7C152.1,89.1,148.9,85.7,145,85.6z"/>
	<path d="M138.3,85.6c-2.5,0-4.9,0-7.3,0c2.2,2,3.3,4.3,3.3,7.1c0,2.8-1.1,5.2-3.3,7.2c2.5,0,4.8,0,7.3,0c-2.1-2-2.9-4.4-2.9-7.2
		C135.3,90,136.2,87.6,138.3,85.6z"/>
	<path d="M143.3,46.3c2.6,3.4,5.8,6.2,8.1,8c1.2-1.4,2.5-3.1,3.5-4.5c-2.3-1.8-5.8-4.8-8.6-8.4c-2.8-3.7-5.6-9-11.2-9.9
		c0,0-1.2,0.8-1.9,2c-0.7,1.2-1,2.9-1,2.9C137.6,37.3,140.4,42.6,143.3,46.3z"/>
	<path d="M143.2,61.4c0,0,1.3,3.9,5.2,7c0.3,0.2,0.5,0.4,0.7,0.6c-2.4,0-4.8,0-7.2,0c-0.2,0-0.5,0-0.9,0c2.2,2,3.3,4.4,3.4,7.2
		c0,2.8-1.1,5.2-3.3,7.2c0.3,0,0.4,0,0.5,0c8.5,0,16.9,0,25.4,0c2.8,0,5.3-1.8,6.1-4.5c0.3-1,0.3-2.1,0.3-3.2c0-3.9-2.8-6.8-6.8-6.8
		c-3.4,0-6.8,0-10.1,0c0.9-2.2,2.4-5.5,3.8-7.6c2.3-3.5,5.1-5.4,5.1-5.4s-0.7-2.2-3.3-4.4c-2.6-2.2-4.6-3.1-4.6-3.1
		s-3.1,4.9-5.8,7.6C148.9,58.8,143.2,61.4,143.2,61.4z M168.4,80.1c-0.2,0.1-0.5,0.1-0.7,0.1c-6.4,0-12.8,0-19.1,0
		c-0.2,0-0.5,0-0.7,0c-0.5-0.1-0.8-0.4-0.8-1c0-0.6,0.3-0.9,0.8-1c0.2-0.1,0.4,0,0.7,0c3.2,0,6.4,0,9.6,0c3.2,0,6.4,0,9.7,0
		c0.2,0,0.4,0,0.6,0.1c0.5,0.1,0.7,0.5,0.7,1C169.2,79.6,168.9,79.9,168.4,80.1z M167.8,73.3c0.2,0,0.5,0,0.6,0.1
		c0.3,0.3,0.7,0.6,0.7,0.9c0,0.3-0.3,0.7-0.6,1c-0.2,0.1-0.5,0.1-0.8,0.1c-3.2,0-6.5,0-9.7,0c-3.2,0-6.4,0-9.6,0
		c-0.3,0-0.6,0-0.8-0.1c-0.3-0.2-0.6-0.6-0.6-0.9c0-0.3,0.4-0.7,0.6-0.9c0.2-0.1,0.5-0.1,0.7-0.1C154.9,73.3,161.3,73.3,167.8,73.3z
		"/>
</g>
</svg>
