<?xml version="1.0" encoding="utf-8"?>
<!-- Generator: Adobe Illustrator 23.1.1, SVG Export Plug-In . SVG Version: 6.00 Build 0)  -->
<svg version="1.1" id="Layer_1" xmlns="http://www.w3.org/2000/svg" xmlns:xlink="http://www.w3.org/1999/xlink" x="0px" y="0px"
	 viewBox="0 0 100 100" style="enable-background:new 0 0 100 100;" xml:space="preserve">
<path d="M71.8,0L35,53.7l0.3,0.2l6.7,4.7L78.9,4.9L71.8,0L71.8,0z M90.8,13.1c-4.2,6.2-9.3,4.9-14.4,1.9L66.1,30.3
	c4.5,3.5,7.7,7.5,3.9,13l9,6.2l6.1-8.9l-3.1-1.9c-0.7,0.4-1.4,0.6-2.3,0.6c-2.5,0-4.5-2-4.5-4.5c0-2.5,2-4.5,4.5-4.5
	c2.5,0,4.5,2,4.5,4.5c0,0,0,0.1,0,0.1l3.3,2.1l3.8-5.5l-7.9-4.9l2.3-3.7l3.1,2l2.1-3.4l5.1,3.2l3.6-5.3L90.8,13.1L90.8,13.1z
	 M26.5,53.1c-0.1,0-0.1,0-0.2,0c-0.2,0-0.3,0.1-0.5,0.1c-0.7,0.2-1.6,0.9-2.1,1.7c-0.6,0.8-0.9,1.8-0.8,2.6c0,0.8,0.3,1.3,1.1,1.9
	L40,70.7c0.7,0.5,1.2,0.5,1.9,0.2c0.7-0.3,1.5-0.9,2.1-1.7c0.6-0.8,0.9-1.8,0.9-2.6c0-0.7-0.2-1.2-0.9-1.7L27.9,53.6
	C27.4,53.2,26.9,53.1,26.5,53.1L26.5,53.1z M14.5,62.4c-5.1,0.1-9.6,2-12.1,5.7c-3.6,5.2-2.5,12.6,2,19c-0.4,1-0.6,2.1-0.6,3.2
	c0,4.9,4,8.9,8.9,8.9c1.8,0,3.5-0.6,4.9-1.5c9.1,3.9,18.5,2.7,22.8-3.5c3.9-5.7,2.3-14.1-3.4-20.9l-13.3-9.3c-3-1.1-5.9-1.6-8.7-1.6
	C14.8,62.4,14.6,62.4,14.5,62.4L14.5,62.4z M12.7,85.4c2.8,0,5,2.2,5,5c0,2.8-2.2,5-5,5c-2.8,0-5-2.2-5-5
	C7.7,87.6,9.9,85.4,12.7,85.4L12.7,85.4z"/>
</svg>
