<?xml version="1.0" encoding="utf-8"?>
<!-- Generator: Adobe Illustrator 23.1.1, SVG Export Plug-In . SVG Version: 6.00 Build 0)  -->
<svg version="1.1" id="Layer_1" xmlns="http://www.w3.org/2000/svg" xmlns:xlink="http://www.w3.org/1999/xlink" x="0px" y="0px"
	 viewBox="0 0 160 100" style="enable-background:new 0 0 160 100;" xml:space="preserve">
<style type="text/css">
	.lightgraylogoopacity{fill-opacity:0.1;}
</style>
<path class="lightgraylogoopacity" d="M79.5,7.4l51.3,88.9H28.2L79.5,7.4 M79.5,0l-3.2,5.5L25,94.5l-3.2,5.5h6.4h102.7h6.4l-3.2-5.5l-51.4-89L79.5,0
	L79.5,0z"/>
<g>
	<path d="M0,55.4c0-0.2,0-0.4,0.1-0.6c0.1-0.2,0.2-0.3,0.4-0.3L2,54.3c0.3-0.1,0.6-0.1,0.9-0.2c0.3,0,0.6-0.1,0.8-0.2
		c0.3-0.1,0.5-0.2,0.8-0.3C4.7,53.5,5,53.3,5.2,53c0-0.1,0.1-0.2,0.1-0.2c0-0.1,0-0.2,0-0.3c0-0.2,0-0.4,0.1-0.5c0-0.3,0-0.6,0-0.8
		s0-0.5-0.1-0.8c0-0.1,0-0.3,0-0.4c0-0.1,0-0.2,0-0.2c0-0.2,0-0.3,0-0.4c0-0.1,0-0.2,0.1-0.4c0-0.3,0-0.6,0-0.9c0-0.2,0-0.5,0-0.7
		c0-0.4,0.1-0.8,0.2-1.3l-0.2-2.7c0,0,0-0.1-0.1-0.3c0-0.1,0-0.2,0-0.3c0.1-0.1,0.1-0.3,0.2-0.5s0.1-0.4,0.1-0.6
		c0-0.3-0.1-0.7-0.1-1s0-0.7-0.1-1c0-0.1-0.1-0.2-0.1-0.2c-0.1-0.1-0.1-0.1-0.1-0.3c0-0.1,0-0.2,0.1-0.3C5.4,39.1,5.4,39,5.4,39
		v-0.9c0-0.3,0-0.5,0-0.9c0-0.3,0-0.6-0.1-1c0-0.3-0.1-0.7-0.2-1s-0.2-0.7-0.3-1c-0.1,0-0.1-0.1-0.3-0.2c-0.1-0.1-0.2-0.2-0.3-0.2
		c-0.1-0.1-0.2-0.2-0.3-0.2C4,33.6,4,33.5,4,33.5c-0.1-0.1-0.3-0.2-0.5-0.2c-0.2-0.1-0.4-0.1-0.7-0.2C2.6,33,2.4,33,2.1,32.9
		s-0.5-0.2-0.7-0.3S1,32.4,0.9,32.2c-0.1-0.1-0.2-0.3-0.2-0.5c0-0.1,0-0.1,0.1-0.2c0.1,0,0.2-0.1,0.3-0.1s0.2-0.1,0.3-0.1
		c0.1,0,0.2,0,0.3,0c0.1,0,0.3,0,0.3,0c0.1,0,0.1,0,0.2,0c0.1,0,0.2,0,0.2,0c0.4,0,0.8,0,1.3-0.1c0.4,0,0.9,0,1.3,0s0.8,0,1.2,0
		c0.4,0,0.8,0,1.2,0.1c0,0.1,0.1,0.1,0.2,0.1s0.1,0,0.2,0c0.5,0,1-0.1,1.4-0.2s0.7-0.1,1.1-0.2c0.3-0.1,0.6-0.1,0.9-0.2
		s0.6-0.1,1-0.2h0.4c0.2,0,0.5,0,0.8,0s0.6,0,0.9,0.1c0.3,0.1,0.5,0.1,0.8,0.3c0.2,0.1,0.3,0.3,0.3,0.5c0,0.1,0,0.2,0,0.4
		c0,0.1,0,0.3-0.1,0.4s-0.2,0.2-0.5,0.2c-0.3,0.1-0.6,0.1-1,0.1c-0.3,0-0.7,0.1-1,0.1s-0.6,0-0.7,0c-0.1,0-0.1,0-0.2,0.1
		c-0.1,0-0.1,0-0.2,0c-0.1,0-0.1,0-0.2,0l-0.3,0.1c-0.4,0-0.8,0.1-1,0.1s-0.4,0.1-0.5,0.2c-0.1,0.1-0.2,0.2-0.2,0.3S9.4,33.8,9.4,34
		s0,0.4,0,0.6c0,0.2,0,0.4-0.1,0.7L9,35.9c0,0.2,0,0.3,0.1,0.5s0.1,0.4,0.2,0.5c0.1,0.2,0.1,0.4,0.2,0.6c0.1,0.2,0.1,0.4,0.1,0.6
		l-0.1,1.4l0.3,1.1c0,0.3,0,0.5-0.1,0.7S9.6,41.7,9.5,42c-0.1,0.3-0.1,0.7-0.1,1.1c0,0.4,0,0.8,0,1.1v0.6c0,0.3,0.1,0.5,0.2,0.6V49
		c-0.1,0.1-0.1,0.2-0.1,0.2c0,0.1,0,0.1,0,0.2c0,0.2,0,0.3,0.1,0.5s0.1,0.3,0.1,0.4c0,0.3,0,0.5-0.1,0.8s-0.1,0.5-0.2,0.7v0.1
		c0,0,0,0.1,0,0.2c0,0.1,0,0.1,0,0.2c0,0.2,0.1,0.4,0.3,0.6c0.2,0.2,0.4,0.4,0.7,0.5c0.3,0.2,0.5,0.3,0.8,0.4
		c0.3,0.1,0.5,0.1,0.7,0.1l0.8-0.2c0,0,0.1,0,0.2,0.1c0.1,0.1,0.2,0.1,0.4,0.1s0.3,0,0.4-0.1c0,0.2,0.1,0.2,0.3,0.2l0.6,0.3l1.1,0.1
		l0.5,0.1h0.3c0.3,0,0.7-0.1,1-0.1s0.7-0.1,1-0.2c0.3-0.1,0.6-0.2,0.9-0.3s0.6-0.3,0.8-0.5l0.1-0.1c0,0,0.1-0.1,0.1-0.2
		c0.1-0.2,0.1-0.4,0.2-0.5s0.2-0.2,0.3-0.3c0.1-0.1,0.2-0.2,0.4-0.3c0.1-0.1,0.2-0.2,0.4-0.3c0.2-0.1,0.3-0.3,0.4-0.6
		c0.1-0.2,0.3-0.5,0.4-0.7c0.1-0.1,0.3-0.2,0.4-0.4c0.2-0.1,0.3-0.3,0.5-0.4c0.2-0.1,0.4-0.2,0.5-0.3s0.3-0.1,0.5-0.1
		c0.1,0,0.1,0,0.2,0s0.2,0,0.3,0.1c0.1,0,0.2,0.1,0.2,0.1c0.1,0,0.1,0.1,0.1,0.2c0,0.3,0,0.5-0.1,0.7c0,0.2-0.1,0.3-0.2,0.5
		c-0.1,0.1-0.2,0.3-0.3,0.4c-0.1,0.1-0.2,0.3-0.4,0.4c0,0.1-0.1,0.1-0.1,0.3c0,0.1,0,0.2,0,0.3s0,0.2,0,0.3s0,0.2,0,0.2
		c0,0.2-0.1,0.3-0.2,0.4c-0.1,0.1-0.2,0.3-0.3,0.4c-0.1,0.1-0.2,0.2-0.3,0.3c-0.1,0.1-0.2,0.2-0.2,0.3L23,54.7
		c-0.1,0.6-0.4,1.1-0.8,1.4c-0.4,0.3-0.9,0.4-1.5,0.4l-1.4-0.3L19,56.4h-2c-0.2-0.1-0.5-0.2-0.6-0.3c-0.2,0-0.4,0-0.7,0
		s-0.5,0-0.8,0.1c-0.2,0.1-0.5,0.1-0.7,0.1H14L11.3,56L11,55.9H9.3c-0.1-0.1-0.2-0.2-0.3-0.2s-0.2,0-0.4,0c-0.1,0-0.2,0-0.3,0
		S8.1,55.8,8,55.8H5.1C5,56,4.7,56.1,4.3,56.2c-0.4,0.1-0.8,0.2-1.2,0.2s-0.8,0.1-1.2,0.1s-0.7,0-0.9,0s-0.3,0-0.4-0.1
		s-0.2-0.2-0.3-0.3C0.1,56,0.1,55.9,0,55.7C0,55.6,0,55.5,0,55.4z"/>
	<path d="M25.8,56.3c-0.1,0-0.3,0-0.3,0.1s-0.2,0.1-0.2,0.1s-0.1,0-0.2-0.1c-0.1,0-0.2-0.1-0.3-0.2c0,0,0,0,0-0.1s0-0.1,0-0.2
		c0-0.1,0-0.2-0.1-0.3c0,0,0,0,0-0.1s0.1-0.1,0.1-0.2c0-0.1,0.1-0.1,0.1-0.2C24.9,55,25,55,25,55l0.3-0.2h0.4c0.3,0,0.5,0,0.7-0.1
		c0.2,0,0.4-0.2,0.5-0.4c0-0.4,0.1-0.8,0.1-1.2s0.1-0.7,0.2-1.1l0.2-0.8v-1.7l0.1-1.6v-1.1c0,0,0-0.1,0-0.2s0-0.2-0.1-0.3
		s0-0.2-0.1-0.4c0-0.1,0-0.2,0-0.3V44c0-0.1-0.1-0.3-0.2-0.5s-0.2-0.3-0.3-0.4L26.3,43c-0.2-0.1-0.4-0.3-0.5-0.5
		c-0.2-0.2-0.3-0.4-0.4-0.6c0-0.1,0-0.2,0.1-0.3s0.1-0.1,0.2-0.2c0.1,0,0.2-0.1,0.3-0.1c0.1,0,0.2,0,0.3-0.1l1.3-0.7
		c0.1,0,0.2-0.1,0.3-0.1c0.1,0,0.2-0.1,0.2-0.1s0.1-0.1,0.2-0.1s0.1-0.1,0.2-0.2H29c0.1,0,0.2,0,0.3,0c0.1,0,0.2,0,0.2,0
		s0.1,0,0.2,0s0.2,0,0.3,0.1c0.1,0,0.2,0,0.3,0.1c0.1,0,0.1,0,0.2,0.1c0.1,0,0.2,0.1,0.2,0.3c0,0.1,0,0.3,0,0.4v0.6L30.6,42
		c-0.1,0.8-0.1,1.5-0.1,2.3s0,1.5,0,2.3l-0.1,0.6v0.1c0,0.1,0,0.2,0,0.3s0,0.2,0,0.3s0,0.2,0,0.2c0,0.1,0,0.2,0,0.3s0,0.2,0,0.3
		s0,0.2,0,0.2c0,0.1,0,0.1,0,0.1s0,0.1,0,0.2c0,0.1,0,0.2,0.1,0.2v0.4c0,0,0,0.1,0,0.3s0,0.3,0,0.5s0,0.4,0,0.6c0,0.2,0,0.3,0,0.4
		c0,0.1,0,0.3,0,0.5s0,0.5,0.1,0.7c0,0.3,0.1,0.5,0.1,0.7s0,0.4,0,0.5s0.1,0.2,0.2,0.3s0.2,0.1,0.3,0.2c0,0,0.1,0,0.2,0s0.2,0,0.4,0
		c0.1,0,0.3,0,0.4,0s0.2,0,0.2,0c0.1,0.1,0.2,0.2,0.2,0.3c0.1,0.1,0.1,0.2,0.1,0.4s0,0.3,0,0.5S32.6,56,32.5,56
		c-0.1,0.1-0.3,0.2-0.5,0.2s-0.4,0-0.5,0H31L30.6,56h-2.2c0,0-0.1,0-0.2,0s-0.2,0-0.3,0h-0.5L25.8,56.3z M26.4,32.5l0.6-0.6l0.6-0.5
		l0.2-0.4c0.1-0.1,0.3-0.2,0.5-0.2s0.3,0,0.5,0H29c0,0,0,0,0.1,0.1c0.1,0,0.1,0,0.2,0.1c0.1,0,0.1,0,0.2,0.1c0.1,0,0.1,0,0.1,0
		s0.1,0,0.2,0.1c0.1,0,0.2,0,0.3,0.1c0.1,0,0.2,0,0.3,0c0.1,0,0.2,0,0.2,0s0.1,0.1,0.2,0.2s0.1,0.3,0.2,0.4c0,0.2,0.1,0.3,0.1,0.5
		c0,0.1,0,0.2,0,0.3c0,0.3,0,0.6-0.1,0.8c-0.1,0.3-0.2,0.5-0.5,0.7c0,0,0,0-0.1,0s-0.1,0-0.2,0.1c-0.1,0-0.1,0-0.3,0.1
		c0,0,0,0.1-0.1,0.1c0,0.1-0.1,0.1-0.2,0.2c-0.1,0.1-0.1,0.1-0.2,0.1s-0.1,0.1-0.1,0.1c-0.1,0-0.2,0.1-0.3,0.1s-0.3,0-0.4,0h-0.7
		c-0.1,0-0.2,0-0.3,0s-0.2-0.1-0.4-0.2c-0.2-0.3-0.4-0.6-0.6-0.8c-0.2-0.3-0.3-0.6-0.3-1L26.4,32.5z"/>
	<path d="M37.7,66.5c-0.1-0.1-0.3-0.2-0.5-0.3c-0.2,0-0.4-0.1-0.5-0.1c-0.4-0.2-0.9-0.3-1.3-0.6c-0.4-0.2-0.8-0.5-1.1-0.8
		s-0.6-0.7-0.8-1.1c-0.2-0.4-0.3-0.8-0.3-1.3c0-0.1,0-0.3,0-0.6s0.1-0.5,0.1-0.8c0.1-0.3,0.1-0.5,0.2-0.8c0.1-0.3,0.2-0.4,0.3-0.6
		c0.1-0.1,0.2-0.3,0.4-0.3c0.2-0.1,0.4-0.2,0.6-0.3c0.2-0.1,0.4-0.2,0.5-0.3s0.2-0.3,0.2-0.5c0-0.3-0.1-0.6-0.3-0.8
		s-0.4-0.4-0.6-0.6s-0.4-0.4-0.6-0.6c-0.2-0.2-0.3-0.5-0.3-0.8c0-0.1,0-0.3,0-0.5s0-0.3,0.1-0.5c0-0.2,0.1-0.3,0.1-0.5
		s0.1-0.3,0.2-0.4c0.1-0.1,0.2-0.2,0.3-0.4c0.1-0.1,0.2-0.3,0.3-0.4c0.1-0.1,0.2-0.3,0.3-0.4c0.1-0.1,0.2-0.2,0.3-0.3
		s0.2-0.1,0.4-0.2c0.1,0,0.2-0.1,0.3-0.2c0.1-0.1,0.2-0.1,0.2-0.2c0.1-0.1,0.1-0.2,0.1-0.3c0-0.2,0-0.3-0.1-0.5s-0.2-0.3-0.3-0.4
		c-0.1-0.1-0.2-0.3-0.4-0.4c-0.1-0.1-0.3-0.3-0.4-0.4L35,49.1c0-0.2,0-0.3,0-0.3s0,0-0.1,0c0,0,0-0.1-0.1-0.3s-0.2-0.5-0.3-0.7
		c-0.1-0.3-0.2-0.5-0.3-0.8s-0.1-0.5-0.1-0.6v-0.6c0-0.2,0-0.3,0.1-0.3s0.2-0.1,0.2-0.2c0-0.1-0.1-0.2-0.1-0.3s-0.1-0.3-0.1-0.5
		c0,0,0-0.1,0.1-0.1c0-0.1,0.1-0.1,0.1-0.1c0.5-1.1,1-1.9,1.5-2.5s1-1.1,1.6-1.4c0.6-0.3,1.3-0.5,2.1-0.6s1.8-0.1,3-0.1h0.1
		c0.2,0.1,0.5,0.2,0.8,0.3s0.5,0.2,0.7,0.3l0.5,0.4c0.2,0.2,0.4,0.3,0.7,0.4c0.3,0.1,0.6,0.2,0.9,0.3l0.6,0.1c0.1,0,0.2,0.1,0.3,0.1
		l0,0c0.1,0,0.2,0,0.3-0.1s0.2-0.2,0.2-0.3c0.1-0.1,0.2-0.2,0.2-0.3c0.1-0.1,0.2-0.2,0.2-0.3c0.4-0.3,0.8-0.6,1.3-0.9
		c0.5-0.3,1-0.4,1.5-0.4s0.9,0.2,1.1,0.5c0.3,0.3,0.4,0.7,0.4,1.1c0,0.2,0,0.4,0,0.6c0,0.2-0.1,0.4-0.1,0.6
		c-0.1,0.2-0.2,0.3-0.4,0.4c-0.2,0.1-0.4,0.2-0.7,0.2c-0.2-0.3-0.4-0.4-0.5-0.5c-0.2-0.1-0.3-0.1-0.5-0.1h-0.7
		c-0.3,0-0.5,0.1-0.7,0.4c-0.2,0.2-0.4,0.5-0.6,0.9c-0.2,0.3-0.3,0.7-0.4,1c-0.1,0.4-0.1,0.7-0.1,0.9l0.2,1.5c0,0.4-0.1,0.8-0.2,1.2
		c-0.1,0.4-0.3,0.7-0.5,1c-0.2,0.2-0.3,0.5-0.4,0.8c-0.1,0.3-0.3,0.5-0.5,0.7L46,50.6c-0.5,0.2-0.8,0.3-1.1,0.5
		c-0.3,0.1-0.6,0.3-0.9,0.4s-0.6,0.2-1,0.2c-0.4,0.1-0.8,0.1-1.3,0.1H41l-2.6-0.2c-0.7,0-1.2,0.2-1.6,0.6c-0.4,0.4-0.6,0.9-0.6,1.6
		V54c0.1,0.3,0.2,0.5,0.3,0.7c0.1,0.1,0.3,0.2,0.4,0.2c0.2,0,0.4,0.1,0.5,0.1s0.4,0.1,0.7,0.2c0.2,0,0.5,0,0.7-0.1s0.5,0,0.8,0
		c0.1,0,0.2,0,0.3,0s0.2,0,0.3,0h1.1l1,0.3H43c0.2,0,0.3,0,0.4,0c0.1,0,0.2,0,0.3,0s0.1,0,0.2,0s0.2,0,0.3,0c0.2,0,0.3,0.1,0.5,0.1
		c0.2,0.1,0.3,0.1,0.5,0.1h1.2c0.1,0,0.3,0,0.4,0.1c0.1,0.1,0.3,0.1,0.4,0.2c0.1,0.1,0.3,0.1,0.4,0.2c0.1,0.1,0.2,0.1,0.3,0.1
		c0.2,0.1,0.3,0.2,0.4,0.3c0.1,0.1,0.3,0.1,0.4,0.2c0.1,0.1,0.2,0.1,0.3,0.2c0.1,0.1,0.1,0.1,0.1,0.2c0.1,0.1,0.2,0.2,0.3,0.4
		s0.3,0.4,0.4,0.6c0.1,0.2,0.3,0.5,0.4,0.7c0.1,0.3,0.2,0.6,0.3,0.9c0,0.1,0,0.2,0,0.2c0,0.1,0,0.1,0,0.2c-0.1,0.7-0.2,1.2-0.3,1.7
		c-0.1,0.4-0.2,0.8-0.4,1.2c-0.2,0.3-0.4,0.6-0.7,0.9c-0.3,0.3-0.7,0.6-1.2,1c-0.4,0.3-0.8,0.6-1.1,0.9c-0.4,0.3-0.8,0.6-1.2,0.7
		l-1.3,0.3c0,0-0.1,0-0.2,0.1S44,67,43.9,67c-0.4,0-0.7,0-0.9,0.1c-0.3,0-0.5,0-0.7,0.1s-0.5,0-0.7,0s-0.5,0-0.9,0
		c-0.3,0-0.5,0-0.8,0c-0.2,0-0.5,0-0.7,0s-0.5,0-0.7-0.1C38.3,66.5,38,66.5,37.7,66.5z M35.9,59.7c0,0.1,0,0.3-0.1,0.4
		c0,0.1,0,0.2,0,0.4s0,0.3,0,0.5s0.1,0.4,0.1,0.6c0,0,0,0.1,0.1,0.2c0.1,0.1,0.1,0.3,0.2,0.4c0.1,0.2,0.2,0.3,0.3,0.5
		c0.1,0.1,0.1,0.3,0.2,0.3c0.1,0.1,0.1,0.2,0.1,0.3s0.1,0.2,0.1,0.3s0.1,0.2,0.1,0.3s0.1,0.1,0.2,0.2c0.2,0.1,0.4,0.1,0.6,0.2
		c0.2,0.1,0.4,0.2,0.5,0.2c0.2,0.1,0.4,0.2,0.7,0.2c0.3,0.1,0.5,0.1,0.8,0.2s0.5,0.1,0.7,0.1s0.4,0.1,0.5,0.1h0.1l0,0
		c0.2,0,0.4,0.1,0.6,0.1c0.2,0,0.4,0,0.5,0c0.2,0,0.5,0,0.7,0s0.4,0,0.6-0.1c0.2-0.1,0.5-0.1,0.7-0.2c0.2,0,0.5-0.1,0.7-0.2
		s0.4-0.2,0.6-0.3c0.2-0.1,0.3-0.3,0.4-0.5l1.1-0.5c0.1-0.6,0.1-1.1,0.2-1.6c0.1-0.5,0.1-1,0.1-1.6c0-0.5-0.1-1-0.4-1.3
		c-0.3-0.3-0.6-0.6-1-0.8s-0.8-0.3-1.3-0.4c-0.5-0.1-0.9-0.1-1.3-0.1c-0.6,0-1.1-0.1-1.7-0.1c-0.5-0.1-1.1-0.1-1.6-0.1
		c-0.1,0-0.2,0-0.4,0s-0.3,0-0.5,0c-0.3,0-0.6,0-0.8,0.1c-0.3,0-0.5,0.1-0.7,0.3c-0.1,0.1-0.1,0.1-0.2,0.3c-0.1,0.1-0.1,0.2-0.2,0.2
		c-0.1,0.1-0.2,0.1-0.3,0.2c-0.1,0-0.2,0.1-0.4,0.2c-0.1,0.1-0.2,0.2-0.3,0.2c-0.2-0.2-0.2-0.1-0.2,0L35.9,59.7z M37.5,47.7
		c0.1,0.1,0.1,0.2,0.2,0.3c0.1,0.1,0.1,0.1,0.2,0.2c0.1,0.1,0.1,0.1,0.2,0.2c0.1,0.1,0.2,0.2,0.3,0.3c0.1,0.2,0.3,0.4,0.4,0.6
		c0.1,0.2,0.3,0.4,0.4,0.6c0.1,0.2,0.3,0.3,0.5,0.5c0.2,0.1,0.4,0.2,0.7,0.2c0.4,0,0.8-0.1,1.1-0.2c0.3-0.1,0.6-0.2,0.9-0.4
		c0.3-0.2,0.5-0.4,0.7-0.7s0.4-0.5,0.6-0.8c0.2-0.2,0.3-0.4,0.5-0.5c0.2-0.2,0.3-0.4,0.4-0.6c0.1-0.3,0.1-0.5,0.2-0.9
		c0-0.3,0.1-0.6,0.1-0.9c-0.1-0.6-0.2-1-0.3-1.5c-0.1-0.4-0.2-0.8-0.4-1.1s-0.5-0.6-0.8-0.8s-0.8-0.4-1.4-0.5
		c-0.2,0-0.4-0.1-0.6-0.2c-0.2-0.1-0.4-0.2-0.5-0.2c-0.3,0-0.5,0.1-0.8,0.2c-0.3,0.1-0.5,0.3-0.8,0.5c-0.2,0.2-0.5,0.4-0.7,0.6
		c-0.2,0.2-0.4,0.4-0.5,0.6c-0.1,0.3-0.2,0.5-0.3,0.6c-0.1,0.2-0.3,0.4-0.4,0.6v2c0,0.3,0,0.5,0,0.7C37.3,47.2,37.4,47.4,37.5,47.7z
		"/>
	<path d="M50.9,55.3c0,0,0-0.1,0.1-0.2l0.1-0.1l0.5-0.2c0.2-0.1,0.4-0.1,0.5-0.1c0.2,0,0.3-0.1,0.5-0.1c0.1,0,0.3-0.1,0.4-0.1
		c0.1-0.1,0.3-0.1,0.4-0.3l0.1-0.1c0-0.1,0.1-0.1,0.1-0.2c0-0.1,0.1-0.2,0.1-0.2c0-0.1,0.1-0.1,0.1-0.2v-0.3l-0.1-0.8l0.3-1.1
		c0-0.2,0-0.3-0.1-0.4c0-0.1-0.1-0.3-0.1-0.4v-0.1c0-0.1,0-0.1,0.1-0.2c0-0.1,0.1-0.2,0.1-0.3l-0.1-1.8c0-0.4,0-0.7,0.1-1
		c0-0.3,0.1-0.6,0.1-0.9v-0.7v-0.1c0-0.1,0-0.1,0-0.2c0-0.1,0-0.2-0.1-0.3s-0.1-0.2-0.1-0.3c0-0.2-0.1-0.4-0.1-0.6
		c0-0.2-0.1-0.3-0.1-0.5L54,38v-0.5c0-0.2,0-0.4-0.1-0.5c-0.1-0.2-0.1-0.4-0.2-0.5c-0.1-0.2-0.1-0.4-0.1-0.6c0-0.2-0.1-0.4-0.1-0.6
		l0.2-0.8c0,0-0.1-0.1-0.1-0.2c-0.1-0.1-0.1-0.2-0.1-0.3s-0.1-0.2-0.1-0.3s-0.1-0.2-0.1-0.2l-1-0.8c-0.1,0-0.2-0.1-0.2-0.1
		c-0.1-0.1-0.2-0.1-0.3-0.2c-0.1,0-0.1-0.1-0.2-0.1c0,0-0.1-0.1-0.1-0.2c0-0.1-0.1-0.2-0.2-0.3c0-0.1,0-0.1,0-0.1v-0.1
		c0,0,0-0.1,0-0.2s0-0.1,0.1-0.1c0-0.1,0.1-0.1,0.2-0.2c0.1-0.1,0.2-0.1,0.3-0.2s0.2-0.1,0.3-0.1s0.1-0.1,0.2-0.1c0,0,0,0,0.1,0
		s0.1,0,0.2,0c0.1,0,0.1,0,0.2-0.1c0.1,0,0.1,0,0.1,0s0.1,0,0.2,0c0.1,0,0.2,0,0.2-0.1c0.4-0.2,0.8-0.3,1.2-0.4s0.8-0.2,1.3-0.3
		c0.3,0.1,0.5,0.2,0.7,0.3c0.2,0.1,0.3,0.3,0.5,0.5v3v0.1c0,0.1,0,0.1,0,0.2c0,0.1,0,0.2,0,0.2c0,0.1,0,0.1,0,0.2l-0.3,1.5
		c0,0.1,0,0.2,0.1,0.3c0,0.1,0.1,0.2,0.1,0.2c0,0.1,0.1,0.1,0.1,0.2c0,0.1,0.1,0.2,0.1,0.3c0,0.2-0.1,0.4-0.2,0.6
		c-0.1,0.2-0.2,0.3-0.2,0.5V38c0,0.2,0.1,0.3,0.1,0.5s0,0.3,0,0.5s0,0.3,0,0.5S57,39.9,57,40c0.1,0.3,0.2,0.5,0.3,0.7
		s0.3,0.4,0.5,0.5c0.1,0,0.3,0,0.4-0.1c0.1-0.1,0.2-0.1,0.3-0.2c0.1-0.1,0.2-0.2,0.2-0.3s0.2-0.2,0.3-0.2l0.3-0.2h1.3
		c0.4,0,0.8-0.1,1.2-0.3c0.4-0.1,0.8-0.2,1.3-0.2c0.2,0,0.4,0.1,0.5,0.2c0.2,0.1,0.3,0.2,0.5,0.3c0.1,0,0.2,0,0.3,0.1
		c0.1,0,0.2,0.1,0.2,0.1c0.2,0.1,0.3,0.1,0.5,0.3c0.2,0.1,0.4,0.2,0.6,0.4c0.2,0.1,0.3,0.3,0.5,0.5s0.3,0.4,0.4,0.6
		c0,0,0,0.1,0.1,0.3c0,0.2,0.1,0.3,0.1,0.4v1.2l0.2,0.6c0,0.2,0,0.4,0,0.5s0,0.2-0.1,0.4V48l0.3,0.5v0.1c0,0.1,0,0.1,0,0.2
		c0,0.1,0,0.1-0.1,0.2c0,0,0,0.1,0,0.2c0,0.1,0,0.2,0,0.3s0,0.2,0,0.3s0,0.1,0,0.2v0.7c0,0.1,0.1,0.2,0.1,0.4s0.1,0.3,0.2,0.3v1.9
		l0.1,0.8c0,0.1,0,0.2,0.1,0.3c0,0.1,0.1,0.1,0.1,0.2c0,0,0.1,0.1,0.2,0.1s0.2,0.1,0.3,0.2l0.3,0.1c0.1,0,0.2,0.1,0.3,0.1
		c0.1,0,0.2,0,0.2,0c0.1,0,0.1,0,0.2,0.1s0.2,0.1,0.3,0.1c0,0.1,0.1,0.2,0.1,0.3c0.1,0,0.1,0.1,0.1,0.1s0,0.1,0.1,0.2
		c0,0.1,0.1,0.2,0.1,0.3s0,0.2-0.1,0.3s-0.1,0.1-0.2,0.2l0,0c-0.1,0.1-0.2,0.1-0.3,0.2C69.2,57,69.1,57,68.9,57h-0.5
		c-0.2,0-0.5,0-0.7-0.1s-0.4-0.1-0.6-0.1L66,57h-2.2l-1.4-0.3c-0.2,0-0.3,0-0.5,0s-0.3-0.1-0.4-0.1c-0.1,0-0.2-0.1-0.2-0.2
		s0-0.2,0-0.3v-0.2c0-0.1,0.1-0.3,0.2-0.4c0.1-0.1,0.2-0.2,0.4-0.2l0.5-0.1c0.1,0,0.2-0.1,0.3-0.1S63,55,63.1,55
		c0.1-0.1,0.2-0.1,0.4-0.3c0.1-0.1,0.2-0.3,0.3-0.5c0,0,0,0,0-0.1s0-0.1,0-0.2c0-0.1,0-0.1,0-0.2c0-0.1,0-0.1,0-0.1
		c0-0.2,0-0.3,0-0.4c0-0.1,0-0.2,0-0.2l0,0v-0.1c0,0,0-0.1,0.1-0.1v-0.1l-0.2-0.4v-0.9c0-0.2-0.1-0.4-0.2-0.6
		c-0.1-0.2-0.1-0.4-0.1-0.6v-0.4c0-0.5,0.1-1,0.2-1.5c0.1-0.5,0.1-1,0.1-1.5c0-0.2,0-0.5-0.1-0.8c0-0.3-0.1-0.5-0.2-0.8
		c0,0,0-0.1-0.1-0.1c0-0.1,0-0.1,0-0.1v-0.5c0,0,0-0.1-0.1-0.2c0-0.1-0.1-0.2-0.1-0.3S63,43.8,63,43.7s-0.1-0.1-0.1-0.2
		c0,0-0.1,0-0.1-0.1c-0.1,0-0.2-0.1-0.3-0.1s-0.2-0.1-0.3-0.1S62,43.1,62,43.1L61.7,43c0,0-0.1-0.1-0.2-0.2
		c-0.1-0.1-0.2-0.1-0.3-0.2c-0.1-0.1-0.2-0.1-0.3-0.2c-0.1-0.1-0.2-0.1-0.2-0.2H58c-0.1,0-0.1,0-0.2,0.1c-0.1,0.1-0.1,0.1-0.2,0.2
		c-0.1,0.1-0.1,0.1-0.2,0.2c0,0.1-0.1,0.1-0.1,0.1c-0.2,0.3-0.3,0.5-0.4,0.7c-0.1,0.2-0.2,0.5-0.3,0.8L57,48c0,0.1,0,0.1,0,0.2
		c0,0.1,0,0.1-0.1,0.2c0,0.1,0,0.2,0,0.3s0,0.2,0,0.3v1l0.2,0.8c0.1,0.5,0.1,0.9,0.1,1.4s0,1.1-0.1,1.6c0.1,0.1,0.1,0.1,0.1,0.2
		c0,0,0.1,0.1,0.1,0.2c0,0.1,0.1,0.2,0.2,0.3c0.1,0.1,0.2,0.3,0.3,0.5c0.1,0.1,0.1,0.2,0.2,0.2c0.1,0,0.2,0.1,0.2,0.1
		c0.1,0,0.2,0,0.3,0s0.2,0,0.3,0.1c0.1,0,0.2,0.2,0.2,0.4c0,0.1,0,0.2,0,0.3s0,0.2-0.1,0.3c0,0.1-0.1,0.2-0.1,0.2
		c0,0.1-0.1,0.1-0.1,0.1c-0.2,0-0.3,0.1-0.4,0.2C58.2,57,58,57,57.9,57c-0.3,0-0.5,0-0.7,0s-0.4,0-0.5,0H56l-1.6-0.1
		c-0.1,0-0.1-0.1-0.2-0.1c0,0-0.1,0-0.2,0c-0.2,0-0.3,0-0.5,0.1c-0.1,0-0.3,0.1-0.4,0.1c-0.1,0-0.3,0.1-0.5,0.1s-0.3,0.1-0.5,0.1
		l-0.8,0.1c-0.1-0.1-0.2-0.3-0.3-0.6C50.9,55.8,50.9,55.5,50.9,55.3z"/>
	<path d="M71.2,49.4l-0.1-1.8l0.1-1.9v-0.5c0-0.1,0-0.1,0.1-0.2c0-0.1,0-0.2,0-0.2c0-0.3-0.1-0.7-0.2-1.1c-0.1-0.4-0.2-0.7-0.3-1.1
		c-0.1-0.1-0.3-0.1-0.5-0.2c-0.2,0-0.4-0.1-0.7-0.1c-0.2-0.1-0.4-0.1-0.6-0.2c-0.2-0.1-0.2-0.3-0.2-0.5c0-0.3,0.1-0.4,0.3-0.6
		s0.4-0.2,0.6-0.3s0.5-0.2,0.7-0.2c0.2-0.1,0.4-0.2,0.6-0.3s0.3-0.3,0.5-0.5s0.3-0.3,0.4-0.4c0.1-0.2,0.2-0.4,0.4-0.7
		s0.3-0.6,0.5-0.8c0.2-0.3,0.4-0.5,0.6-0.7s0.4-0.3,0.6-0.3c0.1,0,0.3,0,0.4,0.1s0.2,0.2,0.2,0.3c0.1,0.1,0.1,0.2,0.1,0.4
		c0,0.1,0,0.3,0.1,0.4v2.1L75,40h0.8c0.3,0,0.6,0,0.8-0.1c0.3,0,0.5-0.1,0.7-0.1s0.4-0.1,0.6-0.1s0.4-0.1,0.7-0.1
		c0.3,0,0.6,0.1,0.8,0.4c0.2,0.3,0.3,0.6,0.3,0.9c0,0.3,0,0.5-0.1,0.7s-0.2,0.3-0.4,0.4s-0.4,0.2-0.6,0.2s-0.5,0.1-0.8,0.1l-1.2-0.1
		l-0.6,0l-0.9-0.1c-0.2,0-0.3,0.1-0.5,0.2s-0.2,0.3-0.2,0.4l0.2,1.3c0,0.2,0,0.3-0.1,0.5s-0.1,0.3-0.2,0.5s-0.1,0.3-0.2,0.5
		S74,45.8,74,46v0.3l0.2,2.1c0,0.1-0.1,0.1-0.1,0.2c0,0.1,0,0.2,0,0.3s0,0.2,0,0.2c0,0.1,0,0.1,0,0.2c0,0.3,0.1,0.7,0.1,1
		s0,0.6,0,0.9c0,0.3-0.1,0.6-0.1,0.8c0,0,0,0,0.1,0.1c0,0.1,0.1,0.1,0.1,0.2c0,0.1,0.1,0.1,0.1,0.2c0,0.1,0.1,0.1,0.1,0.1
		c0.1,0.1,0.2,0.3,0.3,0.3c0.1,0.1,0.2,0.1,0.4,0.2c0.1,0.1,0.3,0.1,0.4,0.2c0.1,0.1,0.3,0.1,0.4,0.3h0.7c0.3,0,0.5,0,0.8-0.1
		s0.5-0.1,0.7-0.2c0.2-0.1,0.5-0.1,0.7-0.2c0.2-0.1,0.5-0.1,0.7-0.1c0.1,0,0.3,0.1,0.3,0.2c0.1,0.1,0.1,0.3,0.1,0.4
		c0,0.1,0,0.1,0,0.2v0.1L79.9,54c0,0-0.1,0.1-0.2,0.2l-0.3,0.4c0,0-0.1,0.1-0.2,0.2c-0.1,0.1-0.2,0.2-0.3,0.3
		c-0.1,0.1-0.2,0.2-0.3,0.3c-0.1,0.1-0.2,0.2-0.2,0.2c-0.1,0.1-0.3,0.3-0.5,0.4c-0.2,0.1-0.5,0.2-0.8,0.3s-0.5,0.2-0.8,0.2
		c-0.2,0-0.4,0.1-0.6,0.1l-2.3-0.5C73.2,56,73,56,72.7,55.8c-0.3-0.1-0.5-0.3-0.7-0.4c-0.2-0.2-0.4-0.3-0.6-0.5s-0.3-0.4-0.3-0.7V53
		c-0.1-0.4-0.1-0.8-0.2-1.2c0.1-0.2,0.1-0.6,0.1-1L71.2,49.4z"/>
	<path d="M89.4,47.1c0-0.1,0-0.2,0.1-0.3c0-0.1,0.1-0.2,0.1-0.3s0-0.2-0.1-0.3c-0.1,0-0.2-0.1-0.3-0.2c0-0.2-0.1-0.4-0.1-0.7V44
		c0-0.1,0-0.2,0-0.3s0-0.2,0-0.3c0.1-0.1,0.1-0.2,0.1-0.2c0-0.1,0-0.1,0-0.2L89,42.2l0.3-1.1c0-0.1,0-0.3-0.1-0.4
		c-0.1-0.1-0.1-0.2-0.1-0.4c0-0.1,0-0.2,0.1-0.3s0.1-0.1,0.2-0.2c0.1-0.1,0.1-0.1,0.2-0.2c0.1-0.1,0.1-0.2,0.1-0.3l0.2-0.6
		c0.2-0.6,0.4-1.2,0.8-1.7s0.8-1,1.4-1.4c0-0.3,0.1-0.5,0.3-0.8c0.2-0.3,0.4-0.5,0.7-0.8c0.3-0.3,0.6-0.5,1-0.7s0.7-0.5,1.1-0.7
		s0.7-0.4,1-0.5c0.3-0.2,0.6-0.3,0.8-0.4c0.3-0.1,0.6-0.2,0.8-0.2c0.3-0.1,0.6-0.1,0.9-0.3c0.1,0,0.3-0.1,0.6-0.1
		c0.3,0,0.6-0.1,1-0.1s0.7-0.1,1-0.1s0.6-0.1,0.7-0.1c0.2,0,0.3,0,0.5,0c0.1,0,0.3,0,0.4,0h1.7c0.2,0,0.3,0,0.5,0s0.3,0,0.5,0
		c0.1,0.1,0.3,0.2,0.6,0.3c0.3,0.1,0.5,0.2,0.8,0.3c0.3,0.1,0.6,0.2,0.9,0.2c0.3,0.1,0.5,0.1,0.7,0.1c0.3,0,0.4-0.1,0.6-0.2
		c0.1-0.1,0.3-0.2,0.4-0.4c0.1-0.1,0.2-0.3,0.4-0.4c0.1-0.1,0.3-0.2,0.5-0.2s0.3,0,0.4,0.1s0.2,0.2,0.3,0.3c0.1,0.1,0.1,0.2,0.1,0.4
		c0,0.1,0,0.2,0,0.3l0.1,1.9c0,0.1,0.1,0.2,0.1,0.3s0,0.1,0,0.2c0,0.2,0,0.4,0.1,0.4c0,0.1,0,0.2,0,0.4s0.1,0.3,0.1,0.5
		s0.1,0.3,0.1,0.4c0,0.1,0,0.2,0,0.2c0,0.2,0.1,0.4,0.1,0.5s0.1,0.3,0.2,0.4c0.1,0.1,0.1,0.3,0.1,0.4c0,0.1,0.1,0.3,0.1,0.5
		c0,0,0,0.1-0.1,0.1c0,0.1-0.1,0.1-0.2,0.2c-0.1,0-0.1,0.1-0.2,0.1s-0.1,0.1-0.2,0.1c-0.3,0-0.6-0.1-0.8-0.3
		c-0.3-0.2-0.5-0.4-0.7-0.7s-0.4-0.6-0.6-0.9c-0.2-0.3-0.3-0.6-0.4-0.8l-0.1-0.2l-0.1-0.5l-0.6-0.6c0,0-0.1-0.1-0.2-0.2
		s-0.1-0.2-0.2-0.3s-0.1-0.2-0.2-0.3s-0.1-0.2-0.2-0.2c-0.1-0.2-0.3-0.3-0.5-0.4c-0.2-0.1-0.4-0.2-0.7-0.2c-0.2-0.1-0.5-0.1-0.7-0.2
		s-0.5-0.1-0.7-0.2c-0.2-0.1-0.3-0.2-0.4-0.2c-0.1-0.1-0.2-0.1-0.4-0.2c-0.1-0.1-0.3-0.1-0.4-0.1s-0.3,0-0.5,0
		c-0.3,0-0.5,0.1-0.8,0.2s-0.5,0.2-0.8,0.3l-1.3,0.1c-0.6,0.1-1.1,0.3-1.6,0.6s-1,0.6-1.4,1s-0.9,0.8-1.2,1.2
		c-0.4,0.4-0.8,0.8-1.1,1.3c0.1,0.2,0,0.4,0,0.6s-0.1,0.4-0.1,0.6c-0.1,0.3-0.2,0.5-0.4,0.8c-0.2,0.3-0.3,0.5-0.5,0.8
		s-0.3,0.6-0.4,0.8c-0.1,0.3-0.2,0.6-0.2,0.9c0,0.1,0,0.2,0,0.3c0,0.2,0,0.3,0,0.6c0,0.2,0,0.4,0,0.7c0,0.2,0,0.5,0,0.7v0.6l0.3,0.4
		v1c0.1,0.6,0.1,1.3,0.2,1.9c0.1,0.6,0.3,1.2,0.6,1.8c0.1,0.2,0.3,0.4,0.4,0.6c0.2,0.2,0.3,0.4,0.5,0.5c0.2,0.2,0.3,0.4,0.5,0.6
		c0.2,0.2,0.3,0.4,0.5,0.6c0.1,0.1,0.2,0.2,0.3,0.2c0.1,0,0.3,0.1,0.4,0.2c0.6,0.8,1.3,1.5,2,1.9c0.8,0.4,1.6,0.8,2.6,1
		c0.2,0,0.4,0.1,0.6,0.2c0.2,0.1,0.3,0.1,0.5,0.1c0.1,0,0.2,0,0.3-0.1l0.2-0.1c0.1,0,0.2,0,0.4,0c0.2,0,0.3,0,0.5,0s0.4,0,0.5-0.1
		c0.2,0,0.3,0,0.4-0.1c0,0,0.1,0,0.2-0.1s0.3-0.2,0.6-0.4c0.2-0.1,0.5-0.3,0.7-0.5c0.3-0.2,0.5-0.3,0.7-0.5s0.4-0.3,0.6-0.4
		c0.2-0.1,0.3-0.2,0.3-0.2v-0.6l-0.1-1.1c0-0.3,0-0.5,0-0.7s0-0.4,0-0.6v-0.4l-0.2-0.3V48c0-0.2-0.1-0.4-0.2-0.5s-0.2-0.3-0.3-0.4
		c-0.1-0.1-0.2-0.2-0.3-0.4c-0.1-0.1-0.2-0.3-0.2-0.4v-0.6l-0.1-0.5c0-0.1,0.1-0.2,0.2-0.3s0.3-0.1,0.4-0.1c0.2,0,0.4-0.1,0.6-0.1
		s0.4,0,0.6,0h0.6l1.3,0.2c0.3,0,0.5,0,0.8-0.1c0.3,0,0.5-0.1,0.7-0.1h0.1h3.3c0,0,0.1,0,0.2,0s0.2,0.1,0.3,0.1
		c0.1,0,0.2,0.1,0.3,0.2c0.1,0.1,0.1,0.1,0.1,0.2c0,0.3-0.1,0.4-0.4,0.6c-0.2,0.1-0.5,0.3-0.8,0.3c-0.3,0.1-0.6,0.2-0.9,0.2
		c-0.3,0.1-0.5,0.1-0.6,0.2l-1.1,1.3c0,0.1,0.1,0.2,0.2,0.4s0.1,0.3,0.1,0.5l-0.3,2c0,0.2,0,0.3,0.1,0.4c0.1,0.1,0.1,0.2,0.1,0.3
		c0,0.3,0,0.6-0.1,0.9c0,0.3-0.1,0.6-0.2,0.9s-0.3,0.5-0.4,0.7c-0.2,0.2-0.4,0.4-0.8,0.4l-1,0.1c-0.2,0-0.4,0.1-0.6,0.2
		c-0.2,0.1-0.4,0.2-0.7,0.4c-0.2,0.1-0.5,0.3-0.7,0.4c-0.2,0.1-0.4,0.3-0.5,0.3c-0.1,0.1-0.3,0.1-0.4,0.1c-0.2,0-0.3,0-0.4,0h-0.6
		c-0.3,0-0.5,0-0.7,0s-0.4,0.1-0.7,0.2h-3c-0.5-0.1-1.1-0.2-1.7-0.2c-0.3,0-0.6,0-0.8,0c-0.3,0-0.6,0-0.8,0c-0.1,0-0.2,0-0.3-0.1
		c-0.1-0.1-0.1-0.1-0.2-0.2c-0.1-0.1-0.1-0.1-0.2-0.2c-0.1-0.1-0.1-0.1-0.2-0.1c0,0-0.1-0.1-0.3-0.1C97.3,55,97.1,55,97,54.9
		c-0.2,0-0.3-0.1-0.4-0.1s-0.2-0.1-0.2-0.1l-1.1-0.6c-0.1,0-0.2,0-0.4-0.1c-0.2-0.1-0.3-0.1-0.4-0.1c-0.2,0-0.4-0.2-0.7-0.4
		c-0.3-0.3-0.6-0.5-0.9-0.8s-0.6-0.6-0.8-0.9c-0.3-0.3-0.4-0.5-0.5-0.7c0,0-0.1-0.1-0.2-0.3c-0.1-0.1-0.2-0.2-0.3-0.3l-0.1,0
		c0,0-0.1-0.1-0.2-0.1c-0.1-0.1-0.2-0.1-0.3-0.2c-0.1-0.1-0.2-0.1-0.2-0.2c-0.1-0.1-0.1-0.1-0.1-0.1L90,48.8c0-0.1-0.1-0.2-0.2-0.4
		c-0.1-0.1-0.2-0.2-0.2-0.4c-0.1-0.1-0.1-0.2-0.2-0.4C89.4,47.4,89.4,47.3,89.4,47.1z"/>
	<path d="M116.2,55.2c0-0.1,0.1-0.2,0.2-0.2s0.2-0.1,0.3-0.2c0.1-0.1,0.3-0.2,0.5-0.3s0.3-0.1,0.4-0.1c0.1-0.1,0.2-0.1,0.2-0.2
		c0-0.1,0.1-0.2,0.3-0.2l0.4-0.1c0.1,0,0.1-0.1,0.2-0.2c0-0.1,0.1-0.2,0.1-0.2c0-0.1,0-0.2,0-0.3s0-0.3,0-0.4c0-0.2,0-0.3,0-0.5
		c0-0.1,0-0.3,0-0.4l0.1-0.5v-2.8c0,0,0-0.1,0-0.2c0-0.1,0-0.2,0-0.3s0-0.2,0-0.3s0-0.1,0-0.2v-0.1c0-0.1,0-0.2,0-0.3s0-0.3,0-0.4
		c0-0.1,0-0.3,0-0.4c0-0.1,0-0.2,0-0.2s0-0.1,0-0.2s0-0.2,0-0.3s0-0.2,0-0.3s0-0.1,0-0.2c0-0.2-0.1-0.3-0.2-0.5s-0.2-0.3-0.3-0.4
		c-0.1-0.1-0.2-0.3-0.3-0.4c-0.1-0.1-0.2-0.3-0.3-0.4c0,0-0.1,0-0.1-0.1c-0.1-0.1-0.1-0.1-0.1-0.2l-1.1-1l0.9-0.9c0,0,0.1,0,0.2-0.1
		c0.1,0,0.2-0.1,0.3-0.1c0.1,0,0.2-0.1,0.3-0.1c0.1,0,0.2-0.1,0.2-0.1s0.1,0,0.2-0.1c0.1,0,0.2,0,0.3,0c0.1,0,0.2,0,0.3,0
		c0.1,0,0.1,0,0.2,0c0.2-0.1,0.4-0.2,0.6-0.3s0.4-0.3,0.5-0.4c0.2-0.1,0.4-0.2,0.5-0.3c0.2-0.1,0.4-0.1,0.6-0.1h0.3
		c0,0,0.1,0.1,0.2,0.2c0.1,0.1,0.2,0.2,0.3,0.2c0.1,0.1,0.1,0.3,0.1,0.5s0,0.4,0,0.6c0,0.2,0.1,0.3,0.1,0.5c0.1,0.1,0.2,0.2,0.5,0.2
		h0.1h0.1c0,0,0.1,0,0.2-0.1c0.1,0,0.2-0.1,0.3-0.2c0.1-0.1,0.2-0.1,0.3-0.2c0.1-0.1,0.1-0.1,0.2-0.1l0.7-0.6c0,0,0.1-0.1,0.2-0.2
		c0.1-0.1,0.2-0.2,0.3-0.2h0.1c0.1,0,0.2,0,0.3,0c0.1,0,0.2,0,0.3,0c0.1,0,0.1,0,0.2,0h0.1c0.1,0,0.1,0,0.2-0.1c0.1,0,0.1,0,0.2-0.1
		c0.1,0,0.1,0,0.1,0h0.2c0.3,0,0.5,0.1,0.7,0.3c0.2,0.2,0.3,0.4,0.5,0.6c0.1,0.1,0.1,0.3,0.2,0.5c0,0.2,0.1,0.3,0.1,0.4
		c0,0,0,0.1,0.1,0.1l0.1,0.1c0,0.6-0.1,1.1-0.2,1.5c-0.2,0.4-0.4,0.8-0.8,1.1c-0.1,0-0.2,0-0.4,0.1c-0.1,0-0.3,0-0.4,0
		c-0.3,0-0.4,0-0.6,0c-0.1,0-0.2-0.1-0.3-0.1c-0.1-0.1-0.1-0.1-0.2-0.2c0-0.1-0.1-0.2-0.2-0.3s-0.2-0.2-0.3-0.3
		c-0.1-0.1-0.2-0.1-0.3-0.1c-0.1,0-0.2-0.1-0.3-0.1c-0.1,0-0.1,0-0.2,0l-0.8-0.1l-0.6,0.2l-0.2,0.3c-0.1,0-0.1,0.1-0.3,0.2
		c-0.1,0.1-0.2,0.2-0.3,0.3c-0.1,0.1-0.2,0.3-0.3,0.4c-0.1,0.1-0.1,0.2-0.1,0.3l-0.1,1.3l0.1,0.5V48c0,0,0,0.1,0,0.2s0,0.2,0.1,0.3
		l-0.1,1.6l0.1,0.6c0,0.1,0,0.2-0.1,0.3c0,0.1-0.1,0.2-0.1,0.3l0.1,0.6l-0.1,0.7c0,0,0,0,0,0.1l0,0c0,0.1,0.1,0.2,0.1,0.3
		c0.1,0.1,0.1,0.3,0.2,0.4s0.1,0.3,0.2,0.4c0.1,0.1,0.1,0.2,0.1,0.3c0,0,0,0,0,0.1l0.1,0.1c0.1,0.1,0.2,0.1,0.3,0.2
		c0.1,0.1,0.2,0.2,0.4,0.2c0.1,0,0.2,0.1,0.3,0.1c0.1,0,0.3,0.1,0.4,0.1s0.3,0.1,0.4,0.1s0.3,0.1,0.4,0.2c0.1,0.1,0.1,0.2,0.2,0.3
		s0.1,0.3,0.1,0.4c0,0.1,0,0.2-0.1,0.3c0,0.1-0.1,0.1-0.2,0.2c-0.1,0-0.2,0.1-0.4,0.1l-0.6,0.1c-0.2,0-0.4,0-0.5,0s-0.3,0-0.4,0
		s-0.2,0-0.3,0c-0.1,0-0.2,0-0.4,0c-0.3,0-0.7,0-1,0.1s-0.6,0.1-0.9,0.1l-0.8-0.3l-1.1,0.3H118l-0.3-0.2c0,0-0.1,0-0.2,0
		s-0.3,0-0.5-0.1c0,0-0.1,0-0.1-0.1c0,0-0.1,0-0.2-0.1c-0.1,0-0.2-0.1-0.4-0.2c-0.1-0.1-0.1-0.3-0.1-0.4v-0.1
		C116.2,55.6,116.2,55.2,116.2,55.2z"/>
	<path d="M136.3,54.1c0,0-0.1,0.1-0.2,0.2c-0.1,0.1-0.2,0.2-0.2,0.2l-0.7,0.3c0,0-0.1,0-0.1,0.1c-0.1,0-0.1,0.1-0.2,0.1
		c-0.1,0.1-0.1,0.1-0.2,0.1l-0.1,0.1h-0.1c-0.1,0-0.1,0-0.2,0c-0.1,0-0.1,0-0.2,0c-0.1,0-0.1,0-0.2,0c-0.1,0-0.2,0.1-0.3,0.1
		c-0.1,0.1-0.2,0.1-0.2,0.2c-0.1,0.1-0.2,0.2-0.3,0.2c-0.1,0.1-0.2,0.1-0.3,0.2h-1.7c-0.1,0-0.1,0-0.2,0c-0.1,0-0.2-0.1-0.3-0.1
		s-0.2-0.1-0.3-0.1s-0.2-0.1-0.3-0.1c0,0,0-0.1-0.1-0.2c-0.1-0.1-0.1-0.2-0.1-0.2s0-0.1-0.1-0.1l-0.1-0.1l-0.5-0.5
		c-0.1-0.2-0.2-0.4-0.2-0.7c-0.1-0.3-0.1-0.5-0.1-0.7l0.1-0.4l-0.1-0.4v-0.2c0-0.1,0-0.1,0-0.2c0-0.1,0.1-0.2,0.1-0.3
		s0.1-0.2,0.1-0.3s0.1-0.2,0.1-0.2l0.1-0.1c0.1-0.1,0.2-0.2,0.3-0.3s0.2-0.2,0.3-0.3s0.1-0.1,0.2-0.2c0,0,0.1,0,0.1-0.1
		c0.1-0.1,0.1-0.1,0.1-0.2v-0.1c0,0,0,0,0-0.1c0.2-0.1,0.4-0.3,0.6-0.4c0.2-0.1,0.4-0.3,0.6-0.4c0,0,0.1-0.1,0.3-0.1
		c0.2-0.1,0.3-0.1,0.5-0.2c0.2-0.1,0.4-0.1,0.6-0.2c0.2-0.1,0.3-0.1,0.4-0.1c0.1-0.1,0.2-0.1,0.4-0.2c0.1-0.1,0.3-0.2,0.4-0.3
		c0.1-0.1,0.2-0.2,0.3-0.2c0.1-0.1,0.2-0.1,0.3-0.1h0.5c0,0,0,0,0.1-0.1c0,0,0.1,0,0.1-0.1c0,0,0.2,0,0.4-0.1c0.2,0,0.3,0,0.4,0
		l0.2-0.3c0.1,0,0.2-0.1,0.3-0.1s0.2-0.1,0.2-0.1c0.1,0,0.1-0.1,0.2-0.2c0.1-0.1,0.1-0.2,0.1-0.3c0.1-0.3,0.1-0.5,0.2-0.8
		c0-0.3,0-0.5,0-0.8v-0.4c0,0,0-0.1-0.1-0.2c-0.1-0.1-0.1-0.2-0.1-0.2l-0.2-0.9l-0.4-0.5l-0.2-0.4c0,0-0.1-0.1-0.1-0.2
		c0-0.1-0.1-0.2-0.1-0.2c0-0.1-0.1-0.1-0.3-0.2c-0.2-0.1-0.3-0.1-0.5-0.2s-0.4-0.1-0.6-0.1c-0.2,0-0.3,0-0.4,0c0,0-0.1,0-0.3,0
		s-0.3,0-0.4,0c-0.1,0-0.3,0-0.4,0c-0.2,0-0.4,0.1-0.5,0.1c-0.2,0.1-0.3,0.1-0.4,0.2c-0.1,0.1-0.2,0.2-0.2,0.4V42c0,0,0,0.1,0.1,0.2
		c0,0.1,0.1,0.2,0.1,0.3s0.1,0.2,0.1,0.3s0,0.1,0,0.2c0,0,0,0.1,0,0.2c0,0.1-0.1,0.2-0.1,0.3c-0.1,0.4-0.2,0.7-0.3,0.9
		s-0.4,0.4-0.7,0.6l-0.2,0.2l-0.1,0.1h-1.4c-0.1,0-0.2,0-0.3-0.1s-0.1-0.2-0.2-0.3c0-0.1-0.1-0.2-0.1-0.3s0-0.2,0-0.3s0-0.2,0-0.3
		s0.1-0.2,0.1-0.4c0-0.1,0.1-0.2,0.2-0.3c0.1-0.1,0.1-0.2,0.2-0.2c0-0.1,0.1-0.2,0.1-0.2c0-0.1,0.1-0.1,0.1-0.1l0.1-0.1l0.3-0.3
		c0.3-0.2,0.5-0.3,0.7-0.5s0.4-0.4,0.6-0.6l1.3-0.8c0.1-0.1,0.2-0.2,0.3-0.2c0.1-0.1,0.2-0.1,0.3-0.1s0.2-0.1,0.3-0.1
		s0.2-0.1,0.4-0.1c0,0,0,0,0.1,0s0.1-0.1,0.2-0.1c0.1,0,0.1-0.1,0.2-0.1c0.1,0,0.1,0,0.1-0.1c0.1,0,0.2,0,0.3-0.1
		c0.2,0,0.4-0.1,0.6-0.1c0.2,0,0.4-0.1,0.6-0.1c0.2,0,0.3,0,0.4,0c0.1,0,0.1,0,0.2,0.1c0.1,0,0.1,0.1,0.1,0.1s0.1,0,0.2,0
		c0.1,0,0.1,0,0.2,0c0.1,0,0.1,0,0.2,0c0.1,0,0.1,0,0.1,0c0.1,0,0.2,0.1,0.3,0.1s0.2,0.1,0.4,0.1c0.1,0,0.2,0.1,0.3,0.1
		s0.2,0.1,0.2,0.1s0,0,0.1,0.1c0,0,0.1,0.1,0.2,0.2c0.1,0.1,0.1,0.1,0.2,0.2c0.1,0.1,0.1,0.1,0.1,0.1c0.1,0.2,0.3,0.4,0.4,0.5
		c0.1,0.2,0.2,0.3,0.3,0.5c0.1,0.1,0.1,0.2,0.1,0.4c0,0.1,0.1,0.3,0.1,0.4c0,0.1,0.1,0.3,0.1,0.4c0,0.1,0.1,0.2,0.2,0.3v1.1
		c0,0.8,0,1.6-0.1,2.3c-0.1,0.8-0.1,1.5-0.1,2.3c0,0.1-0.1,0.2-0.1,0.4c0,0.1-0.1,0.2-0.1,0.4c0,0.1,0,0.2,0,0.4c0,0.1,0,0.2,0,0.3
		l-0.2,0.3v0.1v0.2c0,0.2,0,0.4,0,0.6c0,0.2,0,0.4,0.1,0.6c0,0.2,0.1,0.4,0.2,0.6c0.1,0.2,0.2,0.3,0.4,0.4c0.1,0,0.1,0.1,0.2,0.2
		c0.1,0.1,0.2,0.1,0.2,0.1h0.1c0.1,0,0.3,0,0.4-0.1c0.2,0,0.3-0.1,0.5-0.1c0.2-0.1,0.3-0.1,0.5-0.2c0.2,0,0.3-0.1,0.5-0.1
		s0.3,0.1,0.3,0.2c0,0.4-0.1,0.8-0.2,1.1c-0.1,0.4-0.4,0.7-0.6,1c-0.3,0.3-0.6,0.5-0.9,0.7c-0.3,0.2-0.7,0.3-1.1,0.3
		c-0.4,0-0.8,0-1.2-0.1c-0.4,0-0.8-0.1-1.3-0.3l-0.1-0.1c0,0-0.1-0.1-0.2-0.2c-0.1-0.1-0.2-0.3-0.3-0.4c-0.1-0.1-0.2-0.3-0.3-0.4
		c-0.1-0.1-0.1-0.2-0.1-0.2l-0.4-0.4h-0.1L136.3,54.1L136.3,54.1z M132.2,51.4c0,0.2,0,0.4,0.1,0.7s0.2,0.5,0.3,0.7s0.3,0.4,0.5,0.6
		c0.2,0.2,0.4,0.2,0.6,0.2h0.1c0,0,0.1-0.1,0.3-0.1l1.6-0.1c0,0,0.1-0.1,0.2-0.2s0.2-0.2,0.2-0.2c0.1-0.1,0.1-0.2,0.2-0.2
		c0.1-0.1,0.1-0.1,0.1-0.2c0,0,0,0,0.1-0.1c0-0.1,0.1-0.2,0.1-0.3s0.1-0.2,0.1-0.3s0.1-0.2,0.1-0.3s0-0.1,0.1-0.3c0-0.1,0-0.2,0-0.2
		c0-0.1,0-0.3,0-0.4c0-0.1,0-0.3,0-0.4c0-0.1,0-0.2,0-0.3s0-0.2,0-0.3l0.1-0.4V49c0-0.2-0.1-0.4-0.2-0.6c-0.1-0.2-0.3-0.3-0.6-0.3
		c-0.2,0-0.4,0-0.5,0.1s-0.3,0.2-0.5,0.3c-0.1,0-0.2,0.1-0.4,0.2c-0.2,0.1-0.4,0.2-0.6,0.3c-0.2,0.1-0.4,0.2-0.6,0.3
		c-0.2,0.1-0.3,0.1-0.4,0.2l-0.3,0.2h-0.1c-0.1,0-0.1,0-0.1,0.1l-0.3,0.5l-0.4,0.4c-0.1,0.1-0.1,0.3-0.1,0.5
		C132.2,51.2,132.2,51.3,132.2,51.4z"/>
	<path d="M143.7,64.7c0-0.1,0-0.2,0-0.3c0-0.1,0-0.2,0.1-0.3c0.1-0.3,0.2-0.5,0.4-0.7s0.5-0.3,0.9-0.4c0,0,0.1,0,0.2,0
		c0.1,0,0.2,0,0.3,0s0.2,0,0.2,0c0.1,0,0.1,0,0.1,0l0.7,0.1L147,63c0,0,0.1,0,0.2,0c0.1,0,0.2,0,0.3,0c0.2,0,0.4,0,0.4,0
		c0.1,0,0.1,0,0.2-0.1c0.1-0.1,0.2-0.3,0.2-0.4c0.1-0.1,0.1-0.2,0.2-0.3c0-0.1,0.1-0.2,0.1-0.3s0.1-0.3,0.1-0.4v-0.1
		c0-0.1,0-0.1,0-0.2c0-0.1,0-0.2,0-0.2c0-0.1,0-0.1,0-0.2c0,0,0-0.1,0.1-0.3c0.1-0.1,0.1-0.3,0.2-0.4c0.1-0.1,0.1-0.3,0.2-0.4
		c0.1-0.1,0.1-0.2,0.2-0.3l-0.1-0.8c0.1-0.2,0.2-0.4,0.3-0.6s0.1-0.4,0.1-0.6v-0.1c0-0.1,0-0.1,0-0.1c0-0.1,0-0.2,0-0.4
		c0-0.1,0-0.3,0-0.4c0-0.1,0-0.2,0-0.3s0-0.1,0-0.2c0,0,0-0.1-0.1-0.2c0-0.1-0.1-0.2-0.2-0.4c-0.1-0.1-0.1-0.3-0.2-0.4
		c-0.1-0.1-0.1-0.2-0.1-0.3c0,0,0-0.1-0.1-0.2c0-0.1-0.1-0.2-0.1-0.4c0-0.1-0.1-0.3-0.1-0.4c0-0.1,0-0.2,0-0.2l-0.6-1v-0.1
		c0-0.1,0-0.2,0-0.3s0-0.2,0-0.3s0-0.1,0-0.2c0-0.1,0-0.2,0-0.4s0-0.2-0.1-0.2c0,0,0-0.1-0.1-0.1c-0.1-0.1-0.1-0.1-0.2-0.2
		c-0.1-0.1-0.1-0.1-0.2-0.2c-0.1,0-0.1-0.1-0.1-0.1l-0.3-0.6l-0.6-0.8l-0.7-1.7c0,0,0-0.1-0.1-0.2c-0.1-0.1-0.1-0.2-0.1-0.2
		l-0.1-0.1l-0.1-0.1c0,0,0-0.1,0-0.2c0-0.1,0-0.2,0-0.3s0-0.2,0-0.3s0-0.1,0-0.2c0-0.2-0.1-0.4-0.2-0.6c-0.1-0.2-0.2-0.4-0.3-0.7
		c-0.1-0.2-0.2-0.4-0.3-0.7c-0.1-0.2-0.2-0.4-0.3-0.6c0,0,0-0.1,0-0.2c0-0.1,0-0.2-0.1-0.2c0,0,0-0.1-0.1-0.2
		c-0.1-0.1-0.1-0.1-0.2-0.1c-0.3-0.3-0.7-0.5-1.1-0.6c-0.4-0.2-0.8-0.3-1.2-0.5l-0.2-0.2c0-0.1-0.1-0.2-0.2-0.2
		c-0.1,0-0.2-0.1-0.2-0.2c0-0.4,0.1-0.7,0.2-0.8c0.1-0.1,0.3-0.2,0.6-0.2c0.2,0,0.4,0,0.5,0.1c0.2,0.1,0.4,0.1,0.5,0.3
		c0,0,0.1,0,0.2,0c0.1,0,0.2,0,0.4,0c0.1,0,0.3,0,0.4,0c0.1,0,0.2,0,0.3,0l0.5,0.2h0.5c0,0,0.1,0,0.2,0c0.1,0,0.2,0,0.3-0.1
		c0.1,0,0.2,0,0.3-0.1c0.1,0,0.1,0,0.2,0c0.1,0,0.2-0.1,0.3-0.1s0.2-0.1,0.4-0.1c0.1,0,0.2,0,0.3-0.1c0.1,0,0.1,0,0.2,0h0.8l0.5-0.1
		c0.1,0,0.2,0,0.4,0.1c0.1,0,0.3,0.1,0.4,0.2c0.1,0.1,0.2,0.2,0.3,0.2c0.1,0.1,0.1,0.2,0.1,0.3s0,0.2,0,0.4s-0.1,0.3-0.2,0.4
		c-0.2,0.2-0.4,0.3-0.6,0.4c-0.2,0.1-0.4,0.1-0.5,0.2l-0.3,0.1c-0.1,0-0.2,0-0.3,0s-0.2,0-0.3,0.1c0,0.1,0,0.2,0.1,0.4
		c0,0.1,0.1,0.3,0.1,0.4c0,0.1,0.1,0.2,0.1,0.4c0,0.1,0.1,0.2,0.1,0.2c0,0.1,0,0.2,0.1,0.3s0.1,0.2,0.2,0.3c0.1,0.1,0.1,0.2,0.2,0.3
		c0.1,0.1,0.1,0.2,0.1,0.3l0.2,1.1c0,0.2,0.1,0.3,0.2,0.5s0.2,0.3,0.3,0.4c0.1,0.1,0.2,0.3,0.3,0.4c0.1,0.1,0.2,0.3,0.2,0.5
		c0,0,0,0.1,0,0.2c0,0.1,0,0.2,0,0.3s0,0.2,0,0.3s0,0.1,0,0.2c0,0,0,0.1,0.1,0.2c0.1,0.1,0.1,0.2,0.1,0.2s0,0.1,0.1,0.2
		c0,0.1,0.1,0.2,0.1,0.2l0.3,0.6c0,0.1,0.1,0.2,0.1,0.3c0.1,0.1,0.1,0.2,0.2,0.2c0.1,0.1,0.2,0.2,0.3,0.3s0.2,0.1,0.3,0.1
		s0.1,0,0.3-0.1c0.1-0.1,0.2-0.1,0.3-0.3l0.1-0.1c0.1-0.1,0.2-0.2,0.2-0.2V50c0,0,0,0,0-0.1c0,0,0,0,0-0.1c0.1-0.4,0.3-0.7,0.4-1.1
		c0.1-0.4,0.3-0.8,0.4-1.2c0,0,0-0.1,0-0.2c0-0.1,0.1-0.2,0.1-0.3c0,0,0,0,0-0.1s0-0.1,0-0.2c0-0.1,0-0.1,0-0.2c0-0.1,0-0.1,0-0.1
		l0.3-0.8c0,0,0,0,0-0.1s0-0.1,0-0.2c0-0.1,0-0.1,0-0.2c0-0.1,0-0.1,0-0.1c0-0.1,0.1-0.2,0.2-0.4c0.1-0.1,0.2-0.2,0.2-0.3
		c0.1-0.1,0.1-0.2,0.2-0.3c0.1-0.1,0.1-0.2,0.1-0.4c0,0-0.1-0.1-0.1-0.2c0-0.1-0.1-0.1-0.1-0.2v-0.8c0,0,0-0.1-0.1-0.2
		c-0.1-0.1-0.2-0.2-0.2-0.2s-0.1-0.1-0.2-0.1c-0.1,0-0.2-0.1-0.3-0.1s-0.2-0.1-0.3-0.1s-0.2-0.1-0.2-0.1c-0.1,0-0.2,0-0.3-0.1
		c-0.1,0-0.1-0.1-0.1-0.1l-0.6-0.4c-0.1-0.2-0.1-0.3-0.1-0.4c0-0.2,0-0.3,0.1-0.4c0.1-0.1,0.1-0.3,0.2-0.4c0.2-0.1,0.3-0.1,0.4-0.2
		c0.1,0,0.3,0,0.4-0.1c0.1,0,0.2,0,0.3,0s0.2,0,0.3-0.1l0.4-0.1c0,0,0.1,0,0.2,0c0.1,0,0.2,0,0.4,0c0.1,0,0.3,0,0.4,0
		c0.1,0,0.2,0,0.2,0l0.6,0.1c0.3,0,0.5,0,0.7-0.1s0.5-0.2,0.7-0.3h0.4c0,0,0.1,0,0.2-0.1c0.1,0,0.2,0,0.2,0l0,0h0.1
		c0.1,0,0.3,0,0.4,0.1c0.2,0,0.4,0.1,0.5,0.2c0.2,0.1,0.3,0.2,0.5,0.3c0.1,0.1,0.2,0.2,0.2,0.3s0,0.2-0.1,0.3s-0.2,0.1-0.3,0.2
		l-0.7,0.6c-0.1,0.1-0.3,0.2-0.4,0.3c-0.1,0.1-0.3,0.1-0.4,0.2c-0.1,0-0.3,0.1-0.5,0.1s-0.3,0.1-0.5,0.1c-0.2,0.3-0.4,0.6-0.5,1
		c-0.1,0.3-0.3,0.6-0.4,1c0,0.1,0,0.1,0,0.2c0,0.1,0,0.1-0.1,0.2c0,0,0,0,0,0.1s0,0.1,0,0.2c0,0.1,0,0.1,0,0.2c0,0.1,0,0.1,0,0.1
		s0,0.1-0.1,0.1c0,0.1-0.1,0.1-0.1,0.2c0,0.1-0.1,0.1-0.1,0.2c0,0.1-0.1,0.1-0.1,0.1v0.9c0,0,0,0.1-0.1,0.1c0,0.1-0.1,0.1-0.1,0.2
		c0,0.1-0.1,0.1-0.1,0.2c0,0.1-0.1,0.1-0.1,0.1c-0.2,0.3-0.4,0.6-0.6,1c-0.2,0.4-0.4,0.7-0.5,1.1v0.6c0,0,0,0.1-0.1,0.2
		c0,0.1-0.1,0.2-0.1,0.2c-0.1,0.3-0.2,0.5-0.3,0.7c0,0.2-0.1,0.4-0.2,0.6l-0.5,1.1c0,0.2-0.1,0.5-0.1,0.7c0,0.3,0,0.5,0,0.8
		s0,0.5,0,0.8s0,0.5-0.1,0.8c0,0.3-0.1,0.6-0.3,0.9c-0.2,0.3-0.3,0.6-0.4,0.8l-0.1,0.1l-0.1,0.1c0,0.1-0.1,0.2-0.1,0.3
		s0,0.1-0.1,0.2c0,0.1,0,0.2,0,0.3c0,0.2,0,0.3,0,0.5s0,0.3,0,0.5c0,0.1,0,0.3,0,0.3c-0.1,0.1-0.2,0.2-0.3,0.4s-0.1,0.4-0.1,0.6
		c0,0.2-0.1,0.4-0.1,0.6c0,0.2-0.1,0.4-0.1,0.5l-0.5,0.6c0,0,0,0.1-0.1,0.2c0,0.1,0,0.2,0,0.3c0,0-0.1,0.1-0.1,0.2
		c0,0.1-0.1,0.2-0.2,0.3c-0.1,0.1-0.2,0.3-0.3,0.5v0.1c0,0.1-0.1,0.1-0.1,0.2c0,0.1-0.1,0.2-0.1,0.2c0,0.1-0.1,0.1-0.1,0.1
		c0,0.2-0.1,0.3-0.2,0.3c-0.1,0-0.2,0.1-0.3,0.2s-0.1,0.1-0.2,0.2l-0.1,0.1l-0.1,0.1c0,0-0.1,0.1-0.1,0.2c-0.2,0.2-0.4,0.3-0.6,0.4
		c-0.2,0-0.4,0.1-0.7,0.2l-0.4,0.3c-0.1,0-0.3,0.1-0.4,0.1c-0.1,0-0.3,0-0.4,0c-0.2,0-0.5,0-0.7-0.1s-0.5-0.2-0.7-0.3
		c-0.2-0.1-0.4-0.3-0.5-0.5C143.8,65.2,143.7,65,143.7,64.7z"/>
	<path d="M65.2,72.8c-0.2,0-0.3,0-0.4,0.1c-0.1,0-0.1,0.1-0.2,0.2c0,0.1-0.1,0.2-0.1,0.3c0,0.1-0.1,0.2-0.1,0.3
		c-0.1,0.1-0.1,0.3-0.3,0.4c-0.1,0.2-0.2,0.3-0.3,0.5c0,0.1,0,0.2-0.1,0.2c0,0.1,0,0.1,0,0.2s0,0.1,0,0.2s0,0.1-0.1,0.2
		c0,0.1,0,0.1-0.1,0.1c0,0,0,0-0.1,0.1l0,0v0.1v0.4c0,0.1,0,0.2-0.1,0.3c0,0.1-0.1,0.2-0.1,0.3c0,0.1-0.1,0.2-0.1,0.3
		c0,0.1-0.1,0.2-0.1,0.3v0.4c0,0.1,0,0.2-0.1,0.3l-0.4,0.8v0.1V79v0.1c0,0.2,0.1,0.4,0.2,0.5c0.1,0.1,0.3,0.2,0.4,0.3
		c0.1,0.1,0.3,0.1,0.4,0.2c0.1,0.1,0.2,0.2,0.2,0.3c0,0,0,0,0,0.1c0,0,0,0,0,0.1c-0.4,0.2-0.8,0.4-1.2,0.4c-0.4,0.1-0.8,0.1-1.2,0.1
		c-0.2,0-0.4,0-0.6,0h-1c0,0-0.1,0-0.1,0.1c-0.1,0-0.2,0.1-0.3,0.1s-0.2,0.1-0.3,0.1s-0.2,0-0.2,0c-0.1,0-0.3,0-0.4,0
		s-0.3,0-0.4-0.1c-0.1,0-0.2-0.1-0.3-0.2s-0.1-0.2-0.1-0.4c0-0.2,0-0.3,0.1-0.4s0.2-0.1,0.3-0.2c0.1,0,0.2-0.1,0.4-0.1
		c0.1,0,0.3,0,0.4,0c0.1,0,0.3,0,0.4,0c0.1,0,0.2,0,0.3-0.1c0,0,0,0,0.1-0.1l0.1-0.1l0.1-0.1l0.1-0.1c0,0,0,0,0-0.1s0,0,0.1-0.1
		c0,0,0,0,0.1,0c0,0,0-0.1,0-0.2s0-0.2,0-0.2s0,0,0.1-0.1l0.1-0.1l0.1-0.1l0.1-0.1c0.1-0.1,0.1-0.1,0.1-0.2s0-0.2,0-0.2v-0.3
		c0-0.1,0-0.1,0-0.2s0-0.1,0-0.2l0.1-0.3c0.2-0.5,0.4-1.1,0.6-1.6c0.2-0.5,0.4-1.1,0.7-1.6c0.1-0.3,0.3-0.5,0.4-0.8
		c0.2-0.3,0.3-0.6,0.4-0.8c0-0.1,0.1-0.3,0.1-0.4s0-0.3,0-0.4V71c0-0.1,0-0.2,0-0.3c0-0.1,0-0.2,0.1-0.3c0,0,0-0.1,0.1-0.1
		c0-0.1,0.1-0.1,0.1-0.2s0.1-0.1,0.1-0.2l0.1-0.1c0,0,0.1-0.1,0.1-0.2s0.1-0.2,0.1-0.3c0-0.1,0.1-0.2,0.1-0.3c0-0.1,0-0.2,0.1-0.2
		l0,0v-0.1c0-0.1,0-0.1,0-0.1l0,0v-0.1c0,0,0,0,0-0.1v-0.1c0,0,0-0.1,0.1-0.2c0-0.1,0.1-0.2,0.1-0.3c0-0.1,0.1-0.2,0.1-0.3
		c0-0.1,0.1-0.1,0.1-0.2s0-0.1,0.1-0.2V67c0-0.1,0-0.3-0.1-0.4s-0.2-0.2-0.3-0.3c-0.1-0.1-0.3-0.2-0.4-0.2c-0.4,0-0.5-0.1-0.7-0.1
		c-0.3,0-0.5,0-0.8,0.1s-0.5,0.1-0.8,0.1c0,0-0.1,0-0.2,0c-0.1,0-0.2-0.1-0.3-0.1s-0.2-0.1-0.2-0.2c-0.1-0.1-0.1-0.1-0.1-0.2
		s0.1-0.2,0.2-0.3c0.1-0.1,0.3-0.2,0.4-0.3c0.2-0.1,0.3-0.1,0.5-0.2c0.2,0,0.3-0.1,0.4-0.1c0.3,0,0.5,0,0.7,0s0.4,0,0.5,0.1
		c0.2,0,0.4,0,0.6,0c0.2,0,0.4,0,0.6,0s0.5,0,0.7-0.1s0.5-0.1,0.8-0.1c0.4,0,0.7,0,1.1,0.1c0.3,0,0.7,0.1,1,0.1
		c0.3,0.1,0.7,0.1,1,0.2s0.7,0.2,1.1,0.3c0.1,0,0.2,0.1,0.4,0.2c0.2,0.1,0.3,0.2,0.5,0.3c0.2,0.1,0.4,0.2,0.5,0.4
		c0.2,0.1,0.3,0.3,0.5,0.4c0.1,0.1,0.3,0.2,0.4,0.4c0.1,0.1,0.2,0.2,0.2,0.3c0,0,0,0.1,0,0.2s0,0.1,0,0.2s0,0.1,0,0.2s0,0.1,0,0.1
		c0,0.3,0,0.5-0.1,0.8c-0.1,0.2-0.2,0.5-0.3,0.7c-0.1,0.2-0.2,0.4-0.4,0.7c-0.2,0.2-0.3,0.4-0.5,0.6C71.1,71,71,71.1,71,71.2
		c-0.1,0.1-0.2,0.2-0.2,0.2c-0.1,0.1-0.2,0.1-0.3,0.2c-0.1,0.1-0.2,0.1-0.3,0.1h-0.1c-0.1,0-0.1,0-0.2,0s-0.1,0-0.2,0s-0.1,0-0.1,0
		s-0.1,0-0.2,0.1c-0.1,0-0.2,0.1-0.3,0.1c-0.1,0-0.2,0.1-0.3,0.1c-0.1,0-0.1,0.1-0.2,0.1c-0.2,0.1-0.3,0.1-0.4,0.2
		c-0.1,0-0.2,0.1-0.2,0.1c-0.1,0-0.1,0.1-0.2,0.2c0,0.1-0.1,0.3-0.1,0.5l-0.1,0.2c0.2,0.1,0.3,0.3,0.4,0.4c0.1,0.2,0.2,0.3,0.3,0.5
		s0.1,0.4,0.2,0.6s0.1,0.4,0.1,0.6l0.1,0.2c0,0,0,0.1,0.1,0.1c0.1,0.1,0.1,0.1,0.2,0.2s0.1,0.2,0.2,0.2c0.1,0.1,0.1,0.1,0.1,0.2
		c0,0,0,0.1,0.1,0.2c0,0.1,0.1,0.2,0.1,0.4c0,0.1,0.1,0.2,0.1,0.4c0,0.1,0.1,0.2,0.1,0.2v0.1c0,0.1,0,0.1,0,0.1
		c0,0.1,0.1,0.2,0.1,0.3c0,0.1,0,0.2,0.1,0.3c0,0.1,0,0.2,0.1,0.3c0,0.1,0.1,0.2,0.1,0.3l0.2,0.3c0.1,0.2,0.2,0.3,0.3,0.4
		c0.1,0.1,0.1,0.2,0.2,0.4v0.1c0,0.1,0,0.2,0,0.2c0,0.1,0,0.2,0,0.2c0,0.1,0,0.1,0,0.1s0,0,0.1,0.1l0.1,0.1c0,0.1,0.1,0.1,0.1,0.1
		l0.1,0.1c0,0,0,0.1,0.1,0.2c0,0.1,0.1,0.2,0.2,0.3c0.1,0.1,0.1,0.2,0.2,0.3c0.1,0.1,0.1,0.2,0.1,0.2c0.1,0.1,0.1,0.2,0.1,0.3
		c0,0.1,0.1,0.1,0.1,0.2c0.1,0.1,0.1,0.1,0.2,0.2s0.1,0.2,0.2,0.3c0.1,0.1,0.2,0.3,0.3,0.4c0.1,0.1,0.2,0.3,0.3,0.4
		c0.1,0.1,0.2,0.3,0.3,0.4c0.1,0.1,0.2,0.3,0.4,0.4l0.1,0.1c0.1,0.1,0.2,0.2,0.2,0.2c0.1,0.1,0.2,0.2,0.2,0.2l0.1,0.1
		c0,0,0.1,0.1,0.2,0.1s0.2,0,0.2,0c0.1,0,0.1,0,0.2,0s0.1,0,0.2,0c0,0.1,0.1,0.1,0.1,0.2c0.1,0.1,0.1,0.1,0.2,0.2s0.1,0.1,0.2,0.2
		c0.1,0,0.2,0.1,0.2,0.1s0.1,0,0.2-0.1c0.1,0,0.1-0.1,0.2-0.1s0.1-0.1,0.1-0.1l0.1-0.1c0,0,0.1-0.1,0.1-0.2s0-0.2,0-0.3
		c0-0.1,0-0.2,0.1-0.3c0-0.1,0.1-0.2,0.2-0.3v-0.8c0-0.1,0-0.2,0.1-0.3c0.1-0.1,0.1-0.2,0.2-0.2c0.1-0.1,0.2-0.1,0.3-0.2
		c0.1,0,0.2-0.1,0.3-0.1c0.4,0,0.7,0.1,0.9,0.4c0.2,0.2,0.2,0.6,0.2,1c0,0.3-0.1,0.6-0.2,0.8c-0.1,0.2-0.3,0.5-0.5,0.6
		c-0.2,0.2-0.4,0.3-0.7,0.5s-0.5,0.2-0.8,0.3c-0.3,0.1-0.6,0.1-0.9,0.2c-0.3,0-0.6,0.1-0.8,0.1h-0.2L74,86.6h-0.9c0,0,0,0-0.1,0
		c0,0-0.1,0-0.2-0.1c-0.1,0-0.1-0.1-0.2-0.1s-0.1-0.1-0.1-0.1c-0.2-0.1-0.4-0.3-0.6-0.4s-0.3-0.2-0.5-0.4c-0.1-0.1-0.3-0.3-0.4-0.4
		s-0.3-0.3-0.4-0.5c0,0,0,0,0-0.1c0,0,0-0.1-0.1-0.1c0,0,0,0,0-0.1v-0.1c0,0,0-0.1-0.1-0.1V84c0,0,0,0-0.1-0.1l-0.1-0.1l-0.1-0.1
		L70,83.6c-0.2-0.2-0.3-0.5-0.4-0.7c-0.1-0.3-0.2-0.5-0.4-0.7c0,0,0,0-0.1-0.1L69,82l-0.1-0.1c0,0,0,0-0.1,0c0,0,0,0,0-0.1
		s0-0.1,0-0.2s0-0.1,0-0.2s0-0.1,0-0.1s0,0,0-0.1s-0.1-0.1-0.1-0.1c0-0.1-0.1-0.1-0.1-0.1l-0.1-0.1c-0.2-0.4-0.4-0.8-0.6-1.3
		s-0.4-0.9-0.5-1.4c0,0,0,0,0-0.1V78c0-0.1,0-0.1,0-0.1v-0.1c0-0.1-0.1-0.2-0.1-0.3c-0.1-0.1-0.1-0.2-0.2-0.3
		C67,77.1,67,77,66.9,76.9c-0.1-0.1-0.1-0.2-0.1-0.3V76c0-0.1,0-0.1-0.1-0.2c0-0.1-0.1-0.1-0.1-0.2s-0.1-0.1-0.1-0.2
		s-0.1-0.1-0.1-0.2v-0.1c0-0.1,0-0.2-0.1-0.2c0-0.1,0-0.2-0.1-0.2c0-0.1,0-0.1,0-0.1s0-0.1-0.1-0.2S66,74.2,66,74.2s0,0-0.1-0.1
		L65.8,74l-0.1-0.1c0,0,0-0.1-0.1-0.1c-0.1-0.1-0.1-0.2-0.1-0.4c0-0.1-0.1-0.3-0.2-0.4s-0.1-0.2-0.2-0.3
		C65.5,72.8,65.3,72.8,65.2,72.8z M65.1,71.5c0,0.1,0,0.2,0.1,0.2c0.1,0.1,0.2,0.1,0.3,0.1c0,0,0,0,0.1,0h0.1c0.1,0,0.1,0,0.1,0h0.1
		h0.8c0-0.1,0.1-0.1,0.3-0.2c0.2-0.1,0.3-0.2,0.5-0.2c0.2-0.1,0.4-0.1,0.6-0.2s0.3-0.1,0.4-0.1s0.2-0.1,0.3-0.2
		c0.1-0.1,0.2-0.1,0.3-0.2c0.1-0.1,0.2-0.2,0.3-0.2c0.1-0.1,0.2-0.2,0.3-0.2c0,0,0.1,0,0.1-0.1c0.1-0.1,0.1-0.1,0.2-0.1
		c0.1-0.1,0.1-0.2,0.1-0.3c0-0.2,0.1-0.3,0.1-0.5s0-0.4,0-0.5c0-0.2,0-0.3,0-0.4c0-0.2,0-0.4-0.1-0.6s-0.2-0.4-0.3-0.5
		c-0.1-0.2-0.3-0.3-0.5-0.5s-0.3-0.3-0.5-0.4l-0.2-0.2h-0.3c-0.4,0-0.7,0-0.9,0.1c-0.2,0.1-0.4,0.2-0.6,0.3
		c-0.1,0.1-0.2,0.3-0.3,0.4c-0.1,0.2-0.1,0.4-0.2,0.6s-0.1,0.5-0.2,0.7c-0.1,0.3-0.1,0.5-0.2,0.8c-0.1,0.2-0.1,0.3-0.2,0.6
		s-0.2,0.5-0.3,0.7c-0.1,0.2-0.2,0.5-0.3,0.7C65.2,71.1,65.1,71.3,65.1,71.5z"/>
	<path d="M74.7,81L74,80.9L73.3,81c-0.2,0-0.4,0-0.5-0.1c-0.1,0-0.2-0.2-0.2-0.4c0-0.2,0.1-0.3,0.2-0.4s0.3-0.1,0.4-0.2h0.4
		c0.2,0,0.5-0.1,0.7-0.2s0.5-0.3,0.6-0.4c0,0,0,0,0-0.1c0,0,0-0.1,0.1-0.1V79c0,0,0,0,0-0.1l0,0c0.1-0.2,0.2-0.5,0.3-0.7
		c0.1-0.2,0.1-0.5,0.2-0.8c0-0.1,0-0.1,0.1-0.2c0-0.1,0.1-0.1,0.1-0.2s0.1-0.1,0.1-0.2s0.1-0.1,0.1-0.2c0.1-0.5,0.2-0.9,0.3-1.4
		c0.1-0.5,0.2-1,0.4-1.4c0,0,0-0.1,0.1-0.1c0-0.1,0.1-0.2,0.1-0.3c0-0.1,0.1-0.2,0.1-0.3c0-0.1,0-0.1,0-0.2c0,0,0-0.1,0-0.2
		s0-0.2,0-0.3c0-0.1,0-0.2,0-0.3c0-0.1,0-0.1,0-0.2c0.1-0.4,0.2-0.8,0.3-1.1c0.1-0.4,0.2-0.7,0.4-1.1c0-0.2,0.1-0.3,0.1-0.6
		c0-0.2,0-0.4,0.1-0.6s0.1-0.3,0.2-0.5s0.2-0.4,0.2-0.6c0-0.1-0.1-0.2-0.2-0.4c-0.1-0.1-0.3-0.3-0.4-0.4c-0.2-0.1-0.3-0.2-0.5-0.3
		c-0.2-0.1-0.3-0.1-0.4-0.1s-0.1,0-0.2,0s-0.1,0-0.2,0c-0.2,0-0.3-0.1-0.4-0.2s-0.2-0.3-0.2-0.4s0.1-0.2,0.2-0.2s0.3-0.1,0.4-0.2
		c0.2,0,0.4-0.1,0.6-0.1s0.4,0,0.6-0.1c0.2,0,0.4,0,0.6,0s0.3,0,0.4,0c0.2,0,0.5,0,0.7,0.1c0.2,0,0.5,0.1,0.8,0.1s0.7,0.1,1,0.1
		c0.3,0.1,0.6,0.1,1,0.2c0.3,0.1,0.7,0.1,1,0.2s0.7,0.1,1,0.2h0.1h0.2h0.2c0.1,0,0.1,0,0.1,0c0.1,0,0.2,0.1,0.4,0.2
		c0.2,0.1,0.3,0.3,0.5,0.5s0.3,0.4,0.5,0.6c0.1,0.2,0.2,0.3,0.3,0.4V68c0,0.1,0.1,0.2,0.2,0.4s0.1,0.2,0.1,0.3
		c-0.1,0.2-0.1,0.5-0.2,0.8s-0.1,0.6-0.2,0.9S86,71,85.9,71.3c-0.1,0.3-0.3,0.4-0.4,0.6c-0.1,0.1-0.2,0.2-0.4,0.2
		c-0.1,0.1-0.3,0.2-0.5,0.2c0,0,0,0-0.1,0.1c0,0-0.1,0.1-0.2,0.2s-0.1,0.1-0.2,0.2s-0.1,0.1-0.2,0.1S83.7,73,83.5,73
		c-0.2,0.1-0.3,0.1-0.5,0.1s-0.3,0.1-0.4,0.1s-0.2,0.1-0.2,0.1h-0.8h-0.9c-0.1,0-0.1-0.1-0.2-0.1s-0.1-0.1-0.2-0.1s-0.1-0.1-0.2-0.2
		c0-0.1-0.1-0.1-0.1-0.2s0.1-0.2,0.2-0.3c0.2-0.1,0.3-0.1,0.5-0.2c0.2,0,0.4-0.1,0.6-0.1s0.3-0.1,0.4-0.1c0.1-0.1,0.3-0.1,0.3-0.2
		c0.1-0.1,0.1-0.1,0.2-0.2s0.1-0.1,0.2-0.2s0.1-0.1,0.2-0.2s0.1-0.1,0.2-0.2s0.2-0.1,0.3-0.2c0.1-0.1,0.2-0.1,0.2-0.2
		c0.1-0.1,0.1-0.1,0.2-0.2v-0.5c0,0,0-0.1,0.1-0.1c0,0,0.1-0.1,0.1-0.2c0.1-0.1,0.1-0.1,0.2-0.2l-0.1-1.8c-0.2-0.5-0.5-0.9-0.8-1.1
		s-0.8-0.4-1.3-0.4h-0.4c-0.1,0-0.2,0.1-0.3,0.2c-0.1,0.1-0.2,0.2-0.3,0.4c-0.1,0.1-0.2,0.3-0.3,0.4c-0.1,0.1-0.1,0.3-0.2,0.4v0.3
		c0,0.4-0.1,0.7-0.2,1.1c-0.1,0.3-0.2,0.7-0.4,1c0,0,0,0.1-0.1,0.1c0,0.1-0.1,0.1-0.1,0.1v0.5c0,0,0,0.1-0.1,0.2
		c0,0.1-0.1,0.1-0.1,0.1c-0.1,0.2-0.1,0.4-0.2,0.5c0,0.2-0.1,0.4-0.1,0.5c0,0.2-0.1,0.4-0.1,0.5c0,0.2-0.1,0.3-0.1,0.5
		c0,0.1,0,0.2-0.1,0.3c0,0.1-0.1,0.2-0.1,0.4s-0.1,0.2-0.1,0.4c0,0.1-0.1,0.2-0.1,0.3c0,0,0,0.1-0.1,0.1c0,0.1-0.1,0.1-0.1,0.1
		c0,0.1-0.1,0.2-0.1,0.3c0,0.1,0,0.2,0,0.4c0,0.1,0,0.2,0,0.4c0,0.1,0,0.2-0.1,0.3c-0.1,0.2-0.1,0.4-0.2,0.6s-0.2,0.4-0.2,0.7
		c-0.1,0.2-0.1,0.4-0.2,0.7c-0.1,0.2-0.1,0.4-0.1,0.6s0,0.4,0.1,0.6s0.2,0.3,0.3,0.3c0.1,0.1,0.2,0.2,0.3,0.2
		c0.1,0.1,0.2,0.1,0.3,0.2c0.1,0.1,0.2,0.1,0.3,0.2c0.1,0.1,0.1,0.2,0.1,0.3c0,0.1-0.1,0.1-0.2,0.2s-0.2,0.1-0.4,0.1
		c-0.2,0-0.3,0-0.4,0.1c-0.1,0-0.2,0-0.3,0c-0.3,0-0.6,0-0.9-0.1s-0.6-0.1-0.9-0.1L74.7,81z"/>
	<path d="M89.5,80c0,0-0.1-0.1-0.2-0.2s-0.2-0.2-0.4-0.4c-0.1-0.1-0.2-0.2-0.4-0.4c-0.1-0.1-0.2-0.2-0.2-0.2
		c-0.1-0.1-0.1-0.2-0.2-0.2c0-0.1-0.1-0.2-0.1-0.2c0-0.1,0-0.2-0.1-0.3c0-0.1,0-0.2-0.1-0.3c-0.2-0.6-0.4-1.2-0.5-1.8
		c-0.1-0.6-0.2-1.2-0.2-1.8c0-0.1,0-0.3,0-0.5s0-0.4,0-0.6s0-0.4,0-0.5c0-0.2,0-0.3,0.1-0.5s0.1-0.3,0.2-0.5s0.2-0.3,0.3-0.5
		c0.1-0.2,0.2-0.3,0.3-0.5c0.1-0.2,0.2-0.3,0.3-0.5c0.1-0.3,0.2-0.7,0.3-1c0.1-0.3,0.3-0.7,0.5-1c0,0,0-0.1,0.1-0.1
		c0.1-0.1,0.1-0.1,0.2-0.2s0.1-0.2,0.2-0.2c0.1-0.1,0.1-0.1,0.1-0.1c0.1-0.1,0.2-0.2,0.2-0.3c0.1-0.1,0.2-0.1,0.2-0.2
		c0.1-0.1,0.2-0.1,0.2-0.2c0.1-0.1,0.2-0.2,0.3-0.3l0.1-0.2c0.1-0.1,0.2-0.2,0.2-0.2C91,66,91,66,91.1,65.9c0.1,0,0.1-0.1,0.2-0.1
		s0.2-0.1,0.3-0.2l0.1-0.1c0.1-0.1,0.1-0.1,0.2-0.2s0.1-0.1,0.2-0.2s0.1-0.1,0.1-0.1s0,0,0.1,0c0,0,0.1,0,0.1-0.1l0.6-0.1
		c0,0,0.1,0,0.1-0.1c0.1-0.1,0.1-0.1,0.1-0.1c0.1-0.1,0.2-0.1,0.3-0.1c0.1,0,0.2,0,0.2-0.1c0.1,0,0.1,0,0.2,0s0.2,0,0.3,0
		c0,0,0.1,0,0.1-0.1c0.1,0,0.2-0.1,0.3-0.1c0.1,0,0.2-0.1,0.3-0.1c0.1,0,0.1,0,0.2,0h0.6c0.1,0,0.1,0,0.3,0c0.1,0,0.3,0,0.4,0
		s0.3,0,0.4,0s0.2,0,0.3,0.1c0,0,0.1,0,0.1,0.1c0.1,0,0.1,0.1,0.2,0.1c0.1,0.1,0.2,0.1,0.2,0.2c0.1,0.1,0.1,0.1,0.1,0.1
		c0.2,0.1,0.5,0.2,0.8,0.2s0.6,0.1,0.9,0.1c0.1,0,0.2,0,0.3-0.1c0.1-0.1,0.2-0.1,0.3-0.1c0,0,0.1,0,0.2,0.1s0.1,0.1,0.2,0.2
		s0.1,0.1,0.2,0.2c0,0.1,0.1,0.1,0.1,0.2l0,0c0,0.1-0.1,0.3-0.1,0.4c-0.1,0.1-0.1,0.2-0.1,0.4s0,0.3,0.1,0.4c0,0.1,0.1,0.2,0.1,0.4
		v0.1c0,0,0,0.1-0.1,0.1c0,0.1-0.1,0.2-0.1,0.3c0,0.1-0.1,0.2-0.1,0.3c0,0.1,0,0.1,0,0.2s0,0.2,0,0.4c0,0.1,0,0.2,0,0.3
		c0,0.1-0.1,0.2-0.1,0.2c-0.1,0-0.2,0.1-0.4,0.1c-0.3,0-0.5-0.1-0.7-0.2c-0.1-0.1-0.2-0.3-0.3-0.5c-0.1-0.2-0.1-0.4-0.2-0.7
		c0-0.2-0.1-0.5-0.2-0.7s-0.2-0.4-0.4-0.6c-0.2-0.2-0.4-0.4-0.7-0.5c-0.2-0.1-0.5-0.3-0.8-0.3c-0.3-0.1-0.5-0.1-0.7-0.1h-0.1
		l-0.3,0.2h-0.7c-0.1,0-0.2,0.1-0.4,0.2c-0.1,0.1-0.3,0.2-0.4,0.3c-0.2,0.1-0.3,0.3-0.4,0.4s-0.3,0.2-0.4,0.3c0,0,0,0-0.1,0.1
		s-0.2,0.1-0.2,0.2c-0.1,0.1-0.2,0.1-0.2,0.2c-0.1,0.1-0.1,0.1-0.1,0.1l-0.1,0.1v0.1c0,0.1,0,0.1,0,0.1s-0.1,0.1-0.1,0.2
		c-0.1,0.1-0.1,0.2-0.2,0.3c-0.1,0.1-0.1,0.2-0.2,0.3s-0.1,0.2-0.1,0.2c-0.1,0.1-0.2,0.3-0.3,0.6c-0.1,0.3-0.3,0.6-0.4,0.9
		s-0.3,0.6-0.4,0.9s-0.2,0.5-0.2,0.6c-0.1,0.3-0.2,0.7-0.3,1c-0.1,0.3-0.1,0.7-0.2,1.1c-0.1,0.2-0.1,0.3-0.2,0.5c0,0.2,0,0.3,0,0.5
		v0.8l-0.1,1.2l0.4,1c0,0.1,0,0.1,0,0.2s0,0.1,0,0.2c0,0,0,0.1,0.1,0.2s0.2,0.2,0.3,0.3c0.1,0.1,0.3,0.3,0.4,0.4s0.3,0.3,0.4,0.4
		s0.2,0.2,0.3,0.3c0.1,0.1,0.1,0.1,0.2,0.1c0.1,0.1,0.2,0.1,0.3,0.1c0.1,0,0.2,0,0.4,0h1c0.1,0,0.2,0,0.4-0.1
		c0.2-0.1,0.3-0.1,0.5-0.2s0.3-0.1,0.5-0.2c0.1-0.1,0.2-0.1,0.3-0.2c0-0.1,0.1-0.1,0.2-0.3c0.1-0.1,0.2-0.3,0.3-0.4
		c0.1-0.1,0.2-0.3,0.3-0.4c0.1-0.1,0.1-0.2,0.2-0.3c0,0,0,0,0.1-0.1v-0.1v-0.4c0-0.1,0.1-0.2,0.1-0.3c0.1-0.1,0.1-0.2,0.2-0.4
		c0.1-0.1,0.1-0.3,0.1-0.4s0.1-0.2,0.1-0.4c0-0.1,0-0.2-0.1-0.3c0-0.1-0.1-0.2-0.1-0.4c-0.1-0.1-0.1-0.2-0.2-0.3
		c-0.1-0.1-0.2-0.2-0.3-0.2c-0.1,0-0.2-0.1-0.3-0.1c-0.1,0-0.2-0.1-0.3-0.1c-0.1,0-0.1-0.1-0.2-0.2C95.1,74.2,95,74.1,95,74
		s0-0.2,0.1-0.2c0.1-0.1,0.1-0.1,0.2-0.2s0.2-0.1,0.2-0.2s0.1-0.1,0.2-0.1c0.2,0,0.3,0,0.4,0s0.2,0.1,0.3,0.1h0.7
		c0.1,0,0.3,0,0.4,0.1c0.1,0,0.2,0.1,0.4,0.1c0.2,0,0.4,0,0.6-0.1s0.4-0.1,0.5-0.1s0.2,0,0.4,0c0.2,0,0.4,0,0.6,0s0.4,0,0.6,0
		s0.3,0,0.4,0c0,0,0,0,0.1,0h0.1h0.1c0.1,0,0.1,0.1,0.2,0.1s0.1,0.1,0.1,0.1l0.1,0.1v0.1c0,0,0,0-0.1,0.1c0,0-0.1,0-0.1,0.1
		c-0.1,0-0.2,0.1-0.3,0.2c-0.1,0.1-0.2,0.1-0.3,0.2c-0.1,0.1-0.1,0.1-0.1,0.1s-0.1,0.1-0.2,0.1c-0.1,0.1-0.2,0.2-0.3,0.2
		c-0.1,0.1-0.2,0.2-0.3,0.3s-0.1,0.1-0.2,0.2c0,0.1-0.1,0.2-0.2,0.4c-0.1,0.2-0.1,0.4-0.2,0.6s-0.1,0.4-0.1,0.6s-0.1,0.3-0.1,0.4
		l0.1,0.8c0,0.2,0,0.3-0.1,0.5s-0.2,0.3-0.3,0.5c-0.1,0.2-0.2,0.3-0.4,0.5c-0.1,0.1-0.3,0.3-0.4,0.4c-0.5,0.2-1,0.4-1.5,0.6
		s-1,0.4-1.5,0.7c-0.3,0-0.6,0-0.8,0.1c-0.3,0-0.5,0.1-0.8,0.1c-0.2,0-0.3,0-0.4,0s-0.3,0-0.4-0.1c-0.1,0-0.3-0.1-0.4-0.1
		s-0.3-0.1-0.4-0.1c0,0-0.1,0-0.2,0s-0.2,0-0.3,0c-0.1,0-0.2,0-0.3,0c-0.1,0-0.1,0-0.2,0s-0.3,0-0.4-0.1s-0.2-0.1-0.4-0.2
		c-0.1-0.1-0.2-0.2-0.4-0.2C89.7,80.2,89.6,80.1,89.5,80z"/>
</g>
</svg>
