<?xml version="1.0" encoding="utf-8"?>
<!-- Generator: Adobe Illustrator 23.1.1, SVG Export Plug-In . SVG Version: 6.00 Build 0)  -->
<svg version="1.1" id="Layer_1" xmlns="http://www.w3.org/2000/svg" xmlns:xlink="http://www.w3.org/1999/xlink" x="0px" y="0px"
	 viewBox="0 0 100 100" style="enable-background:new 0 0 100 100;" xml:space="preserve">
<path d="M52.8,80.4c-2.9,0-5.5-0.8-8.2-1.8c-3-1.1-5.9-2.4-8.9-3.7c-1.2-0.5-1.9-1.4-2.2-2.7c-0.9-4.4-2.9-8.3-5.7-11.8
	c-0.3-0.3-0.6-0.7-0.8-1.1c-0.6-0.9-0.7-1.8,0-2.6c5.3-6.1,7.5-13.4,8.7-21.1c0.2-1.2,0.7-1.4,1.9-1c2.2,0.8,4.4,1.6,6.7,2.2
	c1,0.2,2.2,0,3.2-0.4c1.1-0.4,2.2-1,3.2-1.6c1.3-0.7,2.7-0.8,4,0c0.7,0.4,1.4,0.6,2,1.1c1.9,1.3,4,1.4,6.1,0.6
	c1.5-0.6,3.1-1.1,4.7-1.7c1.7-0.7,2-0.4,2.3,1.4c0.8,5.5,2.3,10.8,5.1,15.6c0.9,1.6,2,3,3.1,4.4c1.1,1.4,1.2,2.1,0.1,3.5
	c-3,3.7-5.2,7.9-6.3,12.6c-0.2,0.8-0.9,1.8-1.6,2.2c-4.7,2.4-9.7,4.5-14.9,5.5C54.5,80.3,53.7,80.3,52.8,80.4z M60.2,44
	c-0.2,0.3-0.3,0.4-0.4,0.5c-0.5,3.9-1.7,7.4-4.7,10.1c-0.5,0.4-0.4,1,0.2,1.4c2.8,1.6,3.9,4.3,4.5,7.3c0.1,0.5,0.2,1,0.3,1.5
	c0.1,0,0.2,0,0.3,0c0.2-0.6,0.4-1.1,0.6-1.7c0.9-2.9,2.1-5.7,4.8-7.6c0.7-0.5,0.4-0.9-0.1-1.3c-2.8-2.4-4.3-5.4-5.1-8.9
	C60.5,45,60.4,44.6,60.2,44z M66.8,32.1c4.2-1.7,7.9-4,10.4-7.9c1-1.6,0.8-2.8-0.9-3.8c-2.5-1.6-5.1-3.1-7.6-4.7
	c-1.5-0.9-2.4-0.8-3.7,0.4c-1,0.9-2,1.8-3.2,2.5c-6.9,4.1-15.4,3-21.2-2.5c-1.2-1.1-2.2-1.3-3.5-0.5c-2.7,1.6-5.4,3.3-8.1,5
	c-1.3,0.8-1.6,2.1-0.7,3.4c0.8,1.2,1.7,2.3,2.7,3.3c3.6,3.4,8,5.2,12.7,6.4c1.3,0.4,2.6,0.2,3.8-0.4c1.1-0.6,2.3-1.2,3.4-1.8
	c1.2-0.6,2.4-0.6,3.6,0c1.1,0.6,2.2,1.2,3.3,1.7c0.8,0.4,1.6,0.6,2.7,0.9C62.6,33.5,64.8,32.9,66.8,32.1z M64.5,93.5
	c4.6-1.4,8.9-3.5,12.9-6.4c1-0.7,1-1.5,0.3-2.6c-1.3-2-2.6-4-3.8-6c-0.7-1.1-1.2-1.4-2.3-0.8c-5.4,2.8-11.1,4.4-17,5.7
	c-1,0.2-2.2,0.3-3.2,0c-5.8-1.3-11.6-2.9-17-5.7c-1.4-0.7-1.9-0.5-2.6,0.9c-1.1,1.9-2.3,3.8-3.6,5.6c-1,1.3-0.9,2,0.5,3
	c3.6,2.5,7.6,4.5,11.8,5.9c2,0.7,2.6,0.5,3.9-1.1c2.8-3.3,6.3-5,10.6-4.1c2.7,0.5,4.8,2,6.4,4.2c0.6,0.8,1.2,1.5,2.6,1.4
	C64,93.6,64.3,93.6,64.5,93.5z M73.6,37.2c0.4,3.4,1.6,3.1,3.8,1.7c5.8-3.7,9.3-9.1,11.3-15.7c1.1-3.7,0.9-4.1-2.4-6.1
	c-1.4-0.8-1.7-0.7-2.1,0.8c-1.8,6-4.7,11.2-10.1,14.7c-0.4,0.3-0.6,0.9-0.9,1.2C73.3,35.2,73.5,36.2,73.6,37.2z M17.8,25.4
	c2.3,6.1,5.9,11,11.7,14.2c1.2,0.7,2.1,0.3,2.3-1.1c0.2-1.2,0.4-2.5,0.6-3.7c0.2-1.1-0.1-1.7-1-2.3c-2.2-1.3-3.9-3.1-5.4-5.1
	c-2.1-2.9-3.6-6.2-4.5-9.6c-0.3-1.2-0.7-1.4-1.8-0.7c-0.7,0.4-1.5,0.7-2.1,1.3c-0.6,0.6-1,1.3-1.4,2C16.8,22.2,17.2,23.8,17.8,25.4z
	 M91,32.2c-0.3-0.9-1.3-1-1.9-0.2c-0.6,0.8-1.1,1.6-1.7,2.4c-2.7,3.6-6,6.6-9.5,9.3c-1.3,1-1.5,1.8-0.7,3.2c0.5,0.9,1,1.9,1.6,2.7
	c0.5,0.8,1.3,1,2.1,0.5c4-2.7,7.8-5.7,10.6-9.8c0.5-0.7,0.7-1.6,1.1-2.5C91.9,35.9,91.5,34,91,32.2z M14.4,40.4
	c2.7,4,6.5,7,10.4,9.7c0.9,0.6,1.5,0.4,2.2-0.5c0.5-0.8,1-1.6,1.4-2.4c1-1.9,0.8-2.4-0.8-3.8c-2.5-2.2-5-4.4-7.4-6.8
	c-1.3-1.3-2.4-3-3.5-4.5c-0.7-0.9-1.7-0.9-2,0c-0.6,1.8-1,3.7-1.5,5.7C13.6,38.7,13.9,39.6,14.4,40.4z M93.5,83.1
	c0.2-0.5,0.4-1.1,0.5-1.6c1.1-3.5,2.5-6.8,5.6-9.1c0.6-0.5,0.4-0.9-0.1-1.3c-3.3-2.8-5.1-6.4-6.1-10.6c-0.1-0.3-0.2-0.6-0.4-1.3
	c-0.2,0.6-0.4,0.8-0.4,1c-0.5,4.3-1.9,8.2-5.3,11.2c-0.7,0.6-0.6,1.3,0.2,1.7c3.1,1.8,4.4,4.7,5.1,8c0.1,0.7,0.3,1.3,0.4,2
	C93.2,83.1,93.3,83.1,93.5,83.1z M14.8,99.5c0.2-0.6,0.4-1.3,0.6-1.9c1.1-3.3,2.4-6.4,5.4-8.5c0.7-0.5,0.4-1-0.1-1.4
	c-3.3-2.8-5.1-6.4-6-10.5c-0.1-0.4-0.2-0.7-0.3-1c-0.3,0.3-0.4,0.5-0.5,0.8C13.4,81.2,12,85,8.6,88c-0.8,0.7-0.7,1.3,0.3,1.8
	c1.5,0.9,2.8,2,3.4,3.7c0.7,1.7,1.2,3.5,1.7,5.3c0.1,0.3,0.2,0.6,0.3,1.2C14.6,99.6,14.7,99.6,14.8,99.5z M6.5,24
	c0.2-0.7,0.4-1.4,0.7-2.1c1.1-3.3,2.5-6.5,5.5-8.6c0.7-0.5,0.4-1-0.1-1.4c-3.2-2.8-5-6.4-6-10.4C6.4,1.1,6.3,0.7,6.1,0.1
	C5.9,0.4,5.9,0.5,5.8,0.6C5.8,0.8,5.7,1,5.7,1.2C5.2,5.4,3.8,9.3,0.5,12.2c-0.7,0.6-0.6,1.3,0.2,1.7c3.1,1.8,4.3,4.7,5,7.9
	c0.1,0.7,0.3,1.4,0.4,2.1C6.2,24,6.4,24,6.5,24z"/>
</svg>
