<?xml version="1.0" encoding="utf-8"?>
<!-- Generator: Adobe Illustrator 23.1.1, SVG Export Plug-In . SVG Version: 6.00 Build 0) -->
<svg version="1.1" id="Layer_1" xmlns="http://www.w3.org/2000/svg" xmlns:xlink="http://www.w3.org/1999/xlink" x="0px" y="0px" viewBox="0 0 100 100" style="enable-background:new 0 0 100 100;" xml:space="preserve">
	<g id="mVdzMv.tif">
		<g>
			<path
				d="M6.1,100c-0.4-0.1-0.7-0.3-1.1-0.4C1.8,98.5-0.3,95.4,0,92c0.3-3.4,2.9-6,6.2-6.6C6.9,85.4,7.6,85,8,84.6
			c3.2-3.1,6.4-6.3,9.7-9.6c-1.6-1.6-3.2-3.1-4.8-4.7c-1.2-1.2-1.3-1.9-0.6-3.4c0.8-1.7,1.7-3.4,2.5-5.1c0.9-1.7,2.4-1.9,3.7-0.6
			c1.4,1.4,2.7,2.8,4.3,4.3c0.3-0.4,0.5-0.8,0.8-1.1c15-15,30.1-30.1,45.1-45.1c0.8-0.8,1.7-1.3,2.9-1.4c3-0.4,6.1-0.8,9.1-1.3
			c1.7-0.2,2.8,0.8,2.6,2.5c-0.4,3.2-0.9,6.3-1.3,9.5c-0.1,1-0.5,1.7-1.2,2.4C65.6,46.2,50.5,61.3,35.4,76.4c-0.3,0.3-0.6,0.5-1,0.8
			c1.5,1.5,2.9,2.8,4.2,4.2c1.4,1.4,1.2,2.9-0.6,3.8c-1.7,0.9-3.4,1.7-5.1,2.5c-1.4,0.7-2.1,0.6-3.3-0.6c-1.6-1.6-3.1-3.1-4.7-4.8
			c-2,2-3.9,3.9-5.9,5.9c-1.3,1.3-2.7,2.7-4,4c-0.3,0.3-0.5,0.8-0.6,1.2c-0.5,3.4-2.5,5.6-5.8,6.4c-0.1,0-0.2,0.1-0.3,0.2
			C7.6,100,6.8,100,6.1,100z M31.8,74.3c0.2-0.3,0.5-0.6,0.7-0.9c14.4-14.4,28.7-28.7,43.1-43.1c1.6-1.5,2.6-3.1,2.7-5.3
			c0-1.2,0.3-2.5,0.5-3.8c-2.1,0.3-4,0.5-5.8,0.9c-0.6,0.1-1.3,0.4-1.7,0.8c-15,14.9-29.9,29.9-44.8,44.8c-0.2,0.2-0.4,0.5-0.6,0.7
			c0.5,0.5,0.9,0.9,1.5,1.6c0.2-0.3,0.5-0.7,0.7-0.9c11.1-11.1,22.3-22.3,33.4-33.4c0.3-0.3,0.5-0.6,0.9-0.8
			c0.8-0.6,1.9-0.6,2.7,0.1c0.8,0.7,0.9,1.9,0.2,2.7c-0.2,0.3-0.5,0.6-0.8,0.9C53.3,49.7,42.1,60.8,31,71.9c-0.3,0.3-0.6,0.4-1,0.7
			C30.7,73.3,31.2,73.7,31.8,74.3z M17.4,66.1c-0.1,0.2-0.2,0.4-0.4,0.6c-0.6,0.8-0.4,1.5,0.3,2.2c4.5,4.4,8.9,8.9,13.4,13.4
			c1.3,1.3,1.3,1.3,2.9,0.4c0.1,0,0.1-0.1,0.2-0.2C28.4,77.1,22.9,71.6,17.4,66.1z M10.4,92.7c0-1.7-1.4-3.1-3.1-3.1
			c-1.7,0-3.1,1.4-3.1,3.1c0,1.7,1.5,3.2,3.2,3.1C9.1,95.8,10.4,94.4,10.4,92.7z M18.9,82.2c1-1,1.9-1.9,2.9-2.9
			c-0.3-0.4-0.8-0.8-1.2-1.2c-1,1-1.9,2-2.9,2.9C18.2,81.4,18.6,81.9,18.9,82.2z M13.1,88.1c1-1,1.9-1.9,2.9-2.8
			c-0.4-0.4-0.9-0.8-1.3-1.3c-0.9,0.9-1.9,1.9-2.7,2.8C12.3,87.3,12.7,87.7,13.1,88.1z"/>
			<path
				d="M100,6.8c-0.6,0.6-1.2,1.2-1.9,1.8c-0.1-0.1-0.2-0.1-0.2-0.2c0,0.7,0,1.4,0,2c-0.1,1.1-0.9,2-2,2c-1.1,0-2-0.8-2.1-2
			c0-0.7,0-1.4,0-2.1c-1.2-0.3-2.1-0.9-2.1-2.2c0-1.3,0.9-1.9,2.1-2.1c0-0.7,0-1.3,0-2c0.1-1.2,1-2.1,2.1-2.1c1.1,0,2,0.9,2,2.1
			c0,0.6,0,1.3,0,1.9C98,4,98.1,3.9,98.1,3.9c0.6,0.6,1.2,1.2,1.9,1.8C100,6,100,6.4,100,6.8z"/>
			<path
				d="M37.5,33.4c0,0.7,0,1.4,0,2c-0.1,1.2-1,2.1-2.1,2.1c-1.1,0-1.9-0.9-2-2.1c0-0.6,0-1.3,0-2c-1.2-0.3-2.1-0.9-2.1-2.2
			c0-1.3,0.9-1.9,2.1-2.2c0-0.7,0-1.3,0-2c0.1-1.2,0.9-2.1,2-2.1c1.2,0,2.1,0.9,2.1,2.1c0,0.6,0,1.3,0,2c1.2,0.3,2.1,0.9,2.1,2.2
			C39.5,32.5,38.7,33.1,37.5,33.4z"/>
			<path
				d="M87.5,66.7c0,0.7,0,1.3,0,1.9c0,1.3-0.9,2.2-2.1,2.2c-1.1,0-2-0.9-2-2.2c0-0.6,0-1.2,0-1.9c-1.2-0.3-2.1-0.9-2.1-2.2
			c0-1.3,0.9-1.9,2.1-2.1c0-0.7,0-1.4,0-2.1c0.1-1.2,0.9-2,2.1-2c1.1,0,2,0.8,2,2c0,0.7,0,1.4,0,2c1.6,0.6,2.2,1.3,2.1,2.4
			C89.5,65.7,88.9,66.4,87.5,66.7z"/>
			<path d="M14.6,12.5c0-1.2,1-2.1,2.1-2.1c1.1,0,2,1,2,2.1c0,1.1-1,2.1-2.1,2.1C15.5,14.5,14.6,13.6,14.6,12.5z"/>
			<path d="M58.4,72.9c-1.2,0-2.1-0.9-2.1-2.1c0-1.1,0.9-2,2-2.1c1.2,0,2.1,0.9,2.1,2.1C60.4,72,59.5,72.9,58.4,72.9z"/>
			<path d="M70.8,89.6c1.2,0,2,0.9,2.1,2c0,1.2-0.9,2.1-2,2.1c-1.1,0-2.1-1-2.1-2.1C68.8,90.5,69.7,89.6,70.8,89.6z"/>
			<path d="M50,10.4c-1.1,0-2-0.9-2.1-2c0-1.1,0.9-2.1,2.1-2.1c1.1,0,2,0.9,2.1,2C52.1,9.4,51.2,10.4,50,10.4z"/>
			<path d="M97.9,37.5c0,1.2-0.9,2.1-2.1,2.1c-1.1,0-2-0.9-2.1-2c0-1.1,0.9-2.1,2.1-2.1C97,35.4,97.9,36.3,97.9,37.5z"/>
			<path d="M12.5,39.6c1.2,0,2.1,0.9,2.1,2.1c0,1.1-0.9,2-2,2.1c-1.2,0-2.1-0.9-2.1-2.1C10.4,40.5,11.3,39.6,12.5,39.6z"/>
		</g>
	</g>
</svg>