<?xml version="1.0" encoding="utf-8"?>
<!-- Generator: Adobe Illustrator 24.1.3, SVG Export Plug-In . SVG Version: 6.00 Build 0)  -->
<svg version="1.1" id="Layer_1" xmlns="http://www.w3.org/2000/svg" xmlns:xlink="http://www.w3.org/1999/xlink" x="0px" y="0px"
	 viewBox="0 0 100 100" style="enable-background:new 0 0 100 100;" xml:space="preserve">
<path d="M51.7,3.7c1.3,0,2.5,0,3.8,0c0.2,0.1,0.4,0.1,0.6,0.2c5.8,0.7,10.6,3.4,14.2,8.1c0.3,0.3,0.7,0.6,1.1,0.6
	c10.9,1.1,19.3,10.6,18.6,21.6c0,0.6,0.1,0.9,0.5,1.3c2.5,2.6,4.3,5.6,5.2,9.1c0.3,1.1,0.5,2.2,0.7,3.3c0,1.4,0,2.8,0,4.2
	c-0.1,0.1-0.1,0.3-0.2,0.4c-0.6,4.5-2.5,8.5-5.6,11.9c-0.3,0.3-0.5,0.7-0.4,1.1c0.6,11.1-7.4,20.7-18.5,21.9c-0.3,0-0.6,0.3-0.8,0.5
	c-7,9.1-18.7,11.2-28.3,5.1c-0.4-0.2-0.8-0.2-1.2-0.2c-1.4,0.2-2.8,0.6-4.1,0.6c-9.8,0.4-17.8-5.4-20.8-14.6
	c-0.1-0.4-0.5-0.7-0.8-0.9c-10.1-5-14.4-16.4-9.9-26.8c0.2-0.4,0.2-0.9,0-1.2c-4.4-10.2-0.4-21.8,9.6-26.8c0.4-0.2,0.6-0.6,0.8-0.9
	C19.3,11.1,29.6,5.1,40.6,7.5c0.4,0.1,0.9,0,1.2-0.2c2-1.4,4.3-2.3,6.7-3C49.5,4.1,50.7,3.9,51.7,3.7z M53.8,73.1
	c0-2.1-1.7-3.9-3.8-3.9s-3.9,1.7-3.9,3.8c0,2.1,1.7,3.9,3.8,3.9C52.1,76.9,53.8,75.4,53.8,73.1z M42.2,57.7c-2.1,0-3.8,1.8-3.8,3.8
	c0,2.1,1.7,3.8,3.8,3.8c2.1,0,3.9-1.8,3.9-3.9C46.1,59.4,44.4,57.7,42.2,57.7z M34.6,76.9c2.1,0,3.8-1.8,3.8-3.9
	c0-2.1-1.8-3.9-3.9-3.8c-2.1,0-3.8,1.8-3.8,3.9C30.7,75.3,32.5,76.9,34.6,76.9z"/>
</svg>
