<?xml version="1.0" encoding="utf-8"?>
<!-- Generator: Adobe Illustrator 24.1.3, SVG Export Plug-In . SVG Version: 6.00 Build 0)  -->
<svg version="1.1" id="Layer_1" xmlns="http://www.w3.org/2000/svg" xmlns:xlink="http://www.w3.org/1999/xlink" x="0px" y="0px"
	 viewBox="0 0 100 100" style="enable-background:new 0 0 100 100;" xml:space="preserve">
<path d="M72.1,83.9c0.7,3,1.4,5.9,2.2,9c-16.7,0-32.8,0-49.6,0c0.6-2.4,1.1-4.5,1.8-6.6c0.5-1.6,0.4-2.6-1.4-3.3
	C8.9,76.4,2.3,63.3,0.4,47c-0.3-2.8-0.3-5.7-0.4-8.6c0-0.4,0.2-0.9,0.4-1.5c32.8,0,65.5,0,98.2,0C100.2,54.3,94,76,72.1,83.9z
	 M72.3,32.9c10.5,1.6,18.4-1.8,24.7-10.5c3.4-4.8,4.3-9.1,0.8-12.8c-3.3-3.4-8.2-3.3-12.4,0.4C77.7,16.8,70,23.7,62.4,30.5
	c-0.6,0.5-1.1,1.1-2.1,2.3C64.8,32.8,68.6,32.3,72.3,32.9z"/>
</svg>
