<?xml version="1.0" encoding="utf-8"?>
<!-- Generator: Adobe Illustrator 23.1.1, SVG Export Plug-In . SVG Version: 6.00 Build 0)  -->
<svg version="1.1" id="Layer_1" xmlns="http://www.w3.org/2000/svg" xmlns:xlink="http://www.w3.org/1999/xlink" x="0px" y="0px"
	 viewBox="0 0 100 100" style="enable-background:new 0 0 100 100;" xml:space="preserve">
<path d="M4.4,42.9c0.6-0.3,1.3-0.8,1.9-0.8c4.5-0.1,8.9-0.1,13.4,0c0.7,0,1.4,0.3,1.9,0.8c1.4,1.3,2.6,2.7,3.9,4.1
	c0.3,0.3,0.8,0.6,1.2,0.6c7.4,0,14.8,0,22.3,0c3.8,0,7.7,0.1,11.5,0.1c4.5,0,9.1,0,13.6,0c2.1,0,4.2,0,6.3,0c0.4,0,0.7,0,1.2-0.1
	c-0.6-1.5-1.6-2.4-2.6-3.3c-0.3-0.3-0.4-0.7-0.6-1.1c0.4,0,0.9-0.2,1.3-0.1c5,1.9,10,3.9,14.9,5.9c0.4,0.1,0.7,0.5,1,0.8
	c-0.4,0.3-0.7,0.7-1.1,0.8c-4.9,1.9-9.7,3.7-14.6,5.5c-0.4,0.1-0.8,0-1.2,0c0.2-0.4,0.3-0.8,0.5-1.2c0.8-1,1.6-2,2.4-3
	c-0.1-0.1-0.1-0.2-0.2-0.4c-1,0-1.9,0-2.9,0c-6,0-11.9,0-17.9,0c-7.9,0-15.9,0-23.8,0c-3.3,0-6.6,0-9.8,0c-0.5,0-1.2,0.3-1.6,0.7
	c-1.3,1.2-2.5,2.6-3.8,3.9c-0.4,0.4-1.1,0.7-1.7,0.7c-4.6,0.1-9.2,0.1-13.7,0c-0.6,0-1.2-0.4-1.8-0.6c0-0.4,0-0.7,0-1.1
	c1.8-1.9,3.7-3.8,5.6-5.8c-1.8-1.8-3.7-3.5-5.6-5.3C4.4,43.6,4.4,43.3,4.4,42.9z M15.2,43.8c-1.6,0-3.2,0-4.9,0
	c-0.6,0-1.2,0.2-1.1,0.9c0.1,0.3,0.7,0.8,1.1,0.8c3.2,0.1,6.4,0,9.6,0c0.6,0,1.2-0.2,1.1-0.9c-0.1-0.3-0.7-0.7-1.1-0.8
	C18.3,43.7,16.8,43.8,15.2,43.8z M90.6,48.5c-0.3-0.3-0.4-0.6-0.6-0.7c-1.7-0.6-3.4-1.3-5.2-1.9c-0.2-0.1-0.5,0.2-0.8,0.3
	c0.1,0.2,0.2,0.6,0.4,0.7c1.7,0.7,3.5,1.3,5.3,1.9C89.9,48.9,90.2,48.7,90.6,48.5z M46.9,0c0.6,0.2,1.3,0.4,1.8,0.7
	c2.3,1.2,3.8,3.1,3.8,5.8c-0.1,2.9-1.5,4.9-4.1,6.2c-0.3,0.2-0.7,0.3-1.3,0.5c0.6,1.3,1,2.5,1.7,3.7c1.7,2.7,4.2,4.4,6.8,6.1
	c2.3,1.6,4.6,3.3,7.2,5.1c-2.2,0.9-4,1.6-5.8,2.3c-0.2,0.1-0.5,0-0.7-0.2c-2.5-1.8-5.1-3.5-7.5-5.4c-3.5-2.7-5.8-6.2-6.6-10.7
	c-0.2-1.4-1.1-2.7-1.8-4c-1.8-3.2-1-7.2,2.1-9.2c0.7-0.4,1.5-0.7,2.2-1C45.5,0,46.2,0,46.9,0z M44.4,3.9c-0.4-0.7-0.7-1.2-1.1-1.7
	c-0.5,0.3-1.3,0.5-1.4,1C41.3,4.3,41,5.7,40.8,7c-0.1,0.4,0.4,0.9,0.7,1.4c0.4-0.2,1.1-0.3,1.3-0.7C43.3,6.5,43.8,5.2,44.4,3.9z
	 M78.2,76.4c0,0.1,0.1,0.3,0.1,0.4c-1.2,0.6-2.5,1.1-3.7,1.7c-0.3,0.2-0.6,0.5-0.9,0.8c0.3,0.2,0.7,0.5,1,0.5
	c5.5,0,10.9,0.1,16.4,0.1c0.3,0,0.7-0.2,1-0.3c-0.2-0.3-0.2-0.8-0.5-1c-3.9-3.6-7.8-7.1-11.7-10.7c-0.3-0.3-0.7-0.3-1.1-0.4
	c0,0.4,0,0.9,0.1,1.3c0.3,1.2,0.8,2.5,1.2,4c-0.6-0.2-0.9-0.3-1.1-0.4c-15.5-6.2-31-12.4-46.4-18.7c-1.7-0.7-3.4-1-5.3-0.9
	c-0.3,0-0.6,0.1-0.8,0.3c-0.6,0.6-1.1,1.2-1.8,1.9C42.5,62.1,60.3,69.2,78.2,76.4z M79.7,28c-0.3,1.1-0.7,2.2-1.1,3.3
	c-0.1,0.3,0,0.6,0.1,1c0.3-0.1,0.6-0.1,0.9-0.2c0.2-0.1,0.4-0.3,0.6-0.5c3.7-3.4,7.5-6.8,11.2-10.2c0.3-0.3,0.5-0.7,0.7-1
	c-0.4-0.2-0.8-0.4-1.2-0.4c-5.3,0-10.6,0-15.8,0c-0.4,0-0.9,0.3-1.3,0.5c0.4,0.3,0.7,0.7,1.1,0.9c1.2,0.5,2.5,0.9,3.5,2.1
	c-17.7,7.1-35.4,14.2-53.1,21.3c0.8,1.1,1.5,1.8,2.9,1.6c1.5-0.2,3.2,0.2,4.6-0.3c12.6-5,25.2-10.1,37.8-15.1
	c3.1-1.2,6.2-2.5,9.3-3.7C79.7,27.5,79.8,27.8,79.7,28z M60.1,70.5c-2.1,1.3-3.9,2.4-5.7,3.5c-4.2,2.7-6.9,6.3-7.6,11.3
	c-0.1,0.9-0.1,1.5,1.1,1.8c2.9,0.7,4.7,3.3,4.7,6.2c0,2.9-1.9,5.5-4.7,6.4c-2.7,0.8-5.7-0.2-7.3-2.6c-1.7-2.5-1.5-5.6,0.3-8
	c0.3-0.4,0.5-1.1,0.5-1.6c-0.5-5.2,1.3-9.7,5.1-13.2c2.4-2.2,5-4,7.6-6c0.2-0.2,0.6-0.3,0.8-0.2C56.5,69,58.2,69.7,60.1,70.5z
	 M45,96.9c-0.3-1.5-1.2-3.1-2.9-4c-0.9-0.5-1.5-0.1-1.4,0.9c0.2,1.9,1.2,3.4,2.9,4.3C44.4,98.6,45,98.1,45,96.9z M12.8,40.7
	c4.5,0.6,4.7,0.5,7.2-2.9c0.1-0.2,0.3-0.4,0.4-0.5c6.3-8.3,12.7-16.7,19-25c0.2-0.3,0.3-0.8,0.2-1.1c-0.5-1.2-1-2.4-1.6-3.7
	C29.7,18.5,21.3,29.6,12.8,40.7z M38.3,91.3c0.5-0.9,0.9-1.8,1.4-2.6c0.6-0.8,0.5-1.5-0.1-2.3c-1.5-2-3-4-4.5-5.9
	C29.8,73.3,24.4,66.2,19,59.1c-0.3-0.4-0.7-0.9-1.1-0.9c-1.4-0.1-2.9,0-4.6,0C21.7,69.4,30,80.3,38.3,91.3z M64.9,65.4
	c0.8,0.4,1.2,0.1,1.7-0.4c2.5-2.9,3.8-6.4,4.5-10.1c0.1-0.7,0.2-1.4,0.3-2.1c-1.2,0-2.3,0-3.4,0c-2,0.1-2,0.1-2.6,2.1
	c-0.9,3.3-2.6,6.2-5.1,8.7C62,64.2,63.5,64.7,64.9,65.4z M67.2,33.4c-1.7,0.7-3.3,1.3-5,2c2.7,3.2,3.8,6.9,4.2,10.8
	c1.8,0,3.4,0,5.1,0C71.1,41.5,70.1,37.2,67.2,33.4z"/>
</svg>
