<?xml version="1.0" encoding="utf-8"?>
<!-- Generator: Adobe Illustrator 24.1.3, SVG Export Plug-In . SVG Version: 6.00 Build 0)  -->
<svg version="1.1" id="Layer_1" xmlns="http://www.w3.org/2000/svg" xmlns:xlink="http://www.w3.org/1999/xlink" x="0px" y="0px"
	 viewBox="0 0 100 150" style="enable-background:new 0 0 100 150;" xml:space="preserve">
<path d="M81.9,44.3c0,0,0.1-0.1,0.1-0.1c0.7,1.4,1.3,2.8,2,4.2c2.1,4.5,4.5,8.6,7.4,11.8c1.7,1.8,3.4,3.4,5.5,4.1
	c0.8,0.3,1.6,0.4,2.4,0.1c-0.4-0.4-0.6-0.8-0.9-1.2c-2.9-3.8-5.5-8-8-12.3c-2.5-4.4-5-8.8-7.5-13.3l-0.5-2.4c0.8,1.3,1.5,2.7,2.3,4
	c1.8,3.1,3.8,5.9,6,8.4c1.2,1.4,2.5,2.6,4,3.1c0.3,0.1,0.7,0.1,1.1,0.1c0-0.1,0-0.1,0-0.2c-0.1-0.1-0.1-0.1-0.2-0.2
	c-2.1-2.3-3.9-5-5.6-7.9c-2-3.5-3.9-7.1-5.8-10.7c-1.4-2.6-2.6-5.3-3.9-8.1c0.4,0.1,0.7,0.3,0.7,0.3c-0.2-0.6-0.7-1.1-1.2-1.6
	c-0.6-1.4-1.1-2.7-1.7-4.1c-0.3-0.8-0.6-1.6-0.8-2.5c1,1,1.4,1.2,1.7,0.9c-0.4-0.6-0.8-1.2-1.3-1.9c-1-1.6-1.9-3.2-2.9-4.7
	c-1.4-2.2-3.1-3.4-5.1-2.9c-2.3,0.6-4.2,2.4-5.7,5.2c-0.6,1.1-1.2,2.4-1.8,3.6c0,0,0,0,0,0c-0.4-0.1-0.6-0.4-0.6-0.9
	c0-0.3,0.1-0.6,0.2-0.8c0.5-0.8,0.6-1.6,0.6-2.5c0-0.4,0.1-0.6,0.4-0.9c0,0,0.1-0.1,0.1-0.1c-0.4,0.4-0.5,0.9-0.4,1.4
	c0.1-0.5,0.4-0.7,0.7-1c0.9-1,1-2.5,0.3-3.6c-0.3-0.4-0.6-0.6-1.1-0.6c-0.1-0.6-0.1-1.1-0.2-1.6c-0.1-0.8-0.9-1.5-1.8-1.6
	c-0.4-0.1-0.8-0.1-1.1-0.2c-0.4-0.1-0.7-0.2-0.8-0.6c0.4,0.1,0.9,0.3,1.4,0.4c0,0,0-0.1,0.1-0.1c-0.9-0.8-1.5-1.9-2.8-2.2
	c-1-0.3-2.1-0.4-3,0.3c-0.4,0.3-0.9,0.5-1.3,0.8C52,3,51,3.2,49.9,3.2c-0.6,0-1.3,0.2-1.8,0.5c-0.2,0.2-0.5,0.4-0.6,0.6
	c-0.2,0.3-0.4,0.4-0.6,0.5c-0.6,0.3-1,0.7-1.3,1.2c-0.3,0.5-0.5,1.1-0.9,1.6c-0.2,0.4-0.5,0.7-0.8,1.1c-0.3,0.3-0.7,0.4-1.1,0.5
	c-0.4,0-0.7-0.2-0.8-0.6c-0.2,0.3-0.3,0.5,0,0.8c0.3,0.4,0.7,0.6,1.2,0.7c0.1,0,0.2,0,0.4,0c-0.5,0.4-0.7,0.9-0.9,1.4
	c-0.4-0.5-0.9-0.9-1.3-1.3c-2.7-2.2-5.1-1.8-7.6,1.3c-1.5,1.8-2.9,3.8-4.3,5.7c0.7,0.2,1.2-0.4,1.8-1.2c-0.1,0.4-0.2,0.7-0.3,0.9
	c-1.2,2.4-2.3,4.9-3.6,7.3c-2.4,4.5-5.1,8.9-7.8,13c-2,3-4.1,6-6.5,8.5c-0.5,0.5-0.9,1-1.5,1.5c0.4,0,0.7,0.1,1,0
	c1.2-0.2,2.3-1,3.3-1.9c1.9-1.7,3.7-3.7,5.3-5.9c3-3.9,5.8-8.1,8.4-12.4c0.3-0.5,0.6-1,0.8-1.5c0.3-0.5,0.5-0.9,0.8-1.4
	c0,0,0.1,0.1,0.1,0.1c-3.3,6.7-7.2,12.6-11.2,18.4c-4,5.9-8,11.6-12.6,16.7c0.4,0,0.7,0.1,1.1,0.1c1.1,0,2.2-0.3,3.3-0.9
	c3.1-1.8,5.8-4.5,8.1-7.9c1.8-2.6,3.4-5.6,5.1-8.5c0.6-1,1.1-2.1,1.7-3.1c0,0,0.1,0.1,0.1,0.1c-3.9,7.3-7.9,14.3-12.3,21
	c-4.4,6.7-9,13.1-14.1,18.9c0.2,0,0.3,0,0.4,0c0.8-0.4,1.6-0.7,2.4-1.1c3.3-1.9,6.3-4.6,9.1-7.7c4.4-4.9,7.9-10.7,10.8-17.3
	c2.1-4.8,4.2-9.6,6.3-14.5c0.5-1.2,1-2.4,1.5-3.5c0,0.2,0,0.4-0.1,0.5c-1.7,4-3.2,8-5,12c-2,4.5-4.1,9-6.2,13.5
	c-1.7,3.5-3.5,7-5.5,10.2c-0.4,0.6-0.8,1.1-1.1,1.7c0,0.1,0,0.1,0.1,0.2c0.7-0.5,1.5-1,2.2-1.6c2-1.8,3.6-4.4,5.1-7
	c3.2-5.8,5.7-12.1,8-18.5c0.4-1.2,0.9-2.4,1.3-3.5c-2.5,8.1-5.2,16.1-9.2,23.1c0.1,0,0.1,0,0.1,0c0.1,0,0.1,0,0.2,0
	c1-0.3,1.8-1,2.5-1.9c2-2.3,3.4-5.2,4.8-8.3c1.7-4,2.9-8.3,3.8-12.7c0.7-3.4,1.4-6.7,2.1-10.1c-0.5,4.1-1.1,8.2-2,12.2
	c-0.9,4-1.9,7.9-3.2,11.8c1.1-0.6,1.8-1.7,2.5-3c1.9-3.7,3.1-7.9,3.9-12.2c0.4-2.4,0.8-4.8,1.2-7.2c-0.4,6.1-1.6,11.9-3.1,17.7
	c0.1-0.1,0.2-0.2,0.2-0.3c0.3-0.4,0.6-0.8,0.8-1.3c0.6-1,1-2,1.5-3.1c0.2,0.4,0.5,0.7,0.5,0.7s-0.4,2.3-1.3,5.4
	c-0.2,0.7-0.9,3-1.4,3.4c-0.5,0.4-2.1,1.4-2.1,2c0,0.6,0.9,0.8,0.9,0.8l0,0.5c0,0-0.8,0.6-0.6,1.5c0.1,0.9,1.3,0.9,1.3,0.9
	s-0.1,1.9-0.2,2.3c-0.1,0.4,0,1.3-0.1,1.5c0,0,0,0,0,0c-0.1,0.1-0.2,0.2-0.2,0.3c-0.4,0.5-0.8,0.9-1.4,0.9c-0.2,0-0.3,0.2-0.2,0.4
	c0.1,0.3,0.2,0.6,0.4,0.9c0.2,0.3,0.1,0.4-0.1,0.6c-1.2,1.5-2.4,3-3.6,4.5c-3.4,4.2-6.7,8.4-10.1,12.6c-0.2,0.2-0.3,0.3-0.6,0.4
	c-0.7,0-1.3,0.2-1.4,1c0,0,0,0.1-0.1,0.1c-0.6,0.7-1.1,1.5-1.6,2.3c-0.4,0.6-1.1,0.9-1.7,1.3c-0.2,0.1-0.6-0.1-0.7-0.4
	c-0.1-0.4-0.2-0.8-0.3-1.2c-0.1,0.4-0.3,0.8-0.5,1.1c-0.5-1.1-1-2.2-1.6-3.4C9,87.8,9,87.9,9,88c-0.1,1.1-0.1,2.1-0.2,3.2
	c0,0.2-0.1,0.4-0.3,0.5c-0.5,0.2-0.9,0.5-1.3,0.7c-0.3,0.2-0.5,0.2-0.8,0c-1.2-0.6-2.4-1.2-3.6-1.8c0.8,1,1.6,2,2.4,3
	c0.2,0.3,0.4,0.6,0.3,1C5.3,95,5.2,95.5,5,95.9c-0.1,0.2-0.2,0.4-0.4,0.4c-0.4,0.1-0.8,0.3-1.3,0.4c-0.8,0.3-1.7,0.5-2.5,0.8
	c0,0,0,0.1,0,0.1c1.4,0.2,2.9,0.4,4.4,0.6c-0.5,0.3-0.9,0.5-1.4,0.8c0.1,0.1,0.2,0.2,0.3,0.2c0.3,0,0.7,0,1,0.1
	c0.7,0,0.7,0.2,0.5,0.8c-0.3,0.9-0.7,1.8-1,2.7c-0.2,0.6-0.4,1.2-0.6,1.8c1.4-0.9,2.6-1.8,3.9-2.6c0.1-0.1,0.2-0.1,0.2-0.2
	c0.1-0.2,0.2-0.2,0.3,0c0,0.1,0.1,0.3,0.1,0.4c0.1,0.4,0.1,0.9,0.5,1.2c0.2-0.5,0.3-1,0.5-1.6c0.6,1.4,1.2,2.6,1.7,3.9
	c0,0,0.1,0,0.1,0c0.1-1.2,0.1-2.4,0.2-3.6c0-0.2,0.1-0.3,0.2-0.4c0.6-0.3,1.1-0.6,1.7-1c0.1-0.1,0.2-0.1,0.4,0
	c1.1,0.5,2.3,1,3.5,1.6c-0.8-1-1.5-2-2.2-2.9c-0.2-0.2-0.2-0.4-0.2-0.6c0.1-0.5,0.3-1,0.5-1.6c0.1-0.2,0.2-0.4,0.4-0.5
	c0.9-0.3,1.9-0.6,2.8-0.9c0.1,0,0.3,0,0.3-0.2c-1-0.2-1.9-0.3-2.9-0.5c-0.1,0-0.2,0-0.2-0.1c0-0.1,0.1-0.1,0.1-0.2
	c0.2-0.1,0.4-0.1,0.5-0.4c-0.2,0-0.4,0-0.6,0c-0.2,0-0.3,0-0.5,0c-0.6,0-0.9-0.4-0.7-1c0.1-0.3,0.2-0.5,0.2-0.8
	c0.1-0.2,0.1-0.4,0.2-0.5c0.5-0.5,1-1,1.4-1.6c0.3-0.4,0.6-0.8,1.1-1c0.5-0.3,0.5-0.6,0.4-1.1c-0.1-0.4,0-0.7,0.3-1.1
	c0.8-1,1.6-2,2.4-3c2.2-2.8,4.5-5.6,6.7-8.5c1.5-2,3-3.8,4.6-5.8c0.1-0.1,0.2-0.2,0.4-0.2c0.3,0.1,0.6,0.1,0.9,0.2
	c0.4,0.1,0.4,0,0.4-0.3c0-0.3-0.1-0.7,0.2-1c0.1-0.2,0.3-0.3,0.4-0.5c0.4,0.3,0.8,0.6,1.1,0.5c0.5-0.1,0.9-0.9,0.9-0.9
	s0.9-0.3,0.8-0.7c0,0,0.4-0.4,0.5-0.8c0,0,0.9-0.1,0.7-0.9c-0.1-0.4-0.3-1.1-0.5-1.7c0.1-0.1,0.2-0.2,0.3-0.3c0.6-0.9,1.3-1.7,2-2.5
	c0.3-0.4,0.6-0.6,1-0.6c0.2,0,0.4,0,0.5-0.1c-0.8,2.3-1.5,4.5-1.7,5.9c-0.6,4-2,9.5-2.2,9.7c-0.2,0.2-1.4,1.7-1.1,2.2
	c0.2,0.3,1.5-0.3,2.9-1c-1.5,3.1-3.2,6.5-4.8,10.2c-2.5,5.7-6.3,19-6.4,19.4c0,0.5,0.9,0.1,2.5-0.2c1.6-0.3,2,0.1,2,0.1
	s-0.1,1.2-0.1,2.2c0,1.1,1.3,2.1,5.5,4.1c4.2,2,6.5,6.3,6.5,6.3s-0.8-3.3-1.9-7.3c-0.9-3.2-0.9-4-1-8.9c1-0.4,2-0.8,2.4-0.9
	c0.6-0.1,0.9-0.9,0.9-1.3c0-0.4,0.1-0.7,1.6-0.6c0.4,0,1,0,1.7,0c-0.7,1.8-1.8,4.7-0.5,7.4c1.5,3.3,3.7,9.4,4.1,10.7
	c0.4,1.4,0.8,3.2,0.4,3.5c-0.4,0.3-0.1,1.2-0.1,1.2s0.5,0.3,0.5,0.9s0,4.1-0.1,4.3c-0.1,0.3-0.5,1.8-0.5,1.8s0.8,0.5,0.9,1.2
	c0.1,0.7-0.1,4.1-0.4,4.9c-0.3,0.7-1.2,3.3,0.8,5c2,1.7,2.5,2.6,4.1,2.5c1.6-0.1,3.1-3.9,3.1-4.2c0-0.1-0.2-0.7-0.5-1.4
	c1.1-0.1,1.7-1,3.2-2.5c1.8-1.7,1-4.3,0.7-5s-0.4-4.2-0.4-4.9c0.1-0.7,0.8-1.2,0.8-1.2s-0.4-1.6-0.4-1.8c-0.1-0.3-0.1-3.7-0.1-4.3
	c0-0.6,0.5-0.9,0.5-0.9s0.3-0.8-0.1-1.2c-0.4-0.3,0-2.2,0.4-3.5c0.3-1.1,1.6-5.1,2.7-8.4c0,0,0.1,0,0.1,0c1.2,0.4,4.5,1.8,7.7,0.2
	c3.1-1.6,4.8-1,7.7-0.6c2.8,0.4,6,2.3,7.8,5.7s-0.9,9.9-0.9,9.9c5-5.4,4.9-13.2,3.8-15c-1-1.9-5-7.4-10.3-13.4
	c-3.2-3.6-6.5-9.5-8.6-13.6c3.1,0.5,4.2-0.8,4.2-0.8s-0.5-0.3-0.9-0.8c-0.5-0.5-0.8-1.1-1.1-2.4c-0.3-1.3-4-11-6.1-15.8
	c-0.3-0.6-0.6-1.2-0.8-1.8c0.3-0.1,0.8-0.3,1.5-0.6c1-0.4,1.5-0.1,1.8-0.4c0.2-0.2,0.4-0.8,0.5-1.5c0.4,1.2,0.8,2.3,1.3,3.4
	c0.6,1.3,1.2,2.5,2.2,3.1c-0.5-2.2-1.1-4.3-1.5-6.5c-0.2-0.9-0.4-1.8-0.5-2.8c0.1-0.2,0.2-0.4,0.2-0.5c0,0,0.1-0.2,0.2-0.3
	c0.9,4.2,2,8.2,3.6,12c1.2,2.8,2.5,5.5,4.4,7.4c0.5,0.5,1,1,1.7,1c-2-4-3.5-8.2-4.9-12.6c-1.1-3.3-2-6.7-2.9-10.2
	c0.1,0,0.2-0.1,0.2-0.1c1.2,3.9,2.4,7.8,3.6,11.6c1.6,4.8,3.4,9.5,5.8,13.6c1.3,2.3,2.6,4.3,4.4,5.6c0.3,0.2,0.6,0.4,1,0.6
	c-0.6-1.2-1.2-2.2-1.8-3.3c-2.3-4.5-4.2-9.4-6.1-14.3c-2-5.1-3.9-10.3-5.7-15.5c0.1-0.1,0.1-0.1,0.2-0.2c1.3,3.6,2.6,7.2,3.9,10.8
	c1.4,3.9,3,7.7,4.9,11.2c2.6,4.9,2.9,5.5,4.2,6.9c2.2,2.3,4,3.6,6.5,5c0.4,0.2,0.7,0.3,1.1,0.5c0-0.1,0-0.1,0.1-0.2
	C91.3,67.6,88,58.7,81.9,44.3z M59.8,114c0.2,0.7-0.5,1.8-0.5,1.8s0.3,1.4,0.4,1.6s0.1,1.8,0,3.3c-0.1,1.5-0.5,2.2-0.6,2.7
	c-0.1,0.5,0.2,1.2,0.4,1.7c0.2,0.4,0,2.6-0.4,3.8c-0.1-0.5-0.6-1.2-0.7-2.6c-0.1-1.5-0.1-3.1,0-3.3c0.1-0.2,0.5-1.6,0.5-1.6
	s-0.7-1.2-0.5-1.8c0.1-0.5,0.5-3.5,1.2-6.3C59.8,113.7,59.8,113.9,59.8,114z M51.9,12.4c0,0.1,0,0.3,0,0.5c-0.3,0.1-0.8,0.2-1.3,0.2
	C50.8,12.9,51.4,12.6,51.9,12.4z M69.8,49.3c-0.6,0.2-0.9,0.6-1.1,1c-0.4-0.1-0.6,0.1-0.9,0.2c-0.1,0.1-0.3,0.2-0.4,0.3
	c-0.5-0.6-0.9-1-1.2-1.3c-0.9-0.8-0.8-2-0.7-2.9c0.1-0.9,0.2-1.9-0.4-1.9c-0.2,0-0.9,0.4-1.5,0.8c-1.9-2.1-1.2-4.7-1-5.2
	c0-0.1,0.1-0.2,0.2-0.4c0.1,0.8,0.2,1.6,0.3,2.4c0,0,0.1,0,0.1,0c0.1-1.2,0.2-2.3,0.2-3.5c0.2-0.3,0.3-0.6,0.5-0.9
	c0.1,1.2,0.3,2.3,0.5,3.4c0.3-1.8,0.5-3.6,0.6-5.4c0.3-0.5,0.6-1,0.7-1.3c0,0,0,0,0,0.1c0.2,1.3,0.4,2.6,0.9,3.8
	c0.2,0.4,0.5,0.8,0.9,0.8c-0.2-2.4-0.5-4.7-0.8-7.1c0.1-0.1,0.2-0.3,0.3-0.4l0,0c0.3,2.5,0.6,5.1,0.8,7.6c0.1,1.2,0.3,2.4,0.9,3.6
	c0.1-0.5,0.2-0.9,0.3-1.4c0.1-1.2,0.1-2.4,0.1-3.6c-0.1-1.9-0.1-3.8-0.2-5.6c0.1,0.1,0.2,0.2,0.3,0.4c0.2,3.5,0.4,7,0.8,10.5
	c0.2,1.6,0.5,3.2,0.9,4.8C70.6,48.7,70.2,49.2,69.8,49.3z M45,34.9c0.1,0.1,0.2,0.3,0.3,0.4c0,0.1,0,0.1,0,0.2l-0.1,0
	c0,0-0.1,0.2-0.4,0.5C44.9,35.6,45,35.2,45,34.9z M71.5,39.3c0.1,0.1,0.3,0.2,0.3,0.2s0,0,0,0c0.2,1.6,0.4,3.2,0.6,4.8
	c-0.1,0.3-0.2,0.7-0.3,1C71.9,43.3,71.7,41.3,71.5,39.3z M71.5,38.6c-0.1-1-0.1-2.1-0.1-3.1c0,0,0.1,0.1,0.1,0.1c0,0,0,0,0,0
	c0.1,0.9,0.2,1.8,0.3,2.7C71.6,38.4,71.6,38.5,71.5,38.6z M44,32.6c0,0.2,0,0.3,0.1,0.5c-0.1,1.5-0.1,2.9-0.2,4.3
	c-0.2,0.4-0.5,0.8-0.7,1.1C43.6,36.6,43.7,34.7,44,32.6z M61.5,16.5c0.1,0,0.2,0.1,0.3,0.1c-0.2,0.4-0.4,0.8-0.6,1.1l-1.6-0.3
	c0-0.2-0.1-0.4-0.1-0.6c0.4-0.4,0.6-0.8,0.7-1.6C60.5,15.8,60.9,16.3,61.5,16.5z M57.1,1.7c-0.9,0-1.9,0-2.8,0
	C55.3,1.1,56.2,1.4,57.1,1.7z M50.9,3.9c-0.4,0.4-0.8,0.7-1.4,0.4C49.9,4.2,50.4,4,50.9,3.9z M49.4,16.3c0.3,0.3,0.4,0.7,0.3,1
	c0,0.5-0.3,0.8-0.8,0.7c-0.4,0-0.6-0.2-0.8-0.5C49,17.5,49.4,17.2,49.4,16.3z M47.1,17.3c0.2,0.2,0.4,0.5,0.6,0.7
	c0.4,0.4,0.8,0.8,1.3,1c1,0.5,1.8-0.1,1.8-1.2c0-0.7-0.3-1.4-0.6-2.1c-0.4-0.9-0.2-1.6,0.3-2.4c0-0.1,0.2-0.1,0.3-0.1
	c0.4,0.1,0.8,0.1,1.3,0c0.2,0.7,0.5,1.6,0.9,2.2c0.6,0.9,1.2,2.4,1.6,2.6c0.1,0,0.2,0,0.4,0c0,0.1,0.1,0.2,0.1,0.3
	c-0.7,0.4-2.1,1.3-1.9,1.7c0.2,0.2,0.4,0.8,0.6,1.4c-0.7,0.2-1.5,0.4-2.3,0.4c-1,0-1.6,0-2.1,0.1c-0.6-0.4-1.2-0.9-1.7-1.7
	c-0.4-0.7-0.9-1.5-1.3-2.3C46.7,17.8,46.9,17.6,47.1,17.3z M43.4,11.9c0.3-0.6,0.9-1,1.6-1.1c-0.3,0.2-0.6,0.4-0.8,0.6
	c-0.3,0.3-0.5,0.7-0.7,1c-0.1-0.1-0.1-0.2-0.2-0.3C43.3,12.1,43.3,12,43.4,11.9z M38.8,26.4c0-0.7,0.1-1.3,0.2-2
	c0.1,0.2,0.1,0.4,0.1,0.6c-0.1,1.4-0.1,2.8-0.2,4.2c-0.2,3.2-0.5,6.4-0.8,9.5c-0.1,0.9-0.1,1.8,0.3,2.8c0.8-1.8,1.1-3.7,1.4-5.5
	c0.4-1.9,0.6-3.8,0.9-5.7c0.3-1.9,0.5-3.7,0.8-5.6c-0.2,4.6-1.1,9-1.8,13.5c0.6,0,0.9-0.5,1.1-1.1c0.4-1.3,0.8-2.7,1.1-4
	c0.3-1.5,0.4-3,0.6-4.4c0,1.1-0.1,2.2-0.1,3.3c0,2.2,0.1,4.4,0.1,6.5L42,38.2c-0.2,0.2-1.1,0.8-1.1,1c0,0.2,0.2,0.5,0.3,0.5
	c0,0-0.2,1.3-0.2,1.4c0,0.1-0.9,0.7-1.5,1c-1.1,0-1.9,0.2-2.5,0.5c0.2-0.7,0.3-1.5,0.4-2.3C38,35.8,38.5,31.1,38.8,26.4z M36.3,45.2
	l0.1,0.4c0,0-0.1,0-0.2,0.1C36.2,45.5,36.3,45.3,36.3,45.2z M42.9,56.6c-0.2-0.2-0.5-0.4-0.7-0.6c-0.4,0-0.8,0.2-1.2,0.2
	c-0.9,0.1-1.6,0.6-2.2,1.3c-0.1,0.2-0.2,0.3-0.1,0.5c0.2,0.5,0.2,0.8-0.2,1.3c-0.2,0.2-0.3,0.4-0.5,0.5c-0.1-0.3-0.1-0.5-0.1-0.5
	s-0.3-1.4,0.2-1.7c0,0,0.9-0.1,0.7-0.9c0,0,3-4.3,4.6-5.2c1.5-0.9,3.1-2.6,3.1-2.6l1.1-0.9c0,0-0.1-0.5-0.5-1.3
	c0.7-0.7,1.4-1.4,1.5-1.8c0.2-0.4,0.1-1.1-0.1-1.9l0.2-0.3c0.4,1.4,0.6,2.9,0.1,3.9c-0.2,0.4-0.5,1-0.8,1.6
	c-0.7,0.6-1.5,1.3-1.9,2.2l-0.2-0.1c0,0-1.5,3.6-2.9,7.4C42.9,57.4,42.9,57,42.9,56.6z"/>
</svg>
