<?xml version="1.0" encoding="utf-8"?>
<!-- Generator: Adobe Illustrator 23.1.1, SVG Export Plug-In . SVG Version: 6.00 Build 0)  -->
<svg version="1.1" id="Layer_1" xmlns="http://www.w3.org/2000/svg" xmlns:xlink="http://www.w3.org/1999/xlink" x="0px" y="0px"
	 viewBox="0 0 100 150" style="enable-background:new 0 0 100 150;" xml:space="preserve">
<style type="text/css">
	.st0{fill-rule:evenodd;clip-rule:evenodd;}
</style>
<path class="st0" d="M46.9,17.1c-0.3,1.4,0,3.3,0.7,4.6c0.5,1,1.5,1.3,2.1,2.2c0.3,0.3,0,2.2-0.5,2.3c-3.2,0.8-6,3.2-9.2,3.9
	c-0.7,0.2-1.4,1.5-1.5,2.1c-0.1,0.7-0.7,1-1,1.6c-0.3,0.6-0.2,1.5-0.7,2c-1,1.2-0.3,2.2-1,3.4c-0.5,0.7-0.3,1.5-1.2,1.7
	c-1.3,0.3-1.6,1.7-2.4,2.7c-0.8,1.1-0.5,2.4-1.7,3.2c-0.1-0.6,0.7-2-0.3-2.2c-0.9-0.2-1.6,0.9-1.7,1.6c-1.2-1.2-2.6-1.6-3.7-2.9
	c-0.6-0.7-1.5-1.4-2.2-2c-0.1-0.1-2.7-1.2-2,0c0.5,0.9,3.1,2.5,3,3.6c-0.1,1.1-2,0.6-1.8,2.1c-0.3-0.1-0.8-0.1-1.1,0.2
	c-0.6,0.8,0.4,1.3,0.3,1.7c-0.1,0.2-2.7,1.6-0.8,2.2c0.6,0.2,0.5-0.4,1.1-0.1c0.5,0.2,2.2,1.2,2.4,1.6c0.5,1.1-0.6,3.2-0.5,4.4
	c0.9-0.4,0.7,0,1.1,0.5c0.5,0.7,1.9,0.3,2.5,0.1c1.9-0.5,3.8-0.9,5.6-1.5c1.3,0,2.1-1.5,3.3-2c1.5-0.7,3-1.6,4.5-2.3
	c0.6,3.3-0.5,7-1.1,10.2c-0.1,0.4-0.1,0.6-0.5,0.6c-0.4,0-0.4,0.7-0.5,1.1c-0.4,1.7-0.2,3.7-0.2,5.5c-0.1,3.7-0.1,7.3-0.4,10.9
	c-0.1,0.6-0.8,4.1,0.2,3.8c1.8-0.5,1.7-2.1,3.6-2.2c0.2,0.8-0.1,1.7,0.2,2.5c0.3,1.1,0.7,2.2,1,3.4c0.5,1.9,0.7,4,1,6
	c0.9,5.7,0.9,11.9,2.6,17.4c0.3,1,0.9,2,1.3,3c0.3,0.9-0.2,2.3-0.3,3.2c-0.1,2.7,0,5.4,0.2,8.2c0.1,1.5,0,3,1,4.3
	c0.5,0.7,1.2,0.9,0.9,1.7c-0.3,1-1.4,3-1,3.7c-1,1-2.8,1.1-4,1.7c-0.7,0.3-1.4,0.5-2,1c-0.3,0.3-0.8,1.4-0.8,1.5
	c-0.8,0.2,2.7,1.6,3.1,1.6c1.8,0.2,3.6,0.1,5.4-0.1c-0.1,0.5,0,1.3-0.2,1.5c-0.5,0.7-2.2,1.9-3,2.3c-1.3,0.5-4.4,2.9-2.8,4.1
	c3.7,2.9,11.7,1.1,14.9-1.7c1.4-1.2,2.3-0.2,4-0.9c2.3-0.9,1.7-3.8,1.9-5.8c0.5-4.6,0.3-9.3,0.7-13.9c0.2-2.8,0.2-5.6,0.4-8.4
	c0.1-1.1,0.3-2.2,0.3-3.3c0-1.2-0.5-2.6-0.2-3.8c1.1-4.4,0.9-8.8,1.2-13.2c0.2-2.2,0.1-4.3,0.6-6.4c0.3-1.4,0.6-2.8,0.8-4.2
	c0.1-1.3-0.1-1.2,1.2-1.4c2.6-0.5,3.1-0.4,3.1-2.8c0-2.5,0.3-5.2,0-7.7c-0.3-2.6-0.3-5.3-0.3-7.9c0-0.7,0.8-0.7,0.7-1.2
	c-0.3-1.4-1.1-2.5-1.1-3.9c0-1-0.2-2-0.2-3.1c-0.1-1.2,0.8-0.8,1.9-1c1.1-0.2,1.7-0.5,2.8-0.5c1.7,0,1.9-0.9,2.7-2.2
	c0.3-0.5,1.3-2.1,1.2-2.7c-0.2-0.8-0.9-1.5-1-2.4c-0.1-0.5,0.3-1.1,0.2-1.7c-0.2-1.5-0.9-3-1.4-4.4c-0.8-2.5-1-5.1-1.9-7.6
	c-0.7-1.9-1.1-3.6-1.4-5.6c-0.4-2.3-1.3-2.9-3.2-3.7c-2.7-1.1-5.9-1.3-8.5-2.7c-0.6-0.7-2.3-2.8-3.2-3c-0.1-0.5,1-0.2,1-1
	c0-0.8,1-1.4,1-2.4c0.3-0.5,0.9-1.9,1.4-2c0.9-0.3,2.2-0.5,2.5-1.5c0.4-1.1-0.2-2.3-1-3c-0.4-0.4-2.5-1.7-2.5-2.1
	c0.1-2.2-0.8-4.2-2.2-5.8c-0.7-0.9-5.8-5.1-7-3.4c-0.7,1-0.3,2.2-1.4,3.2c-1,0.9-1.9,1.8-3,2.7C48,7,47.5,7.7,46.4,7.8
	C45.3,8,43.9,8,42.9,8.4c-2.9,1.3,1.2,3.9,2.2,4.7c0.5,0.4,1.4,0.6,1.4,1.4C46.6,15.4,46.9,16.2,46.9,17.1"/>
</svg>
