<?xml version="1.0" encoding="utf-8"?>
<!-- Generator: Adobe Illustrator 23.1.1, SVG Export Plug-In . SVG Version: 6.00 Build 0)  -->
<svg version="1.1" id="Layer_1" xmlns="http://www.w3.org/2000/svg" xmlns:xlink="http://www.w3.org/1999/xlink" x="0px" y="0px"
	 viewBox="0 0 100 150" style="enable-background:new 0 0 100 150;" xml:space="preserve">
<path d="M48.5,133.2c-1.7-1-2.2-2.4-1.8-4.3c0.1-0.6,0-1.3,0-2c0-0.8-0.1-1.7,0.1-2.5c0.3-1.2,0.3-2.2-0.2-3.3
	c-0.7-1.9-0.8-3.8,0-5.8c0.3-0.8,0.2-1.9,0.2-2.8c0-2.1,0.1-4.3,0-6.4c-0.1-2.1-1.5-3.4-3-4.7c-0.8-0.6-1.6-1.7-1.7-2.7
	c-0.3-1.9-0.1-3.9-0.1-5.8c-0.1,0-0.5,0-0.9-0.1c0.4-0.9,0.9-1.6,1.2-2.4c0.2-0.4,0.1-1,0-1.4c-1.5-4.3-0.8-8.7-0.2-13
	c0.1-1,0.3-2,0.5-3c0.2-1.2-0.1-2.1-0.6-3.2c-0.6-1.3-0.7-2.9-0.5-4.3c0.4-2.3,0.6-4.5,0.5-6.9c-0.1-3.2,0.2-6.3,0.4-9.6
	c-1.1,0.8-2.3,1.8-3.6,2.4c-0.7,0.4-1.8,0.3-2.6,0.1c-0.7-0.1-1.2-0.2-1.7,0.4c-3.2,3.4-7.2,5.5-11.4,7.5c-1.6,0.8-3.3,1.6-4.9,2.4
	c-1.2,0.6-1.7,1.3-1.6,2.7c0.9,10.5,1.6,21.1,2.6,31.6c0.9,9.9,2.1,19.8,3.2,29.7c0,0.2,0.1,0.4,0.1,0.6c2.5,0.3,5.4-0.6,8.9-2.6
	c1.1,2.2,0.4,4.4,0.3,6.8c1,0.2,1.9,0.4,2.8,0.6c1.3,0.2,1.9,0.7,1.8,2.1c0,3.8-0.1,7.5,0,11.3c0,1.2-0.5,2-1.6,2.3
	c-1.7,0.5-3.3,1-5,1.2c-5.7,0.8-11.4,0.8-17.1-0.4c-0.4-0.1-0.8-0.2-1.2-0.3c-2.2-0.7-2.5-1.1-2.4-3.3c0-3.7,0.2-7.4,0.1-11.2
	c0-1,0.5-1.2,1.1-1.4c1.3-0.4,2.6-0.7,3.8-1c0.6-3.4,0.6-3.4,3.2-3.8c0-1.4,0.1-2.8,0-4.2c-0.3-6.8-0.4-13.7-1-20.5
	C15.7,94,14.8,86,14,78c-0.3-2.6-0.6-5.1-0.9-7.7c-0.1-1.3-1.2-1.6-2-2.1c-0.5-0.3-1.4-0.1-1.6-0.5C8.8,67,8.3,66,8.1,65.1
	c-0.5-2,0.6-4.3,2.5-5.2c1.2-0.5,2.5-0.8,3.7-1.2c0.4-0.1,0.9-0.4,1.2-0.7c3.5-3.5,7-7.1,10.5-10.6c1.1-1.1,2.2-2.4,3.3-3.5
	c3.4-3.5,5.9-7.6,8.1-11.9c1.9-3.8,4.9-6.6,9.1-7.7c1.3-0.3,2.4-0.4,3.1-1.8c0.8-1.4,1.2-2.6,0.1-4.2c-0.6-0.9-0.6-2.3-0.7-3.5
	c-0.1-0.8-0.4-1.2-1.1-1.6c-1.2-0.5-2.4-1.2-3.3-2.1c-0.7-0.6-1.1-1.7-1.2-2.7c-0.3-1.4,0.7-2.3,2.2-2.3c0.1,0,0.3,0,0.4,0
	c2.4,0.1,2.5,0.2,2.8-2.1c0.4-3,3.3-4.9,5.9-4.2c1.2,0.3,2.5,0.3,3.8,0.4c0.3,0,0.8,0,1,0.2c2.4,2,5.5,3.2,6.3,6.7
	c0.4,1.8,0.1,3.3-1.4,4.6c-0.3,0.3-0.5,0.8-0.7,1.2c-0.4,1.2-0.7,2.5-1.2,3.8c-0.6,1.5,0,2.7,1.6,3.2c3.4,1,6.9,1.8,10.1,3.3
	c2,0.9,3.5,2.9,5.1,4.6c2.7,2.9,5.3,5.8,7.8,8.9c1.3,1.7,2.1,3.8,3.1,5.7c0.3,0.6,0.6,1.3,1.1,1.8c0.9,1,1,2,0.4,3.1
	c-3.9,6.7-6.7,14-12.4,19.6c-0.5,0.5-0.9,1.2-1.4,1.7c-0.5,0.6-1,1.1-1.7,1.8c0.6,0.8,1.3,1.6,2,2.5c-0.3,0.3-0.5,0.7-0.9,0.9
	c-1.4,0.9-1.4,2.1-1.1,3.4c0.7,2.6,1.3,5.2,2,7.8c0.2,0.7,0.7,1.3,1.1,2c-0.2,0.2-0.4,0.4-0.7,0.7c0.1,0.1,0.1,0.2,0.2,0.2
	c0.4,0.4,1,0.6,1.2,1.1c1.1,2.9,1.4,5.8,1,8.9c-0.1,0.6-0.3,1.3-0.7,1.7c-1.5,1.3-1.2,2.9-0.9,4.5c0.3,1.9,0.9,3.7,1.5,5.5
	c0.9,2.4,1.2,5.1,1.6,7.6c0.5,3.5,0.9,7,1.4,10.4c0.2,1.5,0.6,2.9,0.9,4.4c0.1,0.3,0.2,0.7,0.5,0.9c0.7,0.7,1,1.3,1.2,2.5
	c0.3,3.2,1.3,6.4,2,9.6c0.2,0.7,0.4,1.4,0.4,2.1c0.1,1.2-0.8,2.2-2.1,2.3c-2.2,0.2-4.3,0.4-6.5,0.3c-1.7,0-2.7-1.4-2.3-3
	c0.6-2.6,0.3-5-0.4-7.5c-0.3-0.8-0.9-1.6-1.4-2.3c-0.1-0.1-0.3-0.3-0.3-0.4c-0.4-1.5-1.2-2.4-2.8-2.8c-0.4-0.1-0.7-1-0.9-1.5
	c-1.9-5.9-3.9-11.7-5.6-17.6c-1.4-4.8-2.3-9.7-3.6-14.5c-0.8-3-1.9-6-3.2-8.9c0,0.4,0,0.7,0,1.1c0.5,7.7-0.3,15.4-0.7,23.1
	c-0.2,4.8,0.3,9.6,0.5,14.5c0,0.8,0,1.7-0.4,2.2c-0.9,1.2-0.8,2.5-0.8,3.8c0,1.3,0.4,2.6,0.6,3.9c0.1,0.7,0.1,1.3-0.6,1.7
	c-2.2,1.1-4.5,1.2-6.9,0.8c-0.4-0.1-0.8-0.1-1.1,0c-3.5,1.1-7.1,1.1-10.7,0.9c-0.6,0-1.5-0.4-1.5-0.6c-0.1-0.9,0-1.9,0.4-2.6
	c0.4-0.6,1.4-0.8,2.1-1.2c1.1-0.5,2.2-0.8,3.2-1.5c1.2-0.7,2.2-1.6,3.2-2.5C47.5,134.6,47.9,133.9,48.5,133.2z M73.7,64.3
	c0.2,0.1,0.4,0.2,0.6,0.3c0.8-1,1.7-1.9,2.3-2.9c2.8-4.6,3.7-10,5.7-15c0.3-0.7,0-1.2-0.9-0.9c-1.7,0.7-2.9-0.1-4-1.2
	c-0.6-0.6-1.2-1.2-2-2c-0.5,1.2-0.9,2-1.1,2.9c-0.4,1.6-0.6,3.2-0.8,4.8c-0.1,1.3-0.2,2.5-0.1,3.8c0,1.2,0.3,2.5,0.3,3.7
	C73.7,60,73.7,62.1,73.7,64.3z M10.6,133.6c6,1.6,12.1,1.5,18.2,0.8C22.8,134.7,16.7,134.7,10.6,133.6z"/>
</svg>
