<?xml version="1.0" encoding="utf-8"?>
<!-- Generator: Adobe Illustrator 24.1.3, SVG Export Plug-In . SVG Version: 6.00 Build 0)  -->
<svg version="1.1" id="Layer_1" xmlns="http://www.w3.org/2000/svg" xmlns:xlink="http://www.w3.org/1999/xlink" x="0px" y="0px"
	 viewBox="0 0 100 150" style="enable-background:new 0 0 100 150;" xml:space="preserve">
<path d="M92.4,46.5c-9.6-1.4-11.4-9.2-11.4-9.2c-6.4,0.2-17.3,1.2-17.3,1.2s-2.3,0.6-5.3,1.4c-0.8-1.4-1.7-2.7-2.7-3.8
	c-1.7-1.7-1.9-3.4-0.6-5.4c0.4-0.6,0.4-1.6,0.1-2.2c-1.1-2.4-2.3-4.7-3.6-6.9c-0.6-1.1-1.4-2.1-2.4-2.8c-3.2-2.4-6.6-1.9-9.7,0.1
	c-3.2,2-4.7,5.3-4.8,9c0,1.7,0.2,3.2-1.4,3.9c0.2,1.2,0.8,2.4,0.5,3.2c-0.8,1.9-1.9,3.2-4.4,3.7c-8.2,1.4-14.5,5.8-18.5,13.2
	c-0.1,0.3-0.4,0.5-0.7,0.8c0-3,0-5.8,0-8.7c1.4-0.1,2.7-0.1,4.1-0.2c0.1-3.4-2.9-1.1-4.4-2.7c0.3-0.8,0.6-2,1-3.1
	c0.5-1.2,1.5-2.4,1.4-3.6C12,25.7,11.5,17,10.8,8.2C10.6,5.4,9.6,2.7,8.9,0C8.6,0,8.4,0,8.1,0C7.7,1.1,7.2,2.1,7,3.2
	c-2.2,10-2.4,20.2-2.6,30.4c0,1.2,0.7,2.4,1.1,3.6c0.5,1.4,0.9,2.9,1.4,4.3c-1.7,1-4.4-1-4.3,2.3C3.9,43.9,5.1,44,6.5,44
	c0.3,5.6,0.4,11.1-1.1,16.4c-0.1,0.4-0.3,0.9-0.6,1.2c-3.4,3.8-4,8.4-3.5,13.3c0.3,2.7,0.5,5.8,3.4,7c1.9,0.8,1.9,1.8,1.9,3.3
	c0,20.2,0,40.5,0,60.7c0,0.8-0.2,1.7,0.2,2.4c0.3,0.6,1.1,1.3,1.8,1.4c0.4,0,1.2-0.9,1.4-1.5c0.2-0.6,0.1-1.3,0.1-2
	c0-19.9,0-39.9,0-59.8c0-0.8,0-1.6,0-2.4c0.2,0.2,0.3,0.3,0.5,0.5c3.3-1.5,6.7-2.9,10.6-4.7c0.1,2.3,0.8,4.5,0.3,6.5
	c-0.5,2.2-2,4.2-3.1,6.2c-0.1,0.1-0.4,0.2-0.6,0.2c-2.8,1-5.3,6-4.3,8.8c0.2,0.5,0.6,0.8,0.9,1.2c0.4,0.9,1.1,1.7,1.1,2.6
	c0.3,4.4,0.5,8.8,0.7,13.3c0.1,0.8,0.4,1.7,0.8,2.5c0.8,1.5,1.9,2.9-0.5,3.9c-0.2,0.1-0.5,0.6-0.4,0.9c0.3,4,0.2,8.2,1.1,12.1
	c0.5,2.3,0.4,2.9-1.9,3.3c-2.3,0.5-3.3,2.4-3.1,4.9c0.3,3,0.3,3,3.7,3.3c1.4,0.1,2.8,0.1,4.2,0.3c4.7,0.6,8.6-1.3,12.3-4
	c0.4-0.3,0.8-0.9,0.8-1.5c0.4-4.5,0.6-9,0.9-13.5c0.3-3.5,1.6-6.6,4.8-8.3c2.2-1.2,4.7-1.7,7.1,0c0.9,0.6,2.1,1,3.2,1.4
	c1.3,0.5,1.7,1.1,1.5,2.6c-0.3,2.8-0.3,5.7,0,8.5c0.3,2.6,1.3,5.1,1.5,7.7c0.3,3.1,1.3,4.8,4.4,5.5c4.8,1.1,9.7,0.9,14.5-0.4
	c2.7-0.7,2.4-3.1,2.9-5c0.4-1.5-0.2-2.7-1.6-3.5c-1.6-0.8-1.3-2-1.1-3.5c0.6-3.4,0.7-6.9,1-10.4c0-0.2-0.3-0.5-0.4-0.7
	c-0.3-0.7-0.8-1.5-0.8-2.3c0.2-2.3,0.2-4.6,1-6.7c0.2-0.4,0.3-0.9,0.4-1.3c1.5,0.7,3,1.3,4.6,2C114.6,84.1,92.4,46.5,92.4,46.5z"/>
</svg>
