<?xml version="1.0" encoding="utf-8"?>
<!-- Generator: Adobe Illustrator 24.1.3, SVG Export Plug-In . SVG Version: 6.00 Build 0)  -->
<svg version="1.1" id="Layer_1" xmlns="http://www.w3.org/2000/svg" xmlns:xlink="http://www.w3.org/1999/xlink" x="0px" y="0px"
	 viewBox="0 0 100 150" style="enable-background:new 0 0 100 150;" xml:space="preserve">
<path d="M94.1,142.6c0-0.1-0.1-0.1-0.1-0.2c0-0.1,0-0.1,0-0.2c-0.1-0.5-0.2-1-0.4-1.4c0-0.2-0.1-0.4-0.2-0.5
	c-0.1-0.4-0.2-0.8-0.5-1.1c0-0.1-0.1-0.1-0.1-0.2c-0.2-0.4-0.3-0.9-0.5-1.3c-0.4-1-0.8-1.9-1.3-2.8c0-0.1-0.1-0.2-0.1-0.3
	c-0.1-0.4-0.3-0.7-0.5-1c0-0.1,0-0.2-0.1-0.3c-0.1-0.7-0.5-1.4-0.9-2c0-0.1-0.1-0.1-0.1-0.2c-0.2-0.7-0.6-1.4-0.9-2.2
	c-0.7-1.6-1.5-3.2-2.2-4.8c-0.7-1.6-1.5-3.2-2.3-4.8c-0.1-0.2-0.1-0.4-0.3-0.5c0-0.1-0.1-0.1-0.1-0.2c-0.3-0.8-0.6-1.6-1-2.4
	c-0.2-0.5-0.4-1-0.7-1.4c0-0.1-0.1-0.1-0.1-0.2c0-0.1,0-0.2-0.1-0.3c-0.8-1.9-1.7-3.7-2.6-5.5c-1.1-2.5-2.4-5-3.5-7.5
	c-1.1-2.6-2.4-5.1-3.5-7.7c-0.5-1.2-1.1-2.3-1.6-3.4c-0.6-1.3-1.4-2.6-1.8-4c-0.2-0.6-0.7-0.8-1.4-0.8c-0.9-0.4-1-1.3-1.4-2.1
	c-0.1-0.2,0.1-0.3,0.2-0.4c0.5-0.4,1.1-0.8,1.6-1.2c1.3-1,2.7-1.5,4.2-1.8c0.7-0.1,1.5-0.4,2.2-0.6c0.6-0.2,0.6-0.3,0.5-0.7
	c-0.1-0.3-0.1-0.6-0.2-0.9c-0.1-0.4-0.2-0.5-0.7-0.3c-2.3,0.9-4.7,1.7-7,2.8c-0.6,0.3-1.2,0.5-1.9,0.8c0.1-0.1,0.3-0.3,0.4-0.4
	c0.6-0.7,0.5-2.4,0.3-4c2.5,0.7,2.2,0.2,2.2,0s-0.7-0.6-0.9-0.8c-0.2-0.2-0.6-1.4-0.7-1.8c-0.1-0.4-0.1-4.9,0.2-5.3
	c0.3-0.4,0-0.9,0-1c0-0.1-0.4-1-0.1-1.6c0.3-0.5,0.2-0.9,0.1-1c-0.1-0.1,0-1,0-1.5c0-0.5,0.7-3.2,0.7-3.4c0-0.2-0.8-1.7-0.8-2.1
	c0-0.4,0.2-3.7,0.4-4.4c0.1-0.6-1.5-0.4-2.5-0.4c-0.1-0.3-0.1-0.5-0.1-0.6c0-0.2,0.2-1.2,0.3-1.7c0.1-0.5-0.2-1.3-0.5-1.9
	c-0.1-0.3-0.2-0.8-0.3-1.3c1.3,0,2.2-0.1,2.3-0.2c0.1-0.1-0.3-2.7-0.6-4.2c0.5-0.1,1-0.2,1.4-0.4c1.2-0.6-1.5-6.8-1.5-6.8
	s2.4-0.1,2.5-0.7c0.1-1.4-0.9-2.8-0.9-3.2c0-0.5-1.3-2-1.3-2s0.9-0.6,1.8-0.6c1,0,0.5-0.7-0.4-2.5c-0.9-1.8-4-3.2-4.3-3.3
	c-0.4-0.1-6.3-1.8-7.6-2.3c-1.3-0.5-1.9-1.9-2.7-2.9c-0.8-1-0.5-1.6-0.9-1.5c-0.4,0.1-0.5,0.4-0.7,0.6c-0.1,0.1-0.5,0.6-1.3,1.1
	c-0.1-0.2-0.4-0.3-0.7-0.5c-0.3-0.8-0.5-1.7-0.8-2.6c0.2-0.4,0.4-0.8,0.5-1.2c0.3-0.8-0.3-1.3,0.1-1.9c0.2-0.3,0.4-0.7,0.5-1.3
	c0.1,1.1,0.2,2.2,0.2,3.3c0,0.1,0,0.1,0,0.2c0,0,0,0,0,0.1c0.1-0.5,0.2-1,0.3-1.5c0.2-1.3,0.5-2.6,0.7-3.9c0.1-1,0-2.1-0.3-3.1
	C49.6,5.1,49,4,48.2,3c-0.6-0.7-1.2-1.4-2-1.8c-0.8-0.4-1.6-0.7-2.5-0.7c-0.7,0-1.4,0.1-2.1,0.3c0,0-0.1,0-0.1,0
	c0.1-0.4,0.4-0.6,0.8-0.8c-1,0.1-2.1,0.4-3,0.8c-0.7,0.3-1.4,0.7-2,1.2c-0.9,0.7-1.6,1.6-2.1,2.6c-0.7,1.4-0.9,3-0.9,4.6
	c0,1.2,0.3,2.3,0.6,3.4c0.3,1.1,0.4,2.3,0.3,3.5c0,0.1,0,0.3,0,0.4c0.2-0.6,0.6-1.1,1-1.6c0.1-0.1,0.2-0.3,0.4-0.4
	c0.1,0.5,0.2,0.9,0.2,1c0,0.1,0.1,0.3,0.3,0.6c-0.1,0.5-0.3,1-0.5,1.5c-1,0.2-1.6,0.5-1.5,0.9c0,0.1,0.1,0.3,0.1,0.5
	c-1.4-1.2-2.8-2.1-3.2-2c-0.9,0.4-4.2,3.3-4.8,4.8c-1.5-0.1-10.5,6.1-11.3,6.9C15.8,29.7,18,30,18,30s-1.1,1.9-1.4,2.4
	c-0.3,0.3-1.3,2.3-1.1,2.6c0.1,0.3,2,0.3,2,0.3s0.1,1.9,0,2.5c-0.1,0.6-1.6,4-1.5,4.4c0.1,0.3,1.6,0,1.6,0s-0.2,2.6-0.3,2.9
	c0,0.3-0.6,1.6-0.5,2.1c0,0.4,0,0.6,1.1,0.5c0,0,0,0,0,0c0,0.1-0.8,1.3-0.9,1.6c-0.2,0.4-0.2,2,0.2,2.3c0.1,0.1,0.1,0.8,0,1.6
	c-0.1,0-0.1,0-0.2,0c-2.3,0-3,0.6-2.8,0.9c0.1,0.3,0.8,1.7,0.5,3.1c-0.3,1.4,0.2,3.5,1.2,4.9c0.9,1.4,2.2,7.7,2.4,9
	c0.2,1.4-0.3,4.8-0.7,5c-0.4,0.3-0.4,0.4-0.4,0.6c0,0.2,1.5-0.1,1.8,0.2c0.2,0.3,0.8,1.7,0.5,2.3c-0.3,0.6-0.5,1.1,0.5,1.3
	c0.1,1,0.3,2.3,0.5,2.6c0.4,0.5,3.6,4,3.8,4.1c0.1,0.1,0.4,0.2,0.6,0.2c-0.2,0.7-0.4,1.3-0.6,2c-2.2,6-13.2,23-16.1,32.6
	c-2.9,9.6-3.4,15.1-0.5,20.1c0,0,0.5-9.3,4-9.7c3.5-0.4,4.2,0.5,5.9-2.1c1-1.5,2-2.8,3.8-3.3c0.1,1.8,0.3,3.4,0.3,4.8
	c-0.1,3.5-1.9,4.3-1.8,5.5c0.1,1.2,0.5,1.1,0.5,1.1l-0.3,1.4c0,0-1.7,5.5-1.7,6.2c0,0.8,3.5,4,4.5,4c1,0,2.2-0.6,3.8-1.7
	c1.6-1.1,1.3-1.6,1.3-2.3c0-0.7-0.6-6.4-0.6-6.4c1.3-0.5,0.1-2.2,0-4.7c-0.1-2.4,0.2-3.7,2.6-8.1c3.3-0.8,5.8-3.3,9.6-3.8
	c1.3-0.2,2.6,0,4,0.5c0.1,0.8,0.2,1.5,0.2,2c0.5,4.7-0.3,8.2-0.3,8.2c-1,1.2,0,3.2,0,3.2c0,0.5-0.2,4.8,1.1,5.1c1.3,0.2,4,2.4,6,3.9
	c2,1.5,5.1,1.3,6.6,1.4c1.5,0.1,2.4-0.3,2.9-1.2c0.5-1-2.6-3.5-3.6-4.1c-1.1-0.6-3.9-4.5-3.9-4.5c1.1-1.6-0.1-2.4-0.9-3.2
	c-0.7-0.7-1.1-1-1.1-1s0,0,0.2-4.5c0-0.3,0-0.6,0.1-1c0.6,0.5,1,0.9,1.3,1.2c1.5,1.6,1.4,3.1,1.2,5c0,0,1.3-0.1,1.3,4.1
	c0,0.9,2.2-2.2,2.7-6c0.5-3.8,2.3-21.6,1.7-31.8c-0.3-4.7-0.3-9.8-0.5-14.6c0.4-0.2,0.9-0.4,1.4-0.5c0.6-0.2,1.2-0.3,1.7-0.5
	c0.6-0.2,0.6-0.2,0.9,0.3c0,0.3,0.2,0.5,0.3,0.8c0.3,0.5,0.4,1.1,0,1.7c-0.3,0.5-0.2,1,0.1,1.4c0.5,0.9,1,1.7,1.4,2.5
	c1.4,2.9,2.8,5.7,4.3,8.5c0.2,0.4,0.4,0.9,0.7,1.4c1,1.7,1.8,3.5,2.7,5.2c1.3,2.5,2.5,5.1,3.9,7.6c1,2,2,4,3,5.9
	c1,1.9,2,3.8,2.9,5.7c0.4,0.8,0.7,1.6,1.2,2.4c0.9,1.5,1.6,3.1,2.5,4.5c0.6,0.9,1,2,1.5,2.9c1.1,1.9,2,3.9,3.1,5.8
	c0.2,0.4,0.4,0.9,0.7,1.3c0.9,1.3,2,2.3,3.2,3.3c0.1,0.1,0.2,0.3,0.5,0.3C94.3,144.8,94.2,143.7,94.1,142.6z M25.7,54.1
	c0.8-0.4,1.2-1.9,2-2.4c0.8-0.6,0.5-1.6,0.5-3.2c0-0.4,0.1-1,0.3-1.8c0,0,0.1,0,0.1-0.1c0.3,0.7,0.6,1.3,0.7,1.9
	c0.2,1,0.9,2.1,1.8,3.2c0.1,1.7,0.1,3.4,0,5.3c-0.3,0.6-0.3,1.4-0.3,1.4s-0.7,0.4-0.6,1.4s-0.8,1.6-1,2.1c-0.2,0.6-0.9,2.1-0.9,3.6
	c0,1.6-1.1,5.6-1.1,5.6s-0.8-0.2-0.4,1.6c0.1,0.6,0.1,1.3,0.1,2.1c-0.1-0.2-0.2-0.4-0.4-0.4c-0.7-0.4,0.2-0.9,0.2-0.9
	s-1.7-1.7-1.8-2.3c0-0.6-0.2-4.2,0.1-5s1.2-2.5,1.1-4c0-1.5,0.6-5.6,0.1-6.3c-0.1-0.1-0.2-0.2-0.4-0.3
	C25.7,54.6,25.7,54.1,25.7,54.1z M58.4,64.6c0.2,0.3,0.5,0.9,0.7,1.5c-0.2-0.3-0.5-0.5-0.8-0.7C58.3,65.1,58.3,64.8,58.4,64.6
	C58.4,64.6,58.4,64.6,58.4,64.6z M58.4,67.8L58.4,67.8C58.4,67.8,58.4,67.8,58.4,67.8C58.4,67.8,58.4,67.8,58.4,67.8z M60.5,71.8
	c-0.2-0.3-0.3-0.6-0.5-0.9c0.1,0.2,0.3,0.3,0.4,0.6C60.5,71.6,60.5,71.7,60.5,71.8z M59.9,70.3c-0.1,0.2-0.1,0.3,0,0.4
	c-0.2-0.3-0.4-0.7-0.6-1c-0.1-0.1-0.1-0.3-0.3-0.3c0,0-0.1,0-0.1,0c0-0.1-0.1-0.3-0.1-0.4c0,0,0.1-0.1,0.1-0.1
	c0.4-0.5,0.5-1,0.5-1.5c0.1,0.2,0.2,0.4,0.3,0.6C60.1,68.3,60.1,69.8,59.9,70.3z M55.7,53.4c0.1,0,0.3,0.3,0.5,0.6
	c-0.2,0.1-0.4,0.1-0.4,0.2c-0.2,0.2,1.1,6.2,1.4,6.9c0.1,0.2,0.2,0.5,0.3,0.9c-0.9-1.5-0.8-2.3-1.6-3.7c-0.2-0.4-0.6-1.3-0.9-2.6
	c0-1-0.1-1.7-0.2-1.8c-0.1-0.1-0.2-0.1-0.3-0.2c-0.2-0.8-0.4-1.7-0.5-2.6c0.2-0.1,0.4-0.2,0.6-0.3C54.5,52.4,55.5,53.3,55.7,53.4z
	 M24.5,81.7c0.1-1.3,1-1.5,1-1.4c0,0.1,0.4,0.7,0.5,1.3c-0.2,1-0.4,2.1-0.6,3.1C25.2,84.2,24.4,83,24.5,81.7z M58.4,83.9
	c0-0.6-0.1-1.3-0.1-1.9c0.8,0.3,1.6,0.7,2.1,0.8C59.8,83.2,59.1,83.6,58.4,83.9z"/>
</svg>
