<?xml version="1.0" encoding="utf-8"?>
<!-- Generator: Adobe Illustrator 23.1.1, SVG Export Plug-In . SVG Version: 6.00 Build 0)  -->
<svg version="1.1" id="Layer_1" xmlns="http://www.w3.org/2000/svg" xmlns:xlink="http://www.w3.org/1999/xlink" x="0px" y="0px"
	 viewBox="0 0 100 150" style="enable-background:new 0 0 100 150;" xml:space="preserve">
<style type="text/css">
	.st0{fill-rule:evenodd;clip-rule:evenodd;}
</style>
<g>
	<path class="st0" d="M26.9,96.6c-0.5,2.4-3.1,3.4-2.7,6.3c0.4,2.5,3,3.4,4.1,5.4c1.1,2.2,0.1,5.9,0.1,8.3c0.1,3,0.7,6,1.3,8.9
		c0.4,2.3,1,4.8,0.9,7.2c-0.1,1.1-0.7,2.1-0.7,3.2c-0.1,1.6,0.9,1.7-0.4,3c-3.5,3.5-8.6,3.4-9.4,9.3c2,1.6,4.7,0.8,6.7-0.4
		c2.4-1.4,4.1-2.1,6.9-2.6c1.4-0.3,2.8-0.5,4.1-1c2-0.7,1.9-1.1,1.6-3c-0.4-3.2-1.2-6.3-0.4-9.5c0.7-2.7,0.1-5.5,0.7-8.3
		c0.6-3,1.1-5.9,0.8-9c-0.2-2.5-0.9-4.9-2.1-7.1c-0.6-1.2-1.4-1.8-1.1-3.1c0.3-1.4,0-2.9-0.2-4.3c1.9,2.2,1.5,5.7,2.9,8.2
		c1.7,3.1,2.6,6.6,3.8,9.9c0.7,2,3.1,5.6,2.3,7.7c-1.1,2.9-3.3,4.2-2.2,7.7c1.7-0.7,3.1-2,4-3.5c1.2,1.6,2,5.2,4.5,5.2
		c0.1-3-0.3-6.1-1.6-8.9c1.7-3.2,4.1-6,5.9-9.1c1.1,1.6,0.6,4.3,1.2,6.2c0.4,1.3,0.6,2.7,1.1,4c0.2,0.6,0.5,1.2,0.8,1.8
		c-0.2,0.7-0.2,1.4-0.2,2.2c0.2,2.9,0.7,5.1,0.2,8c-0.7,3.9,2.1,2.7,4.2,4.6c1.6,1.4,1.9,3.7,3.2,5.3c1.1,1.4,4.2,1.1,5.8,0.5
		c1.4-0.6,2.1-2.8,2.3-4.2c0.3-2.1-2.7-2.8-3.9-3.9c-1.5-1.3-2.1-4.3-3-6c-1.3-2.4-1.9-4.9-1.7-7.7c0.2-2.7,1.2-5.1,1.2-7.9
		c0-3.1-1-5.5-1.4-8.4c-0.2-1.4-0.3-2.8-0.6-4.2c-0.4-1.8-1.7-2.4-0.6-4c1.8-2.9,3.7-5.7,5.6-8.6c1.9-2.9,3.7-5.7,5.5-8.6
		c0.9-1.4,1.4-3.1,3.1-3.6c1.2-0.4,2.2-0.4,3.4,0.1c-0.9-2-0.2-4.5-0.2-6.5c0-1,0-2.1-0.3-3.1c0.6-0.8,1.6-0.8,2.2-1.5
		c1.3-1.4,0-3.8-1.8-3.6c-2.6,0.3-1.1,2.8-2.5,3.2c-1.2-1.9-0.6-4.8-0.8-6.9c-0.2-2.9-1.1-6.5-0.2-9.4c1.5-4.5-0.4-10.4-5.4-12
		c-1.5-0.5-1.9-0.6-3.1-1.8c-1-1-2.1-1.9-3.1-2.9c-2.4-2.1-4.8-4.2-6.7-6.9c-2.1-1.9-5.1-2.2-7.6-3.3c-2.5-1.2-2.9-5.1-2.7-7.7
		c3.2-4,2.9-10,1.9-14.7c-0.3-1.2-0.9-2.3-0.5-3.5C52,1,51.3-0.8,50.2,0.4c-1.5,1.7-5.5,2.2-7.6,3.2c-2.4,1.2-5.1,2.4-7.1,4.2
		c-1.6,1.5-1.7,4.5-1.6,6.6c0,0.7,0.2,1.3,0.6,1.9c-0.3,0.4-0.5,0.9-0.4,1.5c0,1.5,0.8,2.9,0.7,4.4c-0.1,1.3-2.2,5.1,0.9,5.2
		c-1,1.4-0.6,3.6-0.9,5.2c-2.5-1-5.2-1.4-7.8-1.9c-2.2-0.4-7.7-2.8-8.4,0.3c-0.8,3.2-0.8,6.6-1,9.8c-0.2,3.8-0.9,7.6-1.3,11.5
		c-0.8,7.2-1,14.5-0.9,21.8c0.1,2.5,0.2,5,0.3,7.5c0.2,2.7-0.4,6.2,0.8,8.6c1.5-0.4,1.7-3.9,2.2-5.1c0.9-2.6,2-5.2,3.2-7.8
		c2-4.6,4.5-9.4,5.7-14.3c0.7,1.4,0.8,3,1.5,4.3c0.4,0.7-0.9,2.8-0.6,4.1c0.3,1,1.6,4-0.1,4c-1.6,0,0.1,1.6,0.1,2.1
		c-0.1,1.4-1.8,3.7-0.9,5c0.7,1,1.5,0.3,0.8,1.7c-0.4,0.9-0.9,1.7-1.3,2.5c-1,2-1,4-1,6.2c0,1.2-0.2,2.3-0.6,3.4
		C25.8,96.6,26.4,97.1,26.9,96.6C26.7,97.6,26.4,97.1,26.9,96.6z M55.1,69.4c-0.4-2.4-3.4-6.1-2.6-8.5c1.1-3.2,2.8-6.2,3.9-9.4
		c0.6-1.6,0.9-2.3,2.1-3.4c1.5-1.4,1.8-1.8,3.3-0.2c0.8,0.9,1.6,1.9,2.5,2.7c1.1,1,3.1,1.5,3.3,2.9c0.3,2.2,1.7,3.2,2.7,5.1
		c1.2,2.3,1.7,5,1.9,7.6c0.2,2.8,0.1,5.7-0.4,8.5c-0.2,1-1.7,1.4-1.6,2.1c1,1.1,2.8,0.9,4,1.4c-1.4,3.5-3.4,6.7-5.3,10
		c-2,3.4-3.7,7-6.2,10.1c-0.8-1.7,0.2-2.8,1.1-4.1c0.7-1.1-0.9-5.7-1.1-7.3c-0.4-2.7-1-5-2.1-7.5c-0.4-1-0.8-1.9-1-3
		c-0.1-0.7-0.1-1.4,0-2.1c-0.4-0.2-0.7-0.6-0.9-0.9c0.7-0.1,1.7,0.3,2.3-0.1c1-0.6-0.9-1.7-1.3-1.9c-2.6-1.3-0.3-4.6-1.7-6.9
		c2.6-0.5,0.4-3-1.3-3c-1.9,0-3.8,3.1-1.3,3C54.3,66,55.2,67.9,55.1,69.4C54.6,66.8,55.1,68.5,55.1,69.4z M50.4,98.4
		c0.4,2.2,1.3,4.3,2.6,6.1c1.2,1.7,3.1,2.4,2.7,4.9c-0.3,1.8-1.9,3.6-2.9,5.2c-1.3,2.1-2.8,4.2-4,6.4c-2.4-7.3-5.5-14.5-8-21.8
		C43.9,98.4,47.2,98.8,50.4,98.4C50.8,101,46.8,98.9,50.4,98.4z"/>
</g>
</svg>
