<?xml version="1.0" encoding="utf-8"?>
<!-- Generator: Adobe Illustrator 23.1.1, SVG Export Plug-In . SVG Version: 6.00 Build 0)  -->
<svg version="1.1" id="Layer_1" xmlns="http://www.w3.org/2000/svg" xmlns:xlink="http://www.w3.org/1999/xlink" x="0px" y="0px"
	 viewBox="0 0 100 150" style="enable-background:new 0 0 100 150;" xml:space="preserve">
<style type="text/css">
	.st0{fill-rule:evenodd;clip-rule:evenodd;}
</style>
<path d="M70.6,89.6c-1.1,0-3.6-1.6-4.1-2.7l0.5-1c0,0-2.8-5.3-3.2-8.6c-0.3-2.5-0.8-7.7-1.1-10.3c0.5-0.1,0.8-0.1,0.8-0.1
	s-2.8-18.8-2.8-21.1c0-2.4,0.6-8-0.8-11.3c-1.4-3.4-1.3-3.7-1.3-3.7s4.1,3.6,7.4,2.9c3.3-0.7,2.6-3.1,2.6-5.6c0-2.5-0.2-2.3-0.2-2.3
	l1-1.2l-1-3.2c0,0-1.1,0.1-2.3,0.3c-0.2-1.3-0.4-3.3-0.2-4c0.3-0.8-0.5-2.4-0.5-3.2c0-0.8-3.7-2.5-5-1.8c0,0-0.6,0.4,0,1
	c0.6,0.6,1.7,2,1.1,2.5c-0.5,0.5-0.1,1.7,0.7,2.5c0.5,0.5,0.8,2,1,3.2c-0.4,0-0.6,0.1-0.7,0.1c-0.6,0,0.3,2.9,0.3,2.9
	s-2-0.8-2.6-1.4C60,23,58,20.4,56.9,20c-1.1-0.5-3.1-0.9-3.6-1.4c-0.5-0.5-0.6-0.9-0.6-0.9c0.5-0.5,1.6-2.2,1.4-4.1
	c-0.3-1.8-0.7-3.4-0.8-4.2c-0.1-0.6-0.4-1.4-0.9-2.1l0,0l0,0c0,0-0.1-0.1-0.1-0.1l0,0c0,0,0,0,0,0c0,0,0,0-0.1-0.1
	c-0.4-0.6,1.2-1.8,0.3-3.7c-0.9-1.9-3.8-4.7-7.7-2.7c-3.9,2-6.2,4.9-4.7,9c1.3,3.5,3.2,3.6,4.5,2.8c0.2,0.6,0.3,1.1,0.5,1.5
	c0.4,1.2,0.8,1.6,1.4,2.2c0.6,0.6,0.5,1.3-0.1,1.5c-0.7,0.2-5,1.1-7.7,3.9c-2.8,2.8-8.9,7-10,8c-1.1,1.1-1.3,4.2,1.4,5.8
	C32.6,37,33,37,33,37l0.3,2.2h3.3c0,0,0.3-0.5,0.7-1.2c0.6,0.5,1.7,1.4,2.3,1.6c0.8,0.3,1.7,0,2.5,0h0c0,0.2-0.1,0.4-0.2,0.5
	c-0.6,1.2-0.3,3.6-0.4,7.1c-0.1,3.4,0.1,9.2,0.1,9.2L39,65.9c0,0,0.9,0.3,2.4,0.7c-0.8,5.6-0.1,15.4-0.5,18.6
	c-0.4,3.8,0.2,3-2.6,5.8c-2.8,2.8,1.8,2.9,3.8,2.1c2-0.9,1.5-0.3,3.3-1.3c1.8-1,1.1-4.8,1.4-6.7c0.3-1.6,1.8-13.3,2.2-17.1
	c1,0.1,2,0.1,3,0c0.9,0,1.7-0.1,2.6-0.2c1,6.6,3.5,21.1,4,22.7c0.5,1.8,2.1,1,4,1c2,0,4.9,0.8,8,0.2C73.7,91,71.7,89.6,70.6,89.6z
	 M39.1,34.7c0.2-0.3,0.3-0.6,0.3-0.6c-0.1,0-2.5-1.5-2.5-1.5S36,32,36.4,31.7c0.3-0.3,0.7-0.7,1.5-0.7c0.8,0,2.4-1.8,2.8-2.2
	c0.4-0.4,0.6-0.4,0.6-0.4s0.5,5.7,0.5,6.1c0,0.1,0.1,0.6,0.1,1.2C41,35.5,39.9,35,39.1,34.7z"/>
<path class="st0" d="M9.3,56.6c-0.1,0.5-0.9,1.2-0.9,1.6c0,0,1.2,0.8,1.4,0.5c0.2-0.4,0.9-0.9,0.7-1.5c-0.1-0.4-0.1-1.1-0.8-1
	C9.5,56.3,9.4,56.2,9.3,56.6 M20.3,22c1.9,0,1,2,1.7,2.8c0.6,0.7,3.3,4.3,2,5.1c0.1,0.4,0.3,1.4-0.4,1.4c-0.1,0-0.1,1.2-0.1,1.4
	c-0.2,1.1-0.2,3.3,0.4,4.1c0.5,0.6,0.9,1.1,1.3,1.7c0.1,0.2,0,0.5,0.2,0.7c0.2,0.2,0.6,0.2,0.7,0.4c0,0.1,1-0.2,1,0.3
	c0.5,0.3,1.1,0.2,1.6,0.5c1.6,0.9,2.9,2.5,3.9,4c1.1,1.6,2.6,2.6,3.9,3.9c1.3,1.4,0.3,2.5-1,3.5c-0.5,0.4-1,0.4-0.9,1
	c0.2,0.9,0,1.7,0.1,2.6c0.1,1,0.7,2,0.6,3c-0.1,0.6-0.3,1.1-0.5,1.7c-0.2,0.7-0.6,1.1-1.2,1.5c-0.9,0.5-1.8,1.4-2.7,1.7
	c-0.6,0.2-1.8,0.1-2.2,0.6c-0.6,0.7,0.2,1.6,0.4,2.3c0.7,2.2,1.1,4.7,1.5,7c0.3,2,0.7,3.8,1.3,5.8c0.2,0.6,0.3,2,0.8,2.4
	c0.3,0.2,0.9,1.4,1.1,1.8c1.1,2.2-0.3,2.4-2.2,2.7c-0.8,0.1-3.5,0.2-3.7,1.1c-0.4,1.7-1,3.6-1.1,5.4c-0.1,0.9,0,1.8-0.1,2.6
	c0,0.2,0,0.4,0,0.6c0,0.5,0.3,0.2,0.4,0.5c0.2,0.6,0.1,1.5,0.1,2.2c0.1,0.8,0.4,2,0.2,2.7c-0.4,2.3,0,4.7-0.4,7c0,0,0-0.1,0-0.1
	c-0.2,0.6-0.2,1.6-0.2,2.2c0,0.9-0.3,1.6-0.3,2.5c-0.1,0.9-0.2,1.8-0.4,2.7c-0.1,0.5-0.5,0.6-0.4,1.1c0,0.1,0.4,0.7,0.1,0.9
	c-0.4,0.3,0,0.9,0.1,1.3c0.3,1.7,0.7,3.4,1.3,5c0.5,1.2,0.7,3.2-0.6,4c-1.1,0.6-3.1,0.5-4.1-0.4c-0.9-0.9-0.5-2.4-0.6-3.5
	c-0.1-1.5-0.4-2.8-0.5-4.3c0-1.3-0.7-3-0.1-4.3c0.7-1.2-0.4-1.6-0.3-2.9c0.2-2.4,0.1-5.1,0-7.6c-0.1-1.9,0-3.7-0.1-5.5
	c-0.1-1.7-0.8-3.2-0.9-4.9c-0.1-1.8,0.1-3.6,0.3-5.3c0.1-0.6,0.2-1.4-0.5-1.7c-0.3-0.1-0.8-0.1-1.1,0.1c-0.3,0.3-0.2-0.1-0.5,0
	c-0.4,0.1,0.4,5.4,0.5,5.9c0.1,1.3,0,2.3-0.2,3.5c-0.4,2.5-0.2,4.9-0.2,7.4c0,1.8,0,3.4-0.2,5.2c0,0.4-0.3,1.2-0.2,1.6
	c0.2,0.8,0.6,1.3,0.6,2.2c-0.1,1.5-0.5,2.8-0.2,4.3c0.4,1.9,0,3.8-0.3,5.7c-0.4,1.8,0.3,4-2,4.7c-1.7,0.5-4.1,0.2-3.9-2.1
	c0.1-1.8,1-3.4,1.3-5.1c0.1-0.9,0.1-1.8,0.3-2.7c0.2-0.9,0.5-1.5,0-2.3c-1-1.6-0.9-4.2-1.1-6c-0.3-2.7-0.4-5.5-0.6-8.2
	c-0.2-1.6,0-3.3-0.1-5c0-0.5,0.1-0.5,0.5-0.6c0-0.6,0-1.2-0.1-1.8c-0.1-1.2-0.4-2.4-0.7-3.6c-0.2-1-0.4-4.2-1.6-4.5
	c-1.8-0.5-3.8-0.2-5.7-0.6c-2.1-0.4-1.1-2.4-0.5-3.8c0.4-1.1,1.1-3.1,1.3-3.7c0.8-2.2,1.3-4.4,1.9-6.6c0.5-1.8,1.2-3.7,1.4-5.6
	c0.1-0.8-0.1-1.1-0.9-1.3c-1.2-0.3-1.9-1.3-2.9-1.8c-1-0.5-2.4-1.1-2.6-2.4c-0.1-1.1-0.3-2.8,0.3-3.7c0.3-0.5,0.9-2.5,0.5-2.8
	C2,52.9,1,52.5,0.3,52c-1.3-0.9,2.4-4.4,3-5.1c1.4-1.7,2.7-4,4.6-5.3c0.3-0.2,0.9-0.4,0.9-0.9c0-0.6,0.1-0.4,0.4-0.8
	c0.2-0.3,0.5-0.2,0.8-0.4c0.1-0.1-0.1-1-0.2-0.6c0,0.2,0.6-0.8,0.4-0.5c0.4,0.5,1.9,0.8,2.2,0.2c0.7-1.1,0.1-2.6,0.1-3.9
	c0-0.8-0.3-1.5-0.3-2.2c0-0.6,0.1-1.1,0.2-1.7c0.1-0.5,0.1-1,0.1-1.5c0-0.6,0.3-1,0.4-1.6c0.1-0.9-0.8-2.1-0.4-2.9
	c0.5-0.9,1.6-1.5,2.5-1.9c0.9-0.5,1.7-0.8,2.7-0.7c0.5,0,0.8,0.5,1.3,0.5C19.6,22.6,19.8,22,20.3,22 M26.9,57.5
	c0.9-0.4,2.2-1.4,2.4,0c0.1,0.4-1.4,0.5-1.6,1C27.1,58.6,26.6,58,26.9,57.5"/>
<path d="M66.5,55.3c0.2,1.4,0.5,2.4,0.4,3.3c-0.2,2.5-0.5,5-0.8,7.6c-0.3,3-2,5.6-3,8.4c-0.6,1.7-1.2,3.5-1.7,5.2
	c-0.8,2.9-1.5,5.8-2.5,8.7c-0.4,1.3-1.4,2.4-2.1,3.5c-0.6,1-0.5,1.9,0.3,2.7c1.1,1.2,1.8,2.6,1.5,4.2c0,0.2-0.1,0.4,0,0.7
	c0.1,1.1-0.3,1.9-1.4,2.3c-0.9,0.4-1.6,1-2.5,1.4c-0.4,0.2-0.9,0-1.3-0.2c-0.1,0,0-0.7,0.1-1.1c0.6-1.4,0.9-2.8,0.9-4.3
	c-0.2-3.8-3.2-5.8-6.8-4.8c-2.8,0.8-4.1,2-3.9,5.2c0.1,1.4,0.1,2.8,0.3,4.1c0.2,0.9,0.6,1.8,1,2.8c-0.5,0.1-1.1,0.2-1.7,0.2
	c-1.4,0.1-2.2,0.9-2.2,2.3c0,1.2,0.4,2.5-0.4,3.7c-0.1,0.1,0.4,0.7,0.6,0.8c0.9,0.2,0.7,0.7,0.6,1.4c-0.3,1.3-0.6,2.6-0.4,4.1
	c0.2,1.3-0.2,2.7-0.4,4.1c0,0.3-0.3,0.7-0.3,1c0.3,1.7-0.4,3.2-1.1,4.7c-0.8,1.5-0.6,3.2-0.5,4.9c0.1,1.8,0.1,3.5,0,5.3
	c-0.1,0.9-0.1,1.6,0.6,2.2c0.8,0.8,0.6,1.8,0.7,2.8c0.2,1.9-0.7,3.6-0.4,5.4c0.2,1,0.7,1.8,1.8,1.9c1,0.1,1.8-0.4,2-1.4
	c0.2-0.8,0.2-1.7,0.3-2.5c0-0.8,0.2-1.3,1-1.8c0.5-0.3,0.8-1,1-1.7c0.2-0.6,0.3-1.3,0.5-1.9c0.1-0.3,0.1-0.6,0.2-1
	c0.2-0.6,0.3-1.2,0.5-1.8c0.2,0,0.3,0,0.5,0c0.1,0.3,0.3,0.7,0.2,1c0,0.6-0.2,1.1-0.3,1.7c-0.2,1.2-0.3,2.4-0.5,3.8
	c0.6-0.1,0.9-0.2,1.2-0.2c0,0.6,0.1,1.1,0.1,1.6c0.1,0.6-0.3,1.5,0.7,1.7c1,0.2,2.1,0.6,3-0.2c0.7-0.7,0.8-1.6,1.1-2.5
	c0.9-2.5,0-5,0.7-7.5c0.2-0.8,0.1-1.7,0.2-2.5c0-1.7,0-3.5,0.1-5.2c0.1-1.2,0.2-2.4,0.4-3.5c0-0.3,0.2-0.6,0.3-0.9
	c0.7-2.1,1.2-4.2,0-6.3c-0.2-0.3-0.2-0.7-0.2-1.1c0.1-1.4,0.4-2.7,0.5-4.1c0-0.9-0.2-1.8-0.3-2.7c-0.1-0.9-0.2-1.9,1.3-1.8
	c-0.4-1.4,0.6-1.7,1.4-2.4c2.6-2,4.6-4.4,4.2-8c-0.2-1.2-0.2-2.4-0.4-3.5c-0.1-0.5-0.3-0.9-0.4-1.1c0.3-1.3,0.4-2.5,0.7-3.6
	c0.3-1,0.6-1.9,1-2.8c1.4-2.6,2.7-5.1,4.2-7.6c1.3-2.1,2-4.4,2.4-6.8c0.2-1.4,0.7-2.8,1-4.2c0.1,0,0.3,0,0.4,0c-0.1,1.7,0,3.4-0.3,5
	c-0.4,2.2-1.1,4.3-1.5,6.5c-0.1,0.7,0.2,1.6,0.2,2.3c0,1.3-0.1,2.6-0.3,3.9c-0.3,2.1-0.1,4,0.5,6c1.4,5.2,2.7,10.4,4.1,15.5
	c0.1,0.6,0.2,1.2,0.2,1.8c0.1,1.3-0.1,2.7,1,3.8c0.2,0.2,0.2,0.6,0.2,0.8c0.1,1,0.1,2.1,0.2,3.1c0.2,3.8,0.5,7.6,0.5,11.4
	c0,2.8-0.2,5.5-0.3,8.3c0,0.8,0.2,1.6,0.5,2.4c0.6,1.5,1.4,3,2.1,4.4c0.3,0.6,0.5,1.1-0.4,1.5c-0.7,0.3-1.4,2.6-1.2,3.3
	c0.3,0.7,1.4,1.3,2.5,1.2c2.3-0.3,4.6-0.7,7-1.1c0.3,0,0.7-0.4,0.7-0.6c0-1.2,0-2.4,0-3.6c0-1.2,0.1-2.1,1.4-2.5
	c0.3-0.1,0.4-0.4,0.6-0.7c0.6-0.8,1.2-1.6,1.7-2.5c0.3-0.7,0.8-1.7,0.5-2.2c-0.6-1.3-0.3-2.7-0.5-4c-0.4-2.2-0.1-4.4,0.5-6.5
	c0.2-0.8,0.3-1.8,0.3-2.6c0.1-3.6,0.4-7.2,0-10.7c-0.3-2.4,0.3-4.6,0.1-6.9c-0.1-2,0.6-4,0.9-6c0.4-3.1,0.8-6.2,1.2-9.3
	c0.1-1.1,0.3-2.1,0.5-3.2c0.1-0.5,0-1.1,0.2-1.6c0.3,0.7,0.6,1.5,0.9,2.2c0.4,1.1,1,2.3,1.2,3.5c0.2,1-0.1,2.1-0.1,3.2
	c0,1,0.2,1.9,0.4,2.9c0.2,1.2,0.3,2.3-0.4,3.4c-0.3,0.5-0.4,1.5-0.2,1.7c0.6,0.4,1.4,0.8,2.2,0.1c1.4-1.2,2.3-3.7,1.8-5.5
	c-1.6-5.5-2.1-11.1-2.3-16.8c-0.1-2.2-0.5-4.4-1.1-6.5c-1.3-4.4-1.8-8.8-1.3-13.4c0.3-2.4,0-4.7-0.5-7.1c-0.3-1.3-0.9-2.4-1.3-3.7
	c-0.2-0.6-0.1-1.2-0.2-1.8c-0.1-1.2,0-2.4-0.4-3.5c-1-3-2-5.9-3.2-8.8c-0.9-2.3-4-3.5-7-3.1c-1.9,0.3-3.3,1.2-3.9,3.1
	c-1.2,3.6-2.4,7.3-3.5,10.9c-0.2,0.6-0.1,1.3-0.2,2c-0.1,0.9-0.5,1.5-1.6,1.7c-2.2,0.3-4.2,1.1-5.5,3.1
	C67.4,54.2,66.8,54.9,66.5,55.3z M82.4,99c0.1,0,0.2,0,0.4,0c0,2.8,0,5.5,0,8.3C82,104.5,81.9,101.7,82.4,99z M83.5,118.5
	c-0.1,0-0.2,0-0.3,0.1c-0.1-0.9-0.1-1.9-0.2-2.8c0.1,0,0.3,0,0.4,0C83.4,116.7,83.5,117.6,83.5,118.5z"/>
</svg>
