<?xml version="1.0" encoding="utf-8"?>
<!-- Generator: Adobe Illustrator 24.1.3, SVG Export Plug-In . SVG Version: 6.00 Build 0)  -->
<svg version="1.1" id="Layer_1" xmlns="http://www.w3.org/2000/svg" xmlns:xlink="http://www.w3.org/1999/xlink" x="0px" y="0px"
	 viewBox="0 0 100 150" style="enable-background:new 0 0 100 150;" xml:space="preserve">
<path d="M32.3,90.3c1.6-1.5,1.7-4.1,0.3-5.7c6.3-10.4,12.6-20.9,18.8-31.3c0.1,0,0.2,0,0.2,0c0,0.2,0,0.4,0,0.6
	c-0.3,1.1-0.7,2.2-0.9,3.3c-0.2,0.8,0.2,1.6,0.8,2.2c0.5,0.5,0.7,1.1,0.7,1.8c0,1.7,0.5,3.4,1.4,4.9c1.2,1.9,1.2,4,1,6.2
	c0,0.4-0.1,0.8-0.2,1.2c-0.1,0.8-0.3,1.5-1.2,1.8c-0.2,0.1-0.4,0.4-0.4,0.6c-0.3,0.8-0.5,1.7-0.7,2.6c-0.1,0.5,0,1,0.1,1.7
	c-0.6,0.7-0.9,1.9-1.1,3.1c-0.2,1.1-0.8,2.1-1.4,3c-0.6,1-1.5,1.9-2.2,2.9c-2.4,3.2-3.8,6.8-3.8,10.9c0,0.6-0.2,1.1-0.4,1.7
	c-0.5,1.6-0.7,3.1-0.7,4.8c0,0.8-0.5,1.7-0.9,2.5c-1,1.7-1.2,3.4-0.9,5.3c0.3,1.6,0.3,3.2,0.5,4.7c0,0.2-0.2,0.4-0.3,0.5
	c-0.2,0.3-0.5,0.6-0.6,0.9c-0.5,1.2-0.9,2.5-1.4,3.7c-0.1,0.3-0.3,0.7-0.5,1c-0.4,1.2-0.2,1.6,0.9,2.1c0.1,0.1,0.3,0.1,0.5,0.2
	c-0.1,0.6-0.2,1.2-0.4,1.9c-0.4,1-0.3,2.1-0.4,3.2c0,0.4,0.1,0.8,0,1.2c-0.2,1.4-0.6,2.8-1.3,4c-0.1,0.2-0.2,0.4-0.3,0.4
	c-1.3,0.4-1.4,2-2.3,2.7c0,0-0.1,0.1-0.1,0.1c0.1,1.5-1.2,1.7-2.1,2.2c-0.8,0.4-1.6,0.7-2.4,1c-1.1,0.5-1.9,1.2-2.2,2.3
	c-0.1,0.5,0.2,1.4,0.8,1.5c1,0.2,2.1,0.4,3.1,0.3c2.2-0.2,4.4-0.7,6.5-1.6c0.2-0.1,0.5-0.2,0.7-0.2c1.4,0.3,2.6-0.1,3.8-0.7
	c0.8-0.4,1.6-0.8,2.3-1.3c1.2-0.7,1.3-1.9,0.5-2.7c0-0.7,0.1-1.2,0-1.7c-0.1-0.6-0.5-1.1-0.6-1.7c-0.2-0.7-0.2-1.5-0.2-2.2
	c0-0.5,0-1.1,0.1-1.6c0-0.2,0-0.5,0.2-0.6c0.7-0.7,1.4-2.6,1.2-3.6c-0.1-0.6,0.7-1.5,1.3-1.5c0.4,0,0.7,0,1.1-0.1
	c1-0.3,1.1-0.6,0.8-1.6c-0.4-1.1-0.5-2.1,0-3.2c0.4-1.1,0.1-2.1-0.2-3.2c-0.1-0.3-0.1-0.6-0.1-0.8c0.4-1.7,0.6-3.4,0.4-5.1
	c-0.3-2.3,0.3-4.2,2-5.8c1.7-1.5,3.1-3.2,4.2-5.3c0-0.1,0.1-0.1,0.1-0.1c1,1.1,1.8,2.2,2,3.8c0.1,0.7,0.6,1.3,1,1.9
	c0.5,0.9,1.2,1.7,1.7,2.5c0-0.4-0.1-1-0.1-1.7c0.3,0.3,0.7,0.5,0.9,0.9c0.3,0.4,0.5,0.8,0.7,1.2c0.9,2.4,2.6,4.1,4.9,5.2
	c1,0.5,1.8,1.1,2.4,2.3c0.1-0.9-0.3-1.4-0.8-1.8c-0.5-0.4-1-0.7-1.4-1.1c-0.6-0.5-1-1.2-0.8-2.1c0.1-0.2,0-0.5,0-0.8
	c1.4,0.2,2.4,0.8,3.1,2.1c0.8,1.5,2.3,2.4,3.8,2.3c-0.6-0.7-1.5-1.3-2.1-2.1c-0.6-0.9-0.8-2-0.5-2.9c0.8,0.3,1.5,0.6,2.2,0.9
	c1,0.3,2,2,1.9,3.1c-0.2,2.2-0.2,4.3,0.3,6.4c0,0.1,0.1,0.3,0,0.3c-0.9,1.6-0.6,3.2-0.2,4.8c0.1,0.4,0.1,0.8,0.1,1.2
	c-0.3,2-0.1,2.2,1.9,2.3c0.1,0.4,0.2,0.8,0.4,1.3c-0.4-0.1-0.8-0.2-1.3-0.3c0.2,0.9,0.3,1.7,0.6,2.4c0.2,0.5,0.8,0.8,1.2,1.2
	c0.2,0.2,0.5,0.5,0.6,0.8c0.2,1.4,0.4,2.7,0.5,4.1c0,0.1-0.3,0.3-0.5,0.3c-0.2,0-0.4-0.2-0.8-0.2c0.2,0.8,0.3,1.7,0.5,2.5
	c0,0.2,0.3,0.3,0.5,0.3c0.5,0.1,0.7,0.3,0.6,0.9c-0.1,0.6-0.1,1.2-0.2,1.8c0,0.3-0.2,0.7-0.2,1c0,0.9,0.3,1.3,1.2,1.4
	c0.5,0.1,1.1,0.1,1.6,0.1c1.5-0.1,3-0.2,4.4-0.5c1.4-0.3,1.5-0.8,1-2.1c-0.2-0.6-0.2-1.3-0.7-1.8c-0.2-0.2-0.3-0.4-0.5-0.5
	c-0.4-0.2-0.4-0.5-0.4-0.9c0.1-0.4-0.1-0.9-0.3-1.3c-0.3-0.5-0.7-1-1-1.5c-0.2-0.3-0.1-0.8-0.1-1.1c0-0.5-0.1-1.1-0.1-1.6
	c-0.1-0.9-0.3-2-0.1-2.8c0.3-0.8,0.3-1.5,0.4-2.3c0-0.4-0.1-0.7-0.3-1.1c-0.2-0.5-0.1-0.9,0.4-1.1c1.3-0.5,1.4-0.8,0.9-2.1
	c-0.6-1.4-0.9-2.8-0.9-4.3c0-0.9-0.2-1.8-1-2.4c-0.1-0.1-0.2-0.4-0.2-0.6c0.1-1.4-0.1-2.8-0.7-4.1c0-0.1,0.1-0.1,0.1-0.2
	c0.3,0.2,0.7,0.3,1,0.6c0.6,0.6,1.2,1.3,1.7,2c0.6,0.8,1.2,1.4,2.1,1.4c-0.4-0.5-0.9-1-1.3-1.5c-0.1-0.2,0-0.5,0-0.7
	c0.2,0.1,0.5,0.2,0.6,0.4c0.9,1.1,2,1.6,3.4,1.7c0.9,0.1,1.6,0.5,2.1,1.3c0.5,0.9,1,1.8,1.5,2.7c0.1-0.9-0.1-1.7-0.5-2.4
	c-0.1-0.2-0.1-0.5-0.1-0.8c0.3,0.1,0.6,0.1,0.8,0.3c0.5,0.8,1,1.7,1.5,2.6c0.1,0.2,0.2,0.5,0.3,0.8c0.2-0.9,0.1-1.6-0.4-2.9
	c-0.8-1.9-2.1-3.5-3.7-4.8c-3.3-2.8-5.8-6.2-7.7-10.1c-1.4-2.7-2.1-5.6-2.8-8.6c-0.3-1-0.5-2.1-0.6-3.2c0.3,1,0.7,2,1,3
	c0.4,1.2,0.8,2.4,1.2,3.6c0.4,1.1,1.3,1.5,2.3,1.8c0.4,0.1,0.8-0.1,0.9-0.5c0.2-0.5,0.5-1.1,0.6-1.6c0.1-0.4,0-0.9-0.1-1.3
	c-1-2.5-2.1-5.1-3.2-7.6c-0.3-0.7-0.6-1.5-0.9-2.3c0-0.1-0.1-0.3-0.1-0.4c0.3-1.2-0.4-2.1-0.9-3c-0.3-0.6-0.4-1.2-0.4-2
	c0.1-0.8-0.2-1.8-0.6-2.5c-0.4-0.6-0.6-1.2-0.8-1.9c-0.2-0.7-0.4-1.2-1.2-1.1c0.2-0.8,0.2-0.8,2.1-0.5c-0.2-0.2-0.3-0.5-0.5-0.6
	C79.1,78.6,79,78.5,78,79c-0.2-0.4-0.4-0.9-0.5-1.3c-0.3-1-0.6-2-0.7-3c-0.3-1.5-0.1-1.7,1.2-2.2c-0.2-0.8-1.2-1.5-1.9-1.5
	c-0.7,0-1.3,0.6-1.4,1.6c-0.1,0.7,0,1.4,0.1,2.1c0.4,1.8,1,3.6,1.5,5.4c0.1,0.5,0.1,0.8-0.5,1c-0.2-0.4-0.5-0.9-0.7-1.4
	c-0.1-0.1-0.1-0.3,0-0.4c0.4-0.5,0.2-1,0-1.4c-0.3-0.8-0.7-1.5-1-2.3c-0.1-0.1-0.1-0.3-0.2-0.4c-1.6-1.3-1.7-3.3-2.2-5.1
	c-0.4-1.6-0.2-3,0.4-4.6c1.1-3.2,2.1-6.5,3.5-9.6c0.2-0.4,0.1-1,0.2-1.5c0-0.1,0-0.3,0-0.4c1-1,1.6-2.3,2.9-2.9
	c0.3-0.1,0.6-0.2,0.9-0.1c1,0.3,1.9,0.9,2.2,2c0.1,0.5,0.6,0.7,1.1,0.8c0.5,0.1,1,0.1,1.5,0.3c0.2,0.1,0.3,0.4,0.6,0.5
	c0.3,0.2,0.6,0.4,0.9,0.4c0.6-0.1,1.2-0.2,1.7-0.5c1.3-0.6,2.4-0.4,3.4,0.7c-0.2-1.1-1-1.8-2.1-1.8c-0.6,0-1.3,0-1.9,0.2
	c-0.9,0.3-1.5-0.2-2.2-0.6c-0.6-0.4-1.1-1-1.8-1.6c1.1-0.3,1.8,0,2.4,0.5c1.4,1.2,2,1.2,3.5,0.2c0.3-0.2,0.6-0.3,1-0.3
	c1.2,0,2.4,0.1,3.7,0.1c-0.3-0.1-0.6-0.3-0.9-0.5c-0.3-0.1-0.7-0.3-1-0.4c-1-0.4-2.2-0.8-3.2-0.2c-1.1,0.6-2.1,0.6-3.1-0.1
	c-0.3-0.2-0.8-0.2-1.2-0.2c-0.8,0-1.5-0.1-2-0.7c-0.2-0.3-0.6-0.4-1-0.7c0.7-0.4,1.3-0.8,2-1.1c1.7-0.7,2.9-2,4-3.4
	c0.5-0.6,0.1-1.6-0.6-2c-1.5-0.7-3.1-1.2-4.8-1.1c-0.3,0-0.7-0.2-0.8-0.4c-0.5-0.6-1-0.7-1.7-0.5c-1,0.3-2,0.6-3.1,0.8
	c1.3-2.4,2.6-4.8,3.9-7.2c0-0.1-0.1-0.1-0.1-0.2c-1.3,0.5-2.6,1.1-4.1,1.7c0.3-0.7,0.5-1.2,0.8-1.7c0.9-1.6,1.9-3.1,2.9-4.7
	c0.2-0.4,0.2-0.6,0.1-1c-0.3-0.7-0.8-1.4-0.3-2.3c0-0.1-0.1-0.3-0.2-0.4c-0.1,0.1-0.4,0.2-0.4,0.3c-0.1,0.9-0.8,1.1-1.5,1.5
	c-0.3,0.2-0.6,0.6-1,0.9c-0.3-0.3,0-0.7,0.1-1.1c0-0.2-0.1-0.4-0.1-0.6c-0.2,0.1-0.4,0.2-0.5,0.4c-0.2,0.7-0.7,1-1.5,1.3
	c0.1-0.4,0.2-0.7,0.3-1c0-0.1-0.1-0.3-0.1-0.4c-0.2,0.1-0.3,0.2-0.5,0.3c-0.1,0-0.1,0.2-0.1,0.3c-0.3,0.9-0.5,1-1.4,0.6
	c-0.3,1-1.1,1.6-2,2c-0.3,0.1-0.4,0.6-0.5,1c-0.4-0.4-0.5-0.8-0.2-1.4c0.5-1.3,0.7-2.7,1.1-4.1c-0.1,0-0.1,0-0.2,0
	c-0.8,0.8-1.6,1.7-2.4,2.5c-0.5-0.6-0.9-1.1-1.3-1.6c-1.4-1.5-3-2-5-1.5c-0.6,0.2-1.3,0.1-2,0c-1.6-0.3-3.9,1.2-4.2,2.8
	c0,0.2-0.1,0.4-0.2,0.5c-0.9,1.1-0.6,2.4-0.6,3.7c0,0.3,0,0.6,0,0.9c0,1.2,0,2.4-0.1,3.7c0,0.6-0.1,1.2-0.3,1.7
	c-0.3,0.8,0,1.5,0.4,2.2c0.3,0.5,0.6,1,0.9,1.5c0.3,0.7,0.4,1.5-0.1,2.3c-0.1-0.2-0.2-0.3-0.3-0.5c-5.4-9.1-10.7-18.1-16.1-27.2
	c-2-3.4-4-6.8-6-10.1c-0.5-0.8-0.4-1.4-0.1-2.2C34,2.9,33.6,1,32.3,0c-0.1,0.2-0.2,0.4-0.1,0.5c0.2,1,0.1,1.9-0.5,2.8
	c-0.2,0.3-0.3,0.7-0.4,1c-0.4,1.3-1.5,2.1-2.6,2.8c-1.9,1.3-3.9,2.5-5.8,3.8c-1.8,1.3-3.6,2.8-5.3,4.2c-0.2,0.1-0.4,0.5-0.4,0.6
	c0.3,0.8-0.3,1.1-0.6,1.6c-1.4,2.2-2.7,4.5-4.1,6.7c-0.2,0.3-0.4,0.6-0.6,0.8c-1.2,1.1-2,2.4-2.3,4c0,0.2,0,0.6,0.1,0.8
	c1.1,1.3,1.4,2.9,1.2,4.5c-0.2,1.7-0.6,3.4-0.9,5.1c-0.1,0.6-0.2,1,0.5,1.2c0.4,0.1,0.7,0.4,1,0.7c0.1,0.1,0.2,0.4,0.2,0.4
	c-0.6,0.7,0.1,1.1,0.5,1.6c-0.7,0-1.3,0-1.9,0c-0.1,0-0.2-0.1-0.3-0.2c-0.1-0.7-0.7-0.6-1.1-0.6c-1.7,0.1-3.5,0.3-5.1,0.8
	c0,0.1,0,0.2,0,0.2c1.2,0.3,2.4,0.6,3.7,0.9C8,44.5,8.5,44.5,9,44.6c0.4,0.1,0.8,0.1,1-0.4c0.1-0.2,0.5-0.2,0.8-0.3
	c-0.2,1.1-0.3,2,0,2.8c0.2,0.6,0.6,1.2,0.8,1.8c0.1,0.2,0,0.6-0.2,0.7c-0.3,0.3-0.7,0.5-1,0.7c-0.5,0.2-0.6,0.5-0.4,0.9
	c0.7,2.1,1.1,4.2,1,6.5c-0.1,1.1-0.3,2.1-1,2.9c-0.4,0.5-0.4,1.1-0.2,1.7c0.4,1.3,1.1,2.4,2.1,3.3c0.4,0.3,0.6,0.8,0.9,1.2
	c1.3,2.1,2.6,4.3,3.9,6.4c0.1,0.1,0.1,0.3,0.3,0.3c0.6,0.2,0.5,0.6,0.4,1c0,0.3,0.2,0.7,0.4,0.9c2.7,2.5,5.6,4.6,8.8,6.5
	c1.5,0.9,2.8,2,4.1,3.1c0.4,0.3,0.7,0.9,0.9,1.4c0.3,1.2,1.1,2.3,0.7,3.6C32.2,89.8,32.2,90,32.3,90.3z M32.5,5.8
	c7.6,12.9,15.2,25.7,22.8,38.5c-0.7-0.1-1.5,0.2-2-0.4c-0.4-0.6-1-0.7-1.6-0.5c-0.2,0.1-0.5,0.1-0.7,0.1c-2.4,0.4-4.8,1.1-7.3,0.9
	c-2-0.2-3.9-0.2-5.9-0.2c-6.7-0.2-13.3-0.4-20-0.7c-0.7,0-1.3-0.2-2-0.5c-1.3-0.7-1.3-0.7-0.5-2c0.3-0.4,0.4-0.8-0.1-1.2
	c0.4-0.5,0.8-1,1.2-1.6c-1.2-0.5-1.5-1.6-1.9-2.6c-0.1-0.4-0.2-0.7-0.4-1.1c-0.3-1-0.2-1.9,0.5-2.7c0.3-0.4,0.2-0.6-0.1-1
	c-0.2-0.3-0.4-0.7-0.3-1c0.4-3.2,1.3-6.2,2.6-9.2c0.1-0.2,0.3-0.4,0.4-0.5c0.6-0.3,1.1-0.8,1.3-1.4c0.1-0.4,0.4-0.7,0.6-1
	c1.7-2.6,3.9-4.6,6.3-6.5C27.7,9.4,30.1,7.6,32.5,5.8z M32.4,84.3c-0.2-0.1-0.4-0.2-0.5-0.3c-2.9-2.3-5.8-4.5-8.6-6.8
	c-1.8-1.5-3.4-3.3-4.5-5.4C18.4,71,18,70.3,17.2,70c-0.2-0.1-0.3-0.3-0.4-0.5c-1.3-2.9-2.2-6-2.5-9.1c0-0.3,0.1-0.8,0.3-1
	c0.3-0.4,0.2-0.6,0-1c-0.3-0.6-0.7-1.3-0.6-1.9c0.3-1.7,0.6-3.4,2.3-4.5c-0.4-0.5-0.8-1-1.1-1.5c0.1-0.2,0.2-0.3,0.3-0.5
	c0.4-0.6,1.5-0.7,2-0.2c0.4,0.5,0.9,0.6,1.5,0.6c1.1-0.1,2.1-0.1,3.2,0c1,0.1,1.9,0.5,2.1,1.7c0.2,1.2,1,1.9,2,2.5
	c1.1,0.6,1.8,1.6,2.2,2.9c0,0.1,0.1,0.3,0.2,0.5c0.3-1.3,0.1-2.1-0.9-3.7c0.9,0.3,1.9,0.6,2.9,0.8c0.8,0.2,1.5,0.4,2,1.1
	c0.6,0.8,1.4,1.5,2.2,1.7c-0.4-0.5-0.9-1.1-1.3-1.8c-0.6-1.1-1.5-1.9-2.7-2.1c-0.3-0.1-0.7-0.2-1-0.3c-0.4-0.3-0.8-0.6-1.2-0.9
	c0-0.1,0.1-0.1,0.1-0.2c0.2,0,0.5,0,0.7,0c0.3,0,0.7,0,0.9-0.1c0.4-0.4,0.9-0.3,1.4-0.4c0.8-0.1,1.6-0.2,2.4-0.2
	c1-0.1,1.9-0.1,2.9-0.1c1.1,0.1,2.2,0.3,3.2,0.4c0.2,0,0.5,0.2,0.6,0.3c0.4,0.4,2,0.5,2.2,0.1c0.2-0.5,0.6-0.4,0.9-0.5
	c0.4,0,0.9,0,1.3-0.1c1.3-0.4,2.5-0.2,3.7,0.1c0.6,0.2,1.2,0.6,1.9,0.9C44.9,63.4,38.6,73.8,32.4,84.3z M31.6,44.6c0,0,0,0.1,0,0.1
	c-0.1,0-0.2,0.1-0.3,0.1c-1.5,0.2-2.9,0.3-4.4,0.5c-0.1,0-0.2,0-0.3,0c-0.3-0.1-0.7-0.2-1-0.2c-0.8,0.1-1.5,0.3-2.3,0.3
	c-0.9-0.1-1.8-0.3-2.8-0.5c-0.3-0.1-0.7-0.2-1-0.1c-0.7,0.2-1.1,0.1-1.5-0.6C22.6,44.3,27.1,44.5,31.6,44.6z M72.7,37.7
	c0.5-2.4,2.1-4.2,3.2-6.1c-0.1,0.9-0.1,1.9-0.3,2.8c-0.2,0.8-0.4,1.6-0.9,2.2C74.3,37,73.5,37.2,72.7,37.7z M40.7,44.9
	c-2.9,1-6.5,0.9-7.2-0.3C36,44.8,38.4,44.8,40.7,44.9z M72.7,33.8c0.1,0,0.2,0.1,0.3,0.1c0,1.8-1,4.4-1.8,4.8
	c-0.1-0.3-0.2-0.7-0.1-0.9C71.5,36.4,72.1,35.1,72.7,33.8z M55.3,31.8c-0.1,0-0.1,0-0.2,0c0-0.9-0.1-1.9,0.5-2.8
	C55.5,29.9,55.4,30.9,55.3,31.8z M47.2,45.3c0,0.1,0,0.2,0,0.3c-1.1-0.2-2.2-0.3-3.3-0.5c0-0.1,0-0.1,0-0.2
	C45,45.1,46.1,45.2,47.2,45.3z"/>
</svg>
