<?xml version="1.0" encoding="utf-8"?>
<!-- Generator: Adobe Illustrator 23.1.1, SVG Export Plug-In . SVG Version: 6.00 Build 0)  -->
<svg version="1.1" id="Layer_1" xmlns="http://www.w3.org/2000/svg" xmlns:xlink="http://www.w3.org/1999/xlink" x="0px" y="0px"
	 viewBox="0 0 100 150" style="enable-background:new 0 0 100 150;" xml:space="preserve">
<g id="Mba309.tif">
	<g>
		<path d="M35.1,150c-1.9,0-3.8,0-5.7,0c-0.5-0.1-1.1-0.2-1.6-0.2c-3.2-0.1-6.5-0.2-9.7-0.2c-1.6,0-2-0.7-2.1-2c0-0.5,0-1,0.1-1.5
			c0.4-4,0.9-7.9,1.1-11.9c0.2-2.8,0-5.6,0-8.3c1.9-0.3,3.4-0.5,4.9-0.7c2.6-0.5,2.6-0.5,2.4-3c-1.1-15.3-2.1-30.7-3.2-46
			c-0.9-13.2-1.9-26.5-2.9-39.7c-0.1-0.9-0.5-1.8-0.9-2.6c-0.6-1-1.4-1.9-2.1-2.8c0-0.5,0-1,0-1.5c1-0.9,2-2,3.2-2.8
			c2.1-1.4,4.9-0.3,5.6,2.2c0.2,0.9,0.4,1.7,0.7,2.7c0.5,0,1,0.1,1.5,0c3.8-0.6,7.4-1.7,10.4-4.3c0.8-0.7,1.7-1.2,2.3-2.1
			c0.8-1.3,2-1.9,3.4-2.2c2.5-0.4,5-0.8,7.5-1.3c0.3-0.1,0.7-0.6,0.7-0.9c0.1-0.8-0.4-1.3-1.2-1.6c-2.4-0.8-4.4-2.1-5.7-4.4
			c-1.5-2.6-1.3-5.4,1.1-7.3c1.5-1.2,3.4-2.1,5.2-2.7c1.5-0.5,2.7-1.1,3.6-2.4c0.3-0.5,0.7-0.9,1-1.3c1.2-1.5,3.2-1.5,4.4-0.1
			c0.6,0.7,1.1,1.4,1.6,2.2C61.1,4.4,62,5,63.3,5.4c1.3,0.4,2.6,1,3.7,1.8c4.2,2.8,4.1,7.4,0,10.2c-1.1,0.7-2.4,1.2-3.6,1.8
			c-0.6,0.3-1.2,0.6-0.5,1.3c1.6,1.6,2.9,3.5,5.5,3.7c0.9,0.1,1.7,0.5,2.6,0.8c2.4,0.9,4.5,2.1,5.7,4.5c1.7,3.3,3.4,6.7,5.2,9.9
			c2.3,3.9,3.3,8,2.6,12.6c-0.3,1.6,0.2,3.3,0.2,5c0,0.3-0.5,1-0.7,1c-1.5-0.2-1.9,0.8-2.2,1.9c-0.6,1.8-1.2,3.6-1.9,5.4
			c-1,2.5-2.4,4.5-4.9,5.8c-1,0.5-2.4,1-2.1,2.5c0.2,1.4-0.2,2.3-1.3,3.1c-1,0.7-1.4,1.6-1.5,2.8c-0.1,1.6-0.3,3.2-0.5,4.8
			c-0.2,1.1-0.5,2.1-0.8,3.2c-0.3,1.3-0.8,2.6-1,3.9c-0.3,2.2-0.4,4.4-0.6,6.6c-0.1,0.8-0.3,1.7-0.7,2.4c-1.5,2.8-1,5.8-0.6,8.6
			c0.3,2.4,0.9,4.7,0.6,7.1c-0.1,0.9-0.9,1.8-1.3,2.7c-0.3,0.5-0.8,1.1-0.8,1.6c-0.3,3.8-0.4,7.7-0.8,11.5c-0.5,3.9,0.2,5.7,4.2,8
			c1.3,0.8,2.2,1.7,2.5,3.3c0.2,1-0.1,1.6-1,1.6c-2.4,0.1-4.8,0.1-7.1-0.2c-0.9-0.1-1.8-1-2.4-1.7c-0.7-0.8-1.3-1.3-2.5-0.8
			c-1.3,0.6-2.6-0.2-2.7-1.7c-0.1-0.8,0.1-1.6,0.2-2.4c0.2-1.6,0.8-3.1,0.7-4.7c-0.1-3.3-0.5-6.7-0.8-10c-0.2-1.8,0.1-3.7-1.1-5.3
			c-0.2-0.2-0.3-0.6-0.1-0.9c0.7-1.5-0.2-2.7-0.5-4c-0.3-1.9-0.7-3.8-0.5-5.6c0.7-8-0.1-16-0.9-23.9c-0.1-0.5-0.3-1-0.4-1.6
			c-0.4,0.2-0.5,0.3-0.7,0.4c-2.4,1.7-4.8,3.4-7.1,5.2c-0.7,0.5-1,1.5-1.4,2.4c-0.4,0.9-0.7,1.9-1.2,3.1c1.3,1.1,2.1,2.8,2.1,4.9
			c0,1.2,0.4,2.3,0.7,3.5c0.3,1,0.9,1.8,1,2.8c0.5,4.3,0.9,8.6,1.4,12.9c0.2,1.8,0.8,3.6,1,5.4c0.2,1.8-2.7,3.7-4.3,2.8
			c-1.2-0.7-1.9-0.1-2.7,0.6c-0.7,0.6-1.6,1.1-2.5,1.5c-0.7,0.3-1.4,0.2-2.2,0.3c0,0.9,0,1.6,0,2.4c0.2,5.3,0.4,10.7,0.5,16
			C35.7,147.4,35.3,148.7,35.1,150z M37.4,117.7c-0.8-1.7-1.5-3-1.9-4.4c-0.5-1.8-0.7-3.7-1.1-5.6c-0.3-1.4-0.4-2.9-1.9-3.7
			c-0.3-0.1-0.4-0.6-0.5-0.9c-1.1-3.5-2.1-7-3.2-10.4c-0.4-1.3-1-2.6-1.3-4c-0.2-0.8-0.2-1.7,0.2-2.4c1.8-3.6,3.8-7.1,5.8-10.7
			c-1.1-0.6-0.8-1.5-0.1-2.3c0.5-0.6,1.1-1.2,1.6-1.8c0.3-0.3,0.5-0.7,0.6-1.1c0.5-1.4,0.7-3,1.6-4.1c4.2-5.2,3.3-11.4,3.9-17.3
			c0-0.1,0-0.2-0.1-0.3c-0.9-2.7-1.8-5.5-2.7-8.4c-0.2,0.1-0.7,0.2-1.2,0.3c-2.6,0.6-5.2,1.1-7.9,1.7c-0.3,0.1-0.7,0-1-0.1
			c-2.1-0.5-4.3-1.1-6.5-1.6c1.8,27.7,3.7,55.7,5.5,83.6c0.1,0,0.3,0,0.4,0.1c0.2-0.4,0.4-0.9,0.7-1.2c0.6-0.5,1.4-1.3,2-1.3
			C34.2,122.1,35.7,119.3,37.4,117.7z M74.3,43.7c-0.2,0.1-0.4,0.2-0.6,0.2c-0.5,3.6-1,7.2-1.4,10.7c-0.3,2.3-0.6,4.6-0.8,7
			c-0.1,0.6-0.1,1.6,0.2,1.8c1,0.5,2.4,1,3.1-0.2c0.8-1.3,1.9-3.1,1.5-4.4c-0.6-2.3,0.5-4.6-0.5-6.8c-0.2-0.5,0.2-1.4,0.4-2.1
			c0.3-0.8,0.8-1.6,1.1-2.3C76.3,46.2,75.3,45,74.3,43.7z"/>
	</g>
</g>
</svg>
