<?xml version="1.0" encoding="utf-8"?>
<!-- Generator: Adobe Illustrator 23.1.1, SVG Export Plug-In . SVG Version: 6.00 Build 0)  -->
<svg version="1.1" id="Layer_1" xmlns="http://www.w3.org/2000/svg" xmlns:xlink="http://www.w3.org/1999/xlink" x="0px" y="0px"
	 viewBox="0 0 100 150" style="enable-background:new 0 0 100 150;" xml:space="preserve">
<path d="M88,0c-0.4,1.2-0.9,2.3-1.3,3.5c-0.7,2-1.5,4-2.1,6c-0.3,1-0.7,2.1-0.5,3.1c0.5,4-0.5,7.8-1.1,11.7c-1,6.1-2,12.2-3.1,18.3
	c-1.6,9.7-1.6,9.4-3.2,19c0,0.3-0.2,0.5-0.2,0.8c-2,0.6-2.9-0.5-3.5-2.1c-1.2-3-2-6.2-4.1-8.8c-0.6-0.7-0.3-2-0.4-3.1
	c-0.1-1,0.2-2.1-0.1-3c-0.7-2.6-1.1-5.3-0.6-8c0.7-4.1-0.2-7.7-3.7-10.3c-0.7-0.5-1.5-0.8-2.2-1.2c3.7-3.8,4.9-8.6,5.4-13.6
	c0.3-3-1.3-5.2-3.2-7.1c-0.7-0.7-2.2-0.7-3.3-1c-1.5-0.3-3.1-0.5-4.6-0.9c-3.1-0.8-5.9,0.4-7.7,3.2c-1.8,2.8-1.3,5.9-1.7,8.9
	c-0.2,1.3,0.5,2.8,0.5,4.2c0,0.5-0.6,1.5-1.1,1.6c-2.6,0.9-5.4,1.5-8,2.3c-0.5,0.1-1,0.5-1.4,0.9c-0.4,0.3-0.6,0.9-1,1
	c-2.3,1-3.8,2.8-5.3,4.8c-0.6,0.8-1.8,1.7-2.7,1.8c-11.1,0.8-15.5,9-16.2,17.5c-1,11.9,2.1,22.8,8.9,32.7c3.7,5.3,8.1,9.7,13.9,12.7
	c0.5,0.3,0.8,1.2,1.2,1.9c2-1.7,4.1,0.2,6.5,0c-0.1,1.2,0,2.4-0.4,3.3c-1.4,4.1-1.2,8.6-3.2,12.5c-0.4,0.8-0.5,1.8-0.5,2.6
	c0.2,4.1,0.7,8.2,0.8,12.3c0.1,2.6-0.4,5.1-0.6,7.7c-0.1,1.2,0,2.4,0.1,3.7c0.1,2,0.2,3.9,0.4,5.9c0.2,1.8,1.1,3.2,2.9,3.8
	c1.5,0.5,3.1,1.1,4.6,1.4c2.2,0.4,3.3-0.8,2.9-3c-0.3-1.3-1.1-2.4-1.5-3.7c-0.5-1.3-0.7-2.8-1.1-4.1c-1.4-4.1-0.2-8.1,0.5-12
	c0.5-2.9,1.7-5.7,2.6-8.5c0.2-0.6,0.2-1.2,0.4-1.8c0.1-0.4,0.2-0.9,0.2-1.3c0.2,0,0.4,0,0.6,0c0.1,2,0.3,4.1,0.4,6.1
	c0.2,3.5,0.1,7-1.3,10.3c-0.7,1.7,0.1,2.5,1.3,3.1c0.9,0.4,1.9,0.7,2.9,0.7c3,0.1,5.6,1.2,8.2,2.8c1.5,0.9,3.3,1.2,5,1.5
	c0.4,0.1,1.3-0.6,1.5-1.1c0.2-0.7,0.2-1.9-0.1-2.2c-2-1.3-1.6-3.1-1.3-4.9c1.9-11.4,3.8-22.7,5.7-34.1c1.4-8.3,2.7-16.5,4-24.8
	c0.2-1,0.5-1.8,1.4-2.5c1.9-1.4,2.5-3.4,2.2-5.7c-0.1-0.4-0.2-1.1-0.5-1.2c-1.4-0.6-1.1-1.6-0.9-2.7c1.2-7,0.8-4.1,2-11.2
	c1.5-9.4,2.9-18.8,4.5-28.2c0.4-2.3,1-4.5,1.8-6.6c1.1-2.8,1.4-5.6,1.2-8.6c-0.1-2.1,0-4.2,0-6.3C88.3,0.1,88.2,0,88,0z M64.6,134.3
	c-1.4-1.2-2.8-2-3.7-3.1c-2.4-2.8-2.4-6.1-1.5-9.6c0.8-3.1,1.5-6.3,2.1-9.5c0.2-1,0.1-1.9,1.1-2.6c0.4-0.3,0.8-1.3,0.6-1.7
	c-0.4-1.4-0.1-2.5,0.7-3.6c0.5-0.7,0.8-1.5,1-2.3c1.1-5.6,2.2-11.1,3.2-16.7c0.6-3.2,0.2-6.4,1.3-9.6c0.7-1.9-0.4-4.5-0.9-6.7
	c-0.6-2.6-1.4-5.1-2-7.6c1.8,1.1,3.4,2.3,4.6,3.7c0.9,1.1,1.5,2.5,2.3,3.7c0.2,0.3,0.4,0.7,0.8,0.9c1.4,0.7,1.1,1.9,0.9,3
	c-1.2,7.2-2.4,14.4-3.6,21.6c-1.8,11.3-3.7,22.5-5.5,33.8C65.5,129.8,65.1,131.8,64.6,134.3z"/>
</svg>
