<?xml version="1.0" encoding="utf-8"?>
<!-- Generator: Adobe Illustrator 23.1.1, SVG Export Plug-In . SVG Version: 6.00 Build 0)  -->
<svg version="1.1" id="Layer_1" xmlns="http://www.w3.org/2000/svg" xmlns:xlink="http://www.w3.org/1999/xlink" x="0px" y="0px"
	 viewBox="0 0 100 150" style="enable-background:new 0 0 100 150;" xml:space="preserve">
<path d="M79.7,149.2c-0.1-1.2-0.3-2.4-0.3-3.6c0.1-2.3-0.2-4.7-0.6-7c-0.3-1.4-0.4-2.9-0.6-4.3c-0.1-0.9-0.2-1.8-0.3-2.7
	c-0.1-0.6-0.3-1.2-0.3-1.8c-0.1-1.5-0.2-3-0.3-4.5c0-0.1,0-0.2,0-0.3c-0.2-1.3-0.4-2.6-0.5-3.9c-0.1-1.4-0.2-2.8-0.3-4.2
	c-0.1-0.8-0.3-1.5-0.4-2.3c-0.2-0.9-0.3-1.9-0.5-2.8c-0.3-1.5-0.5-3.1-0.8-4.6c-0.2-1-0.5-2-0.7-3c-0.3-1.3-0.5-2.6-0.9-3.9
	c-0.2-0.7,0-1.2,0.7-1.7c0.2-0.1,0.5-0.3,0.7-0.4c1.1-0.7,1.1-0.9,0.8-2C74.8,95,74.4,93.5,74,92c-0.7-2.5-1.3-5-1.9-7.5
	c-0.6-2.2-1.2-4.4-1.8-6.7c-0.6-2.3-1.3-4.5-1.9-6.8c-0.2-0.6,0-0.9,0.7-1.2c0.6-0.3,1.2-0.6,1.8-1c0.6-0.4,1.1-1,1.7-1.5
	c0.2-0.2,0.5-0.4,0.8-0.4c0.8-0.1,1-0.7,1.2-1.2c0.2-0.7,0.4-1.4,0.6-2.1c0.2-0.7,0.4-1.4,0.6-2.2c0.2-1.2-0.7-2.1-1.2-3.2
	c-0.3-0.5-0.5-1-0.6-1.6c-0.1-0.7,0-1.3-0.7-1.8c-0.2-0.1-0.2-0.4-0.2-0.6c-0.2-0.6-0.3-1.2-0.5-1.8c-0.1-0.4-0.1-0.8-0.1-1.1
	c0.1-0.7,0.4-1.3,0.6-1.9c0.2-0.4,0.4-0.9,0.7-1.3c0.3-0.6,0.9-1.1,1-1.7c0.2-0.9,0.1-1.9,0-2.9c0-0.5-0.2-1-1-1
	c-1.7-0.1-3.4,0-5.1-0.5c-1.3-0.3-2.5-0.5-3.5-1.3c-1.4-1.1-2.3-2.3-2.2-4c0-0.8-0.2-1.7-0.3-2.5c0-0.2-0.2-0.5-0.3-0.7
	c-0.2-0.4-0.6-0.5-0.9-0.2c-0.2,0.2-0.3,0.6-0.3,0.9c0.1,1.2,0.3,2.4,0.4,3.6c0,0.3-0.2,0.8-0.5,0.9c-0.9,0.4-1.1,0.9-0.8,1.7
	c0.1,0.2-0.1,0.6-0.3,0.8c-0.2,0.2-0.6,0.2-0.9,0.1c-0.8-0.2-1.5-1.2-1.5-1.9c0-0.8,0-1.7,0-2.5c0-0.9,0.2-1.7,0.6-2.5
	c0.3-0.5,0.1-1.1,0.2-1.7c0-0.3-0.1-0.6,0.1-0.8c0.5-1-0.1-2.2-1.2-2.7c-0.3-0.1-0.7-0.5-0.8-0.8c-0.1-0.5-0.1-1,0-1.5
	c0.1-0.5-0.1-0.7-0.5-1c-0.5-0.3-0.8-0.8-1.2-1.2c-0.4-0.4-0.9-1-1.4-1.1c-0.3,0-0.6-0.1-0.8-0.1c-0.6-0.5-1.3-0.9-2.1-1.3
	c-3.1-1.4-6.4-2.5-10.2-2.8c-1.9-0.2-3.6,0.2-5.2,1.1c-0.2,0.1-0.5,0.3-0.7,0.4c-1.1,0.5-1.9,0.5-2.8-0.1c-0.3-0.2-0.6-0.4-1-0.6
	c-0.4-0.2-0.8-0.3-1.3,0c-0.5,0.3-0.5,0.7-0.3,1c1,1.4,2,2.8,4,3.4c1.4,0.4,2.1,1.2,2.5,2.2c0.4,1.1,2.1,5.2,2.9,7.2
	c-0.3,0.1-0.6,0.3-0.5,0.7c0.1,0.4,0.3,0.7,0.5,1c0.4,0.6,0.9,1.1,1.3,1.7c0.3,0.5,0.5,1,0.9,1.5c0.4,0.5,0.5,1,0,1.5
	c-0.8,0.9-1.8,1.8-2.5,2.7c-0.8,1.1-1.8,1.5-3.3,1.4c-1.2-0.1-1.9,0.5-2.5,1.3c-0.3,0.4-0.6,0.9-1,1.2c-1.3,0.8-2.7,1.6-4.1,2.3
	c-1.4,0.7-2.9,1.3-4.3,2c-0.8,0.5-1.9,1-2.1,1.8c-0.5,1.2-0.7,2.6-0.6,4c0,1,0.5,2.1,1,3.1c0.9,1.5,2.2,2.8,2.9,4.4
	c0.5,1,1.4,1.8,2,2.7c0.8,1.2,1.5,2.5,2.2,3.7c0.4,0.7,0.8,0.7,1.5,0.3c0.3-0.2,0.6-0.3,0.9-0.5c0.6-0.3,1-0.3,1.5,0.3
	c0.2,0.3,0.4,0.6,0.7,0.8c1.1,1,1.2,1.9,0.6,3.2c-0.9,1.9-1.8,3.7-2.7,5.6c-0.4,0.9-0.7,1.8-1.1,2.7c-1,2.4-2.1,4.9-3,7.3
	c-0.5,1.4-0.1,2.3,1.3,3.1c1.8,1,3.3,2.2,2.8,4.4c0,0,0,0,0,0.1c0.1,0.7,0.3,1.5,0.4,2.2c0.1,0,0.2,0,0.3,0c0.1-0.2,0.3-0.4,0.4-0.6
	c0.3-0.8,0.6-1.6,0.9-2.4c0.1-0.3,0.6-0.4,0.9-0.6c0.2,0.3,0.5,0.6,0.7,0.9c0.1,0.2,0.1,0.5,0.1,0.8c0.3,1.7,0.6,3.5,0.8,5.2
	c0.2,1.8,0.3,3.5,0.7,5.3c0.5,2.2,1.3,4.4,1.9,6.6c0.1,0.5,0.1,0.9-0.3,1.2c-0.7,0.7-1.4,1.4-2,2.1c-0.5,0.6-1.3,0.8-2,0.5
	c-0.6-0.2-1.2-0.5-1.9-0.6c-0.8-0.2-1.5,0-2.1,0.5c-1.1,0.9-1.1,2-0.7,3.1c0.4,1.3,1.1,2.4,1.5,3.7c0.3,1,0.8,2,0.2,3.1
	c-0.6,1-0.6,2-0.6,3.1c0,0.3,0.1,0.7,0,1c-0.3,1.2-0.2,2.6-1.7,3.4c-0.3,0.1-0.5,0.5-0.5,0.7c0,0.2,0.2,0.6,0.3,0.6
	c0.8,0.2,1.6,0.4,2.4,0.3c0.9-0.1,1.7-0.4,2.6-0.6c0.2,0,0.4-0.1,0.5-0.2c0.9-0.7,1.7-1.5,2.6-2.2c0.3-0.3,0.7-0.5,1-0.8
	c0.4-0.4,1-0.8,1.1-1.3c0.2-0.9,0.4-1.9,0-2.9c-0.2-0.5-0.4-0.9-0.6-1.4c-0.2-0.3-0.3-0.7-0.6-1c-0.7-0.6-0.9-1.9-0.3-2.4
	c1.8-1.6,3.6-3.2,6-4.1c1.1-0.4,1.6-0.2,1.9,0.7c0.4,1.1,0.8,2.3,1.2,3.4c0.6,1.5,1.2,3,1.7,4.5c0.4,1.3,1.1,2.6,1,4
	c0,0.6-0.3,1-0.9,1.2c-0.7,0.3-1.5,0.4-2.1,0.8c-1.4,0.9-2.7,1.8-3.9,2.8c-0.7,0.6-1.2,1.4-2.3,1.7c-0.1,0-0.3,0.2-0.3,0.3
	c-1,1.9-0.3,3.1,2,3.6c0.7,0.1,1.4,0,2.1,0.5c0.2,0.1,0.6,0.1,0.8,0c0.6-0.3,1.2-0.6,1.7-0.9c0.3-0.1,0.5-0.4,0.8-0.5
	c1.2,0,1.9-0.7,2.8-1.1c0.4-0.2,0.8-0.5,0.9-0.9c0.3-0.8,0.9-1.2,1.8-1.4c0.8-0.2,1.7-0.4,2.5-0.6c1-0.2,1.6-0.7,1.5-1.6
	c-0.1-0.8-0.4-1.7-0.7-2.5c-0.7-1.7-1.5-3.3-1.7-5.1c-0.2-2.2-0.2-4.4-0.3-6.7c0-1.5,0-2.9,0-4.4c0-0.2,0.1-0.5,0-0.7
	c-0.4-0.8,0.1-1.3,0.7-1.9c0.9-0.9,1.7-1.8,2.5-2.7c0.3-0.3,0.4-0.8,0.5-1.2c0.3-0.8,0.4-1.6,0.8-2.3c0.7-1.6,1.4-3.2,2-4.8
	c0.4-0.9,0.7-1.6,1.9-2.1c1.7-0.7,3.2-1.8,4.8-2.7c1-0.6,2.1-1,3.3-1.4c0.8-0.3,1.4,0,1.6,0.7c0.3,1.1,0.7,2.2,0.9,3.3
	c0.3,1.1,0.5,2.3,0.7,3.4c0.3,1.7,0.6,3.5,0.8,5.2c0.1,1,0.2,2.1,0.3,3.1c0.3,2,0.6,4.1,0.9,6.1c0.2,1.6,0.2,3.2,0.3,4.8
	c0,0.1,0,0.2,0,0.3c0.5,2.2,0.9,4.4,0.9,6.6c0,0.9,0.2,1.9,0.3,2.8c0.2,1.3,0.4,2.7,0.5,4c0.1,1.4,0.2,2.9,0.3,4.3
	c0.2,1.6,0.4,3.2,0.6,4.9c0.1,0.6,0.5,0.7,1,0.7C79.7,150,79.7,149.7,79.7,149.2z M34.7,62.6c-0.1,0.4-0.1,0.9-0.2,1.3
	c-0.1,0.3-0.2,0.7-0.5,0.9c-0.2,0.1-0.7-0.1-1-0.2c-0.1,0-0.2-0.1-0.3-0.2c-1-0.3-1.4-0.9-1.3-1.8c0.2-1.3-0.7-2.3-1.2-3.4
	c-0.1-0.2-0.4-0.2-0.6-0.4c-0.4-0.3-0.7-0.7-0.2-0.9c1-0.6,2-1.3,3.2-1.4c1.5-0.1,2.9,1.1,2.9,2.4c0,0.2,0,0.3,0,0.5
	c0,0,0.1,0,0.1,0C35.2,60.6,34.9,61.6,34.7,62.6z"/>
</svg>
