<?xml version="1.0" encoding="utf-8"?>
<!-- Generator: Adobe Illustrator 23.1.1, SVG Export Plug-In . SVG Version: 6.00 Build 0)  -->
<svg version="1.1" id="Layer_1" xmlns="http://www.w3.org/2000/svg" xmlns:xlink="http://www.w3.org/1999/xlink" x="0px" y="0px"
	 viewBox="0 0 100 150" style="enable-background:new 0 0 100 150;" xml:space="preserve">
<path d="M32.4,27.3c0.1-1.6,0.2-3.1,0.7-4.6c0.4-1.2,0.9-2.4,1.9-3.4c0.3,1.7,0.6,3.3,0.9,5l0.4,1.8c0.3,1.5,0.6,3.1,0.9,4.6
	c0.4,1.8,0.7,3.7,1.1,5.5c0,0.2,0.1,0.3,0.1,0.5c0,0.7,0.3,1.1,1.1,1.3c0.4-0.7,0.7-1.5,1.1-2.2c0.6-1.3,1.3-2.6,1.9-3.9
	c0.9-1.7,2.3-2.8,4.2-3.2c1.6-0.4,3-1.4,4.3-2.3c0.2-0.2,0.5-0.3,0.8-0.6c-0.2-0.9-0.4-1.9-0.6-2.9c0-0.2-0.3-0.3-0.4-0.4
	c-2-0.4-3.1-1.7-3.9-3.4c-0.5-1.2-1-2.4-1.4-3.7c-0.1-0.3-0.1-0.8-0.1-1.1c0.2-1,0-2-0.3-2.9c-0.2-0.5-0.1-1.2-0.1-1.8
	c0-0.1,0.1-0.2,0-0.2C44.6,8.6,45,7.7,45.1,7c0.4-2.4,1.4-4.3,3.4-5.8c0.9-0.6,1.8-0.9,2.8-1.1C52.5,0.1,53.7,0,54.8,0
	c1,0,1.9,0.6,2.7,1.1c0.5,0.3,1,0.8,1.5,1.2c1.2,1,2.3,2,3,3.4c0.3,0.6,0.3,1.1-0.1,1.6c-0.1,0.2-0.2,0.4-0.3,0.6
	c-0.1,1-0.4,2-0.2,3c0.2,1.1-0.2,2.1-0.8,3c-0.4,0.5-0.6,1.1-0.7,1.7c-0.3,2.3,0.6,4.3,1.6,6.3c0.1,0.1,0.3,0.2,0.5,0.1
	c0.8-0.2,1.4,0,1.9,0.8c0.1,0.2,0.5,0.3,0.8,0.4c1.2,0.1,2.4,0.4,3.2,1.5c0.7,1,1.2,2,1.6,3.2c0.5,2,0.3,3.9,0,5.9
	c-0.1,0.9-0.2,1.8-0.2,2.6c-0.1,1.3-0.4,2.4-0.9,3.6c-0.8,2-1.5,4.1-2.3,6.1c-0.4,1.1-0.9,2.1-1.2,3.2c-0.3,0.9-0.1,1.9-0.5,2.7
	c-0.3,0.8-0.4,1.5-0.3,2.3c0.1,1.4-0.1,2.8,0,4.3c0.1,0.9,0.3,1.7,0.5,2.6c0.4,2,0.6,4,0.2,6c-0.5,2.1-0.9,4.2-1.3,6.3
	c-0.2,1.1-0.3,2.2-0.4,3.3c-0.2,3.6-0.4,7.2-0.6,10.8c-0.1,2.3-0.2,4.5-0.4,6.8c0,0.7-0.2,1.3-0.2,2c0,0.6,0,1.2,0.1,1.8
	c0.8,2.8,1.6,5.6,2.4,8.4c0.4,1.7,0.8,3.4,1.1,5.1c0.2,1.4,0.4,2.8,0.6,4.2c0,0.3,0.1,0.7,0.1,1c0,5.3-0.1,10.7-0.2,16
	c0,1.2-0.3,2.3-0.4,3.5c0,0.2,0,0.4,0,0.6c0.1,0.5,0.2,1.1,0.2,1.6c0,0.4-0.1,0.8-0.2,1.3c-0.1,0.7-0.3,1.4-1,1.8
	c-0.1,0-0.1,0.2-0.1,0.4c0,0.3,0,0.6,0.1,0.8c0.3,1.4-0.4,2.4-1.5,3.2c-0.4,0.3-0.9,0.6-1.5,0.4c-0.2-0.1-0.6,0-0.8,0.2
	c-0.8,0.6-1.6,1.3-2.4,1.8c-1.5,1-3.3,1.4-5.1,1.5c-1.3,0.1-2.6,0.1-3.8-0.3c-1-0.3-2.2-1.2-2-2.4c0.1-0.9,0.8-1.4,1.5-1.9
	c1-0.7,2.2-1.1,3-2.1c0.6-0.7,1.2-1.4,1.7-2.1c0.1-0.1,0.2-0.2,0.2-0.2c0.4-0.3,0.5-0.6,0.3-1.2c-0.1-0.4,0-0.9,0.1-1.3
	c0.2-0.8,0.4-1.6,0.6-2.4c0-0.1,0-0.2,0.1-0.3c0.6-0.5,0.4-1.2,0.3-1.9c-0.1-1.1-0.3-2.2-0.4-3.3c0-0.6,0.1-1.3,0.4-1.9
	c0.7-1.3,0.7-2.5,0.1-3.8c-0.6-1.3-0.7-2.8-0.9-4.2c-0.1-0.8-0.1-0.8-0.9-0.9c-1.1-0.1-2.3,0-3.4,0.3c-0.1,1.2-0.1,2.4,0.4,3.6
	c0.2,0.5,0.3,1.2,0.3,1.8c0,2,0,4.1,0.1,6.1c0,0.4,0.2,0.7,0.4,1.1c0.1,0.3,0.2,0.5,0.2,0.8c0,0.4-0.1,0.8,0,1.2
	c0,0.5,0.1,0.9-0.3,1.3c-0.2,0.2-0.1,0.7-0.1,1c0,1.2,0,1.3-1.2,1.4c-1.2,0.1-2.5,0.1-3.7,0.2c-0.6,0-1.2-0.2-1.7-0.7
	c-0.4-0.4-0.8-0.5-1.3-0.3c-3.4,1.1-6.9,1.4-10.5,1.2c-0.6,0-1.2-0.1-1.7-0.4c-0.7-0.3-0.9-0.9-0.9-1.7c0-0.7,0.2-1.3,0.9-1.6
	c0.8-0.3,1.6-0.5,2.4-0.6c2.1-0.4,4.2-0.7,5.9-1.7c0.2-0.5,0.3-0.9,0.4-1.2c0.1-0.4,0.2-0.8,0.4-1.2c0.1-0.3,0.3-0.5,0.5-0.7
	c0.1-0.1,0.2-0.2,0.2-0.4c0-0.2-0.1-0.4-0.1-0.6c-0.1-0.6-0.1-1.3-0.1-1.9c0.1-1,0-2.1-0.1-3.1c-0.3-1.8-0.7-3.6-1-5.4
	c-0.1-0.8-0.1-1.6-0.1-2.6c-0.6-0.2-1.3-0.4-1.9-0.7c-1.4-0.5-2.8-1.1-3.8-2.2c-0.4-0.4-0.6-0.9-0.6-1.5c0.1-2.9,0.3-5.7,0.4-8.6
	c0.1-1.7,0.2-3.3,0.4-5c0.1-1.1,0.4-2.2,0.5-3.3c0.2-1.6,0.4-3.3,0.6-4.9c0.3-2.3,0.5-4.7,0.8-7c0.2-1.6,0.3-3.1,0.5-4.7
	c0.3-1.9,0.7-3.8,1.1-5.7c0.5-2.2,0.9-4.4,1.4-6.6c0.4-1.8,0.8-3.5,1.2-5.3c0.5-2,1.1-3.9,1.7-6c-0.8-0.1-1.6-0.3-2.5-0.5
	c-0.5-0.1-1-0.4-1.6-0.5c-0.7-0.2-1.4-0.3-2.1-0.5c-0.9-0.2-1.3-0.5-1.5-1.7c-0.3-1.9,0.1-3.7,0.9-5.4c0-0.1,0-0.2,0.1-0.3
	c-0.2-0.1-0.3-0.1-0.5-0.2c-0.6-0.2-0.8-0.6-0.8-1.2c0-0.3-0.1-0.6-0.2-0.9c0-0.2-0.1-0.4-0.1-0.6c-0.1-0.5-0.1-1-0.1-1.5
	c0-0.2,0.1-0.4,0.3-0.6c0.3-0.4,0.6-0.8,0.6-1.3c0-0.6,0.3-0.8,0.9-0.9c-0.2-0.1-0.4-0.2-0.6-0.2c-0.6-0.1-0.9-0.5-1-1
	c-0.3-1.4-0.6-2.8-0.8-4.2c-0.2-1.3-0.2-2.6-0.3-3.9L32.4,27.3z"/>
</svg>
