<?xml version="1.0" encoding="utf-8"?>
<!-- Generator: Adobe Illustrator 24.1.3, SVG Export Plug-In . SVG Version: 6.00 Build 0)  -->
<svg version="1.1" id="Layer_1" xmlns="http://www.w3.org/2000/svg" xmlns:xlink="http://www.w3.org/1999/xlink" x="0px" y="0px"
	 viewBox="0 0 100 150" style="enable-background:new 0 0 100 150;" xml:space="preserve">
<path d="M23.1,145c0.2-0.1,0.5-0.2,0.8-0.3c0.5-0.2,1-0.3,1.5-0.5c2.4-1.1,4.4-2.8,6.4-4.4c0.2-0.1,0.4-0.3,0.5-0.5
	c0-0.1,0-0.1,0-0.2c0-0.1,0-0.3,0.1-0.4c-0.1-0.2-0.2-0.4-0.3-0.5c0-0.1,0.1-0.2,0.1-0.4c-0.1-0.1-0.3-0.2-0.6-0.3
	c0.4-0.9,0.7-1.7,1.1-2.4c0.2-0.6,0.5-1.2,0-1.9c-0.3-0.4-0.1-0.8,0.3-1.1c0.9-0.7,0.8-1.6,0.8-2.6c0-0.6-0.1-1.1-0.1-1.6
	c0-1.1,0.1-2.3,0.1-3.4c0-1,0.1-2-0.6-2.9c-0.2-0.3,0-0.8,0-1.2c0.1-0.4,0.3-0.7,0.3-1.1c0-1.9,0-3.9-0.1-5.8
	c-0.1-1.4-0.7-2-1.9-2.3c-0.6-0.2-1.1-0.5-1.5-0.9c-0.6-0.5-0.5-1.1,0-1.6c0.4-0.3,0.8-0.6,1.3-1c-1-0.6-0.8-1.2-0.2-2
	c0.4-0.5,0.5-1.3,0.7-2c0.8-3,1-6.2,1.1-9.3c0-0.6,0-1.3,0.4-1.9c0.3-0.5,0.2-1-0.4-1.3c-0.4-0.1-0.7-0.3-1-0.5
	c-0.5-0.3-1.1-0.5-1.1-1c0.8-0.7,1.5-1.3,2.2-1.9c-0.9-0.7-1.1-1.4-0.9-2.3c1.7-6.5,3.6-12.9,5.6-19.2c0.1-0.3,0.1-0.7,0.2-1.1
	c-2-0.3-2.9,0.6-3.6,1.9c-0.6,1.1-1,2.4-1.6,3.5c-0.9,1.5-1.3,3-1.4,4.7c1.3,0.6,1.5,1.9,2.2,3c-0.3,0.1-0.5,0.2-0.7,0.3l0.5,0.5
	l-2.6,4.1l-0.1,2.3c0,0-2.5,1.3-4.9,0.7c-2.5-0.5-1.1-4.2-0.7-5.9c0.2-1.2,0.8-4,1.2-5.8c-0.6-0.6-0.9-1.5-0.9-2.5
	c0.4-0.1,0.7-0.3,1-0.4c0.1-0.5,0-1.2,0.3-1.4c0.9-0.6,0.9-1.6,1.1-2.4c0.6-2,0.8-4.1,1.2-6.1c0.1-0.6,0-1.1-0.4-1.6
	c-0.5-0.6-0.9-1.3-0.7-2.4c0.6-0.2,1.1-0.3,1.7-0.5c0.5-0.2,0.7-0.4,0.6-1.1c-0.1-0.4,0.1-0.9,0.2-1.3c0.2-0.9,0.5-1.7,0.6-2.6
	c0.2-1,0.3-2,0.5-2.9c0.9-6,2.3-11.9,2.7-18c0.1-0.8,0.5-1.7,1-2.4c0.3-0.4,0.8-0.6,1-1.2c0.4-1,1.6-1.5,2-2.5
	c1.1-0.2,1.3-1.3,1.8-2c1.1-1.4,1.4-3,1.2-4.7c-0.1-1-0.1-2.1-0.2-3.1c0-1.6,0-3.1,0-4.7c0-0.3-0.1-0.8-0.4-1
	c-0.6-0.6-1.3-1.1-1.9-1.6c-0.6-0.5-0.7-1-0.2-1.6c0.5-0.6,1.1-1.2,1.8-1.6c1.2-0.7,2.4-1.3,3.6-2c2.4-1.5,5.1-2.4,7.8-3.2
	c0.5-0.1,1.1-0.2,1.5,0c1,0.3,1.9,0.4,2.9,0.2c0.2,0,0.5-0.1,0.7,0c0.5,0.4,0.9,0.8,1.3,1.2c-0.4,0.3-0.8,0.6-1,0.8
	c0.3,1.3,0.7,2.5,0.9,3.7c0.3,1.6,0.3,3.2,0.3,4.9c0,2.6,0.6,5.3,1,7.9c0.1,0.9,0.5,1.6,1.1,2.2c0.5,0.4,0.9,1,1.1,1.6
	c0.2,0.7,0.7,0.9,1.3,0.9c0.4,0,0.8,0,1.1,0.1c0.3,0.1,0.7,0.2,0.8,0.4c0.4,0.7,1.1,1,1.7,1.4c0.6,0.4,1.2,0.7,1.8,1.2
	c1,0.9,1.8,2,3.4,2.4c-0.9,1.1-1,2.4-0.9,3.6c0.4,5.1,0.9,10.2,1.4,15.3c0.1,0.6,0.1,1.1,0.3,1.7c0.4,1.4,0.6,2.8-0.2,4.1
	c-0.1,0.3-0.1,0.7,0,1.1c0.4,1.6,0.9,3.2,1.2,4.8c0.2,0.8,0.4,1.6,1.1,2.2c0.1,0.1,0.2,0.3,0.3,0.4c-0.2,0.3-0.4,0.6-0.8,1.1
	c1.2,0.2,2.3,0.3,2.7,1.4c-0.3,0.5-0.6,0.9-0.8,1.2c0.5,0.7,1,1.2,1.5,1.9c-0.7,0.3-1.2,0.5-1.9,0.7c0.4,0.6,0.7,1.1,1.1,1.8
	c-0.3,0.1-0.7,0.3-1.1,0.4c0.2,0.2,0.3,0.5,0.5,0.7c0.2,0.3,0.3,0.7,0.3,1c-0.4,2.5-0.8,5-1.1,7.4c-0.4,2.6-0.8,5.2-1.6,7.7
	c0,0.3-0.1,0.6-0.2,0.9c-0.2,0.3-0.3,0.7-0.4,1c-0.1,0.3-0.3,0.7-0.4,1c-0.2,0-0.3,0-0.4,0c-0.2,0.1-0.4,0.2-0.6,0.2
	c-0.1,0-0.3,0.1-0.3,0.2c-0.2,0.3-0.3,1-0.8,0.6c-0.1,0-0.1-0.1-0.1-0.2c-0.8,0.3-1,1.1-1.2,1.8c-0.2,0.5-0.5,0.6-0.8,0.3
	c-0.9-1.3-0.3-2.6-0.2-3.9c0,0,0-0.1,0-0.1c-0.4,0.1-0.7,0.3-1.1,0.5c0,0.3,0,0.6,0,0.9c0.2,2.5,0.4,4.9,0.5,7.4
	c0.2,3.5,0.4,7,0.4,10.5c0,1.3,0,2.4,1.1,3.3c0.1,0,0,0.2,0.1,0.3c-0.7,1-1.5,1.8-2.9,2c-0.6,0.1-1.4,0.3-1.8,0.7
	c-0.3,0.4-0.2,1.1-0.3,1.7c0,0,0,0.1,0,0.1c-0.6,0.9-0.1,1.6,0.5,2.1c-1.2,1.3-1.2,1.3-1.3,3.1c0,1.9-0.1,3.8-0.1,5.7
	c0,1.9,0.1,3.8-0.2,5.7c-0.3,1.7-0.1,3.4-0.2,5.1c0,0.7-0.1,1.5-0.3,2.2c-0.2,0.6,0,0.9,0.3,1.4c0.4,0.8,0.7,1.6,1,2.5
	c0.2,0.6,0,1.1-0.6,1.4c-0.8,0.5-1.2,1.2-1.1,2.1c0,0.3,0.1,0.7,0,1c-0.1,0.3-0.4,0.8-0.7,0.7c-0.7,0-1.3,0.4-2-0.1
	c-0.6-0.4-1.4-0.4-2.1-0.5c-0.9-0.1-1.2-0.1-1.2-1.1c0.1-2.4,0.3-4.8,0.6-7.2c0.1-0.6,0.1-1.1-0.3-1.6c-0.3-0.4-0.4-0.9-0.5-1.2
	c0.5-0.5,1.1-0.8,1.2-1.1c0.2-1.5,0.8-3.2-0.8-4.4c-0.6-0.4-0.5-1.3,0.1-1.6c1.1-0.5,1-1.3,1-2.2c-0.1-2.6-0.2-5.1-0.2-7.7
	c0-0.9,0.2-1.8-0.8-2.4c-0.1-0.1-0.2-0.2-0.2-0.4c0.1-1.2-0.7-2.1-1-3.2c-0.1-0.5-0.4-1-0.7-1.3c-0.6-0.5-1-1.1-1.4-1.7
	c-1-1.5-1-1.6,0.1-2.9c0.9-1,1.4-2.2,1.1-3.6c-0.6-2.9-1.1-5.9-1.6-8.8c-0.1-0.4-0.2-0.7-0.4-1.1c-2,0.5-3.9,1.1-6,1.6
	c0.6,0.8,1.1,1.4,1.7,2.2c-0.5,0.2-0.8,0.4-1.1,0.4c-0.9,0.1-1.4,0.6-1.5,1.6c-0.1,0.9-0.1,1.8-0.3,2.7c-0.4,1.7-0.4,3.3,0.4,4.9
	c0.1,0.2,0.2,0.5,0.1,0.7c-0.6,0.9-0.7,2.2-2.4,2.3c0.9,4.5,0.5,8.9-0.9,13.2c-0.5,0-0.9,0.1-1.5,0.1c-0.2,1.7-0.4,3.5-0.5,5.2
	c0,0.3,0.3,0.7,0.5,1.1c-0.8,1-0.8,1-0.6,2.4c0,0.3,0,0.6,0,0.9c0,0.2,0,0.4,0,0.6c0.1,2,0.2,4.3-0.2,5.6c0,0.5,0.1,0.9,0.1,1.4
	c0,0.2,0,0.4-0.1,0.6c-0.1,0.2-0.2,0.4-0.3,0.7c0,0.1-0.1,0.2-0.1,0.3c-0.1,0.2-0.2,0.5-0.3,0.7c0.4,0.3,0.7,0.6,1.1,0.9
	c-0.5,0.4-0.9,0.7-1.3,0.9c-1.3,0.9-2.8,1-4.3,0.8c-2.3-0.3-4.5-0.2-6.7,0.3c-0.7,0.2-1.5,0.2-2.3,0.2c-0.3,0-0.6-0.1-0.9-0.2
	c-0.5-0.1-0.9-0.3-1.4-0.4c-0.3-0.1-0.6-0.2-0.9-0.2C22.7,146.3,22.9,145.8,23.1,145z M67.5,86.9C67.5,86.9,67.5,86.9,67.5,86.9
	C67.5,86.9,67.5,86.9,67.5,86.9C67.5,86.9,67.5,86.9,67.5,86.9z M66.8,76.8c0-0.5-0.1-1-0.1-1.6c0-0.2,0-0.3,0-0.4
	c-0.1-0.6-0.3-1.2-0.5-1.8c0,0,0,0,0,0c0,0,0,0,0,0c-0.3-0.7-0.6-1.3-0.9-2C65.1,72.2,66.2,75.7,66.8,76.8z M61.5,61.4
	c0.1,0.7,0.1,1.4,0.1,2.1c0,1.1,0.3,2,1,2.9c0.5,0.7,0.9,1.4,1.3,2.2c0.5,0.9,0.6,1,1.9,0.6c0.2-0.6,0.1-1.1-0.4-1.6
	c-0.7-0.7-0.6-2.1,0.1-2.8c0.5-0.4,0.5-1.3,0.1-1.9c-0.2-0.2-0.4-0.4-0.5-0.6c1.4-1.1,1-2.5,1.1-3.9c0-0.1-0.1-0.3-0.2-0.4
	c-1-0.5-0.9-1.6-1.1-2.5c-0.2-0.7-0.5-1.4-0.9-2.5c0.5-0.9,0.4-3.4-0.2-4.9c-0.2,0.2-0.4,0.4-0.5,0.6c-0.2,0.8-0.4,1.6-0.6,2.3
	c-0.3,0.9-0.4,1.7,0.5,2.3c-0.4,0.4-0.7,0.6-1,0.9c0,0.1,0,0.3,0,0.4c0.2,0.7,0.4,1.4,0.5,2.1c0.2,1.2,0.1,1.3-1.1,1.7
	c-0.2,0.1-0.4,0.2-0.5,0.2C61.2,59.8,61.4,60.6,61.5,61.4z M37.9,58.4c-0.1-0.1-0.2-0.1-0.3-0.2c-0.5,0.7-0.2,1.2,0.1,1.7
	c0.4,0.5,0.6,1,1,1.6c-0.5,0.4-0.8,0.7-1.3,1.1c0.4,0.5,0.7,1,1.3,1.6c0.2-0.5,0.3-0.8,0.4-1.1c0.1-0.4,0.1-0.8,0.2-1.3
	C39.8,59.7,39.8,59.7,37.9,58.4z"/>
</svg>
