<?xml version="1.0" encoding="utf-8"?>
<!-- Generator: Adobe Illustrator 24.1.3, SVG Export Plug-In . SVG Version: 6.00 Build 0)  -->
<svg version="1.1" id="Layer_1" xmlns="http://www.w3.org/2000/svg" xmlns:xlink="http://www.w3.org/1999/xlink" x="0px" y="0px"
	 viewBox="0 0 100 150" style="enable-background:new 0 0 100 150;" xml:space="preserve">
<path d="M1.5,72.5C0.9,72.3,0,72.2,0,71.3c0.1-1,1.1-0.9,1.8-1.1c-0.1-1.7,0.9-3,1.2-4.6l0.1,0c0,0-0.1,0-0.1,0
	c0.2-0.7,0.8-1,1.4-1.3c0.2-1.4,0.3-2.7-0.8-3.8c-1.3-0.8-0.9-2.2-0.7-3.2c0.1-0.6,0.5-0.7,1-0.6c0.4,0,0.8,0.1,1.2,0.1
	c1.2,0,1.7-0.5,2.1-1.9c0.6-2.2-0.1-4.1-0.2-6.2c0,0,0,0,0,0c-0.4-1-1.4-1-2.2-1.3c-0.3,0.2-0.6,0.4-0.9,0.5
	c-0.5,0.2-1.1,0.3-1.6,0.2c-0.7,0.1-1.4-0.1-1.8-0.8c-0.6-1.2,1.2-1,1.6-1.7c-0.6-0.1-1.1-0.2-1.4-0.8c-0.2-0.4-0.2-0.8,0.2-1.2
	c0.1,0,0.2,0.1,0.4,0.1c-0.1,0-0.2,0-0.4-0.1c0-0.3-0.1-0.6-0.1-0.9h0c-0.6-1.9,1.9-1,2-2.4C1.9,39.7,0,40,0.3,38.1
	c0.1-0.8,0.6-0.8,1.1-0.8c0.2,0,0.3,0,0.5,0c0.2-0.2,0.4-0.2,0.7-0.1c0.2-0.1,0.5,0,0.7,0.1c0.5-0.3,1.1-0.5,1.7-0.4
	c0.2,0,0.3,0,0.5,0c2.3-0.5,4.6-0.7,6.9-0.9c0.4-1.2,0.1-3.2,1.2-3.6c1.5-0.5,3.1-1.1,4.8-1c0.9,0,1.7,0.1,2.6,0.5c0,0,0,0,0,0
	c0,0,0,0,0,0c1.1,0,2.6,0,2.9,0.8c0.4,1.2,1,1.4,1.7,1.4c0.3,0,0.5,0,0.8,0c0.1,0,0.2,0,0.2,0c2-0.4,4.1-0.7,6.2-0.7
	c0.6,0,1.2,0,1.8,0.1c0.3-0.6,0.7-0.7,1.1-0.6c0.5-0.1,1,0.2,1.5,0.3c0.1,0,0.3-0.1,0.4-0.2c2-1.1,4.2-0.9,6.3-1.2
	c6.1-0.8,12.2-2,18.4-2.1c0.4-0.5,0.9-0.7,1.4-0.6c0.3,0,0.5,0,0.8,0.1c0.5,0,0.9-0.1,1.4-0.1c0.7-0.6,1.6-0.3,2.4-0.5
	c1.6-0.3,3.4-0.1,3.8-2.5c0.1-0.7,0.7-1.3,1.5-1.1c0.3-0.1,0.7,0,1.1,0.2c0.5-0.2,0.9-0.3,1.4-0.5c1.2-0.8,2.4-1.3,3.7-1.2
	c0.4,0,0.7,0,1.1,0.1c0.2-0.1,0.4-0.1,0.6,0c0.3,0,0.6,0,0.9,0.3c0.1,0,0.3,0,0.4,0.1c1.5,0.2,1.7,1.3,1.8,2.4
	c2.9-0.4,5.8-0.7,8.7-1.1c0.8-0.1,1.6-0.1,2.3-0.3c0.3-0.1,0.7-0.1,1-0.1c0.6-0.1,1.2,0.1,1.6,0.6c0.6,0.7-0.6,1-0.5,1.6
	c0.9,0.8,0,0.9-0.4,1c-1.1,0.5-2.3,0.9-3.5,1.3c0.2,0.3,0.6,0.4,0.9,0.4c0.2,0,0.5,0,0.7,0c0.5,0,0.9,0,1.3,0.4c0,0,0.1,0,0.1,0
	c0.5,0,1,0,1.1,0.6c0.1,0.4-0.4,0.7-0.8,0.8c-1.2,0.4-2.5,0.9-3.7,1.3c1,1.4,2.9,0.5,4,1.5c-0.9,1.1-0.9,1.1-0.7,1.8
	c0.1,0,0.1,0,0.2,0c0.8-0.1,1.4,0.2,1.4,1.2c0,0.4,0,1.2-0.2,1.1c-0.1,0-0.2-0.1-0.3-0.1c0,0.1-0.1,0.1-0.2,0.1
	c-0.2-0.1-0.3-0.1-0.5-0.1c-1,0.2-1.8,1.3-2.8,1.1c-0.3,0-0.7,0-1.1-0.3c-0.1-0.1-0.3-0.1-0.5-0.2c-0.4,0-0.8,0.2-1.1,0.4
	c-0.6,0.4-1.3,0.5-1.9,0.5c-0.5,0-1.1-0.1-1.6-0.2c-0.7,0.8-0.8,2.1-2,2.5c-0.1,0-0.3,0-0.4,0c0,0,0,0,0,0c0.1,0,0.3,0,0.4,0
	c0,0.3,0.3,0.6,0.2,0.9c0,0,0,0,0.1,0c0,0,0.1,0,0.2,0c0.3-0.1,0.5,0,0.5,0.4c0.1,0.9-0.9,1.7-0.3,2.6c0.7,1.2,0,1.7-1,2.2
	c-1.5,2.2,0.5,2.1,1.7,2.6c0.6,0.2,1,0.5,0.5,1.2c0,0.2,0,0.5,0,0.7c0.3,0,0.6,0.1,0.9,0.1c0.7-0.4,1.4-0.4,2.2-0.4
	c0.6,0,1.3,0.1,1.9,0.1c0.1,0,0.3,0,0.4,0c0.1,0,0.1,0,0.2,0c0.1,0,0.2,0,0.3,0c0.4,0,0.5,0.4,0.5,0.8c-0.2,0.4-0.3,0.9-0.5,1.3
	c-0.1,0.7-0.2,1.4-0.3,2.1c0.7,1.1,1,2.2,0.5,3.4c0,0,0,0,0,0c-0.1,0.3-0.1,0.5-0.2,0.8c-0.1,0-0.3,0-0.4,0c0,0,0,0,0,0
	c0.1,0,0.3,0,0.4,0c0.3,0.2,0.4,0.5,0.3,0.9c0.2,1.4,0.4,2.8,0.6,4.2c0.1,0.1,0.3,0.2,0.4,0.3c0,0,0,0,0,0c0.1,0,0.2,0.1,0.4,0.1
	c0.2,0,0.4,0,0.6,0c0.4,0,0.8,0,1.2,0.3c0.1,0,0.3,0,0.4,0c0.3-0.3,0.6-0.3,0.7-0.2c0.5-0.2,0.7,0.3,0.7,0.8c0.1,1,0.1,2,0.2,3.1
	c0.6,1.3-0.9,1.2-1.3,1.8c0,0,0,0,0,0c0.8,0.9,0.9,1.9,0.3,2.9c1.3,0.4,0.1,1.1,0.2,1.6c1.6,0.3,0.5,1.4,0.6,2.1
	c0.3,1,0.3,1.5-1.1,1.6c-0.5,0-1,0-1.4,0c-2.2,0-4.4-0.2-6.7-0.3c-0.2,0-0.5,0-0.7,0c-1.4,0-2.9,0-4.3,0.1c-0.1,2.7,1,5.3,0.3,7.9
	c0,0,0,0,0,0c0.5,2.8,0.3,5.7,0.2,8.6c-0.2,1.7,0.4,3.4-0.2,5.1c0.1,0.7,0.1,1.4,0.2,2.1c0,2.1,0.1,4.2,0.1,6.3
	c0,1.6-0.1,3.2,1.8,3.3c0.2,0,0.3,0,0.5,0c0.1,0,0.2,0,0.3,0c0.1,0,0.1,0,0.2,0c0.5-0.1,1,0.4,1.5,0.6c1.2,0,1.9,0.8,2.5,1.7
	c1.8,0.9,0.9,2.9,1.7,4.2c2.2,0.9,3.7,2.7,5.5,4.2c0.5,0.4,0.9,0.9,0.6,1.7c-0.3,0.7-0.9,1-1.7,1c-0.1,0-0.1,0-0.2,0
	c-0.1,0-0.1,0-0.2,0c-0.3,0-0.7-0.1-1-0.1c-0.3,0-0.6,0.2-0.9,0.5c-0.1,0-0.3,0-0.4,0c-1.7,0-3.4,0-5.1,0c-0.1,0-0.3,0-0.4,0
	c-1.7,0-3.4,0-5.1,0c-0.1,0-0.3,0-0.4,0c-1.3,0-2.5,0-3.8,0c-0.1,0-0.3,0-0.4,0c-5.2,0-10.4,0-15.7,0c-0.1,0-0.3,0-0.4,0
	c-0.1,0-0.3,0-0.4,0c-0.1,0-0.3,0-0.4,0c0.1-0.6,0-1.1-0.5-1.2c-0.2,0-0.4,0-0.6,0c-1.1,0.1-1.9-0.5-2.8-1.1c-1-0.2-2.1-0.3-2.6-1.5
	c-1.3-1-1.3-1.9-0.1-3c0.7-0.6,1.2-1.4,1.8-2.2c0-0.5,0-1.1,0.7-1.3c0.1-0.3,0.3-0.5,0.6-0.4c0,0,0,0,0,0c0.1-0.5,0.4-0.6,0.8-0.8
	c0.9-1,1.8-1.6,3-1.5c0.5,0,1.1,0.1,1.7,0.3c0,0,0,0,0,0c0.2,0,0.4,0,0.6,0.1c1.4,0,2.7-0.5,4-1.1c0.7-0.2,1.4-0.5,2.1-0.7
	c0,0,0,0,0,0c0-0.3,0-0.6,0-0.8c-0.6-0.8-0.4-1.7-0.1-2.6c0-0.5,0-1.1,0-1.6c-0.3-0.3-0.2-0.5-0.1-0.8c-0.4-2.8-0.2-5.7-0.1-8.5
	c0-0.8,0.1-1.6,0.1-2.5c-0.4-1-0.2-2-0.1-3c0,0,0.1,0,0.1,0c0,0-0.1,0-0.1,0c0-0.3,0.1-0.5,0.1-0.8c-0.4-3.5-0.3-7.1-0.3-10.6
	c0.1,0,0.3,0,0.4,0c0,0,0,0,0,0c-0.1,0-0.3,0-0.4,0c-0.1-0.6-0.1-1.1-0.2-1.7c-0.7,0-1.3,0-2,0c-0.6,0.6-0.2,1.6-0.9,2.1
	c0.4,0.7,0.4,1.4-0.4,1.2c-0.1,0.1-0.4,0-0.7-0.1c-2.1-0.8-4.5-0.5-6.6-1.5c-0.3,0-0.6-0.1-0.8-0.1c0,0,0-0.1,0-0.1c0,0,0,0.1,0,0.1
	c-3.2-1-6.4-1.8-9.7-1.9c-0.7,0-1.3,0-2,0.1c-0.1,0-0.2,0-0.3,0c0,0-0.1,0-0.1,0c-0.3,0-0.7-0.1-1-0.1c-1.6,0.1-3.2-0.6-4.9-0.6
	c-0.3,0-0.6,0-0.9,0.1c-1.2,0.3-2.4,0.3-3.6,0.3c-1.2,0-2.4-0.1-3.7-0.2c0,0,0,0,0-0.1c0,0,0,0,0,0c0,0,0,0,0,0.1
	c-0.6-0.1-1.2-0.2-1.8-0.2c-0.5,0.4-1,0.4-1.6,0.4c-0.3,0-0.6,0-0.9,0c0,0-0.1,0-0.1,0c-0.6,0-1.2,0.1-1.2,0.8
	c0,2.6-1.9,2.4-3.6,2.6c0.1,2.5,0.3,5,0,7.5c0,0.4,0.1,0.8,0.1,1.3c0,5.2,0,10.3,0.2,15.5c0,0.8-0.5,2.1,0.8,2.5
	c1.2,0.4,1.9,1.4,2.9,2c0,0,0,0,0,0c1.2,0.9,2.5,1.8,3.7,2.7c1.3,1,1.8,2.7,1.6,4.1c-0.1,1.1-1.8,1-2.9,1.1
	c-1.9,0.3-3.8,0.3-5.8,0.3c-4.5,0-9-0.5-13.6-0.5c-0.9,0-1.7,0-2.6,0.1c-0.1,0-0.2,0-0.4,0c0,0,0,0-0.1,0c-0.6,0-1.4-0.1-1.5-1
	c-0.1,0-0.2,0-0.3,0c-0.8,0.1-1.3-0.5-1.8-1c-0.9-0.1-1.7-0.2-1.9-1.3c-1.1-0.4-1.3-1.2-0.3-1.8c0.9-0.6,1.7-1.4,2.9-1.5
	c1.3-0.8,2.6-1.7,4.1-2.2c0.7-0.4,1.2-1.3,2.2-1.2c0.3-0.2,0.5-0.4,0.8-0.6c0-0.2,0-0.4,0-0.6c-0.4-0.7-0.2-1.4-0.2-2.1
	c0-8.6,0-17.3-0.1-25.9h0c0-0.4-0.1-0.8-0.1-1.2c-2.8,0-5.7,0-8.5-0.1c-0.3,0-0.8,0.1-1.1,0.1c-0.5,0-1,0-1-0.5
	c-0.2-1.3-0.8-2.4-1.3-3.5c0.3-0.1,0.6-0.2,1-0.3c0,0,0,0,0,0C2.4,73.4,2.5,72.9,1.5,72.5z M3.7,60.3c0,0.1,0,0.1,0,0.2
	C3.7,60.4,3.7,60.3,3.7,60.3C3.7,60.3,3.7,60.3,3.7,60.3z M4.9,43.7C4.9,43.7,4.9,43.7,4.9,43.7C4.9,43.7,4.9,43.7,4.9,43.7
	C4.9,43.7,4.9,43.7,4.9,43.7C4.9,43.7,4.9,43.7,4.9,43.7z M4.9,46.6C4.9,46.6,4.9,46.6,4.9,46.6C4.9,46.6,4.9,46.6,4.9,46.6
	C4.9,46.6,4.9,46.6,4.9,46.6C4.9,46.6,4.9,46.6,4.9,46.6z M93.8,59.8c-0.1,0-0.2,0-0.2,0c0,0,0,0,0,0C93.6,59.8,93.7,59.8,93.8,59.8
	z M93.3,54.3C93.3,54.3,93.3,54.3,93.3,54.3l0.2,0C93.4,54.3,93.3,54.3,93.3,54.3C93.3,54.3,93.3,54.3,93.3,54.3
	C93.3,54.3,93.3,54.3,93.3,54.3z M91.5,59.3C91.5,59.3,91.5,59.3,91.5,59.3L91.5,59.3C91.5,59.3,91.5,59.3,91.5,59.3L91.5,59.3z
	 M91.2,60.2C91.2,60.2,91.2,60.2,91.2,60.2C91.2,60.2,91.2,60.2,91.2,60.2C91.2,60.2,91.2,60.2,91.2,60.2
	C91.2,60.2,91.2,60.2,91.2,60.2z M91,60.2C91,60.2,91,60.2,91,60.2C91,60.2,91,60.2,91,60.2C91,60.2,91,60.2,91,60.2
	C91,60.2,91,60.2,91,60.2z M90.9,59.3C90.9,59.3,90.9,59.3,90.9,59.3C90.9,59.3,90.9,59.3,90.9,59.3C90.9,59.3,90.9,59.3,90.9,59.3
	C90.9,59.3,90.9,59.3,90.9,59.3z M90.8,64.8C90.8,64.8,90.8,64.8,90.8,64.8C90.8,64.8,90.8,64.8,90.8,64.8
	C90.8,64.8,90.8,64.8,90.8,64.8C90.8,64.8,90.8,64.8,90.8,64.8z M90.8,59.3C90.8,59.3,90.8,59.3,90.8,59.3
	C90.8,59.3,90.8,59.3,90.8,59.3C90.8,59.3,90.8,59.3,90.8,59.3C90.8,59.3,90.8,59.3,90.8,59.3z M90,61.8C90,61.8,90,61.8,90,61.8
	C90,61.8,90,61.8,90,61.8C90,61.8,90,61.8,90,61.8C90,61.8,90,61.8,90,61.8z M89.6,71.3C89.6,71.3,89.6,71.3,89.6,71.3
	C89.6,71.3,89.6,71.3,89.6,71.3C89.6,71.3,89.6,71.3,89.6,71.3C89.6,71.3,89.6,71.3,89.6,71.3z M89.2,61.8
	C89.2,61.8,89.2,61.8,89.2,61.8C89.2,61.8,89.2,61.8,89.2,61.8C89.2,61.8,89.2,61.8,89.2,61.8C89.2,61.8,89.2,61.8,89.2,61.8z
	 M87.9,56.3L87.9,56.3C87.9,56.3,87.9,56.3,87.9,56.3C87.9,56.3,87.9,56.3,87.9,56.3z M86.5,73.7C86.5,73.7,86.5,73.7,86.5,73.7
	C86.5,73.7,86.5,73.7,86.5,73.7C86.5,73.7,86.5,73.7,86.5,73.7C86.5,73.7,86.5,73.7,86.5,73.7z M86.1,69.5
	C86.1,69.5,86.1,69.5,86.1,69.5C86.1,69.5,86.1,69.5,86.1,69.5C86.1,69.5,86.1,69.5,86.1,69.5C86.1,69.5,86.1,69.5,86.1,69.5z
	 M85.6,69.5C85.6,69.5,85.6,69.5,85.6,69.5C85.6,69.5,85.6,69.5,85.6,69.5C85.6,69.5,85.6,69.5,85.6,69.5
	C85.6,69.5,85.6,69.5,85.6,69.5z M84.5,69.8C84.5,69.8,84.5,69.8,84.5,69.8C84.5,69.8,84.5,69.8,84.5,69.8
	C84.5,69.8,84.5,69.8,84.5,69.8C84.5,69.8,84.5,69.8,84.5,69.8z M83.7,58.4C83.7,58.4,83.7,58.4,83.7,58.4
	C83.7,58.4,83.7,58.4,83.7,58.4C83.7,58.4,83.7,58.4,83.7,58.4C83.7,58.4,83.7,58.4,83.7,58.4z M83.6,78.7
	C83.6,78.7,83.6,78.7,83.6,78.7C83.6,78.7,83.6,78.7,83.6,78.7C83.6,78.7,83.6,78.7,83.6,78.7C83.6,78.7,83.6,78.7,83.6,78.7z
	 M82.7,73.3C82.7,73.3,82.7,73.3,82.7,73.3C82.7,73.3,82.7,73.3,82.7,73.3C82.7,73.3,82.7,73.3,82.7,73.3
	C82.7,73.3,82.7,73.3,82.7,73.3z M82.3,73.3L82.3,73.3C82.3,73.3,82.3,73.3,82.3,73.3C82.3,73.3,82.3,73.3,82.3,73.3
	C82.3,73.3,82.3,73.3,82.3,73.3z M82,78C82,78,82,78,82,78C82,78,82,78,82,78C82,78,82,78,82,78C82,78,82,78,82,78z M81.8,38.3
	C81.8,38.3,81.8,38.3,81.8,38.3C81.8,38.3,81.8,38.3,81.8,38.3C81.8,38.3,81.8,38.3,81.8,38.3C81.8,38.3,81.8,38.3,81.8,38.3z
	 M81.7,30.2C81.7,30.2,81.7,30.2,81.7,30.2C81.7,30.2,81.7,30.2,81.7,30.2C81.7,30.2,81.7,30.2,81.7,30.2
	C81.7,30.2,81.7,30.2,81.7,30.2z M81.5,78L81.5,78C81.5,78,81.5,78,81.5,78C81.5,78,81.5,78,81.5,78z M80.7,38.6
	C80.7,38.6,80.7,38.6,80.7,38.6C80.7,38.6,80.7,38.6,80.7,38.6C80.7,38.6,80.7,38.6,80.7,38.6C80.7,38.6,80.7,38.6,80.7,38.6z
	 M80.4,38.6C80.4,38.6,80.4,38.6,80.4,38.6C80.4,38.6,80.4,38.6,80.4,38.6C80.4,38.6,80.4,38.6,80.4,38.6
	C80.4,38.6,80.4,38.6,80.4,38.6z M79.8,30.1C79.8,30.1,79.8,30.1,79.8,30.1C79.8,30.1,79.8,30.1,79.8,30.1
	C79.8,30.1,79.8,30.1,79.8,30.1C79.8,30.1,79.8,30.1,79.8,30.1z M79.2,47C79.2,47,79.2,47,79.2,47C79.2,47,79.2,47,79.2,47
	C79.2,47,79.2,47,79.2,47C79.2,47,79.2,47,79.2,47z M79,28C79,28,79,28,79,28C79,28,79,28,79,28C79,28,79,28,79,28
	C79,28,79,28,79,28z M78.5,47L78.5,47C78.5,47,78.5,47,78.5,47L78.5,47C78.5,47,78.5,47,78.5,47z M78.4,39C78.4,39,78.4,39,78.4,39
	C78.4,39,78.4,39,78.4,39C78.4,39,78.4,39,78.4,39C78.4,39,78.4,39,78.4,39z M78.1,120.2C78.1,120.2,78.1,120.2,78.1,120.2
	C78.1,120.2,78.1,120.2,78.1,120.2C78.1,120.2,78.1,120.2,78.1,120.2C78.1,120.2,78.1,120.2,78.1,120.2z M78,75.9
	C78,75.9,78,75.9,78,75.9C78,75.9,78,75.9,78,75.9C78,75.9,78,75.9,78,75.9C78,75.9,78,75.9,78,75.9z M78,28C78,28,78,28,78,28
	C78,28,78,28,78,28C78,28,78,28,78,28L78,28z M78,76.8C78,76.8,78,76.8,78,76.8C78,76.8,78,76.8,78,76.8C78,76.8,78,76.8,78,76.8
	C78,76.8,78,76.8,78,76.8z M77.5,47.1C77.5,47.1,77.5,47.1,77.5,47.1C77.5,47.1,77.5,47.1,77.5,47.1C77.5,47.1,77.5,47.1,77.5,47.1
	C77.5,47.1,77.5,47.1,77.5,47.1z M75.8,44.9C75.8,44.9,75.8,44.9,75.8,44.9C75.8,44.9,75.8,44.9,75.8,44.9
	C75.8,44.9,75.8,44.9,75.8,44.9C75.8,44.9,75.8,44.9,75.8,44.9z M74.9,34.8C74.9,34.8,74.9,34.8,74.9,34.8
	C74.9,34.8,74.9,34.8,74.9,34.8C74.9,34.8,74.9,34.8,74.9,34.8C74.9,34.8,74.9,34.8,74.9,34.8z M74.3,112.6
	C74.3,112.6,74.3,112.6,74.3,112.6L74.3,112.6C74.3,112.6,74.3,112.6,74.3,112.6z M73.4,58.4C73.4,58.4,73.4,58.4,73.4,58.4
	C73.4,58.4,73.4,58.4,73.4,58.4C73.4,58.4,73.4,58.4,73.4,58.4C73.4,58.4,73.4,58.4,73.4,58.4z M68.9,121
	C68.9,121,68.9,121,68.9,121C68.9,121,68.9,121,68.9,121C68.9,121,68.9,121,68.9,121C68.9,121,68.9,121,68.9,121z M73.1,57.1
	C73.1,57.1,73.1,57.1,73.1,57.1C73.1,57.1,73.1,57.1,73.1,57.1C73.1,57.1,73.1,57.1,73.1,57.1C73.1,57.1,73.1,57.1,73.1,57.1z
	 M73,51.3C73,51.3,73,51.3,73,51.3C73,51.3,73,51.3,73,51.3C73,51.3,73,51.3,73,51.3C73,51.3,73,51.3,73,51.3z M72.9,53
	C72.9,53,72.9,53,72.9,53C72.9,53,72.9,53,72.9,53L72.9,53C72.9,53,72.9,53,72.9,53z M72.7,45C72.7,45,72.7,45,72.7,45
	C72.7,45,72.7,45,72.7,45C72.7,45,72.7,45,72.7,45L72.7,45z M72.4,112.3C72.4,112.3,72.4,112.3,72.4,112.3c0,0-0.1,0-0.1,0
	C72.3,112.2,72.4,112.2,72.4,112.3z M71.8,79.2c0.1,0,0.1,0,0.2,0c0,0,0,0,0,0C71.9,79.2,71.9,79.2,71.8,79.2c0,0-0.1,0-0.1,0h0
	L71.8,79.2z M69.8,63.5C69.8,63.5,69.8,63.5,69.8,63.5C69.8,63.5,69.8,63.5,69.8,63.5C69.8,63.5,69.8,63.5,69.8,63.5
	C69.8,63.5,69.8,63.5,69.8,63.5z M67.6,51C67.6,51,67.6,51,67.6,51C67.6,51,67.6,51,67.6,51C67.6,51,67.6,51,67.6,51
	C67.6,51,67.6,51,67.6,51z M67.5,53C67.5,53,67.5,53,67.5,53C67.5,53,67.5,53,67.5,53C67.5,53,67.5,53,67.5,53
	C67.5,53,67.5,53,67.5,53z M65.6,51.3C65.6,51.3,65.6,51.3,65.6,51.3C65.6,51.3,65.6,51.3,65.6,51.3C65.6,51.3,65.6,51.3,65.6,51.3
	C65.6,51.3,65.6,51.3,65.6,51.3z M65.4,51.3C65.4,51.3,65.4,51.3,65.4,51.3C65.4,51.3,65.4,51.3,65.4,51.3
	C65.4,51.3,65.4,51.3,65.4,51.3C65.4,51.3,65.4,51.3,65.4,51.3z M62.3,59.8C62.3,59.8,62.3,59.8,62.3,59.8
	C62.3,59.8,62.3,59.8,62.3,59.8C62.3,59.8,62.3,59.8,62.3,59.8C62.3,59.8,62.3,59.8,62.3,59.8z M60.7,54.4
	C60.7,54.4,60.7,54.4,60.7,54.4C60.7,54.4,60.7,54.4,60.7,54.4C60.7,54.4,60.7,54.4,60.7,54.4C60.7,54.4,60.7,54.4,60.7,54.4z
	 M59.7,57.2C59.7,57.2,59.7,57.2,59.7,57.2C59.7,57.2,59.7,57.2,59.7,57.2C59.7,57.2,59.7,57.2,59.7,57.2
	C59.7,57.2,59.7,57.2,59.7,57.2z M58.8,52.2C58.8,52.2,58.8,52.2,58.8,52.2C58.8,52.2,58.8,52.2,58.8,52.2
	C58.8,52.2,58.8,52.2,58.8,52.2C58.8,52.2,58.8,52.2,58.8,52.2z M57.6,60.3C57.6,60.3,57.6,60.3,57.6,60.3
	C57.6,60.3,57.6,60.3,57.6,60.3C57.6,60.3,57.6,60.3,57.6,60.3C57.6,60.3,57.6,60.3,57.6,60.3z M56.7,54.7
	C56.7,54.7,56.7,54.7,56.7,54.7C56.7,54.7,56.7,54.7,56.7,54.7C56.7,54.7,56.7,54.7,56.7,54.7C56.7,54.7,56.7,54.7,56.7,54.7z
	 M56.4,75L56.4,75C56.4,75,56.4,75,56.4,75C56.4,75,56.4,75,56.4,75z M56.3,70.3C56.3,70.3,56.3,70.3,56.3,70.3
	C56.3,70.3,56.3,70.3,56.3,70.3C56.3,70.3,56.3,70.3,56.3,70.3C56.3,70.3,56.3,70.3,56.3,70.3z M55.8,70.3
	C55.8,70.3,55.8,70.3,55.8,70.3C55.8,70.3,55.8,70.3,55.8,70.3C55.8,70.3,55.8,70.3,55.8,70.3C55.8,70.3,55.8,70.3,55.8,70.3z
	 M54.8,46.6C54.8,46.6,54.8,46.6,54.8,46.6L54.8,46.6C54.8,46.6,54.8,46.6,54.8,46.6L54.8,46.6z M53.5,46.6
	C53.5,46.6,53.5,46.6,53.5,46.6C53.5,46.6,53.5,46.6,53.5,46.6C53.5,46.6,53.5,46.6,53.5,46.6C53.5,46.6,53.5,46.6,53.5,46.6z
	 M53.4,74.6C53.4,74.6,53.4,74.6,53.4,74.6C53.4,74.6,53.4,74.6,53.4,74.6C53.4,74.6,53.3,74.6,53.4,74.6
	C53.3,74.6,53.4,74.6,53.4,74.6z M52.8,74.6C52.9,74.6,52.9,74.6,52.8,74.6C52.9,74.6,52.9,74.6,52.8,74.6
	C52.8,74.6,52.8,74.6,52.8,74.6C52.8,74.6,52.8,74.6,52.8,74.6z M51.9,43.3C51.9,43.3,51.9,43.3,51.9,43.3
	C51.9,43.3,51.9,43.3,51.9,43.3C51.9,43.3,51.9,43.3,51.9,43.3C51.9,43.3,51.9,43.3,51.9,43.3z M51.8,70.6
	C51.8,70.6,51.8,70.6,51.8,70.6L51.8,70.6C51.8,70.6,51.8,70.6,51.8,70.6z M47.8,40.7C47.8,40.7,47.8,40.7,47.8,40.7
	C47.8,40.7,47.8,40.7,47.8,40.7C47.8,40.7,47.8,40.7,47.8,40.7C47.8,40.7,47.8,40.7,47.8,40.7z M46.6,33C46.6,33,46.6,33,46.6,33
	C46.6,33,46.6,33,46.6,33C46.6,33,46.6,33,46.6,33C46.6,33,46.6,33,46.6,33z M45.1,75C45.1,75,45.1,75,45.1,75
	C45.1,75,45.1,75,45.1,75C45.1,75,45.1,75,45.1,75C45.1,75,45.1,75,45.1,75z M44.4,72.7C44.4,72.7,44.4,72.7,44.4,72.7
	C44.4,72.7,44.4,72.7,44.4,72.7C44.4,72.7,44.4,72.7,44.4,72.7C44.4,72.7,44.4,72.7,44.4,72.7z M41.7,35.3
	C41.7,35.3,41.7,35.3,41.7,35.3C41.7,35.3,41.7,35.3,41.7,35.3C41.7,35.3,41.7,35.3,41.7,35.3C41.7,35.3,41.7,35.3,41.7,35.3z
	 M40.8,35.3C40.8,35.3,40.8,35.3,40.8,35.3C40.8,35.3,40.8,35.3,40.8,35.3C40.8,35.3,40.8,35.3,40.8,35.3
	C40.8,35.3,40.8,35.3,40.8,35.3z M31,76.7C31,76.7,31,76.7,31,76.7C31,76.7,31,76.7,31,76.7C31,76.7,31,76.7,31,76.7
	C31,76.7,31,76.7,31,76.7z M30.7,76.7C30.7,76.7,30.7,76.7,30.7,76.7C30.7,76.7,30.7,76.7,30.7,76.7C30.7,76.7,30.7,76.7,30.7,76.7
	C30.7,76.7,30.7,76.7,30.7,76.7z M29.9,68.7C29.9,68.7,29.9,68.7,29.9,68.7C29.9,68.7,29.9,68.7,29.9,68.7
	C29.9,68.7,29.9,68.7,29.9,68.7C29.9,68.7,29.9,68.7,29.9,68.7z M28.4,77.1C28.4,77.1,28.4,77.1,28.4,77.1
	C28.4,77.1,28.4,77.1,28.4,77.1C28.4,77.1,28.4,77.1,28.4,77.1C28.4,77.1,28.4,77.1,28.4,77.1z M28.3,66.2
	C28.3,66.2,28.3,66.2,28.3,66.2C28.3,66.2,28.3,66.2,28.3,66.2C28.3,66.2,28.3,66.2,28.3,66.2C28.3,66.2,28.3,66.2,28.3,66.2z
	 M21.9,60.6C21.9,60.6,21.9,60.6,21.9,60.6C21.9,60.6,21.9,60.6,21.9,60.6C21.9,60.6,21.9,60.6,21.9,60.6
	C21.9,60.6,21.9,60.6,21.9,60.6z M21.7,54.3C21.7,54.3,21.7,54.3,21.7,54.3C21.7,54.3,21.7,54.3,21.7,54.3
	C21.7,54.3,21.7,54.3,21.7,54.3C21.7,54.3,21.7,54.3,21.7,54.3z M21,54.4C21,54.4,21,54.4,21,54.4C21,54.4,21,54.4,21,54.4
	C21,54.4,21,54.4,21,54.4C21,54.4,21,54.4,21,54.4z M20.8,38.1C20.8,38.1,20.8,38.1,20.8,38.1C20.8,38.1,20.8,38.1,20.8,38.1
	C20.8,38.1,20.8,38.1,20.8,38.1C20.8,38.1,20.8,38.1,20.8,38.1z M20.1,55.4C20.1,55.4,20.1,55.4,20.1,55.4
	C20.1,55.4,20.1,55.4,20.1,55.4C20.1,55.4,20.1,55.4,20.1,55.4C20.1,55.4,20.1,55.4,20.1,55.4z M17.8,35.6
	C17.8,35.6,17.8,35.6,17.8,35.6C17.8,35.6,17.8,35.6,17.8,35.6C17.8,35.6,17.8,35.6,17.8,35.6C17.8,35.6,17.8,35.6,17.8,35.6z
	 M17.1,35.6C17.1,35.6,17.1,35.6,17.1,35.6C17.1,35.6,17.1,35.6,17.1,35.6C17.1,35.6,17.1,35.6,17.1,35.6
	C17.1,35.6,17.1,35.6,17.1,35.6z M16.3,55.9L16.3,55.9c-0.1,0-0.1,0-0.2,0C16.2,55.9,16.3,55.9,16.3,55.9z M13.6,61
	C13.6,61,13.6,61,13.6,61C13.6,61,13.6,61,13.6,61C13.6,61,13.6,61,13.6,61C13.6,61,13.6,61,13.6,61z M12.4,49.5
	C12.4,49.5,12.4,49.5,12.4,49.5C12.4,49.5,12.4,49.5,12.4,49.5C12.4,49.5,12.4,49.5,12.4,49.5C12.4,49.5,12.4,49.5,12.4,49.5z
	 M10.2,42.8C10.2,42.8,10.2,42.8,10.2,42.8C10.2,42.8,10.2,42.8,10.2,42.8C10.2,42.8,10.2,42.8,10.2,42.8
	C10.2,42.8,10.2,42.8,10.2,42.8z M9.4,60.1C9.4,60.1,9.4,60.1,9.4,60.1C9.4,60.1,9.4,60.1,9.4,60.1C9.4,60.1,9.4,60.1,9.4,60.1
	C9.4,60.1,9.4,60.1,9.4,60.1z M5.6,60.2C5.6,60.2,5.6,60.2,5.6,60.2C5.6,60.2,5.6,60.2,5.6,60.2C5.6,60.2,5.6,60.2,5.6,60.2
	C5.6,60.2,5.6,60.2,5.6,60.2z"/>
</svg>
