<?xml version="1.0" encoding="utf-8"?>
<!-- Generator: Adobe Illustrator 24.1.3, SVG Export Plug-In . SVG Version: 6.00 Build 0)  -->
<svg version="1.1" id="Layer_1" xmlns="http://www.w3.org/2000/svg" xmlns:xlink="http://www.w3.org/1999/xlink" x="0px" y="0px"
	 viewBox="0 0 100 150" style="enable-background:new 0 0 100 150;" xml:space="preserve">
<path d="M36.8,92.7c-0.8-1.7-1.6-3.3-2.4-4.9c-0.8,0.5-1.7,0.5-2.5-0.1c-0.7-0.5-0.7-1,0.1-1.4c1-0.5,1.9-0.9,2.9-1.5
	c-0.9,0-1.8,0-2.7,0c-0.6,0-1.2,0.1-1.7,0c-0.7,0-1.2-0.5-1.1-1.1c0-0.5,0.5-0.9,1.2-0.9c0.4,0,0.8,0,1.2-0.1c0-0.2,0-0.4,0-0.6
	c0-0.6,0.3-0.8,0.8-0.6c0.6,0.1,1.3,0.3,1.9,0.5c0-1.2-1.9-3.9-3.4-4.2c-0.6,1.1-0.6,1-1.9,0.6c-0.7-0.3-1.6-0.4-2.3-0.6
	c-0.2,0-0.4,0-0.6,0c-1.5-0.3-2.8,0.2-4.3,0.6c-1.6,0.5-3.3,0.6-4.9,0.7c-1,0.1-1.6-0.8-1.5-1.7c0-0.2,0-0.5,0.1-0.7
	c0.4-1.1-0.3-1.8-0.9-2.5c-0.9-1.1-0.5-2.8,0.9-3.2c0.1,0,0.2-0.1,0.2-0.1c0.1-0.7,0.3-1.4,0.3-2.1c0.1-1,0-2,0-3
	c0-0.8-0.1-1.5-0.1-2.3c-0.1-1.3,0.2-2.4,0.8-3.5c0.3-0.6,0.8-1,1.4-1c0.7-0.1,1-0.7,1.4-1.1c0.1,0,0.1-0.2,0-0.4
	c-0.1-0.8-0.3-1.5-0.4-2.3c-0.1-0.5,0-1,0.1-1.4c0.1-0.5,0.2-1,0.5-1.5c0.2-0.4,0.5-0.9,0.8-1.1c2.1-1.3,4.7-0.3,5.2,2.1
	c0.3,1.2,0.4,2.4,0.6,3.6c0.1,0.7,0.2,1.4,1.1,1.7c0.9,0.3,1.1,1.3,1.2,2.1c0.1,1.3,0,2.7-0.1,4.1c0,0.5,0,1-0.1,1.5
	c0,0.4,0.2,0.5,0.6,0.4c0.4-0.1,0.8-0.2,1.2-0.3c0.5-0.1,0.9,0,1.1,0.5c0.2,0.4,0.7,0.8,0.7,1.3c0.1,1.1-0.3,2.1-1,3.1
	c-0.6,1-1.2,2.1-1.7,3.1c-0.3,0.5-0.1,0.7,0.4,0.8c0.4,0.1,0.7,0.1,1.1,0.1c0.4,0,0.5,0.2,0.4,0.6c-0.1,0.5-0.2,1-0.3,1.5
	c0.7,0,1.4,0.1,2.2,0.1c0-0.7,0-1.4,0-2.3c0.4,0.4,0.7,0.8,1,1.1c0,0,0.1-0.1,0.1-0.1c-0.2-0.8-0.4-1.6-0.5-2.4
	c-0.1-0.8-0.1-1.6,0.4-2.5c0.2,1.2,0.4,2.3,1.6,3c1.7-1.6,1-3.3,0.2-5.1c1,0,1.4,0.6,1.7,1.4c0.3-1.5,0-3.2,1.4-4.3
	c-0.1,0.8-0.3,1.5-0.3,2.3c-0.1,0.7,0.1,1.4,0.7,1.9c0.3,0.3,0.6,0.3,0.8-0.1c0.4-0.7,0.7-1.3,1.1-2c0.3,0.7,0.1,1.4-0.1,2.2
	c-0.2,1-0.5,1.9-0.7,2.8c-0.1,0.2,0,0.5,0.1,0.7c0.2-0.1,0.5-0.1,0.7-0.2c0.8-0.6,1-1.5,0.9-2.4c0-0.3-0.1-0.6-0.1-0.9
	c1.1,1.4,1.2,3,0.8,4.5c0.6,0,1.2,0.1,1.8,0.1c0,0,0,0.1,0,0.1c-0.2,0.1-0.4,0.2-0.5,0.3c0,0.1,0.1,0.1,0.1,0.2
	c0.9-0.4,1.8-0.8,2.7-1.3c0.1,0,0.2-0.3,0.2-0.4c-0.1-1-0.2-1.9-0.3-2.9c-0.2-1.9,1-4.1,2.8-4.9c1.2-0.5,2.3-0.1,3.3,0.5
	c1.4,0.9,2,1.6,1.5,3.9c0.2,0,0.4,0,0.4,0c0.1-0.4,0.1-0.7,0.2-1c0.3-1.2,0.7-2.3,1-3.5c0.4-1.7,0.7-3.3,1-5c0.1-0.5,0.3-1,0.5-1.6
	c-1.2,0.2-2.4,0.4-3.5,0.6c-0.2,0.1-0.4,0.5-0.5,0.7c-0.2,1.1-1.1,1.8-1.5,2.8c-0.5-0.6-0.2-1.1,0.1-1.6c-0.5,0-0.8,0.4-0.7,0.9
	c0.1,0.3,0.3,0.6-0.3,0.7c-0.1,0-0.2,0.3-0.3,0.6c-0.5-0.7-0.8-1.3-0.6-2c0.2-0.6,0.5-1.3,1-1.8c0.8-0.9,1.5-1.7,2.7-2.1
	c1.3-0.5,2.4-1.5,3.8-1.7c1.1-0.2,2.2-0.2,3.5-0.4c-0.1-0.3-0.3-0.5-0.4-0.8C61.1,56,61,55.8,61,55.7c0.5-1.1,0.3-2.3,0.8-3.4
	c0.4-0.8,1-1.3,1.8-1.3c0.8,0,1.7,0,2.5,0.1c1.6,0.3,2.5,1.8,2.3,3.4c-0.1,0.5-0.3,1-0.4,1.5c0,0.2,0,0.6,0.2,0.7
	c3.3,2.7,4.5,6.2,4.1,10.3c-0.1,1.5-0.5,2.9-0.8,4.4c0,0.1-0.1,0.3,0,0.4c0.1,0.9,0.3,1.8,0.6,2.8c0.1-0.8,0.1-1.7,0.3-2.5
	c0.1-0.6,0.2-1.2,0.3-1.8c0.2-0.7,0.6-1.3,1.3-1.6c-0.2-0.6-0.2-1.3-0.8-1.7c-0.1-0.1-0.1-0.5,0.1-0.7c0.4-0.5,0.4-1,0.5-1.5
	c0.2-2.5,3.1-4.2,5.5-3.2c1.3,0.5,1.9,1.4,2,2.7c0.1,1.1,0.1,2.2,0.2,3.4c-0.3,0.1-0.6,0.1-0.8,0.2c0,0.1-0.1,0.1-0.1,0.2
	c0.3,0.2,0.5,0.5,0.8,0.6c0.7,0.3,1.4,0.5,2.1,0.7c1.6,0.6,2.5,1.8,2.7,3.5c0.1,1,0.2,2,0.4,3c0.1,0.4,0.2,0.9,0.5,1.2
	c1,0.9,2.1,1.8,3.3,2.6c1.9,1.3,2.7,3.1,2.1,5.3c-0.2,0.7-0.8,1.3-1.3,1.9c-0.3,0.4-0.4,0.6-0.1,1c0.4,0.5,0.5,1,0,1.6
	c0,0,0.1,0.1,0.1,0.1c0.3-0.1,0.6-0.1,0.8-0.3c1-0.7,2-0.7,3-0.1c0.7,0.4,1.4,0.6,2.2,0.7c1.3,0.2,2.4,0.6,2.9,1.8
	c0.1,0.3,0.1,0.7,0,1c0,0.1-0.6,0.1-0.9,0.1c-0.9-0.1-1.7-0.4-2.6-0.5c-1-0.1-1.9-0.2-2.9-0.2c-1.5,0-2.9,0.2-4.4,0.3
	c-0.6,0-1.1,0.3-1.7,0.3c-0.8,0-1.6,0-2.4-0.1c-0.7,0-1.4-0.2-2.1-0.2c-2,0-3.1-1-3.2-3c0-1.4,0.1-2.8,0.8-4.1c0-0.1,0.1-0.3,0-0.3
	c-0.7-1.3-1.5-2.7-2.2-4c-0.2,0.1,0.1,1-0.6,0.5c0,0.2,0,0.3-0.1,0.6c-0.2,0-0.3,0-0.5,0c-0.9,0.1-1.1,0-1.3-0.9
	C76,80.6,75.9,80,76,79.4c0.1-0.4,0.5-0.8,0.8-1.2c-0.5-0.7-1-1-2.7-1.1c-0.1,0.5-0.1,1.1-0.2,1.7c-0.2,0.8-0.3,1.6-0.5,2.3
	c-0.3,1-0.7,2-1.1,3c-0.4,1.1-0.9,2.3-1.4,3.4c-0.2,0.5-0.3,0.9,0,1.3c0.1,0.1,0,0.4,0,0.5c-0.2-0.1-0.4-0.1-0.5-0.3
	c-0.1-0.1-0.2-0.3-0.3-0.5c-0.4,0.3-0.7,0.6-1.2,0.9c1.2,2.2,2.3,4.5,3.5,6.7c0.2,0.4,0.5,0.8,0.7,1.3c0.2,0.6,0.3,1.2,0.5,1.9
	c0.6,0.6,1.4,1.2,2.2,2c0.6,0.6,1.2,0.8,2,0.8c1.1,0,1.4,0.2,1.4,1c0,0.9-0.6,1.8-1.5,1.9c-0.6,0-1.1,0-1.7-0.2
	c-1.7-0.4-3.4-0.7-5.1-1.1c-1.1-0.2-1.2-0.5-0.8-1.5c-0.7-0.3-1.1-1-1.5-1.6c-1.2-2.2-2.4-4.4-3.5-6.6c0-0.1-0.1-0.1-0.1-0.2
	c-1.3,0.9-2.7,1.8-4,2.7c-0.3,0.2-0.1,1,0.3,1.2c1.4,0.8,2.8,1.8,4.5,1.9c0.5,0,1,0.1,1.1,0.6c0.1,0.5-0.1,1-0.2,1.5
	c0,0.1-0.3,0.2-0.5,0.2c-1.8-0.1-3.5-0.1-5.3-0.2c-1,0-1.2-0.2-1.4-1.2c0-0.2-0.1-0.3-0.3-0.4c-0.4-0.3-0.8-0.5-1.2-0.8
	c0.1-0.1,0.1-0.3,0.2-0.4c-0.3,0.3-0.6,0.5-0.8,0.8c-0.7,1.3-1.9,1.7-3.2,2.1c-4,1.1-7.7,0.3-11.2-2c-0.4-0.3-0.8-0.8-1.2-1.2
	c-0.1-0.1-0.3-0.4-0.2-0.6c0.2-0.7-0.3-1.2-0.4-1.8c-0.2-0.9-0.2-1.9-0.2-2.9c0.1-1.4,0.2-2.8,0.3-4.2c0-0.5-0.2-0.9-0.6-1.2
	c-0.4-0.2-0.7-0.5-1-0.8c-1,1.4-1.2,2.7-0.4,4.2c0.8,1.3,1.1,2.8,1,4.3c0,0.5,0.2,1,0.3,1.7c-0.4-0.2-0.8-0.3-1.2-0.5
	c-0.1,0.1-0.2,0.4-0.4,0.6c-0.2-0.2-0.4-0.4-0.6-0.6c0,0,0,0.1,0,0.1c-0.3-0.1-0.8-0.1-0.9-0.3c-0.3-0.7-1.4-0.8-1.5-1.8
	C36.1,93.9,36.4,93.2,36.8,92.7z M69.8,74.4c-0.1,0.4-0.2,0.8-0.4,1.1c-0.3,0.8-0.6,1-1.4,0.9c-0.4,0-0.8,0-1.3,0c-2.7,0-5.4,0-8,0
	c-1.5,0-3,0-4.5,0c0.4,0.2,0.8,0.3,1.3,0.3c2.4,0.3,3.8,1.6,4.2,3.9c0.1,0.3,0.1,0.6,0.3,0.9c0.8,1.7,1.2,3.4,1.5,5.2
	c0.1,0.6,0.3,1.1,0.4,1.6c1.7-0.4,3.1-1.3,4.1-2.5c0.3-0.4,0.8-0.6,1.2-0.3c0.4,0.2,0.8,0.6,1.2,1c0.3,0.3,0.4,0.7,0.6,1
	c0.1,0,0.1,0,0.2,0c0.1-0.3,0.3-0.6,0.4-0.9c0.6-2.9,1.3-5.8,1.9-8.7c0.1-0.3,0.1-0.6,0.2-0.9C70.2,76.8,70.3,75.4,69.8,74.4z
	 M58.8,90.7c-0.9-1.6-1.7-3.2-2.6-4.8c-0.3,1.4-0.6,2.6-0.9,3.9c0,0.1,0,0.3,0.1,0.3c0.4,0.5,0.9,1.1,1.3,1.6
	C57.5,91.4,58.1,91,58.8,90.7z M60.2,70.8c0.3-0.2,0.7-0.3,1-0.6c0.2-0.2,0.5-0.6,0.4-0.9c-0.2-0.7-0.5-1.3-0.8-2
	C60.6,68.5,60.4,69.6,60.2,70.8z M18.5,66.6c-0.4,1.5-0.6,3-0.3,4.6C18.6,69.7,18.8,68.2,18.5,66.6z M26.7,66.4
	c0,1.4-0.4,2.7,0.2,4.1c0.3-0.3,0.4-0.5,0.6-0.7c-0.1,0-0.1,0-0.2,0C27.1,68.8,27,67.7,26.7,66.4z M75,75.3
	c-0.2,0.4-0.3,0.6-0.4,0.9c0.4,0,0.7,0.1,1.1,0.1C75.5,76,75.3,75.7,75,75.3z M9.1,77c-0.2-0.1-0.3-0.2-0.5-0.3c0,0.4,0,0.7-0.1,1.1
	c-0.1-0.2-0.2-0.2-0.3-0.4c0.3,2.5,0.6,4.9,0.9,7.4c0.6-0.3,1.3-0.6,1.9-0.8c1.1-0.5,2.2-0.9,3.3-1.4c0.6-0.3,1.2-0.2,1.8,0.2
	c0.4,0.2,0.8,0.4,1.1,0.7c2.1,1.9,4.6,3.1,7,4.7c2.1,1.4,4.4,1.9,6.8,2.1c0.3,0,0.5,0.1,0.7,0.1c0.6,0.2,0.8,0.7,0.4,1.3
	c-1.1,1.5-3.6,2.3-5.3,1.6c-0.5-0.2-0.9-0.4-1.4-0.5c-0.5-0.1-0.7-0.5-0.6-0.9c0.1-0.7-0.2-1-0.8-1.2c-0.8-0.3-1.6-0.5-2.4-0.7
	c-1.1-0.3-2.2-0.5-3.3-0.8c0.4,0.4,0.6,0.9,0.4,1.5c-0.3,0.8-0.7,1.4-1.6,1.6c-1.6,0.4-3.2,0.8-4.8,1.1c-1.5,0.3-2.9,0.7-4.4,1
	c-0.2,0-0.3,0.1-0.5,0.2c-1,0.7-2.8,0.6-3.7-0.4c-0.1-0.1-0.2-0.2-0.2-0.3c0-0.7-0.6-0.9-1.1-1.2c-1.6-1-2.5-2.4-2.4-4.3
	c0.2-3.4,0.1-6.8,1-10.1c0.1-0.2-0.1-0.5,0-0.8c0.2-0.7,0.4-1.5,0.8-2.1c0.8-1.4,1.7-2.7,2.5-4.1c0.2-0.3,0.3-0.6,0.3-0.9
	c0.3-1,0.7-1.9,1.3-2.7c1.1-1.3,4.2-0.7,4.7,0.5c0.2,0.6,0.3,1.2,0.5,1.8c0.1,0.4,0.3,0.7,0.4,1.1c0.1,0.2,0.1,0.5,0.1,0.7
	c-0.1,0.4-0.2,0.7-0.3,1.1c-0.1,0.4-0.2,0.7-0.3,1.1c-0.1,0.2-0.4,0.4-0.6,0.4c-0.8,0-1.2,0.3-1.3,1.1C9.1,76.2,9.1,76.5,9.1,77z
	 M12.8,88C12.8,88,12.8,88,12.8,88c1.1,0,2.2-0.2,3.4-0.3c-0.4-0.4-0.7-0.8-1-1.1C14.3,87,13.5,87.5,12.8,88z M64.2,35.6
	c-0.9-1.1-1.8-2.2-2.7-3.4c-0.3-0.4-0.4-0.9-0.5-1.4c-0.3-1.3-0.6-2.6-0.9-3.9c-0.1-0.3-0.6-0.6-0.9-0.9c-0.3-0.3-0.7-0.5-0.9-0.8
	c-0.4-0.9-0.8-1.8-1.1-2.7c-0.3-1-0.4-2-0.6-3.1c-0.2,0-0.4,0-0.6,0c-0.6,2.1-0.1,4.1,0.5,6c-0.5-0.7-1-1.4-1.3-2.2
	C55,22.8,55,22.2,55,21.6c-0.1-1.2-0.2-2.3-0.4-3.5c0-0.2-0.2-0.4-0.3-0.5c-1.5-1.3-2.8-2.9-3.8-4.6c0-0.1-0.1-0.1-0.2-0.1
	c-1.2,2.5-2.1,5-2.2,7.8c-0.1,1.9-0.7,3.8-1.1,5.7c-0.1,0-0.2,0-0.2,0c0-0.4,0.1-0.8,0.1-1.2c0-0.8,0-1.5-0.2-2.2
	c-0.1-0.3-0.6-0.6-1-0.7c-0.2,0-0.5,0.4-0.6,0.7c-0.7,1.4-1.3,2.9-2.2,4.2c-0.9,1.1-2.1,2-3.2,2.9c-0.6,0.5-1,1.1-1.2,1.8
	c-0.1,0.5-0.3,0.9-0.3,1.4c-0.2,1.2-0.8,2-1.8,2.8c-0.8,0.6-1.5,1.5-2.3,2.3c1.3-2.1,3.2-4,3-6.9c-1.1,0.3-2.2,0.7-3.4,1.1
	c-1,0.3-1.1,1.3-1.4,2.2c-0.4,1.1-0.9,2-1.9,2.6c-0.8,0.5-1.6,1.1-2.5,1.5c2-1.5,3.2-3.6,4.2-5.8c0.1-0.2,0.4-0.5,0.7-0.6
	c1.8-0.8,3.6-1.6,5.6-2.5c-0.6-0.4-0.9-0.7-1.3-0.9c-0.7-0.4-1.2-1-1.7-1.7c-0.5-0.7-1.3-1.3-2-1.8c-0.6-0.4-1-0.8-1-1.6
	c0-0.8-0.2-1.5-1.1-1.8c-0.3,0.9-0.2,1.7,0.3,2.6c0.8,1.5,1.8,2.9,1.2,4.9c-0.1-0.5-0.3-0.9-0.3-1.3c-0.1-1.5-0.7-2.7-1.5-3.8
	c-0.3-0.5-0.5-1.2-0.5-1.8c0.1-1.1-0.4-1.8-1-2.6c-0.3-0.4-0.6-0.8-1-1.2c-0.4,1.4-0.9,2.6-1.2,4c-0.3,1-0.3,2-0.7,2.9
	c-0.4,1-1,1.8-1.6,2.7c0.4-0.9,1-1.7,0.6-2.9c-0.2,0.3-0.4,0.6-0.6,0.8c-0.5,0.6-1.1,1.3-1.6,1.9c-0.3,0.4-0.5,0.9-0.8,1.3
	c-0.3,0.5-0.6,0.9-0.9,1.3c-0.1,0.2-0.2,0.4-0.4,0.6c-0.5,0.9-1,1.9-1.5,2.8c-0.1,0-0.2-0.1-0.3-0.1c0.2-0.4,0.4-0.8,0.7-1.2
	c1-1.3,0.4-2.9-1-3.5c-0.2-0.1-0.4-0.2-0.7-0.3c-0.9,1.6-1.8,3.2-2.7,4.8c-0.4,0.8-0.8,1.7-1.3,2.5c-0.2,0.3-0.5,0.5-0.8,0.6
	c-1.1,0.2-2,0.6-2.6,1.6c-0.5,0.8-1.2,1.4-2,2c-0.6,0.5-1.4,0.9-2.2,1.3c0.8-0.7,1.5-1.5,2.4-2.2c0.7-0.6,0.9-1.1,0.5-2
	C9,36.9,8.7,36,8.3,34.9c-0.8,0.8-1.5,1.6-2.2,2.4c-1.1,1.3-2.2,2.7-3.3,4c-0.7,0.7-1.6,1.2-2.4,1.8C0.2,43,0.1,42.9,0,42.8
	c1.7-2.1,3.4-4.2,5.1-6.2c0.6-0.8,1.4-1.4,2.1-2.2c0.5-0.5,1-0.6,1.6-0.4c0.5,0.2,1,0.3,1.5,0.5c0.6,0.3,1.2,0.1,1.6-0.3
	c1.2-1.4,2.3-2.8,3.5-4.3c0.3-0.3,0.5-0.7,0.7-1.1c0.4-0.9,1-1.5,2.1-1.5c0.3,0,0.7-0.4,0.9-0.8c0.7-1.3,1.4-2.6,2.1-4
	c0.3-0.7,0.8-1.1,1.5-1.4c0.9-0.4,1.7-1,2.3-1.8c0.8-1.2,1.7-2.3,2.6-3.5c1.9,1.5,4.2,2.1,5.4,4.4c0.7,1.3,2.1,2.1,3.7,2.9
	c1.2-1.5,2.4-3,3.7-4.5c1-1.1,2-2.2,3-3.4c1.9-2.2,3.5-4.6,5.7-6.6c0.2-0.2,0.5-0.4,0.7-0.6c1.7,0.9,2.5,2.5,3.4,4.1
	c0.9,1.6,1.8,3.1,3.4,4.1c0.2,0.1,0.4,0.3,0.6,0.3c1.1,0.2,1.8,1,2.1,2c0.3,1.4,1.3,2,2.5,2.5c0.3,0.1,0.6,0.3,0.9,0.5
	c1.2,0.5,2.1,1.2,2.6,2.5c0.6,1.4,1.9,1.9,3.4,2.2c2,0.4,3.3-0.2,4.3-1.9c0.5-0.8,1.3-1.4,2-2.1c0.7,1,1.4,1.7,1.8,2.6
	c0.8,1.7,2.2,2.4,3.8,2.9c0.6,0.2,1.3,0.4,1.9,0.7c0.4,0.2,0.8,0.5,1.2,0.9c0.3,0.4,0.6,0.8,0.9,1.2c0.5,0.8,1.2,1.2,2.1,1
	c0.1,0,0.3,0,0.4,0c0.8-0.1,1.4,0.1,1.8,1c0.7,1.4,1.5,2.8,2.3,4.1c0.3,0.5,0.8,0.9,1.2,1.2c1.2,1,2.3,2.1,3.6,3.1
	c1.3,1.1,2.7,2,4.1,3c-2.3-0.5-4.6-1.3-5.9-3.7c-0.4,0.8,0,1.4,0.3,1.9c0.3,0.6,0.6,1.2,0.9,1.7c-0.1,0.1-0.1,0.1-0.2,0.2
	c-0.9-0.7-1.9-1.4-2.8-2.1c-1.5-1.3-2.9-2.5-4.2-3.9c-0.8-0.8-1.6-1.7-2.1-2.7c-0.5-1-1.4-1.1-2.3-1.3c-0.5,1.4-0.8,2.8,0.2,4
	c1,1.3,2,2.6,3,4c0.4,0.5,0.7,1,1,1.6c-0.1,0.1-0.2,0.1-0.2,0.2c-0.7-0.9-1.3-1.9-2-2.8c-0.7-1-1.4-2.1-2.7-2.4
	c-0.1,0-0.2-0.1-0.3-0.2c-0.5-0.9-1-1.9-1.4-2.8C81,35.3,81,35.2,80.9,35c-0.5-0.8-0.9-1.7-1.4-2.5c-0.2-0.3-0.3-0.6-0.5-0.8
	c-0.2,0.2-0.5,0.4-0.8,0.6c-0.1-1.4-1-2.5-1.7-3.7c-0.7-1.2-1.2-2.4-1.7-3.6c-0.1-0.2-0.2-0.4-0.4-0.6c-0.9,1.1-2.1,1.9-2.3,3.4
	c-0.2,0.2-0.4,0.3-0.5,0.5c-0.1-0.4-0.1-0.7-0.2-1.2c-0.9,1-2.1,1.3-2.8,2.5c-0.4,0.7-0.8,1.3-1.3,1.9c-0.4,0.5-0.7,0.9-0.4,1.5
	c-0.2,0.2-0.5,0.4-0.7,0.7c-0.1-0.3-0.3-0.7-0.3-1c0.1-1.9-0.9-3.4-1.7-4.9c-0.5-0.9-1.1-1.8-1.7-2.7c-0.1,0-0.2,0-0.2,0.1
	c0,0.4,0,0.7,0,1.2c-0.2,0-0.4-0.1-0.7-0.1c0.4,1.4,0.7,2.8,1.1,4c0.6,1.7,1.3,3.4,1.9,5.2C64.5,35.4,64.4,35.5,64.2,35.6z
	 M49.3,9.6c-0.7,0.8-1.6,1.5-2.1,2.4c-1,1.8-1.7,3.7-2.5,5.6c-0.4,1-0.9,1.7-1.4,1.8c0.3-0.6,0.5-1.3,0.8-2c-0.1,0-0.2-0.1-0.2-0.1
	c-0.7,0.5-1.4,0.8-2,1.4c-1.4,1.6-2.7,3.4-4.2,5.2c1.6,0.1,2.8,0.7,3.5,2.3c0.4-0.5,0.6-0.8,0.8-1.1c0.4-0.7,0.7-1.5,1.2-2.1
	c0.6-1,0.9-2.2,2.1-2.8c1-0.5,1.4-1.4,1.5-2.4c0.2-1.3,0.6-2.6,1.4-3.7C49.2,12.8,49.5,11.3,49.3,9.6z M27.7,17.2
	c-0.1-0.1-0.2-0.1-0.2-0.2c-0.8,1.1-1.5,2.3-2.3,3.4c-0.3,0.4-0.8,0.8-1.2,1.2c-0.5,0.5-1.1,0.9-1.4,1.4c-0.7,1.2-1.3,2.4-2,3.6
	c-0.3,0.6-0.8,1-1.2,1.5c0.7,0,1.4,0,2-0.3c2.4-1.3,3.6-3.6,4.5-6c0.2-0.5,0.2-1.2,0.4-1.7c0.2-0.4,0.6-0.7,0.8-1.1
	C27.3,18.5,27.5,17.8,27.7,17.2z M67.2,35.6c0.7,0.4,1.2,0.9,1.6,1.6c0.8,1.5,1.9,2.8,3.4,3.6c1.1,0.5,2.1,1.2,3.2,1.8
	c-0.2-0.3-0.4-0.6-0.6-0.8c-0.6-0.4-1.2-0.8-1.9-1.2c-1.2-0.7-2.2-1.6-3.1-2.8c1.4,0.1,2.6,0.2,3.8,0.2c1,0,1.9,0.2,2.7,0.9
	c0.6,0.6,1.3,1,2,1.5c0.8,0.6,1.7,1.2,2.5,1.8c-1.2-1.5-2.6-2.9-3.8-4.4c-0.8-1.1-1.8-1.1-2.9-1c-0.6,0.1-1.3,0-1.9-0.2
	c-2-0.9-4-1.8-5.3-3.7c-0.2,0.2-0.5,0.4-0.7,0.7C66,34.6,66.2,35.1,67.2,35.6z"/>
</svg>
