<?xml version="1.0" encoding="utf-8"?>
<!-- Generator: Adobe Illustrator 24.1.3, SVG Export Plug-In . SVG Version: 6.00 Build 0)  -->
<svg version="1.1" id="Layer_1" xmlns="http://www.w3.org/2000/svg" xmlns:xlink="http://www.w3.org/1999/xlink" x="0px" y="0px"
	 viewBox="0 0 100 150" style="enable-background:new 0 0 100 150;" xml:space="preserve">
<path class="st0" d="M46.7,0c1,0,2,0,3,0c-0.1,0.3,0.1,0.4,0.3,0.4c1.8,0.5,3.3,1.3,4.1,3.1c0.6,1.3,1.3,2.6,2.2,3.7
	c0.6,0.8,0.7,1.7-0.4,2.2c-1.1,0.5-0.5,1.2,0,1.6c1.7,1.4,1.9,3.7,0.3,5.1c-0.3,0.3-0.4,0.5-0.5,0.8c-0.2,1.3-0.5,2.7-0.6,4
	c-0.2,1.1,0.1,2,1.4,2.3c1,0.2,2.1,0.7,2.5,1.7c1.1,2.6,3.1,4.2,5.3,5.7c2.2,1.4,3.4,3.5,3.2,6.2c-0.1,1.1,0.1,2.1,0.3,3.1
	c0.7,3.5,1,7-0.2,10.5c-0.1,0.3-0.3,0.7,0,0.8c1.9,1.2,1.2,3.5,2.1,5.2c0.9,1.7,1.9,3.1,3.2,4.3c0.5,0.5,1.1,0.6,1.8,0.2
	c1.6-1,2.5-0.9,3.8,0.7c0.4,0.5,0.7,0.5,1.2,0.4c1.6-0.2,2.6-1.5,4-2.1c0.8-0.4,1-0.7,0.5-1.6c-1.4-2.4-2.8-4.7-4.8-6.7
	c-1-1-1-1.9-0.6-3.2c2.8,2.9,5.2,5.9,7.2,9.3c0.2,0.3,0.3,0.8,0.6,1c1.6,1.1,2.2,2.4,2.4,4.5c0.3,2.6,1.4,5.3,2.4,7.9
	c0,0.9,0,1.8,0,2.7c-0.9,0.1-1-0.6-1.2-1.2c-0.8-2.6-1.5-5.2-2.8-7.5c-0.2-0.4-0.4-1.1-1.1-1c-2,0.4-4.1,0.1-6.1,1
	c-0.6,0.3-1,0.5-0.9,1.3c0.1,0.7-0.2,1.2-0.8,1.7c-1.9,1.6-4.3,1.8-6.6,2.4c-0.9,0.2-1.8,0.2-2.4-0.8c-0.2-0.4-0.5-0.5-1-0.3
	c-1.1,0.4-2.3,0.8-3.4,1.2c-0.3,0.1-0.7,0.2-0.4,0.6c0.8,1,0.4,2.1,0.3,3.2c-0.2,8.7,0.2,17.5-0.9,26.2c-0.5,3.4-0.7,6.8-2.1,9.9
	c-1,2.2-1.5,4.7-1.6,6.9c-0.1,3.2-0.8,6.3-0.4,9.6c0.1,1-0.2,2-1.1,2.6c-0.2,0.2-0.5,0.3-0.5,0.7c0.4,2.3,0.4,4.7,2.8,6.1
	c1.1,0.7,1.6,1.9,2,3.1c0.5,1.5-0.1,2.5-1.5,2.9c-3.1,1.1-6.4-0.4-7.7-3.3c-0.2-0.4-0.5-0.9-0.8-1.3c-0.2-0.3-0.4-0.4-0.7-0.3
	c-2.7,0.4-4-0.8-3.7-3.4c0.2-1.8,0-3.5-0.2-5.2c-0.1-0.8-0.2-1.7,0-2.5c1-6.5,0.8-13.1,2.6-19.5c0.5-2-0.2-3.7-0.3-5.6
	c-0.1-3.1-0.1-6.2-0.1-9.3c0-1.6-0.6-3.1-1.3-4.9c-2.8,4.5-5.4,9-6.7,13.9c-1.2,4.7-2,9.6-3.1,14.3c-1.3,5.7-1.5,11.5-3,17.1
	c-0.6,2.5-1.4,5-0.6,7.6c0.1,0.5,0,1,0,1.5c-0.2,1.1-2.4,3.2-3.3,2.8c-2-0.8-2.3,0.6-2.7,1.8c-0.7,1.9-2.1,2.8-3.9,3.3
	c-0.3,0.1-0.7-0.2-0.9,0.3c-1.4,0-2.8,0-4.2,0c-1.4-0.6-1.5-1.8-1.4-3.1c0.2-1.7,1.3-2.8,2.6-3.9c1.7-1.4,3.1-3,2.7-5.4
	c-0.3-1.8-0.6-3.6,0.3-5.3c0.1-0.1,0-0.4-0.1-0.6c-0.4-2-0.2-4.1,0.6-5.9c1.4-3.2,1.9-6.5,1.9-9.9c0-0.7,0.1-1.4,0.2-2.1
	c0.6-2.9,0.3-6,1.5-8.7c1-2.3,1.2-4.6,1.5-6.9c0-0.3,0.1-0.7,0.1-1c0.4-3.5,0.8-7,1.2-10.6c0-0.4-0.1-0.8-0.1-1.2
	c-1.7,0.5-2.9-0.8-4.4-1.2c-0.2-0.1-0.5,0.1-0.7,0.2c-2.4,0.9-4.9,1.7-7.3,2.7c-1.4,0.6-2.3,0.4-3-0.9c0-0.2,0-0.4,0-0.6
	c0.5-0.3,1-0.6,1.6-0.8c2.6-1,5.2-2,7.8-3c0.5-0.2,1.1-0.3,0.9-1.1c-0.4-1.6-0.4-3.5-1.2-4.9c-1.3-2.4-2.2-4.9-3.2-7.4
	c-0.6-1.4-0.2-2.1,1.1-2.7c0.5-0.2,1.1-0.4,1-1.2c-0.1-2.8,0.1-5.7-0.2-8.5c-0.2-1.5-0.1-3.1,1-4.3c1-1,1.2-2.2,1.3-3.5
	c0.6-4.8,1.6-9.4,3.3-13.9c1.1-3,2.9-5.1,6.1-6.1c3.1-1,6.2-2.1,8.4-4.8c0.9-1,1.2-1.7,0.5-2.9c-0.5-0.9-0.9-1.9-1.4-2.8
	c-0.6-1.2-1.1-2.4-1-3.8c0.1-0.9,0.1-2.4-1.7-2.3c-1,0-1.2-0.9-0.9-1.7c0.3-0.8,0.3-1.7,0.6-2.5c0.7-2.6,1-5.5,4.1-6.8
	C45.5,0.6,46.4,0.9,46.7,0z M63.2,67.3c1.1,0.4,1.9-0.4,3.1-0.5c-1.6-1.2-2.9-2.3-4.3-3.4c-0.1,1.4,1.1,2.3,1.1,3.6L63.2,67.3z
	 M35.4,53.7c-1.6,1.1-1.4,3.1-2.3,4.6c-0.3,0.4-0.5,1-0.4,1.4c0.4,2.1-0.2,4.2,0.2,6.3c0.6,3.1,0.4,6.3,1.1,9.8
	c0.4-1.4,0.8-2.4,1.1-3.4c0.4-1.1,0.5-2.3,1.3-3.3c1.2-1.6,2.6-3.2,1.1-5.4c-0.1-0.2-0.2-0.5-0.2-0.7c0.3-2.4-0.8-4.5-1.2-6.7
	C36.1,55.4,36.2,54.4,35.4,53.7z"/>
</svg>
