<?xml version="1.0" encoding="utf-8"?>
<!-- Generator: Adobe Illustrator 24.1.3, SVG Export Plug-In . SVG Version: 6.00 Build 0)  -->
<svg version="1.1" id="Layer_1" xmlns="http://www.w3.org/2000/svg" xmlns:xlink="http://www.w3.org/1999/xlink" x="0px" y="0px"
	 viewBox="0 0 100 150" style="enable-background:new 0 0 100 150;" xml:space="preserve">
<path d="M53.9,10.9c-0.1-1.2-0.2-2.3-0.4-3.4c-0.3-3.4,1.7-6.4,5-7.3c3.6-0.9,7.9,0.4,8.8,5.9c0.1,0.8,0.2,1.7,0.4,2.5
	c0.3,0,0.7-0.2,0.8-0.1c0.2,0.2,0.4,0.6,0.4,0.9c-0.1,1.4,0.1,3-0.5,4.3c-0.5,1.2-0.4,2.4-0.7,3.5c-0.1,0.4-0.1,0.8-0.2,1.1
	c-0.4,1.5-0.1,2.7,1.3,3.6c0.9,0.6,2,1.1,3.1,1.3c2,0.5,4.2,0.7,6.2,1.4c2.5,0.9,4.5,2.5,5.7,5c0.9,1.8,1.4,3.7,1.4,5.7
	c0,3.5,1.2,6.8,1.6,10.2c0.3,2.5,0.9,4.8,1.7,7.2c0.9,2.9,1,5.9,1,8.9c0,3.6-0.3,7.2-0.4,10.8c-0.1,2.5-0.2,4.9-0.3,7.4
	c0,0.9,0,1.8,0,2.7c-0.1,2.3-0.9,4.4-2.1,6.4c-0.4,0.7-1.2,1.2-1.8,1.8c-0.4,0.3-2-0.4-2-0.9c0-0.4,0.3-0.8,0.5-1.1
	c1-1.3,1.9-2.7,1.3-4.5c-0.2-0.7-0.1-1.5-0.9-2.1c-0.2,0.6-0.4,1.2-0.6,1.8c-0.3,0.7-0.5,1.4-0.9,2c-0.2,0.3-0.8,0.4-1.1,0.3
	c-0.3-0.1-0.5-0.6-0.6-0.9c-0.1-0.3,0-0.7,0.1-1c0.4-1.4,0.7-2.9,1.2-4.3c0.4-1.1,0.9-2.3,1.6-3.1c1.1-1.3,1.3-2.6,1.1-4.1
	c-0.7-4-1.4-7.9-2.1-11.9c-0.4-2.4-0.8-4.8-1.1-7.2c-0.3-2.5-1.2-4.8-1.9-7.1c-0.1-0.3-0.2-0.5-0.3-0.9c-1,4.1-2,8.1-2.8,12.1
	c-0.3,1.5-0.1,3.2,0.1,4.8c0.2,2,0.6,4,0.9,6c0.6,3.3,1.2,6.6,1.8,9.9c0.9,4.6,1.5,9.2,1.6,13.9c0,2.8,0.1,5.7,0.1,8.5
	c0,0.5-0.3,1.1-0.4,1.6c-0.1,0.4-0.3,0.9-0.3,1.3c0.1,1.1,0.2,2.2,0.4,3.3c0.3,1.5,0.7,3.1,1.2,4.5c1.1,3.1,1.2,6.4,1,9.6
	c-0.2,3.4-0.5,6.8-0.4,10.2c0.1,2.1,0.7,4.2,1.2,6.2c0.3,1,0.8,2,1.3,3c0.3,0.5,0.7,0.9,1,1.4c0.8,1.2,1.7,2.3,1.8,3.9
	c0,0.1,0,0.2,0,0.2c0.1,2.5-1,3.7-3.5,4c-2.7,0.3-3.9-0.6-4.7-3.2c-0.5-1.5-1.1-3-1.7-4.5c-0.4-0.9-0.5-1.8-0.3-2.8
	c0.2-1.2,0.5-2.3,0-3.5c-0.1-0.4-0.2-0.8-0.1-1.2c0.3-2.1-0.2-4.1-0.8-6.1c-0.6-2.3-1.3-4.6-2.1-6.9c-0.8-2.5-1.1-5.1-1.1-7.8
	c0-0.8-0.1-1.7-0.5-2.4c-1.3-2.1-2.2-4.3-2.6-6.8c-0.1-0.6-0.7-1.1-1-1.7c-0.3-0.5-0.6-0.9-0.8-1.4c-1-3.9-2-7.7-2.9-11.6
	c-0.4-1.9-0.6-3.9-1-5.8c-0.1-0.3-0.2-0.7-0.2-1c-0.1,0-0.2,0-0.2,0c-0.1,0.8-0.2,1.6-0.3,2.3c-0.6,4.3-1.1,8.6-1.7,13
	c-0.1,1-0.5,1.8-1.3,2.5c-0.2,0.1-0.3,0.4-0.3,0.7c-0.1,0.7-0.1,1.5-0.3,2.2c-0.3,1.2-0.5,2.5-1,3.6c-0.4,0.9-0.6,1.9-0.4,2.8
	c0.5,3.2,0.1,6.2-0.7,9.3c-0.8,2.9-1.2,6-1.8,9c-0.1,0.6,0.1,1.2,0.1,1.8c0.1,1.2,0.1,2.5,0.2,3.7c0,0.6,0.2,1.3,0.1,1.9
	c-0.1,0.7-0.2,1.4-0.5,1.9c-1.1,1.8-2.4,3.6-3.6,5.4c-1.7,2.4-4,2.5-6.4,1.1c-1.1-0.6-1.3-1.5-1.2-2.8c0.1-1.7,1-3.1,2.2-4
	c1.6-1.3,2.4-3,3.3-4.6c0.1-0.2,0.3-0.5,0.3-0.7c0.3-2.5,0.8-4.9,0.4-7.4c-0.6-3.8-1-7.7-1.2-11.5c-0.1-2,0.5-4.1,0.6-6.2
	c0.1-1.6,0.1-3.3,0.1-4.9c0-0.2-0.3-0.5-0.5-0.7c-0.9-0.6-1.3-1.5-1.4-2.5c0-1.1-0.2-2.3-0.4-3.4c-0.1,1.3-0.1,2.5-0.2,3.8
	c-0.4,5-0.8,10.1-1.4,15.1c-1,9-2.7,17.8-6.1,26.2c-0.4,0.9-0.8,1.7-1.2,2.6c-0.5,0.9-1.2,1.4-2.3,1.4c-0.1,0-0.3,0-0.4,0
	c-3-0.6-5.5,0.5-8.1,1.8c-1.1,0.5-2.2,0.3-2.9-0.7c-2.3-3.1-3.9-6.5-5.3-10c-2.3-5.6-3.6-11.5-4.8-17.4c-0.7-3.1-1.3-6.2-1.8-9.4
	c-0.5-3.3-0.9-6.7-1.2-10.1c-0.4-4.3-0.7-8.7-0.9-13c-0.2-3.8-0.4-7.5-0.5-11.3c-0.1-3.9-0.1-7.8,0-11.8c0-1.8,0.2-3.7,0.3-5.5
	c0-0.3-0.1-0.6-0.2-0.8c-0.9-0.8-0.9-1.2,0.1-1.9c0.1,0,0.1-0.1,0.1-0.1c-0.4-0.4-1.1-0.7-1.2-1.2c-0.1-0.4,0.3-1,0.4-1.5
	c0.1,0,0.2,0,0.3,0c-0.1-0.2-0.3-0.4-0.4-0.6c-0.4-0.9,0.1-1.5,1.1-1.7c0.2,0,0.4-0.1,0.9-0.3c-0.4-0.2-0.6-0.2-0.7-0.3
	c-0.3-0.4-0.6-0.7-0.7-1.2c0-0.5,0.4-0.8,0.9-0.9c0.2,0,0.5-0.4,0.6-0.6c1-7.6,2.7-15,4.9-22.3C20.1,16.5,23.3,9.4,28.2,3
	c0.3-0.4,0.6-0.8,0.9-1.1C29.9,1,30.6,1,31.3,2c0.9,1.4,1.9,2.8,2.6,4.3c1.3,2.5,2.6,5.1,3.7,7.7c1,2.4,1.8,4.8,2.5,7.3
	c1.1,3.7,2.1,7.4,3.1,11.1c0,0,0.1,0.1,0.2,0.2c0.2-0.3,0.3-0.6,0.4-0.9c1.2-2.6,2.9-4.4,5.8-5.1c2.3-0.5,4.5-1.3,6.7-2.1
	c1.3-0.4,1.3-0.7,1.1-2c-0.3-2-1-3.8-1.8-5.6c-0.1-0.2-0.2-0.4-0.4-0.5c-1.6-0.7-3-3.3-2.7-5C52.8,10.6,53.4,10.8,53.9,10.9z
	 M50.2,43.2c-0.2,0.2-0.3,0.3-0.3,0.4c-1,1.8-2,3.6-3,5.4c-0.2,0.3-0.2,0.8-0.2,1.2c0,0.6,0.2,1.1,0.2,1.7c0.4,3.7,1,7.4,1.2,11
	c0.3,5.2,0.4,10.4,0.5,15.7c0,0.2,0,0.4,0,0.6c0.2-0.6,0.4-1.1,0.4-1.7c0.7-4.6,1.4-9.1,2.1-13.7c0.3-2.3,0.8-4.6,0.9-7
	c0.2-2.7-0.2-5.3-0.7-7.9c0-0.1-0.1-0.3,0-0.4C52,46.4,50.3,45.1,50.2,43.2z"/>
</svg>
