<?xml version="1.0" encoding="utf-8"?>
<!-- Generator: Adobe Illustrator 24.1.3, SVG Export Plug-In . SVG Version: 6.00 Build 0)  -->
<svg version="1.1" id="Layer_1" xmlns="http://www.w3.org/2000/svg" xmlns:xlink="http://www.w3.org/1999/xlink" x="0px" y="0px"
	 viewBox="0 0 100 150" style="enable-background:new 0 0 100 150;" xml:space="preserve">
<path d="M91.5,43.5c-1,2.4-1.8,4.8-2.7,7.2c-1.8,5-4.2,9.4-9.1,12.1c-2.4,1.4-4.6,3.1-7,4.7c-0.5,0.4-1.2,0.6-1.7,0.9
	c-0.2-0.2-0.4-0.3-0.5-0.5c1.1-1.9,2.1-3.8,3.2-5.7c0.7-1.3,0.4-4.4-0.6-4.8c-0.9-0.4-1.8-0.7-3.2-1.3c-3.5,1.7-3.5,5.8-4.3,9.4
	c-2.5-1-2.4-0.9-1.7-2.8c1-2.4,2-4.9,2.6-7.5c0.6-2.4,0.1-5.3,1.3-7.2c1.5-2.4,0.7-4.4,0.5-6.6c-0.6-4.8-1.7-9.6-1.8-14.4
	c-0.1-2.3-1.2-2.8-2.6-3.5c-2.1-1-4.2-1.8-6-3.2c-0.1-0.4-0.3-0.8-0.7-1.2c-0.7-0.7-1.5-1.5-1.8-2.3c-1-2.9-2.4-5.9,0.2-8.8
	c0.1-0.1,0-0.5-0.1-0.8c-0.8,0.2-1.5,0.3-2.2,0.5c-1.5-3.4-1.9-7.7-6.8-7.8c-5.3-0.2-7.3,3.4-8.1,8c-1-0.4-1.8-0.8-2.6-1.1
	c1.9,2.4,2.7,4.6,1.5,7.7c-0.3,0.9,0.1,1.9,0.7,2.9c-2.4,3.2-4.9,6.4-7.3,9.6c-0.9,1.2-1.8,2.4-2.3,3.8c-1.8,5.3-3.8,10.6-3.6,16.4
	c0.1,4,3.8,7.1,7.7,6.3c1-0.2,3,0.3,3.1,0.7c0.5,2.9,0.6,5.9,0.8,8.9c-0.4,0.1-0.8,0.1-1.2,0.2c-0.8-2.8-1.5-5.6-2.4-8.7
	c-0.9,0.3-1.8,0.6-3.2,1.1c5.4,6.3,2.9,13.6,4,20.4c-4.6,0.5-9,0.5-13-2.1c-4-2.6-8-5.3-11.9-8.1c-1.9-1.3-3.6-0.9-5.4-0.1
	c1.7,0.6,3.6,0.6,5,1.4c2,1.1,3.7,2.7,5.4,4.2c5.3,4.4,10.4,9.3,18.3,8.1c0.3,0,0.7,0.2,1,0.3c0,0.4,0.1,0.7,0,0.9
	c-2,8.6-2.5,17.4-2.8,26.3c-0.1,1.7,0.6,3.4,1,5.1c0.3,0,0.6-0.1,0.9-0.1c0.1-1,0.1-1.9,0.2-2.9c0.1-0.8,0.5-1.6,0.7-2.5
	c0.5,0.8,0.3,1.4,0.3,2c0.3,4.9,0.6,9.8,1.2,14.6c0.5,4.3-1.3,7.3-4.5,9.7c-0.7,0.5-1.6,1-2.2,1.7c-0.9,1.2-1.6,2.6-2.3,4
	c1.6,0.4,3.2,0.8,4.8,1.1c0.3,0.1,0.7-0.2,1-0.3c2.9-1.2,5.7-2.4,8.7-3.5c2.3-0.8,3.5-2,2.9-4.7c-0.8-3.5-1.9-7.1-0.4-10.8
	c0.8,0.1,1.6,0,2.3,0.2c2.8,0.5,5.6,1.1,8.4,1.6c1.2,0.2,2.4,0.3,3.5,0.2c1.1,0,2.2-0.3,3.2-0.4c0.5,2,0.7,3.7,1.3,5.1
	c2.5,5.7,3.1,11.6,1.7,17.7c-0.4,1.9,0.3,3.3,1.9,4.2c2.1,1,4.3,1.2,6.2-0.4c1.5-1.2,2.3-2.7,1.6-4.9c-0.9-2.5-1.7-5.1-2.1-7.7
	c-0.5-3.5-0.6-7-0.9-10.5c-0.1-1-0.3-2-0.4-3c-0.2-1.7-0.5-3.3-0.8-5.6c1.9,0.6,2.9,0.9,4.8,1.5c-1.5-9.1-2.9-17.7-4.4-26.2
	c-0.4-2.4-1.5-4.7-2.2-7.1c-1-3.6,2-11.1,5.1-13.1c4.1-2.6,8.2-5.3,12.3-8c0.8-0.5,1.6-1.3,2-2.2c1.5-3.3,3.1-6.5,4.1-9.9
	c1.3-4.3,1.1-9.3,6.3-11.5C94,40.3,92.4,41.4,91.5,43.5z"/>
</svg>
