<?xml version="1.0" encoding="utf-8"?>
<!-- Generator: Adobe Illustrator 24.1.3, SVG Export Plug-In . SVG Version: 6.00 Build 0)  -->
<svg version="1.1" id="Layer_1" xmlns="http://www.w3.org/2000/svg" xmlns:xlink="http://www.w3.org/1999/xlink" x="0px" y="0px"
	 viewBox="0 0 100 150" style="enable-background:new 0 0 100 150;" xml:space="preserve">
<path d="M46.1,99.3c0.3,1,0.6,2,0.8,3c0.3,1.7,0.6,3.5,0.1,5.2c-0.1,0.2,0.2,0.5,0.4,0.7c0.3,0.2,0.3,0.4,0.1,0.7
	c-0.4,0.6-0.4,1.5-1.4,1.6c0,0.1,0,0.1,0,0.2c0.3,0.3,0.6,0.5,0.9,0.8c0,0,0-0.1,0-0.1c0.1,0.3,0.2,0.6,0.4,0.8
	c0.1,0.1,0.4-0.1,0.7-0.2c0,0.1,0.1,0.2,0.1,0.4c0.1,3.8,0.3,7.6,0.3,11.5c0,1.9-0.2,3.8-0.5,5.6c-0.3,1.8-0.9,3.6-1.2,5.5
	c-0.4,2.2-0.7,4.4-1,6.7c0,0.3-0.1,0.6-0.2,0.9c-0.6,1.4-0.7,2.9-0.7,4.3c0,0.4-0.1,0.8-0.2,1.2c-0.2,1.3,0.4,2,1.7,2
	c1.2,0,2.4,0.1,3.6,0c0.4,0,0.8-0.4,1.1-0.7c1.2-1.3,2.4-2.5,3-4.2c0.2-0.5,0.2-1,0.3-1.4c0.1-0.9,0.1-1.7,0-2.6
	c-0.1-1.2-0.3-2.5-1.1-3.5c-0.1-0.2-0.2-0.4-0.2-0.5c0-1.1-0.2-2.3-0.1-3.4c0.1-1.1,0.3-2.2,0.8-3.2c0.7-1.6,1.7-3,2.3-4.5
	c0.9-2,1.6-4.1,2.3-6.3c0.5-1.6,0.6-3.3,0.9-4.9c0.1-0.5,0.3-0.6,0.7-0.7c0.3-0.1,0.5-0.2,0.8-0.3c0-0.1,0-0.1,0-0.2
	c0.1,0.1,0.3,0.2,0.4,0.2c0.2,0,0.5-0.1,0.6-0.3c0.1-0.1-0.1-0.4-0.2-0.5c-0.2-0.3-0.5-0.6-0.9-1c0.4-0.2,0.7-0.4,1-0.5
	c1.2-0.3,1.9-1.2,2.3-2.4c0.4-1.1,1-2,1.9-2.8c0.9-0.7,0.9-1.8,1-2.9c0.2-2.2-0.2-4.4-0.4-6.6c-0.2-1.3-0.3-2.6-0.4-3.9
	c7.1,0.9,13.7,0,20.2-3.3c-0.3,0-0.4-0.1-0.6-0.1c-3.4,0-6.8-0.3-10.1-1c-3.1-0.7-6.1-1.6-9.2-2.4c-0.2,0-0.4-0.3-0.4-0.5
	c-0.1-0.3-0.1-0.7-0.1-1.1c1.3-0.3,1.7-1.3,1.7-2.4c0-1.9-0.2-3.9-0.2-5.8c0-1.6-0.2-3.2-1.4-4.5c0,0,0.1-0.1,0.1-0.1
	c0.3,0.1,0.6,0.3,0.9,0.4c1.2,0.5,2.5,0.2,3.2-0.9c0.1-0.1,0.1-0.3,0.2-0.5c-0.2,0-0.4,0-0.5,0c-1.3,0.5-2.5,0.3-3.2-0.7
	c-0.5-0.7-0.9-1.4-0.4-2.3c0.6-1.2,1.4-1.6,2.6-1.4c1.4,0.3,2.6-0.1,3.5-1.3c0.1-0.1,0.4-0.2,0.6-0.2c0.9,0.1,1.8,0.2,2.6-0.5
	c0.1-0.1,0.5-0.1,0.7,0c1.4,0.9,2.8,0.5,3.5-1c0.2-0.4,0.5-0.7,0.7-1c0.8-0.9,1.3-1.9,1.6-3.1c0.3-1.4,1.3-2.4,2-3.6
	c1.1-1.8,2.3-3.6,3.5-5.5c0.4-0.7,0.3-1.4,0.2-2.1c-0.2-1-0.5-1.9-0.8-2.8c-0.5-1.1-1.1-2.2-1.7-3.3c-0.2-0.4-0.4-0.8-0.6-1.2
	c-0.6-0.9-1.1-1.9-1.8-2.7c-1.3-1.4-2.7-2.6-3.9-4c-0.8-0.9-1.4-2.1-2.1-3.1c-0.3-0.4-0.7-0.8-1.2-1c-1-0.4-1.3-1.2-1.4-2.2
	c0-0.2-0.2-0.4-0.2-0.4c0.6-1.4,1.2-2.6,1.6-4c0.2-0.6,0.2-1.4,0.4-2c0.2-0.7,0.1-1.3-0.1-1.9c-0.2-0.6-0.4-1.2-1.1-1.4
	c-0.8-0.3-0.8-0.9-0.7-1.4c0-0.4,0.1-0.8,0.1-1.2c0-1.2-2.1-2.7-3.5-2.9c-1.7-0.2-3.4,2.2-2.6,3.5c0,0.1,0.1,0.2,0.2,0.3
	c0-0.3,0-0.4,0-0.6c0-0.4,0.8-0.9,1.2-0.7c0.1,0,0.1,0.2,0.1,0.2c-0.2,0.3-0.2,0.9-0.8,0.9c0.3,0.2,0.7,0.4,1.1,0.6
	c-0.1,0.5-0.4,0.8-1,1c-0.6,0.1-1.1,0.5-1.1,1.3c0,0.7-0.4,1.3-0.5,2c-0.2,1.4-0.2,1.4,0.6,3.6c-0.9-0.3-1.8-0.6-2.7-0.8
	c-0.2-0.1-0.5,0.1-0.7,0c-0.2,0-0.5,0-0.7-0.1c-1.5-0.7-3-1.5-4.5-2.2c-0.1,0-0.1-0.1-0.2-0.1c0.1-0.2,0.2-0.4,0.3-0.6
	c0.1,0.1,0.2,0.2,0.3,0.2c0-0.6-0.1-1.1-0.1-1.7c0.1,0,0.2,0.1,0.4,0.1c0-0.1,0-0.2,0-0.3c0,0,0.1-0.1,0.1-0.1c0,0.1,0,0.1,0,0.2
	c0.3,0.1,0.6,0.4,0.8,0.3c0.2-0.1,0.4-0.5,0.5-0.8c0.1-0.2,0-0.6-0.1-0.8c-0.4-0.7-0.1-1.3,0.1-1.9c0.6,0.4,0.5,0.9,0.4,1.4
	c-0.2,1.2,0.2,2.2,1.1,3.1c0.4,0.3,0.7,0.7,1,1c-0.2-1.5-0.3-3.1-0.5-4.6c0.4,0.1,0.4,0.1,1,1c0.6,0.9,1.2,1.1,2.2,0.6
	c-0.7-0.3-0.9-0.9-1-1.6c-0.1-0.6-0.5-1-1.1-1c-0.3,0-0.6-0.1-0.9-0.1c-0.5-0.1-0.8-0.3-0.7-1c0.2,0,0.3,0,0.5,0
	c3.2,0.1,5.4-1.8,6-4.8c0.3-1.5,0.2-3.1-0.3-4.5c-0.1-0.3-0.2-0.5-0.3-0.7c-0.5,0.3-1,0.8-1.6,1c-0.6,0.2-1.2,0.3-1.9,0.3
	c0.9-0.7,1.9-1.2,2.2-2.3c-1.3-0.9-2.7-1.7-4.1-2.6c-0.4,1-0.9,1.7-1.7,2.1c-0.9,0.5-1.5,0.4-2-0.5c-1-1.8-2.6-2.6-4.5-3
	c-1.3-0.2-2.7-0.3-3.9,0.1c-0.4,0.1-0.8,0.4-1.1,0.7c-0.5,0.4-0.9,0.9-1.2,1.4c-0.5,0.7-1.1,0.8-1.8,0.6c-0.2,0-0.4-0.1-0.7-0.1
	c0.1,0.8,0.2,1.6,0.2,2.4C46,5,45.9,4.7,45.7,3.1c-1,0.2-2,0.4-3.1,0.6c-1.2,0.3-2.5,0.4-3.6-0.4C38.8,3.1,38.4,3,38,2.8
	c-0.2,0.9,0,1.7,0.2,2.5c0.3,1.3,1,2.4,2.2,3.1c1.5,0.9,3.1,1.6,4.6,2.4c0.2,0.1,0.3,0.3,0.3,0.5c0.1,0.3,0,0.6,0,0.9
	c0.1,0.8,0.2,1.6-0.8,1.9c0.6,0.6-0.2,0.9-0.3,1.3c0.1,0,0.3,0.1,0.3,0.1c-0.1,0.4-0.3,0.7-0.2,1c0.1,0.6-0.3,0.8-0.7,0.8
	c-0.7,0.2-1.4,0.2-2,0.3c0,0,0.2,0.2,0.5,0.5c-0.9,0.1-1.6,0.3-2.3,0.4c0.2,0.1,0.6,0.3,0.9,0.5c-0.2,0.1-0.3,0.1-0.5,0.2
	c0.2,0.2,0.4,0.3,0.6,0.5c-0.1,0-0.2,0-0.4,0c0.9,1.4,2.5,1.5,3.7,2.2c-0.6,0.1-1.2,0.2-1.8,0.3c-1,0.1-2,0.2-3,0.2
	c-1.4,0.1-2.7,0.6-3.9,1.4c-1.1,0.7-2.1,1.7-3.5,1.9c0.5,0.5,1.1,0.9,1.7,1.5c-0.5,0.5-1.1,0.9-1.6,1.5c-1.1,1.3-1.5,2.9-1.9,4.5
	c-0.4,1.6-1,3.1-1.4,4.6c-0.3,0.9-0.5,1.7-0.6,2.6c-0.1,0.4-0.1,0.9,0,1.3c0.2,0.8,0.1,1.5-0.2,2.3c-0.3,0.7-0.5,1.5-0.1,2.2
	c0.1,0.2,0,0.4,0,0.6c-0.3,0.9-0.5,1.9-0.8,2.8c-0.1,0.2-0.2,0.4-0.3,0.5c-1.5,0.7-2.3,2-2.9,3.4c-0.4,0.9-0.8,1.8-1.3,2.7
	c-1.2-0.3-1.2-0.3-1.7,0.7c-0.2,0.4-0.5,0.9-0.8,1.3c-0.4,0.8-0.7,1.7-1.2,2.5c-0.5,0.9-1.1,1.7-1.6,2.5c-0.7,1.2-1.9,1.9-2.9,2.8
	c-0.6,0.5-1,1.2-1.2,1.9c-0.2,0.5-0.3,1.1-0.6,1.6c-0.6,1.3-0.2,2.6-0.1,4c0,0.3,0.1,0.6,0.2,1c0.2,1,0.7,1.3,1.7,0.8
	c0,0.2,0,0.4,0.1,0.5c0.2,0.3,0.5,0.8,0.7,0.8c0.4,0,0.9-0.2,1-0.8c0.1-0.4,0.1-0.8,0.2-1.3c0-0.3,0.1-0.5,0.2-0.8
	c0,0.6,0.3,0.9,0.7,0.9c1.2,2.4,2.3,4.6,4.5,6.2c1.5,1.1,3.1,1.1,4.8,0.7c0.6-0.1,1.1-0.4,1.7-0.6c-0.3,2.9-0.8,5.8-1.8,8.6
	c-0.5,1.6-1.3,3-2,4.5c-1,2.4-1.9,4.7-2.8,7.1c-0.6,1.4-0.4,3-0.7,4.5c-0.4,2.4-0.8,4.8-1.3,7.2c-0.1,0.5-0.2,1-0.3,1.5
	c-0.2,0.7-0.2,1.3,0.3,1.9c0.1,0.1,0.1,0.5,0,0.7c-1,2.4-1.8,4.8-2.1,7.4c-0.1,1.4,0,2.8,0.1,4.2c0,0.6,0.1,1.2,0.2,1.8
	c0.2,1.3-0.3,2.5-0.8,3.7c-0.8,1.8-1.4,3.7-2.1,5.5c-0.8,2.2-1.7,4.3-2.6,6.5c-0.2,0.6-0.1,0.9,0.3,1.2c0.6,0.4,1.2,0.5,1.9,0.3
	c0.2,0,0.3-0.3,0.4-0.4c1-2.6,2-5.2,3-7.8c0.8-2.1,1.5-4.2,2.5-6.2c0.6-1.2,1.8-2.2,2.7-3.3c1.2-1.4,2.7-2.5,3.6-4.2
	c0.5-1,1.1-1.9,1.6-2.8c0.8-1.5,2.2-1.9,3.6-2.2c0.5-0.1,1.1-0.2,1.6-0.4c1.2-0.3,2-1.1,2.6-2.2c0.4-0.6,0.8-1.2,1.3-1.7
	c1.3-1,2-2.4,2.5-3.9c0.8-2.2,1.6-4.4,2.4-6.6c0-0.1,0.1-0.2,0.2-0.3c1.1-0.9,1.5-2.2,1.9-3.5c0.3-1,0.8-2,1.1-2.9
	C45.9,99.2,46,99.2,46.1,99.3z M66.1,65c0-0.2,0-0.3,0-0.5c0.4-2.4,0.5-4.8-0.3-7.2c-0.3-0.9-0.6-1.9-0.8-2.8
	c-0.1-0.3-0.1-0.7,0.1-1c0.5-1,1.1-2,1.6-2.9c0.1-0.3,0.3-0.6,0.4-0.8c0.2-0.3,0.4-0.6,0.6-0.9c0.3-0.5,0.7-1.1,1-1.7
	c0.1-0.2,0.2-0.4,0.3-0.6c0.5-0.6,1-1.1,1.6-1.7c0.4-0.4,0.7-0.3,1,0.1c0.8,1.1,1.6,2.1,2.4,3.2c0.6,0.8,1.4,1.5,2,2.2
	c-0.6,1-1.2,2-1.8,3c-0.1,0.2-0.4,0.4-0.6,0.6c-1.2,0.9-2.4,1.8-3.5,2.7c-0.9,0.7-0.8,1.6-0.1,2.5c-1,1.6-1.2,3.1,0.3,4.5
	c-0.4,0.6-0.4,0.6-1,0.6C68.3,64.3,67.1,64.2,66.1,65z M21.7,70.4c0.2-0.5,0.6-0.9,0.6-1.4c0-1.3,0.6-2,1.8-2.4c0,0,0,0,0.1,0
	c0.9-0.5,1.8-1.1,2.7-1.5c0.8-0.3,1.4-0.9,2.1-1.5c0.5-0.4,0.6-0.8,0.2-1.4c1.1-0.9,2.2-1.8,3.3-2.7c0.2,0.9,0.3,1.8,0.4,2.6
	C33,63.1,33,64,33.1,65c0,0.3-0.1,0.5-0.4,0.5c-0.6,0-0.9,0.4-1.1,0.9c-0.2,0.7-0.4,1.5-0.6,2.2c0,0.2,0,0.4,0.1,0.5
	c0.5,0.5,0.3,1,0.1,1.5c-0.2,0.4-0.3,0.8-0.5,1c-0.4-0.3-0.8-0.6-1.3-0.8c-0.4-0.2-1-0.2-1.2-0.4c-0.4-0.7-1-1-1.8-1.1
	c0.2-0.6,0.4-1,0.4-1.5c0-0.3,0-0.7-0.2-0.8c-0.2-0.1-0.6-0.1-0.8,0c-0.2,0.1-0.3,0.5-0.3,0.7c-0.1,0.5-0.1,1-0.1,1.5
	c-1.1-0.1-1.7,0.5-2.3,1.1C22.7,70.9,22.3,70.9,21.7,70.4z M20.5,72.1c0.3,0.2,0.6,0.4,0.8,0.6c-0.2,1.2-0.4,2.2-0.6,3.4
	c-0.4-0.6-0.8-1.2-1.1-1.7c-0.1-0.2-0.2-0.3-0.3-0.5c0-0.2,0-0.4,0.1-0.6C19.7,72.9,20.1,72.5,20.5,72.1z M28.4,71.4
	c1.1,0,1.6,1.4,1.2,2.7c-0.5-0.2-1-0.4-1.4-0.6C28.3,72.7,28.3,72.1,28.4,71.4z M21.9,77.2c-0.5-0.5-0.6-1.3-0.3-2.5
	c0.2-0.7,0.3-0.9,0.9-1.1C22,74.8,23.1,76.2,21.9,77.2z M26.3,71.4c1.2-0.2,1.3-0.2,1.1,0.9c0,0.2,0,0.4-0.1,0.5
	c-0.1,0.2-0.3,0.4-0.4,0.5c-0.2-0.2-0.6-0.4-0.7-0.7C26.1,72.3,26.3,71.9,26.3,71.4z M25.2,75.5c0.7,0.4,1.2,1.1,1,1.4
	c-0.1,0.2-0.4,0.3-0.5,0.3c-0.4-0.1-0.8-0.4-1.1-0.6C24.8,76.2,25,75.9,25.2,75.5z M25.1,70.2c0.2,0.9-0.2,1.3-0.7,1.7
	c-0.3-0.2-0.7-0.4-1.2-0.7C23.9,70.9,24.4,70.6,25.1,70.2z M24,76.9c0.6,0.7,1.4,0.9,2.3,0.9c-1.1,0.5-2.3,0.3-2.7-0.5
	C23.7,77.2,23.9,77,24,76.9z M60.9,17.9c-0.1,0.5-0.1,1-0.2,1.4c0,0.1-0.3,0.2-0.3,0.1c-0.2-0.3-0.4-0.6-0.7-1
	C60.1,18.2,60.4,18.1,60.9,17.9z M23.6,74.5c-0.2,0.3-0.3,0.5-0.6,0.9c0-0.5,0-0.9,0-1.3C23.2,74.2,23.4,74.3,23.6,74.5z"/>
</svg>
