<?xml version="1.0" encoding="utf-8"?>
<!-- Generator: Adobe Illustrator 23.1.1, SVG Export Plug-In . SVG Version: 6.00 Build 0)  -->
<svg version="1.1" id="Layer_1" xmlns="http://www.w3.org/2000/svg" xmlns:xlink="http://www.w3.org/1999/xlink" x="0px" y="0px"
	 viewBox="0 0 100 150" style="enable-background:new 0 0 100 150;" xml:space="preserve">
<path d="M32.2,52.4c-0.6,1.2-1.2,2.3-1.8,3.4c-0.3,0.5-0.6,1-0.9,1.4c-0.1,0.1-0.2,0.3-0.3,0.3c-0.6,0.2-0.7,0.7-0.8,1.2
	c-0.1,0.6-0.3,1.1-0.4,1.7c-0.1,0.4,0,0.8,0,1.2c-0.1,0.9-0.1,1.7-0.2,2.5c-0.1,1.4-0.3,2.7-0.4,4.1c-0.1,0.6-0.3,1-0.8,1.4
	c-0.3,0.2-0.5,0.7-0.6,1.1c-0.1,0.7-0.4,1.2-1.1,1.5c-0.5,0.2-0.5,0.6-0.5,1c0,0.4,0,0.7-0.3,1c-0.1,0.1-0.1,0.4-0.1,0.6
	c-0.1,6.7-0.1,13.5-0.2,20.2c-0.1,12.1-0.3,24.2-0.4,36.2c-0.1,4.6-0.1,9.2-0.2,13.9c0,0.7,0,1.5,0.2,2.2c0.3,0.7,0.3,1.5,0.4,2.2
	c0,0.1,0,0.2-0.1,0.4c-0.6,0-1.2,0.1-1.8,0.1c-0.6,0-0.9-0.4-0.8-0.9c0.6-2.2,0.3-4.4,0.4-6.7c0.1-7.9,0.2-15.8,0.2-23.7
	c0.1-9.8,0.2-19.6,0.3-29.4c0-4.3,0.1-8.7,0.1-13c0-0.3-0.2-0.6-0.3-1c-0.1-0.2-0.2-0.3-0.2-0.5c-0.1-0.4-0.3-0.6-0.6-0.8
	c-0.5-0.2-0.8-0.6-0.9-1.2c-0.2-0.8-0.4-1.5-0.6-2.3c-0.4,0.3-0.8,0.5-1.2,0.9c0-0.3-0.1-0.6,0-0.8c0.2-2.1,0.5-4.1,0.7-6.2
	c0.1-1.2,0.5-2.2,0.8-3.3c0.1-0.2,0.1-0.4,0.1-0.6c0.1-1.9,0.3-3.8,0.3-5.7c0-0.6-0.2-1.2-0.4-1.8c-0.1-0.5-0.1-1,0.1-1.5
	c0.7-1.3,1.3-2.6,2.4-3.6c0.5-0.5,0.7-1,0.8-1.7c0.1-0.7,0.5-1.3,1.1-1.7c0.7-0.5,1.2-1.1,1.6-1.9c0.5-1,1.1-1.9,1.6-2.9
	c0.1-0.2,0.1-0.5,0.1-0.7c-0.3-1.3-0.3-2.5,0.2-3.7c0.5-1.4,1.1-2.9,1.6-4.3c0.2-0.5,0.3-0.9,0.4-1.4c0.1-0.3,0.3-0.5,0.6-0.7
	c1.4-0.5,2.6-1.3,3.5-2.5c0.5-0.6,1.2-1,1.9-1.3c1.5-0.6,3-1.2,4.5-1.9c0.2-0.1,0.4-0.2,0.6-0.4c0.6-0.5,1.2-1.1,2-1.2
	c0.1,0,0.2-0.1,0.3-0.2c-0.7-2.1-0.6-4.2-0.6-6.3c0-0.9-0.1-1.8-0.5-2.5c-0.9-1.9-0.9-3.8-0.2-5.7c0.6-1.8,1.4-3.5,3.1-4.6
	c0.6-0.4,1.2-0.7,1.8-0.9c1.1-0.4,2.3-0.8,3.4-1.1C50.9,0,51.5,0,52,0c2.2,0.3,3.8,1.6,5.2,3.3c0.4,0.5,0.6,1.1,0.7,1.7
	c0.1,0.6,0.2,1.3,0.4,1.9c0.3,1.2-0.1,2.3-0.3,3.4c-0.1,0.5-0.3,0.9-0.4,1.4c0.9,0.7,1,0.8,0.6,2c-0.2,0.9-0.5,1.8-0.7,2.7
	c-0.1,0.4-0.3,0.8-0.5,1.2c0.8,1,2,1.2,3.2,1.3c1.4,0.1,2.9,0.2,4.3,0.3c1.2,0.1,2.3,0.7,3.3,1.4c1.2,0.8,2.4,1.6,3.5,2.4
	c0.1,0.1,0.3,0.2,0.4,0.2c0.6-0.1,0.8,0.2,1.1,0.6c0.9,1,1.3,2.2,1.2,3.6c0,1.4,0.3,2.8,1.2,4c0.9,1.2,1.3,2.6,1.6,4
	c0.2,1.3,0.6,2.5,1.4,3.5c0.8,1.2,1,2.5,1.1,3.9c0.1,1.6,0.7,3.1,1.5,4.5c0.9,1.5,0.9,2.3-0.3,3.6c-0.6,0.6-0.6,1.3-0.5,2.1
	c0.2,1.5,0,2.9-1,4.1c-0.6,0.7-0.9,1.6-0.6,2.6c0.2,0.7,0,1.3-0.4,1.9c-0.5,0.7-0.9,1.4-1.4,2.1c-0.1,0.1-0.2,0.3-0.2,0.4
	c-0.1,0.5-0.1,1-0.3,1.4c-0.4,0.9-0.9,1.8-1.4,2.7c-0.3,0.6-0.8,1.1-1.5,1.3c-0.1,0-0.2,0.3-0.2,0.4c0.2,1,0.4,2,0.8,3
	c0.6,1.6,0.9,3.3,0.7,5.1c-0.1,1.1,0,2.3,0,3.4c0,1.8-0.8,3.2-2.2,4.3c0.4,1.7,0.6,3.5,0.5,5.3c-0.1,1.8-0.3,3.6-0.4,5.3
	c-0.3,3.4-0.1,6.7,0,10.1c0.1,4,0.2,8.1,0.1,12.1c-0.1,2.8-0.6,5.5-1.3,8.2c-0.5,2-0.9,4-1.4,6c-0.1,0.6-0.4,1.2-0.9,1.6
	c-0.2,0.2-0.4,0.4-0.6,0.6c-0.4,0.3-0.5,0.6-0.3,1.1c0.1,0.2,0,0.5,0,0.6c1.1,1.1,2.2,2.1,3.2,3.2c0.7,0.7,0.8,1.7,1.1,2.6
	c0,0.1-0.2,0.4-0.4,0.5c-2.1,0.6-4.2,1.2-6.4,1.2c-0.8,0-1.5-0.2-2.2-0.6c-1-0.6-2.1-1.1-3.3-1.3c-0.1,0-0.3-0.1-0.4-0.1
	c-0.8-0.3-0.9-0.4-0.8-1.2c0.1-1.2-0.1-2.4-0.5-3.6c-0.4-1.1-0.5-2.3-0.1-3.5c0.6-1.6,0.6-3.3,0.4-5.1c-0.2-1.6,0-3.2,0.1-4.8
	c0.1-1.6,0.3-3.2,0.2-4.7c-0.1-1.7-0.4-3.3-0.5-5c-0.3-2.6-0.6-5.2-0.7-7.9c-0.2-3-0.2-6-0.2-9.1c0-1.2,0.1-2.3,0.1-3.5
	c0-1.2-0.6-2.2-1.1-3.2c0-0.1-0.1-0.1-0.3-0.3c-0.1,1.4-0.2,2.6-0.2,3.9c0,1.5-0.1,3.1-0.4,4.6c-0.1,0.3-0.1,0.7-0.1,1
	c0.2,2-0.2,4-0.6,5.9c-0.8,3-0.6,6-0.2,9c0.1,0.7,0.5,1.4,0.7,2c0.3,1.1,0.6,2.1,1,3.2c0.1,0.4,0.2,0.8,0.4,1.2
	c0.3,0.8,0.3,1.6,0.2,2.5c-0.1,1.4-0.3,2.7,0.3,4c0.5,1.1,0.3,2.3,0.5,3.4c0.4,2.5-0.5,4.6-2,6.5c-0.4,0.5-0.6,1-0.4,1.7
	c0,0.2,0.1,0.3,0.1,0.5c0.1,0.5-0.1,0.8-0.5,0.9c-0.5,0.1-1.1,0.2-1.7,0.4c-0.2,1.8-1.6,2.3-3.1,2.8c-1.4,0.4-2.9,0.4-4.3,0.1
	c-0.8-0.1-1-0.5-1-1.3c0-0.3,0-0.7-0.1-1c-0.1-0.6,0-1.1,0.4-1.6c0.5-0.6,1-1.2,1.5-1.7c0.4-0.4,0.6-0.9,0.6-1.5c0-0.2,0-0.4,0-0.6
	c0.1-0.5-0.1-0.9-0.5-1.3c-0.4-0.3-0.6-0.9-0.7-1.4c-0.3-1.3-0.6-2.7-0.8-4c-0.4-2.9-0.8-5.7-1.8-8.5c-0.6-1.6-0.6-3.4-0.7-5.1
	c-0.3-4.3-0.6-8.6-0.8-12.9c-0.1-2.3-0.8-4.5-1.6-6.7c-0.3-0.9-0.5-1.9-0.6-2.9c-0.1-0.4-0.2-0.6-0.6-0.6c-1.7-0.3-3.3-0.7-5-1
	c-0.5-0.1-0.6-0.4-0.6-0.9c-0.1-1.4-0.3-2.9-0.4-4.3c-0.2-1.5-0.5-2.9-0.7-4.4c-0.2-1.7-0.3-3.4-0.4-5.1c-0.1-1.7-0.3-3.4-0.4-5.2
	c0-0.7,0.1-1.4,0.1-2.1c0-0.1,0.1-0.2,0.2-0.3c0.1-0.1,0.2-0.2,0.3-0.3c0.7-0.5,0.9-1.1,0.8-1.9c-0.2-3.7-0.3-7.3-0.5-11
	c-0.1-1.3-0.2-2.6-0.3-3.9C32.3,52.6,32.3,52.5,32.2,52.4z M70.6,59.9c0.1,0,0.1,0,0.2,0c0-0.4,0-0.9,0-1.3
	c-0.1-0.9-0.1-1.7,0.2-2.5c0.2-0.5,0.1-1.2,0.1-1.7c-0.2-1.2-0.3-2.5,0.1-3.7c0.1-0.4,0.1-0.9,0.1-1.4c0-0.5-0.2-1-0.3-1.4
	c0-0.2-0.1-0.3-0.1-0.5c0,0-0.1,0-0.1,0C70.6,51.5,70.6,55.7,70.6,59.9z"/>
</svg>
