<?xml version="1.0" encoding="utf-8"?>
<!-- Generator: Adobe Illustrator 24.1.3, SVG Export Plug-In . SVG Version: 6.00 Build 0)  -->
<svg version="1.1" id="Layer_1" xmlns="http://www.w3.org/2000/svg" xmlns:xlink="http://www.w3.org/1999/xlink" x="0px" y="0px"
	 viewBox="0 0 100 100" style="enable-background:new 0 0 100 100;" xml:space="preserve">
<path d="M73.9,0.2c9.6,0.4,18.4,5.6,23.3,16.4c4.8,10.6,3.6,21.1-4.3,29.5C77.7,62.1,62.1,77.7,46,92.9c-10.8,10.2-28.1,8.8-38.3-2
	c-10-10.6-10.4-27.5-0.1-38.1C22.4,37.5,37.7,22.5,52.9,7.5C58.1,2.4,64.5,0.1,73.9,0.2z M63.9,63.3c6.6-6.8,13.2-13.6,19.8-20.4
	c1-1,2-2,2.8-3c5.9-7.4,5.6-17.8-0.8-24.7C79.2,8.1,68.2,6.3,61,12.7C52.5,20.2,45.3,29,37.6,37.1C45.8,45.2,54.4,53.9,63.9,63.3z"
	/>
</svg>
