<?xml version="1.0" encoding="utf-8"?>
<!-- Generator: Adobe Illustrator 24.1.3, SVG Export Plug-In . SVG Version: 6.00 Build 0)  -->
<svg version="1.1" id="Layer_1" xmlns="http://www.w3.org/2000/svg" xmlns:xlink="http://www.w3.org/1999/xlink" x="0px" y="0px"
	 viewBox="0 0 100 100" style="enable-background:new 0 0 100 100;" xml:space="preserve">
<g transform="translate(0,0)">
	<path d="M62.8,0l-2.5,2.5l7.2,7.2L70,7.2C70,7.2,62.8,0,62.8,0z M71.3,0.6c-0.8,0-1.5,0-2.1,0.1c0,0,0,0,0,0l13.7,13.7l6.8-6.8
		c-4.4-3.8-9.5-5.7-14-6.5c-1.2-0.2-2.4-0.3-3.5-0.4C71.8,0.6,71.5,0.6,71.3,0.6L71.3,0.6z M60,7.8L7.8,60l9.7,9.7l1.1-1.1l1.4-1.4
		L32.8,80l-2.5,2.5l9.7,9.7L92.2,40L60,7.8L60,7.8z M72.8,10l-2.5,2.5l17.2,17.2l2.5-2.5L72.8,10L72.8,10z M92.4,10.4l-6.8,6.8
		l13.7,13.7v0c0.2-1.7,0.1-4-0.3-6.4C98.2,19.9,96.2,14.8,92.4,10.4z M92.8,30l-2.5,2.5l7.2,7.2l2.5-2.5L92.8,30z M42.5,32.5L50,40
		l7.5-7.5l10,10L60,50l7.5,7.5l-10,10L50,60l-7.5,7.5l-10-10L40,50l-7.5-7.5L42.5,32.5L42.5,32.5z M2.5,60.3L0,62.8L12.2,75l2.5-2.5
		C14.7,72.5,2.5,60.3,2.5,60.3z M0.7,69.1C0.7,69.2,0.7,69.2,0.7,69.1c-0.2,1.7-0.1,4,0.3,6.5c0.9,5,3.2,10.8,7.9,15.5
		c4.6,4.7,10.5,7,15.5,7.9c2.5,0.4,4.8,0.5,6.4,0.3h0l-8.7-8.7L20,92.8L7.2,80l2.2-2.2L0.7,69.1L0.7,69.1z M20,72.8L12.8,80l7.2,7.2
		l7.2-7.2C27.2,80,20,72.8,20,72.8z M27.5,85.3L25,87.8L37.2,100l2.5-2.5L27.5,85.3z"/>
</g>
</svg>
