<?xml version="1.0" encoding="utf-8"?>
<!-- Generator: Adobe Illustrator 23.1.1, SVG Export Plug-In . SVG Version: 6.00 Build 0)  -->
<svg version="1.1" id="Layer_1" xmlns="http://www.w3.org/2000/svg" xmlns:xlink="http://www.w3.org/1999/xlink" x="0px" y="0px"
	 viewBox="0 0 100 100" style="enable-background:new 0 0 100 100;" xml:space="preserve">
<g transform="translate(0,0)">
	<path d="M9.4,0c-1,0-1.9,0.4-2.5,1l5.2,5.2c0.8-0.5,1.3-1.4,1.3-2.6C13.4,1.2,11.3,0,9.4,0z M20.1,9.9c-1.1,0-2.2,0.4-3,1.2
		l21,20.9c1.3-0.8,2.3-2.2,2.3-4.3c0-3.3-2.4-5.2-5.1-5.6c0.5-0.9,0.8-1.9,0.8-3.1c0-6.3-7.3-8.5-11.3-5.9
		C24.1,10.9,22,9.9,20.1,9.9L20.1,9.9z M58.9,10.9c-1.7,0-3.3,1.1-3.3,3.2c0,4.5,7.3,5,7.3,0.4C62.9,12.1,60.8,10.8,58.9,10.9
		L58.9,10.9z M3.7,11.1c-1.7,0.7-2.9,2.3-2.9,4.6c0,5.3,6.1,7.1,9.5,4.9c0,0.1,0,0.2,0,0.2c0,4.5,7.3,5,7.3,0.4
		c0-3.5-4.3-4.5-6.3-2.7L3.7,11.1z M63.5,21.8c-1.1,0-2.3,0.3-3.5,1c-7.7,4.4,0.1,16.3,7.7,11.9c0.1,0,0.1-0.1,0.2-0.1
		c0.8,2.1,4.4,2.8,5.1,0.1c0.5-1.8-0.9-3.2-2.4-3.4C71.9,27.1,68.2,21.8,63.5,21.8L63.5,21.8z M5.7,29.3c-1.7,0-3.3,1.1-3.3,3.2
		c0,4.5,7.3,5,7.3,0.4C9.7,30.4,7.6,29.2,5.7,29.3L5.7,29.3z M23.1,30.5c-1.4,1-2.3,2.7-2.3,4.9c0,3.9,2.7,6.2,5.8,6.9
		c-0.2,0.8-0.3,1.6-0.3,2.6c0,6.7,5.7,10.2,11.1,10.1c0.7,3.2,3.4,5,6.3,5.4c0,0.3-0.1,0.7-0.1,1c0,1.7,0.6,3.2,1.4,4.3
		c-2.2-0.4-4.5-0.1-6.4,0.8c0.6-3.1-4.3-4.7-5.2-1.5c-0.5,2,1.2,3.4,2.8,3.4c-1,1.2-1.6,2.9-1.6,4.9c0,7.5,8.2,10.4,13.5,8
		c0,0.2,0,0.3,0,0.5c0,7.4,9.9,9.2,13.2,4.3c1.4,1.1,3.3,1.6,5,1.6c-0.4,1-0.6,2.1-0.6,3.3c0,9.6,13.4,11.7,16.9,4.8
		c4.2,4.9,13.4,5.5,15.4-2.3c1.4-5.2-1.7-9.2-5.7-10.8c3.7-0.4,7-2.8,7-7.5c0-4.2-2.6-6.9-5.8-7.9c0-0.3,0-0.6,0-0.9
		c0-1.3-0.3-2.5-0.7-3.6c1.4-0.6,2.5-1.8,2.5-3.8c0-1.4-0.6-2.6-1.4-3.3c0.1-0.1,0.3-0.1,0.4-0.2c2.9-1.7,0.5-6.5-2.4-4.8
		c-1.5,0.8-1.6,2.4-1,3.7c-1.2-0.2-2.5,0.1-3.5,0.8c-0.5-3.8-3.7-5.9-7-6.1c0.2-0.6,0.3-1.3,0.3-2.1c0-8.6-13.4-9.6-14.1-1.4
		c-2.5-0.7-5.2-0.6-7.5,0.3c0.2-0.7,0.3-1.5,0.3-2.4c0-8.9-11.4-11.3-16-6.2l20.9,20.8c-0.3,0.3-0.5,0.6-0.6,1.1
		c-0.9,3.3,4.3,4.9,5.1,1.7c0.4-1.4-0.3-2.5-1.3-3c1.9-2.2,5-6.1,6.7-10.9c8.1,11.2,16.1,27.6,15.5,42.2
		C75.2,88.3,57.7,81.5,46.5,74c10.2-4.8,12.7-7.7,12.7-7.7L39.2,46.5c1-0.5,1.7-1.4,1.7-2.9c0-3.9-5.2-4.7-6.8-2.2L23.1,30.5
		L23.1,30.5z M86.7,38.8c-1.7,0-3.3,1.1-3.3,3.2c0,4.5,7.3,5,7.3,0.4C90.7,40,88.7,38.8,86.7,38.8L86.7,38.8z M17.9,57.4
		c-1.5,0-2.9,0.9-3.4,2.6c-0.9,3.3,2.9,5,5.3,3.7c0.2,4.8,8.4,6.1,9.9,0.6c1.3-4.9-4.9-7.1-8.1-4.6C21.2,58.3,19.5,57.4,17.9,57.4
		L17.9,57.4z M35.8,86.3c-1,0-1.9,0.5-2.2,1.8c-0.6,2.2,1.7,3.7,3.4,3.4c0.2,5.8,9.5,6.3,9.5,0.4c0-4.4-5.2-5.9-8-3.9
		C38.1,86.9,36.9,86.3,35.8,86.3L35.8,86.3z M59.9,91.5c-0.4,0-0.8,0.1-1.2,0.4c-2.9,1.7-0.5,6.5,2.4,4.8c2.5-1.4,1.1-5.1-1.1-5.2
		C60,91.5,59.9,91.5,59.9,91.5L59.9,91.5z"/>
</g>
</svg>
