<?xml version="1.0" encoding="utf-8"?>
<!-- Generator: Adobe Illustrator 23.1.1, SVG Export Plug-In . SVG Version: 6.00 Build 0)  -->
<svg version="1.1" id="Layer_1" xmlns="http://www.w3.org/2000/svg" xmlns:xlink="http://www.w3.org/1999/xlink" x="0px" y="0px"
	 viewBox="0 0 100 100" style="enable-background:new 0 0 100 100;" xml:space="preserve">
<path d="M37.1,0l8.4,19.7c3.3,1.1,6.5,1.1,9.8,0L62.5,0L37.1,0L37.1,0z M30.1,3.5l1,2.7c1.8,4.8,4.6,9.8,6.2,14.4
	c1.6,4.6,1.9,8.6-0.7,12.3c-2.9,4.1-8.2,8.3-12.9,13.3S14.9,57,14.9,64.8c0,19.3,15.7,35.2,35,35.2c19.3,0,35.2-15.8,35.2-35.2
	c0-7.7-4-13.8-8.6-18.9c-4.6-5-10-9.3-13.2-13.2c-2-2.4-1.7-7.3-0.2-12.5c1.5-5.3,4.1-10.6,5.5-13.9l1.2-2.8h-4.4l-7,19
	c-1,4.7-1,9.3,1.8,12.8c3.7,4.5,9,8.7,13.4,13.4c4.3,4.7,7.5,9.8,7.5,16.2C81.1,82,67.1,96,49.9,96c-17.2,0-31.1-14-31.1-31.2
	c0-6.4,3.3-11.3,7.8-16c4.4-4.7,9.8-8.8,13.2-13.7c3.4-4.8,3-10.3,1.3-15.4L36,7.7c0-0.1-0.1-0.1-0.1-0.2h0l-1.7-4L30.1,3.5
	L30.1,3.5z M49.9,46.5c-6.3,0-12,1-15.9,2.4c-2,0.7-3.5,1.6-4.4,2.4c-0.8,0.7-1.1,1.3-1.2,1.8h-0.1c0,3.3,1.7,6.4,4.4,8.9
	c-0.1,0-0.2-0.1-0.3-0.1c-2.3-1-4.2-2.2-5.6-3.6c-0.5-0.5-0.9-1-1.3-1.5c-1.6,2.6-2.6,5.4-2.6,8.7c0,14.8,12.1,27,26.9,27
	s27-12.2,27-27c0-3.3-1-6.3-2.6-8.9c-0.4,0.6-0.9,1.1-1.4,1.7c-1.4,1.4-3.3,2.6-5.6,3.6C67.2,62,67.1,62,67,62
	c2.8-2.5,4.4-5.6,4.4-8.9h-0.1c0-0.5-0.3-1.1-1.2-1.8c-0.9-0.8-2.4-1.7-4.4-2.4C61.9,47.5,56.2,46.5,49.9,46.5L49.9,46.5z"/>
</svg>
