<?xml version="1.0" encoding="utf-8"?>
<!-- Generator: Adobe Illustrator 23.1.1, SVG Export Plug-In . SVG Version: 6.00 Build 0)  -->
<svg version="1.1" id="Layer_1" xmlns="http://www.w3.org/2000/svg" xmlns:xlink="http://www.w3.org/1999/xlink" x="0px" y="0px"
	 viewBox="0 0 100 100" style="enable-background:new 0 0 100 100;" xml:space="preserve">
<g>
	<path d="M97.7,52c0,0.5,0.4,1.2-0.1,1.6c-0.3,0.1-0.1,0.5-0.3,0.7c-0.4,0.4-0.6,1-1.2,1.2c0.5,0.8,0.9,4.2,1,5.1
		c-0.5-0.2-0.3-2.8-1.4-4.9c-0.3,0-0.6,0.1-0.9,0.3c1.5,4,1.2,6.4,0.9,9.2c-0.1-2.4,0.4-6.7-1.5-8.7c-0.4,0-0.7,0.5-1.1,0.5
		c0.9,3.3,0.1,7.5,0.1,8.2c-0.3-0.1,0.8-6.8-1.1-8.3c-0.2,0.1-0.5-0.2-0.5,0.1c0.2,1.4-2.2,7.1-3.6,7.5c0.6-1.1,4.3-5.7,2.5-8.1
		c-0.8,0-1.3,0.6-2,0.8c-0.1-0.2-0.2,0-0.3,0.1c-0.4,0.1-0.9,0.7-1.3,0.4c-0.6,0.2-1.3,0.5-2,0.3c-0.3,0.3-0.7,0.1-1,0.1
		c-0.4-0.4-0.9-0.3-1.4-0.3c-0.3-0.4-1-0.5-1.5-1c-0.6-0.4-1.3,0.5-1.6-0.3c-0.7-0.1-1.3-0.4-1.9,0.2c-0.6,0.8-1.7,0.6-2.7,0.6
		c-0.1,0.4-0.5,0-0.7,0.3c-0.2,0.2-0.6,0.1-0.6,0.4c1.1-0.1,2.5-0.3,3.6,0.2c0.3,1-1.3,0.6-1.7,0.8c0.1,0.3,2.2,0.7,1.6,1.6
		c-0.6,0.4-3.2-0.8-4.1-0.4c0,0.3,0.5,0.3,0.6,0.4c0.7,0,1,0.6,1.6,0.7c0.4,0.3-0.2,0.6-0.4,0.8c-0.7,1-4.6-1.7-5.1-1.6
		c-0.4-0.4-1.2-0.3-1.7-0.3c-0.2,0.1-0.1-0.1-0.2-0.1c-0.2,0.1-0.4,0-0.7,0c-0.5,0.9-1.7,0.1-2.3,0.7c-0.3,0-1.8,0.1-2.3,0.3
		c-1.8-0.6-3.8-0.6-4.1-0.6c0.3,0.2,0.9,0.1,0.8,0.7c0.2,0.2,0.6,0.3,0.5,0.7c-0.2,0.1-0.3,0.2-0.5,0.2c-0.4-0.3-1-0.3-1.6-0.3
		c0,0.2,1.1,0.9,1.6,1.9c0,0.5-1.6,0.8-2.1,0c-0.9-1.4-2.6-0.8-3.2-1.2c-0.1,0-0.5,0-0.2,0.2c0.6,0.3,2.2,2.6,0.9,4
		c-1.3,0.2-0.1-2.4-1.8-2.9c-1.4-0.8-5.7-0.8-6.8-1.4c0,0-0.1-0.1-0.1-0.1c-1.6,0.1-3.3,0.4-4.9,0.7c-1.4,0.3-4.5,0-4.3-1.2
		c0.2,0,0.1-0.2,0.2-0.3c0.3-0.1,0.6-0.2,0.6-0.6c-0.5,0.1-1.3,0-1.9-0.2c-0.3,0-0.9-0.1-1.2,0.1c-0.5,0-0.9-0.4-1.3-0.1
		c-0.3-0.2-0.8-0.1-1.1,0.1c-0.2-0.3-0.7,0-1-0.2c-0.5,0.5-1.4,0-1.8,0.6C27.7,61,27,62,25.9,62c-2,0.7-7.8,1.2-10.6-0.1
		c-0.5,0-0.9-0.2-1.4-0.2c-3.6-0.1-6.3-0.6-7.7-0.5c-1.5,0.7-3.9,1.5-3.9,3.6c-0.2,0.5-0.1,1-0.1,1.5c0.3,1.5,1.3,2.8,2.7,3.4
		c1.5,0.6,3.1,0.2,4.6,0.7c2.2,0.1,3.9,0.5,6.1,0.4c2.5-0.2,9.7,0.1,12.6-0.7c0.7-0.1,7.2-1.3,12.3-1.1c4.3,0,6.3,3.3,7.3,2.8
		c0.1,0.2,0,0.5-0.1,0.7c-2.2,2.1-5.4-1.8-7.5-1.7c-2.7-0.2-13.9,1.4-17.3,2c-0.7,0.2-17,0.3-20.5-2.3c-3.3-1.9-2.9-6.6-2-8.1
		C2.9,57.3,11,58.8,13,58.8c0.1,0,12.4,2,12.4-0.5c0.8-0.9,0-2.2,0.9-3c-0.1-0.4,0.1-0.7,0.3-1c-0.3-1.7,0.3-3.3,0.4-5
		c-0.2-0.5,0.2-0.8,0.3-1.2c0.2-0.7-0.3-1.6,0.5-2.1c-0.4-0.4,0.6-2.3,0.5-2.9c1-2.5,2.6-4.4,2.9-5.5c0.6-0.3,0.8-0.8,1-1.4
		c1-1.1,1.5-2.3,2.9-3c0.8-0.6,1.2-1.3,1.9-2c0.1,0.1,0.5,0.2,0.6,0c1.3-1.6,3.2-1.9,4.7-3.3c0.4-0.3,0.7,0.1,1.2,0
		c1.3-0.1,2.3-0.8,3.5-1c0.9,0.4,1.6-0.4,2.6-0.2c0.7,0,1.5,0.2,2.1-0.1c2,0.3,3.7,0.2,5.4,1c2.2-0.3,6.6,1.1,7.2,2.4
		c-0.1,0.7,0.9,0.6,1.3,0.9c1,0.3,1.6,1.6,2.8,1.5c-0.2,0.9,4.2,3.7,5.3,2.8c-0.5-0.8-1.1-1.9-0.6-2.9c0.1-1.2,1.2-5.2,5.7-3.5
		c0.4,0.3,0.9,0.4,1.4,0.6c4.1,2,3.8,6.5,3.7,8.5c-0.1,0.6,0.4,1,0.3,1.6c0.1,0.1,0.1,0.1,0.2,0.1c0.4-0.3-0.1-0.8,0.4-0.9
		c0.3,0.3,0.1,0.9,0.5,1.2c0.1-0.1,0-0.4,0.2-0.3c0.2,0.1,0.1,0.3,0.3,0.3c0.2-0.1-0.2-0.6,0.3-0.5c0.2,0.9,1,1.3,1.7,1.5
		c0.1,0.2,0.1,0.5,0.4,0.6c0,0.6,0.7,0.4,1,0.9c0.2-0.2,0.2,0.3,0.6,0.1c0.2,0.2,0.5,0.2,0.4,0.5c0.3,0.6,1.3,0.4,1.3,1.2
		c0.6,0.3,0.6,1.3,1.3,1.4c0.1,0.4,0.6,0.2,0.5,0.7c0.6,0.1,0.7,0.6,0.9,1.1c0.6,0.3,0.6,1.3,1.3,1.5c0.2,0.1,0.1,0.4,0.3,0.4
		c1-0.4,1.3-2.1,1.5-3.4c0.2,0,0.2,0.2,0.2,0.2c-0.3,1.4-0.7,2.7-1.4,3.9c0.1,0.1,0.2,0,0.2,0.1c1.7-1.4,1.3-2,1.7-3.2
		c0.2,0,0.2,0.2,0.2,0.4c-0.2,1.2-0.8,2.2-1.3,3.3c0.2,0.2,0.1,0.7,0.6,0.7c1.9-0.6,1.7-0.8,2.3-1.6c0.1,0,0.2,0.1,0.2,0.1
		C99.7,51.3,98.5,51.5,97.7,52"/>
</g>
</svg>
