<?xml version="1.0" encoding="utf-8"?>
<!-- Generator: Adobe Illustrator 23.1.1, SVG Export Plug-In . SVG Version: 6.00 Build 0)  -->
<svg version="1.1" id="Layer_1" xmlns="http://www.w3.org/2000/svg" xmlns:xlink="http://www.w3.org/1999/xlink" x="0px" y="0px"
	 viewBox="0 0 150 100" style="enable-background:new 0 0 150 100;" xml:space="preserve">
<g id="EvCnn9.tif">
	<g>
		<path d="M78.8,89.8c0.6,3.3,3.6,5.8,7.1,6c1.8,0.1,3.7,0.4,5.5,0.6c0.4,0.1,0.9,0.3,1.3,0.6c0.8,0.6,0.6,1.1-0.2,1.6
			c0,0-0.1,0-0.2,0c-1.8-0.4-3.5,0.4-5,1.1c-1.6,0.8-2.8,0.1-4.1-0.8c-0.2-0.1-0.5-0.3-0.7-0.4c-1.6,1.5-3.1,1.5-4.6-0.2
			c-1.5-1.7-2.9-3.6-4.3-5.5c-0.2-0.2-0.3-0.7-0.5-0.8c-1.7-0.6-3.6-1.8-5.1-1.5c-5.8,1.3-11.5,1-17.3,0.3c-9-1.1-18-2.2-27-3.4
			c-4.6-0.6-8.9-1.9-12.4-5C8,79.6,7.2,74.3,9.5,70.6c0.3-0.5,0.7-1,1.2-1.2c1.2-0.7,2.3,0,2.2,1.5c-0.1,1.7-0.4,3.4-0.7,5
			c-0.3,1.4,0.3,2.4,1.4,3.3c3.1,2.4,6.7,3.4,10.5,4c6,0.9,12,2,18,2.6c7.3,0.8,14.5,0.7,21.8-0.2c0.2,0,0.5-0.2,0.7-0.2
			c-0.1-2.4-0.2-4.7-0.3-7c-0.4,0.1-0.7,0.3-1.3,0.5c0.6-2.1,1.2-4,1.8-6.3c-0.8,0.6-1.3,1-1.8,1.3c-0.1,0-0.2-0.1-0.3-0.1
			c0.3-1.1,0.6-2.1,1-3.2c0.5-1.5,1.3-2.9,1-4.7c-0.3-1.3,0.9-2.8,0.8-4.1c-0.4-4.2,1.3-8,1.9-12c0-0.3-0.2-0.8-0.4-1.1
			c-0.4-0.6-0.9-1-1.3-1.6c-1.4-1.7-1.4-1.7-3.2-0.3c-1.7,1.4-3.9,0.5-4.2-1.6c-0.3-2.2,0.7-4,2.8-4.9c0.7-0.3,1.4-0.4,2.1-0.7
			c0.7-0.3,1.1-0.7,0.2-1.4c-0.2-0.1-0.2-0.6-0.1-0.8c0.3-1.3,0.7-2.6,1.2-4.1c-0.5,0.1-0.7,0.1-1.2,0.2c0.5-1.4,1-2.7,1.5-4
			c0.2-0.6,0.5-1.3,0.7-1.9c0.3-1,0-1.5-1-1.9c-3.1-1.4-6.3-2.8-7.9-6.2c-0.1-0.3-0.6-0.7-0.9-0.7c-2.9-0.6-4.8-3.8-4.1-6.8
			c0.1-0.6,0.2-1.3,0.1-2c-0.4-2.1,0.5-3.6,2.6-4.2c3.5-1,7.1-2,10.7-2.8c1.5-0.3,2.9-0.4,3.8-1.9c0.6-1,1.6-0.3,1.9,0.4
			c0.8,2.4,2.8,2.2,4.6,2.6c3.2,0.6,6,0.2,8.3-2.5c1.3-1.6,4.4-1.4,6.2-0.1c1.5,1.1,1.8,2.8,0.7,5c-0.7,1.4-1.6,2.7-2.5,4
			c-0.6,0.8-0.8,1.6-0.2,2.5c1,1.3,2,2.5,3,3.8c1.3,1.8,3.1,3.4,3.8,5.4c0.7,2.1,2.1,3.3,3.4,4.8c3.7,4,6.2,8.7,8.3,13.7
			c0.2,0.6,1,1.4-0.2,2c-0.1,0,0.1,1,0.3,1.4c1.2,2.5,1.8,5.1,1.7,7.8c0,0.4-0.4,0.8-0.6,1.1c-0.2,0-0.4-0.1-0.6-0.1
			c0.3,2.8,0.6,5.6,0.9,8.4c0,0-0.3-0.1-0.8-0.4c0.6,1.5,1,2.7,1.5,3.9c0.4,0.9,0.9,1.7,1.1,2.6c0.3,0.9,0.9,1.7-0.2,2.8
			c-0.4,0.4,0,1.8,0.1,2.8c0.1,1.6,0.3,3.2,0.4,5.1c-0.6-0.2-0.9-0.3-1.4-0.4c0.6,6.8-4.7,8.4-9.8,10.7c1.3,0.6,2.2,1.4,3.2,1.5
			c3,0.4,6.1,0.5,9.1,0.7c1.1,0.1,2.1,0,3.1,0.3c0.8,0.2,2,1.2,2,1.4c-0.3,1-0.9,2.1-1.7,2.6c-1.3,0.8-2.8,0.9-4.4,0
			c-1.2-0.7-2.7-1.2-4,0.3c-0.3,0.3-1.1,0.3-1.7,0.3c-4.5-0.1-8.2-2.2-11.7-4.8c-0.5-0.3-1.1-0.8-1.6-0.7c-3.8,0.7-7.7,0.8-11.5,0.3
			C79.3,89.7,79.1,89.8,78.8,89.8z"/>
	</g>
</g>
</svg>
