<?xml version="1.0" encoding="utf-8"?>
<!-- Generator: Adobe Illustrator 23.1.1, SVG Export Plug-In . SVG Version: 6.00 Build 0)  -->
<svg version="1.1" id="Layer_1" xmlns="http://www.w3.org/2000/svg" xmlns:xlink="http://www.w3.org/1999/xlink" x="0px" y="0px"
	 viewBox="0 0 100 100" style="enable-background:new 0 0 100 100;" xml:space="preserve">
<path d="M87.7,46.7c0,0,5.2-11.2-9.3-14.8c0,0-1.1-4.2-5.4-5c7.2-2.3,11.6-9.1,11.6-9.1c-8.1-0.7-13.3,0.8-16.5,2.6
	C76.8,7.6,84.1,6.4,84.1,6.4l-1.4-4c-10.6,4.7-16.2,12-19.1,17c-2.1-3-6.9-7.2-17.6-8.9c0,0,1.4,4.1,4.7,7.9
	c-2.2-1.4-5.9-2.2-11.1,0.8c0,0-9.3-8.2-15.5,5c0,0-12.1,2.7-8,16.4c0,0-8.9,6.1-2.5,16.6c0,0-7.7,9.1,3.6,18.9
	c0,0-0.9,16.6,13.9,15.9c0,0,5.9,10.5,17.1,2.7c0,0,15.5,6.4,17.5-8.4c0,0,9.8-1.4,9.1-12.5c0,0,10.5-3,8-14.1
	C82.9,59.7,92,56.1,87.7,46.7z"/>
</svg>
