<?xml version="1.0" encoding="utf-8"?>
<!-- Generator: Adobe Illustrator 23.1.1, SVG Export Plug-In . SVG Version: 6.00 Build 0)  -->
<svg version="1.1" id="Layer_1" xmlns="http://www.w3.org/2000/svg" xmlns:xlink="http://www.w3.org/1999/xlink" x="0px" y="0px"
	 viewBox="0 0 100 100" style="enable-background:new 0 0 100 100;" xml:space="preserve">
<path d="M92.2,33.4c-3.7-9.6-11-13.9-19.6-15c2-3,3.6-6.8,4.5-11.7c-11.3,9.7-31.4-0.7-34.9,13.1C32.5,9.8,21.7,2.8,9.5,0.1
	C3.3-1.2,2.9,9.7,9.3,9.5C19.5,9,29.5,13.9,39.1,22.2C27.2,14.3,20.3,35.4,5.8,36.4c3.9,2.8,7.6,4.3,11,5c-5.6,7-7.9,15.5-3.5,25.1
	c9.2,20,43.3,39.4,61.3,31.8C92.7,90.8,100.1,54,92.2,33.4z"/>
</svg>
