<?xml version="1.0" encoding="utf-8"?>
<!-- Generator: Adobe Illustrator 23.1.1, SVG Export Plug-In . SVG Version: 6.00 Build 0)  -->
<svg version="1.1" id="Layer_1" xmlns="http://www.w3.org/2000/svg" xmlns:xlink="http://www.w3.org/1999/xlink" x="0px" y="0px"
	 viewBox="0 0 100 100" style="enable-background:new 0 0 100 100;" xml:space="preserve">
<path d="M21.1,0c0.6,0.4,0.8,0.9,0.8,1.6c0,3.1,0,6.1,0,9.3c0.4,0,0.8,0,1.2,0c2.7,0,5.4,0,8.1,0c1.3,0,1.7,0.3,1.7,1.7
	c0,2.5,0,5,0,7.5c0,1.4-0.3,1.7-1.7,1.7c-2.7,0-5.5,0-8.2,0c-0.3,0-0.6,0-1,0c0,2.1,0,4.1,0,6.1c0,1.1,0,2.1,0,3.2
	c0,1.2-0.4,1.6-1.6,1.6c-2.5,0-5.1,0-7.6,0c-1.3,0-1.7-0.3-1.7-1.7c0-2.7,0-5.4,0-8.1c0-0.4,0-0.7,0-1.2c-0.8,0-1.5,0-2.3,0
	c-2.3,0-4.7,0-7,0c-0.7,0-1.3-0.2-1.6-0.8c0-3.1,0-6.2,0-9.4c0.4-0.6,0.9-0.8,1.6-0.8c2.5,0,4.9,0,7.4,0c0.6,0,1.2,0,1.9,0
	c0-3.2,0-6.2,0-9.3c0-0.7,0.2-1.3,0.8-1.6C14.8,0,18,0,21.1,0z M50,58.2c0-5.7,0-11.3,0-17c0-1.7-0.5-2.1-2.1-2.1
	c-5.3,0-10.7,0-16,0c-1.7,0-2.2,0.5-2.2,2.1c0,5.7,0,11.4,0,17.1c0,0.3,0,0.7,0,1.1c-0.5,0-0.8,0-1.2,0c-5.7,0-11.3,0-17,0
	c-1.6,0-2.1,0.5-2.1,2.1c0,5.4,0,10.8,0,16.2c0,1.5,0.5,2,2.1,2c5.7,0,11.5,0,17.2,0c0.3,0,0.7,0,1.1,0c0,0.5,0,0.9,0,1.3
	c0,5.6,0,11.3,0,16.9c0,1.6,0.5,2.1,2.1,2.1c5.4,0,10.7,0,16.1,0c1.6,0,2.1-0.5,2.1-2.1c0-5.7,0-11.4,0-17.1c0-0.3,0-0.7,0-1.1
	c0.4,0,0.8,0,1.1,0c5.8,0,11.5,0,17.3,0c1.3,0,1.9-0.6,1.9-1.8c0-5.6,0-11.1,0-16.7c0-1.2-0.6-1.8-1.8-1.8c-1.8,0-3.6,0-5.5,0
	c-4.3,0-8.6,0-13,0C50,58.9,50,58.6,50,58.2z M70.7,20.3c-3.8,0-7.5,0-11.3,0c-1.2,0-1.6,0.4-1.6,1.6c0,3.6,0,7.2,0,10.8
	c0,1.3,0.4,1.7,1.7,1.7c3.8,0,7.5,0,11.3,0c0.3,0,0.7,0,1.1,0c0,4.2,0,8.3,0,12.4c0,1.3,0.4,1.6,1.6,1.6c3.6,0,7.2,0,10.7,0
	c1.4,0,1.7-0.3,1.7-1.8c0-3.7,0-7.5,0-11.2c0-0.3,0-0.7,0-1.1c4.2,0,8.3,0,12.4,0c1.3,0,1.6-0.4,1.6-1.6c0-3.6,0-7.2,0-10.8
	c0-1.3-0.4-1.6-1.6-1.6c-3.8,0-7.5,0-11.3,0c-0.3,0-0.7,0-1.1,0c0-0.4,0-0.8,0-1.1c0-3.8,0-7.5,0-11.3c0-1.3-0.4-1.7-1.7-1.7
	c-3.5,0-7,0-10.5,0c-1.5,0-1.8,0.3-1.8,1.8c0,4,0,8.1,0,12.3C71.4,20.3,71.1,20.3,70.7,20.3z"/>
</svg>
