<?xml version="1.0" encoding="utf-8"?>
<!-- Generator: Adobe Illustrator 23.1.1, SVG Export Plug-In . SVG Version: 6.00 Build 0)  -->
<svg version="1.1" id="Layer_1" xmlns="http://www.w3.org/2000/svg" xmlns:xlink="http://www.w3.org/1999/xlink" x="0px" y="0px"
	 viewBox="0 0 150 100" style="enable-background:new 0 0 150 100;" xml:space="preserve">
<style type="text/css">
	.st0{fill-rule:evenodd;clip-rule:evenodd;}
</style>
<path class="st0" d="M28.6,58.2c0.4-0.8,0.1-1.4,0.4-2.1c0.8-1.6,2.1-3,3.4-4.2c2.1,0,3.6,0.8,4.8,1.7c0.3,0.2,0.4,0.8,0.6,1
	c0.7,0.6,1.9,0.5,2.5,1.3c2,2.5,2.7,6.2,4.8,8.6c0.3,0.3,0.4-0.2,1,0c1.5,0.5,3.4,1.7,4.2,2.9c0.1,0,0.1,0,0.2,0c-0.3-1-0.7-2-1-2.9
	c0-0.6,0-1.1,0-1.7c0-0.1,0-0.1,0-0.2c-0.1-0.2-0.9-0.2-1-0.4c-0.9-1.1-2-3.5-2.5-4.8c-0.9-2.3,0.7-5.5,0.2-6.5
	c-0.2-1.4-1.4-1.5-1.9-2.5c-0.7-1.3-0.7-3.6-1-5c-0.7-3.1,2.1-4.7,1.3-7.3c-0.2-0.7-1.2-1.1-1.5-1.9c-0.6-1.8,0.3-7.4,0.8-8.4
	c0.3-0.5,1.1-1.1,1.9-1.3c-0.2-0.6-0.7-0.9-0.8-1.5c-0.5-1.8,1.4-6.1,2.1-6.9c0.5-0.6,1.7-0.8,2.1-1.5c0.3-0.5,0.1-1,0.4-1.5
	c0.9-1.4,3.8-3.7,5.2-4.6C55.8,8,57.1,7.8,58.1,7c0.8-0.6,1.1-1.9,1.9-2.5c1.9-1.4,4.4-2.6,6.7-3.6c1-0.4,7.3-1.2,8.8-0.8
	c4.4,1,8.8,3.9,11.1,7.1c0.5,0.8,0.5,2,1,2.7c0.4,0.6,1.8,0.7,2.3,1.9c0.7,1.5,0.7,4.9,1.5,6.1c0,0.7,0,1.4,0,2.1
	c-0.3,0.1-0.7,0.1-1,0.2c0.2,3.3,3.8,3.9,3.8,9c0,0.7,0,1.4,0,2.1c-1.4,4.7-6.9,6.4-4.4,13.4c0.4,1.1,0.5,2,1.3,2.7
	c0,0.1,0,0.3,0,0.4c-0.1,0-0.1,0-0.2,0c-0.7-1.4-1.7-2.8-2.3-4.4c-0.2-1-0.4-2-0.6-2.9c-1.1-2.7-2.4-5-3.1-8.2
	c-0.8-3.5,0.1-8,2.1-9.4c0-0.7,0-1.4,0-2.1c-0.5-0.3-1-0.7-1.5-1c-1.5-1.9-3.2-4.2-3.6-7.1c-0.3,0-0.6,0-0.8,0
	c-1.6-1.5-3.4-2.4-4-4.8c-1.9,0-3.8,0.1-4.8-0.8c-3.1,0-3,1.2-4.6,2.3c0.1,1.3,0.5,3.1,0,4.4c-0.1,0-0.1,0-0.2,0
	c-0.1,0.3-0.1,0.6-0.2,0.8c-0.2,0.1-0.4,0.1-0.6,0.2c-0.2,0.4,0.7,1.2,0.4,2.1c-0.6,2.3-1.7,5.8-4,6.5c0.3,0.7,1.2,1,1.5,1.7
	c1.2,3.1,0,7.7-1.3,9.8c-0.2,0-0.4,0-0.6,0c0,0.2,0,0.4,0,0.6c0.6,0.1,0.9,0.1,1.3,0.4c1.8,1.2,4.4,9.2,1.7,10.9
	c0.5,0.7,1.6,0.5,2.5,0.8c0.8,0.3,4.3,2.5,4.8,3.1c1.5,2,2.8,4.7,3.8,7.1c0.5,1.3,0.5,2.8,1.3,4c0.8,1.1,4.7,2.7,6.1,3.3
	c0.8-2.4-0.3-5.9-0.8-8.2c0-0.6,0-1.3,0-1.9c-0.3-1.2-1-2.9-0.2-4c0.2-0.6,0.9-1.2,1.3-0.8c2.6,0.3,1.6,1.7,2.3,3.8
	c0.2,0.6,0.9,1.3,1,1.9c0.9,2.8,0.4,9.8-0.6,12.1c2-1.5,2.1-5.1,2.9-7.7c1-3,2.2-4.7,4.2-6.7c0.6,0.1,0.9,0.1,1.3,0.4
	c1.8,0.6,1.1,2.9,1,5c1.6-0.4,2.3-1.6,3.8-2.1c7-2.2,5.8,6.1,8.2,9.2c0.4,0.3,1,0.1,1.7,0.2c1.4,0.3,3.1,0.8,4.2,1.5
	c0.3,0.2,0.9,1.2,1.5,1c0-0.1,0-0.1,0-0.2c1-0.5,2-1.3,3.4-1.7c4.5-1.1,10.4,1.6,11.3,4.2c0.7,0.9,0.7,2.3,0,2.9
	c0.3,1.1,0.5,0.4,1,1c0.6,0.7,1.2,2.9,1.5,3.8c1.1,4-1.8,7.3-4.8,6.9c0.7-0.8,1.2-1.8,1.9-2.5c0.1-2.5-0.1-3.8-1.9-4.4
	c-0.2-0.2-0.1-0.1-0.4-0.2c-1,1.2-1.3,3.1-2.3,4.4c-0.1,0.4,0,0.2-0.2,0.4c-0.3-0.8-0.8-1.5-1-2.3c-0.3-1.1,0.1-2.7-0.4-3.6
	c-0.8-0.5-3.4-0.4-4.4-0.8c-0.9-0.4-2.3-0.9-3.1-1.5c-0.3-0.3-0.6-0.7-0.8-1c-1.7-0.1-3.4-0.1-5-0.2c-2.4-0.6-4.6-1.2-6.5-2.1
	c-1.1,1.9-3.9,2.4-6.3,2.9c-1.4,0-2.8,0-4.2,0c-0.9,0.3-1.3,1.4-2.1,1.7c-1.2,0.4-2.3-0.2-3.1,0.4c-0.7,0.4,0,0.4-0.4,1
	c-0.3,0.5-1.1,0.7-1.5,1c-0.3-0.4-0.4-1.1-0.4-1.7c-0.2,0.3-0.2,0.9-0.2,1.5C84.1,78.1,84,78,82,78.1c0.1,0.4,0.1,0.4,0.2,0.6
	c-0.1,0.7,0.1,0.5-0.4,0.6c0,0.1,0,0.1,0,0.2c0.1,0,0.1,0,0.2,0c-0.3,0.5,0.1,0.2-0.6,0.4c1.4,1.1,3.7,1.4,5.2,2.3
	c1.3,0.8,2.5,2.1,3.8,2.9c3.1,2.2,7,3.9,9.2,6.9c0.6,0.8,0.9,1.7,1.5,2.5c0,0.2,0,0.4,0,0.6c-1.6-1-3.5-2.3-5.4-2.9
	c-0.8,0-1.5,0-2.3,0c-0.3-0.1-0.9-0.7-1.3-0.8c-0.8-0.3-1.8,0-2.5-0.4c-1.9,0-4.6-0.3-6.1,0.2c2.8,3.1,5.5,5.1,10.1,6.5
	c0.8,0.1,1.7,0.1,2.5,0.2c1.2,0.3,1.9,0.9,3.6,0.8c-1.6,1.5-5.3,1.5-7.8,0.8c-4.5-1.1-8.1-2-11.5-4.2c-0.9-0.6-2-1.2-2.9-1.9
	c-0.4-0.5-0.8-1-1.3-1.5c-0.9-0.5-1.9-0.1-2.9-0.4c-2.7-0.8-5.9-2.2-6.7-5c-6.2-0.8-7.3-2.3-11.3-4.8c-0.1-1.5-0.6-2.7,0.2-3.6
	c-0.5-0.8-1.8-0.4-2.5-1c-0.2-0.2,0-0.7-0.2-0.8c-0.7-0.1-1.4-0.3-2.1-0.4c-1.8-0.6-4.2-1.9-5.2-3.3c-1.6,0.2-6.2,1.3-7.1,0.2
	c-0.4,0.8,0.2,1.7-0.2,2.7c-0.2,0.5-1.3,2.6-1.7,3.1c-0.3,0.1-0.7,0.3-1,0.4c-0.1,0.6-0.3,1.3-0.4,1.9c-0.6,1.2-3,4.6-4,5.2
	c-0.5,0.3-0.7,0-1,0c-0.8,0.6-1.5,1.5-2.5,1.9c-0.9,0.3-2.1-0.2-2.7,0.2c-0.1,0-0.3,0-0.4,0c0-0.1,0-0.3,0-0.4
	c1.3-0.9,2.8-2.1,4.6-2.3c0.2-2.7,1.8-5.3,3.1-7.1c0.2-0.3,1.1-0.5,1.3-0.8c0-0.4,0-0.8,0-1.3c0.4-0.9,1.4-1.9,1.9-2.7
	c0.2-0.6,0.4-1.3,0.6-1.9c0.3-0.5,1.3-0.8,1.7-1.3c0.4-0.6,0.1-1,0.6-1.5c-1-0.7-2.8-0.5-4-0.4c0,1-1.4,4.4-1.9,4.8
	c-0.3,0-0.6,0-0.8,0c0.5,0.2-0.2,1.5-0.4,1.9c-0.6,1.1-2,3.6-3.1,4.2c-0.3,0-0.7,0-1,0c-0.3,0.2-1,0.7-1.5,0.8
	c-1.7,0.5-2.6-0.6-3.4-0.2c-0.1,0-0.3,0-0.4,0c0-0.1,0-0.1,0-0.2c1.3-0.7,2.7-1.4,4.6-1.5c0.2-2.1,1.5-4.4,2.5-5.9
	c0.3-0.2,0.6-0.4,0.8-0.6c0-0.3,0-0.7,0-1c0.8-2.1,2.7-4.9,4.2-6.5c-0.4-0.7-1.6-0.6-2.3-1c-2.2,0-1.5,1-2.3,2.3
	c-1.8,2.7-4.4,5.2-6.1,7.9c-1.3,0.1-2,0.6-3.1,0.8c-1.2,0.2-1.6-0.9-2.3-0.4c-0.1,0-0.3,0-0.4,0c0-0.1,0-0.1,0-0.2
	c1.2-0.6,2.5-1.2,4.2-1.3c0.2-2.1,1.7-4,2.7-5.4c0.3-0.3,0.7-0.6,1-0.8c0.4-0.7,0.1-1.1,0.6-1.7c-0.5-0.3-1-0.7-1.5-1
	c0.5-0.4,1.3-0.6,2.1-0.6C26.5,60.7,27.8,59.8,28.6,58.2z M70.5,56.5c0.2,0.5,0.2,0.3,0.4,0.6c0.2,0,0.4,0,0.6,0
	c-0.1-0.4-0.3-0.8-0.4-1.3C70.9,56.1,70.8,56.3,70.5,56.5z M31.5,58.4c0,0.1,0,0.3,0,0.4c1.3-0.5,4.1-0.3,5,0.4c0.1,0,0.3,0,0.4,0
	c-0.2-0.4-0.5-0.9-0.8-1.3c-1.2-0.8-2.7-0.4-3.6-1.5C32.1,57.1,32,57.9,31.5,58.4z M103.6,61.6c-1,0.3-3.4,1.3-4.6,0.4
	c-1.5,0.3-1.9,4.5-2.9,5.6c0,0.1,0,0.1,0,0.2c0.9-0.2,3.6-1,4.4-1.5c1.6,0,2.3,0.3,2.9,1.3c0.8-0.3,0.7-0.7,1.7-0.8
	C104.9,64.6,103.7,63.8,103.6,61.6z M74,79.1c0,0.1,0,0.1,0,0.2c0.9,0,1.8,0,2.7,0c0-0.1,0-0.1,0-0.2c-0.4-0.2-0.6-0.3-0.8-0.6
	C75,78.6,74.7,78.8,74,79.1z M81.6,79.3c-0.1-0.1-0.1-0.3-0.2-0.4C81.4,78.9,81.2,79,81.6,79.3z"/>
</svg>
