<?xml version="1.0" encoding="utf-8"?>
<!-- Generator: Adobe Illustrator 23.1.1, SVG Export Plug-In . SVG Version: 6.00 Build 0)  -->
<svg version="1.1" id="Layer_1" xmlns="http://www.w3.org/2000/svg" xmlns:xlink="http://www.w3.org/1999/xlink" x="0px" y="0px"
	 viewBox="0 0 150 100" style="enable-background:new 0 0 150 100;" xml:space="preserve">
<style type="text/css">
	.st0{fill-rule:evenodd;clip-rule:evenodd;}
</style>
<path class="st0" d="M86.8,9.9c-2.8,0.3-5.4,0.3-7.6-0.8c-0.9-0.5-2.9-2.3-3.5-2.1c-1.4,0.5-3.1,1.7-5.5,1.2c-0.9-0.2-2.9-1.2-3.3-1
	c-1.3,0.7-2.5,1.7-4.1,2.2c-0.7,0-1.4,0-2.2,0c-0.5,0.3-0.9,1.4-1.4,1.8c-1,0.5-2,1-2.9,1.6c-1,0.8-1.4,2.5-2.3,3.3
	c0.5,3.1,0.3,6.1-0.8,8.6c0.6-0.1,0.6-0.2,1,0c1.3,0.8,2.8,3.2,3.3,4.7c0.1,1,0.3,2.1,0.4,3.1c0.5,0.9,2.4,0.6,3.5,1.2
	c1.2,0.6,3,2.2,3.7,3.3c0.4-0.1,0.8-0.2,1.4-0.2c0.1-0.5-0.1-0.3,0.4-0.4c0.2,0.1,0.2,0.1,0.6,0.2c0.2-1.3,2.2-5.9,3.1-6.3
	c0.5,0,1,0,1.6,0c1.5,1.4,4.5,2.1,4.9,4.5c0.2,0,0.4,0,0.6,0c0.5,0.7,1.5,1.1,2,1.8c0.5,1,1,2,1.6,2.9c0.1,0,0.1,0,0.2,0
	c0.1-1,0.7-1.3,1-2c0.9-1.9,0.6-4.5,3.3-4.5c0.5,0.5,1.4,0.8,1.8,1.4c1.6,2.3,4.3,9.2,3.3,13.9c-0.3,1.4-0.5,3.3-0.6,4.7
	c0.8,0.2,1.6,0.8,2.2,0.6c1.6-2.2,0.7-6,1.4-9.2c0.6-2.4,1.1-5.4,1.8-7.8c0.5-0.3,0.9-0.7,1.4-1c0.4,0.1,0.8,0.3,1.2,0.4
	c0.2,0.6,0.6,1.1,0.8,1.8c0.2,1.1-0.2,4.1-0.2,5.7c-1.3,0.8-1.3,2-1.2,4.1c-0.5,0.9-0.3,2.2-0.6,3.3c-0.4,1.4-1,2.9-1.4,4.3
	c0.1,0,0.1,0,0.2,0c0.6-0.4,2,0.2,2.7,0.4c0.9-3.3,4.5-4.8,7-6.5c0.7-0.4,2.5-2.2,3.3-1.8c0.5,0.2,0.6,0.3,1,0.6c0.2-1,0.4-1,1.6-1
	c0.7-0.4,2.2,0.3,2.9,0.6c3.1,1.1,5.5,2.4,6.8,5.3c2.1-0.7,4.1,0.3,5.5,0.8c2.2,0.8,4.8,1.6,5.9,3.5c0.3,0.9,0.5,1.8,0.8,2.7
	c0,0.3-0.5,1.1-0.4,1.6c0.1,0.2,0.7,0.7,0.8,1c0.3,0.8,0.4,1.8,0.6,2.5c1.4,5.7-3.2,14.2-6.3,15.6c0-0.1,0-0.3,0-0.4
	c0.6-0.6,0.6-1.3,1-2.2c1.5-3.5,3-6.6,2-11.1c-0.1,0-0.1,0-0.2,0c-0.3,2.2-2.4,5.3-3.3,7c-1.1,2-1.5,4.2-2.3,6.3c-0.1,0-0.1,0-0.2,0
	c0-0.1,0-0.1,0-0.2c-1.9-2.1,0.1-6.3-0.6-9.6c-1.3-5.5-5.8-8.4-5.3-14.5c-2.1-0.5-8-2.4-8.2-4.5c-0.4,0.1-0.4,0-0.6,0.2
	c-0.3,0.8-0.5,1.6-0.8,2.3c-1.6,2.4-5.7,4.3-9.8,4.3c-0.6,1-1.5,1.8-2,2.7c1.5,1,2,2.7,2,5.3c-0.1,0-0.1,0-0.2,0
	c-0.2-0.4-0.4-0.7-0.8-1c0,0.1,0,0.1,0,0.2c0.2,0.2,0.4,0.5,0.6,0.8c-0.1,0-0.3,0-0.4,0c-0.5-0.5-5.2-3-5.9-3.1c0,0.1,0,0.3,0,0.4
	c1.9,1.1,3.6,2.6,4.7,4.5c-0.2,0-0.4,0-0.6,0c-0.2-0.2-0.1-0.1-0.4-0.2c0,0.1,0,0.1,0,0.2c0.1,0,0.3,0,0.4,0
	c0.2,0.1,0.4,0.3,0.6,0.4c-0.1,0-0.1,0-0.2,0c0,0.1,0,0.1,0,0.2c-3.5,2-5.5-0.3-8.4-1c-0.2,1.9-0.9,4.4-2.2,5.3
	c-0.4,0.3-0.8,0.4-1.6,0.4c-0.1,3.3-2.2,5.2-4.5,6.3c-0.9,0.4-1.7,0.4-2.3,1c0.1,0,0.1,0,0.2,0c0.9,1.5,2,2.8,2.9,4.3
	c0.1,0,0.3,0,0.4,0c1.8-2.3,8-3.6,12.3-2.5c3.3,0.8,5.7,2.4,8.4,3.5c3.4,1.4,8.1,1.1,11,3.1c0.5,0.3,0.7,1.2,1.2,1.6
	c0,0.1,0,0.1,0,0.2c-0.1,0-0.3,0-0.4,0c-0.8-0.6-3.5-0.3-4.9,0c-4.4,1.1-9.9,2-13.9,3.7c0,0.1,0,0.1,0,0.2c2,0.3,2.3,1.9,4.3,2.3
	c0.7,0.2,1.7-0.1,2.2-0.2c1.8-0.1,3.7-0.1,5.5-0.2c1.8-0.5,4.3-1.3,6.1-1.8c0,0.1,0,0.1,0,0.2c-0.1,0-0.1,0-0.2,0
	c-2.3,3.5-11.5,6.3-17.8,4.5c-1.7-0.5-4-1.2-5.5-2.2c-0.2-0.3-0.4-0.5-0.6-0.8c-0.5,0.1-1,0.1-1.6,0.2c-1.2-0.2-2.7-1.1-3.7-1.8
	c-1.1-0.7-2.3-2.3-2.9-3.5c-0.3-0.7-0.5-1.4-0.8-2.2c-0.7,0-1.4,0-2.2,0c-0.5-0.4-1.1-0.2-1.8-0.6c-0.7-0.4-2.1-1.7-2.5-2.3
	c-3.7-5.1-2.4-9.8,2.5-12.7c0-0.1,0-0.1,0-0.2c-1.6-0.1-2.5-1.6-3.7-1.6c-0.2,0-0.5,0.4-0.6,0.4c-1,0.3-2.3-0.1-3.1-0.2
	c-1.2,1.9-3.9,3.2-5.9,4.3c-1.1,0.6-1.5-0.5-1.8,0.8c0.5,0.9-0.7,4.2-1.2,4.9c-0.2,0.2-0.8,0.2-1,0.4c-0.1,0.6-0.1,1.2-0.2,1.8
	c-0.5,1.3-1.4,2.9-2.2,4.1c-0.3,0.4-1,1.3-1.4,1.6c-0.2,0-0.4,0-0.6,0c-0.8,0.7-0.9,1.9-1.8,2.5c-0.9,0.6-1.8,0.7-2.5,1.4
	c0-0.2,0-0.4,0-0.6c0.3-0.2,0.4-0.4,0.6-0.8c-0.1,0-0.3,0-0.4,0c-0.2,0.2-0.5,0.4-0.8,0.6c0-0.1,0-0.3,0-0.4c1.5-1,2.3-2.5,3.9-3.3
	c-0.6-2.5,1.9-5.8,2.9-7.4c0.4-0.6-0.1-1,0-1.6c0.2-0.8,1.3-3.2,1.8-4.1c0.3-0.5,1.3-1,1.6-1.6c0.3-0.6-0.1-1.3,0.2-1.8
	c0.5-0.8,1.6-1.2,2.2-2c-0.1,0-0.1,0-0.2,0c0-0.1,0-0.1,0-0.2c-2,0-3.5-1.5-4.7-1.4c-0.2,0-0.8,0.5-1,0.6c-1.8,0.7-5.3,1.4-6.7,0.6
	c0.1,2.7-1.2,3.4-2.5,5.1c-0.1,0.3-0.1,0.7-0.2,1c-0.8,1.2-2.2,3.3-3.3,4.1c-2.1,1.5-5.1,1.5-7.6,2.2c0-0.1,0-0.1,0-0.2
	c0.1,0,0.1,0,0.2,0c0.3-0.4,0.6-0.5,1-0.8c-0.3,0.1-0.7,0.1-1,0.2c0-0.1,0-0.1,0-0.2c0.1,0,0.1,0,0.2,0c0.7-0.8,3.7-1.6,5.1-1.8
	c-0.1-1.5,1.6-4,2.5-5.3c0.2-0.3,1-0.5,1.2-0.8c0-0.3,0-0.7,0-1c0.5-1,2.6-4.3,3.7-4.5c0.1-0.5,0.1-0.9,0.2-1.4
	c1-0.3,2.1-0.9,3.1-1.4c0-0.1,0-0.1,0-0.2c-1.4-0.8-3.1-2-4.9-2.1c-1.4,1-7.8,1.3-9.6,0.4c0.1,1.8-1.5,4.5-2.9,4.7
	c0,0.5,0,0.6-0.2,0.8c-0.9,2.8-4.9,5.3-7.6,6.1c-1,0.3-2.2-0.2-3.1,0c0-0.1,0-0.1,0-0.2c0.5-0.4,0.1-0.4,0.6-0.8
	c0.9-0.6,3-1.1,4.3-1.2c0.2-2.1,1.9-4.2,3.1-5.5c0.2-0.2,0.8-0.4,1-0.6c0.3-0.4,0.1-1,0.4-1.4c0.7-1,1.4-2.1,2.2-3.1
	c0.7-1,1.7-1.3,2.3-2.5c0.8-0.1,4.3-0.6,4.9-1c-2.5-1.7-3.5-5.3-7.8-5.3c-0.8-0.5-2.1-0.3-3.1-0.6c-1.1-0.5-2.2-1-3.3-1.6
	c-0.4-0.1-0.3,0.1-0.4,0.2c-0.8,1-1.5,1.8-2.3,2.7c-0.3,0-0.5,0-0.8,0c-0.5,3.2-6.9,4.9-9.8,2.7c0.1,0,0.3,0,0.4,0
	c0.6-0.8,2.2-0.6,3.7-0.6c0.3-1,2.3-3.4,3.1-3.9c0.3,0,0.5,0,0.8,0c0.1-0.3,0.1-0.5,0.2-0.8c1.2-1.6,3.9-4.3,6.7-4.3
	c0.9,0.6,2.4,0.4,3.5,0.8c1,0.3,2.7,0.8,3.7,1.4c0.2,0.3,0.4,0.5,0.6,0.8c1.2,0.6,2.4,0.2,3.5,0.8c2.8,1.6,5.7,5.2,8.4,7.2
	c0.4,0.5,0.8,0.9,1.2,1.4c1,0.6,2.2,0.6,3.1,1.2c2.9,1.8,4,2.7,9,2.7c0-0.1,0-0.3,0-0.4c-0.5-0.4-0.5-0.9-0.8-1.6
	c-2.1-0.8-4.6-0.2-6.7-1.6c-0.6-0.4-1.9-1.8-2.2-2.5c-0.1-0.5,0.2-0.7,0.2-1c0-1-1-1.6-2-1.8c-1.8,0.8-5.9-4.8-6.5-6.5
	c-0.3-1,0.5-1.8,0.2-2.5c-0.5-1.9-2.4-1.6-3.3-2.9c-0.7-1.4-1.3-2.9-2-4.3c-0.7-0.1-1.8-0.4-2.3-0.8c0.1,0,0.1,0,0.2,0
	c0.2-0.1,0.8-0.3,1-0.4c-0.4-0.1-0.4,0-0.6-0.2c0.1,0,0.1,0,0.2,0c0.4-0.2,0.5-0.1,1.2,0c-0.2-1.9,0.1-3.4,0.4-4.9
	c-0.7-0.5-1.5-1-1.6-2.2c-0.5-0.8-0.9-3.7-0.6-5.1c0.9-4,2.8-7,4.7-10c2.1-3.4,4.5-5.4,7.6-7.8c1.6-1.2,3-2.8,4.9-3.9
	c1.1-0.6,2.3-0.4,3.5-1c2.4-1.1,5.2-3,8.8-2.3c0.8,0.1,1.3-0.3,1.8-0.4c1.8-0.4,6.5,0.1,7.6,0.6c0.1,0.2,0.3,0.4,0.4,0.6
	c0.7,0.2,1.7-0.6,2.7-0.4c3.4,0.8,7.1,2.1,9,4.5c1-0.6,2.1,0.2,2.7,0.6c2.3,1.4,4,3.1,6.1,4.5c-0.1,0.3-0.1,0.7-0.2,1
	c0.3,0.1,1.8,0.2,2.2,0.4c1.6,0.7,4.8,6.6,5.1,8.8c0.1,0.6-0.4,0.9-0.6,1.4c2.2,1.4,5.7,4.7,4.3,9c-0.5,1.6-2.3,2.8-3.5,3.7
	c-0.6,0.4-0.9,1.2-1.4,1.8c-0.2,3.8,1.3,5.1,2.9,7.4c-0.1,0-0.3,0-0.4,0c-0.5-0.7-1.3-1.1-1.8-1.8c-1.7-2.4-5.9-10.3-4.7-15.2
	c0.4-1.5,1.5-2.2,1.8-3.7c-3.1-1.3-6.3-4.1-7-8c-0.1,0-0.3,0-0.4,0c-0.5,0.5-2.1,0.2-2.9-0.2c-2-0.9-3.4-2.6-4.9-4.1
	C86.8,10.6,86.8,10.3,86.8,9.9z M71.4,34.6c-0.3,1.1-1.5,3.1-2.5,3.5c-0.5,0.3-1.3,0-2.2,0c-0.3-0.5-0.7-0.9-1.2-1.2
	c0,0.1,0,0.3,0,0.4c2,1.3,3.3,3.6,4.7,5.5c0.5,0.7,1.4,1.3,2,2c0.9,1.1,1.7,2.8,3.5,2.9c1.4-1,3.7,0.9,4.1,1.8
	c0.3-0.1,0.6-0.2,1.2-0.2c0-0.1,0-0.3,0-0.4c-0.8-0.9-0.8-2.3-1.4-3.5c-1.2-2.8-3.1-5.4-3.9-8.6C73.8,36.5,72.9,35.1,71.4,34.6z
	 M84.3,49.4c1.3,0.2,1.9,1,2.9,1.4c0-0.6,0-1.2,0-1.8c0.7-1.1-0.5-7.6-0.6-9.6c-0.6-0.4-1-0.8-1.4-1.4c-0.1,0-0.1,0-0.2,0
	c0,0.1,0,0.1,0,0.2c-0.3,0.2-2.9,3.8-2.9,4.1C82.9,43.5,84,47.8,84.3,49.4z M107.4,44.1c0.2,0.1,0.4,0.1,0.6,0.2c0,0.1,0,0.1,0,0.2
	C107.5,44.4,107.6,44.5,107.4,44.1z M108,44.5c0.1,0,0.3,0,0.4,0c0,0.1,0,0.1,0,0.2C108,44.6,108.2,44.7,108,44.5z M93.7,66.8
	c0.2,0.2,0.1,0.1,0.4,0.2C93.9,66.9,94,66.9,93.7,66.8z M95.4,67.4c0.2,0.2,0.1,0.1,0.4,0.2C95.6,67.4,95.8,67.5,95.4,67.4z"/>
</svg>
