<?xml version="1.0" encoding="utf-8"?>
<!-- Generator: Adobe Illustrator 23.1.1, SVG Export Plug-In . SVG Version: 6.00 Build 0)  -->
<svg version="1.1" id="Layer_1" xmlns="http://www.w3.org/2000/svg" xmlns:xlink="http://www.w3.org/1999/xlink" x="0px" y="0px"
	 viewBox="0 0 150 100" style="enable-background:new 0 0 150 100;" xml:space="preserve">
<style type="text/css">
	.st0{fill-rule:evenodd;clip-rule:evenodd;}
</style>
<path class="st0" d="M104.8,97.9c0.5,0,1.1,0,1.6-0.1c0.5-0.2,1-0.7,1.5-0.9c0.8-0.3,1.9-0.2,2.6-0.6c0.4-0.2,0.8-0.5,1.2-0.7
	c0.5-0.3,1-0.4,1.4-0.7c0.2-0.2,0.4-0.5,0.6-0.6c0.4-0.3,1-0.3,1.4-0.6c0.3-0.2,0.4-0.8,0.7-1c0.1-0.6,0.1-1.6-0.6-1.6
	c-0.3,0.2-0.7-0.1-1-0.1c-0.5-0.1-1,0-1.4-0.2c-0.7-0.3-1.1-0.9-2.1-0.6c-0.8,0.2-1.2,0.9-1.9,1.2c-0.6,0-1.1,0-1.7,0
	c-1.5,0.7-3,1.4-4.5,2.1c-0.5,0.3-1,1.2-1.5,1.4c0,0,0,0,0-0.1c-0.1-0.2-0.1-0.6-0.1-0.8c0-1.4,0.2-1.2,0.7-2.2
	c0.8-1.5,1.9-2.5,2.8-3.8c0.6-0.8,1.5-1.4,1.8-2.6c-0.7-0.4-1.3-0.8-1.7-1.6c-1.1,0.3-2.4,0.5-3.6,0.8c-0.7,0.2-1.4,0-2,0.1
	c-0.6,0.1-2,0.3-2.8,0.1c-0.5-0.1-1.6,0-2.3-0.2c-1.4-0.3-2.9-0.6-4.5-0.7c-0.2,0.4-1,1.2-1.7,1.2c-0.9-0.6-2.2,0-3,0.3
	c-0.8,0.2-3.5,0.4-4.3,0.1c-0.1,0-0.4-0.2-0.6-0.3c-0.4-0.1-0.9,0.2-1.2,0.3c-0.3,0-0.7,0-1,0c0-0.1,0-0.1-0.1-0.2
	c0.2-0.2,0.5-0.5,0.6-0.8c-0.1,0-0.2,0-0.3,0c-0.2,0.3-0.4,0.6-0.6,0.8c0,0-0.1,0-0.1,0c-0.1-0.4-0.2-0.7-0.7-0.7
	c-0.3,0.2-2,0.1-2.5,0.1c-0.1,0.2-0.1,0.5-0.4,0.6c-0.2-0.2-0.3-0.4-0.5-0.6c-0.1,0-0.1,0-0.2,0c0.1,0.4,0.3,0.5,0.5,0.9
	c-0.1,0-0.1,0-0.1,0.1c-0.3-0.1-0.8,0-1.2-0.1c-0.3-0.1-0.8-0.4-1.2-0.3c-0.2,0-0.5,0.3-0.7,0.3c-0.4,0.2-1.6,0.3-2.1,0.2
	c-1.4-0.1-2.8-0.4-3.9-0.7c-0.7-0.2-1.3,0.2-1.9,0.2c-0.4-0.6-1.1-1.4-2.3-1.1c-1,0.3-2.3,0.4-3.4,0.7c-0.8,0-1.7,0.1-2.5,0.1
	c-0.6,0.1-2.5,0.2-3.2,0.1c-0.7-0.1-1.5,0-2.2-0.2c-0.9-0.2-2-0.5-3-0.6c-0.2,0.5-0.8,0.9-0.9,1.1c-0.2,0.4,0.2,0.8,0.3,1
	c0.5,0.8,1,1.4,1.6,2c1.2,1.2,2.2,2.5,3.2,4c0.2,0.3,0.6,0.6,0.7,1c0,0.7,0,1.3,0,2c-0.1,0-0.1,0-0.2,0c-1-1.5-3-2-4.7-2.8
	c-0.3-0.2-0.8-0.5-1.2-0.6c-0.6,0-1.3,0-1.9-0.1c-0.5-0.2-1-0.8-1.5-1c-1.4-0.5-2,0.3-3.1,0.6c-0.6,0.2-2,0.2-2.3,0.3
	c-0.3,0.3-0.5,1-0.2,1.4c0.3,1.1,1.3,1.2,2.2,1.8c0.2,0.2,0.5,0.5,0.7,0.6c0.5,0.4,1.1,0.5,1.7,0.8c0.3,0.1,0.6,0.4,0.9,0.6
	c1.1,0.2,2.1,0.5,3.2,0.7c0.3,0.2,0.7,0.6,1,0.7c0.7,0.3,1.3-0.1,1.8,0.2c0,0,0,0-0.1,0c0,0,0,0,0,0.1c-5.4,2.1-11.3-0.5-14.4-3.2
	c-1-0.9-1.5-2-2.1-3.4c-0.1-0.3-0.4-0.8-0.3-1c0.1-0.2,0.1-0.2,0.1-0.4c-0.4-0.2-0.5-0.4-0.7-0.8c-0.2-0.3-0.6-0.8-0.8-1.2
	c-0.2-0.6,0.2-2.1,0.3-2.6c0,0,0,0-0.1,0c0,0,0,0,0-0.1c-0.3,0-0.4-0.1-0.6-0.2c-0.3-0.1-0.6,0.1-0.6,0.1c-0.1-0.1-0.1-0.1-0.3-0.1
	c-0.1,0.1-0.4,0.3-0.6,0.4c0-0.1,0-0.1,0-0.2c0.3-0.2,0.5-0.5,0.8-0.7c0.4-0.1,0.7-0.1,1-0.3c0.3-0.2,0.4-0.5,0.8-0.6
	c0.3-0.1,0.5,0,0.8-0.1c0.1,0,0.7-0.6,0.8-0.7c0.2-0.2,0.1-0.5,0.2-0.8c0.2-0.7,0.5-1.3,0.8-2c0.4-0.8,1-2,1.6-2.8
	c0.2-0.2,0.6-0.4,0.7-0.6c0.2-0.3,0.1-1.1,0.3-1.5c0.6-1.2,1.4-2.7,2.1-3.8c0.2-0.3,0.8-0.7,1-1c0.3-0.4,0.2-1.1,0.7-1.4
	c0.4-0.2,0.9-0.2,1.3-0.4c0.2-0.1,0.1-0.4,0.3-0.6c0.1-0.2,0.5-0.4,0.6-0.7c0.2-0.5,0-0.9,0.3-1.3c0.3-0.5,1.8-1,2.6-1
	c0.2-0.4,0.3-0.8,0.6-1.2c0.1-0.1,0.3-0.2,0.3-0.3c0.2-0.6,0.2-1.1,0.6-1.5c0.3-0.2,0.7-0.3,1-0.4c2-0.8,3.7,0.5,4.4,1.8
	c0.1,0.2,0.3,0.1,0.5,0.3c0.2,0.1,1.1,1.2,1.2,1.4c1.4,2.7,2.1,5.8,3.6,8.3c0.4,0.7,1.1,2.3,1.8,2.5c0-0.2,0-0.4,0-0.6
	c-0.7-0.7-0.9-1.6-1.2-2.6c-0.3-0.8-0.5-2-0.7-3c0-0.3,0-0.5,0-0.8c-0.5-2.1-0.6-5.9,0-7.9c0-0.6,0-1.3,0-1.9
	c0.3-1.1,0.9-1.9,2.3-1.9c0.4,0.5,0.9,0.5,1.2,1.2c0.5,1-0.3,1.8-0.1,2.8c0.6,2.8-0.4,6.4,0.3,9.1c0.3,1,0.3,3.4,1.2,3.7
	c0.1,0.1,0.1,0,0.2,0.1c0,0,0,0,0-0.1c0,0,0,0,0.1,0c0-0.8,0.6-2.1,0.5-2.4c-0.1-0.3-0.2-0.2-0.3-0.6c0.4-0.4,0.3-1,0.5-1.6
	c0.1-0.1,0.4-0.3,0.4-0.4c0-0.1-0.3-0.4-0.3-0.8c0.3-0.4,0.2-0.8,0.4-1.3c0.2-0.6,0.8-1,0.9-1.7c-1.1-1,0.9-3,1.1-3.7
	c-1.1-1.4-0.4-3.2,0.5-4.3c0.3-0.3,0.8-0.4,0.9-0.9c-1.2-0.9-1.6-3.2-1.2-5.2c0.1-0.6,0-0.9,0.2-1.4c0.3-0.7,1.7-1.6,1.7-2
	c-1-0.7-0.6-2.2-0.1-3.2c0.9-1.9,2.4-5.6,4.5-6c0-0.1,0-0.1,0-0.2c-0.4-0.3-0.6-0.7-1-1c0-2.3-0.1-5,0.5-6.7
	c0.3-0.1,0.9-0.2,1.3-0.3c0-0.1,0-0.3,0-0.4c-0.1-0.1,0,0-0.1-0.1c-0.2-0.1-0.9-0.5-1-0.7c-0.4-0.4-0.3-1.9-0.3-2.8
	c0-1.7,0-4.5,1-5.2c0.2,0,0.4-0.1,0.6-0.1c0,0,0,0,0-0.1c0,0,0,0-0.1,0c-0.1-0.3-0.4-0.3-0.6-0.6c-0.2-0.3-0.6-0.9-0.7-1.3
	c0-0.6,0-1.2,0.1-1.9c0-1.2,0-2.7,0.2-3.5c0-0.3,0-0.5,0-0.8c0.2-0.5,0.7-1.1,0.8-1.6c-1-0.7-0.5-3.3-0.6-4.9c0-0.7-0.4-1.6-0.2-2.5
	c0.5-1.9,1.1-5.9,4.1-5.1c1.4,0.4,1.4,1.1,2.1,2.1c0.3,0.5,0.8,1.1,1,1.7c0.8,2-0.1,4.1-0.6,5.8c0,0.5,0,1,0,1.4
	c-0.1,0.5-0.6,1.4-0.6,1.7c0.1,0.1,0.3,0.2,0.4,0.3c0.1,0.4,0.2,0.8,0.3,1.2c0.1,0.5,0,1,0.1,1.4c0,0.7,0,1.4,0,2.1
	c0.1,0.4,0.2,2.2,0.1,2.7c-0.1,0.4-0.5,1-0.7,1.3c-0.2,0.2-0.4,0.2-0.5,0.6c1.8,0.1,1.5,3.3,1.5,5.2c0,0.7,0.2,1.6-0.1,2.3
	c-0.3,0.7-1.1,0.9-1.2,1.4c0,0.1,0,0.2,0.1,0.3c0.4,0.2,1,0,1.2,0.4c0.5,0.7,0.7,4.5,0.4,5.7c0,0.3,0,0.6,0,0.9
	c-0.1,0.4-0.7,0.6-0.8,1c0,0,0,0,0.1,0c0.5,0.3,1.1,0.5,1.6,0.8c0.4,0.3,0.6,0.8,0.8,1.2c0.8,1.2,1.4,2.4,2.1,3.7
	c0.3,0.6,1.1,2,0.6,2.8c-0.1,0.3-0.4,0.6-0.6,0.8c0,0.1,0,0.1,0.1,0.1c0.3,0.4,0.9,0.7,1.2,1.1c0.6,0.9,1.1,3.6,0.7,5.2
	c-0.1,0.4-0.4,0.7-0.6,1c0,0.2-0.1,0.4-0.1,0.6c-0.1,0.3-0.4,0.2-0.4,0.6c0.7,0.2,2.3,2.4,2.1,3.4c-0.1,0.7-0.5,1.1-0.6,1.8
	c0.6,0.6,1.3,1.5,1.5,2.3c0.2,0.6-0.3,1-0.2,1.3c0.1,0.3,0.3,0.4,0.5,0.6c0.2,0.3,1,1.8,1,2.1c0.1,0.4-0.2,0.5-0.3,0.9
	c0.4,0.2,1,1.6,1,2.1c-0.2,0.1-0.3,0.2-0.3,0.5c0.5,0.4,0.7,1.9,1.6,2.1c1-2,1.4-7.3,0.7-10c-0.2-0.8,0.2-1.9,0.1-2.6
	c-0.1-0.4-0.3-0.9-0.4-1.4c-0.3-1.4,0.5-2.6,1.5-2.7c0.2,0.1,0.3,0.1,0.6,0.1c0.3,0.1,0.8,0.5,1,0.8c0.4,0.5,0.4,1.3,0.6,2.1
	c0,0.2,0,0.5,0,0.7c0.1,0.2,0.3,0.5,0.4,0.8c0.2,0.7,0.1,2,0.1,3c0,1.9,0.1,3.8-0.3,5.4c-0.2,0.7,0,1.3-0.2,2
	c-0.2,0.8-0.5,1.9-0.9,2.5c-0.2,0.3-0.7,0.9-0.5,1.4c0.1,0.2,0,0,0.1,0.1c0,0,0,0,0-0.1c0.9-0.8,1.3-1.9,1.9-3
	c0.8-1.5,1.5-3.2,2.2-4.9c0.4-1,0.6-2,1.1-3c0.2-0.4,0.7-1,1-1.3c0.1-0.1,0.4-0.2,0.6-0.3c0.1-0.2,0.1-0.4,0.2-0.6
	c0.4-0.6,2.3-1.9,3.7-1.5c0.8,0.2,1.6,0.6,1.9,1.3c0.3,0.6,0.5,2.1,1.2,2.2c0.3,0.2,0.6,0,1,0.1c0.6,0.1,1.6,0.6,1.9,1
	c0.4,0.7,0.2,1.9,1,2.3c0.5,0.4,1.4,0.3,1.9,0.7c0.4,0.4,0.3,0.9,0.5,1.3c0.1,0.1,0.3,0.1,0.4,0.2c0.4,0.4,0.9,1,1.1,1.4
	c0.6,1,1.1,2,1.6,3c0.1,0.2,0.3,0.7,0.3,0.8c0,0.2-0.2,0.5,0,0.8c0.1,0.2,0.4,0.2,0.6,0.4c0.4,0.6,0.8,1.3,1.2,1.9
	c0.3,0.6,0.6,1.3,0.9,1.9c0.1,0.2,0.1,0.5,0.2,0.7c0.2,0.3,0.8,0.5,1.1,0.7c0.5,0.3,1.2,1,1.5,1.4c0.1,0.1,0.1,0.4,0.2,0.5
	c0.6,0.5,1.3,0.1,1.7,1c0,0-0.1,0-0.1,0c-0.4-0.5-0.6-0.1-0.9-0.2c-0.1-0.1,0.1-0.1-0.1-0.1c0,0,0,0.1,0,0.1
	c0.5,0.3,0.2,0.7,0.3,1.4c0.2,1,0.1,1.6-0.4,2.4c-0.2,0.4-0.7,0.6-0.8,1.1c0.3,0.3-0.1,1.1-0.2,1.4c-0.6,1.4-0.9,2.5-1.9,3.4
	c-1.9,1.7-3.6,2.7-6.3,3.6c-0.2,0-0.3,0-0.5,0c-0.4,0.1-0.9,0.3-1.2,0.3c-0.3,0-0.6,0-1,0c-0.7,0.1-1.6,0.2-2.3,0
	c-0.4,0-0.7,0-1.1,0c-0.5-0.1-1-0.4-1.6-0.6C104.8,98.1,104.8,98,104.8,97.9z M100.8,66.7c0.1,0.2,0,0.1,0.1,0.2c0,0,0-0.1,0-0.1
	C100.9,66.7,100.9,66.7,100.8,66.7z M98.3,77.3c1.4,0,3-0.2,4.2,0.1c0.5,0.1,1-0.1,1.4,0.1c0.6,0.3,0.8,1.3,1.6,1.6
	c0.4-0.9,2.4-1.2,3.5-0.8c0.3,0.1,1.1,0.6,1.4,0.5c0,0,0,0,0.1,0c0,0,0,0,0-0.1c0,0,0,0-0.1,0c-0.1-0.3-0.4-0.4-0.5-0.7
	c-0.4-0.7-0.6-1.5-0.9-2.1c-0.1-0.3-0.2-0.6-0.3-0.9c-0.1,0-0.3,0-0.4,0c-0.4-0.1-0.9-0.3-1.2-0.6c-0.4-0.3-0.4-0.9-1-1
	c-0.5-0.3-1.5-0.2-2.1-0.4c-0.4-0.1-1-0.3-1.4-0.5c-0.3-0.2-0.5-0.4-0.8-0.6c0,0,0,0,0,0.1c-0.3,0.3-0.4,0.6-0.6,1
	c-0.6,0.9-1.3,1.7-1.9,2.6C98.9,76.2,98.4,76.7,98.3,77.3z M48.5,72.4C47.3,73.6,45,73.6,43,74c-0.3,0.5-0.7,0.9-1.2,1.1
	c-0.3,0.1-0.5,0.1-0.7,0.3c-0.2,0.3-0.1,0.6-0.3,0.9c-0.5,1-0.9,2.2-1.6,3c-0.3,0.3-1,0.5-1.4,0.7c0,0,0,0,0,0.1c0.2,0,0.4,0,0.6,0
	c0.2-0.1,0.8,0,1-0.1c0.2-0.1,0.4-0.4,0.6-0.6c0.4-0.3,2.3-1,3-0.9c0.3,0.1,0.9,0.3,1.2,0.3c0.1,0,0.3,0,0.4,0
	c0.4,0.2,0.3,0.5,0.9,0.6c0.2-0.3,1-1.4,1.2-1.5c0.3,0,0.6,0,0.9-0.1c1.3-0.3,3.1-0.3,4.5-0.3c0-0.1,0-0.1,0.1-0.2
	c-0.6-0.4-0.9-1.3-1.2-1.9c-0.7-1-1.7-2-2.3-3.1C48.6,72.4,48.5,72.4,48.5,72.4z M111,73.3c-0.1,0.3,0,0.6,0.2,0.8
	c0-0.1,0-0.2,0-0.3c0-0.1,0-0.1,0-0.3C111.2,73.3,111.1,73.3,111,73.3z M111.6,75.3c0,0.6,0.2,0.9,0.3,1.4c0.1,0.5,0.1,1,0.2,1.4
	c0.8,0,0.8,0.5,1.4,0.6c0-0.1,0-0.1,0.1-0.2c-0.1-0.1-0.1-0.2-0.1-0.3c-0.1,0-0.2,0-0.3,0c-0.2-0.1-0.2-0.5-0.3-0.7
	c-0.3-0.6-0.8-1.2-1-1.7C111.6,75.5,111.8,75.5,111.6,75.3z M37.1,78.5c0.2,0,0.3,0,0.5,0c0.1-0.1,0,0,0.1-0.1
	c0-0.5,0.1-0.8,0.1-1.2c0,0,0,0-0.1,0c-0.1,0.1,0,0-0.1,0.1C37.5,77.6,37.2,78,37.1,78.5z M36.7,78.5c0,0.1,0,0.1-0.1,0.3
	c0,0,0.1,0,0.1,0c0.1-0.1,0.1-0.1,0.1-0.2c0,0,0,0-0.1,0C36.8,78.5,36.8,78.6,36.7,78.5z M114,79.8c0-0.3-0.2-0.6-0.5-0.7
	c-0.1,0.2-0.4,0.4-0.5,0.6c0.1,0,0.3,0,0.4,0C113.5,79.8,113.8,79.8,114,79.8z M111.1,79.3c0.1,0.1,0.4,0.4,0.5,0.3c0,0,0,0,0.1,0
	c0,0,0,0,0-0.1C111.5,79.5,111.3,79.4,111.1,79.3z M36,80.5c0.3,0,1.3-0.2,1.5-0.3c-0.4,0-0.8-0.2-1.2-0.3
	C36.1,80.1,36,80.2,36,80.5z"/>
</svg>
