<?xml version="1.0" encoding="utf-8"?>
<!-- Generator: Adobe Illustrator 23.1.1, SVG Export Plug-In . SVG Version: 6.00 Build 0)  -->
<svg version="1.1" id="Layer_1" xmlns="http://www.w3.org/2000/svg" xmlns:xlink="http://www.w3.org/1999/xlink" x="0px" y="0px"
	 viewBox="0 0 150 100" style="enable-background:new 0 0 150 100;" xml:space="preserve">
<path d="M9.5,55.2c0.3,0.1,0.6,0.2,0.9,0.3c2.4,0.1,4.8-0.3,7-1.2c0.3-0.1,0.7-0.3,1-0.5c0.1,0,0.1-0.1,0.2-0.2
	c0.1-0.5,0.2-0.6,0.8-0.6c0.4,0,0.9-0.4,0.9-0.7c0.4-0.3,0.8-0.4,1.1-0.7c1.7-1.3,3.3-2.7,4.9-4c0.2-0.1,0.4-0.2,0.6-0.2
	c1.7-0.1,3.5-0.1,5.2-0.3c0.9-0.1,1.8-0.2,2.6-0.6c1-0.5,1.9-1.3,2.5-2.2c0.6-0.9,1.2-1.9,1.7-2.8c0,0,0.1,0,0.1,0.1
	c1.1,1.4,2.5,2.4,4,3.3c0.9,0.5,1.9,0.5,2.9,0.4c1-0.2,2.1-0.5,3.1-0.7c0.6-0.1,1.1-0.2,1,0.7c-0.1,0.5-0.3,1-0.4,1.5
	c-0.1,0.4-0.4,0.8-0.1,1.2c0,0.1,0,0.3-0.1,0.4c-0.1,0.2-0.2,0.4-0.4,0.5c-0.6,0.6-0.7,1-0.3,1.8c-0.5,0.1-0.7,0.3-0.7,0.9
	c0,0.5,0.1,1,0.3,1.4c0.1,0.3,0,0.4-0.2,0.6c-1.2,1-1.9,2.3-2,3.9c-0.1,0.8-0.6,1.5-1.2,1.8c-1.5,0.9-2.2,2.3-2.5,3.9
	c0,0.2-0.1,0.4-0.1,0.5c0.5-0.4,1-0.9,1.5-1.3c0.7-0.4,1.4-0.7,2.1-1c0.4-0.2,0.8-0.4,0.8-0.9c0.1-0.6,0.2-1.2,0.8-1.5
	c0.1-0.1,0.2-0.1,0.3-0.2c0.2,0.4,0.5,0.7,0.7,1c0.1,0.1,0.1,0.3,0,0.4c-0.3,1-0.6,2-0.9,3c0,0.1,0,0.2,0,0.3
	c0.6-0.4,1.1-0.8,1.7-1.1c0.6-0.3,0.9-0.8,1-1.4c1.3,0.4,2.6,0.4,3.9-0.2c0,0.9,0,1.6,0,2.4c0,0.6,0,1.3,0,1.9
	c0,0.3,0.1,0.4,0.4,0.2c0.2-0.2,0.5-0.3,0.8-0.5c0.3-0.2,0.4,0,0.4,0.2c0,0.2,0,0.4,0.1,0.6c0,0.1,0.1,0.4,0.2,0.4
	c0.1,0,0.3-0.1,0.4-0.2c0.2-0.1,0.4-0.3,0.6-0.5c0.1-0.1,0.2-0.1,0.3-0.1c0,0,0.1,0.1,0.1,0.1c-0.2,0.3-0.3,0.6-0.5,0.9
	c-0.7,0.8-1.4,1.6-2.1,2.4c-0.3,0.3-0.5,0.7-0.6,1c-0.1,0.3-0.3,0.5-0.6,0.5c-1.6,0.3-3,1-4.3,1.9c-0.4,0.2-0.7,0.5-1,0.8
	c-0.3,0.4-0.7,0.3-1.1,0.2c-1.1-0.3-2.2-0.5-3.2-0.8C43.4,72,42.7,72,42,71.8c-0.2,0.5-0.3,0.5-0.6,0.3c-0.5-0.5-1.2-0.5-1.8,0
	c-0.1,0.1-0.1,0.1-0.2,0.1c0-0.1-0.1-0.2-0.1-0.3c-0.3-0.2-0.9,0-1,0.3c-0.8-0.5-1.6,0-2.4,0.1c-0.8,0.1-1.6,0.3-2.4,0.6
	c-1.3,0.5-2.5,1.1-3.8,1.7c-0.9,0.5-1.7,1.1-2.5,1.7c-0.2,0.1-0.4,0.4-0.5,0.6c-0.3,0.5-0.1,0.9,0.5,1c0.6,0.1,1.2-0.1,1.8-0.4
	c0,0,0.1,0,0.1-0.1c0.5-0.3,0.9-0.5,1.5,0.2c0.7,0.8,1.7,0.8,2.8-0.1c1-0.9,2.2-1.1,3.4-1c0.2,0,0.4,0.2,0.5,0.3
	c0.5,0.7,1.1,1.2,1.8,1.2c0.5,0.1,1-0.1,1.5-0.3c0.7-0.2,1.4-0.5,2.1-0.8c0.6-0.2,1,0,1.4,0.4c0.1,0.1,0.1,0.1,0.2,0.2
	c0.8,1,1,1,2.2,0.7c0.6-0.2,0.9,0,1,0.5c0.1,0.3,0.1,0.3,0.4,0.2c0,0.3-0.1,0.5-0.5,0.5c-0.2,0-0.4,0.1-0.5,0.2
	c-1.4,0.8-2.3,1.9-3.3,3.1c-0.6,0.7-1.4,1.3-2.5,1.3c-0.7,0-1.2-0.5-1.7-0.9c-0.1-0.1-0.3-0.2-0.4-0.3c-0.4-0.2-0.8-0.1-1,0.3
	c-0.1,0.1-0.1,0.2-0.1,0.3c-0.2,0.5-0.6,0.7-1.2,0.5c-0.8-0.2-1.5-0.5-2.3-0.7c-0.3-0.1-0.7,0-1,0.1c-1.1,0.6-2.3,0.6-3.4,0.3
	c-1-0.3-2-0.7-3-1c0.1,0.7,0.5,1.2,1,1.7c0.9,1,2,1.7,3.2,2.3c1.5,0.8,3.1,1.4,4.8,1.8c1.7,0.4,3.3,0.5,5,0.1
	c0.9-0.2,1.8-0.5,2.7-0.7c0.7-0.2,1.4-0.4,2.2-0.1c1.1,0.3,2.2,0.1,3.2-0.2c1.4-0.4,2.8-0.8,4.2-1.2c0.9-0.2,1.7-0.5,2.6-0.1
	c0,0.8-0.1,1.6-0.1,2.5c0,0.1-0.2,0.3-0.3,0.4c-1.1,0.9-2.1,1.8-2.7,3.1c-0.1,0.3-0.3,0.6-0.3,1c0.2-0.3,0.5-0.5,0.7-0.8
	c0.8-0.8,1.6-1.6,2.6-2.1c0.3-0.1,0.6-0.2,0.9-0.3c1.1-0.4,1.7-1.3,2.2-2.3c0.1-0.1,0.1-0.3,0.2-0.5c0.4,0.1,0.8,0.2,1.2,0.4
	c1.2,0.4,1.7-0.2,1.7-1.3c0-0.1,0-0.3,0-0.4c0.7,0.3,1.4,0.6,2.1,0.9c0.4,0.1,0.8,0.2,1.2,0.2c0.4,0,0.5-0.2,0.4-0.6
	c0-0.2-0.1-0.3-0.2-0.5c-0.3-0.6-0.2-1,0.4-1.3c0.8-0.5,1.6-0.9,2.5-1.3c0.1-0.1,0.4,0,0.5,0c0.7,0.1,1.4,0.2,2.1,0.1
	c1-0.1,1.6-0.8,1.8-1.8c0.1-0.5,0.2-0.7,0.7-0.9c0.7-0.2,1.1-0.8,1.5-1.5c0.4-0.7,0.7-1.5,1.1-2.3c0.4,0.6,0.8,1.1,1.2,1.7
	c0.2,0.3,0.5,0.6,0.7,0.9c0.7,0.9,1,1.9,1.3,2.9c0.1,0.6-0.1,1.3-0.2,1.9c-0.1,0.7-0.4,1.4-0.5,2.1c-0.2,0.7,0,1.1,0.7,1.3
	c0.3,0.1,0.7,0.2,1,0.3c-0.1,0.8-0.2,1.7-0.3,2.5c-0.1,1.1,0.1,2.2,0.6,3.3c0.2,0.4,0.2,0.9,0.4,1.3c0.2,1,0.5,2,0.7,3
	c0.1,0.5,0.3,0.9,0.5,1.4c0.1-0.5,0.2-1,0.3-1.5c0.2-1.3,0.4-2.7,0.6-4c0-0.3,0.2-0.5,0.3-0.8c0.3-0.6,0.4-1.3,0.3-2
	c-0.2-1.2-0.4-2.4-0.6-3.6c0-0.2,0-0.4,0.2-0.5c0.5-0.5,0.6-1.3,0.3-1.9c-0.7-1.5-1.1-3.1-1.4-4.7c-0.2-0.7-0.1-1.4-0.3-2.1
	c-0.3-1.3-1-2.4-2-3.4c-0.2-0.2-0.3-0.4-0.3-0.6c-0.1-1.3-0.5-2.6-1.1-3.8c-0.1-0.3,0-0.4,0.1-0.6c0.6-0.6,0.5-0.6,1.1-0.1
	c0.9,0.8,1.8,1.5,3,1.8c1.2,0.3,2.1-0.2,2.5-1.5c0-0.1,0-0.1,0-0.3c0.8,0.2,1.5,0.3,2.2,0.5c1.9,0.4,3.8,0.7,5.7,0.3
	c0.9-0.1,1.6-0.6,2.3-1.1c0.3-0.2,0.7-0.4,0.6-0.9c0.2,0.1,0.3,0.2,0.4,0.3c0.4-0.2,0.7-0.4,1.1-0.7c0.3-0.2,0.4,0,0.4,0.2
	c0.1,0.3,0.1,0.5,0.2,0.8c0.1,0.2,0.2,0.5,0.3,0.6c0.3,0.3,0.3,0.6,0.2,0.9c0,0.2-0.1,0.4,0,0.6c0.2,0.6,0.3,1.2,0.6,1.8
	c0.5,1.1,1.2,2,2.4,2.1c-0.1-0.2-0.2-0.3-0.3-0.5c0.3,0.2,0.5,0.4,0.4,0.8c-0.3,1.5-0.5,3-0.2,4.6c0,0.1,0.1,0.3,0.1,0.4
	c0.4,0.4,0.2,0.7,0.1,1.1c-0.3,1-0.7,1.9-0.9,2.9c-0.1,0.4-0.2,0.8-0.2,1.2c0,0.3,0.1,0.6,0.3,0.8c1,0.8,1.9,1.8,3.2,2.4
	c0.3,0.1,0.7,0.2,1,0.3c0.9,0.2,1.7,0.8,2.4,1.5c0.1-0.8-0.3-1.4-0.7-2c-0.6-0.8-1.5-1.3-2.3-1.9c-0.8-0.5-0.9-0.9-0.7-1.8
	c0.2-1,0.7-1.9,1.3-2.7c0.2-0.3,0.4-0.8,0.3-1.2c-0.1-1-0.3-2-0.6-3c0-0.2-0.2-0.3-0.4-0.5c-0.1-0.1-0.3-0.2-0.4-0.4
	c0,0,0.1-0.1,0.1-0.1c0.1,0,0.2,0.1,0.4,0.1c0.2-0.2,0.3-0.4,0.5-0.7c0.1,0,0.3-0.1,0.3-0.2c0.1-0.2,0.1-0.5-0.2-0.6
	c-0.3-0.2-0.4-0.3,0.1-0.5c-0.5-1-0.9-1.9-1.5-2.8c-0.6-1.1-1.3-2.2-1.9-3.3c-0.1-0.1-0.1-0.4-0.1-0.5c0.2-1-0.3-1.9-1.3-2.2
	c-0.4-0.1-0.8-0.3-1.3-0.5c2.2-0.5,4.1-1.5,5.8-2.7c1.1-0.8,2.1-1.8,3.2-2.7c0.6-0.6,1.9-0.4,2.6,0.4c0.8,0.9,1.6,1.9,2.5,2.8
	c1.2,1.2,2.7,2,4.4,2.3c0.9,0.1,1.8,0.1,2.7,0.2c0.3,0,0.4,0.1,0.6,0.3c0.9,1.1,1.8,2.1,2.7,3.2c0.4,0.5,1,0.6,1.6,0.3
	c0.4,0.5,0.9,1.1,1.3,1.6c0.9,1,1.9,1.7,3.2,1.9c0.2,0,0.3,0.1,0.5,0c0.5-0.1,0.6,0.1,0.7,0.5c0.2,0.9,0.3,0.9,1.2,0.9
	c1-0.1,1.9-0.3,2.9-0.4c0.8-0.1,1.7-0.1,2.5,0c0.9,0.1,1.8,0.4,2.8,0.7c0,0,0-0.1,0-0.1c-0.1,0-0.1,0-0.2-0.1
	c-0.9-1.2-2.2-1.7-3.7-1.9c-0.9-0.1-1.9,0-2.8,0c-0.2,0-0.3,0-0.4-0.3c-0.3-0.7-0.8-1.3-1.5-1.6c-1.2-0.5-2.2-1.2-3.3-2
	c-0.1-0.1-0.3-0.2-0.3-0.3c-0.1-0.9-0.7-1.2-1.4-1.4c-0.7-0.2-1.4-0.4-2.1-0.7c-1-0.5-1.9-1.1-2.5-2.1c-0.1-0.2-0.4-0.5-0.6-0.6
	c-1-0.3-1.7-1.1-2.8-1.2c0,0-0.1,0-0.1-0.1c-0.2-0.5-0.7-0.6-1.1-0.8c-1.1-0.7-2.3-1.4-3.4-2c-1.3-0.7-2.6-1.2-4.1-1.4
	c-1.6-0.2-3.1,0.1-4.7,0.3c-0.2,0-0.4,0.1-0.7,0.2c0,0,0-0.1,0-0.1c0.4-0.3,0.8-0.6,1.2-0.9c1.3-1,2.6-2.1,3.9-3.2
	c0.5-0.4,0.9-0.9,0.8-1.5c-0.1-0.7,0.2-1.1,0.6-1.5c0.1-0.1,0.3-0.3,0.4-0.5c0.8-1,1.7-2,2.1-3.4c0.3-1.1,0.3-2.2-0.1-3.2
	c-0.3-0.6-0.1-0.9,0.2-1.3c0.4-0.5,0.6-1,0-1.6c0.7-0.5,1.4-0.9,2-1.4c1.1-0.8,2.1-1.7,3.1-2.6c0.6-0.5,0.7-1.1,0.4-1.9
	c-0.1-0.3-0.3-0.5-0.4-0.8c0.1-0.1,0.2-0.2,0.3-0.4c1.2-1.6,2.5-3.3,3.7-4.9c0.7-0.9,1-2,0.7-3.2c-0.1-0.4-0.4-0.8-0.5-1.1
	c0.4-0.4,0.8-0.8,1.1-1.3c1.1-1.6,1.7-3.4,2.3-5.2c0.2-0.6,0.4-1.3,0-1.9c-0.2-0.4-0.5-0.7-0.8-1.1c0.1-0.1,0.3-0.2,0.4-0.4
	c0.2-0.4,0.6-0.8,0.7-1.2c0.5-1.8,0.6-3.7,0.6-5.6c0-0.7,0-1.5-0.1-2.2c-0.1-0.9-0.6-1.3-1.5-1.4c-0.3,0-0.4-0.1-0.5-0.4
	c-0.5-1.6-1.5-2.9-2.9-3.8c-1.8-1.2-3.8-1.7-5.9-2c-0.2,0-0.4-0.1-0.6-0.1c-1,0-2.1,0-3.1,0c-0.3,0.1-0.7,0.2-1,0.3
	c-0.2,0.1-0.4,0.1-0.6,0.2c-0.7,0.4-0.8,0.8-0.3,1.3c-0.1,0.5-0.2,0.9-0.3,1.3c-0.1,0.7,0.7,0.3,0.9,0.7c-0.9-0.3-0.9,0.7-1.4,1
	c-0.1-0.1-0.2-0.2-0.2-0.3c-1.3,0.6-2.2,2.3-2,3.7c0.2,1.5,1.1,2.5,2.4,3.3c0.5,0.3,1.2,0.5,1.7,0.8c0.2,0.1,0.3,0.3,0.4,0.5
	c1,2.3,0.4,4.5-0.9,6.5c-0.2,0.3-0.4,0.6-0.6,1c0.5-0.3,1.1-0.6,1.6-1c1-0.7,1.9-1.6,2.4-2.8c0.5-1.1,0.6-2.3,0.2-3.5
	c-0.2-0.6-0.5-1.2-0.7-1.9c-0.1-0.3,0-0.6,0.1-0.9c0.3-1,0.4-1.9,0.2-2.9c-0.2-0.7-0.4-1.4-1.2-1.7c-0.1,0-0.2-0.1-0.3-0.2
	c-0.2-0.2-0.1-0.4,0.1-0.4c0.4-0.1,0.9-0.2,1.3-0.2c0.1,0,0.4,0.1,0.4,0.2c1.1,1.9,2.9,2.9,4.9,3.5c0.4,0.1,0.8,0.3,0.9,0.8
	c0,0.2,0,0.5-0.1,0.7c-0.3,0.8-0.7,1.5-0.9,2.3c-0.3,0.8,0,1.9,0.9,2.3c0.5,0.3,0.6,0.6,0.4,1.3c-0.1,0.6-0.4,0.9-0.9,1.2
	c-1,0.5-1.9,1.2-2.5,2.1c-0.6,0.7-0.6,1.6-0.3,2.4c0.3,0.9,0.8,1.7,1.3,2.5c0.2,0.3,0.2,0.5,0,0.8c-0.2,0.4-0.5,0.7-1.1,0.9
	c-1,0.2-1.6,1-2.1,1.8c-0.6,0.9-0.9,1.8-0.5,2.9c0.1,0.4-0.1,0.7-0.4,0.9c-0.1,0.1-0.4,0.1-0.6,0c-1.2-0.4-2.1-0.1-2.7,0.8
	c-0.8,1.1-1.2,2.4-1.6,3.8c-1.5-0.7-2.5,0.2-3.3,1.3c-0.3-0.1-0.5-0.2-0.8-0.3c-0.9-0.2-1.5,0.3-2.1,0.9c-1,1-2,2.1-3,3.1
	c-0.1,0.1-0.2,0.2-0.3,0.4c-0.5-0.4-1-0.3-1.5-0.1c-1.1,0.5-2,1.5-2.8,2.3c0,0.1-0.1,0.1-0.1,0.2c-0.1,0-0.1,0.1-0.1,0.1
	c-0.5-0.2-0.9-0.3-1.4-0.5c-0.3-1.3-1.1-2.6-2.2-3.6c-0.2-0.2-0.4-0.2-0.7-0.2c-0.6,0.2-0.9,0-0.9-0.6c-0.1-0.7-0.7-1.1-1.4-0.9
	c-0.8,0.3-1.4,0.8-1.9,1.5c-0.1,0.2-0.2,0.2-0.4,0.1c-0.5-0.4-1.2-0.2-1.5,0.4c-0.4,0.9-0.7,1.8-1.1,2.7c-0.2,0.7-0.4,1.5-0.6,2.2
	c0,0.2-0.2,0.3-0.3,0.4c-0.6,0.4-0.9,0.9-1.2,1.5c-0.2,0.5-0.4,1-0.6,1.5c-0.1,0.3-0.4,0.5-0.6,0.7c-0.3,0.3-0.7,0.5-1.1,0.8
	c-0.5-0.5-1.2-0.3-1.9-0.1c0.1-1.1-0.7-1.8-1.3-2.5c-0.3-0.4-0.6-1-0.7-1.5c-0.2-0.7-0.6-1.2-1.4-1.4c-0.8-0.2-1.6-0.2-2.3,0.2
	c-0.4,0.2-0.6,0.6-0.6,1.1c0,0.1,0,0.2,0,0.3c0,0.7,0,1.3-0.5,1.9c-0.9,1-0.7,2.2-0.6,3.4c0,0.3,0.1,0.5,0.1,0.9
	c-0.8-0.1-1.5-0.1-2.3-0.2c-0.4,0-0.9-0.1-1.3-0.1c-0.3,0-0.4-0.1-0.5-0.3c-0.2-0.4-0.4-0.8-0.5-1.2c0-0.1,0-0.2,0-0.3
	c0.2-0.6,0.5-1.3,0.7-1.9c0.2-0.5,0-1.2-0.9-1.2c-0.4,0-0.8,0.1-1.2,0.2c-0.1,0-0.3,0.1-0.3,0c-1-0.5-1.9-0.3-2.8,0.2
	c-0.8,0.4-1.5,0.9-2.3,1.4c-0.2,0.1-0.4,0.2-0.6,0.1c-0.5-0.2-1.1-0.3-1.6-0.4c-0.2,0-0.4-0.1-0.6-0.1c0.2-0.4,0.4-0.8,0.6-1.3
	c0.7-1.5,0.8-3.2,0.8-4.8c-0.1-1.1-0.4-1.4-1.5-1.4c-0.2,0-0.4-0.1-0.5-0.2c-1.1-0.9-2.1-1.8-3.2-2.7c-0.7-0.6-1.5-1-2.5-1.2
	c-1.2-0.3-2.5-0.6-3.7-0.9c-0.2-0.1-0.5-0.2-0.6-0.3c-0.4-0.8-1-1-1.8-0.9c-0.1,0-0.2,0-0.2,0c-0.3-0.3-0.5-0.6-0.8-0.8
	c-0.5-0.3-1-0.3-1.5,0c-0.2,0.2-0.3,0.2-0.6-0.1c-0.7-0.8-1.7-1.1-2.7-1.2c-0.9-0.1-1.8,0.2-2.6,0.7c-0.8,0.4-1.5,0.3-2.2-0.1
	c-0.1-0.1-0.3-0.1-0.4,0c-0.5,0.2-1,0.4-1.5,0.6c-0.2,0.1-0.4,0.1-0.6,0.1c-1.3-0.1-2.6,0.2-3.8,0.7c-1.2,0.5-2.1,1.5-2.8,2.6
	c-0.2,0.3-0.3,0.6-0.6,0.9c-0.1,0.2-0.3,0.4-0.6,0.4c-1,0.4-2.1,0.7-3.1,1.1c-1.7,0.6-3.2,1.6-4.7,2.8c-1.2,1-2.3,2.1-3.2,3.4
	c-0.1,0.1-0.1,0.3,0,0.5c0.1,0.2,0,0.4-0.2,0.3c-0.3-0.1-0.4,0.1-0.4,0.2c-0.5,1-1.1,2.1-1.1,3.3c0,0.3,0,0.5,0,0.8
	c0,0.1,0.1,0.4,0.2,0.4c0.2,0,0.4-0.1,0.5-0.2c0.2-0.3,0.4-0.6,0.6-0.9c0.3-0.4,0.5-0.8,1-0.9c0.2,0,0.3-0.2,0.4-0.4
	c0.3-0.5,0.8-0.7,1.3-0.9c0.4-0.1,0.8-0.3,0.8-0.8c0-0.4,0.3-0.5,0.6-0.4c1,0.2,1.8-0.2,2.4-0.9c0.4-0.5,0.8-0.9,1.3-1.3
	c0.6-0.6,1.1-0.4,1.3,0.4c0.1,0.4-0.2,0.6-0.4,0.8c-0.2,0.1-0.5,0.3-0.7,0.3c-0.4,0.1-0.4,0.4-0.3,0.8c0.2,0.7,0,0.9-0.7,0.7
	c-0.4-0.1-0.5,0-0.5,0.4c0,0.1,0,0.1,0,0.2c0.1,0.9,0.1,0.9-0.8,0.9c-0.3,0-0.5,0.1-0.7,0.5c-0.2,0.5-0.5,1-0.8,1.5
	c-0.1,0.1-0.2,0.2-0.3,0.2c-0.1-0.2-0.2-0.4-0.3-0.4c-0.3,0.1-0.7,0.1-0.9,0.4c-0.2,0.4-0.3,0.8-0.4,1.3c-0.4,0-0.8,0-1.2,0
	c-0.3,0-0.5,0.1-0.5,0.4c-0.1,0.9-0.7,1.3-1.4,1.6c-0.6,0.3-1.2,0.4-1.8,0.7C9.5,55.1,9.5,55.2,9.5,55.2z M73.5,68.3
	c-1,1.7-2.9,2.8-4,4.5c-0.7-0.5-1.4-1-2.2-1.6c1.1-1,2.2-1.9,3.3-2.8C71.4,67.7,73,67.8,73.5,68.3z M86.9,47.1
	c0.8-1.3,1.5-2.5,2.2-3.7c0.6,0.2,1,0.1,1.4-0.5c0.7,0.6,1.4,1.2,2.1,1.8c-1.2,1-2.3,1.8-3.5,2.8C88.5,46.5,87.7,46.9,86.9,47.1z
	 M60,52.5c0-0.6,0-1.3,0-1.9c0-0.1,0.2-0.3,0.3-0.4c0.7-0.2,1.5-0.5,2.2-0.7c0.1,0,0.3,0.1,0.3,0.2c0.2,0.2,0.3,0.5,0.5,0.7
	c0.7,0.4,0.6,1.1,0.7,1.7C62.8,52.2,61.4,52.3,60,52.5z M54.4,53.2c0.5-0.5,1-0.8,1.6-0.9c0.3,0,0.4,0.1,0.4,0.4
	c-0.1,0.8-0.1,1.7-0.2,2.5c0,0.1-0.2,0.2-0.3,0.3c-0.5,0.1-0.7-0.1-0.7-0.6C55.2,54.2,55.1,53.6,54.4,53.2z M77.2,50.6
	c-0.4,0.3-0.7,0.5-1,0.7c-0.2,0.1-0.7-0.1-0.7-0.3c0-0.7,0-1.4,0-2.3C76.1,49.4,76.6,50,77.2,50.6z M90.1,65.9
	c0.9-0.4,1.7-0.7,2.5-1c0.4,0.3,0.8,0.6,1.2,1C92.5,65.9,91.4,65.9,90.1,65.9z"/>
</svg>
