<?xml version="1.0" encoding="utf-8"?>
<!-- Generator: Adobe Illustrator 23.1.1, SVG Export Plug-In . SVG Version: 6.00 Build 0)  -->
<svg version="1.1" id="Layer_1" xmlns="http://www.w3.org/2000/svg" xmlns:xlink="http://www.w3.org/1999/xlink" x="0px" y="0px"
	 viewBox="0 0 150 100" style="enable-background:new 0 0 150 100;" xml:space="preserve">
<g>
	<g>
		<g>
			<g>
				<path d="M80.5,60.4c-0.2-0.1-0.3-0.2-0.4-0.2c-0.1,0-0.1-0.1-0.1,0c-0.2,0.3-0.5,0.1-0.8,0.2c-0.1,0-0.1-0.1-0.2-0.1
					c0.1-0.1,0.1-0.1,0.1-0.2c0,0,0.1-0.1,0.1-0.1c0.1-0.2,0.2-0.4,0.3-0.5c0.2-0.2,0.4-0.4,0.4-0.7c0,0,0-0.1,0.1-0.1
					c0.2-0.1,0.3-0.3,0.4-0.5c0-0.1,0.1-0.1,0.1-0.2c0.2-0.2,0.4-0.4,0.5-0.6c0.1-0.1,0.2-0.2,0.2-0.3c0-0.4,0.5-0.4,0.5-0.8
					c0.1,0,0.1,0,0.2,0c0,0.1-0.1,0.3-0.1,0.4c0,0.1-0.1,0.2-0.1,0.2c0,0.1,0,0.2-0.1,0.2c-0.1,0.2-0.3,0.4-0.4,0.7
					c-0.1,0.2,0,0.4-0.2,0.6c-0.1,0.1-0.1,0.4-0.2,0.7C80.7,59.6,80.6,60,80.5,60.4 M73.8,60.2c0.2-0.1,0.4,0,0.5-0.2
					c0-0.1,0.2-0.2,0.3-0.2c0.3-0.2,0.5-0.4,0.8-0.5c0.1-0.1,0.2-0.2,0.3-0.3c0.1-0.1,0.2-0.3,0.3-0.4c0.3-0.3,0.7-0.3,0.9-0.7
					c0.1-0.1,0.3-0.2,0.4-0.3c0.1-0.1,0.2-0.1,0.2-0.2c0.1,0,0.1,0,0.2,0c0,0.1,0,0.2,0,0.2c-0.1,0.2-0.3,0.4-0.4,0.6
					c-0.1,0.1-0.2,0.2-0.2,0.3c-0.1,0.3-0.3,0.5-0.4,0.7c-0.1,0.1-0.2,0.2-0.3,0.3c-0.2,0.3-0.4,0.6-0.5,0.9
					c-0.1,0.1-0.2,0.2-0.3,0.4c-0.1,0.1-0.3,0.2-0.3,0.4c-0.1,0.3-0.3,0.5-0.6,0.6c0,0-0.1,0-0.1,0C74.5,62,74.3,62,74.1,62
					c-0.4,0.1-0.8-0.1-1.1,0.2c-0.1,0.1-0.2,0-0.2,0c-0.1,0-0.1-0.1-0.1-0.1c0,0,0-0.1,0-0.1c0.4-0.2,0.4-0.6,0.6-0.8
					c0.1-0.1,0.2-0.1,0.2-0.2C73.6,60.7,73.7,60.4,73.8,60.2 M72.4,0c0,0.2-0.1,0.2-0.3,0.2c-0.4,0-0.8,0-1.1,0
					c-0.1,0-0.3,0.1-0.4,0.1c-0.2,0-0.4,0.1-0.6,0.1c-0.1,0-0.3,0.1-0.4,0.2c-0.1,0-0.2,0.1-0.3,0.1c-0.2,0-0.4-0.1-0.5,0.2
					c0,0-0.1,0-0.1,0c-0.3,0-0.6,0.2-0.8,0.4c0,0-0.1,0-0.1,0.1c-0.2,0-0.3,0.3-0.5,0.4c-0.2,0.1-0.2,0.4-0.4,0.5
					c-0.1,0-0.1,0.1-0.1,0.2c0,0.2,0,0.3,0,0.5c-0.5,0-0.9,0-1.3,0C65.3,3,65,3,64.9,3.2c0,0-0.1,0-0.1,0c-0.4-0.1-0.7,0.1-1,0.3
					c-0.3,0.2-0.6,0.3-0.8,0.6c-0.1,0.2-0.4,0.3-0.6,0.5c-0.1,0.1-0.2,0.2-0.3,0.3C62,5.2,62,5.4,61.8,5.7c-0.1,0.2-0.3,0.4-0.4,0.6
					c0,0,0,0,0,0c-0.1,0.2-0.2,0.5-0.3,0.7c-0.1,0.2-0.2,0.4-0.4,0.7c0,0-0.1,0-0.1,0.1c-0.1,0.2-0.2,0.5-0.3,0.7
					c0,0.1-0.1,0.1-0.1,0.2c0,0-0.1,0.1-0.1,0.1C60.2,9,60.1,9.4,60,9.6c-0.2,0.2-0.1,0.6-0.4,0.7l0,0c-0.1,0.3-0.2,0.6-0.3,0.9
					c-0.1,0.3-0.3,0.6-0.4,0.9c0,0.1,0,0.2-0.1,0.2c0,0.2,0.1,0.4-0.2,0.5c0,0,0,0,0,0.1c-0.1,0.4-0.2,0.7-0.2,1.1
					c-0.1,0.4-0.1,0.7-0.2,1.1c-0.1,0.4-0.2,0.9,0.1,1.4c0.1,0.2,0.1,0.5,0.1,0.7c0,0.1,0.1,0.3,0.2,0.4c0,0,0,0,0,0.1
					c0.1,0.3,0.2,0.5,0.3,0.8c0,0.1,0.1,0.2,0.1,0.2c-0.1,0.2-0.1,0.4-0.1,0.6c0,0.3-0.2,0.7,0.2,1c0,0,0,0.1,0,0.2
					c0,0.3,0.2,0.5,0.4,0.7c0.2,0.2,0.3,0.4,0.5,0.6c0.3,0.2,0.5,0.5,0.8,0.6c0.2,0.1,0.4,0.2,0.7,0.4c0,0,0.1,0,0.1,0
					c0.6,0,1.2,0.4,1.8,0.2c0.3-0.1,0.8-0.1,1-0.3c0.2-0.2,0.5-0.1,0.7-0.4c0.1-0.1,0.4-0.1,0.5-0.3c0.3-0.3,0.6-0.5,0.8-0.8
					c0.1-0.1,0.2-0.2,0.4-0.4c0.1-0.1,0.2-0.2,0.2-0.3c0.1-0.2,0.2-0.5,0.3-0.7c0-0.1,0.1-0.1,0.1-0.2c0,0,0.1,0,0.1-0.1
					c0.1-0.3,0.2-0.5,0.3-0.8c0.1-0.3,0.3-0.5,0.4-0.8c0,0,0.1-0.1,0.1-0.1c0-0.3,0.2-0.5,0.4-0.7c0.2-0.2,0.3-0.4,0.5-0.6
					c0,0,0,0,0.1,0c0.5-0.1,1-0.4,1.5-0.2c0.4,0.2,0.7,0.1,1.1,0.2c0.1,0,0.1,0.1,0.2,0.1c0,0,0.1,0.1,0.1,0.1
					c0.3-0.1,0.5,0.2,0.7,0.3c0.2,0.1,0.4,0.2,0.6,0.4c0.3,0.2,0.5,0.4,0.8,0.6c0.1,0.1,0.3,0.2,0.4,0.3c0.1,0.1,0.2,0.2,0.3,0.3
					c0,0,0.1,0,0.2,0c0-0.1,0-0.1-0.1-0.2c0,0-0.1,0-0.1-0.1c0-0.3-0.2-0.5-0.4-0.7c-0.1-0.1-0.2-0.3-0.3-0.5
					c-0.1-0.1-0.2-0.3-0.4-0.4c-0.1,0-0.2-0.2-0.2-0.2c-0.3-0.2-0.5-0.4-0.8-0.7l0,0c-0.3-0.1-0.5-0.2-0.8-0.3
					c-0.1,0-0.2-0.1-0.3-0.2c-0.1,0-0.2-0.1-0.2-0.1c-0.5,0-1.1,0-1.6,0c-0.1,0-0.2,0-0.3,0c0,0-0.1-0.1-0.1-0.1c0,0,0-0.1,0-0.1
					c0.2,0,0.4-0.1,0.5-0.3c0.1-0.1,0.2-0.1,0.3-0.2c0.2-0.3,0.6-0.3,0.8-0.7c0.1-0.2,0.4-0.3,0.6-0.5c0.1-0.1,0.2-0.2,0.2-0.3
					c0.1-0.2,0.2-0.3,0.3-0.5c0.1-0.1,0.2-0.2,0.2-0.3c0.1-0.2,0.3-0.4,0.4-0.6c0,0,0-0.1,0.1-0.1c0-0.1,0-0.3,0.2-0.3
					c0,0,0-0.1,0.1-0.2c0-0.1,0-0.3,0-0.5c0.2,0.1,0.3,0.2,0.4,0.3c0.1,0.1,0.2,0.3,0.4,0.4c0.2,0.1,0.4,0.2,0.6,0.3
					c0.2,0.1,0.5,0.3,0.7,0.4c0.1,0.1,0.2,0.1,0.3,0.1c0.2,0,0.5,0,0.7,0.2c0.1,0.1,0.2,0,0.3,0c0.5,0,0.9,0,1.4,0
					c0.3,0,0.5,0,0.7-0.2c0.2-0.1,0.4,0,0.7-0.1c0.2,0,0.3-0.1,0.4-0.2c0,0,0,0,0.1,0c0.4-0.1,0.8-0.1,1.1-0.3
					c0.2-0.1,0.4,0,0.7-0.2c0.2-0.1,0.5,0,0.8,0c0,0,0.1,0,0.1,0.1c0.1,0.2,0.2,0.4,0.2,0.6c0.1,0.2,0.2,0.4,0.3,0.7
					c0,0.1,0.1,0.1,0.2,0.2c0.3,0.2,0.3,0.6,0.7,0.8c0.1,0.1,0.2,0.2,0.3,0.4c0.1,0.1,0.2,0.2,0.2,0.3c0.3,0.1,0.4,0.5,0.8,0.6
					c0.1,0,0.2,0.2,0.4,0.3c0,0,0.1,0.1,0.1,0.1c0.3,0,0.5,0.2,0.7,0.4c0,0,0.1,0,0.2,0.1c0.1,0,0.2,0.1,0.3,0.2c0,0,0,0,0,0
					c0.3,0.1,0.5,0.2,0.8,0.3c0.3,0.2,0.6,0.1,0.8,0.4c0,0,0,0,0.1,0c0.4,0.1,0.8,0.2,1.1,0.3c0.2,0,0.3,0.1,0.4,0.2
					c0,0,0.1,0,0.1,0c0.3,0,0.7,0.1,1,0.2c0.7,0.2,1.4,0.2,2.1,0.3c0,0,0,0,0.1,0c-0.1,0.1-0.1,0.2-0.2,0.3
					c-0.4,0.7-0.3,1.6-0.3,2.3c0,0.2,0.2,0.4,0.4,0.6c0,0,0.1,0.1,0.1,0.1c0,0.3,0.2,0.4,0.4,0.6c0.1,0.1,0.2,0.2,0.3,0.3
					c0.3,0.3,0.5,0.5,0.8,0.8c0.1,0.1,0.2,0.2,0.3,0.2c0.3,0.1,0.4,0.3,0.6,0.5c0.1,0.1,0.3,0.2,0.5,0.3c0.2,0.2,0.4,0.2,0.6,0.4
					c0.2,0.1,0.4,0.2,0.6,0.4c0.1,0.1,0.3,0.1,0.3,0.2c0.1,0.3,0.4,0.1,0.6,0.4c0.1,0.1,0.3,0.2,0.5,0.3c0.1,0.1,0.3,0.2,0.4,0.3
					c0,0,0,0.2-0.1,0.3c0,0,0,0.1-0.1,0.1c-0.2,0.1-0.4,0.2-0.6,0.3c-0.1,0.1-0.3,0.2-0.4,0.3c-0.2,0.2-0.5,0.5-0.7,0.7
					c-0.1,0.1-0.2,0.3-0.3,0.5c-0.4,0.7-0.2,1.5-0.2,2.2c0,0.1,0.1,0.2,0.1,0.3c0,0,0.1,0.1,0.1,0.1c0,0.3,0.3,0.5,0.4,0.7
					c0.1,0.2,0.2,0.4,0.3,0.5c0.1,0.1,0.2,0.2,0.2,0.3c0.3,0.4,0.6,0.8,1,1c0.2,0.1,0.4,0.4,0.6,0.6c0.3,0.3,0.7,0.5,1,0.8
					c0,0,0.1,0.1,0.1,0.1c0,0-0.1,0.1-0.1,0.1c-0.3,0.2-0.7,0.3-0.8,0.6c0,0-0.1,0-0.1,0.1c-0.2,0.1-0.4,0.2-0.5,0.4
					c-0.2,0.2-0.4,0.4-0.6,0.5c-0.1,0.1-0.2,0.2-0.3,0.4c-0.1,0.2-0.3,0.3-0.4,0.5c-0.2,0.3-0.5,0.5-0.6,0.9c0,0.1-0.1,0.2-0.2,0.3
					c-0.1,0.2-0.3,0.4-0.4,0.6c0,0.1,0,0.1-0.1,0.2c0,0.1,0,0.3-0.2,0.3c0,0,0,0,0,0c-0.1,0.3-0.1,0.5-0.3,0.7
					c-0.2,0.2-0.1,0.5-0.4,0.7c0,0,0,0.1-0.1,0.1c0,0.2,0,0.4-0.2,0.5c0,0,0,0.1,0,0.2c0,0.1-0.1,0.2-0.1,0.2c0,0-0.1,0-0.1,0.1
					c0,0.3-0.1,0.5-0.2,0.8c-0.1,0.2-0.2,0.4-0.4,0.6c-0.3,0.2-0.5,0.5-0.8,0.8c-0.1,0.1-0.2,0.2-0.4,0.3c-0.1,0.1-0.1,0.1-0.1,0.2
					c-0.2,0.3-0.4,0.6-0.5,0.9c-0.1,0.2-0.2,0.3-0.2,0.5c0,0.1-0.1,0.1-0.2,0.1c0,0.1,0,0.2,0,0.3c0,0.1-0.1,0.1-0.2,0.1
					c0,0.2,0,0.5-0.1,0.7c-0.1,0.2-0.2,0.3-0.2,0.5c0,0.3-0.3,0.5-0.7,0.5c0-0.1,0-0.2,0-0.2c0.2-0.1,0.2-0.2,0.2-0.4
					c0,0,0-0.1,0.1-0.1c0.2-0.2,0.3-0.4,0.4-0.7c0.1-0.2,0.1-0.3,0.3-0.3c-0.1-0.4,0-0.5,0.2-0.4c0-0.3,0-0.5,0.1-0.8
					c0.1-0.3,0.2-0.7-0.1-1.1c-0.1-0.2-0.2-0.4-0.3-0.7c-0.1-0.2-0.2-0.2-0.3-0.2c-0.5,0-1,0-1.6,0c-0.1,0-0.2,0.1-0.2,0.1
					c0,0,0,0.1-0.1,0.1c-0.2,0-0.4,0-0.5,0.2c-0.1,0.1-0.4,0.2-0.5,0.3c-0.1,0.1-0.2,0.3-0.3,0.5c0,0.1-0.1,0.1-0.1,0.2
					c0,0-0.1,0.1-0.1,0.1c0,0.2-0.1,0.3-0.2,0.4c-0.2,0.2-0.2,0.4-0.3,0.7c-0.1,0.2-0.3,0.4-0.4,0.7c-0.1,0.2-0.3,0.3-0.3,0.6
					c0,0.2-0.2,0.4-0.4,0.6c0,0-0.1,0.1-0.1,0.1c0,0.3-0.2,0.4-0.4,0.7c-0.1,0.2-0.2,0.5-0.4,0.7c-0.1,0.2-0.3,0.4-0.4,0.7
					C85.2,49.8,85,50,85,50.1c0,0.3-0.2,0.5-0.3,0.8c-0.1,0.1-0.1,0.3-0.2,0.3c-0.3,0.1-0.1,0.5-0.4,0.6c0,0,0,0.1,0,0.1
					c0,0.1,0,0.3-0.2,0.3c0,0-0.1,0.1-0.1,0.2c0,0.3-0.2,0.3-0.4,0.3c-0.3,0-0.6,0-0.9,0c-0.4,0-0.8,0.1-1.1,0.4c0,0,0,0-0.1,0
					c-0.2,0.1-0.6,0.1-0.7,0.3c-0.2,0.2-0.5,0.1-0.6,0.4c0,0,0,0,0,0c-0.2,0-0.4,0.1-0.5,0.2c-0.1,0.1-0.2,0-0.4,0.2
					c-0.2,0.2-0.4,0.2-0.6,0.3c-0.1,0.1-0.2,0.1-0.3,0.2c0,0,0,0,0,0c-0.2,0.1-0.5,0.2-0.7,0.3c-0.2,0.1-0.4,0.2-0.7,0.3
					c-0.1,0.1-0.2,0.1-0.4,0.2c-0.3,0.1-0.5,0.2-0.8,0.4c0,0,0,0.1-0.1,0.1c-0.3,0-0.5,0.3-0.8,0.4c-0.2,0.1-0.5,0.2-0.7,0.3
					c-0.2,0.1-0.4,0.3-0.6,0.4c0,0-0.1,0.1-0.1,0.1c-0.3,0-0.4,0.2-0.6,0.4c0,0-0.1,0.1-0.1,0.1c-0.3,0.1-0.4,0.2-0.6,0.4
					c-0.1,0.1-0.3,0.2-0.5,0.3c-0.1,0.1-0.2,0.1-0.3,0.2c-0.2,0.1-0.3,0.3-0.5,0.4c-0.2,0.1-0.3,0.2-0.5,0.3
					c-0.3,0.2-0.6,0.3-0.9,0.4c0,0-0.1,0-0.1,0c-0.3,0.1-0.5,0.2-0.8,0.3c-0.1,0.1-0.2,0.2-0.3,0.2c-0.2,0.1-0.4,0.3-0.5,0.4
					c-0.1,0.1-0.3,0.3-0.4,0.4c-0.1,0.1-0.2,0.3-0.3,0.3c-0.3,0-0.4,0.2-0.6,0.3c-0.3,0.3-0.7,0.4-1.1,0.5c-0.2,0.1-0.4,0.3-0.6,0.4
					c-0.1,0.1-0.2,0.2-0.3,0.2c-0.2,0.1-0.4,0.2-0.5,0.3c-0.2,0.3-0.6,0.3-0.8,0.6c-0.1,0.2-0.3,0.3-0.5,0.5c0,0-0.1-0.1-0.2-0.1
					c0.1-0.1,0.1-0.2,0.2-0.3c0,0,0.1,0,0.1-0.1c0.1-0.2,0.2-0.4,0.3-0.7c0.1-0.1,0.1-0.2,0.2-0.3c0.1-0.2,0.3-0.4,0.4-0.6
					c0,0,0-0.1,0-0.1c0.1-0.3,0.2-0.6,0.3-0.9c0.1-0.2,0.2-0.5,0.4-0.7c0-0.1,0.1-0.2,0.1-0.2c0-0.2,0-0.3,0.2-0.4c0,0,0-0.1,0-0.2
					c0.1-0.1,0.1-0.2,0.2-0.3c0,0,0,0,0,0c0.1-0.3,0.2-0.5,0.3-0.8c0.1-0.1,0.1-0.3,0.2-0.4c0.1-0.2,0.1-0.9-0.1-1.1
					c-0.1-0.1-0.1-0.1-0.1-0.2c0-0.2-0.2-0.4-0.4-0.5c-0.1-0.1-0.2-0.2-0.3-0.4c0,0-0.1-0.1-0.1-0.1c-0.3-0.1-0.5-0.2-0.9-0.3
					c0-0.1,0-0.2,0-0.2c0-0.2-0.1-0.3-0.3-0.4c-0.2-0.1-0.4-0.3-0.6-0.4c0,0,0,0,0,0c-0.3,0-0.5-0.1-0.8-0.2
					c-0.3-0.2-0.8-0.2-1.1-0.4c-0.1-0.1-0.3-0.1-0.4-0.1c-0.2,0-0.3,0.1-0.4-0.2c0,0-0.1-0.1-0.2-0.1c-0.2,0-0.5,0-0.7,0
					c-0.2,0-0.3-0.1-0.4-0.2c-0.1,0-0.1,0-0.2,0c-0.9,0-1.9,0-2.8,0c0,0-0.1,0-0.1,0c-0.3,0.3-0.6,0.1-0.9,0.2
					c-0.4,0.1-0.7,0.3-1.1,0.4c-0.2,0.1-0.4,0.2-0.7,0.3c-0.1,0.1-0.6,0.3-0.7,0.4c0,0-0.1,0-0.2,0.1c-0.1,0-0.3,0-0.3,0.2
					c0,0-0.1,0.1-0.1,0.1c-0.1,0-0.3,0-0.4,0c-0.4-0.1-0.6,0.2-1,0.3c-0.1,0-0.2,0.2-0.3,0.3c-0.1,0.1-0.2,0.2-0.3,0.3
					c0,0-0.1,0-0.2,0c-0.1,0-0.2-0.1-0.4-0.1c-0.4,0-0.9,0-1.3,0c-0.1,0-0.3-0.1-0.4-0.1c-0.1,0-0.2-0.1-0.3-0.1
					c-0.4,0-0.8,0-1.2-0.1c-0.2,0-0.5-0.1-0.7-0.1c-0.2,0-0.4-0.1-0.5,0c-0.4,0.2-0.8,0.1-1.1,0.2c-0.3,0-0.6,0-0.8,0
					c-0.2,0-0.4,0-0.5,0.2c0,0.1-0.2,0-0.3,0.1c-0.2,0-0.4,0-0.6,0.2c-0.1,0.1-0.3,0.1-0.5,0.1c-0.1,0-0.3,0-0.3,0.2c0,0,0,0,0,0
					c-0.3,0.1-0.5,0-0.8,0.2c-0.3,0.2-0.7,0.2-1.1,0.5c-0.2,0.1-0.5,0.2-0.7,0.3c-0.2,0.1-0.4,0.3-0.7,0.4c-0.2,0.1-0.3,0.2-0.5,0.3
					c-0.2,0.1-0.4,0.3-0.7,0.4c-0.2,0.1-0.4,0.2-0.6,0.3c-0.1,0.1-0.3,0.1-0.3,0.2c-0.2,0.3-0.5,0.3-0.7,0.5
					c-0.2,0.2-0.4,0.4-0.6,0.5c0,0-0.1,0.1-0.1,0.1c-0.3,0.1-0.6,0.2-0.8,0.3c-0.2,0.2-0.5,0.2-0.7,0.4c0,0-0.1,0-0.1,0.1
					c-0.2,0.1-0.5,0.2-0.7,0.3c-0.2,0.1-0.4,0.3-0.6,0.4c-0.2,0.1-0.4,0.2-0.5,0.3c-0.2,0.2-0.5,0.2-0.7,0.4c0,0,0,0-0.1,0
					c-0.2,0.1-0.5,0.2-0.7,0.3c-0.2,0.1-0.4,0.3-0.6,0.4c-0.1,0.1-0.2,0.1-0.3,0.2c-0.2,0.1-0.5,0.2-0.7,0.3
					c-0.2,0.1-0.3,0.2-0.4,0.3c-0.1,0-0.1,0.1-0.2,0.1c-0.3,0-0.3,0.3-0.6,0.3c-0.1,0-0.1,0.1-0.2,0.1c-0.2,0.1-0.4,0.3-0.6,0.4
					c0,0-0.1,0.1-0.1,0.1c-0.3,0-0.4,0.2-0.6,0.4c0,0-0.1,0.1-0.1,0.1c-0.3,0-0.4,0.2-0.6,0.4c-0.1,0.1-0.2,0.2-0.3,0.2
					c-0.2,0.2-0.4,0.3-0.6,0.5c-0.1,0.1,0,0.2-0.1,0.4c0.3,0,0.5,0,0.8,0c0.1,0,0.1-0.1,0.2-0.1c0,0,0-0.1,0.1-0.1
					c0.2-0.1,0.5-0.2,0.7-0.3c0.2-0.1,0.4-0.3,0.6-0.4c0.2-0.1,0.4-0.2,0.6-0.3c0.2-0.1,0.4-0.2,0.6-0.3c0.1-0.1,0.2-0.1,0.3-0.2
					c0.2-0.2,0.5-0.2,0.7-0.4c0.1-0.2,0.4-0.2,0.5-0.3c0.2-0.2,0.5-0.1,0.7-0.4c0,0,0.1,0,0.2-0.1c0.1,0,0.2-0.1,0.2-0.2
					c0,0,0-0.1,0.1-0.1c0.2-0.1,0.5-0.2,0.7-0.3c0.2-0.1,0.4-0.3,0.7-0.4c0,0,0.1-0.1,0.1-0.1c0.3-0.1,0.6-0.1,0.7-0.3
					c0.2-0.2,0.5-0.1,0.7-0.4c0,0,0.1,0,0.2-0.1c0.2-0.1,0.3-0.1,0.4-0.2c0.1,0,0.2,0,0.2-0.1c0.2,0,0.4,0.1,0.5-0.2
					c0,0,0.2,0,0.3,0c0.2-0.1,0.5,0.1,0.7-0.2c0,0,0.1,0,0.1,0c0.6,0,1.3,0,1.9,0c0.1,0,0.2,0,0.2,0.1c0,0.1,0,0.1,0,0.1
					c-0.4,0.1-0.8,0.1-1.1,0.3c-0.3,0.2-0.7,0.1-1,0.4c0,0.1-0.2,0-0.2,0.1c-0.1,0.1-0.3,0.1-0.4,0.2c0,0,0,0-0.1,0
					c-0.3,0.1-0.5,0.2-0.8,0.3c-0.1,0-0.1,0.1-0.1,0.1c-0.1,0-0.1,0.1-0.2,0.1c-0.1,0-0.3,0-0.3,0.2c0,0-0.1,0-0.1,0
					c-0.3,0-0.5,0.2-0.6,0.4c0,0-0.1,0-0.2,0.1c-0.2,0.1-0.3,0.3-0.5,0.4c-0.2,0.1-0.3,0.3-0.5,0.3c-0.2,0-0.3,0.2-0.4,0.3
					c0,0,0,0.1-0.1,0.1c-0.2,0.1-0.4,0.2-0.7,0.3c-0.2,0.1-0.3,0.2-0.4,0.3c0,0-0.1,0.1-0.1,0.1c-0.3,0-0.5,0.2-0.7,0.4
					c0,0-0.1,0-0.1,0c-0.2,0.1-0.5,0.2-0.7,0.3c-0.1,0.1-0.2,0.1-0.3,0.2c-0.2,0.1-0.4,0.3-0.6,0.4c-0.2,0.1-0.4,0.2-0.5,0.3
					c-0.2,0.1-0.4,0.3-0.6,0.4c0,0-0.1,0-0.1,0c-0.3,0-0.4,0.2-0.6,0.4c-0.1,0.1-0.3,0.2-0.4,0.3c-0.1,0.1-0.1,0.3-0.1,0.4
					c0.2,0,0.4,0.1,0.5-0.1c0,0,0.1,0,0.1,0c0.4,0.1,0.6-0.2,0.9-0.3c0.2-0.1,0.4-0.3,0.6-0.4c0.1-0.1,0.2-0.2,0.4-0.3
					c0.3-0.1,0.5-0.2,0.6-0.4c0,0,0.1,0,0.2-0.1c0.1,0,0.2-0.1,0.2-0.1c0,0,0-0.1,0.1-0.1c0.2-0.1,0.4-0.2,0.7-0.3
					c0.1,0,0.2-0.1,0.2-0.2c0,0,0-0.1,0.1-0.1c0.2,0,0.3-0.1,0.5-0.2c0.2-0.2,0.5-0.2,0.7-0.3c0.2-0.1,0.3-0.2,0.4-0.2
					c0.2,0,0.3,0,0.4-0.2l0,0c0.3-0.1,0.5-0.1,0.8-0.3c0.3-0.2,0.7-0.1,0.9-0.4c0,0,0.1,0,0.1,0c0.3-0.1,0.6-0.2,0.9-0.3
					c0,0,0.1,0,0.1-0.1c0.1-0.2,0.2-0.2,0.4-0.2c0.1,0,0.3,0.1,0.4-0.2c0,0,0.1,0,0.1,0c0.3,0,0.5-0.1,0.8-0.2
					c0.2-0.1,0.5-0.1,0.8-0.2c0.4-0.2,0.9-0.2,1.3-0.3c0.2,0,0.3,0,0.5-0.2c0.1-0.1,0.2,0,0.3-0.1c0.3-0.1,0.7,0.1,0.9-0.2
					c0,0,0.1,0,0.2,0c0.7,0,1.3,0,2,0c0.1,0,0.2,0.1,0.3,0.1c0.1,0,0.2,0.1,0.2,0.1c0.9,0,1.9,0,2.8,0c0.1,0,0.2-0.1,0.2-0.1
					c0.1,0,0.2-0.1,0.3-0.1c0.2-0.1,0.5,0.1,0.6-0.2c0,0,0.1,0,0.2,0c0.1,0,0.2-0.1,0.3-0.1c0,0,0-0.1,0.1-0.1
					c0.3,0.1,0.4-0.3,0.7-0.3c0.1,0,0.3-0.2,0.4-0.3c0.1-0.1,0.3-0.2,0.4-0.3c0.1-0.1,0.2-0.2,0.3-0.3c0.2-0.3,0.5-0.4,0.5-0.8
					c0-0.1,0.2-0.2,0.3-0.3c0.1-0.1,0.3-0.1,0.4-0.2c0.1-0.2,0.4-0.2,0.6-0.3c0.1,0,0.2-0.1,0.3-0.2c0.1,0,0.1-0.1,0.1-0.1
					c0.1-0.1,0.3,0,0.4-0.2c0,0,0.2,0,0.4,0c0.1,0,0.2,0.1,0.3,0.1c0.7,0,1.3,0,2,0c0.2,0,0.4,0,0.6-0.2c0.1-0.1,0.2-0.1,0.3-0.1
					c0.9,0,1.8,0,2.7,0c0.1,0,0.1,0,0.1,0c0.6,0.4,1.2,0.2,1.8,0.2c0.4,0,0.4,0,0.4,0.4c0,0.2,0,0.5-0.2,0.7
					c-0.1,0.2-0.1,0.4-0.1,0.7c0,0.1,0.1,0.3-0.2,0.4c-0.1,0-0.1,0.2-0.1,0.2c-0.1,0.3,0,0.5-0.2,0.8c-0.1,0.1,0,0.3-0.1,0.5
					c0,0.1-0.1,0.2-0.2,0.4c0,0.1,0,0.1-0.1,0.2c0,0.2,0,0.4-0.2,0.6c-0.1,0.1,0,0.4-0.1,0.5c0,0.1-0.1,0.2-0.1,0.3
					c-0.1,0.1,0,0.5,0,0.7c0.1,0.2,0.1,0.5,0.1,0.7c0,0.1-0.2,0.1-0.4,0.2c-0.2,0.1-0.5,0.2-0.7,0.4c-0.2,0.1-0.3,0.2-0.4,0.3
					c-0.1,0.1-0.3,0.3-0.3,0.4c0,0.3-0.1,0.5-0.3,0.7c0,0,0,0.1-0.1,0.1c-0.3-0.1-0.5,0.2-0.8,0.3c-0.2,0-0.4,0.2-0.6,0.4
					c0,0,0,0,0,0c-0.2,0.1-0.5,0.2-0.7,0.3c-0.2,0.1-0.4,0.2-0.5,0.4c-0.2,0.2-0.4,0.3-0.6,0.5c-0.2,0.1-0.2,0.4,0,0.5
					c0.3,0.3,0.6,0.3,0.9,0c0,0,0,0,0.1,0c0.3-0.1,0.6-0.1,0.7-0.3c0.3-0.3,0.7-0.2,0.8-0.6c0,0,0.1,0,0.2-0.1
					c0.1,0,0.2-0.1,0.2-0.2c0.1-0.1,0.2-0.1,0.3,0c0.1,0.2,0.2,0.4,0.2,0.7c0,0.3,0.2,0.4,0.3,0.7c0.1,0.2,0.3,0.5,0.6,0.6
					c0.2,0.1,0.4,0.3,0.6,0.3c0.1,0,0.2,0.1,0.3,0.2c0.1,0,0.1,0,0.2,0.1c0.2,0,0.5,0,0.6,0.2c0.5,0,0.8,0.4,1.3,0.3
					c0.3-0.1,0.5,0,0.8,0c0.2,0,0.4,0.1,0.4-0.2c0,0,0.1,0,0.2,0c0.3,0,0.5-0.2,0.8-0.4c0.1-0.1,0.4-0.2,0.5-0.3
					c0.1-0.1,0.2-0.2,0.3-0.3c0.1-0.1,0.2-0.3,0.3-0.4c0.1-0.1,0.3,0,0.3,0c0.1,0.1,0.2,0.2,0.3,0.3c0.2,0.2,0.2,0.5,0,0.7
					c0,0-0.1,0-0.1,0.1c-0.1,0.2-0.1,0.5-0.3,0.7c-0.2,0.2-0.1,0.6-0.4,0.7c-0.1,0,0,0.2-0.1,0.3c0,0.2,0,0.3-0.2,0.4c0,0,0,0,0,0.1
					c-0.1,0.3-0.1,0.6-0.3,0.7c-0.2,0.2-0.1,0.5-0.4,0.6c0,0,0,0.1,0,0.1c-0.1,0.1-0.1,0.2-0.2,0.3c0,0.1-0.1,0.1-0.1,0.2
					c0,0.5,0,1.1,0,1.6c0,0.3,0.2,0.5,0.4,0.8c0.1,0.1,0.2,0.3,0.3,0.4c0.1,0.2,0.2,0.3,0.3,0.5c0.1,0.2,0.3,0.3,0.4,0.4
					c0,0,0,0,0,0c0.2,0.1,0.5,0.2,0.7,0.3c0.1,0,0.1,0,0.2,0.1c0.3,0.3,0.7,0.2,1,0.2c0.1,0,0.2-0.1,0.3-0.1c0,0,0.1-0.1,0.1-0.1
					c0.3,0,0.7-0.1,1-0.2c0.1-0.1,0.4,0,0.4-0.2c0,0,0.1,0,0.2,0c0.2-0.1,0.4,0.1,0.5-0.2c0,0,0.2,0,0.2,0c0.2,0,0.3,0,0.4-0.2
					c0,0,0.1,0,0.1,0c0.2,0,0.4-0.1,0.7-0.2c0.3-0.2,0.8-0.2,1.1-0.3c0.2,0,0.3,0,0.5-0.2c0.1-0.1,0.3,0,0.5-0.1
					c0.2,0,0.3,0.1,0.4-0.2c0-0.1,0.3,0,0.4-0.1c0,0.1,0,0.1,0,0.1c-0.1,0.2-0.2,0.4-0.3,0.5c-0.1,0.2-0.3,0.4-0.4,0.6
					c-0.1,0.1-0.2,0.3-0.3,0.4c-0.1,0.1-0.2,0.2-0.4,0.4c0,0,0,0.1,0,0.1c0,0.3-0.2,0.3-0.4,0.5c-0.1,0.1-0.2,0.2-0.3,0.3
					c-0.1,0.4-0.5,0.5-0.7,0.8c-0.1,0.1-0.2,0.3-0.3,0.5c-0.2,0.3-0.2,0.7-0.3,1c0,0.2-0.2,0.3-0.3,0.4c-0.1,0.1-0.2,0.3-0.3,0.4
					c-0.1,0.1-0.1,0.2-0.1,0.2c-0.1,0.1-0.1,0.3-0.1,0.4c-0.1,0.1-0.2,0.2-0.3,0.2c-0.1,0.1-0.3,0.1-0.4,0.1c-0.1,0-0.1-0.1-0.2-0.2
					c-0.2-0.2-0.1-0.6-0.4-0.7c0,0,0-0.1,0-0.1c0-0.3-0.2-0.4-0.4-0.6c0,0,0-0.1-0.1-0.1c-0.1-0.2-0.3-0.4-0.4-0.5
					c-0.1-0.1-0.2-0.2-0.3-0.3c-0.3-0.3-0.5-0.6-0.8-0.9c-0.2-0.2-0.5-0.3-0.6-0.5c-0.2-0.3-0.6-0.3-0.9-0.6
					c-0.2-0.2-0.5-0.2-0.7-0.3c-0.1-0.1-0.2-0.1-0.3-0.2c0,0-0.1,0-0.1,0c-0.5-0.1-0.9-0.2-1.4-0.2c-1.6,0-3.3,0-4.9,0
					c-0.2,0-0.3,0.1-0.4-0.2c0,0-0.1,0-0.2,0c-0.4,0-0.8,0-1.2,0c-0.2,0-0.4,0.1-0.5-0.2c0,0-0.1,0-0.2,0c-0.3,0-0.5,0.1-0.8-0.1
					c-0.4-0.2-0.8-0.1-1.1-0.3c-0.3-0.1-0.6-0.1-0.9-0.2c-0.3-0.2-0.7-0.1-0.9-0.3c-0.3-0.2-0.6-0.1-0.8-0.3c-0.1-0.1-0.4,0-0.5-0.1
					c-0.1,0-0.2-0.1-0.3-0.1c-0.1,0-0.2-0.1-0.3-0.1c-0.2,0-0.5,0.1-0.7-0.2l0,0c-0.3,0-0.6-0.1-0.9-0.2c-0.2-0.1-0.4,0-0.5-0.2
					c0,0-0.1,0-0.2,0c-0.2,0-0.4,0-0.5-0.2c0-0.1-0.2,0-0.3-0.1c-0.2,0-0.3,0.1-0.4-0.2c0,0-0.1,0-0.2,0c-0.1,0-0.3,0-0.3-0.2
					c0,0,0,0-0.1-0.1c-0.3-0.1-0.6-0.2-0.8-0.3c-0.3-0.1-0.5-0.3-0.7-0.4c0,0,0,0-0.1,0c-0.2-0.1-0.5-0.2-0.7-0.3
					c-0.1-0.1-0.2-0.1-0.3-0.2c-0.2-0.1-0.4-0.3-0.6-0.4l0,0c-0.3,0.1-0.4-0.2-0.6-0.3c-0.1-0.1-0.3-0.1-0.4-0.2
					c-0.1-0.2-0.5-0.1-0.6-0.4c0,0-0.1,0-0.1,0c-0.2,0-0.5,0-0.6-0.2c-0.4,0-0.6-0.4-1-0.2c0,0-0.1,0-0.1,0V74
					c0.2,0.1,0.3,0.3,0.4,0.4c0.2,0.2,0.5,0.4,0.7,0.7c0.2,0.2,0.4,0.4,0.7,0.5c0.1,0,0.2,0.2,0.3,0.3c0.1,0.1,0.2,0.2,0.3,0.3
					c0.2,0.1,0.3,0.2,0.5,0.3c0.1,0.1,0.3,0.2,0.4,0.3c0.1,0.1,0.3,0.2,0.4,0.3c0.1,0.1,0.2,0.3,0.4,0.4c0.2,0.2,0.4,0.4,0.6,0.5
					c0.3,0.2,0.5,0.4,0.8,0.7c0.2,0.2,0.4,0.4,0.7,0.6c0.1,0.1,0.2,0.3,0.3,0.4c0.1,0.1,0.3,0.2,0.5,0.3c0.2,0.1,0.3,0.2,0.5,0.3
					c0,0,0,0.1,0,0.1c0.2,0.1,0.5,0.2,0.7,0.3c0.1,0,0.1,0,0.2,0.1c0.1,0.1,0.2,0.1,0.4,0.2c0.1,0,0.3,0,0.3,0.2
					c0,0,0.1,0.1,0.2,0.1c0.3,0.1,0.6-0.1,0.8,0.2c0,0,0.1,0,0.2,0c0.4,0,0.8,0,1.1,0c0.3,0,0.5,0.1,0.6,0.3
					c0.2,0.2,0.4,0.5,0.6,0.8c0.2,0.2,0.4,0.4,0.6,0.5c0.1,0.1,0.2,0.2,0.3,0.3c0.2,0.2,0.3,0.4,0.5,0.7c0.2,0.2,0.4,0.3,0.6,0.5
					c0.1,0.1,0.2,0.2,0.3,0.3c0.2,0.2,0.4,0.4,0.6,0.6c0.1,0.1,0.2,0.1,0.4,0.1c0,0.2,0.1,0.4-0.2,0.4c0,0,0,0.1,0,0.1
					c0,0.3-0.2,0.4-0.4,0.6c-0.1,0.1-0.2,0.2-0.4,0.4c0,0-0.1,0.1-0.1,0.1c-0.2,0.1-0.5,0.1-0.7,0.2c-0.2,0.1-0.5,0.2-0.7,0.3
					c-0.1,0.1-0.3,0.2-0.4,0.2c-0.8,0-1.6,0-2.4,0c-0.1,0-0.3,0.1-0.4,0.1c-0.1,0-0.2,0-0.3,0.1c-0.1,0-0.2,0.1-0.3,0.2
					c0,0,0,0.1-0.1,0.1c-0.2,0-0.4,0.1-0.6,0.2c-0.4,0.2-0.9,0.2-1.4,0.3c-0.1,0-0.2,0.1-0.3,0.1c-0.1,0-0.3,0.1-0.4,0.1
					c-0.2,0-0.5,0-0.6,0.2c0,0-0.1,0-0.2,0.1c-0.8,0.1-1.6,0.2-2.4,0.3c-0.1,0-0.3,0.1-0.4,0.1c-0.1,0-0.2,0.1-0.3,0.1
					c-1.7,0-3.5,0-5.2,0c-0.3,0-0.5-0.2-0.8-0.3c-0.1,0-0.1,0-0.2-0.1c-0.1-0.1-0.2-0.1-0.3-0.2c-0.1-0.1-0.3-0.1-0.4-0.1
					c0,0.2-0.1,0.4,0.2,0.5c0.2,0.1,0.3,0.4,0.5,0.6c0.1,0.1,0.3,0.2,0.5,0.3c0.3,0.1,0.6,0.1,0.8,0.2c0.2,0.1,0.5,0,0.7,0.1
					c0.2,0,0.3,0.1,0.5,0.2c0.1,0,0.2,0,0.2,0c0.3,0,0.7,0,1,0c0.2,0,0.3,0,0.5,0.2c0,0.1,0.2,0.1,0.2,0.1c1.9,0,3.8,0,5.7,0
					c0.1,0,0.2-0.1,0.3-0.1c0.1,0,0.2-0.1,0.3-0.1c0.3,0,0.7,0,1,0c0.2,0,0.4-0.1,0.6-0.2c0.1,0,0.3-0.1,0.4-0.1
					c0.3,0,0.6,0.1,0.8-0.1c0.6-0.3,1.3-0.1,1.8-0.3c0.7-0.3,1.5,0,2.2-0.2c1.1-0.3,2.2,0,3.3-0.2c0.7-0.1,1.3-0.1,2-0.2
					c0.1,0,0.4-0.1,0.4,0.2c0,0,0,0,0.1,0c0.4,0.1,0.7,0.2,1.1,0.3c0.2,0.1,0.3,0.1,0.5,0.2c0,0,0.1,0,0.1,0
					c0.5,0.1,1.1,0.2,1.6,0.3c0.2,0,0.3,0.1,0.5,0.2c0.1,0,0.2,0.1,0.3,0.1c0.4,0,0.9,0,1.3,0c0.2,0,0.4,0.1,0.6,0.1
					c0.2,0.1,0.6,0.2,0.9-0.1c0.1-0.1,0.2-0.1,0.3-0.1c0.3,0,0.7,0,1,0c0.2,0,0.4-0.1,0.6-0.2c0.1,0,0.1,0,0.2,0
					c0.2,0,0.4,0.1,0.6-0.2c0-0.1,0.2,0,0.3-0.1c0.1,0,0.3,0,0.4-0.2c0,0,0,0,0,0c0.2-0.1,0.5-0.2,0.7-0.3c0.2-0.1,0.4-0.3,0.6-0.4
					c0.2-0.2,0.4-0.3,0.7-0.5c0,0,0.1,0,0.1-0.1c0.1-0.1,0.1-0.1,0.1-0.2c0,0.1,0.1,0.2,0.1,0.3c0,0.1,0,0.1,0,0.2
					c0,0.1,0.1,0.2,0.1,0.2c0.1-0.1,0.1-0.1,0.2-0.2c0,0,0-0.1,0.1-0.1c0.3,0,0.5-0.2,0.7-0.4c0,0,0,0,0.1,0
					c0.2-0.1,0.4-0.2,0.7-0.3c0.2-0.1,0.3-0.2,0.4-0.3c0.1,0,0.1-0.1,0.2-0.1c0.2-0.1,0.4-0.3,0.5-0.4c0.1-0.1,0.2-0.2,0.4-0.3
					c0.2-0.1,0.4-0.3,0.6-0.4c0.2-0.2,0.4-0.3,0.6-0.5c0.2-0.2,0.3-0.4,0.5-0.6c0.1-0.1,0.3-0.2,0.4-0.3c0.1-0.1,0.2-0.2,0.3-0.3
					c0.2-0.3,0.3-0.5,0.5-0.8c0.2-0.2,0.3-0.4,0.5-0.6c0.2-0.2,0.3-0.4,0.4-0.6c0.1-0.1,0.2-0.2,0.3-0.4c0.1-0.1,0.1-0.2,0.2-0.3
					c0.1-0.2,0.2-0.4,0.3-0.5c0.1-0.2,0.3-0.4,0.4-0.6c0.1-0.2,0.3-0.4,0.4-0.6c0.1-0.1,0.2-0.2,0.2-0.3c0.1-0.2,0.2-0.4,0.3-0.7
					c0.1-0.2,0.2-0.4,0.4-0.7c0,0,0.1-0.1,0.1-0.1c0.1-0.2,0.2-0.5,0.3-0.7c0.1-0.2,0.2-0.3,0.3-0.4c0,0,0.2,0,0.2,0.1
					c0,0.3,0.2,0.4,0.4,0.6c0,0,0,0.1,0.1,0.1c0.1,0.4,0.4,0.6,0.7,0.8c0.2,0.2,0.3,0.4,0.5,0.6c0.1,0.1,0.3,0.2,0.4,0.3
					c0.2,0.1,0.4,0.3,0.6,0.4c0.2,0.1,0.4,0.2,0.6,0.3c0.3,0.1,0.5,0.2,0.8,0.2c0.2,0,0.1,0.5,0,0.6c-0.1,0.2-0.3,0.3-0.4,0.5
					c-0.1,0.2-0.3,0.3-0.4,0.5c0,0-0.1,0.1-0.1,0.1c0,0.3-0.2,0.5-0.4,0.7c0,0,0,0.1-0.1,0.2c0,0.1-0.1,0.2-0.2,0.2
					c0,0-0.1,0-0.1,0.1c-0.1,0.2-0.1,0.5-0.3,0.7c-0.2,0.2-0.1,0.6-0.4,0.7l0,0c-0.1,0.3-0.2,0.5-0.2,0.8c0,0.1,0,0.3-0.2,0.4
					c0,0-0.1,0.2-0.1,0.2c0,0.2,0,0.4-0.2,0.5c-0.1,0.1-0.1,0.3-0.1,0.5c0,0.4-0.2,0.5-0.5,0.6c-0.3,0.2-0.7,0.1-1,0.3
					c-0.2,0.1-0.5,0.1-0.6,0.2c-0.2,0.2-0.5,0.1-0.7,0.4c0,0-0.1,0-0.1,0c-0.3,0.1-0.4,0.2-0.6,0.4c-0.1,0.1-0.3,0.2-0.4,0.2
					c-0.1,0.1-0.2,0.1-0.3,0.2c0,0,0,0,0,0c-0.3,0-0.6,0.2-0.9,0.3c-0.2,0.1-0.7,0.3-0.9,0.4c-0.1,0-0.1,0-0.2,0.1
					c-0.1,0.1-0.2,0.1-0.3,0.2c0,0-0.1,0.1-0.1,0.1c-0.3,0-0.4,0.2-0.6,0.4c-0.2,0.1-0.3,0.2-0.5,0.4c-0.1,0.1-0.3,0.2-0.4,0.4
					c0,0,0,0.1-0.1,0.1c-0.3-0.1-0.6,0.2-0.9,0.3c-0.2,0.1-0.5,0.1-0.7,0.4c0,0.1-0.1,0.1-0.2,0.1c-0.4,0.1-0.6,0.6-0.5,1
					c0,0.1,0.1,0.2,0.2,0.2c0.3,0,0.5,0.1,0.7,0c0.2-0.1,0.5-0.1,0.7-0.3c0,0,0.1-0.1,0.1-0.1c0.3,0,0.4-0.3,0.6-0.4
					c0.3-0.3,0.6-0.7,1.2-0.6c0.1,0,0.2-0.1,0.3-0.1c0.2,0,0.4,0,0.6-0.1c0.2,0,0.4,0.1,0.4-0.2c0,0,0,0,0.1,0
					c0.4,0.1,0.7-0.3,1.1-0.3c0.1,0,0.2-0.1,0.3-0.2c0,0,0.1-0.1,0.1-0.1c0.3,0,0.5-0.2,0.7-0.4c0,0,0.1-0.1,0.1-0.1
					c0.3-0.1,0.7-0.2,1-0.3c0.2,0,0.4,0.1,0.5-0.2c0,0,0.1,0,0.2,0c0.1,0,0.3,0.1,0.3-0.2c0,0,0,0,0,0c0.2-0.1,0.5-0.2,0.7-0.3
					c0.1-0.1,0.2-0.1,0.3-0.2c0.1-0.2,0.4-0.2,0.6-0.4c0.1-0.2,0.3-0.2,0.5-0.3c0.1-0.1,0.3-0.2,0.4-0.3C80.9,89,81,89,81.2,89
					c0.4,0,0.8-0.2,1-0.4c0.2-0.2,0.4-0.3,0.6-0.5c0.1-0.2,0.2-0.4,0.3-0.6c0.1-0.2,0.3-0.5,0.4-0.7c0,0,0,0,0-0.1
					c0.1-0.3,0.2-0.7,0.3-1c0-0.1,0-0.3,0.2-0.4c0,0,0,0,0-0.1c0.1-0.5,0.2-1,0.3-1.4c0-0.2,0.1-0.3,0.2-0.4c0-0.1,0.1-0.2,0.1-0.3
					c0-1.1,0-2.3,0-3.5c0-0.3-0.2-0.4-0.4-0.6c-0.2-0.2-0.4-0.4-0.5-0.6c0,0-0.1-0.1-0.1-0.1c-0.1-0.1-0.1-0.1-0.2-0.2
					c0.1,0,0.2-0.1,0.2-0.1c0.2,0,0.4-0.1,0.6,0.2c0.1,0.1,0.3,0,0.4,0.1c0.1,0,0.3,0.1,0.4,0.2c0,0,0,0,0,0
					c0.3,0.1,0.6,0.2,0.9,0.3c0.1,0,0.2,0.1,0.3,0.2c0,0,0,0,0,0c0.3,0.1,0.6,0.2,0.9,0.3c0.1,0,0.2,0.1,0.2,0.1
					c0.1,0,0.2,0.1,0.3,0.1c0.1,0,0.2,0.1,0.3,0.2c0.1,0,0.1,0.1,0.2,0.1c0.1,0,0.3,0,0.3,0.2c0,0,0.1,0,0.1,0
					c0.2,0,0.3,0.1,0.4,0.2c0.2,0.2,0.5,0.2,0.7,0.3c0.2,0.1,0.4,0.3,0.6,0.4c0,0,0.1,0.1,0.1,0.1c0.2,0,0.3,0.1,0.4,0.2
					c0.2,0.2,0.5,0.3,0.8,0.3c0.5,0,0.6,0.1,0.4,0.6c-0.2,0.3-0.1,0.6-0.2,0.9c0,0.3,0,0.6-0.2,0.8c0,0,0,0.1,0,0.1
					c-0.1,0.6-0.2,1.2-0.3,1.8c0,0.1-0.1,0.2-0.1,0.3c0,0.1-0.1,0.1-0.1,0.2c0,0.3,0,0.5,0,0.8c0,0.2,0,0.4-0.2,0.5c0,0,0,0.1,0,0.2
					c0,0.2,0,0.5,0,0.7c0,0.1,0.1,0.3,0.1,0.4c0,0.2,0,0.3,0.1,0.5c0,0.2-0.1,0.4,0.2,0.5c0.1,0,0,0.4-0.1,0.4
					c-0.1,0.1-0.2,0.2-0.3,0.3c-0.1,0.2-0.2,0.4-0.3,0.6c-0.1,0.1-0.1,0.2-0.2,0.3c0,0.1-0.1,0.1-0.1,0.2c0,0.2,0,0.4-0.2,0.5
					c0,0,0,0.1,0,0.2c0,0.2,0,0.4-0.2,0.5c-0.1,0,0,0.2-0.1,0.3c0,0.2,0.1,0.3-0.2,0.5c-0.1,0.1,0,0.3-0.1,0.5c0,0.1,0,0.3-0.2,0.4
					c0,0-0.1,0-0.1,0.1c0,0.3-0.2,0.5-0.4,0.7c-0.2,0.1-0.2,0.3-0.3,0.5c-0.1,0.1-0.1,0.3-0.2,0.3c-0.2,0.1-0.1,0.3-0.2,0.4
					c-0.3,0.3-0.2,0.6-0.2,1c0,0.1-0.2,0.3-0.3,0.4c-0.2,0.2-0.4,0.3-0.4,0.6c0,0.1-0.1,0.2-0.2,0.3c-0.1,0.1-0.2,0.2-0.4,0.4
					c0,0,0,0,0,0c-0.1,0.2-0.2,0.5-0.3,0.7c-0.1,0.5,0.4,0.8,0.8,0.6c0.2-0.1,0.6-0.2,0.6-0.5c0-0.1,0.1-0.3,0.2-0.3
					c0.2-0.1,0.2-0.3,0.2-0.5c0,0,0,0,0,0c0.2-0.2,0.2-0.5,0.3-0.8c0,0,0.1-0.1,0.1-0.1c0.3-0.1,0.6-0.4,0.8-0.7
					c0.1-0.1,0.2-0.2,0.4-0.3c0,0,0.1-0.1,0.1-0.1c0-0.2,0.1-0.3,0.2-0.4c0.2-0.3,0.2-0.6,0.3-0.9c0-0.3,0.2-0.4,0.4-0.6
					c0.1-0.1,0.2-0.3,0.3-0.4c0.1-0.2,0.3-0.4,0.4-0.5c0-0.1,0-0.1,0-0.2c0-0.1,0.1-0.2,0.2-0.3c0,0,0,0,0,0
					c0.1-0.3,0.2-0.5,0.3-0.8c0.1-0.1,0.1-0.2,0.2-0.4c0-0.1,0-0.2,0.1-0.3c0-0.1,0.1-0.2,0.1-0.2c0,0,0.1-0.1,0.1-0.1
					c0-0.2,0-0.5,0.2-0.7c0.2-0.2,0.2-0.6,0.3-0.8c0.1-0.2,0.2-0.3,0.4-0.5c0,0,0.1-0.1,0.1-0.1c0-0.1,0.1-0.3,0.2-0.4
					c0.2-0.2,0.2-0.5,0.3-0.7c0.2-0.3,0.2-0.5,0.3-0.8c0-0.1,0.1-0.2,0.2-0.4c0.1-0.1,0.1-0.3,0.2-0.4c0,0,0,0,0-0.1
					c0.1-0.4,0.2-0.8,0.3-1.3c0.1-0.4,0.1-0.8,0.2-1.1c0.1-0.5,0.2-1-0.1-1.6c-0.1-0.2,0-0.6-0.1-0.9c0-0.2-0.1-0.3-0.2-0.4
					c0-0.1-0.1-0.2-0.1-0.2c0-0.2,0-0.4-0.2-0.5c0,0,0,0,0-0.1c0.1-0.3-0.2-0.5-0.3-0.7c0-0.2-0.2-0.3-0.3-0.4
					c-0.1-0.2-0.2-0.3-0.3-0.5c-0.1-0.2-0.3-0.3-0.3-0.6c-0.3-0.2-0.2-0.7-0.6-0.8c-0.1-0.3-0.3-0.2-0.5-0.3c0,0,0-0.1,0-0.1
					c0.1,0,0.2-0.1,0.3-0.1c0.5,0,1,0,1.4,0c0.1,0,0.3-0.1,0.4-0.2c0.1,0,0.2-0.1,0.3-0.1c0.2,0,0.5,0.1,0.6-0.2c0,0,0.1,0,0.1,0
					c0.2-0.1,0.4-0.2,0.6-0.3c0.2-0.2,0.5-0.2,0.8-0.1c0.1,0.1,0.2,0.1,0.3,0.1c0.3,0.1,0.6-0.1,0.9,0.2c0,0,0.1,0,0.2,0
					c0.3,0,0.6,0,0.9,0c0.1,0,0.2,0.1,0.3,0.1c0.1,0,0.2,0.1,0.3,0.1c0.9,0,1.8,0,2.7,0c0,0,0.1,0,0.1,0c0.4-0.4,1-0.1,1.5-0.2
					c0.2,0,0.4-0.1,0.6-0.2c0.2,0,0.5,0,0.7-0.1c0.2,0,0.5,0.1,0.7-0.2c0.1-0.1,0.3,0,0.5-0.1c0.3-0.1,0.6,0.1,0.9-0.2
					c0.1-0.1,0.3,0,0.5,0c0.2,0,0.4,0,0.7-0.2c0.2-0.1,0.5-0.1,0.7-0.1c0.2,0,0.3,0,0.4-0.2c0-0.1,0.2-0.1,0.2-0.1
					c0.3,0,0.6,0,0.8,0c0.2,0,0.4,0.1,0.5-0.2c0-0.1,0.2,0,0.2-0.1c0.4,0,0.8,0,1.1,0c0.2,0,0.3,0.1,0.4-0.2c0-0.1,0.2-0.1,0.3,0
					c0,0,0.1,0.2,0.1,0.2c0,1.2,0,2.3,0.1,3.5c0,0.2,0.1,0.3,0.2,0.4c0,0.1,0,0.1,0,0.2c0,0.3,0,0.6,0,0.9c0,0.2-0.1,0.4,0.2,0.6
					c0.1,0,0,0.2,0.1,0.3c0.1,0.4-0.1,0.8,0.2,1.1c0.1,0.1,0,0.2,0,0.2c0,0.2-0.1,0.5,0.2,0.7c0,0,0,0,0,0c0.1,0.4,0.1,0.8,0.3,1.1
					c0.1,0.2,0.1,0.5,0.4,0.7c0,0,0.1,0.1,0.1,0.1c0,0.4,0.4,0.6,0.6,0.9c0.2,0.3,0.6,0.2,0.8,0.5c0,0.2,0.1,0.4-0.2,0.6
					c0,0,0,0.1,0,0.2c-0.1,0.1-0.1,0.2-0.2,0.3c0,0,0,0.1,0,0.1c0,0.2-0.1,0.3-0.2,0.5c-0.2,0.3-0.2,0.6-0.3,1c0,0.1,0,0.3-0.2,0.4
					c0,0,0,0.1,0,0.1c0.1,0.6-0.4,1-0.3,1.6c0,0.2,0,0.5,0,0.7c0,0.1,0,0.3-0.2,0.4c-0.1,0.1-0.2,0.3-0.3,0.5
					c-0.1,0.5-0.6,0.7-0.5,1.3c-0.3,0.2-0.1,0.5-0.3,0.7c-0.3,0.3-0.2,0.7-0.2,1c0,0.4,0.2,0.6,0.6,0.6c0.2,0,0.3-0.1,0.4-0.3
					c0-0.2,0.2-0.3,0.3-0.5c0,0,0,0,0.1,0c0.1-0.2,0.2-0.4,0.3-0.7c0-0.1,0.1-0.2,0.1-0.2c0-0.1,0.1-0.2,0.1-0.3c0-0.1,0-0.2,0-0.3
					c0.4-0.3,0.1-0.8,0.4-1.1c0.1-0.1,0-0.3,0.1-0.5c0-0.4,0.1-0.7,0.4-1c0.1-0.1,0.2-0.3,0.3-0.5c0.1-0.2,0.3-0.4,0.4-0.6
					c0-0.1,0-0.1,0.1-0.2c0.1-0.1,0.1-0.2,0.2-0.3c0,0,0.1-0.1,0.1-0.1c0-0.2,0.1-0.3,0.2-0.4c0.2-0.2,0.2-0.5,0.3-0.8
					c0.1-0.2-0.1-0.4,0.2-0.6c0,0,0-0.2,0-0.2c0-0.6,0-1.2,0-1.8c0-0.2-0.1-0.4,0.2-0.5l0,0c0-0.4,0.5-0.8,0.1-1.2
					c-0.1-0.1-0.1-0.3-0.1-0.5c0-0.3,0-0.7-0.2-1c-0.1-0.2-0.1-0.5-0.1-0.8c0-0.2,0-0.3-0.2-0.4c0,0,0-0.1-0.1-0.2
					c0-0.2,0-0.5,0-0.7c0-0.2,0-0.3-0.2-0.4c-0.1,0,0-0.2-0.1-0.3c0-0.3,0.1-0.7-0.2-1c-0.1-0.1,0-0.2,0-0.3c0-0.3,0.1-0.5-0.2-0.8
					c-0.1-0.1,0-0.2-0.1-0.2c0-0.2,0-0.5-0.2-0.7c-0.1-0.1-0.1-0.2-0.1-0.3c0-0.2,0-0.4-0.2-0.5c-0.1,0,0-0.2-0.1-0.3
					c0-0.1,0.1-0.3-0.2-0.4c0,0,0,0,0-0.1c0.1-0.4-0.2-0.6-0.3-0.9c-0.1-0.2-0.1-0.5-0.4-0.7c-0.1-0.1-0.2-0.2-0.2-0.4
					c-0.1-0.2-0.3-0.4-0.5-0.5c-0.3-0.4-0.7-0.5-1.1-0.7c-0.2-0.1-0.4-0.3-0.6-0.4c-0.1,0-0.2,0-0.2-0.1c-0.1-0.1-0.3-0.1-0.4-0.2
					c-0.1,0-0.1,0-0.2-0.1c-0.2,0-0.4,0.1-0.5-0.2c0,0-0.1,0-0.2,0c-1.1,0-2.3,0-3.4,0c-0.1,0-0.2,0.1-0.3,0.1
					c-0.1,0-0.1,0.1-0.2,0.1c-0.2,0-0.3,0-0.5,0c-0.4,0.1-0.9,0.1-1.3,0.3c-0.2,0.1-0.5,0.1-0.7,0.2c-0.3,0.2-0.7,0.1-0.9,0.3
					c-0.3,0.2-0.7,0.1-1,0.2c-0.1,0-0.2,0.1-0.3,0.1c-0.1,0-0.1,0.1-0.2,0.1c-0.3,0-0.7,0-1,0c-0.2,0-0.4-0.1-0.5,0.2
					c0,0.1-0.2,0-0.2,0c-0.6,0-1.3,0-1.9,0.1c-0.1,0-0.3,0.1-0.4,0.1c-0.2,0-0.4,0-0.6,0c0,0,0-0.1,0-0.1c0.1,0,0.2-0.1,0.2-0.1
					c0.1,0,0.2,0,0.2,0c0.1-0.3,0.4-0.2,0.5-0.2c0.1,0,0.1-0.1,0.2-0.1c0,0,0-0.1,0.1-0.1c0.2-0.1,0.5-0.2,0.7-0.3
					c0.2-0.1,0.4-0.2,0.6-0.3c0.2-0.1,0.5-0.3,0.7-0.4c0.3-0.2,0.5-0.2,0.8-0.4c0.1-0.1,0.3-0.2,0.5-0.3c0.3-0.2,0.6-0.4,0.9-0.7
					c0.3-0.2,0.6-0.5,0.9-0.7c0.2-0.2,0.4-0.3,0.5-0.5c0.2-0.2,0.4-0.4,0.6-0.7c0.2-0.2,0.4-0.4,0.5-0.6c0,0,0,0,0,0
					c0.2-0.1,0.5-0.2,0.7-0.3c0.2-0.1,0.3-0.2,0.4-0.3c0.1-0.1,0.2-0.1,0.3-0.2c0.1-0.1,0.2-0.1,0.3-0.2c0.2-0.2,0.4-0.3,0.5-0.4
					c0.1-0.1,0.3-0.2,0.4-0.3c0.1-0.1,0.2-0.2,0.3-0.3c0.2-0.2,0.3-0.4,0.5-0.6c0.2-0.2,0.4-0.4,0.6-0.5c0.1-0.1,0.2-0.2,0.2-0.3
					c0.1-0.3,0.3-0.4,0.5-0.6c0.1-0.1,0.2-0.3,0.3-0.5c0.1-0.1,0.1-0.3,0.3-0.4c0.2-0.2,0.4-0.4,0.4-0.7c0-0.1,0.1-0.2,0.2-0.2
					c0.2-0.3,0.4-0.5,0.6-0.8c0.1-0.1,0.2-0.2,0.3-0.4c0.1-0.2,0.3-0.4,0.5-0.6c0.3-0.3,0.5-0.7,0.8-1c0.2-0.2,0.4-0.4,0.6-0.6
					c0.3-0.2,0.5-0.5,0.8-0.7c0.2-0.2,0.4-0.3,0.7-0.5c0.3-0.2,0.6-0.5,0.9-0.8c0.2-0.2,0.5-0.5,0.7-0.7c0.1-0.2,0.2-0.3,0.3-0.5
					c0-0.1,0.1-0.1,0.1-0.1c0,0,0.1,0.1,0.1,0.1c0.1,0.3,0.3,0.6,0.4,0.9c0,0.1,0.1,0.2,0.1,0.2c0,0.2,0,0.3,0.2,0.4
					c0,0,0,0.1,0,0.1c0,0.2,0.1,0.3,0.2,0.5c0.2,0.3,0.1,0.7,0.3,0.9c0.2,0.3,0.1,0.7,0.4,0.9c0,0,0,0,0,0.1
					c0.1,0.3,0.2,0.6,0.3,0.9c0,0.1,0.1,0.1,0.1,0.2c0,0,0.1,0.1,0.1,0.1c-0.1,0.3,0.1,0.6,0.3,0.8c0.1,0.2,0.2,0.3,0.3,0.5
					c0,0,0.1,0.1,0.1,0.1c0.1,0.3,0.3,0.4,0.4,0.6c0.1,0.2,0.2,0.4,0.3,0.5c0.1,0.1,0.2,0.2,0.3,0.3c0.2,0.2,0.5,0.4,0.7,0.7
					c0,0,0.1,0,0.1,0c0.3,0,0.5,0.3,0.7,0.4c0.1,0.1,0.1,0,0.2,0.1c0.1,0.1,0.3,0.1,0.4,0.2c0.1,0,0.2,0.1,0.2,0.1
					c0.3,0,0.6,0,0.9,0c0.2,0,0.3,0.1,0.2,0.3c-0.1,0.1-0.1,0.2-0.1,0.3c0,0.1,0,0.3-0.2,0.4c0,0,0,0,0,0c-0.1,0.3-0.2,0.6-0.3,0.9
					c0,0.1-0.1,0.2-0.2,0.3c0,0,0,0-0.1,0.1c-0.1,0.4-0.2,0.8-0.3,1.1c0,0.1-0.1,0.3-0.2,0.4c0,0.2,0,0.4-0.1,0.6
					c0,0.1-0.1,0.3-0.2,0.4c0,0.1-0.1,0.2-0.1,0.2c0,0.3,0,0.6,0,0.9c0,0.2,0.1,0.4-0.2,0.5c0,0,0,0.1,0,0.1
					c-0.1,0.2-0.1,0.6-0.3,0.7c-0.3,0.2-0.1,0.5-0.4,0.6c0,0,0,0.1,0,0.2c0,0.1-0.1,0.2-0.2,0.3c0,0,0,0,0,0
					c-0.1,0.2-0.2,0.5-0.3,0.7c0,0.1-0.1,0.1-0.1,0.2c-0.1,0.1-0.1,0.2-0.1,0.3c-0.1,0.3-0.1,0.7-0.3,1c-0.2,0.3-0.1,0.5-0.2,0.8
					c-0.3,0.5-0.2,1-0.2,1.5c0,0.2-0.2,0.4-0.3,0.5c-0.1,0.1-0.1,0.2-0.2,0.3c-0.1,0.1-0.1,0.2-0.2,0.2c0,0-0.1,0.1-0.1,0.1
					c-0.1,0.4-0.2,0.8-0.2,1.3c0,0.3,0,0.6,0,0.9c0,0.3,0.3,0.9,0.6,1c0.1,0,0.3,0,0.4-0.1c0.5-0.2,0.4-0.5,0.4-0.9
					c0-0.7,0-1.4,0-2.1c0-0.3,0.2-0.6,0.4-0.8c0.1-0.2,0.2-0.4,0.3-0.5c0.2-0.2,0.2-0.5,0.4-0.6c0.2-0.1,0.2-0.4,0.3-0.5
					c0.1-0.2,0.2-0.4,0.4-0.6c0-0.1,0.1-0.2,0.1-0.3c0-0.2,0-0.3,0.2-0.4c0,0,0-0.1,0-0.1c0-0.2,0.2-0.3,0.2-0.5
					c0-0.4,0.4-0.7,0.3-1.1c0-0.1,0.1-0.3,0.2-0.4c0,0,0-0.1,0-0.1c0.1-0.5,0.2-1,0.2-1.4c0-0.2,0-0.3,0.2-0.4c0,0,0-0.1,0.1-0.2
					c0-0.2,0.1-0.4,0.2-0.6c0.2-0.3,0.2-0.7,0.3-1c0-0.1,0.1-0.2,0.2-0.3c0-0.1,0.1-0.1,0.1-0.1c0.1-0.2-0.1-0.4,0.2-0.6
					c0,0,0-0.1,0-0.2c0.1-0.2,0.1-0.3,0.2-0.4c0-0.1,0-0.1,0.1-0.2c0-0.2-0.1-0.4,0.2-0.6c0.1,0,0-0.2,0.1-0.3
					c0-0.3,0.1-0.6,0.2-0.9c0.1-0.3,0.1-0.7,0-1c0-0.2,0.2-0.5,0.5-0.5v-0.9c-0.1,0-0.2,0-0.2-0.2c0-0.1,0-0.2-0.1-0.3
					c-0.1-0.2-0.3-0.4-0.4-0.6c-0.1-0.2-0.2-0.4-0.3-0.7c0,0,0,0,0-0.1c-0.2-0.3-0.5-0.5-0.7-0.9c0-0.1-0.2-0.2-0.2-0.3
					c-0.1-0.1-0.3-0.3-0.4-0.4c-0.1-0.2-0.2-0.3-0.3-0.5c-0.1-0.1-0.2-0.2-0.3-0.3c-0.1-0.1-0.3-0.2-0.4-0.4
					c-0.2-0.3-0.4-0.6-0.7-0.8c-0.1-0.1-0.2-0.2-0.3-0.3c-0.1-0.2-0.2-0.4-0.4-0.5c-0.2-0.2-0.4-0.4-0.5-0.6
					c-0.2-0.2-0.3-0.4-0.5-0.7c-0.2-0.3-0.5-0.6-0.7-0.9c-0.1-0.1-0.2-0.2-0.3-0.3c-0.1-0.1-0.2-0.2-0.3-0.3
					c-0.2-0.2-0.3-0.5-0.5-0.6c-0.3-0.2-0.4-0.7-0.8-0.8c-0.1-0.1-0.2-0.2-0.3-0.3c-0.1-0.1-0.2-0.2-0.3-0.3
					c-0.2-0.2-0.4-0.3-0.8-0.3c0,0-0.1,0-0.1-0.1c-0.1-0.2-0.4-0.2-0.4-0.1c-0.2,0.2-0.3,0.1-0.5,0.2c-0.1,0-0.2,0.1-0.2,0.1
					c-0.1,0-0.2,0-0.2,0c-0.1-0.3-0.3-0.2-0.4-0.1c-0.1,0-0.3,0.2-0.4,0.3c-0.2,0.1-0.3,0.3-0.5,0.4c-0.1,0.1-0.2,0.2-0.3,0.2
					c-0.1,0.1-0.3,0.2-0.4,0.3c-0.2,0.2-0.4,0.4-0.6,0.6c-0.2,0.2-0.4,0.4-0.6,0.6c-0.2,0.2-0.3,0.4-0.5,0.7
					c-0.2,0.3-0.5,0.6-0.7,0.9c-0.2,0.3-0.4,0.5-0.7,0.8c-0.1,0.2-0.3,0.3-0.4,0.4c-0.1,0.1-0.2,0.3-0.3,0.4
					c-0.1,0.2-0.2,0.3-0.4,0.5c-0.1,0.1-0.2,0.2-0.3,0.4c-0.1,0.2-0.2,0.4-0.3,0.5c-0.1,0.1-0.2,0.2-0.2,0.3
					c-0.1,0.1-0.3,0.2-0.4,0.3c-0.1,0.3-0.2,0.5-0.5,0.6c-0.1,0.1-0.2,0.2-0.3,0.3c-0.2,0.3-0.3,0.6-0.5,0.8
					c-0.2,0.2-0.4,0.3-0.4,0.6c0,0,0,0.1-0.1,0.1c-0.1,0.1-0.3,0.2-0.4,0.3c-0.1,0.1-0.2,0.2-0.2,0.4c-0.2,0.3-0.4,0.5-0.5,0.8
					c-0.1,0.2-0.3,0.3-0.4,0.4c-0.1,0.2-0.2,0.4-0.3,0.5c-0.3,0.2-0.4,0.6-0.6,0.8c-0.2,0.2-0.4,0.4-0.6,0.7
					c-0.1,0.2-0.4,0.1-0.5,0.2c-0.2,0.2-0.4,0.1-0.7,0.2c-0.1,0-0.2,0.1-0.3,0.1c-0.3,0.1-0.5,0.2-0.8,0.4c-0.3,0.1-0.5,0.2-0.8,0.3
					c0,0,0,0,0,0c-0.2,0.1-0.4,0.4-0.7,0.4c0,0-0.1,0-0.1,0c-0.2,0.1-0.4,0.3-0.6,0.4c-0.2,0.1-0.5,0.2-0.7,0.3c0,0,0,0.1-0.1,0.1
					c-0.2,0.1-0.3,0.3-0.5,0.3c-0.3,0.1-0.4,0.4-0.7,0.3c0,0,0,0.1-0.1,0.1c-0.2,0.1-0.3,0.2-0.4,0.3c-0.2,0.1-0.5,0.2-0.7,0.3
					c0,0,0,0,0,0.1c-0.1,0.1-0.3,0.3-0.4,0.3c-0.3,0.1-0.4,0.3-0.6,0.4c-0.2,0.1-0.4,0.2-0.5,0.3c-0.2,0.1-0.5,0.2-0.7,0.3
					c0,0,0,0,0,0.1c-0.2,0.2-0.7,0.2-0.9,0c0.1,0,0.1-0.1,0.2-0.1c0.3-0.1,0.6-0.2,0.8-0.3c0.1-0.1,0.2-0.2,0.3-0.3
					c0.2-0.2,0.3-0.5,0.5-0.6c0.3-0.2,0.7-0.3,1.1-0.5c0.2-0.1,0.4-0.2,0.7-0.3c0.1-0.1,0.2-0.1,0.3-0.2c0.1-0.1,0.2-0.3,0.3-0.4
					c0.2-0.2,0.4-0.4,0.6-0.6c0.1-0.1,0.2-0.2,0.2-0.3c0.1-0.5,0.5-0.6,0.9-0.8c0.1-0.1,0.3,0,0.3-0.2c0-0.1,0.2-0.2,0.3-0.3
					c0.4-0.1,0.5-0.4,0.8-0.6c0.2-0.2,0.3-0.5,0.5-0.8c0-0.1,0.2-0.1,0.2-0.1c0.2-0.6,0.7-0.9,1-1.3c0.3-0.3,0.4-0.6,0.7-0.9
					c0.1-0.2,0.1-0.4,0.3-0.5c0.3-0.2,0.2-0.4,0.4-0.6c0.2-0.2,0.2-0.5,0.3-0.7c0,0,0-0.1,0-0.1c0.2-0.1,0.2-0.3,0.2-0.4
					c0-0.1,0.1-0.2,0.1-0.3c0-0.1,0.1-0.1,0.1-0.2c0.1-0.3,0.2-0.6,0.3-0.9c0,0,0-0.1,0-0.1c0.3-0.1,0.2-0.3,0.2-0.4
					c0-0.1,0-0.2,0-0.3c0.3-0.1,0.2-0.3,0.2-0.5c0.1-0.4,0.3-0.7,0.3-1c0,0,0-0.1,0-0.1c0.1-0.1,0.1-0.2,0.2-0.3
					c0.1-0.4,0.2-0.8,0.3-1.3c0,0,0,0,0,0c0.2-0.2,0.2-0.4,0.2-0.7c0-0.1,0-0.2,0.1-0.3c0.2-0.1,0.2-0.3,0.2-0.4c0-0.2,0-0.4,0-0.5
					c0.3-0.2,0.2-0.5,0.2-0.7c0-0.2,0-0.4,0.1-0.4c0.2-0.2,0.1-0.4,0.2-0.6c0-0.2,0-0.5,0.1-0.7c0.2-0.3,0.1-0.5,0.2-0.8
					c0-0.2,0-0.4,0.1-0.6c0.3-0.4,0.1-0.9,0.2-1.3c0-0.1,0-0.2,0-0.2c0.2-0.2,0.2-0.4,0.2-0.7c0-0.3,0-0.5,0-0.8
					c0-0.1,0.1-0.2,0.1-0.2c0-0.1,0.1-0.2,0.1-0.3c0-0.6,0-1.1,0-1.7c0-0.1,0.1-0.2,0.1-0.3c0-0.1,0.1-0.2,0.1-0.2c0-1,0-1.9,0-2.9
					c0-0.1,0-0.2-0.1-0.3c0-0.1-0.1-0.2-0.1-0.3c0-0.2,0-0.4,0-0.6c0-0.1,0-0.2-0.1-0.2c-0.2-0.2-0.2-0.6-0.4-0.8
					c-0.1-0.1-0.1-0.1-0.1-0.2c-0.1-0.1-0.1-0.2-0.1-0.3c0-0.1,0.1-0.1,0.1-0.2c0.1-0.1,0.3-0.3,0.4-0.4c0.1-0.3,0.4-0.5,0.3-0.8
					c0,0,0-0.1,0-0.1c0.2-0.1,0.2-0.2,0.2-0.4c-0.1-1.3,0.2-2.6-0.2-3.8c-0.1-0.4,0.1-0.8-0.2-1.1c-0.2-0.2,0-0.6-0.2-1
					c-0.1-0.2,0-0.6-0.2-0.9c-0.2-0.3-0.2-0.7-0.3-1c-0.1-0.2-0.2-0.4-0.2-0.7c0,0,0-0.1-0.1-0.1c-0.2,0-0.1-0.2-0.2-0.3
					c0-0.1,0-0.2,0-0.2c-0.3-0.1-0.2-0.4-0.4-0.6c-0.2-0.2-0.3-0.5-0.5-0.6c-0.1-0.1-0.2-0.2-0.2-0.3c-0.1-0.3-0.1-0.7-0.2-1
					c-0.2-0.5,0.1-1.1-0.2-1.7c-0.1-0.2,0-0.5-0.1-0.7c0-0.1,0-0.2-0.1-0.3c0-0.1-0.1-0.3-0.1-0.4c0.1-0.6-0.3-1.1-0.3-1.7
					c0,0,0-0.1,0-0.1c-0.1-0.2-0.1-0.3-0.2-0.5c-0.1-0.3-0.2-0.6-0.2-0.8l0,0c-0.2-0.1-0.2-0.3-0.2-0.4c0-0.1-0.1-0.2-0.1-0.2
					c0-0.1-0.1-0.2-0.1-0.2c0-0.1,0-0.2-0.1-0.2c-0.3-0.1-0.2-0.5-0.4-0.7c-0.1-0.1-0.2-0.4-0.3-0.5c-0.2-0.2-0.4-0.4-0.6-0.5
					c-0.1-0.1-0.2-0.2-0.3-0.3c-0.2-0.1-0.3-0.3-0.5-0.4c-0.3-0.1-0.5-0.2-0.8-0.3c0,0-0.1-0.1-0.1-0.1c-0.1-0.1-0.2-0.1-0.3-0.1
					c-0.3,0-0.6,0-0.9,0c0-0.2,0-0.3-0.1-0.4C99,13.4,99,13.2,99,13c0-0.1-0.1-0.1-0.1-0.2c0-0.1-0.1-0.1-0.1-0.2
					c-0.1-0.2-0.2-0.5-0.3-0.7c-0.1-0.2-0.1-0.4-0.2-0.4c-0.3-0.1-0.1-0.5-0.4-0.6c-0.1,0-0.1-0.1-0.2-0.2c-0.2-0.3-0.3-0.5-0.5-0.8
					c-0.1-0.1-0.2-0.2-0.3-0.3c-0.1-0.1-0.3-0.2-0.4-0.3c-0.2-0.2-0.4-0.4-0.5-0.6c-0.2-0.2-0.4-0.3-0.6-0.5
					c-0.2-0.1-0.3-0.3-0.4-0.4c-0.2-0.2-0.4-0.3-0.5-0.4C94.2,7.1,94.1,7,94,7c-0.1-0.1-0.2-0.1-0.3-0.2c-0.1-0.1-0.2-0.2-0.4-0.3
					c-0.2-0.1-0.4-0.2-0.6-0.3c-0.2-0.1-0.4-0.3-0.7-0.4c-0.2-0.1-0.4-0.3-0.7-0.3c0,0,0-0.1-0.1-0.1c-0.1-0.1-0.1-0.1-0.2-0.1
					c-0.3-0.1-0.6-0.2-0.9-0.3C90.1,5,89.8,5,89.7,4.8c-0.2-0.2-0.4-0.2-0.5-0.2c-0.1,0-0.1,0-0.2,0c-0.2-0.3-0.4-0.2-0.7-0.2
					c-0.1,0-0.2-0.1-0.3-0.1c-0.1,0-0.2-0.1-0.3-0.1c-0.2,0-0.3,0-0.5,0c-0.4,0-0.5-0.1-0.6-0.5c0-0.1,0-0.1-0.1-0.1
					c-0.1-0.1-0.2-0.3-0.4-0.4c-0.2-0.2-0.4-0.4-0.5-0.5c-0.1-0.1-0.2-0.1-0.3-0.2C85.2,2.1,85,2.1,84.9,2c-0.3-0.2-0.6-0.3-0.8-0.4
					c-0.3-0.2-0.5-0.2-0.8-0.2c0,0,0,0,0,0c0-0.2-0.2-0.1-0.3-0.2c-0.1,0-0.2,0-0.3-0.1c-0.2-0.2-0.5-0.2-0.7-0.2
					c-0.1,0-0.2,0-0.2-0.1c-0.2-0.2-0.4-0.2-0.6-0.2c-0.1,0-0.3,0-0.4-0.1c-0.3-0.2-0.6-0.2-0.9-0.2c-0.1,0-0.3,0-0.4-0.1
					c-0.2,0-0.3-0.1-0.5-0.2c-0.5,0-0.9,0-1.4,0c-0.1,0-0.3,0-0.2-0.2L72.4,0L72.4,0z"/>
			</g>
		</g>
	</g>
</g>
</svg>
