<?xml version="1.0" encoding="utf-8"?>
<!-- Generator: Adobe Illustrator 23.1.1, SVG Export Plug-In . SVG Version: 6.00 Build 0)  -->
<svg version="1.1" id="Layer_1" xmlns="http://www.w3.org/2000/svg" xmlns:xlink="http://www.w3.org/1999/xlink" x="0px" y="0px"
	 viewBox="0 0 100 100" style="enable-background:new 0 0 100 100;" xml:space="preserve">
<g>
	<path d="M93,15.3l-5.5-4l-15-0.2l12.2-1.7l-5.1-3.8c-0.4-0.3-0.9-0.5-1.4-0.5H54.2l0-1.3c0-2-1.6-3.6-3.6-3.6l0,0
		c-2,0-3.6,1.6-3.6,3.6l0,1.3h-3.2c-1.3,0-2.4,1.1-2.4,2.4v11.9l4.9,2.8L41.4,24v2.9c0,1.3,1.1,2.4,2.4,2.4H47l0,5.4H22.4
		c-0.5,0-1,0.2-1.4,0.5L7.7,44.8c-1.3,0.9-1.3,2.9,0,3.8l6.2,4l5.4-0.6l-2.1,3.4l3.9,2.8c0.4,0.3,0.9,0.5,1.4,0.5H47l0,38.6H32.5
		c-0.8,0-1.4,0.6-1.4,1.4c0,0.8,0.6,1.4,1.4,1.4h36.3c0.8,0,1.4-0.6,1.4-1.4c0-0.8-0.6-1.4-1.4-1.4H54.3l0-38.6H57
		c1.3,0,2.4-1.1,2.4-2.4v-7.7l-3.7-1.7l3.7-2v-8c0-1.3-1.1-2.4-2.4-2.4h-2.8l0-5.4h24.2c0.5,0,1-0.2,1.4-0.5L93,19.1
		C94.3,18.2,94.3,16.3,93,15.3z"/>
</g>
</svg>
