<?xml version="1.0" encoding="utf-8"?>
<!-- Generator: Adobe Illustrator 23.1.1, SVG Export Plug-In . SVG Version: 6.00 Build 0)  -->
<svg version="1.1" id="Layer_1" xmlns="http://www.w3.org/2000/svg" xmlns:xlink="http://www.w3.org/1999/xlink" x="0px" y="0px"
	 viewBox="0 0 100 100" style="enable-background:new 0 0 100 100;" xml:space="preserve">
<path d="M42.8,10.2c-1.8,3.2-4.9,4-7.9,5.2c-2,0.8-3.8,2-5.8,3.1c-2.6-2.9-5.3-6-8-9.1c14.8-11.3,40.8-14,60.3,2.4
	C102,29.2,103.1,57.1,91.9,75c-0.2-0.2-0.4-0.3-0.6-0.5C83.5,66.6,75.7,58.8,67.8,51c-0.5-0.5-0.7-0.8-0.4-1.5
	c4.2-9.8,2.1-20.8-5.6-28.4c-4.3-4.3-9.4-6.9-15.5-7.6c-0.4,0-0.8-0.3-1-0.6C44.5,12.1,43.7,11.3,42.8,10.2z M95.5,84.6
	c-0.1-0.4-0.4-0.7-0.7-1c-1.9-1.9-3.8-3.9-5.8-5.8C72.8,61.5,56.5,45.2,40.2,28.9c-0.3-0.3-0.8-0.5-1.3-0.8c2.9-2.9,5.5-5.4,7.9-7.9
	c-1.3-1.3-2.7-2.7-4.1-4.1c-3.7,3.7-7.3,7.4-11.2,11.2C24.2,18.8,16.9,10.4,9.7,2.2c-2.5,2.4-5,5-7.5,7.4
	c8.4,7.1,16.9,14.3,25.6,21.7c-4,3.9-7.7,7.7-11.4,11.3c1.3,1.3,2.6,2.7,4,4.1c2.3-2.3,4.7-4.7,7.2-7.2c0.3,0.4,0.6,0.8,1,1.2
	C46.8,58.8,64.9,76.9,83.1,95c0.4,0.4,1.1,0.8,1.7,1c2.4,0.7,4.8,1.2,7.2,1.8c2.6,0.7,5.3,1.3,8.1,2C98.5,94.6,97,89.6,95.5,84.6z
	 M85.9,88.7c-1.9-1.9-3.9-3.9-5.8-5.8C65.9,68.7,51.7,54.4,37.4,40.2c-0.6-0.6-1.1-0.9-2-0.7c-2,0.5-4-0.5-4.9-2.3
	c-1-1.8-0.7-4,0.7-5.4c1.4-1.5,3.6-1.8,5.4-1c1.8,0.9,2.8,2.8,2.6,4.9c0,0.4,0.2,1,0.5,1.3c11.1,11.2,22.3,22.3,33.4,33.5
	c5,5,10,10,15,15c0.2,0.2,0.3,0.4,0.6,0.6C87.8,87,86.9,87.8,85.9,88.7z M9.5,20.7c-10.3,13.7-13.4,34.8-3.2,53
	C16.7,92.3,36.1,100.5,53.6,99c-1.9-0.2-3.5-0.3-5.1-0.6c-9.2-1.5-17.4-5.3-24.1-11.8c-11.9-11.4-16.9-25-13.2-41.4
	c0.2-1,0.7-1.9-0.5-2.5c0.8-1,1.6-1.9,2.2-2.9c0.6-1,0.9-2.3,1.5-3.3c1.4-2.6,2.9-5.1,4.5-7.7C15.9,26.2,12.7,23.5,9.5,20.7z"/>
</svg>
