<?xml version="1.0" encoding="utf-8"?>
<!-- Generator: Adobe Illustrator 23.1.1, SVG Export Plug-In . SVG Version: 6.00 Build 0)  -->
<svg version="1.1" id="Layer_1" xmlns="http://www.w3.org/2000/svg" xmlns:xlink="http://www.w3.org/1999/xlink" x="0px" y="0px"
	 viewBox="0 0 100 100" style="enable-background:new 0 0 100 100;" xml:space="preserve">
<path d="M87.9,84.8c0,0.9-0.1,1.9,0,2.9c0.1,0.7-0.4,0.8-0.9,1c-6.2,1.7-12.4,3.4-18.5,5.1c-5.9,1.6-11.8,3.3-17.6,4.9
	c-0.5,0.1-1.2,0.2-1.7,0C37,95.4,25,92,12.9,88.7c-0.3-0.1-0.5-0.2-0.8-0.3c0-0.2,0-0.4,0-0.6c-0.2-1.8-0.2-3.6,2.1-4.2
	c0.4-0.1,0.8-0.5,1.1-0.9c1.4-1.6,2.9-3.2,4.2-4.9c1.2-1.6,1.1-3.4,0.4-5.1c-0.2-0.5-0.3-1,0-1.5c0.8-1.6-0.1-4-1.9-5.1
	c-0.5-0.3-0.7-0.7-0.7-1.3c-0.2-1.8-1.3-3.1-2.9-3.9c-0.7-0.4-1.5-0.6-2.3-0.9c0-7.9,0-15.8,0-23.9c0.3,0.1,0.7,0.1,1,0.2
	C25,39.8,37,43.3,49,46.8c0.6,0.2,1.4,0.2,2,0c11.9-3.5,23.9-7,35.8-10.5c0.3-0.1,0.7-0.2,1.1-0.3c0,0.3,0.1,0.6,0.1,0.8
	c0,7.4,0,14.9,0,22.3c0,0.7-0.3,0.9-0.9,1.1c-2,0.5-3.7,1.6-4.2,3.8c-0.2,1.2-0.8,1.9-1.6,2.6c-1.5,1.4-1.8,3.1-1.1,4.9
	c0.1,0.3,0.1,0.7,0,0.9c-1.1,2.8-0.7,4.6,1.5,6.7c0.4,0.4,0.9,0.8,1.2,1.3C84.8,83.1,85.1,83.4,87.9,84.8z M29.8,21.4
	c0,11.1,9,20.1,20.1,20.2c11.2,0.1,20.3-8.9,20.3-20.1c0-11.2-9-20.3-20.1-20.3C38.9,1.1,29.8,10.2,29.8,21.4z M10,58.8
	c-0.3-0.9-0.4-2.3-1.1-2.7c-0.9-0.6-1.9,0.4-2.6,1.1c-1.7,2-3.4,4-4.9,6.2c-0.6,0.8-1,1.9-1.1,2.9c-0.9,6,1,11.2,5.4,15.3
	c3,2.8,6.6,2.2,9.1-1c0.8-1,1.6-2,2.6-3c1.1-1.1,1.3-2.4,0.8-3.8c-0.1-0.4-0.3-0.8-0.5-1.2c-0.3-0.6-0.3-1.2,0.2-1.8
	c0.2-0.3,0.3-0.8,0.2-1.2c-0.2-1-0.9-1.7-1.8-2.1c-0.8-0.3-1.1-0.9-1-1.7c0.2-1.3-0.5-2.3-1.6-2.9c-0.6-0.3-1.2-0.5-1.8-0.7
	c-1.9-0.5-2-0.6-2-2.6C10,59.2,10,58.9,10,58.8z M98.3,62.7c-1.4-1.9-2.9-3.6-4.4-5.4c-0.5-0.5-1.1-0.9-1.8-1.2
	c-0.8-0.4-1.4-0.2-1.6,0.7c-0.2,0.9-0.4,1.7-0.5,2.6c-0.1,2-0.1,2.1-2,2.6c-0.6,0.2-1.3,0.4-1.8,0.7c-0.9,0.5-1.6,1.3-1.5,2.3
	c0.1,1.3-0.3,2-1.5,2.6c-1.1,0.5-1.8,2.1-1.3,2.7c1,1.2,0.4,2.2,0,3.2c-0.6,1.6-0.3,2.8,0.9,4.1c0.8,0.8,1.5,1.5,2.1,2.4
	c2.8,3.9,6.6,4.4,10,1c3.3-3.4,5-7.4,5.1-12.2C100,66.6,99.6,64.5,98.3,62.7z"/>
</svg>
