<?xml version="1.0" encoding="utf-8"?>
<!-- Generator: Adobe Illustrator 23.1.1, SVG Export Plug-In . SVG Version: 6.00 Build 0)  -->
<svg version="1.1" id="Layer_1" xmlns="http://www.w3.org/2000/svg" xmlns:xlink="http://www.w3.org/1999/xlink" x="0px" y="0px"
	 viewBox="0 0 100 100" style="enable-background:new 0 0 100 100;" xml:space="preserve">
<path d="M89.1,61.9c-0.3,0.6-0.5,1.2-0.9,1.6c-7,7-14,14.1-21,21.1c-1,1-2.1,1-3.1,0c-4.2-4.2-8.5-8.4-12.7-12.6c-1-1-1-2.1,0-3.1
	c7-7,14-14.1,21-21.1c1-1,2.1-1,3.1,0c4.2,4.2,8.5,8.4,12.7,12.6C88.5,60.8,88.7,61.4,89.1,61.9z M22.8,96.5c7.1,0,14.2,0,21.3,0
	c0.5,0,1-0.3,1.5-0.5c-0.2-0.5-0.3-1.2-0.6-1.6c-5.1-5.7-10.2-11.3-15.3-17c-0.2-0.2-0.3-0.5-0.6-0.6c-0.4-0.1-1-0.4-1.3-0.2
	c-0.4,0.2-0.6,0.8-0.6,1.3c0,0.8,0.3,1.6,0.5,2.3c0.5,1.8,0.2,3.4-1.3,4.5c-1.5,1.1-3,1-4.6,0.2c-4.7-2.4-9.5-4.7-14.3-7.1
	c-0.6-0.3-1.3-0.6-1.9,0c-0.6,0.7-0.2,1.3,0.2,1.9c1.6,2.2,3.2,4.4,4.8,6.7c1,1.5,0.6,3-1,3.8c-1.2,0.6-2.5,1.2-3.8,1.9
	c-1.7,0.9-3.5,1.7-5.2,2.6c-0.3,0.2-0.7,0.8-0.6,1c0.2,0.3,0.7,0.6,1.1,0.8c0.3,0.1,0.6,0,0.9,0C8.9,96.6,15.9,96.6,22.8,96.5
	C22.8,96.6,22.8,96.6,22.8,96.5z M16.2,17.9C21.3,23,26.3,28,31.4,33.1c7.4,7.4,14.7,14.7,22.1,22.1c1.4,1.4,1.7,1.4,3,0
	c0.8-0.8,1.5-1.5,2.2-2.3c1.3-1.3,1.3-1.6,0-2.9C52.2,43.4,45.6,36.8,39,30.2c-5.9-5.8-11.7-11.7-17.6-17.5c-1.2-1.2-1.6-1.2-2.8,0
	c-0.9,0.9-1.8,1.8-2.6,2.7c-0.3,0.3-0.5,0.7-0.8,1.2C15.5,17,15.8,17.5,16.2,17.9z M76.8,42.5c5.5,5.5,11.1,11.1,16.6,16.6
	c1,1,1.9,1,3,0c1-1,1.9-1.9,2.9-2.9c1-1,1-2,0-3c-5.5-5.5-11-11-16.5-16.5c-1-1-1.9-1-3,0c-1,1-2,2-3,3c-0.3,0.4-0.5,0.9-0.9,1.4
	C76.2,41.5,76.4,42.1,76.8,42.5z M62.6,89.7c-2.1-2.1-4.2-4.2-6.3-6.3c-3.3-3.3-6.6-6.6-9.8-9.8c-1.4-1.4-2.2-1.4-3.5,0
	c-0.9,0.9-1.8,1.8-2.7,2.8c-0.9,0.9-0.9,1.9,0,2.7c5.6,5.6,11.2,11.2,16.8,16.8c0.9,0.9,1.9,0.9,2.8,0c1-1,2.1-2,3-3.1
	c0.3-0.4,0.5-0.9,0.9-1.5C63.3,90.7,63,90.1,62.6,89.7z M82.2,96.6c3.5,0,7.1,0,10.6,0c1,0,2.1,0,3.1,0c0.3,0,0.7-0.3,0.7-0.5
	c0-0.2-0.2-0.6-0.4-0.8c-0.2-0.2-0.5-0.2-0.7-0.3c-2.8-1.1-5.6-2.1-8.4-3.2c-2.2-0.8-3.1-2.7-2.5-5c0.4-1.6,1-3.2,1.3-4.8
	c0.1-0.5,0.1-1.4-0.3-1.7c-0.6-0.6-1.2,0-1.8,0.5c-5.1,4.6-10.2,9.1-15.3,13.7c-0.4,0.4-0.5,1-0.8,1.5c0.5,0.2,1,0.6,1.6,0.6
	C73.6,96.6,77.9,96.5,82.2,96.6C82.2,96.6,82.2,96.6,82.2,96.6z M12.2,13.9c1.7-1.7,3.4-3.4,5.1-5.2c0.7-0.7,0.7-1.5,0-2.2
	c-0.9-0.9-1.7-1.7-2.6-2.6c-0.8-0.8-1.5-0.8-2.4,0c-1.7,1.7-3.3,3.3-5,5C7.2,9.3,7,9.7,6.9,10.1c-0.1,0.9,3.4,4.3,4.5,4.3
	C11.6,14.3,12,14.2,12.2,13.9z M15.3,67c1.7,1.3,3.5,2.7,5.2,4c0.3,0.2,0.9,0.2,1.3,0.3c0-0.4,0.2-0.9,0.1-1.3
	c-0.7-1.8-1.4-3.7-2.2-5.5c-0.4-0.9-1.1-1.8-1.8-2.6c-0.8-0.8-1.8-0.8-2.8-0.3c-1,0.5-1.4,1.3-1.5,2.4C13.7,65.2,14.3,66.2,15.3,67z
	 M96.5,79.1c-0.7,0.1-1.5,0.5-2,1c-0.9,1-1.6,2.1-2.3,3.2c-0.2,0.2-0.2,0.7-0.1,0.9c0.2,0.2,0.6,0.3,0.9,0.2
	c1.1-0.3,2.3-0.7,3.3-1.1c1.1-0.5,1.9-1.3,2-2.3C98.3,79.8,97.4,78.9,96.5,79.1z"/>
</svg>
