<?xml version="1.0" encoding="utf-8"?>
<!-- Generator: Adobe Illustrator 23.1.1, SVG Export Plug-In . SVG Version: 6.00 Build 0)  -->
<svg version="1.1" id="Layer_1" xmlns="http://www.w3.org/2000/svg" xmlns:xlink="http://www.w3.org/1999/xlink" x="0px" y="0px"
	 viewBox="0 0 150 100" style="enable-background:new 0 0 150 100;" xml:space="preserve">
<g>
	<path d="M95.3,2.2c0.1,0.1,0.3-0.1,0.3-0.2c0-0.1,0-0.2,0-0.2l-0.2-0.3c0,0,0.1,0.3,0.2,0.3c0.1,0,0.1-0.2,0.1-0.2l-0.3-0.4
		c0,0,0.3,0.2,0.4,0.3c0.1,0.1,0.1-0.3,0.1-0.3l-0.3-0.7c0,0,0.2,0.3,0.4,0.4c0.2,0.1,0.3,0,0.3-0.1c0-0.1,0-0.2,0-0.2l0.2,0.1
		c0,0,0.1,0.1,0.1-0.1V0.3l0.1,0.1c0,0,0.1,0.2,0.2,0c0-0.3,0-0.3,0-0.3s0,0.1,0.1,0.2c0.1,0.1,0.3,0.1,0.5-0.1
		C97.6-0.1,97.5,0,97.6,0c0.1,0,0.1,0,0.2,0c0.1,0,0.1,0,0.2,0.1c0.1,0.1,0.1,0.1,0.2,0.2c0.1,0.1,0.1,0.2,0.1,0.3s0,0.2,0.1,0.2
		c0.1,0,0.1,0.1,0.2,0.2c0,0.2,0,0.1,0,0.2c0,0.1,0,0.1,0,0.3c0,0.2,0,0.4,0,0.5c0,0.1-0.1,0.2-0.2,0.3c0,0,0,0.1,0,0.2
		c0,0.2-0.1,0.6-0.2,0.7c-0.2,0.1-0.2,0.6-0.3,0.7C97.9,4.2,98,4.5,98,4.5l0.8-0.2c0,0-0.6,0.2-0.7,0.3c-0.1,0-0.1,0.2-0.1,0.2
		L98.4,5l-0.4,0.1l0,0.2l0.4,0.1l-0.6,0l-0.1,0.4c0,0.1,0.2,0.3,0.1,0.2c-0.1,0-0.5-0.2-0.5-0.2L97.1,6c0,0,0.3,0.4,0.3,0.4
		c-0.1,0-0.5-0.2-0.5-0.2l0.2,0.7l-0.4-0.3l-0.2,0.1c0,0,0.5,0.7,0.4,0.7c-0.1,0-0.4-0.4-0.4-0.4l0,0.2c0,0,0.4,0.5,0.3,0.4
		c-0.1,0-0.5-0.6-0.7-0.7c-0.2-0.1-0.6-0.1-0.6-0.1l-0.1-0.3l-0.2-0.1l0,0.3l-0.2-0.4l-0.2,0l0.2,0.6c0,0-0.3-0.7-0.3-0.7
		c0,0.1-0.1,0.3-0.1,0.3l-0.1-0.4l-0.3,0l0,0.5L93.7,6l-0.2-0.1l-0.1,1l-0.1-0.7c0,0-0.1,0-0.2-0.1c0-0.1,0-0.2,0-0.2l-0.3-0.1
		l0.4,1l-0.4-0.7l-0.1,0.2l0,0.5l-0.1-0.7c0,0-0.4,0-0.4,0v0.4l-0.2-0.3c0,0-0.1,0-0.2,0.2c0,0.2-0.1,0.2-0.3,0.2
		c-0.2,0-0.2,0-0.2,0c0,0.1,0.6,0.7,0.6,0.7L91.4,7h-0.5L91,7.5l0.3,0.3c0,0-0.4-0.2-0.5-0.4c-0.1-0.1-0.2-0.1-0.2-0.1l0,0.4
		l-0.4-0.6c0,0-0.2-0.1-0.3,0c-0.1,0,0.1,0.3,0,0.3c-0.1,0-0.2-0.2-0.2-0.3c0-0.1-0.2-0.1-0.3-0.1c-0.1,0,0,0.2-0.2,0.2
		c-0.2,0-0.2,0.2-0.2,0.2l0.8,0.9l-0.8-0.8l0.5,0.6c0,0-0.5-0.4-0.7-0.5c-0.1-0.1-0.3,0.1-0.5,0.4c-0.2,0.3,0,0.5-0.1,1
		c-0.1,0.5-0.2,1-0.3,1.7c-0.1,0.7-0.2,1.6-0.2,1.8c0,0.2,0,0.1,0,0.3c0,0.2,0,0.2-0.1,0.3c-0.1,0.2-0.1,0.3-0.1,0.4
		c0,0.1,0,0.4-0.2,0.7c-0.1,0.2-0.1,0.4-0.2,0.6C87,15.1,87.1,15,87,15.2c0,0.2-0.2,0.3-0.2,0.3s-0.1,0.3-0.1,0.4
		c0,0.1,0,0.2-0.1,0.5c-0.1,0.3-0.2,0.5-0.2,0.7c-0.1,0.2,0.1,0.2,0,0.4c-0.1,0.2-0.1,0.1-0.1,0.3c0,0.3,0.1,0.2-0.1,0.3
		c-0.1,0.1-0.1,0.2-0.1,0.4c0,0.2,0.1,0.2,0,0.4s-0.2,0.2-0.1,0.3c0,0.1,0,0.2,0,0.2s-0.2,0.1-0.1,0.2c0.1,0.1,0,0.1,0,0.2
		c-0.1,0.1-0.1,0.1,0,0.2c0.1,0.1,0,0.2-0.1,0.2c-0.1,0-0.1,0.3-0.1,0.5c0,0.2,0.1,0.2,0,0.2c-0.2,0-0.1,0.2-0.1,0.3
		c0,0.1,0.1,0.1-0.1,0.2c-0.2,0.1,0,0.3,0,0.5c-0.1,0.2-0.1,0.3-0.2,0.3c-0.1,0-0.2,0-0.1,0.1c0.1,0.1,0.1,0,0,0.2
		c-0.1,0.2-0.1,0.3-0.1,0.4c0,0.2,0.1,0.1,0,0.2c-0.1,0.1-0.1,0.3-0.2,0.5c-0.1,0.2,0,0.3,0,0.3l0.8,0.1h-0.9l-0.1,0.4l0.4,0.2
		c0,0-0.4-0.2-0.5-0.1c-0.1,0.1-0.2,0.3-0.2,0.5c0,0.2,0.2,0.1,0.2,0.1L85,25c0,0-0.8,0-0.8,0.1s0,0.2-0.1,0.3
		c-0.1,0.2-0.1,0.1-0.1,0.2c0.1,0.1,0.2,0.2,0,0.2c-0.1,0.1-0.2,0-0.2,0.2c0,0.2,0.2,0.2,0,0.4c-0.2,0.2-0.2,0-0.2,0.2
		c0.1,0.2-0.2,0-0.3,0.1c0,0.1-0.1,0.3,0,0.4c0.1,0.1,0.2,0.2,0.2,0.2s-0.1,0.1-0.1,0.2c0,0.1,0.1,0.3,0.2,0.3s0.1,0.1,0.2,0
		c0.1-0.1,0-0.1,0.2-0.1c0.2,0,0.2-0.1,0.2-0.2c0-0.1,0-0.2,0-0.2l0.1,0.1v-0.5l0.2,0.1l0.2-0.2l-0.1-0.3l0.4,0v-0.3h0.2l0.1-0.2
		l0.3,0c0,0-0.1-0.2,0-0.3c0.1-0.1,0.2,0,0.2-0.2c0-0.1-0.1-0.1,0.1-0.1c0.2-0.1,0.3,0,0.3-0.1V25l0.2,0.1c0,0,0-0.1,0-0.2
		c0-0.1,0.1-0.3,0.1-0.3s0.3,0,0.3-0.2v-0.2l0.2,0c0,0,0.1-0.2,0.1-0.3c0-0.2,0-0.2,0-0.2l0.2,0c0,0-0.1,0-0.1-0.2v-0.2l0.2,0
		c0,0,0,0,0-0.2c0-0.2,0-0.2,0-0.2l0.2-0.2c0,0,0.2,0,0.2-0.1c0-0.1,0.1-0.1,0-0.2c-0.1-0.1,0-0.2,0-0.2l0.3,0c0,0,0,0,0.1-0.2
		c0.1-0.2,0.1-0.2,0.1-0.2s0.1,0,0.1-0.2l0-0.1l0.2-0.1c0,0,0,0,0-0.2c0-0.2,0-0.3,0-0.3h0.2c0,0,0.1,0,0-0.2c-0.1-0.1,0-0.2,0-0.2
		s0.2,0,0.2-0.2c0.1-0.2,0-0.2,0-0.2s0.2-0.1,0.2-0.1v-0.3c0,0,0.2,0,0.3-0.1c0.1-0.2,0.1-0.2,0.2-0.3c0.1-0.1,0-0.1,0.2-0.2
		c0.1,0,0.1-0.2,0.2-0.3c0.1-0.2,0.1-0.2,0.2-0.3c0.1,0,0.1,0,0.1-0.1c0-0.2,0-0.4,0-0.4s0.1,0,0.2-0.1c0.2-0.1,0.1-0.1,0.1-0.3
		c0-0.2,0.1-0.2,0.1-0.2s0.1,0.1,0.2-0.1c0.1-0.2,0.1-0.3,0.1-0.4c0-0.1,0.1,0,0.1-0.1c0-0.1,0.1-0.1,0.1-0.1l0.2,0l0-0.4l0.2,0.1
		c0,0,0.1-0.2,0.1-0.2l0.1-0.1l0-0.2h0.2c0,0,0.1,0,0.1-0.1c0-0.2,0-0.2,0-0.2h0.2c0,0,0.4-0.4,1-1c0.6-0.5,0.4-0.4,0.7-0.6
		c0.3-0.1,0.2-0.2,0.4-0.2c0.2-0.1,0.4-0.1,0.4-0.1s0.1-0.1,0.2-0.1c0,0,0.2-0.3,0.5-0.5c0.2-0.2,0.7-0.4,1-0.6
		c0.8-0.3,1-0.3,1.2-0.4c0.3-0.1,0.6-0.2,0.6-0.2l0.1-0.4c0,0,0,0.1,0,0.3c0,0.2,0,0.2,0.2,0.2c0.2,0,0.4,0,0.7,0
		c0.3,0,0.5,0,0.7,0.1c0.1,0.1,0.2,0.1,0.2,0.1c0.1,0,0.2,0.1,0.3,0.2c0.1,0.1,0.1,0.2,0.2,0.1c0.1-0.1,0.1-0.2,0.1-0.2
		s0,0.1,0.1,0.2c0,0.1,0,0.3,0.1,0.2l0.1-0.1c0,0-0.1,0.2,0,0.3c0,0.1,0.1,0.2,0.2,0.2c0.1,0,0.2,0,0.2-0.2c0-0.2,0.1-0.4,0.1-0.4
		s-0.1,0.4,0.1,0.4c0.1,0,0.3-0.2,0.3-0.2l0.3-0.2c0,0,0,0.2-0.2,0.2c-0.2,0-0.5,0.2-0.5,0.4c0,0.2,0,0.2,0,0.2s0.1,0.1,0.3,0
		c0.2,0,0.2-0.1,0.3-0.1c0.1,0,0.6-0.2,0.6-0.2s-0.2,0.2-0.4,0.2c-0.1,0.1-0.2,0.1-0.3,0.2c-0.1,0.1,0,0.2,0.2,0.2
		c0.1,0,0.4-0.1,0.5-0.1c0.1,0,1-0.1,1-0.1s-0.8,0.2-0.9,0.3c0,0.1,0.1,0.1,0.2,0.2c0.1,0.1,0.1,0.1,0.2,0.2
		c0.1,0.1,0.1,0.2,0.2,0.1c0.1-0.1,0.2-0.1,0.2-0.1l0.3-0.2c0,0-0.3,0.1-0.2,0.3c0,0.1,0,0.2,0.2,0.1c0.2,0,0.4-0.1,0.4-0.1
		s-0.2,0.1-0.2,0.2c0,0.2,0.3,0.2,0.4,0.2c0.1,0,0.2,0.2,0.2,0.2s0,0.1,0.2,0.1c0.2,0,0.4,0,0.4,0s-0.2,0-0.1,0.2
		c0.1,0.2,0.1,0.3,0.2,0.3c0.1,0,0,0,0.2,0c0.1,0.1,0.2,0.1,0.2,0c0-0.1,0-0.3,0-0.3l0.1,0.4l0.3,0.1c0,0,0-0.2,0.1-0.3
		c0.1-0.1,0.2-0.2,0.2-0.2s-0.4,0.3-0.2,0.4c0.1,0.2,0.3,0.1,0.3,0.1s0-0.2,0.1-0.4c0.1-0.2,0.2-0.3,0.2-0.3s-0.2,0.3-0.1,0.5
		c0,0.2,0.3,0.2,0.4,0.2c0.1,0,0,0,0.2,0c0.2,0,0.3,0,0.3,0.1c0.1,0,0.4,0.1,0.6,0.1h0.2c0,0,0.2-0.3,0.3-0.3c0.1,0,0.1,0,0.1,0
		s-0.2,0.1-0.3,0.3c0,0.2,0.4,0.3,0.4,0.2c0.1,0,0.3-0.5,0.4-0.7c0.1-0.1,0.6-0.9,0.6-0.9s-0.2,0.4-0.4,0.7
		c-0.2,0.4-0.3,0.6-0.4,0.7C110,15.9,110,16,110,16s0.3,0,0.5-0.1c0.2-0.1,0.3-0.1,0.4-0.1c0.1,0,0.8-0.4,0.8-0.4s-0.8,0.5-0.9,0.6
		c-0.1,0.1-0.1,0.2,0.1,0.2c0.1,0,0.2,0,0.2,0c0.1-0.1,0.1-0.1,0.3-0.1c0.2,0,0.1,0.1,0.2,0l0.3-0.3c0,0-0.2,0.1-0.1,0.3
		c0.1,0.2,0.2,0.2,0.3,0.1c0.2-0.1,0.3-0.6,0.3-0.6s-0.1,0.4,0,0.5c0.1,0.1,0.2,0.1,0.2,0C113,16.1,113,16,113,16s0.1,0,0.2-0.1
		c0.1-0.1,0.2-0.3,0.2-0.3s-0.3,0.6-0.2,0.7c0.1,0.1,0.4,0,0.5-0.1c0.1-0.1,0.1-0.3,0.1-0.4c0-0.1-0.1-0.3-0.1-0.3s0.1,0.2,0.3,0.4
		c0.1,0.3,0.3-0.1,0.3-0.1l-0.1-0.6c0,0,0,0.5,0.2,0.5c0.2,0.1,0.1-0.1,0.3-0.1c0.2,0,0.1,0,0.1-0.1c0-0.2,0-0.2,0.2-0.3
		c0.1-0.2,0.2-0.3,0.2-0.3l0.1,0.2c0,0,0.1-0.1,0.1-0.3l0-0.2l0.2,0.1c0,0,0.1,0.1,0.1-0.2l0-0.3l0.2-0.1c0,0,0.1,0,0.1-0.1
		c0-0.1,0-0.1,0.1-0.1c0.2,0,0.2,0.1,0.3-0.1c0.1-0.2,0-0.2,0.2-0.2c0.1,0,0.5-0.1,0.7-0.1s0.1,0.1,0.2-0.1c0.1-0.2,0.1-0.2,0.4-0.2
		c0.2,0,0.3-0.1,0.7-0.1c0.4,0,0.4-0.2,0.7,0c0.3,0.2,0.4,0.4,0.2,0.4c-0.2-0.1-0.2,0.2-0.2,0.5c0,0.4,0,0.9-0.6,1.7
		c-0.6,0.8-1,1.2-1.2,1.3c-0.1,0.1-0.2,0.1-0.3,0.2c0,0.1,0,0.2-0.2,0.2c-0.1,0.1-0.1,0-0.2,0.1c-0.1,0.2-0.1,0.2-0.2,0.2
		c-0.1,0-0.1,0-0.2,0.2c0,0.2,0.1,0.3-0.1,0.3c-0.2,0-0.3-0.1-0.3,0c0,0.2,0.1,0.2-0.1,0.3c-0.1,0-0.3,0-0.3,0.1s0.1,0.2,0.2,0.3
		c0.1,0.1,0.1,0.2,0.1,0.2s-0.2-0.1-0.3-0.2c-0.2-0.1-0.2-0.1-0.2-0.1s0,0.1,0,0.3c0.1,0.2-0.1,0.4-0.3,0.3c-0.2,0-0.2,0-0.2,0
		s0.1,0.2,0,0.1c0,0-0.2-0.1-0.3-0.1c-0.1,0-0.2-0.1-0.3,0c-0.2,0.3-0.1,0.3-0.3,0.2c-0.2-0.1-0.3,0.1-0.5,0.1c-0.2,0-0.4-0.1-0.4,0
		c0,0.1,0.3,0.4,0.3,0.4s-0.3-0.3-0.5-0.3c-0.2,0-0.4,0-0.6-0.1c-0.2-0.1-0.2-0.3-0.2-0.2c0,0.1,0.3,0.6,0.2,0.6
		c-0.1,0-0.3-0.2-0.3-0.3c0-0.1-0.1-0.1-0.2-0.2c-0.1-0.1-0.2-0.1-0.4-0.1c-0.1,0-0.1,0-0.2,0c-0.1-0.1-0.1-0.1-0.2-0.2
		c-0.1-0.2-0.1-0.1-0.1-0.1l-0.2,0.3c0,0,0.1-0.3,0-0.4c-0.1-0.1-0.2-0.2-0.2-0.1l0,0.4c0,0-0.1-0.1-0.1-0.2c-0.1-0.1,0-0.2-0.2-0.2
		c-0.1,0-0.1,0-0.2-0.1c0-0.1-0.1-0.2-0.1-0.2s-0.2-0.1-0.2,0c0,0.1,0.1,0.6,0.1,0.6s-0.2-0.6-0.3-0.6c-0.1,0,0,0.4,0,0.4
		s0-0.4-0.2-0.4c-0.2-0.1-0.4,0-0.4,0l0,0.5l0-0.6c0,0-0.3,0-0.4,0h-0.3c0,0-0.1,0.4-0.1,0.3l0-0.4c0,0-0.3-0.1-0.3,0v0.6l-0.1-0.5
		l-0.1,0.2l-0.4,0.7c0,0,0.3-0.7,0.3-0.9c0-0.2-0.2-0.3-0.5-0.3c-0.2,0-0.5,0.2-0.7,0.2l-0.2,0c0,0-0.1,0.1,0.2,0.2
		c0.2,0.1,0.4,0.2,0.4,0.2s-0.4-0.1-0.7-0.2c-0.3-0.1-0.2-0.1-0.4-0.1c-0.2,0-0.2,0.1-0.2,0.1s0.1,0.3,0.3,0.5
		c0.1,0.2,0.2,0.2,0.2,0.2s-0.2-0.2-0.4-0.4c-0.2-0.2-0.2-0.3-0.2-0.3l-0.2,0c0,0,0.2,0.5,0.4,0.6c0.2,0.1-0.1,0-0.4-0.3
		c-0.3-0.3-0.4-0.3-0.5-0.4c-0.1,0-0.2-0.1-0.2-0.1c0,0.1,0.1,0.9,0.1,0.9s0-0.6-0.2-0.8c-0.2-0.1-0.3,0-0.3,0l0.1,0.4
		c0,0-0.2-0.3-0.2-0.5c0-0.2-0.3-0.4-0.4-0.5c-0.1-0.1-0.1-0.1-0.1-0.2c-0.1-0.1-0.1,0-0.2-0.1c0-0.1,0-0.1-0.2-0.2
		c-0.2,0-0.2,0.1-0.3,0c-0.1-0.1-0.4-0.2-0.4-0.2c0-0.1-0.1-0.1-0.2-0.1l0.1,0.8c0,0-0.3-0.4-0.3-0.6c-0.1-0.2,0-0.2-0.1-0.3
		c-0.1,0-0.1,0-0.2-0.1c-0.1-0.1-0.2-0.1-0.3-0.1c-0.1,0-0.2,0.1-0.2,0.1s0,0.3,0,0.5c0,0.1,0.2,0.8,0.2,0.8s-0.3-0.8-0.4-1
		c0-0.2,0-0.2,0-0.2c-0.1,0-0.2,0.1-0.3,0.1l-0.3,0.1l0.1,1l-0.2-1c0,0-0.4,0.1-0.5,0.1c-0.1,0-0.2-0.1-0.1,0c0,0.1,0.1,0.4,0.1,0.4
		s-0.1-0.3-0.2-0.4c-0.1-0.1-0.3-0.1-0.3-0.1s0,0.3-0.4,0.9c-0.3,0.6-0.7,1.3-0.8,1.4c-0.1,0.1,0,0.1-0.1,0.2
		c-0.1,0.2,0,0.2-0.2,0.3c-0.1,0.1-0.2,0-0.2,0.2c0,0.2-0.2,0.4-0.3,0.5c-0.1,0.1-0.9,1.2-1.1,1.4c-0.1,0.2-0.1,0.2-0.3,0.4
		c-0.1,0.2-0.5,0.5-0.5,0.5s-0.1,0.2-0.3,0.3c-0.2,0.2-0.3,0.3-0.5,0.6c-0.2,0.3-0.1,0.3-0.2,0.4c-0.2,0.2-0.1,0.3-0.3,0.3
		c-0.2,0-0.2,0.2-0.3,0.3c-0.1,0.1,0,0.1-0.1,0.2c-0.2,0.1,0,0.1-0.1,0.4C93.2,26,93.2,26,93.1,26c-0.2,0.1-0.1-0.1-0.2,0.1
		c-0.1,0.2-0.1,0.2-0.2,0.2c-0.1,0.1-0.1-0.1-0.2,0.1c-0.1,0.2,0,0.2-0.1,0.2c-0.1,0-0.2,0-0.2,0.1c0,0.2,0.2,0.1,0,0.2
		c-0.1,0.1-0.1,0-0.2,0.2c0,0.1,0,0.1-0.2,0.2c-0.1,0-0.4,0.2-0.4,0.4c-0.1,0.2,0,0.2-0.1,0.2c-0.1,0,1.4,0,1.4,0s-1.6,0-1.7,0.2
		c-0.1,0.2-0.1,0.2-0.3,0.3c-0.2,0.1-0.2,0.2-0.2,0.3l1.1,0.4c0,0-1.2-0.3-1.2-0.1c-0.1,0.2-0.2,0.2-0.2,0.2
		c0.1,0.1,0.7,0.6,0.7,0.6s-0.7-0.4-0.8-0.4c-0.1,0-0.2,0-0.2,0.1c0,0.1-0.2,0.1-0.2,0.1c0,0.2,0,0.2-0.2,0.3
		c-0.2,0-0.2,0.2-0.2,0.2s1,0.7,1.4,0.8c0.2,0.1-0.1,0-0.6-0.3c-0.4-0.2-0.8-0.5-0.9-0.4c-0.2,0.2-0.2,0.3-0.3,0.4
		c-0.1,0.1-0.3,0-0.4,0.1c-0.1,0.1-0.1,0.3-0.1,0.3s0,0.4-0.2,0.4c-0.2,0.1-0.2,0.3-0.3,0.4c-0.1,0.1-0.2,0.2-0.2,0.3
		c0,0.1-0.2,0.3,0.4,0.4c0.5,0,0.8-0.1,1.1-0.2c0.3,0,0.3-0.1,0.2,0.1c0,0.2,0,0.3,0.2,0.4c0.2,0.1,0.4,0.2,0.6,0
		c0.2-0.2,0.4-0.4,0.6-0.3c0.2,0.1,0.2,0.2,0.4,0.3c0.2,0.1,0.2,0.2,0.3,0.1c0.1-0.1,0.1-0.2,0.1-0.4c0-0.2,0-0.4,0.2-0.5
		c0.1-0.1,0.3,0,0.3-0.2c0-0.2-0.2-0.1,0-0.2c0.2-0.1,0.2,0,0.2-0.2c0-0.1,0-0.1,0.2-0.2c0.2,0,0.2-0.1,0.2-0.2c0-0.1-0.1-0.2,0-0.2
		c0.2,0,0.2,0,0.2-0.2s0-0.2,0.2-0.2c0.1,0,0.1,0.2,0.2,0c0.1-0.2,0-0.3,0.1-0.2c0.1,0.1,0.2,0,0.2-0.3c0-0.3,0.3-0.4,0.4-0.4
		c0.1,0,0.2,0,0.2-0.3c0-0.2,0.1-0.4,0.2-0.2c0.1,0.2,0.4,0,0.3-0.2c0-0.2,0.1-0.3,0.1-0.3s0.2,0,0.3-0.2c0.1-0.2,0.1-0.2,0.2-0.2
		c0.1,0,0.1,0.1,0.2-0.1c0-0.2-0.1-0.2,0.1-0.2c0.2,0,0.2-0.1,0.3-0.3c0.2-0.2,0.1-0.1,0.3-0.3c0.2-0.2,0.3-0.2,0.4-0.3
		c0.1-0.1,0.1,0,0.2-0.1c0.1-0.1,0.2-0.1,0.3-0.3c0.1-0.1,0-0.2,0.2-0.2c0.2-0.1,0.9-0.5,1.5-1c0.7-0.5,1.2-0.8,1.4-0.8
		c0.3,0,0.5-0.2,0.8-0.3c0.2-0.1,0.4,0,0.6-0.1c0.2-0.1,0.3-0.2,0.5-0.2c0.2,0,0.2,0.1,0.3,0c0.2-0.1,0.4-0.1,0.5-0.1
		c0.2,0,0.4-0.1,0.6-0.2c0.2-0.1,0.4-0.1,0.6,0c0.2,0.1,0,0.2,0.4,0.2c0.4-0.1,0.6-0.2,0.7-0.2c0.2,0,0.5,0.1,0.6,0.1s1,0,1.3,0
		c0.3,0,0.7,0,1.3,0.2c0.6,0.2,0.7,0.1,0.7,0.1s0.1-0.2,0.2-0.6c0.1-0.3,0.2-0.3,0.2-0.3s-0.3,0.4-0.2,0.7c0,0.2,0,0.4,0,0.4
		l0.4,0.1c0,0,0.1-0.1,0.4-0.2c0.2-0.1,0.7-0.3,0.7-0.3s-0.5,0.1-0.6,0.2c-0.1,0.1-0.5,0.3-0.4,0.3c0.2,0.1,0.3,0.1,0.3,0.2
		c0.3,0.2,0.2,0.2,0.3,0.2c0.1,0,0.1-0.1,0.1,0c0,0.1-0.1,0.2,0.1,0.2c0.2,0,0.4,0,0.4,0s0.7,0.1,0.9,0.2c0.2,0.1,0.2,0.1,0.2,0.1
		s-1-0.2-1-0.1c0,0.1,0.1,0.2,0.2,0.2c0.1,0,0.1,0.1,0.2,0.1c0.1,0,0-0.1,0.1,0c0.1,0.2,0,0.1,0.1,0.2c0.1,0,0.1,0.1,0.4,0.3
		c0.6,0.6,1.2,1.3,1.2,1.5c0,0.1,0.1,0.4,0.2,0.4c0.1,0,0,0,0.4,0.1c0.4,0,0.8,0.2,0.8,0.2c-0.1,0-0.7-0.1-0.7-0.1
		c0,0.1,0,0.3,0.1,0.4l0.4,0.4c0.1,0.1,0.2,0.2,0.3,0.2c0.1,0,0.1,0.1,0.2,0.2c0.1,0.1,0.1,0.2,0.1,0.2c0.2,0.2,0.2,0.2,0.3,0.3
		c0.2,0,0.1,0,0.2,0.1c0,0.1,0.1,0.3,0.3,0.4c0.2,0.1,0.1,0.1,0.2,0.2c0.1,0.1,0,0,0.2,0.2c0.2,0.1,0.2,0.1,0.2,0.2
		c0.1,0.1,0.2,0.3,0.3,0.4c0.1,0.1,0.2,0.3,0.4,0.3c0.1,0,0.1,0,0.2,0.1c0.1,0.1,0.1,0.2,0.2,0.3c0.1,0.1,0.2,0.1,0.3,0.2
		c0.1,0.1,0.3,0.3,0.4,0.4c0.1,0.1,0.1,0.1,0.2,0.2c0,0.1,0,0.1,0.2,0.3c0.2,0.2,0.4,0.2,0.4,0.3c0,0.1,0,0.2,0.3,0.4
		c0.2,0.2,0.2,0.2,0.3,0.2c0,0.1,0.4,0.3,0.5,0.4c0.1,0.1,0.1,0,0.1,0.2s0.1,0.1,0.3,0.2c0.2,0.1,0.1,0.1,0.1,0.2
		c0,0.1,0.2,0.2,0.3,0.2c0.1,0.1,0,0.1,0.2,0.2c0.1,0,0.1,0.1,0.2,0.1c0.1,0.1,0,0.4,0.2,0.5c0.1,0.1,0.1,0.1,0.1,0.2
		c0,0.1,0.1,0.2,0.2,0.3c0.1,0,0-0.1,0.1,0c0.1,0.1,0.1,0.1,0.2,0.1c0.1,0,0.1,0.1,0.1,0.1c0,0.1,0.2,0.4,0.3,0.4
		c0.1,0,0.1,0,0.2,0.1l0.5-0.4c0,0-0.5,0.2-0.4,0.4c0,0.2,0.2,0.3,0.3,0.3c0.1,0,0-0.1,0.2,0l0.4,0.2c0,0,0.3,0,0.3-0.2
		s-0.1-0.2,0.1-0.3c0.1-0.1,0.4-0.2,0.6-0.1c0.2,0,0,0.1,0.4,0l0.6-0.1c0,0-0.4,0.1-0.6,0.2c-0.2,0.1-0.1,0.1-0.3,0.1
		c-0.2-0.1-0.1-0.1-0.3-0.1c-0.2,0-0.2,0.2-0.3,0.3c0,0.1-0.2,0.3-0.3,0.3l-0.2,0c0,0,0.2,0.3,0.4,0.3c0.1,0,0.1-0.1,0.2,0.1
		c0.1,0.1,0.1,0.2,0.1,0.2c0.1,0,0.1,0,0.2,0.1c0,0.1,0,0.2,0.1,0.2c0.1,0,0.2,0,0.2,0.1c0.2,0.1,0.2,0.1,0.2,0.2
		c0.1,0.1,0.1,0.2,0.2,0.2c0.1,0,0.2,0.1,0.3,0.2c0.2,0.2,0.3,0.3,0.4,0.3c0.1,0.1,1.6-0.3,1.5-0.3c-0.1,0-1.5,0.2-1.5,0.3
		c0.1,0.1,0.3,0.2,0.3,0.2c0.1,0,1.4-0.1,1.3-0.1c-0.1,0-1.4,0.1-1.2,0.2c0.2,0.1,0.2,0.1,0.2,0.2c0.3,0.2,0.4,0.2,0.4,0.3
		c0,0,0,0.2,0.1,0.2c0.1,0.1,0.2,0.1,0.3,0.1c0.2,0,0.1,0,0.2,0.1c0.1,0.2,0.3,0.2,0.4,0.3c0.1,0.1,0.2,0.1,0.3,0
		c0.1,0,1.5-0.2,1.5-0.2s-1.7,0.1-1.6,0.3c0.1,0.3,0.3,0.4,0.5,0.4c0.2,0,0.2,0,0.4,0c0.2,0,0.3,0.1,0.1,0.1c-0.2,0-0.3,0-0.2,0.2
		c0.1,0.2,0.1,0.2,0.2,0.1c0.2,0.2,0.2,0.2,0.5,0.1c0.3-0.1,0.6,0,0.6,0s-0.7,0-0.7,0.2c0,0.2,0.1,0,0.1,0.1c0,0.1-0.1,0.1,0.1,0.2
		c0.2,0.1,0.3,0.1,0.3,0.1l0.4,0c0,0-0.4-0.1-0.3,0.1c0.1,0.1,0.2,0.1,0.2,0.2c0,0.1,0,0.1,0.2,0.1c0.2,0,0.5,0.1,0.7,0.1
		c0.2,0,0.4,0,0.4,0s-0.5,0-0.6,0c-0.2,0-0.2,0-0.2,0.1c0.1,0.1,0,0.1,0.2,0.1c0.1,0,0.4,0.3,0.3,0.2c-0.1,0-0.4-0.2-0.4-0.1
		c0,0.1,0,0.1,0.1,0.1c0.1,0,0.4,0,0.4,0s-0.3,0-0.4,0.1c0,0.1,0.2,0.3,0.4,0.3s0.1,0,0.2,0.1c0.1,0.1,0.3,0.2,0.3,0.2l0.2-0.4
		c0,0-0.1,0.4,0,0.5c0.1,0.1,0.5,0.2,0.6,0.3c0.1,0,0.2,0,0.3,0c0.1,0,0.1,0.1,0.2,0.1c0.1,0,0.1,0,0.2,0.1c0.1,0.1,0,0.1,0.2,0.1
		c0.2,0,0.3,0.1,0.4,0.1c0.1,0,0.3,0.1,0.3,0.1c0,0.1,0.2,0.3,0.3,0.2c0.1-0.1,0.2-0.1,0.2,0c0,0.1,0,0.2,0.2,0.2c0.2,0,0.3,0,0.3,0
		l1.1-0.6c0,0-1,0.6-1,0.7c0,0.1,0.1,0.2,0.2,0.1c0.1,0,0.2,0,0.2,0l1.1-0.5c0,0-0.9,0.4-0.8,0.5c0,0.1,0.1,0.2,0.3,0.2
		c0.2,0,0.2,0.1,0.2,0.1s0.1,0.1,0.2,0.1l0.2,0c0,0-0.3,0.2-0.2,0.2c0.1,0,0.4,0.2,0.6,0.2c0.2,0,0.4,0,0.4,0l-0.5,0.2
		c0,0,0.3,0.2,0.4,0.2c0.1,0,0.2-0.1,0.2-0.1s-0.2,0.2-0.1,0.2l0.1,0c0,0-0.1,0.2,0,0.2l0.1,0l0,0.2c0,0,0.2,0.2,0.4,0.3
		c0.2,0.1,0.2,0.1,0.4,0.2c0.2,0.1,0.3,0.2,0.4,0.3c-0.1,0-0.1-0.1-0.2,0c-0.1,0.1-0.1,0,0,0.3c0.1,0.2,0.1,0.3,0.1,0.5
		c0,0.2,0.1,0.2-0.2,0.2c-0.2,0-0.1,0.3-0.7,0.4c-0.6,0.2-1.3,0.4-2.6-0.2c-1.3-0.6-2.4-1.4-2.6-1.4l-0.2,0v-0.1
		c0,0-0.4-0.2-0.7-0.3c-0.3-0.1-1.7-0.7-1.8-0.8c-0.2-0.1-0.2,1-0.2,1l-0.2-1.2l-0.1,0V48l-0.1-0.9l-0.1-0.1l-0.2,0.7l0.1-0.8
		l-0.1,0l-0.1,0.6l0.1-0.6l-0.1,0l-0.1,0.4l-0.1-0.6l-0.4-0.2l-0.1,0.6v-0.6l-0.1,0.4l0-0.5c0,0-1.1-0.6-2-1.3
		c-0.5-0.5-1-0.9-1.4-1.3c-0.3-0.2-0.6-0.5-0.8-0.7c-0.6-0.6-1.4-1.3-1.5-1.4c-0.1-0.1-0.1,0-0.2-0.2c-0.1-0.1-0.2-0.2-0.2-0.2
		l0,0.4c0,0-0.1-0.4-0.1-0.5c0-0.1-0.4-0.7-0.4-0.7s0,0.3,0,0.5c0,0.2,0,0.4,0,0.4s-0.1-0.7-0.1-1c0-0.3-0.2-0.3-0.2-0.3
		s0-0.3,0-0.5c0-0.2-0.1,0.1-0.1-0.1c0-0.2-0.2-0.6-0.4-0.6c-0.2,0-0.3,0-0.3,0s0.1,0-0.1-0.2c-0.2-0.2-0.3-0.2-0.4-0.3
		c-0.1,0-0.5-0.1-0.8-0.2c-0.2,0-0.3,0-0.4-0.1c-0.1,0-0.1,0-0.2-0.2c-0.1-0.1-0.2-0.1-0.3-0.2c-0.1-0.1-0.2-0.1-0.2-0.1
		c-0.1,0.1,0,0.3,0.1,0.5l0.2,0.3c0,0-0.4-0.6-0.5-0.6c-0.1,0-0.1,0-0.2-0.1c-0.1,0-0.1,0-0.2-0.1c-0.1-0.1-0.2-0.1-0.3-0.1
		l-0.1,0.6c0,0,0-0.6-0.1-0.6c-0.1,0-0.1,0-0.1-0.1c0-0.1,0-0.1,0-0.2c0-0.1-0.2-0.1-0.2-0.1l0-0.3c0,0,0-0.1-0.1-0.1
		c-0.1-0.1,0-0.2-0.1-0.2h-0.2c0,0,0.1,0,0.1-0.2c0-0.2,0-0.2,0-0.2l-0.1,0c0,0-0.2,0-0.2,0c0,0.1-0.1,0.2-0.1,0.2s0.1-0.2,0.1-0.4
		c0-0.1-0.2-0.3-0.2-0.3l-0.2,0l0-0.2c0,0,0-0.1-0.1-0.1c-0.1,0-0.1,0.3-0.1,0.3l0-0.4c0-0.1,0-0.2-0.1-0.2c-0.1,0-0.2,0-0.2,0
		l0-0.2c0,0,0,0-0.1,0s-0.1,0-0.2-0.1c0-0.1-0.1-0.3-0.2-0.2c0,0-0.3,0.2-0.3,0.2s0.1-0.2,0.1-0.3c0-0.2,0-0.3-0.1-0.2
		c-0.1,0.1-0.1,0.2-0.1,0.2l0-0.3c-0.2,0-0.2,0.2-0.2,0.2l0-0.4c0-0.1-0.2-0.2-0.3-0.2c-0.1,0-0.3,0.3-0.3,0.3s0.2-0.3,0.1-0.4
		c-0.1-0.2-0.2-0.3-0.2-0.4c0,0-0.1-0.1-0.1,0l0,0.2l-0.1-0.2l-0.2,0.4c0,0,0.1-0.4,0.1-0.6c0-0.1-0.4-0.3-0.4-0.3l0,0.6
		c0,0,0-0.7,0-0.8c0,0-0.2-0.2-0.3-0.2c-0.1,0-0.1-0.1-0.1,0l-0.1,0.3c0,0,0-0.3,0-0.4c0-0.1,0-0.1-0.1-0.2c-0.1,0-0.2-0.1-0.2-0.1
		l0,0.3c0,0,0-0.4-0.1-0.5c-0.1-0.1-0.1-0.1-0.2-0.1c-0.1,0-0.1-0.2-0.1-0.2l0,0.6c0,0,0-0.6,0-0.7c0-0.1-0.1-0.2-0.1-0.1
		c0,0.1-0.1,0.2-0.1,0.2s-0.1-0.1-0.1,0c0,0.1-0.1,0.4-0.1,0.4s0-0.4,0-0.5c0-0.1,0.1-0.1,0.1-0.2c-0.1-0.1-0.2-0.1-0.2-0.2
		c0-0.1-0.1-0.1-0.1-0.2c0,0-0.2,0-0.2,0s-0.2,0.5-0.2,0.4c0-0.1,0.1-0.5,0.1-0.6c0-0.1-0.2-0.2-0.2-0.1c0,0-0.1,0.7-0.1,0.6
		c0,0,0-0.6,0-0.6s-0.1-0.1-0.2-0.2c-0.1-0.1-0.2-0.2-0.2-0.1c0,0,0,0.4,0,0.4l-0.2-0.3l-0.2,0.6l0-0.6l-0.2,0.4l0-0.4
		c0,0-0.1,0-0.2-0.1c-0.1-0.1-0.2-0.1-0.3-0.1c0-0.1-0.2-0.1-0.2-0.1s0.2,0.3,0,0.2c0.2,0.2,0.2,0.4,0.2,0.4l-0.4-0.4l-0.1-0.2
		c-0.2,0.1-0.3-0.1-0.4-0.2c0-0.1-0.1-0.2-0.2-0.2c-0.1,0-0.2-0.1-0.2-0.2c-0.1-0.1-0.1-0.1-0.2-0.2c-0.2-0.1-0.3,0-0.3,0
		c0.1-0.1,0.2-0.2-0.1-0.2c-0.3,0-0.2,0-0.2,0l-0.1-0.1l-0.2,0l0-0.1l-0.2,0c0-0.1,0-0.2-0.1-0.2l-0.2,0.2l0-0.3c0,0-0.1-0.1-0.2,0
		c-0.1,0.1-0.2,0.2-0.2,0.2s0.2-0.3,0.1-0.3c-0.1,0-0.2-0.2-0.3-0.1c-0.1,0-0.2,0.1-0.2,0.1s0.1-0.1,0-0.2c-0.1-0.1-0.2-0.1-0.2-0.1
		l0-0.2c0,0-0.3,0-0.4,0c0,0-0.1,0.1-0.2,0.2c0,0-0.1,0.1-0.1,0.2c0,0.1,0,0.2-0.1,0.2c-0.1,0-0.2,0.3-0.5,0.4
		c-0.3,0.1-0.5,0.1-0.6,0.2c0,0.1-0.1,0.2-0.2,0.3c-0.1,0.1-0.1,0-0.2,0.1c0,0.1-0.1,0.2-0.2,0.2c0,0-0.1,0.1-0.1,0.1s0,0.1-0.1,0.1
		c-0.1,0,0,0.1-0.1,0.2c-0.1,0.1-0.1-0.1-0.2,0.1c-0.1,0.2,0,0.3-0.2,0.3c-0.1,0-0.2,0.2-0.2,0.2s0,0.1-0.1,0.1
		c-0.1,0.1-0.2,0.2-0.2,0.2c-0.2,0.2-0.2,0.2-0.2,0.2c0,0,0,0.1-0.1,0.2c-0.1,0.1-0.1,0-0.1,0.1c-0.1,0.1-0.1,0.1-0.2,0.2
		c-0.1,0-0.1,0-0.2,0.1c0,0.1,0,0.1-0.1,0.2c-0.1,0.1-0.2,0.1-0.3,0.2c-0.1,0.1-0.1,0.1-0.2,0.1c-0.1,0.2-0.1,0.2-0.2,0.2
		c-0.1,0-0.1,0.1-0.2,0.2c0,0.1,0,0.2-0.2,0.2c-0.1,0-0.2,0-0.2,0c0,0.1,0.1,0.2,0.1,0.2l-0.3,0c-0.1,0.1-0.2,0.2-0.2,0.2
		c-0.1,0.2-0.1,0.2-0.1,0.2l0.4,0.3l-0.5-0.3l-0.2,0.1c0,0,0.2,0.2,0.3,0.4c0,0.1,0,0.1,0,0.1s-0.2-0.3-0.3-0.4
		c0-0.1-0.1-0.1-0.1-0.1s-0.2,0-0.2,0.1c0,0.1,0,0.1,0,0.1c-0.1,0-0.1,0-0.2,0c-0.1,0-0.1,0-0.2,0c-0.1,0.1-0.2,0.3-0.2,0.3l1,1
		l-0.9-0.9c0,0-0.1-0.1-0.2-0.1c-0.1,0-0.1,0.1-0.2,0.1c0,0-0.2,0.2-0.2,0.2l0.2,0.4l0.7,0.2l-0.6-0.2l0.2,0.3c0,0,0.2,0.2,0.4,0.3
		c0.1,0.1,0.6,0.5,0.6,0.5s-0.6-0.4-0.6-0.4c-0.1-0.1-0.3-0.2-0.3-0.2v0.5l-0.2-0.4c0,0-0.2-0.4-0.2-0.4c0-0.1-0.2-0.4-0.2-0.5
		c0-0.1-0.1-0.2-0.2-0.2c-0.1,0,0,0.2,0,0.2l0.2,0.4L98,35L97.7,35l-0.3,0.1c0,0,0.1,0.2,0.2,0.2c0.1,0,0.3,0.1,0.3,0.1l0.4,0.6
		c0,0-0.3-0.2-0.5-0.4c-0.2-0.2-0.3-0.3-0.4-0.3c0,0-0.2,0.1-0.2,0.1l0,0.2l0.3,0.6c0,0-0.4-0.7-0.5-0.7c-0.1,0-0.1,0-0.2,0l0.3,0.9
		c0,0-0.3-0.8-0.4-0.8c-0.1,0-0.2,0-0.2,0l0.1,0.3l-0.2-0.2l0.2,0.4c0,0-0.3-0.3-0.4-0.2l0.2,0.6l-0.3-0.4l-0.4,0c0,0,0,0.3,0,0.4
		l-0.2-0.1l0.1,0.2l-0.3-0.2l0,0.3l-0.1-0.2c0,0-0.1,0.1-0.2,0.2l-0.1,0.3c0,0,0-0.1-0.1-0.1c-0.1,0-0.2,0-0.2,0l0,0.2
		c0,0-0.1-0.1-0.2-0.1c-0.1,0-0.2,0-0.2,0s-0.1,0.1-0.2,0.1c-0.1,0-0.4,0.3-0.4,0.3l0.1-0.3c0-0.1-0.1-0.1-0.2-0.1
		c-0.1,0.1-0.2,0.1-0.2,0c0-0.1-0.1-0.1-0.2-0.1c-0.1,0-0.2,0-0.3,0c-0.1-0.1-0.2,0-0.2,0s-0.2,0.2-0.2,0.2c0,0.1,0.3,0.1,0.3,0.1
		c0,0.1,0.1,0.2,0.2,0.3c0.2,0.1,0.3,0.2,0,0.1c-0.3-0.1-0.3-0.1-0.4-0.1c-0.1,0-0.2,0-0.2,0l0.1,0.7c0,0,0.1,0,0.2,0
		c0.1,0.1,0.2,0.2,0.4,0.2c0.2,0,0.1,0,0.3,0c0.2,0,0.2,0,0.2,0c0.1,0,0-0.2,0.1-0.2c0.1-0.1,0.2-0.2,0.2-0.2s-0.1,0.2-0.1,0.2
		c-0.1,0.1-0.1,0.3-0.1,0.3s0.1,0,0.2,0l0.1-0.3c0.1-0.3,0.2-0.3,0.2-0.3s0.1,0,0.2-0.1c0.1-0.1,0,0.1,0.1,0.1c0.1,0,0.2,0.1,0.3,0
		c0.1-0.1,0.1-0.1,0.2-0.1c0.1-0.2,0.1-0.1,0.1-0.1c0,0,0.1,0,0.2,0c0.1,0,0.2,0,0.3-0.1c0.1-0.1,0.1,0,0.2-0.1
		c0.1-0.1,0.2-0.1,0.2-0.1c0.1,0,0.3,0,0.4-0.1c0.1,0,0-0.3,0-0.3l0.2,0.2c0.1,0.1,0.1,0,0.3,0c0.2,0,0.3,0.1,0.4,0
		c0.1-0.1,0.2-0.2,0.2-0.2c0.1,0,0.5,0.1,0.7,0.1c0.2,0,0.3,0,0.3,0c0.1,0,0.1-0.2,0.1-0.2s-0.1,0.1,0,0.2c0.1,0,0.2,0.1,0.2,0
		c0.1-0.1,0.1-0.1,0.1,0c0,0.1,0.1,0.1,0.2,0.1c0.1,0,0.2,0,0.2,0c0.1,0,0.2-0.1,0.2-0.1l0.1,0.2c0,0,0.1,0,0.1,0h0.3l0,0.1
		c0,0,0.3,0.1,0.4,0.1c0.1,0,0.3,0.1,0.4,0.1c0.1,0,0.2,0,0.4,0.1c0.1,0,0.2,0,0.4,0.2c0.2,0.1,0.2,0.1,0.4,0.1
		c0.2,0,0.1,0.1,0.2,0.1c0.1,0.1,0.2,0,0.2,0.1c0,0.1,0.3,0.2,0.4,0.2c0.2,0,0.2,0,0.3,0.1c0.1,0,0.1,0,0.2,0.1c0.1,0,0.1,0,0.2,0.1
		c0.1,0,0.1,0,0.2,0.1c0,0.1,0.1,0.1,0.2,0.1c0.1,0,0.2,0.1,0.2,0.2c0.2,0.2,0.1,0.3,0.2,0.3c0.1,0.1,0.1,0.1,0.2,0.2
		c0.1,0.1,0.3,0.2,0.4,0.3c0.1,0.1,0,0.1,0.2,0.1c0.1,0,0.2,0,0.2,0.1c0.1,0,0.2,0.2,0.4,0.2c0.3,0.1,0.2,0.1,0.3,0.2
		c0.1,0.1,0.1,0,0.3,0.1c0.2,0.1,0.3,0.2,0.3,0.2s0,0.2,0.3,0.3c0.1,0,0.2,0,0.2,0c0.2,0.2,0.3,0.3,0.5,0.4c0.2,0.1,0.2,0.1,0.3,0.2
		c0.2,0.1,0.3,0.2,0.4,0.3c0.1,0.1,0.5,0.5,0.7,0.6c0.2,0.1,0.2,0.1,0.3,0.2c0.2,0.1,0.2,0.1,0.3,0.2c0.1,0.1,0.2,0.2,0.4,0.3
		c0.2,0.1,0.2,0.2,0.4,0.3c0.2,0.1,0.2,0.1,0.3,0.2c0.1,0.1,0.1,0,0.3,0.3c0.1,0.1,0.1,0.1,0.2,0.1c0,0,0,0,0.1,0.2
		c0.2,0.2,0.2,0.4,0.4,0.6c0.2,0.2,0.2,0.6,0.4,0.7c0.2,0.1,0.4,0.1,0.4,0.2c0,0.1,0.2,0.4,0.2,0.4s0.4,0,0.6,0
		c0.2,0.1,0.9,0.3,0.9,0.3s-0.8-0.3-1.2-0.3c-0.3,0-0.4,0.1-0.3,0.1c0.2,0.1,0.2,0,0.2,0.1c0,0.1,0.1,0.2,0.2,0.3
		c0,0.1,0.1,0.2,0.2,0.2c0.1,0,0.4,0,0.4,0l-0.1,0.1c0,0,0.1,0.1,0.2,0.1c0,0,1.2,0,1.2,0s-1.3,0-1.2,0.1c0.1,0.1,0.2,0.3,0.3,0.3
		c0.1,0,0.1,0.1,0.1,0.1c0.1,0.1,0.2,0,0.2,0.1c0,0.1,1.2,0,1.2,0l-1.3,0.1c0,0,0.1,0.2,0.2,0.2c0.1,0,1.5,0,1.5,0s-1.4,0-1.3,0.1
		c0,0.1,0.2,0.3,0.3,0.3c0,0.1,0,0.1,0.2,0.2c0.2,0.1,0.3,0.2,0.4,0.2c0,0.1,1.7,0.2,1.7,0.2s-1.7-0.2-1.6,0
		c0.1,0.2,0.3,0.4,0.3,0.4c0,0,0,0.1,0.2,0.2c0.1,0,0.1,0.1,0.2,0.1c0,0,0.2,0.2,0.3,0.2c0.1,0.1,0.3,0.1,0.3,0.2
		c0,0.1,0.2,0.3,0.2,0.4c0.1,0.1,0.1,0.2,0.2,0.2c0.1,0,0.8,0,0.8,0s-0.6,0-0.6,0.1c0,0.1,0.4,0.5,0.5,0.6c0.1,0.1,0.2,0.1,0.2,0.2
		c0,0.1,0.1,0.2,0.2,0.3c0.1,0.1,0.3,0.2,0.4,0.3c0,0.1,0,0.2,0.2,0.3c0.2,0,0.2,0,0.2,0.1c0,0.1,0.1,0.3,0.2,0.4
		c0.1,0.1,0.2,0.2,0.4,0.2c0.2,0,1.1,0.6,1.1,0.6s-1.1-0.6-1.2-0.5c-0.1,0.1,0.1,0.3,0.2,0.4c0.1,0,0.2,0.1,0.2,0.1
		c0,0.1-0.1,0.2,0.1,0.3c0.2,0.2,0.2,0.1,0.3,0.2c0.2,0.1,0.2,0.3,0.2,0.4c0,0.1,0.2,0.2,0.2,0.2l0.1-0.2c0,0,0,0.2,0,0.3
		c0,0.1,0.2,0.2,0.2,0.4c0.1,0.2,0.2,0.1,0.2,0.1c0.1,0,0.1-0.1,0-0.3c0-0.2,0-0.1,0-0.1s0.1,0.3,0.1,0.4c0,0.1-0.1,0.2-0.1,0.2
		s0,0.2,0.1,0.3s0.1,0.2,0.2,0.3c0.1,0.1,0.2,0.3,0.4,0.4c0.1,0.1,0.1,0.1,0.2,0.3c0.1,0.2,0,0.4,0.1,0.5c0,0.1,0.1,0.1,0.1,0.2
		c0,0.1,0.1,0.1,0.3,0.3c0.2,0.2,0.6,0.7,1,0.9c0.4,0.3,0.5,0.4,0.9,0.9c0.5,0.4,0.9,0.8,1.1,1c0.2,0.2,0.2,0.2,0.3,0.1
		c0-0.1-0.1-0.3-0.2-0.4c-0.1-0.1-0.2-0.2-0.2-0.2l0.4,0.4c0.2,0.2,0.3,0.3,0.5,0.4c0.2,0.1,0.5,0.2,0.6,0.2c0.1,0,0.1,0,0.2,0
		c-0.1,0,0.1,0.1,0.4,0.2c0.1,0,0.2,0.1,0.2,0.1s0.2,0.1,0.3,0.1c0.1,0,0.2,0.2-0.2,0c-0.4-0.1-0.7-0.4-1-0.4c-0.3,0-0.3,0-0.3,0.1
		s0,0.2,0.2,0.2l0.3,0l0.2,0.2c0,0,0.2-0.1,0.2-0.1c0,0-0.2,0.4-0.2,0.4l0.5,0l0.1,0.2l0.6,0.1l0.3,0l0.7,0.1l-0.7,0.1
		c0,0,0.2,0.1,0.1,0.1c-0.1,0-0.1,0.2,0,0.2c0.1,0,0.9-0.1,0.8,0c-0.1,0-0.8,0-0.7,0.1c0,0.1,0.1,0.3,0.2,0.3c0.1,0,0.8-0.1,0.8-0.1
		s-0.7,0.1-0.7,0.2c0.1,0.1,0,0.2,0.2,0.2c0.2,0,1,0.1,1,0.1s-0.8,0-0.7,0.1c0.1,0.2,0.3,0.2,0.4,0.2c0.1,0,0.8,0,0.8,0
		s-0.2,0.1-0.4,0.1c-0.2,0-0.3,0-0.1,0.1c0.1,0.1,0.3,0.1,0.3,0.1l0.1,0.3c0,0,0.3,0.1,0.4,0.1c0.1,0,0.5,0,0.5,0s-0.6,0-0.5,0.1
		c0.1,0.1,0.2,0.1,0.3,0.2c0.3,0,0.7,0.2,0.6,0.2c-0.1,0-0.6-0.2-0.5-0.1c0.1,0.1,0.1,0.3,0.2,0.3c0.1,0,0.5,0.1,0.6,0.2
		c0.1,0,0.2,0.1,0.2,0.1s-0.6-0.2-0.5,0c0.1,0.2,0.1,0.2,0.2,0.4c0.1,0.1,0.2,0.2,0.2,0.4c0,0.2,0.1,0.4,0.1,0.5
		c0.1,0.1,0.2,0.2,0.3,0.3c0.2,0,0.1,0,0.3,0c0.2,0,0.2-0.1,0.2-0.1s-0.2,0.1-0.1,0.2c0,0.1,0.1,0.3,0.2,0.3
		c0.1,0.2,0.2,0.1,0.2,0.2c0,0.1,0,0.1,0.2,0.1l1,0c0,0-0.6,0.1-0.7,0.1c0,0.1,0.2,0.2,0.3,0.2c0,0,0.4,0,0.5,0s0.9-0.1,0.8-0.1
		c-0.1,0-0.5,0.2-0.7,0.2c-0.2,0-0.2,0.1-0.2,0.1s0.1,0.2,0.2,0.2c0.1,0,0.2,0.1,0.2,0.1l0.1-0.2l0.1,0.3l0.8,0l-0.4,0.1
		c0,0,0.2,0.1,0.2,0.1c-0.1,0-0.2,0.1-0.2,0.1s0.1,0.3,0.2,0.3c0.3,0.1,0.5,0.1,0.5,0.1s0-0.2,0.1-0.1c0.1,0.1,0.2,0.2,0.2,0.4
		c0.1,0.1,0.3,0.1,0.3,0.1s0.1,0.1,0.2,0.2c0,0.1,0.1,0.1,0.2,0.2c0.1,0.1,0.3,0.2,0.5,0.3c0.2,0.1,0.3,0.2,0.4,0.2
		c0.1,0,0.2,0,0.2,0l-0.1,0.2c0,0-0.1,0.1,0,0.1c0.1,0,0.2,0,0.2,0l-0.3,0.1c0,0,0.2,0.3,0.4,0.3c0.2,0,0.6,0,0.6,0l-0.3,0.1
		c0.2,0.2,0.2,0.2,0.2,0.2s0,0.2,0,0.4c0,0.2,0.1,0.1,0.1,0.2c0,0.1-0.1,0.3,0,0.4c0.1,0.2,0.2,0.3,0.2,0.3s0.2,0.1,0.2,0.2
		c0,0.1,0.1,0.2,0,0.3c0,0.1-0.1,0.1-0.2,0.1l-0.2,0.5c0,0,0,0-0.2,0c-0.2,0-0.2,0-0.3,0.2c-0.1,0.1-0.1,0.1-0.4,0.1
		c-0.6,0-1-0.1-1.8-0.3c-0.4-0.1-1.1-0.4-1.7-0.8c-0.6-0.4-1.2-0.8-1.7-1.2c-1.1-0.8-2.1-1.6-2.5-1.9l-0.6-0.5l0,0.3l-0.1-0.4
		l-0.1-0.4c-0.1-0.2,0.1-0.3-0.2-0.4c-0.3-0.1-0.3-0.1-0.3-0.1l0.4,0.8c0,0-0.3-0.7-0.4-0.8c-0.1,0-0.6-0.1-1.1-0.3
		c-0.6-0.3-0.9-0.6-0.9-0.6l0,0.6c0,0,0-0.6-0.1-0.7c-0.1-0.2-0.8-0.7-0.8-0.7v1l-0.1-1.1c0,0-0.7-0.6-0.9-0.9
		c-0.2-0.3-0.3-0.2-0.3-0.2l0.2,0.8c0,0-0.2-0.8-0.3-1c-0.1-0.2-1.4-1.3-1.4-1.3s0,0.2,0,0.3c0,0,0.2,0.3,0.1,0.2
		c0,0,0.3,0.3,0.3,0.5l0,0.3c0,0-0.2-0.4-0.4-0.6c-0.2-0.3,0-0.5-0.1-0.7c-0.1-0.2-0.2-0.2-0.2-0.2s-0.1,0.2,0,0.7
		c0.2,0.4,0.2,0.5,0.2,0.5s-0.3-0.7-0.4-0.9c0-0.2,0.1-0.4,0.1-0.4l-0.8-0.7c-0.4-0.4-1.1-1-1.3-1.2c-0.2-0.2-0.2-0.4-0.2-0.4
		c-0.1,0-0.2,0-0.2,0s0.1,0,0.1-0.2c0-0.1,0-0.2,0-0.4c0-0.2-0.1-0.2-0.1-0.2c-0.1,0-0.2,0-0.2,0c-0.1,0.1-0.2,0.8-0.2,0.8
		s0.1-0.7,0.1-0.9c0-0.2,0.2-0.2,0.1-0.3c-0.1-0.1-0.5-0.6-0.7-0.8c-0.2-0.1-0.2-0.1-0.3-0.2c0-0.1,0-0.1-0.2-0.1
		c-0.2,0-0.1,0-0.2-0.1c-0.1-0.1-0.1-0.2-0.3-0.2c-0.2,0-0.1,0-0.2,0c-0.1-0.1-0.2-0.1-0.2,0c0,0.1,0.1,0.2,0.1,0.3l0.1,0.1
		l-0.2-0.4c-0.1-0.2-0.4-0.4-0.4-0.4c-0.1,0-0.1-0.1-0.1,0c0,0.1,0,0.9,0.1,1.2l0.1,0.4c0,0-0.3-1-0.4-1.4c0-0.4-0.1-0.3-0.2-0.3
		c-0.1,0.1,0,0.6,0,0.6l-0.3-0.6l-0.2,0.1l0.1-0.3l-0.2-0.1c0,0-0.1,0.3,0,0.7c0.1,0.4,0.1,0.5,0.1,0.5s-0.2-0.9-0.2-1.2
		c0-0.3-0.2-0.3-0.3-0.3c-0.1,0-0.1-0.1-0.1-0.2c0-0.2-0.1-0.1-0.1-0.3c0-0.1-0.1-0.1-0.2-0.2c-0.1-0.2-0.2-0.2-0.2-0.1
		c0,0.1-0.1,0.6-0.1,0.6v-0.9c0,0-0.3-0.1-0.4-0.3c-0.1-0.1-0.1-0.1-0.2-0.2c-0.1-0.1-0.2-0.2-0.2-0.2l0,0.4l0-0.4
		c0,0-0.1-0.1-0.2-0.3c-0.1-0.2-0.2-0.2-0.2-0.2l0,0.2l-0.1-0.3c-0.1,0-0.1-0.2-0.2-0.3c-0.1-0.1-0.1-0.1-0.2-0.2
		c-0.1-0.1-0.1-0.1-0.1-0.1v0.6c0,0,0-0.6-0.1-0.7c-0.1-0.2-0.1-0.2-0.1-0.2s-0.1,0.1-0.1,0c0-0.1-0.1-0.3-0.1-0.2
		c0,0.1,0,0.8,0,0.8s0-0.8,0-0.9c-0.1-0.1-0.3-0.6-0.5-0.6c-0.2-0.1-0.2-0.1-0.2-0.2c0-0.1-0.1-0.2-0.2-0.2c-0.1,0-0.1,0-0.1-0.1
		c0-0.1,0-0.1-0.1-0.2c-0.1,0-0.2-0.3-0.3-0.4c-0.1-0.1-0.1-0.1-0.2-0.1c-0.1-0.1-0.2-0.4-0.3-0.5c-0.2-0.2-0.6-0.6-0.8-0.8
		c-0.1-0.1-0.4-0.2-0.6-0.5c-0.2-0.2-0.2-0.2-0.3-0.2c-0.1-0.1-0.3-0.2-0.5-0.4c-0.2-0.2-0.2-0.1-0.2-0.2c-0.1-0.1-0.7-0.5-0.9-0.6
		c-0.2-0.1-0.2-0.1-0.4-0.2c-0.2-0.1-0.2,0-0.4-0.1c-0.2-0.1-0.6-0.3-0.8-0.6c-0.2-0.2-1.1-1-1.6-1.4c-0.5-0.4-0.8-0.6-1.1-0.9
		c-0.4-0.3-1.3-1-1.6-1.2c-0.3-0.2-0.4-0.3-0.8-0.3c-0.4,0-0.3,0-0.5-0.1c-0.2-0.1-0.2-0.1-0.3-0.1c-0.1,0-0.1-0.1-0.2,0.1
		c-0.1,0.2,0,0.4-0.3,0.4c-0.3,0-0.5,0-0.9,0c-0.2,0-0.4-0.1-0.6-0.2c-0.2,0-0.3,0-0.3,0s-0.1,0,0.2,0.3c0.3,0.3,0.6,0.7,0.6,0.7
		s-0.8-1-1-1c-0.2,0-0.3,0-0.3,0s0.1,0.2,0.2,0.4c0,0.1,0,0.2,0.1,0.2c0.2,0.2,0.2,0.3,0.2,0.3s-0.2-0.4-0.4-0.7
		C99,45,98.9,45,98.9,45c-0.1,0-0.2-0.1-0.3,0c0,0.1,0.1,0.2,0.1,0.3c0.1,0,0.2,0.4,0.4,0.7c0,0-0.4-1-0.6-1c-0.2,0-0.1,0.1-0.1,0.3
		c0,0.1-0.1-0.2-0.1-0.2c-0.1,0-0.3,0-0.3,0s0.1,0.3,0.2,0.4c0.1,0.1,0.3,0.3,0.4,0.4c0.2,0.2,0.7,1.6,0.7,1.6s-0.6-1.7-0.8-1.7
		l0.3,1c0,0-0.4-0.7-0.4-0.9c-0.1-0.2-0.1-0.3-0.2-0.5c-0.1-0.2-0.1-0.2-0.2-0.2c-0.1,0-0.1-0.1-0.1,0c0,0,0.2,0.4,0.2,0.4
		s-0.1,0-0.2-0.1c0-0.1,0-0.1-0.1-0.2c-0.1-0.1-0.2-0.1-0.2-0.1c0,0,0,0.1,0,0.2c0,0.1,0,0.2,0.1,0.2c0.1,0.1,0.4,0.4,0.4,0.4
		s-0.5-0.5-0.6-0.6c-0.1-0.1-0.2-0.2-0.2-0.2s-0.1-0.1-0.2,0c0,0.1,0,0,0,0.1c0,0.1,0.1,0.5,0.1,0.6c0,0.1-0.1-0.7-0.2-0.7
		c-0.1,0-0.2,0-0.2,0s0.1,0.3,0,0.3c0,0-0.2-0.2-0.2-0.3c0,0-0.1,0-0.1,0l0,0.6l-0.1-0.5c0,0-0.2,0-0.2,0c-0.1,0,0.2,0.5,0.2,0.5
		c-0.1,0-0.3-0.3-0.4-0.4c-0.1-0.1-0.2-0.1-0.2-0.1s0,0.3,0,0.4c0,0.1,0,0.2,0.1,0.2c0,0,0.8,0.8,0.8,0.8s-0.8-0.7-0.9-0.7
		c-0.2,0-0.2,0.1-0.1,0.2c0.2,0.2,0.3,0.4,0.5,0.6c0.2,0.1,0.9,0.5,0.9,0.5s-0.7-0.3-0.9-0.3c-0.1,0,0.2,0.3,0.3,0.6
		c0.2,0.3,0.2,0.3,0.3,0.5c0,0.1,0.2,0.4,0.3,0.6c0.1,0.1,0,0.3,0.2,0.5c0.1,0.2,0.3,0.4,0.4,0.5c0.1,0.4,0.3,0.6,0.3,0.6
		c0,0.3,0,0.9,0,1.1c0.1,0.1,0.2,0.2,0.2,0.3c0.1,0,0.2,0.2,0.4,0.4c0.2,0.2,0.5,0.5,0.5,0.5s-0.2-0.1-0.5-0.4
		c-0.2-0.3-0.4-0.4-0.4-0.3c0,0.1,0,0.2,0,0.3c0,0.1,0.1,0.3,0.1,0.4c0.1,0.1,0.3,0.2,0.6,0.4c0.3,0.2,0.7,0.8,0.7,0.8
		s-0.4-0.4-0.6-0.6c-0.1-0.2-0.5-0.4-0.6-0.4c-0.1,0,0,0.3,0.1,0.5c0.1,0.2,0.4,0.3,0.7,0.4c0.3,0.1,0.8,0.5,1,0.7
		c0.2,0.2,0.3,0.3,0.3,0.3s-0.6-0.4-0.8-0.6s-0.3-0.2-0.5-0.3c-0.1-0.1-0.1,0-0.1,0s0.6,0.7,0.7,0.8c0.1,0.1-0.5-0.4-0.6-0.6
		c-0.2-0.2-0.4-0.4-0.6-0.5c-0.1-0.1-0.1,0.2,0,0.3c0.1,0.1,0.1,0,0.1,0.2c0,0.1-0.1,0.2,0,0.3c0.1,0.1,0.7,0.3,0.9,0.4
		c0.2,0.1,0.8,0.5,0.8,0.5c-0.1,0-1-0.6-1.3-0.7c-0.3-0.1-0.2,0.2,0,0.2c0.1,0.1,1.2,0.5,1.2,0.5l-1.2-0.4c0,0,0.1,0.3,0.2,0.4
		c0,0.1,0.3,0.1,0.5,0.3c0.2,0.2,0.4,0.4,0.4,0.4l-0.6-0.4c-0.1-0.1-0.1,0.1-0.1,0.2c0.1,0.1,0.3,0.2,0.3,0.3c0,0,0,0.1,0,0.2
		c0,0.2,0.1,0.3,0.3,0.4c0.3,0.2,0.6,0.6,0.6,0.6l-0.6-0.4l0.2,0.3l-0.3-0.3c-0.1-0.1-0.3-0.2-0.2-0.1c0,0.2,0.2,0.3,0.2,0.4
		c0.1,0.1,0.1,0.1,0.2,0.2c0.2,0.1,0.4,0.4,0.4,0.4s-0.4-0.2-0.5-0.3c-0.1,0-0.3-0.1-0.3,0c0,0.1,0,0.2,0.2,0.2
		c0.1,0,0.2,0.2,0.2,0.3c0,0.1,0,0.1,0.1,0.2c0.1,0.1,0.1,0.1,0.2,0.2c0,0.1,0.1,0.2,0,0.3c0,0.1,0.6,0.2,0.6,0.2l-0.3,0.1
		c0,0,0,0,0,0.1c0.1,0.1,0.2,0.2,0.2,0.2h-0.4l0.1,0.2l0.8,0.6l-0.9-0.6l0,0.2l0.7,0.9c0,0-0.3-0.2-0.4-0.3c-0.1-0.1-0.1,0-0.1,0
		s-0.1,0.3,0,0.4c0.1,0.1,0,0.1,0.2,0.2c0.2,0.1,0.3,0.1,0.3,0.2c0,0.2,0,0.2-0.1,0.3c0,0.1,0,0.4,0,0.4l-0.3,0l0-0.2l-0.2,0
		c0,0,0,0.1,0.1,0.3c0.1,0.2,0.2,0.2,0.2,0.3c0,0.1,0.2,0.2,0.2,0.2l1,0.1c0,0-1.1-0.1-1,0c0,0.1-0.1,0.3,0,0.3c0,0,0.7,0.4,0.6,0.4
		c-0.1,0-0.6-0.4-0.6-0.3c0,0.1,0.1,0.4,0.1,0.4c0.1,0.1,0.2,0,0.1,0.1c0,0.1-0.1,0.1,0,0.2l0.3,0.2c0,0-0.3,0-0.3-0.1
		c0-0.1-0.1-0.2-0.1-0.1c0,0.1-0.1,0.3,0,0.4c0.1,0.1,0.1,0,0.2,0.1c0,0.1,0,0.1,0.1,0.3c0.2,0.1,0.1,0.2,0.1,0.3c0,0.1,0,0.2,0,0.2
		s0.4,0.2,0.5,0.4c0.1,0.1,0.1,0.2,0.1,0.2s-0.5-0.6-0.6-0.4c-0.1,0.2,0,0.9,0,0.9s0.2,0.1,0.2,0.2c0,0.1,0.1,0.2-0.1,0.2
		c-0.2,0-0.3,0.1-0.1,0.2c0.2,0.1,0.2,0.2,0.2,0.3c0.1,0.1,0,0.1,0,0.1s-0.2-0.3-0.3-0.3c-0.1,0-0.1,0-0.1,0.2
		c0,0.1,0.1,0.2,0.2,0.4c0.1,0.3,0.1,0.4,0.1,0.7c0,0.3,0.1,0.3,0.1,0.3l-0.2,0c0,0,0,0.1,0,0.2l-0.3,0.2l0,0.2l-0.1,0.6l-0.2-0.1
		l-0.1,0.2l-0.2,0.2c0,0-0.1,0.1-0.2,0.3c-0.1,0.2-0.1,0.2-0.2,0.2c-0.2,0-0.2,0-0.4,0.1s-0.3,0.1-0.4-0.1c-0.2-0.2-0.2-0.3-0.3-0.3
		L99,70.1l-0.2,0l0-0.3c0,0,0-0.3-0.2-0.2c-0.2,0.2-0.2,0.1-0.2,0.1s-0.1,0-0.2-0.4c-0.1-0.3-0.1-0.6-0.1-0.7c0-0.2,0.1-0.1,0.1-0.3
		c0-0.2,0-0.4-0.2-0.2c-0.1,0.1-0.2,0-0.2,0s0-0.6-0.1-0.7c0-0.1-0.1,0-0.1-0.2c0-0.3,0-1-0.1-1.1C97.4,66,97.4,66,97.4,66
		s0.1-0.1,0.2-0.2c0-0.2,0.1-0.5,0.1-0.5l0.2-0.1c0,0,0.1-0.3,0-0.3c-0.1,0-0.4,0-0.4,0s0-0.5,0.1-0.7c0-0.2,0-0.4,0-0.4
		s0.3-0.3,0.4-0.4c0.1-0.1,0.1-0.3,0.1-0.3l-0.1-0.2l-0.2,0.2c0,0-0.2,0-0.3,0c-0.1,0-0.2,0-0.2,0.1c-0.1,0,0-0.2,0.1-0.3
		c0.1-0.1-0.1-0.1,0-0.2c0.1-0.1,0.2-0.2,0.2-0.2s0.2-0.1,0.4-0.2c0.1-0.1,0,0,0.1-0.1c0.1-0.1,0-0.1-0.1-0.2c-0.1,0-0.1-0.1-0.1,0
		c0,0.1-0.2,0.3-0.2,0.3s0,0.1-0.1,0c-0.1-0.2-0.1-0.1-0.2-0.2c-0.1-0.1-0.1-0.2-0.1-0.1c-0.1,0-0.1,0.3-0.2,0.4
		c0,0.1-0.2,0-0.1-0.4c0-0.4,0-0.8,0-1c0-0.3,0-0.4,0-0.4s-0.1,0-0.2,0.2l-0.2,0.3c0,0,0-0.2,0.1-0.4c0.1-0.1,0.2-0.2,0.3-0.4
		c0.1-0.1,0.1-0.1,0.1-0.3c0-0.3-0.1-0.3-0.1-0.3s-0.2,0.1-0.2,0.4c-0.1,0.3-0.2,0.4-0.2,0.4s0.2-0.6,0.2-0.8c0-0.2,0-0.3,0-0.3
		s0-0.2-0.1-0.1c-0.1,0.1-0.2,0.2-0.2,0.2s0.1-0.4,0.1-0.5c0-0.1,0.1,0.1,0.2-0.1c0-0.2,0-0.3-0.1-0.3c-0.1,0-0.2,0.1-0.2,0
		c0.1-0.2,0-0.4,0-0.5c0-0.2,0.1-0.5,0-0.5l-0.4,0.6c0,0,0.3-0.6,0.3-0.7c0-0.1,0-0.2,0-0.1l-0.4,0.5c0,0,0.2-0.4,0.2-0.7
		c0-0.3,0-0.5,0-0.7c0-0.1,0-0.2,0-0.1c0,0.1-0.2,0.6-0.2,0.6s0.1-0.4,0.1-0.7c0-0.3-0.1-0.6-0.1-0.6s-0.2,0.5-0.2,0.7
		c0,0.2,0.4-0.6,0.2-0.9c-0.1-0.2-0.2-0.1-0.3,0c-0.1,0.2-0.2,0.5-0.2,0.5s0.4-0.6,0.3-0.9c0-0.2-0.2-0.2-0.2,0
		c-0.1,0.2-0.2,0.6-0.4,0.8c-0.1,0.3,0,0,0.2-0.5c0.2-0.5,0.3-0.4,0.2-0.8c0-0.3-0.1-0.4-0.2-0.3c0,0-0.1,0.1-0.1-0.2
		c0-0.2-0.1-0.3-0.1-0.2c0,0.1,0.2-0.2-0.3,0.5c-0.3,0.4-0.4,0.7-0.4,0.7s0-0.1,0.1-0.3c0.2-0.5,0.5-0.7,0.5-1.1
		c0-0.4-0.1-0.4-0.1-0.4l-0.5,0.8c0,0,0.5-0.8,0.5-1.1c0-0.3-0.1-0.3-0.2-0.2C94.6,53,94,54,94,54l0.2-0.9c0,0-0.1-0.3-0.1-0.5
		c0-0.2,0-0.3,0-0.3c-0.1,0-0.3,0-0.3,0v-0.4c-0.1,0-0.2,0.5-0.2,0.7c0,0.1,0-0.4,0.1-0.7c0-0.3-0.2-0.5-0.2-0.6
		c0,0-0.1-0.2-0.1-0.2c-0.1,0.1-0.3,0.2-0.6,0.8c-0.3,0.6-0.3,0.5-0.3,0.5s0.3-0.6,0.6-1s0.3-0.4,0.4-0.5c0-0.1,0-0.3-0.1-0.3
		c-0.1,0-0.1,0-0.1-0.2c0-0.1-0.1-0.2-0.1-0.3c-0.1-0.2-0.3-0.5-0.3-0.5s-0.3,0.4-0.4,0.5c-0.1,0.1,0.3-0.3,0.3-0.6
		c0-0.3-0.2-0.3-0.2-0.3s-0.1,0.4-0.1,0.6c0,0.1,0-0.4,0-0.5s-0.2-0.2-0.2-0.2l0,0.8c0,0-0.1-0.6-0.1-0.7c0-0.1-0.2-0.2-0.2-0.2
		l-0.2,0.7l0-0.9l-0.3,0.5l0.1-0.8c0,0-0.2,0-0.2,0.1c-0.1,0.1-0.2-0.3-0.2-0.3H91v0.4l-0.1-0.4l-0.1,0.4l0-0.8c0,0,0-0.1-0.2-0.2
		c-0.2-0.1-0.2-0.2-0.2-0.1c0,0,0.2,0.7,0.2,0.9c0,0.2-0.1-0.6-0.2-0.8c-0.1-0.2-0.2,0-0.3,0c-0.1-0.1-0.1-0.1-0.2-0.2
		c-0.1,0-0.2-0.1-0.2-0.2c0,0-0.1-0.1-0.2-0.2c-0.1-0.1-0.2-0.1-0.2-0.1c-0.1,0,0,0-0.2,0c-0.2,0-0.1,0-0.1,0.2
		c0.1,0.2,0.1,0.5,0.1,0.5s-0.1-0.2-0.2-0.3c-0.1-0.1-0.3-0.1-0.3-0.1s0,0.2,0,0.4c0,0.2,0.2,0.2,0.2,0.4c0.1,0.2-0.1,0-0.2-0.1
		l0.1,0.5c0,0-0.2-0.2-0.3-0.5c-0.1-0.3-0.1-0.6-0.1-0.6S88,47,88,47.1c0,0,0,0.8,0,0.8s-0.1-0.6-0.2-0.8c-0.1-0.1-0.3-0.3-0.4-0.4
		c-0.1,0-0.2,0-0.2,0l0,0.7c0,0,0.6,0.6,0.9,0.9c0.3,0.2,0.8,0.5,1.5,0.6c0.7,0.1,0.9,0.1,0.9,0.1c0,0-1.1,0.1-1.8-0.2
		c-0.7-0.4-1.5-1.3-1.6-1.1c0,0.2,0,1.2,0,1.8c-0.1,0.6-0.2,1.3-0.2,1.7c0,0.4-0.1,0.6-0.1,0.6l0.2,0.8L86.9,52l0,0.2l0.1,0.6
		l-0.2-0.4l0,0.2l0.2,0.8c0,0-0.2-0.6-0.4-0.7c-0.1-0.1-0.2,0-0.2,0.1c0,0.1,0.1,0.9,0.1,0.9l-0.2-0.8c0,0,0,0-0.1,0.1l0.1,1.1
		l-0.3-1l-0.1,0l0,0.5l-0.2-0.4l-0.1,0.1l0.1,0.4l-0.2-0.4l0,0.6l-0.2-0.6l-0.2,0v0.6l0-0.5l-0.2,0l0,2l-0.1-2.1l-0.2,0l-0.1,0.4
		c-0.2,0.3-0.2,0.6-0.2,0.6l0-0.7l-0.1-0.3c0,0-0.1,0-0.1,0.1c0,0.1,0,0.1-0.1,0.1c-0.1,0-0.2,0.1-0.2,0.1s-0.2,0.9-0.3,1
		c-0.1,0.1,0.4-0.9,0.2-1c-0.2-0.1-0.2,0.2-0.2,0.2c0,0-0.1,0.7-0.3,0.9c-0.2,0.2,0.2-0.4,0.2-0.7c0.1-1-0.3,0.1-0.2-0.1
		c-0.1,0.2-0.4,0-0.4,0l-0.1,0.8l0-0.9c0,0-0.1,0.1-0.2,0c-0.1,0-0.2,0.2-0.2,0.2s-0.1-0.1-0.1-0.2c0-0.1-0.1,0-0.2-0.1
		c-0.1,0-0.2,0-0.3,0c-0.1,0-0.2-0.2-0.3-0.2c-0.1,0-0.3-0.1-0.3-0.1s-0.1-0.2-0.2-0.1C81,54,81,54.2,80.8,54.3
		c-0.1,0-0.2,0.1-0.2,0.2c0,0.1-0.1,0.4-0.1,0.4s-0.1,0.6,0,0.8l0.1,0.2c0,0-0.1-0.1-0.2-0.3c0-0.1,0-0.3,0-0.5
		c0-0.4-0.3-0.1-0.3-0.1v0.9l-0.1-1L79.5,55l0.3,1.1L79.4,55l0.2,1.1l-0.4-0.9l-0.2,0.5l0.4,0.8L79,55.7v-0.4l0-0.1l-0.2-0.3
		c0,0-0.1,0.1-0.1,0.2c0,0-0.1,1-0.1,1l-0.1-0.4l-0.2-0.1l0,0.8L78.1,56c0,0,0,0-0.1,0.4c-0.1,0.4-0.1,1.3-0.1,1.3
		c0,0.1,0,0.2,0.1,0.3c0.1,0,0.5,0.4,0.5,0.4s-0.3-0.2-0.4-0.2c-0.1,0-0.1,0.2-0.1,0.2s0.8,0.4,1,0.6l0.2,0.1c0.4,0.2,1,0.7,1.4,1.1
		c0.4,0.5,0.6,1.1,0.6,1.1s-0.3-0.8-1-1.3c-0.6-0.5-1.1-0.9-1.1-0.9s0.6,0.7,0.9,1.2c0.3,0.5,0.5,0.8,0.5,0.8s-0.5-0.8-1-1.4
		c-0.5-0.6-0.9-0.9-1.1-1c-0.2-0.1-0.3,0-0.3,0s0,0.3,0.2,0.4c0.1,0.1,0.2,0.1,0.3,0.1c0.2,0,0.3,0.1,0.5,0.2
		c0.3,0.2,0.3,0.2,0.3,0.2s-0.3-0.3-0.7-0.4c-0.4-0.1-0.4-0.1-0.4-0.1s0,0.3,0.1,0.5c0.1,0.3,0.2,0.5,0.2,0.5s1.4,0.6,1.9,1.1
		l0.7,0.6c0,0-0.9-0.8-1.6-1.2c-0.8-0.4-0.9-0.4-0.9-0.4l0.2,0.7c0,0,0.8,0.3,1.4,0.7c0.5,0.4,0.6,0.5,0.6,0.5s-0.6-0.4-1.1-0.8
		c-0.2-0.1-0.4-0.2-0.5-0.3C78.7,61,78.8,61,78.8,61l0,0.3l0.7,0.5c0.1,0.1-0.5-0.3-0.6-0.3c-0.1,0,0.1,0.4,0.1,0.4s0.8,0.6,1,0.8
		l0.2,0.2l-1.2-0.9l0.4,0.4l-0.4-0.1c0,0,0.1,0.4,0.3,0.6c0.2,0.1,0.2,0.2,0.2,0.2l-0.4-0.1l0.1,0.3c0,0,0.4,0.1,0.6,0.2
		c0.4,0.2,0.8,0.6,0.8,0.6s-1.4-0.8-1.4-0.7c0,0.1,0.2,0.7,0.2,0.7s0.6,0.2,1,0.4c0.4,0.3,0.5,0.4,0.5,0.4s-0.6-0.4-1-0.5l-0.5-0.2
		c0,0,0,0.3,0.1,0.6c0.1,0.2,0.5,0.3,0.8,0.8c0.4,0.4,0.4,0.4,0.4,0.4s-1.2-1.2-1.2-1c0,0.2,0.1,0.5,0.2,0.6
		c0.1,0.1,0.5,0.3,0.9,1.2c0.3,0.7,0.3,1,0.3,1s-0.3-1-0.7-1.6c-0.3-0.4-0.5-0.6-0.5-0.5c0,0.2,0,0.2,0,0.2c-0.1,0,0,0.1,0,0.1
		s0.1,0.4,0.1,0.6c0,0.1,0.1,0.1,0.3,0.4c0.1,0.2,0.2,0.3,0.2,0.5c0,0.2,0,0.2,0.1,0.3l0.5,0.2c0.1,0.1-0.1,0-0.2,0l0,0.2l0.4,0.2
		c0,0-0.2-0.1-0.3-0.1c-0.1,0-0.1,0.1-0.1,0.1s-0.1,0,0.1,0.4c0.2,0.3,0.4,0.7,0.6,1.5c0,0.2,0.1,0.3,0.1,0.4
		c0.1,0.5,0.1,0.8,0.1,0.9c0,0.2,0,0.1,0.1,0.4c0.1,0.3,0.1,0.6,0.1,0.8c0,0.1,0,0.2-0.1,0.2c-0.1-0.1-0.3-0.1-0.2,0.1
		c0.1,0.2,0.1,0.2,0.2,0.3c0.1,0.1,0.1,0.2,0,0.2c-0.1,0.1-0.2,0.1,0,0.4c0.1,0.1,0.2,0.4,0,0.4c-0.2,0-0.3-0.1-0.2,0.1
		c0,0.1,0,0.1,0,0.2c0.1,0.1,0.2,0.2,0.1,0.3c-0.1,0.1,0,0.2-0.1,0.5c-0.1,0.3-0.2,0.6-0.4,0.7c-0.2,0.1-0.4,0.1-0.4,0.2
		c0,0.1,0,0.2-0.1,0.2C80.9,76.7,81,77,81,77c0,0.1-0.1,0.1-0.2,0.2c-0.1,0.1,0,0.1-0.2,0.2c-0.2,0.1-0.2,0.1-0.3,0.1
		c-0.1,0-0.1,0-0.2,0c-0.1,0-0.2,0-0.4-0.1c-0.2-0.1-0.2-0.2-0.4-0.3c-0.2,0-0.1,0-0.2,0S78.7,77,78.7,77l-0.1,0.2l0-0.4l-0.2-0.2
		c-0.1-0.1-0.2-0.2-0.4-0.5c-0.1-0.3-0.2-0.5-0.3-0.6c-0.1-0.1-0.1-0.1-0.2-0.2c0-0.2,0.1-0.1,0-0.2c-0.1-0.1-0.1-0.1-0.1-0.2
		s-0.1-0.3-0.1-0.4c0-0.1-0.1-0.1-0.1-0.3c0-0.2-0.1-0.5-0.1-0.8c0-0.2,0-0.3-0.1-0.4c-0.1-0.1-0.2-0.8-0.2-1c0-0.1-0.1-0.4-0.1-0.4
		l-0.4,0.3c0,0,0.4-0.3,0.4-0.4c0-0.1,0-0.4,0-0.4s-0.2,0.1-0.3,0.3l-0.1,0.2c0,0,0.3-0.5,0.4-0.6c0.1-0.1,0.1-0.5,0.1-0.5
		S76,70.9,76,71c-0.1,0.1,0.1-0.2,0.4-0.4c0.3-0.2,0.2-0.2,0.2-0.2l0.1-0.7c0,0-0.2,0.2-0.4,0.5C76,70.4,76,70.4,76,70.4l0.6-0.9
		c-0.1,0-0.5,0.3-0.5,0.3s0.2-0.3,0.4-0.4c0.1-0.2,0.2-0.2,0.2-0.2s0-0.2-0.1-0.1c-0.1,0.1-0.2,0.1-0.2,0.1c0,0,0.2-0.2,0.2-0.3
		c0,0,0-0.2,0-0.2L76.1,69c0,0,0.2-0.2,0.4-0.4c0.1-0.2,0.2-0.4,0.2-0.6c0-0.2-0.1-0.1-0.1-0.1l-0.3,0.4c0,0,0.2-0.3,0.2-0.4
		c0-0.1-0.1-0.1-0.1-0.1l-0.4,0.4c0,0,0.1-0.3,0.1-0.5c0-0.2,0-0.4,0-0.6c0-0.2,0-0.3,0-0.3l-0.4,0.4c0,0,0-0.1,0-0.4
		c0-0.2,0.1-0.3,0.1-0.5c0-0.2-0.1-0.4-0.1-0.4l-0.3,0.7l0.1-0.7c0,0-0.4,0.5-0.4,0.7c0,0.2-0.1,0.2-0.1,0.2s0.4-0.8,0.4-1
		c0-0.2,0-0.3,0-0.5c0-0.2,0-0.3,0-0.3s-0.2-0.2-0.4,0.2c-0.2,0.5-0.3,0.8-0.3,0.8c0,0,0,0,0.2-0.5c0.1-0.5,0.3-0.6,0.4-0.8
		c0.1-0.2,0.1-0.6,0.2-0.8c0.1-0.2-0.1-0.6-0.1-0.5c-0.1,0.1-0.4,0.7-0.4,1c0,0.3,0,0.4,0,0.4s0.2-0.9,0.2-1.3
		c0.1-0.4,0.2-0.5,0.2-0.7c0-0.2,0-0.2,0-0.2s-0.2,0-0.2,0.2c0,0.2,0,0.5-0.2,0.9c-0.1,0.2-0.2,0.8-0.2,0.8s0.3-1.3,0.4-1.8
		c0.2-0.5,0-0.5,0-0.6c0-0.2,0-0.3,0-0.4c0-0.1-0.2,0-0.2,0.2l-0.1,0.5l0.1-0.7c0-0.3,0.1-0.4,0-0.3c-0.1,0.1-0.1,0.4-0.2,0.5
		c-0.1,0.1,0.1-0.3,0.2-0.5c0.1-0.2,0-0.4,0-0.4s-0.3,0.3-0.4,0.5c-0.1,0.2,0.2-0.4,0.2-0.5c0-0.1,0-0.4,0-0.7c0-0.2,0.1-0.3,0-0.4
		c0-0.1-0.2-0.1-0.3,0c-0.1,0.1,0-0.2-0.3,0.4c-0.3,0.6-0.4,0.7-0.4,0.7s0.4-1,0.6-1.3c0.2-0.3,0.2-0.3,0.2-0.4
		c0-0.1-0.1-0.2-0.2-0.2c-0.1,0-0.1-0.1-0.3,0.2c-0.2,0.3-0.4,0.8-0.4,0.8s0.4-1,0.6-1.2c0.2-0.2,0.2-0.3,0.1-0.4
		c-0.1-0.1-0.3,0-0.4,0.1c0,0.1-0.3,0.5-0.5,0.8c-0.2,0.3-0.3,0.5-0.3,0.5s0.4-0.8,0.6-1.1c0.2-0.4,0.2-0.5,0.2-0.5l-0.1-0.2
		c0,0-0.6,0.7-0.7,0.9c-0.1,0.1,0-0.1,0.2-0.4c0.2-0.3,0.5-0.6,0.5-0.7c0.1-0.1,0-0.2,0-0.5l0-0.3l-0.7,0.6c0,0,0.5-0.5,0.6-0.7
		c0.1-0.2,0.1-0.3,0-0.4c-0.2,0,0,0-0.3,0.1c-0.2,0.1-0.3,0.1-0.3,0.1s0.3-0.2,0.4-0.3c0.2-0.1,0-0.4,0-0.4L73,56.9
		c0,0,0.2-0.8,0.3-0.9c0-0.1,0-0.5,0-0.6c-0.1-0.1-0.1,0-0.1-0.2c0-0.2-0.1-0.3-0.2-0.4c-0.1,0-0.3-0.3-0.4-0.1
		C72.3,55,72.3,55,72.3,55L72,54.5c0,0-0.2,0-0.2,0.1c0,0,0.3,1.1,0.3,1.1l-0.5-0.9l0,0.5l0.8,1.4c0,0-0.8-1.4-0.8-1.2
		c0,0.2,0,0.2,0,0.3l0,1l-0.2-1.5c0,0-0.2-0.4-0.2-0.3c0,0.1,0.1,1.5,0.1,1.5l-0.2-1l-0.2,0.7c0,0,0.1-0.4,0.1-0.7l0.1-0.8L71,54.5
		l0,1.6l-0.2-0.9l-0.1,2.3l0-2.5l-0.2,0.2l-0.1,1.4c0,0,0-1,0-1c0,0.1-0.1,0.3-0.1,0.3l-0.1,1.6v-1.8l0-0.8L70,55.3l-0.1,0.7l0-1.1
		l-0.2,0.5l0-0.4l0.1-0.8l-0.2,0.1l-0.1,0.6l-0.1-0.3l-0.2,0V55c0,0,0.2,0.3,0.2,0.4l0,0.3c0,0-0.1,0.1,0,0.5l0.2,0.6
		c0,0-0.3-0.7-0.4-1c-0.1-0.3-0.1-0.4-0.2-0.6l-0.1,1.6c0,0-0.1-1.8-0.1-2c0-0.2-0.2-0.8-0.2-0.8l-0.1,1.2l-0.3-0.8
		c0,0-0.1,0-0.1,0.3v0.3c0,0,0,0.2,0,0.4c0.1,0.2,0.1,0.2,0.1,0.2l-0.3-0.6c0,0-0.1-0.4-0.1-0.6s0-0.5,0-0.5s-0.3,0.2-0.3,0.6
		c0,0.4-0.1,1-0.1,1.2c0,0.3,0,0.2,0,0.4c0,0.2-0.1,0.5,0,0.7c0,0.2,0,0.2,0,0.2s0.4,0,0.7,0.3c0.3,0.3,0.2,0.4,0.2,0.4
		s-0.3-0.4-0.6-0.5c-0.3-0.1-0.2,0-0.2,0.2c0,0.2,0.2,0.3,0.2,0.5c0,0.2,0.2,0.3,0.3,0.4c0.1,0.1-0.1,0-0.3-0.2
		c-0.2-0.2-0.1-0.2-0.2-0.4c-0.1-0.2-0.2-0.2-0.2-0.2s0,0.5,0,0.6c0,0.1,0.1,0.2,0,0.3c-0.1,0-0.1,0.1-0.1,0.3
		c0,0.2,0.1,0.8-0.1,0.6c-0.1-0.2-0.4-0.1-0.4,0.2v0.6c0,0,0.6,0.6,0.8,0.9l0.2,0.3c0,0-0.6-0.8-0.8-1L67,60.5c0,0,0.1,0.2,0,0.2
		c-0.1,0,0,0.3,0,0.4l0,0.1c0,0-0.2-0.3-0.2-0.2c0,0.1,0,0.2,0,0.2s0.3,0.5,0.4,0.6c0,0.1,0.2,0.2,0.2,0.2c0,0.1,0.1,0.3,0.1,0.3
		s-0.5-0.9-0.6-0.9c-0.1,0,0.4,0.7,0.4,0.7s-0.4-0.6-0.5-0.6c-0.1,0-0.2,0.2,0,0.4l0.2,0.2c0.2,0.3,0.5,0.6,0.6,0.7
		c0.1,0.2,0.2,0.2,0.2,0.2s-0.7-0.7-0.8-0.8c-0.1-0.1,0.4,1.2,0.4,1.9c0,0.7,0,0.7,0,0.7s0-0.9-0.2-1.7c-0.1-0.5-0.4-0.9-0.4-0.9
		c-0.1,0,0,0.6,0,1.1v0.8l-0.1-0.6l0,1.2l-0.2-1.4c0,0,0-0.6,0-0.9l0-0.3c0,0-0.2,0.2-0.2,0.2c0,0,0,0.5,0,0.6c0,0,0.2,0.8,0.2,0.8
		s-0.2-0.7-0.3-0.7c0,0-0.2,0.6-0.2,0.6s0.3,1,0.3,1.5c0,0.5,0,0.5,0,0.5s-0.1-0.8-0.2-1.4c-0.1-0.3-0.2-0.4-0.2-0.4s0,0.4-0.1,0.5
		c-0.1,0.2-0.1,0.1-0.1,0.3c0,0.2,0,0.2,0,0.3c0,0.2,0,0.2-0.1,0.4c-0.1,0.1-0.1,0.2-0.1,0.2s0.3,0.5,0.4,1.3
		c0.1,0.9,0.1,0.9,0.1,0.9s-0.1-1-0.3-1.6c-0.1-0.4-0.2-0.5-0.2-0.5l-0.1,0.5l0.4,1c0,0-0.4-1-0.4-0.8l-0.1,0.5l0.5,1
		c0,0-0.5-1-0.6-0.9c-0.1,0.1,0,0.2-0.1,0.2c-0.1,0,0,0.2,0,0.2l0,0.2l0.8,1.2c0,0-0.6-0.8-0.8-1.1c-0.2,0.1-0.2,0.5-0.2,0.6
		l0.3,1.1c0,0-0.4-1-0.4-0.9c0,0.1-0.2,0.5-0.2,0.5s0.5,0.7,0.7,1.2c0.2,0.4,0.2,0.4,0.3,0.7c0.1,0.2-0.6-1.1-0.8-1.4
		c-0.2-0.3-0.2-0.2-0.2-0.2s-0.1,0.1-0.1,0.2c0,0.1,0,0.3,0,0.4c0,0.1,0.6,1.2,0.6,1.2s-0.6-1-0.7-1c-0.1,0,0,0.2-0.1,0.3
		c0,0.1,0,0.4,0,0.4s0.1,0,0.2,0.6c0,0.1,0,0.3,0,0.2c0-0.1,0,0.6,0,0.6s-0.1-0.6-0.1-0.8c0-0.2-0.1-0.7-0.2-0.5
		c-0.1,0.2,0,0.3-0.1,0.5c0,0.2-0.1,0.3-0.1,0.3l0.1,1.6l-0.2-1.4c0,0,0,0.2-0.1,0.3c-0.1,0.2,0,0.3-0.1,0.4
		c-0.1,0.2-0.1,0.2-0.1,0.4c0,0.2,0,0.2,0,0.3c-0.1,0.1,0,0.4,0,0.4l0.1,1c0,0-0.1-0.8-0.2-0.9c-0.1-0.1-0.2,0.3-0.2,0.4
		c0,0-0.1,0.3-0.2,0.3c-0.1,0.1-0.1,0-0.1,0.2c0,0.2,0,1,0,1s0-0.5-0.1-0.6c-0.1-0.1-0.2-0.1-0.2-0.1l-0.1,0.5
		c0,0.2-0.1,0.3-0.1,0.3l-0.2-0.2h-0.3l-0.1,0.3l-0.2,0.2v0.4l0.5,0.4c0,0-0.5-0.4-0.6-0.2c0,0.2,0,0.2-0.1,0.4c0,0.2,0,0.4,0,0.4
		c-0.1,0-0.1,0.2-0.1,0.4c0,0.1,0,0.2,0.1,0.2c0.1,0.1,0.2,0.1,0.2,0.4c0,0.3-0.1,1.8-0.2,2.6c-0.1,0.8-0.2,1.2-0.2,1.3
		c0,0.1,0,0.2-0.1,0.2c0,0,0-0.1-0.1,0.1c0,0.2-0.1,0.5-0.1,0.7c0,0.2,0,0.3-0.1,0.5c0,0.2-0.1,0.2-0.2,0.5c0,0.3,0,0.4-0.1,0.5
		c-0.1,0.1-0.2,0.5-0.3,0.7c-0.1,0.2-0.1,0.2-0.1,0.4c0,0.2-0.1,0.5,0,0.8c0.1,0.3,0.1,0.4,0,0.7c-0.1,0.3-0.6,1.3-0.8,1.6
		c-0.2,0.3-0.4,0.3-0.5,0.4c-0.1,0.1-0.2,0.2-0.3,0.1c-0.1-0.1-0.2-0.1-0.3,0c-0.1,0.1-0.1,0.1-0.1,0.3c0,0.2,0.3,0.4,0.5,0.6
		c0.2,0.3,0.3,0.3,0.3,1.2c0,0.9,0.1,2,0,3.5c-0.1,1.4-0.2,1.8-0.6,2.5c-0.3,0.7-0.6,0.8-0.7,0.8c-0.1,0-0.2,0-0.2,0.2
		c-0.1,0.2-0.1,0.5-0.4,0.7c-0.2,0.3-0.2,0.3-0.5,0.4c-0.2,0.1-0.2,0.4-0.2,0.4s0-0.1-0.1-0.1c-0.1,0-0.4,0-0.5,0
		c-0.2,0-0.3-0.2-0.3-0.2l-0.2,0.2c0,0,0.1-0.1,0-0.2c-0.1-0.1-0.4-0.3-0.4-0.6c0-0.3-0.2-0.5-0.4-0.6c-0.1-0.1-0.7-0.9-0.8-1.9
		c-0.1-0.7-0.2-1.2-0.1-2.3c0-0.4,0.2-1.1,0.3-1.6c0.2-1.9,0.4-2.2,0.6-2.5c0.1-0.3,0.1-0.4,0.3-0.6c0.2-0.2,0.4-0.2,0.5-0.3
		c0.1,0,0.1-0.5-0.2-0.5c-0.3,0-0.7-0.2-0.8-0.9c-0.1-0.7,0-1.1,0-1.3c0-0.2,0-0.1,0-0.2c0.1-0.1,0.2-0.3,0.2-0.5c0-0.2,0-0.2,0-0.4
		c0-0.1-0.1-0.1-0.1-0.1L54.2,86c0,0,0.4-0.6,0.6-0.8c0.1-0.2,0.1-0.4,0.2-0.6c0.2-0.2,0.2-0.1,0.2-0.4c0.1-0.2,0.1-0.4,0.1-0.4
		L54.8,84c0,0,0.4-0.1,0.5-0.2c0.1-0.2,0.4-0.8,0.4-0.8c0,0-0.2-0.1-0.5,0.1c-0.2,0.2-0.2,0.2-0.2,0.2s0.2-0.2,0.4-0.3
		c0.1-0.1,0.3-0.1,0.4-0.1c0.2,0,0.3-0.5,0.4-0.6l0-0.1c0,0-0.2,0-0.6,0.2c-0.4,0.2-0.6,0.4-0.6,0.4s0.2-0.2,0.5-0.4
		c0.3-0.2,0.8-0.3,0.8-0.3l0.1-0.3c0,0-0.2,0-0.4,0c-0.2,0.1-0.2,0.1-0.2,0.1s0.4-0.2,0.5-0.3c0.2,0,0.2-0.3,0.3-0.4
		c0-0.2,0-0.1,0.1-0.2c0.1-0.1,0.4-0.6,0.7-0.9c0.2-0.3,0.3-0.6,0.5-0.9c0.2-0.3,0.1-0.4,0.1-0.4s-0.2,0-0.5,0.2
		c-0.4,0.2-0.4,0.3-0.6,0.4l-0.2,0c0,0,0.4-0.1,0.5-0.4c0.2-0.2,0.9-0.4,0.9-0.4s0.1-0.2,0.1-0.4l0-0.3c0,0-0.2,0-0.7,0.3
		c-0.4,0.3-0.5,0.3-0.5,0.3s0.3-0.2,0.6-0.4c0.3-0.2,0.6-0.3,0.6-0.3l0.1-0.7c0-0.1,0-0.2,0-0.2s-0.3,0.1-0.6,0.3
		c-0.3,0.2-0.6,0.2-0.6,0.2s0.7-0.2,0.8-0.3c0.2-0.1,0.4-0.2,0.4-0.3c0-0.3,0.1-1,0.1-1s-0.3-0.2-0.8-0.1c-0.5,0-1.2,0.1-1.2,0.1
		s1.3-0.2,1.5-0.1c0.2,0,0.5,0.1,0.5,0.1l0-0.3c0,0-0.6-0.2-0.9-0.1l-0.3,0c0,0,0.2-0.1,0.4-0.1c0.2,0,0.5,0,0.6,0
		c0.3,0,0.3,0.1,0.3-0.2c0-0.2,0-0.2,0.1-0.4c0.1-0.1,0-0.5-0.1-0.5c-0.1,0-0.5,0.1-0.5,0c0-0.1-0.1-0.1-0.2,0
		c0,0.1-0.2,0.2-0.2,0.2s0.1-0.3,0.2-0.3c0.1-0.1,0.2,0.1,0.3,0c0.1-0.1,0.1-0.2,0-0.2c0,0-0.1-0.1,0-0.1c0.1-0.1,0.1-0.3,0.2-0.4
		c0.1-0.1,0.1-0.1,0-0.2c0-0.2,0-0.3,0-0.4c0-0.1-0.1,0-0.1,0L58,73.4l0.4-0.5c0.1-0.1,0.1-0.2,0.1-0.5c0-0.2,0.1-0.3,0.1-0.3
		c0,0,0,0-0.1,0c-0.3,0-0.6,0.3-0.8,0.5l-0.2,0.3c0,0,0.1-0.3,0.4-0.5c0.2-0.2,0.5-0.3,0.6-0.4c0.2-0.1,0.2,0,0.3-0.3
		c0-0.3,0-0.4,0-0.4s-0.4,0.2-0.6,0.3c-0.2,0.1-0.3,0.1-0.3,0.2c-0.1,0.1,0-0.1,0.3-0.3c0.3-0.2,0.8-0.3,0.8-0.4c0-0.1,0-0.2,0-0.2
		c0,0-0.2,0.1-0.4,0.3l-0.2,0.2c0,0,0.2-0.3,0.4-0.4c0.2-0.1,0.1-0.1,0.2-0.2c0.1-0.1,0.2-0.1,0.2-0.2s-0.6,0.2-0.7,0.4
		c-0.2,0.2-0.1,0-0.1,0s0.3-0.3,0.5-0.4c0.2-0.2,0.3-0.2,0.3-0.2s0.1-0.1,0.1-0.3v-0.3c0,0-0.4,0-0.5,0.2c-0.1,0.2,0,0.3-0.2,0.5
		c-0.2,0.3-0.4,0.3-0.7,0.4c-0.1,0-0.2,0.1-0.2,0.1c0.1,0,0.2-0.2,0.3-0.2c0.3,0,0.6-0.2,0.7-0.5c0-0.3,0.1-0.4,0.3-0.5
		c0.2-0.1,0.3,0,0.4-0.2c0.1-0.1,0.2-0.8,0.2-0.7c0,0-0.1,0-0.6,0.2c-0.5,0.2-0.6,0.3-1,0.3c-0.4,0-0.2,0-0.2,0s0.4-0.1,0.7-0.2
		c0.3-0.1,0.4-0.1,0.6-0.2c0.2-0.1,0.3-0.1,0.4-0.2c0.1-0.1,0.1-0.3,0.1-0.3s-0.3,0-0.4,0.2c-0.2,0.2-0.2,0.3-0.2,0.2
		c0-0.1,0.2-0.4,0.5-0.5c0.2-0.1,0.2-0.1,0.2-0.1s0-0.1,0.1-0.3c0.1-0.1,0.1-0.2,0.1-0.2s-0.4,0-0.7,0.1C58.8,68,58.6,68,58.6,68
		c-0.1,0-0.2,0.1-0.2,0.1c-0.1,0.1-0.3,0.1-0.3,0.1s0.6-0.3,0.8-0.4c0.2,0,0.3-0.2,0.6-0.2c0.3,0,0.3-0.1,0.3-0.1s0-0.1,0.1-0.4
		l0.1-0.3c0,0-0.2,0-0.4,0.1c-0.2,0.2-0.2,0.2-0.3,0.2l0.7-0.5c0,0,0,0.1,0.1-0.2c0-0.3,0.1-0.3,0.1-0.3s-0.3,0-0.5,0.2
		c-0.1,0.1-0.2,0.3-0.3,0.4c-0.3,0.3-0.4,0.3-0.4,0.3s0.6-0.8,0.6-0.8c0-0.1-0.3,0-0.6,0c-0.3,0-0.3,0-0.5,0.2
		c-0.1,0.2-0.2,0.2-0.2,0.2l0.3-0.4c0,0,0.5-0.1,0.6-0.2c0.2-0.1,0.4,0,0.6-0.1c0.1-0.1,0.3,0,0.4-0.1c0.1-0.1,0.2-0.2,0.1-0.2
		c-0.1,0,0.1,0-0.5,0c-0.4,0-0.5-0.1-0.8,0.1c-0.2,0.1-0.3,0.2-0.4,0.2c-0.3,0-0.3,0-0.3,0s0.6-0.3,0.9-0.3c0.2,0,0.4,0,0.6-0.1
		c0.2,0,0.5,0,0.6,0c0.1,0,0.1,0,0.1-0.1c0-0.1,0-0.1,0-0.2c0-0.1-0.2-0.1-0.1-0.1c0.1,0,0.2-0.3,0.3-0.6l0.1-0.3
		c0,0-0.5,0.1-0.8,0.4c-0.2,0.2-0.2,0.2-0.2,0.2s0.1-0.2,0.3-0.4c0.2-0.2,0.4-0.3,0.5-0.3c0.2-0.1,0.2,0,0.2,0
		c0.1-0.3,0.1-0.3,0.1-0.4c0.1-0.1,0.1-0.1,0.1-0.2c0-0.1,0-0.1,0.1-0.2c0.1-0.1,0.1-0.4,0.1-0.6c0-0.2,0.1-0.3,0.2-0.4
		c0.1-0.1,0.2-0.6,0.2-0.8c0-0.2,0.1-0.2,0.2-0.4c0.1-0.2,0.2-0.2,0.1-0.2c0-0.1-0.2-0.3-0.4-0.2c-0.2,0.1-0.2,0.2-0.5,0.3
		c-0.2,0.1-0.1-0.1-0.4,0.1l-0.4,0.3c0,0,0.4-0.4,0.6-0.6c0.2-0.2,0.4-0.2,0.5-0.3c0.2,0,0.2-0.2,0.3-0.1c0.1,0,0.1,0.2,0.2,0.1
		c0.1-0.1,0.2-0.4,0.1-0.5c0-0.1-0.1-0.1-0.2-0.1c-0.1,0-0.3,0-0.5,0c-0.1,0.1-0.2,0.1-0.3,0.1c-0.1,0,0,0,0.2-0.1
		c0.2-0.1,0.6-0.1,0.7-0.2c0.1,0,0.2,0,0.1-0.2c0-0.1,0-0.1-0.2-0.1c-0.2,0.1-0.2,0-0.3,0.1c-0.1,0-0.2,0,0.1-0.1
		c0.3-0.1,0.3-0.1,0.4-0.2c0-0.1,0.2-0.3,0-0.2c-0.1,0-0.2,0-0.2,0c0,0,0,0-0.1,0.1L61,60c-0.1,0.1,0.1-0.1,0.3-0.3
		c0.2-0.2,0.3-0.3,0.5-0.4c0.1-0.1,0.2-0.2,0.2-0.2s0.1-0.2-0.1-0.2c-0.1-0.1-0.1-0.2-0.1-0.4c0-0.1,0-0.4,0-0.7
		c0-0.3-0.1-0.2-0.1-0.2l-0.2,0.5c-0.1,0.1-0.2,0-0.3,0.2c-0.1,0.2-0.1,0.2-0.1,0.5c0,0.4,0,0.4,0,0.5c0,0.1,0-0.3,0-0.7
		c0-0.1,0-0.2,0-0.3c0.1-0.2,0.3-0.2,0.3-0.4c0-0.2,0.3-0.4,0.3-0.6c0-0.2,0-0.2,0-0.2c0-0.1,0-0.4,0-0.4s-0.2,0.4-0.3,0.6
		c-0.1,0.3-0.1,0.5-0.2,0.6c0,0.1,0-0.1,0-0.4c0.1-0.3-0.1-0.2-0.1-0.2s-0.2,0.2-0.2,0.5c-0.1,0.3-0.1,0.1,0-0.1
		c0.1-0.2-0.1,0-0.1,0s0,0-0.1,0.4c0,0.3,0,0.4,0,0.5c0,0-0.1-0.1-0.1-0.4v-0.3c0,0,0.2-0.5,0.3-0.6c0.1-0.2-0.1-0.2-0.2,0
		c-0.1,0.2-0.1,0.2-0.2,0.5c0,0.1,0.2-0.7,0.4-1c0.2-0.3,0.3,0,0.4-0.7c0-0.7,0-0.9,0-0.9s-0.1-0.4-0.1-0.3c0,0.1-0.4,1.4-0.7,1.9
		c-0.3,0.4-0.4,0.5-0.4,0.5s0.6-0.9,0.7-1.5c0.2-0.6,0.3-1,0.4-1.2c0.1-0.2,0.1-0.2,0.1-0.5c-0.1-0.3-0.2,0-0.2,0.2
		c-0.1,0.2-0.4,0.8-0.6,1.4c-0.2,0.5-0.3,1.2-0.4,1.4c0,0.2,0,0,0.1-0.6c0.1-0.5,0.5-1.6,0.6-2c0.2-0.4,0.2-0.6,0.2-0.6
		s-0.4,0.8-0.7,1.5C60,56,60,56,60,56s0.5-1.1,0.6-1.4l0.1-0.2c0,0-0.1-0.1-0.4,0.4c-0.4,0.6-0.5,0.9-0.6,1.1l-0.1,0.2l0.2-0.6
		l1.2-1.9l-1,1.4l0.9-1.4l-0.6,0.8l0.4-1l-0.4,0.5l0.3-0.6l-0.3,0.5c0,0-0.5,0.7-0.7,1.3c-0.2,0.7-0.3,0.8-0.3,0.8s0.4-1.2,0.6-1.7
		c0.2-0.6,0.3-0.4,0.5-0.7c0.2-0.4,0.1-0.3,0.1-0.3s-0.4,0.2-0.7,0.6c-0.3,0.4-0.4,0.6-0.5,0.8c-0.1,0.2-0.1,0.2-0.1,0.2l0.3-0.8
		c0,0-0.2,0.2-0.6,0.6c-0.2,0.2-0.4,0.4-0.4,0.4s0.1-0.1,0.3-0.3c0.4-0.5,1.1-1.2,1.4-1.4c0.3-0.2,0.3-0.2,0.3-0.2s0-0.2,0-0.2
		c0-0.1-0.4,0.1-0.5,0.2l-0.7,0.5c0,0,0,0,0.4-0.4c0.4-0.4,0.8-0.6,0.8-0.6s-0.3-0.1-0.8,0.2c-0.5,0.4-0.6,0.4-0.9,0.8
		c-0.3,0.3,0.1-0.3,0.4-0.6c0.3-0.2,1.2-0.6,1.2-0.6s-0.1-0.7-0.1-0.8c0-0.1,0-0.1,0.1-0.3c0-0.2,0-0.3,0.1-0.5c0-0.1,0-0.4,0-0.6
		c0-0.2,0.2-0.4,0.1-0.5c-0.1-0.2-0.1-0.5-0.2-0.8c-0.1-0.3-0.3-0.3-0.3-0.3s-0.1,0-0.1,0.1c0,0.1,0.2,1.1,0.2,1.1l-0.3-1L60,49.6
		c0,0,0.1-0.8,0.1-1c0-0.2,0-0.2-0.1-0.3c-0.1,0-0.3,0.1-0.3,0.1s-0.2,0.5,0,1c0.2,0.4,0.4,1.4,0.4,1.4L59.6,49c0,0-0.1,0.2-0.2,1
		l-0.1,1c0,0,0-0.9,0-1.3c0-0.4,0.2-1,0.1-1.2l-0.2,0c0,0,0.1,0.2,0,0.5c0,0.1,0,0.1-0.1,0.4c-0.1,0.3,0-0.1,0-0.4
		c0-0.2,0.1-0.5,0.1-0.5l-0.2,0c0,0-0.5,1.4-0.5,1.2c0-0.1,0.4-1.2,0.4-1.2l-0.2,0l-0.3,1.1c0,0,0.4-1.2,0.2-1.1c-0.2,0,0,0.2,0,0.2
		L58,50.1l0.2-0.4c0.2-0.4,0.4-1.3,0.4-1.3l-0.3,0c0,0-0.1,0.1-0.3,0.8c0-0.1,0-0.8,0-0.8h-0.1L57.8,49l-0.1-0.7l-0.1,0.8l0-0.8
		l-0.2,1.1v-1.1L57.2,50l0.1-1.7c-0.1,0-0.2,1.6-0.2,1.4c0-0.2,0-1.4,0-1.4l-0.1,0c0,0,0,0.1-0.1,0.3L56.2,50c0,0,0,0,0.2-0.6
		c0.2-0.6,0.4-1.2,0.4-1.2s-0.1-0.1-0.2,0c-0.1,0-0.6,1.2-0.6,1.2l0.6-1.2c-0.1,0-0.7,1.4-0.6,1.1c0.1-0.3,0.4-1.1,0.4-1.1l-0.2,0
		c0,0-0.2,0.7-0.2,0.6c0-0.1,0.1-0.6,0-0.6c0-0.1,0,0-0.1,0.2c-0.1,0.2-0.4,0.9-0.4,0.9s0.1-0.2,0.2-0.4c0.1-0.3,0.2-0.7,0.2-0.7
		c-0.2,0-0.2,0-0.3,0.1c-0.1,0.2-0.1,0.4-0.3,0.6c-0.1,0.2-0.4,1-0.4,0.8c0-0.2,0.2-0.6,0.4-1.1c0.2-0.5,0-0.6,0-0.6s-0.3-0.1-0.3,0
		c0,0-0.1,0.4-0.2,0.7c-0.2,0.4-0.4,0.7-0.3,0.6c0.2-0.2,0.4-1.3,0.4-1.3l-0.1,0.2c-0.1,0.1-1,1.8-0.6,0.8c0.1-0.3,0.6-1,0.6-1
		s0-0.1-0.1-0.1c-0.1,0-0.2,0-0.2,0L53.8,49l0.7-1.5l-1,1.4l1-1.4l-1.8,2.7l1.6-2.8c0,0,0-0.1-0.1-0.1c-0.1,0-0.5,0.7-0.5,0.7
		l0.4-0.7l-1.2,1.2l0.9-1.1l0.1-0.2l-0.7,0.3l0.6-0.4L53.4,47L53,47.3l0.3-0.3L53,46.9l-0.4,0.9l0.3-0.9l-0.4-0.1c0,0-0.1,0-0.1,0.3
		c0,0.3,0,0.9,0,0.9v-0.2c0-0.2,0-0.4,0-0.4L52,47.9c0,0,0,0,0.2-0.3c0.1-0.3,0.2-1,0.2-1s-0.2-0.1-0.4,0c-0.2,0.1-0.1,0-0.2,0.4
		c-0.1,0.2-0.1,0.4-0.2,0.6c-0.1,0.2-0.2,0.3-0.2,0.3s0.1-0.1,0.2-0.4c0.1-0.4,0.1-0.8,0.1-0.8s-0.3,0-0.4,0.2
		c-0.1,0.2-0.1,0.3-0.1,0.4c0,0.1,0,0.1-0.1,0.2c0,0.1-0.5,1.3-0.5,1.3l0.1-0.3c0.1-0.2,0.2-0.6,0.2-0.9c0-0.1,0.1-0.3,0.1-0.3
		l-0.1,0.1L51,47.6l-0.1,0.2l-0.1,0.1l0,0.2l-0.1,0v0.9l-0.1-0.6c0,0,0,0-0.1,0.1c-0.1,0.1-0.1,0.1-0.1,0.1l0.1,0.9
		c0,0-0.1-0.7-0.1-0.6c0,0.1-0.1,0.1-0.2,0.2c-0.1,0.1,0,0.2,0,0.2l0.2,0.9L50,49.5c0,0-0.1,0-0.2,0c-0.1,0-0.1,0.1-0.2,0.2
		c0,0.1,0,0.1,0,0.2c0,0.1,0,0.1-0.1,0.2c-0.1,0.1-0.1,0.2-0.1,0.2c0,0.1-0.1,0.1-0.2,0.1c0,0,0,0.3,0,0.3l-0.1,1l0-1
		c0,0-0.1-0.2-0.1,0c0,0.2-0.1,0.3-0.1,0.3l-0.1,0.1c-0.1,0.1,0,0-0.1,0c-0.1,0-0.1,0-0.1,0.1c0,0.1,0.2,0.6,0.2,0.6l-0.2-0.5
		c-0.1,0-0.2,0-0.2,0.1c0,0.1,0.1,0.7,0.1,0.7l-0.1-0.6l-0.2,0.1c-0.1,0.1-0.1,0-0.1,0.1c0,0.1,0.1,0.5,0.1,0.5L48,52c0,0,0,0-0.1,0
		c-0.1,0-0.3,0.2-0.3,0.3c0,0.1,0.1,1,0.1,1l-0.1-0.8l-0.1,0v0.8l-0.1-0.7l-0.2,0.1l0,1.2l-0.1-1.1c0,0-0.1,0-0.2,0.2
		c0,0.2,0.1,1,0.1,1l-0.2-0.9c0,0,0,0-0.1,0.1c-0.1,0.1-0.1,0.1-0.1,0.2c0,0-0.1,0.1-0.2,0.2c-0.1,0.1-0.1,0.1-0.2,0.2
		c0,0.1,0.2,0.4,0.2,0.6c0,0.1,0.1,0.4,0,0.4c-0.1,0.1-0.1,0.6-0.1,0.6V55c0-0.2,0-0.3,0.1-0.4c0-0.2,0-0.2-0.1-0.4l-0.1-0.5
		c-0.1,0.1-0.2,0.1-0.2,0.2C45.9,54,46,54,46,54.1c0,0.1-0.1,0.1-0.1,0.1c-0.1,0.2-0.2,0.2-0.2,0.2l0,0.2c0,0.2-0.1,0.7-0.1,0.8
		l-0.3,0.7c0,0,0,0,0.2-0.7c0.1-0.2,0.1-0.4,0.1-0.5c0-0.3,0-0.4,0-0.4s0,0.1-0.1,0.2c-0.1,0.2-0.1,0.2-0.2,0.4
		c-0.2,0.1-0.1,0.1-0.1,0.2c0,0.1-0.1,0.2-0.2,0.3c-0.1,0.1-0.3,0.4-0.5,0.6c-0.2,0.2-0.3,0.4-0.3,0.4s0,0.2-0.1,0.3
		c0,0.2,0.3,0.7,0.3,0.7L44,57l-0.2,0l0,0.3l-0.1,0.1l0,0.8l0-0.8c-0.2,0-0.2,0.2-0.2,0.2l-0.1,1.1c0,0,0.1-0.3,0.1-0.5
		c0-0.2,0-0.5,0-0.5l-0.2,0l-0.1,0.5L43,58.4v0.2c0,0.2,0.1,0.9,0.1,0.9L43,58.8l0,0.5l-0.1-0.4c0,0-0.1,0.1-0.1,0.2
		c0,0,0,0.1-0.1,0.2l-0.3,0.7l0.1,0.5L42.2,60c0,0-0.1,0.1-0.2,0.2c-0.1,0.1,0,0-0.1,0.1c-0.1,0.1,0,0.1,0.1,0.3
		c0.1,0.2,0,0.6,0,0.6s0,0,0-0.2c0-0.3-0.1-0.4-0.1-0.4s-0.1,0.5-0.1,0.6v0.2v1c0,0-0.1-0.9-0.1-1c0-0.2-0.1-0.2-0.1-0.2
		s-0.2,0.3-0.2,0.6c-0.1,0.3-0.2,0.4-0.2,0.5c0,0-0.2,0.3-0.2,0.3v-0.2c0,0-0.1-0.1-0.2,0c-0.1,0.1-0.2,0.1-0.2,0.1l0-0.3l-0.2,0.1
		l-0.1,0.2c-0.1,0.2-0.2,0.4-0.2,0.4l0-0.5l-0.1,0L40,63.1l-0.1-0.6c-0.1,0-0.2,0-0.4,0.2c-0.2,0.1-0.2,0.2-0.3,0.3
		c-0.1,0.1-0.1,0.1-0.1,0.2c0,0.1,0,0.1-0.2,0.1c-0.1,0-0.1,0.2-0.1,0.3c0,0.1,0.2,0.4,0.2,0.4l-0.2-0.4c0,0-0.1,0.1,0,0.2
		c0,0.1,0.2,0.4,0.2,0.4l-0.3-0.4c0,0-0.1,0.2-0.1,0.2c0,0.1,0,0.2,0,0.2c0,0,0.1,0.1,0.1,0.2c0.1,0.2,0.2,0.8,0.2,0.8
		s-0.1-0.3-0.2-0.5c0-0.1-0.2-0.2-0.2-0.2l0.1,0.4l-0.2-0.3l0.1,0.7c0,0-0.1-0.2-0.1-0.3c0-0.1-0.1-0.1-0.1-0.2l-0.1-0.2
		c0,0,0,0.2,0,0.3c0,0.1,0.1,0.4,0.1,0.4l0,0.6c0,0,0-0.2,0-0.3c0-0.1-0.1-0.5-0.1-0.6c0-0.1-0.1-0.3-0.1-0.3h0
		c-0.1,0.1-0.1,0.1-0.1,0.3c0,0.2,0,0.4-0.1,0.5c-0.2,0.1,0,0,0,0.2c0,0.2,0,0.1-0.2,0.1c-0.1,0-0.1,0-0.2,0.2
		c-0.1,0.2-0.8,1.3-1.4,2.1c-0.2,0.3-0.8,1.1-1.4,1.8c-0.9,1-1.8,2-2.1,2.2c-0.4,0.4-1.3,1-1.5,1.2c-0.2,0.3-0.2,0.2-0.2,0.2l0,0.4
		c0,0,0-0.5-0.1-0.7c0-0.2,0-0.1-0.2,0c-0.1,0.1-0.1,0.1-0.1,0c0-0.2,0-0.2-0.2-0.1c-0.2,0.1-0.2,0.2-0.1,0.4
		c0.1,0.1,0.3,0.5,0.3,0.7c0,0.2,0.1,0.3,0.1,0.3s-0.2-0.2-0.3-0.5c-0.1-0.3-0.2-0.2-0.2-0.2s0,0.2,0,0.3c0,0,0,0.1,0.1,0.4
		c0.1,0.3,0.2,1,0.2,1l0-0.3c0-0.3-0.2-0.5-0.3-0.8c-0.1-0.3-0.2-0.2-0.2-0.2c0,0.2,0,0.4-0.1,0.3c-0.1,0,0.1,0.6,0.2,1.1
		c0.1,0.5,0.5,0.9,0.5,0.9l-0.4-0.7l0,0.5c0,0-0.3-1-0.4-1.4c0-0.4-0.1-0.5-0.1-0.5s-0.1,0-0.1,0.2c0,0.1-0.2,0.1-0.2,0.3
		c-0.1,0.1,0,0.1-0.2,0.1c-0.1,0-0.1,0-0.1,0.2c0,0.1,0,0.4-0.1,0.6c0,0.2-0.1,0.3-0.1,0.2c0,0,0.1-0.3,0.1-0.4c0-0.2,0-0.3,0-0.3
		c-0.2,0.1-0.5,0.5-0.5,0.5l0,0.6L28.5,76c0,0-0.5,0.4-0.7,0.6c-0.2,0.2-0.3,0.2-0.5,0.4c-0.2,0.1-0.5,0.3-0.6,0.4
		c-0.1,0.1-0.1,0.1-0.2,0.2c-0.1,0.1,0,0-0.2,0.3c-0.2,0.2-0.8,0.6-0.9,0.7c-0.1,0.1-0.5,0.5-0.5,0.5c0.1-0.1,0.3-0.4,0.3-0.4
		s-0.1,0-0.3,0.1c0,0-0.3,0.3-1.1,0.4c-0.4,0-1.4,0-1.5,0c-0.1,0-0.2-0.1-0.2-0.1l-0.1-0.3c0-0.2-0.2-0.2-0.2-0.2
		c-0.1,0-0.1-0.1,0-0.3c0-0.2,0-0.2,0-0.4c0-0.2,0.1-0.4,0.2-0.6c0-0.2,0-0.3,0-0.4c0-0.1,0-0.1,0-0.2c0-0.1,0.2,0,0.2-0.2
		c0-0.1,0.1-0.2,0.2-0.2c0.1,0,0.1-0.1,0.1-0.2c0-0.1,0.1-0.1,0.2-0.3c0.1-0.2,0.1-0.2,0.2-0.4c0.2-0.2,0.4-0.2,0.5-0.3
		c0.1-0.1,0.1-0.1,0.4-0.2c0.2,0,0.3-0.1,0.3-0.2c0-0.1,0-0.1,0.2-0.2c0.2-0.1,0.2-0.1,0.1-0.2c-0.2-0.1,0.1-0.1,0-0.2
		c-0.1-0.1-0.4-0.4-0.6-0.5c-0.2-0.1-0.4-0.1-0.5-0.2c-0.3,0-0.3,0,0,0c0.2,0,0.4,0,0.6,0.2c0.2,0.1,0.4,0.3,0.4,0.3
		c0.1,0.1,0.1,0.1,0.2,0c0.1-0.1,0.3-0.1,0.3-0.1s0-0.1,0.1-0.1c0.2,0,0.2,0,0.3-0.1c0.1-0.1,0,0,0.2,0c0.1,0,0.3-0.1,0.4-0.2
		c0.1-0.1,0.2-0.2,0.2-0.2s0,0-0.2,0c-0.2,0-0.6-0.1-0.9-0.2l-1-0.1c0,0,0.2-0.1,1,0c0.2,0,0.6,0.1,0.7,0.1c0.4,0,0.4,0,0.5,0
		c0.2,0,0.5-0.2,0.5-0.3c0-0.1-0.2-0.2-0.3-0.2c-0.1,0-0.3-0.1-0.3-0.1s0.1,0,0.3,0c0.1,0,0.3,0,0.4,0.1c0.1,0,0,0.1,0.1,0.1
		c0.2,0.1,0.1-0.2,0.2-0.2c0.1,0,0.1,0,0.2-0.1c0.1-0.1,0.3,0,0.4-0.1c0.1,0,0-0.2,0.1-0.2c0.1,0.1,0.1,0,0.1,0c0,0,0.1-0.2,0-0.2
		c-0.1,0-0.1,0-0.2-0.1c-0.1-0.1-0.2-0.1-0.4-0.2c-0.2-0.1-0.9-0.6-0.9-0.6s0.3,0.2,0.5,0.3c0.4,0.2,0.8,0.4,0.8,0.4
		c0-0.2-0.9-1.1-0.9-1.1c0.1,0.1,0.5,0.4,0.7,0.6c0.1,0.1,0.4,0.5,0.4,0.4c0.1,0.1,0.1,0.1,0.2,0.2s0.2,0,0.2-0.1
		c0-0.2,0.1-0.1,0.1-0.3c0-0.2,0-0.2-0.1-0.2h-0.2c0,0,0.2,0,0.3-0.1c0.1,0,0.1,0,0-0.2c0-0.2,0-0.1,0.1-0.2
		c0.1-0.1,0.1-0.1,0.2-0.3c0.1-0.3,0.1-0.2-0.3,0c-0.4,0.2-0.7,0.5-0.7,0.5s0,0,0.2-0.3c0.2-0.2,0.8-0.4,0.8-0.4s0,0,0.2,0
		c0.2,0,0,0,0.1-0.2c0-0.1,0.2-0.1,0.3-0.2c0.1-0.1,0-0.2-0.4-0.1c-0.5,0.2-1.1,0.5-1.1,0.5s0.1-0.1,0.6-0.3
		c0.5-0.3,0.8-0.3,0.8-0.3c0.1,0,0.2,0,0.3-0.1c0.1-0.1,0.2-0.1,0.2-0.2c0.1-0.1,0,0,0.1,0c0.1,0,0.1,0,0.1-0.2
		c0-0.1,0.1-0.2,0.2-0.1c0.1,0,0.1-0.1,0.1-0.2c0-0.1-0.3-0.1-0.6-0.1c-0.4,0-1,0.1-1,0.1l0.4,0c0.2,0,0.3-0.1,0.5-0.1
		c0.3,0,0.6,0,0.6,0s0.2-0.1,0.4-0.2c0.2-0.1,0.2-0.2,0.1-0.3c0-0.1-0.1,0-0.3-0.1l-0.5-0.1c0,0,0.1,0,0.3,0c0.2,0,0.6,0.1,0.6,0
		c0-0.1,0.3,0,0.2-0.1c0,0-0.1-0.1-0.2-0.1c-0.1,0-0.3,0-0.5,0c-0.3,0-0.6,0-0.6,0s0,0,0.4,0l0.8,0c0,0,0.2,0,0.2,0
		c0.2,0,0.2,0,0.2-0.1c0,0,0.1-0.1,0.1-0.1s-0.4,0-0.8,0c-0.4,0.1-1,0.3-1,0.3l0.3-0.2c0.2-0.1,1-0.2,0.8-0.2
		c-0.2,0,0.8-0.1,0.9-0.1c0.2,0,0.2-0.2,0.2-0.3c0-0.1,0.2-0.1,0.3-0.2c0-0.1,0.2-0.1,0.2-0.2c-0.1-0.2-0.9-0.2-1.2-0.1
		c-0.3,0.1-0.4,0.2-0.6,0.2c-0.1,0-0.5,0-0.7,0c-0.2,0-0.3,0.1-0.5,0.1c-0.3,0-0.6,0.1-0.4,0c0.2-0.1,0.6-0.2,1.8-0.4
		c0.4-0.1,0.5-0.1,0.7-0.1c0.4,0,0.7,0.1,0.8,0.1c0.2,0,0.3,0.1,0.3,0c0-0.1,0.1-0.2,0.2-0.2c-0.2-0.1-0.4-0.2-0.8-0.3
		c-0.4-0.1-2.1-0.4-2.1-0.4l0.5,0c0.5,0,2.3,0.4,2.5,0.3c0.1,0,0.2-0.2,0.1-0.3c-0.1,0-1-0.3-1.2-0.4c-0.2,0-0.4-0.1-0.4-0.1
		s1.5,0.4,1.7,0.5c0.2,0.1,0.2,0,0.1-0.1c-0.1-0.1-1.6-0.8-1.7-0.9c-0.1-0.1-0.2-0.2-0.2-0.2s1.8,0.9,2,1c0.2,0.1,0.2-0.1,0.2-0.2
		c0-0.1-0.9-0.4-0.8-0.4c0.1,0,0.7,0.3,0.9,0.3c0.2,0,0.2,0,0.2-0.1c0-0.1-0.3-0.1-0.4-0.2c-0.1,0-0.7-0.3-1-0.4
		c-0.2-0.1-0.4-0.2-0.4-0.2l0.2,0.1c-0.1,0,1.6,0.7,1.7,0.7l0.2-0.2c0,0-0.1,0-0.4-0.1c-0.2,0-0.4-0.4-0.4-0.4s0-0.1,0.2,0.1
		c0.2,0.2,0.4,0.2,0.4,0.2s0.2,0,0.4-0.1c0.2-0.1,0.7-0.8,0.8-0.9c0.1-0.2,0.2-0.2,0.2-0.3c0-0.1-0.1-0.1-0.3-0.2
		c-0.2-0.1-0.2-0.1-0.5-0.1c-0.3,0-0.4-0.1-0.4-0.1s0.4,0,0.6,0c0.3,0,0.5,0.2,0.6,0.2c0.1,0,0.2,0,0.2-0.1c0-0.1,0-0.1,0.1-0.1
		c0.1-0.2,0.1-0.2,0.2-0.2c0.1-0.1,0.1-0.3,0.1-0.4c0-0.1,0.1-0.4,0.1-0.5c0,0,0,0,0.2,0c0.1-0.1,0.2-0.3,0-0.3
		c-0.1,0-0.1,0-0.4-0.1c-0.3,0-0.9-0.1-0.9-0.1s0,0,0.4,0c0.3,0,0.7,0,1-0.1c0.2,0,0.3,0.1,0.5-0.1c0.1-0.1,0-0.2,0-0.5
		c0-0.2,0.1-0.4,0.2-0.5c0.1-0.1,0.2-0.2,0.1-0.3c-0.1-0.1-0.5,0.2-0.5,0.2l0.2-0.2c0.2-0.2,0.2-0.1,0.3-0.2
		c0.1-0.1,0.2-0.2,0.2-0.3c0.1-0.1,0.2-0.3,0.1-0.3c0-0.1-0.2,0-0.5,0.1c-0.2,0.1-0.6,0.2-0.3,0c0.3-0.2,0.8-0.3,0.9-0.3
		c0.1,0,0.2-0.3,0.3-0.3c0.1,0,0.2-0.2,0.1-0.3c-0.1-0.1-0.3,0-0.5,0.1c-0.2,0.1-0.7,0.4-0.8,0.4c-0.2,0,0.2-0.1,0.6-0.4
		c0.4-0.3,0.2-0.1,0.4-0.2c0.2,0,0.2,0,0.4-0.1c0.2,0,0.3-0.2,0.3-0.3c0-0.1,0.2-0.3,0.3-0.3c0.1,0,0,0,0-0.1
		c0.2-0.1,0.2-0.2,0.1-0.2c-0.1-0.1-0.2,0-0.2-0.1c0-0.1-0.3-0.2-0.3-0.2s0,0,0.1,0.1c0.1,0.1,0.2,0.1,0.3,0.1c0.1,0,0.2,0,0.2,0
		C39,57.3,39,57.1,39,57c0-0.1,0-0.2,0.2-0.2c0.1,0,0.1-0.1,0-0.2c0-0.2,0-0.1,0.1-0.1c0.2,0,0.1-0.2,0.1-0.2
		c0.1-0.2,0.1-0.1,0.2-0.2c0.1-0.1,0.2-0.3,0.2-0.3s-0.2,0-0.3,0c-0.1,0-0.1,0-0.1,0.1c-0.2,0.1-0.2,0.1-0.2,0.2c0,0.1,0,0-0.1,0.1
		c-0.1,0-0.3,0.2-0.4,0.2c-0.1,0-0.2,0-0.2,0.1c-0.1,0.1-0.3,0.2-0.4,0.4c-0.2,0.2-0.4,0.2-0.4,0.2s0,0,0.1-0.1
		c0.1-0.1,0.3-0.4,0.5-0.5c0.2-0.2,0.3-0.1,0.4-0.1c0.1,0,0.2-0.1,0.3-0.2c0.2-0.1,0.2-0.1,0.3-0.1c0.1,0,0.1-0.1,0.1-0.2
		c0-0.1,0.2,0,0.3-0.1c0.1,0,0.1-0.1,0.2-0.2c0.1-0.1,0-0.1,0.1-0.2c0-0.1,0.1-0.1,0.2-0.2c0-0.1,0-0.2,0-0.2
		c-0.1,0-0.2,0.1-0.4,0.2c-0.2,0.1-0.3,0.2-0.4,0.3c-0.2,0.1-0.3,0.1-0.3,0c0.1,0,0.1-0.1,0.4-0.2c0.2-0.2,0.1-0.1,0.3-0.1
		c0,0,0.3-0.1,0.3-0.1c0.1-0.1,0.2,0,0.3-0.1c0.1-0.1,0.2-0.4,0.2-0.4s-0.2-0.1-0.3-0.1c-0.2,0-0.2,0-0.5,0.1c-0.2,0-0.4,0-0.4,0
		s0.3-0.1,0.5-0.2c0.2,0,0.5,0,0.6,0c0.1,0,0.2,0,0.2,0c0,0,0.1-0.1,0.1-0.1c0,0,0.1-0.1,0.1-0.2c0.1-0.1,0-0.2,0.2-0.3
		c0.2-0.1,0.3-0.3,0.3-0.4c0-0.1-0.1-0.1-0.2-0.1c-0.1,0,0,0-0.2,0c-0.2,0-1,0-1,0c0-0.1,0-0.1,0.3-0.1c0.3,0,0.6,0,0.8-0.1
		c0.2,0,0.4,0.2,0.4,0.1c0,0,0.1-0.1,0.1-0.2c0.2,0,0.2-0.2,0.2-0.2s-0.1-0.1-0.2-0.1c-0.1,0-0.3,0-0.4,0c-0.1-0.1-0.2-0.3-0.2-0.5
		c-0.1-0.2,0.1,0,0.2,0.3c0.1,0.3,0.3,0.2,0.3,0.1c0.1,0,0.2,0,0.2,0c0.1,0,0.1-0.1,0.1-0.2c0-0.1,0.1,0,0.2-0.1
		c0-0.2,0-0.1,0.1-0.2c0.1,0,0.2-0.3,0.2-0.3s-0.4,0-0.7,0c-0.4,0-0.7,0-0.7,0s0.4-0.1,0.8-0.2c0.4-0.1,0.7,0,0.7,0l0.2-0.2h-0.2
		c0-0.1,0.2-0.1,0.3-0.1c0.1,0,0.2-0.2,0.2-0.3c0-0.1,0.1,0,0.2-0.1c0.1,0,0.1-0.2,0.1-0.2s0,0-0.3,0c-0.2,0-0.2-0.1-0.2-0.1
		s0.6,0,0.6,0c0,0,0,0,0.1,0c0.1-0.1,0.1-0.1,0-0.2c0.2-0.1,0.1-0.2,0.1-0.2c0,0,0.1-0.1,0.1-0.2c0-0.1,0.1-0.2,0.1-0.2
		c-0.1,0-0.2-0.1-0.2,0c0,0,0,0.2,0,0.2c0,0-0.2,0-0.2,0s0,0.1-0.2,0.2c-0.2,0-0.1,0-0.2,0c-0.1,0-0.2,0-0.2-0.1
		c0-0.1-0.2-0.1-0.4-0.1c-0.2,0-0.3-0.1-0.3-0.1s0.1,0,0.2,0c0.2,0,0.3,0,0.4,0c0.1,0,0.1,0.1,0.2,0.1c0,0,0.1,0.1,0.1,0
		c0,0,0.1-0.2,0.1-0.2s0.1,0,0.3,0c0.1,0,0.1-0.2,0.1-0.2l0.4,0c0.2,0,0.2-0.1,0.2-0.2c0-0.1,0-0.1,0-0.2c0-0.2-0.1-0.2,0-0.3
		c0.1,0,0-0.2,0-0.2s-0.2,0-0.3,0c-0.1,0-0.2,0-0.3-0.1c-0.1-0.1-0.2-0.1-0.3,0c-0.1,0.1-0.2,0.2-0.2,0.2l0.2-0.4h0.2
		c0.1,0,0.2,0.2,0.2,0.2l0.3,0c0,0,0-0.2,0-0.3c0,0,0-0.1,0.1-0.1c0.1,0,0.2,0,0.2-0.2c0-0.1,0-0.2-0.2-0.1
		c-0.2,0.1-0.3,0.3-0.3,0.3s-0.1-0.2,0.2-0.3c0.2-0.1,0.4-0.2,0.4-0.2l0-0.3c0,0-0.1,0-0.3,0c-0.2,0-0.6,0-0.6,0s0.2,0,0.5,0
		c0.3,0,0.5,0,0.5,0c0.1-0.2,0-0.2,0-0.2c0,0,0.1-0.1,0.2-0.1c0.1,0,0.1-0.2,0.1-0.2l0.2-0.1c0,0,0-0.3,0-0.4c0-0.1,0-0.1,0.2-0.1
		c0.1-0.1,0.1,0,0.1-0.2c0.2-0.1,0.2-0.3,0.2-0.3c0-0.1,0,0-0.2-0.1c-0.1,0-0.1,0-0.2,0c-0.1,0.1-0.3,0.2-0.3,0.2l0.1-0.1
		c0.1-0.1,0.1-0.2,0.2-0.2c0.1,0,0.2,0,0.4,0s0.2,0,0.2-0.1c0.1-0.2,0.2-0.3,0.2-0.4c0-0.1,0,0,0.2-0.1c0.1-0.1,0.1-0.2,0.1-0.3
		s0,0,0.2-0.1c0.1,0,0,0,0.1-0.1c0-0.1,0.1-0.1,0.1-0.1c0,0,0.1-0.1,0.2-0.3c0-0.1,0-0.1,0.2-0.1c0.1,0,0.2-0.3,0.2-0.3
		c0,0,0,0,0.2-0.1c0.2-0.1,0.2-0.2,0.2-0.2c0-0.1,0-0.1,0.1-0.1c0.1,0,0.1-0.1,0.1-0.2c0-0.1,0-0.1,0.2-0.1s0.2-0.2,0.1-0.3
		c-0.1-0.1-0.5,0-0.5,0s0,0,0.2-0.1c0.2,0,0.4,0,0.5,0c0.1,0,0.2-0.1,0.2-0.1l0.4-0.1c0,0,0.1-0.3-0.2-0.3c-0.3,0-0.7,0.1-0.9,0.2
		C47.2,43,46.9,43.1,47,43c0.1-0.1,0.3-0.2,0.8-0.3c0.3,0,0.4-0.1,0.5-0.1c0.1,0,0.1,0,0.2,0c0.1,0,0.1,0.1,0.2,0.1
		c0.1,0,0.2-0.1,0.3-0.2c0.2-0.2,0.1-0.4,0.2-0.4c0,0,0.1,0.1,0.2,0c0-0.1,0.1-0.2,0.2-0.3c0.1-0.1,0.3-0.1,0.5-0.2
		c0.2-0.1,0.1,0,0.3-0.2c0.2-0.2,0.3-0.2,0.6-0.3c0.3-0.1,0.7-0.3,0.9-0.4c0.2-0.1,0.2-0.1,0.4-0.1c0.2,0,0.1-0.1,0.3-0.2
		c0.2,0,0.7-0.1,0.8-0.2c0.1-0.1,0.1,0,0.2,0c0.1,0,0,0,0.1-0.1c0-0.1,0.1,0,0.3,0.1c0.1,0.1,0.2,0,0.4,0.1c0.2,0.1,0.2,0,0.3,0
		c0-0.1,0.1-0.1,0.1-0.1s0,0.1,0.1,0.2c0.1,0.1,0.3,0.1,0.4,0c0.1,0,0.2,0,0.3,0c0.2,0,0.3,0.2,0.6,0.2c0.3,0,1.2,0.6,1.6,0.9
		c0.4,0.3,0.9,0.6,1.4,0.5c0.6-0.1,1-0.4,1-0.7c0.1-0.3-0.2-0.6-0.2-0.6s-0.5,0-0.5-0.1c0-0.1-0.1-0.3-0.3-0.3c-0.2-0.1-0.6,0-0.9,0
		c-0.1,0-0.3,0.1-0.9,0.1c-0.5,0-1.4-0.1-1.3-0.1c0.1,0-0.2-0.1-0.2-0.1l-0.2-0.1l-0.3-0.2l-0.1,0.2c0,0,0-0.1,0-0.2s-0.1-0.1-0.2,0
		c-0.1-0.1-0.3-0.2-0.4-0.2l-0.2,0l-0.3,0.2l0.1-0.2l0-0.1L54.2,40l0-0.2c0,0-0.1-0.2-0.2-0.1c-0.1,0-0.1,0.3-0.1,0.3s0-0.3,0-0.4
		c0-0.1-0.2-0.1-0.2-0.1s-0.3,0.6-0.2,0.4c0-0.2,0.1-0.5,0.1-0.5l-0.2-0.2c0,0-0.2,0.3-0.3,0.4c-0.1,0.1-0.2,0.1-0.3,0.2l-0.4,0.3
		c0,0,0,0,0.1-0.1c0.1-0.1,0.4-0.3,0.6-0.4c0.2-0.2,0.3-0.3,0.1-0.3c-0.2,0-0.2-0.2-0.3-0.1c-0.1,0.1-0.2,0.3-0.2,0.3
		c0,0.1-0.8,0.7-0.8,0.7l0.2-0.2c0.2-0.2,0.6-0.6,0.6-0.6s-0.1,0-0.3,0.1c-0.2,0.1-0.3,0.1-0.3,0.1s0,0,0.4-0.2
		c0.3-0.2,0.4-0.3,0.4-0.3s-0.2-0.2-0.4-0.1c-0.1,0-0.6,0.4-0.6,0.4l0.5-0.4c0,0,0-0.1-0.2-0.1c-0.2,0-0.1-0.1-0.2-0.1
		c-0.1,0-0.1,0-0.2,0.1c-0.1,0.1-0.4,0.4-0.5,0.5c-0.2,0.1-0.5,0.1-0.5,0.1s0.2,0,0.6-0.3c0.2-0.1,0.5-0.5,0.4-0.4
		c-0.1,0.1,0.1-0.2,0.1-0.2c-0.1-0.1-0.3-0.2-0.5-0.1c-0.2,0.1-0.1,0.2-0.3,0.4c-0.2,0.2-0.8,0.6-0.8,0.6l0.6-0.4
		c0.3-0.2,0.3-0.4,0.3-0.4c0-0.1,0.1-0.2,0.1-0.2s-0.3,0.2-0.4,0.3c-0.2,0.1-0.5,0.2-0.5,0.2l0.2-0.1c0.2-0.1,0.5-0.2,0.6-0.4
		c0.1-0.2,0-0.2,0-0.2c0,0,0,0-0.2-0.1c-0.2-0.1-0.1,0-0.1,0s-0.2,0-0.5,0.2c-0.2,0.1-0.6,0.4-0.6,0.4l0.3-0.2
		c0.2-0.2,0.7-0.3,0.7-0.3c-0.2-0.1-0.3-0.2-0.4-0.1c0,0-0.2,0.1-0.2,0.1c-0.1,0.1-0.2,0.2-0.4,0.2c-0.2,0.1-0.5,0.1-0.5,0.1
		s0,0,0.4-0.1c0.1,0,0.1-0.1,0.2-0.2c0.2-0.1,0.4-0.3,0.4-0.3c-0.2,0-0.2-0.1-0.2-0.1c0-0.1-0.1-0.1-0.4,0c-0.4,0.1-0.5,0.5-0.5,0.5
		s0-0.1,0.1-0.3c0.1-0.1,0.1-0.1,0.3-0.2c0.1-0.1,0.3-0.2,0.3-0.2s0.2,0,0.1-0.1c-0.1,0-0.1-0.1-0.2-0.1c-0.1,0-0.2-0.1-0.2-0.1
		s-0.4,0.4-0.6,0.6c-0.2,0.3-0.4,0.4-0.6,0.5c-0.1,0.1-0.3,0.4-0.5,0.5c-0.2,0.1-0.5,0.2-0.5,0.2s0,0,0.4-0.2
		c0.4-0.2,0.4-0.4,0.6-0.7c0.2-0.2,1-1,1-1c0-0.2-0.2-0.3-0.3-0.3c-0.1,0-1.4,0.6-1.4,0.6s0,0,0.4-0.2c0.4-0.2,0.4-0.2,0.5-0.3
		c0.1,0,0.4-0.1,0.4-0.3c0-0.1,0-0.1-0.1-0.1s-0.1,0-0.2-0.1c-0.2,0-0.2,0.1-0.4,0.2c-0.2,0.1-1.2,0.4-1.2,0.4s0,0,0.2-0.1
		c0.2-0.1,0.5-0.2,0.5-0.2s1-0.3,0.8-0.4c-0.2,0-0.1,0-0.1-0.1c0-0.1-0.2,0-0.2,0s-0.8,0.2-1.1,0.2c-0.3,0-0.4,0-0.4,0s0,0,0.6,0
		c0.6,0,0.6-0.1,0.7-0.1c0.1,0,0.2-0.1,0.1-0.1c-0.1,0,0-0.1-0.1-0.2c-0.1-0.1-0.1,0-0.3-0.1c-0.2,0-0.1,0-0.1-0.1
		c0,0,0-0.1-0.2-0.1c-0.2,0-0.1,0-0.2-0.1c0-0.1-0.1-0.1-0.2,0c0,0-0.3,0.2-0.5,0.2c-0.2,0-0.3,0-0.3,0s0.1,0,0.4-0.1
		c0.3-0.1,0.4-0.3,0.4-0.3s-0.2-0.2-0.3-0.2c-0.2,0-0.2,0-0.4,0c-0.2,0-0.5-0.1-0.5-0.1l0.6,0c0,0,0.1-0.1,0-0.1
		c0,0-0.2-0.1-0.4-0.2c-0.2,0-0.3-0.1-0.6-0.1c-0.2,0-0.3-0.1-0.3-0.1l0.3,0.1c0,0,0.1,0,0.3,0.1c0.2,0.1,0.2,0,0.2,0
		c-0.1-0.2-0.3-0.3-0.3-0.3s0.1,0,0.3,0.1c0.2,0,0-0.2,0-0.3c-0.1,0,0,0-0.1,0c-0.1,0-0.3-0.1-0.3-0.2c0-0.1,0-0.1-0.2-0.2
		c-0.1-0.1-0.2-0.1-0.4-0.1c-0.3,0-0.1-0.1-0.1-0.1s0,0.1-0.2,0.2c-0.1,0.2-0.5,0.5-0.5,0.5s0,0,0.2-0.2c0.2-0.2,0.3-0.5,0.3-0.5
		s0,0-0.2,0c-0.2,0-0.3,0-0.4,0c-0.1,0.1,0,0.5,0,0.4c0,0,0-0.4,0-0.4s-0.1,0.1-0.2,0.2c0,0.1,0,0.3,0,0.3s0,0,0-0.2
		c0-0.1,0-0.1-0.1,0c-0.1,0.1,0,0.5,0,0.5l0-0.5c0,0,0,0-0.2,0.1c-0.2,0.1-0.1,0.2-0.1,0.2l0,0.4c0,0,0-0.4-0.1-0.4
		c0,0-0.1,0.1-0.2,0.2c-0.1,0.1-0.3,0.1-0.3,0.1v-0.2c0-0.1-0.2-0.1-0.2,0c0,0.1,0,0.8,0,0.8l0-0.6c0,0-0.2,0.1-0.3,0.2
		c0,0.1-0.1,0.2-0.1,0.2S42,35.6,42,35.6c-0.1,0,0,0-0.1,0.2c0,0.1,0,0.3,0,0.3C41.9,36,41.8,36,41.8,36l-0.1,0.2l0-0.4
		c0,0-0.1,0-0.2,0.2c-0.1,0.2-0.1,0.1-0.2,0c-0.1-0.1-0.2-0.1-0.3,0c0,0.1,0.2,1.1,0.2,1.1l-0.2-1c-0.2,0-0.2,0-0.2-0.1
		c0-0.1-0.2,0.1-0.2,0.1s-0.1,0.1-0.2,0.1c-0.1,0-0.2,0-0.2,0l-0.1,0.4c0,0,0-0.5,0-0.6c0-0.1-0.2,0-0.2,0c-0.1,0.1,0,1,0,1l0-0.9
		c0,0,0-0.1-0.2-0.1c-0.1,0-0.2,0-0.3,0.2c-0.1,0.3-0.1,1.3-0.1,1.3l0-1.4c0,0,0,0-0.2,0.1c-0.2,0-0.3,0-0.4,0.1
		c-0.1,0.1,0,0.9,0,0.9v-0.7c0,0-0.1,0-0.2,0c-0.1,0-0.2,0.1-0.2,0.1l-0.1,1l0-1.2c0,0-0.1,0.1-0.2,0.2c-0.1,0-0.3-0.1-0.3,0.1
		c0,0.2-0.1,0.9-0.1,0.9v-0.9c0,0,0-0.1-0.1,0.2c-0.1,0.2,0,0.7,0,0.7l0-0.7c0,0-0.2-0.1-0.2,0.1c0,0.2-0.2,0.9-0.2,0.9l0.1-0.9
		l-0.3,0.1c0,0.2,0.1,0.6,0.1,0.7c0,0.1-0.2-0.3-0.2-0.3l-0.2,0.8l0.1-0.2c0.1-0.2,0.1-0.8,0.1-0.8s-0.1,0-0.2,0
		c-0.2,0.1-0.2,0.1-0.2,0.2c0,0.2-0.1,1-0.1,1l0-1l-0.1,0c-0.1,0-0.2,0-0.2,0.2c0,0.2-0.1,1-0.1,1l0-1h-0.2c0,0,0,0-0.1,0.2
		c0,0.2,0,0.2,0,0.1c0-0.1-0.1,0-0.3-0.1c-0.2-0.1-0.2,0.2-0.3,0.3c-0.1,0.1-0.1,0.7-0.1,0.7s0-0.3,0-0.4c0-0.1,0-0.2-0.1-0.2
		c-0.1,0-0.1,0-0.2,0.1c0,0.1-0.2,0.1-0.2,0.2c0,0.1-0.2,1-0.2,1l0.1-0.4c0-0.3,0-0.4-0.1-0.6c-0.1-0.2-0.1,0-0.2,0.1
		c-0.1,0.1-0.1,0.1-0.1,0.6c-0.1,0.4-0.2,0.6-0.2,0.4c0.1-0.2,0.1-0.4,0-0.7c0-0.2-0.2,0-0.2,0s0,0.1,0,0.3c0,0.2-0.2,0.4-0.2,0.3
		c0-0.1,0.1-0.4,0.1-0.4s-0.2,0.1-0.3,0.2c-0.1,0.1-0.1,0-0.1,0.1c0,0,0,0-0.1,0.2c-0.1,0.2-0.2,0.4-0.2,0.4s0,0,0.1-0.3
		c0.1-0.3,0-0.3,0-0.3s-0.1-0.1-0.2-0.1c0,0-0.2,0.1-0.2,0.1c0,0.1-0.2,0.4-0.2,0.4s0,0,0-0.1c0-0.1,0.1-0.3,0.1-0.4
		c0-0.1-0.2-0.1-0.3,0c-0.2,0-0.5,0-0.5,0s-0.1-0.1-0.3-0.1c-0.2,0.1-0.2,0.1-0.4,0.1c-0.2,0-0.6,0-0.9,0.1
		c-0.2,0.1-0.4,0.2-0.4,0.2c0,0.1-0.1,0.4-0.1,0.4l0,0.3c0,0,0-0.1-0.1-0.2c-0.1,0-0.2,0.1-0.2,0.1s0.1,0.1,0,0.1
		c-0.1,0.1-0.1,0.5-0.1,0.8c0,0.3,0,0.5,0,0.5s0-0.5,0-0.7c0-0.1,0.2-0.6,0-0.7c-0.1-0.1-0.2,0.1-0.2,0.1S28.1,41,28,41.1
		c-0.1,0.1-0.1,0.1-0.1,0.1s0.3-0.3,0.2-0.5c-0.1-0.2-0.2-0.1-0.2-0.1c-0.1,0.1,0,0-0.1,0.1c-0.1,0.1-0.1,0-0.2,0.1
		c0,0.1-0.2,0.1-0.2,0c0-0.1-0.1,0.2-0.1,0.2s0-0.2,0-0.3c-0.1-0.1-0.2,0-0.2,0c-0.1,0-0.1,0.1-0.2,0.2c0,0.1-0.1,0.1-0.1,0.2
		c0,0.1-0.1,0.2-0.1,0.3c0,0.1-0.1,0.3-0.1,0.3s0-0.3,0.1-0.4c0.1-0.1,0.1-0.1,0.1-0.2c0-0.1-0.1-0.3-0.2-0.2
		c-0.1,0.1-0.1,0.3-0.1,0.3l0-0.1l-0.1,0.1l-0.1,0.3l0-0.3c0,0-0.1-0.2-0.2-0.1c-0.1,0.2-0.1,0.3-0.2,0.3c-0.1,0-0.2,0.2-0.2,0.3
		c0,0,0,0.1-0.2,0.2c-0.1,0-0.4,0.6-0.4,0.6s0-0.1,0-0.2c0-0.1,0.2-0.2,0.2-0.3c0-0.1,0-0.3,0-0.3S25,41.7,25,41.8
		c-0.2,0.1-0.1,0.2-0.2,0.2c-0.1,0-0.2,0.1-0.2,0.1l0,0.4c0,0,0-0.4-0.1-0.4c-0.1,0-0.1,0-0.1,0c-0.1,0-0.2,0-0.3,0.1
		c-0.1,0.1,0,0.3,0,0.4L24,43.2c0,0,0.1-0.6,0-0.7c-0.1-0.1-0.3,0-0.3,0.1c0,0.1,0.1,0.2-0.1,0.2c-0.1,0-0.1,0-0.2,0.1
		c0,0.1-0.2,0.3-0.2,0.3l0.2,1c0,0-0.2-0.8-0.3-0.8c-0.2,0,0,0.2-0.2,0.2c-0.1,0-0.3,0.7-0.4,1c-0.2,0.3-0.2,0.3-0.2,0.3
		s0.3-0.4,0.4-0.7c0.1-0.3,0.1-0.5,0.1-0.5c0,0,0-0.1-0.1,0c-0.1,0.1-0.1,0.1-0.2,0.1c-0.1,0-0.3-0.1-0.4,0.1
		C22,43.9,22,43.9,21.9,44c-0.1,0-0.3,0.1-0.4,0.2c-0.1,0.1-0.4,0.4-0.4,0.4l0.3-0.4c0,0-0.4,0-0.5,0.1c-0.1,0.1-1,1.2-1,1.2
		s0.4-0.6,0.5-0.8c0.1-0.2-0.8-0.1-1,0c-0.3,0-0.6,0.2-0.7,0.3L18,45.3l0.2-0.4l-0.4,0c0,0-0.1,0.5-0.2,0.6
		c-0.1,0.1-0.2,0.2-0.2,0.2s0.2-0.2,0.2-0.4c0.1-0.2,0-0.3,0-0.3s-0.6,0.1-0.7,0.1c-0.1,0-0.2,0-0.2,0l-0.2,0.3l0.1-0.4l-0.9,0
		l-0.4,0.6l0.3-0.6l-1.4,0.1l-1,0.5c0,0,0.8-0.5,0.5-0.6c-0.3,0-1.2-0.1-1.5,0c-0.3,0.1-0.3,0.1-0.3,0.1l0.1-0.2c0,0-0.6,0-0.8,0
		l-0.3,0l0.1-0.2l-0.6,0l0-0.5c0,0,0-0.1-0.1-0.1L10,43.9H9.8l0-0.2c0,0,0,0-0.1-0.1c-0.1,0-0.2-0.2-0.2-0.2c-0.1,0-0.2,0-0.2,0
		s0.1-0.1,0.1-0.1c0-0.1,0-0.2,0-0.3c0-0.1,0-0.2,0.1-0.2c0.1-0.1,0.2-0.1,0.2-0.2l0.2-0.1c0,0,0-0.1,0.2-0.1c0.1,0,0.4,0,0.6,0
		c0.2,0,0.3-0.2,0.3-0.3c0,0-0.1-0.3-0.1-0.3s-0.2-0.1-0.2,0c0,0-0.3,0.1-0.4,0c-0.1,0-0.2-0.2-0.2-0.2c-0.1,0-0.1-0.1,0-0.2
		c0.1-0.1,0.2-0.1,0.2-0.2c0-0.1,0-0.2,0.1-0.1c0.1-0.1,0.2-0.2,0.2-0.1c0,0.1,0.1,0.1,0.1,0.2c0,0,0.2,0,0.2,0
		c0.1,0.1,0.1,0.1,0.2,0.1c0.1,0,0.3-0.1,0.3,0c0,0.1,0,0.1,0,0.2c0,0,0,0.2,0,0.2l0.3-0.1c0,0-0.1-0.2-0.2-0.3
		c-0.1-0.1-0.1-0.2-0.1-0.2l0.3,0.4l0.2,0l0-0.2l0.1,0.3l0.2,0c0,0,0.1-0.1,0.2-0.1c0.1,0,0.2,0,0.2,0s0.2,0,0.2,0
		c0.1,0,0.4,0,0.5,0c0.1,0,0.2,0,0.2-0.1c0-0.1-0.2-0.3-0.2-0.3c-0.1,0-0.5-0.2-0.8-0.2c-0.2,0-0.5-0.2-0.7-0.2
		c-0.2,0-0.5-0.1-0.6-0.2c-0.2,0-0.2,0-0.2,0l-0.2-0.1c0,0,0.4,0,0.5,0c0,0,0.3,0.2,0.5,0.2c0.3,0,0.9,0.2,1,0.3
		c0.2,0.1,0.6,0.2,0.7,0.5c0.1,0.2,0.3,0.1,0.4,0.1c0.1,0,0.2,0.1,0.2,0.1l0.3,0c0,0,0-0.2-0.3-0.4c-0.3-0.2-0.9-0.5-0.9-0.5
		s0.5,0.1,0.8,0.3c0.2,0.2,0.3,0.3,0.5,0.4c0.2,0.1,0.2,0.1,0.3,0.1c0.1,0,0.1,0,0.2,0c0,0.1,0.2,0.2,0.2,0c0.1-0.1,0.2-0.2,0.3-0.2
		c0.1,0,0.3,0.1,0.5,0.2c0.2,0,0.6,0,0.7,0c0,0,0.1,0.1,0.2,0.1s0.2,0,0.4,0c0.2,0,0.6,0,0.6-0.1c0.1,0,0.5-0.2,0.6-0.4
		c0.1-0.2,0.1-0.3,0.1-0.3s0.1-0.1,0.2,0c0.1,0,0.2-0.1,0.2-0.1c0.2-0.2,0.2-0.2,0.3-0.1c0.1,0.1,0.2,0.1,0.4,0
		c0.2-0.1,0.2-0.2,0.2-0.2l-0.2-0.1c0.1,0-0.2-0.1-0.3-0.2c-0.1,0-0.2-0.1-0.2-0.1c-0.1,0-0.2-0.1-0.3-0.2c-0.1,0-0.4-0.1-0.4-0.1
		c0,0,0.6,0.2,0.6,0.2s0.5,0.3,0.7,0.4c0.2,0.1,0.3,0.1,0.4,0.1c0.1,0,0.2-0.1,0.2-0.1s-0.1-0.2-0.2-0.3c-0.1,0-0.3-0.1-0.5-0.2
		c-0.2-0.1-0.4-0.2-0.4-0.2s0.3,0,0.4,0.1l0.6,0.2c0,0,0.2,0.2,0.2,0.3c0,0.1,0.2,0,0.1-0.1c-0.1-0.1-0.1-0.2-0.1-0.2l0.3,0.1
		c0.1,0.1,0.3,0,0.3-0.1l-0.9-0.5l0.5,0.1c0,0,0.5,0.3,0.7,0.4c0.1,0,0.2,0,0.3,0.1c0,0,0.1-0.2,0-0.2c-0.1,0-0.4-0.2-0.4-0.2
		s0.1,0,0.4,0.1c0.2,0.2,0.4,0.1,0.4,0.1c0,0,0-0.2,0.1-0.1c0,0,0-0.1,0-0.2c-0.1-0.1-0.4-0.4-0.4-0.4s0.1,0,0.3,0.2
		c0.2,0.1,0.2,0.4,0.2,0.4s0.1,0,0.1-0.1c0-0.2,0-0.3,0-0.3l0.2,0.2c0,0,0.5,0,0.4-0.1c-0.1-0.2-0.6-0.5-0.6-0.5s0.4,0.2,0.6,0.3
		c0.2,0.1,0.3,0,0.2,0c0,0-0.3-0.2-0.3-0.2s0.3,0.1,0.5,0.1c0.1,0,0.5,0,0.5,0s-0.1-0.2,0-0.1c0.2,0,0.2,0,0.1-0.1
		c-0.1,0-0.4-0.2-0.5-0.3c-0.1-0.1-0.4-0.3-0.4-0.3s0.2,0.1,0.4,0.2c0.2,0.1,0.6,0.3,0.6,0.3c0,0,0.3-0.1,0.2-0.2
		C24.3,39.1,24,39,24,39s0.4,0.1,0.4,0.1c0.1,0,0.2,0,0.3,0c0.1,0,0.1-0.1,0.2-0.1c0.1,0,0.2-0.1,0.2-0.1s-0.2-0.2-0.3-0.2l-1.8-1.3
		c0,0,0.8,0.5,1,0.6c0.2,0.1,0.2,0,0.3,0.1c0.1,0.1,0.2,0.2,0.2,0.3c0,0,0.2,0.3,0.4,0.4c0.2,0.1,0.3,0.2,0.3,0.2l0.1-0.3
		c0.1,0,0.4,0,0.4-0.1c0-0.1-0.2-0.4-0.4-0.4c-0.2,0-1-0.2-1-0.2s0.2,0,0.4,0c0.2,0,0.6,0.1,0.7,0.2c0.1,0.1,0.4,0.4,0.4,0.4
		s0.4,0.1,0.4-0.2c0-0.2,0-0.3,0-0.3s0.4,0.3,0.3,0.3c0,0,0.4-0.1,0.4-0.2c0-0.1-0.7-0.4-0.7-0.4s0.5,0.1,0.8,0.2
		c0.2,0.1,0.3-0.1,0.3-0.1s0-0.1-0.4-0.3l-0.9-0.4c0,0,0.8,0.3,1,0.4c0.2,0.1,0.4,0.4,0.4,0.4s0.2,0,0.2,0c0.1,0,0.3-0.2,0.3-0.2
		s-0.1-0.1-0.5-0.3c-0.4-0.1-0.9-0.4-0.9-0.4s0.7,0.3,1.1,0.4c0.4,0.1,0.5,0.1,0.6,0.1s0.2-0.1,0.2-0.1V37c0,0-0.3-0.2-0.6-0.4
		c-0.3-0.2-0.7-0.3-0.7-0.3s0.6,0.1,0.9,0.3c0.3,0.2,0.4,0.4,0.6,0.4c0.2,0,0.2-0.2,0.2-0.3c0-0.1-0.1-0.2-0.3-0.3
		c-0.2-0.1-1.4-0.6-1.4-0.6s1,0.4,1.3,0.5c0.3,0.2,0.4,0.3,0.5,0.3c0.2,0,0.2,0,0.2-0.1c0-0.1,0.2-0.2,0.4-0.3
		c0.2-0.1,0.2-0.1,0.4-0.1c0.1,0,0.2,0,0.2-0.1c0.2-0.1,0.2-0.1,0.2-0.2c0-0.1,0.2-0.1,0.2-0.1c0,0,0.3-0.2,0.3-0.3
		c0-0.3,0-0.2,0.1,0c0.1,0.1,0.2,0,0.4,0c0.1,0,0.2,0,0.2-0.1c0-0.1,0-0.2,0-0.2l-0.4,0c0,0,0.1-0.1,0.2,0c0.2,0,0.4,0.1,0.5,0.1
		c0.1-0.1,0-0.2-0.3-0.4c-0.3-0.1-0.4-0.1-0.4-0.1s0.4,0.2,0.8,0.2c0.3,0.1,0.7,0,0.7,0c0.1,0,0-0.3,0-0.3s-0.2-0.1-0.5-0.2
		C32,34.4,32,34.4,32,34.4s0.6,0.1,0.6,0.1c0.1,0,0.1,0.2,0.3,0.3c0.2,0.1,0.4-0.2,0.4-0.2s-0.3-0.1-0.4-0.1c-0.2,0-0.2,0-0.2,0
		s0.5,0,0.7,0.1c0.2,0,0.2,0,0.3,0c0.1-0.1,0.1-0.1,0.2-0.1c0.1,0,0.1,0,0.2-0.1c0.1-0.1,0.2-0.2,0.2-0.2l-0.4,0l-0.2,0
		c0,0,0.2,0,0.3,0c0.1,0,0.5,0.2,0.5,0.2c0.1-0.2,0.1-0.2,0.2-0.2c0.1,0,0.1-0.2,0-0.2c-0.1,0-0.3-0.2-0.4-0.2c-0.1,0,0.2,0,0.4,0.1
		c0.2,0.1,0.7,0,0.7,0s0-0.2-0.2-0.2l-0.4-0.1l0.5,0c0,0,0,0.1,0.1,0.2c0.1,0,0.1-0.2,0.1-0.2l0.1,0.3c0,0,0.3,0,0.3,0
		c0,0,0.1-0.1,0.1-0.1c0,0,0.1-0.1-0.1-0.1c-0.2,0-0.4-0.1-0.4-0.1s0.5,0,0.6,0c0.2,0,0.5,0,0.5,0l0-0.1c0,0,0-0.1-0.2-0.1
		c0,0-0.2-0.1-0.2-0.1c0.1,0-0.4-0.1-0.4-0.1s0.3,0,0.4,0c0.1,0,0.3,0.2,0.4,0.2c0.1,0,0.2-0.1,0.2-0.1s0-0.2-0.1-0.3
		c-0.1-0.2-0.6-0.5-0.6-0.5s0.5,0.3,0.7,0.3c0.2,0.1,0.4,0.1,0.5,0c0.1-0.1,0.1,0,0.1-0.1c0-0.1,0-0.1,0-0.1s0.1,0,0.2-0.1
		c0-0.1,0-0.1,0.2-0.1c0.2,0,0.3,0,0.3-0.1c0-0.1,0.1-0.2,0-0.2c0,0-1.2-0.1-1.2-0.1s1.2,0,1.3,0c0.1,0,0.4,0,0.4,0s0.5-0.1,0.6-0.2
		c0.1-0.1,0.1-0.1,0.2-0.2c0.2,0,0.2-0.1,0.2-0.2s-0.8-0.1-0.8-0.1l0.6,0c0.2,0,0.3,0,0.4,0c0.1,0,0-0.1,0.1-0.1
		c0.1,0,0.3,0,0.4-0.1c0-0.1,0-0.2-0.2-0.3c-0.2-0.1-0.4-0.1-0.6,0l-0.6,0.2c0,0,0.3-0.2,0.5-0.3c0.2-0.1,0.4-0.1,0.7,0
		c0.3,0.1,0.2,0.3,0.4,0.3c0.2,0,0.2-0.1,0.4,0c0.2,0.1,0.4,0,0.4,0c0-0.1,0-0.1,0.1-0.1c0.1,0,0.1,0,0.2-0.1c0.1-0.1,0-0.2,0.2-0.1
		c0.2,0,0.5,0.1,0.6,0c0.1-0.1,0.1-0.1,0.2-0.1c0.1,0,0.3-0.1,0.6-0.1c0.2,0,0.2,0,0.4,0c0.1,0,0.1-0.1,0.3-0.1c0.2,0,0.4,0,0.4,0
		s0-0.3-0.2-0.4s-0.4-0.2-0.8-0.3c-0.4,0-0.7,0-0.8,0l-0.3,0.1c0,0,0.4-0.2,0.7-0.2c0.3,0,0.5-0.1,0.7,0c0.3,0.1,0.6,0.2,0.7,0.4
		c0.2,0.2,0.2,0.3,0.2,0.3h0.5l-0.2-0.4l0.3,0.3l0.4,0.2c0,0,0-0.3-0.2-0.4c-0.2-0.1-0.2-0.1-0.2-0.1s0.4,0.2,0.4,0.4
		c0.1,0.2,0.1,0,0.3,0c0.2,0,0.2,0,0.3-0.1c0-0.1,0-0.1,0.2-0.1c0.2,0,0.4,0.1,0.5,0.2c0.1,0.1,0.2,0.1,0.4,0c0.1,0,0.1-0.1,0.1,0
		c0,0.1,0.4,0.2,0.5,0.1c0.1-0.1,0.1-0.1,0.1,0c0,0.1,0.2,0.1,0.3,0.1c0.1,0,0.1,0,0.2,0c0.1,0.1,0.2,0.2,0.2,0.1v-0.1
		c0,0,0,0,0.1,0.1c0.1,0.1,0.2,0.2,0.2,0c0-0.1,0-0.1,0-0.1h0.2c0,0,0.9-0.7,0.8-0.6l0.4-0.3c0,0-0.2,0.2-0.2,0.2
		c-0.1,0-1,0.7-1,0.7l0,0.2l0.3,0l0,0.2l0.3,0c0,0,0.2,0,0.2,0.1c0.1,0.1,0.2,0,0.3-0.1c0-0.1,1.2-0.5,1.2-0.5s-0.2,0.1-0.4,0.2
		c-0.2,0.1-0.6,0.2-0.7,0.3c0,0.2,0.1,0.1,0.1,0.2c0.1,0.1,0.2,0.1,0.2,0.1c0.1,0,0.1,0,0.1,0c0.1,0,0.1-0.1,0.2,0
		c0.1,0.1,0,0.1,0.2,0.2c0.1,0,0.2,0.1,0.2,0c0,0,0-0.2,0-0.1c0.1,0.1,0.1,0.2,0.2,0.2c0.2,0.2,0.2,0.2,0.3,0.3
		c0.1,0.1,0.1,0,0.2,0.1c0.1,0.1,0.1,0.1,0.2,0c0.1,0.2,0.2,0.2,0.3,0.2c0,0,0.1,0,0.2,0.1c0.1,0.1,0.3,0.2,0.3,0.1
		c0-0.1,0-0.2,0-0.2s0.1,0,0.1,0.2c0,0.2-0.1,0.2,0,0.1c0.1,0,0.2,0,0.2,0.1c0,0.1,0.1,0.1,0.2,0.1c0.1-0.1,0.1,0,0.1,0.1
		c0,0.1,0.1,0.2,0.2,0.1c0.1-0.1,0.2,0,0.2,0c0,0.1,0.1-0.1,0.2-0.1c0.1,0,0.1,0,0.1,0.1c0,0.1,0.1,0.3,0.1,0.3l0.3,0l0,0.2l0.1,0.1
		l0.1-0.1l0,0.4l0.2-0.2l0-0.2l-0.2-0.3c0,0-0.2-0.1-0.2-0.1c0,0-0.2-0.4-0.2-0.4s-0.1,0-0.3-0.1c-0.2-0.1-0.2-0.1-0.2-0.1
		s0-0.2-0.1-0.2c-0.1,0,0-0.2,0-0.2l-0.2,0l-0.1-0.2l-0.2-0.2L53.5,31l-0.3-0.1l0-0.2l-0.3-0.1l0-0.2c0,0-0.2-0.2-0.3-0.2
		c-0.2,0-0.2,0-0.2,0l-0.1-0.4c0,0-0.3-0.1-0.3-0.1c0,0,0-0.2,0-0.2h-0.2v-0.2l-0.2,0l0.2-0.8l-0.1-0.2l-0.3,0.1l0-0.3l-0.1,0
		L51.2,28l-0.1-0.3l-0.1,0v-0.2h-0.3v-0.3c0,0-0.2-0.1-0.3-0.2c-0.2-0.1-0.3-0.3-0.3-0.3s0-0.2-0.2-0.2c-0.1,0-0.2-0.1-0.2-0.1
		l0.1-0.2l-0.2-0.1c0,0-0.1-0.2-0.3-0.3c-0.2,0-0.1-0.1-0.1-0.1s0-0.2,0-0.2c0,0-0.3,0-0.3,0l0-0.3c0,0-0.1,0-0.2-0.1
		c-0.1-0.1-0.1-0.2-0.2-0.4c0-0.1-0.1-0.1-0.2-0.1c-0.1,0,0-0.2-0.2-0.2c-0.1,0-0.1,0-0.1,0l0-0.1l-0.2-0.1l0-0.1l-0.2,0v-0.4
		c0,0-0.1-0.1-0.2-0.1c-0.1,0,0.1-0.2,0-0.2c-0.1,0-0.1-0.1-0.2-0.1c0,0-0.1,0-0.1-0.2c0-0.1,0-0.1-0.2-0.2
		c-0.1-0.1-0.1-0.1-0.2-0.2c0-0.1,0-0.2-0.1-0.2l-0.2-0.1c-0.2-0.1-0.4-0.2-0.4-0.3c0-0.2-0.1-0.2-0.2-0.3c-0.1-0.1-0.2-0.2-0.2-0.2
		c0.2-0.1,0.1-0.3,0.1-0.3c0-0.1-0.1-0.2-0.2-0.3c0-0.1-0.1-0.1-0.1-0.3c0-0.2-0.1-0.2-0.2-0.3c-0.1,0-0.2,0-0.2,0l0,0.2h-0.3
		l0.1,0.2l-0.2-0.2c0,0-0.1,0.1-0.2,0.2c-0.1,0.1-0.1,0.1-0.2,0.1c-0.1,0-0.2,0-0.2,0.1c0,0.1,0,0.2-0.1,0.2c-0.1,0-0.1-0.1-0.2,0
		c-0.1,0.1,0,0.2-0.2,0.1c-0.1,0-0.2-0.1-0.2,0c-0.2,0-0.3-0.1-0.3,0c0,0.1-0.1,0.3-0.1,0.2c0-0.1-0.2-0.2-0.3-0.1
		c-0.1,0.1-0.2,0.2-0.2,0.3c0,0.1-0.1,0.3-0.1,0.3s0.2-0.4,0.1-0.5c-0.1-0.1-0.2-0.1-0.3,0c-0.1,0.1-0.2,0-0.2,0.1
		c0,0.1-0.1,0.3-0.1,0.3l0-0.4c0,0-0.2-0.2-0.3-0.1c-0.1,0.1-0.3,0.2-0.3,0.3c0,0.1,0,0.3,0,0.3l-0.2,0.4c0,0,0.1-0.5,0.1-0.7
		c0-0.2-0.1-0.2-0.2-0.2c-0.1,0-0.1,0.1-0.2,0.1c-0.1,0-0.2-0.1-0.3,0c-0.1,0,0,0.1-0.2,0.1c-0.2,0-0.4,0-0.5,0c0,0-0.2,0.4-0.2,0.7
		c-0.1,0.4-0.1,0.6-0.1,0.6l0-1.2c0,0-0.4,0.1-0.4,0.1L38.9,22l-0.3,1.1c0,0,0.3-1.1,0.2-1.1c-0.1-0.1-0.4,0-0.4,0.1
		c-0.1,0.1-0.1,0.1-0.2,0.1c-0.1,0-0.2,0.1-0.2,0.1s-0.1,0.4-0.2,0.8c-0.2,0.4-0.3,0.5-0.3,0.5s0.3-0.7,0.3-0.9c0-0.2,0-0.3-0.1-0.3
		c-0.1,0-0.2,0.2-0.3,0.2c-0.1,0-0.1,0-0.1,0.1c-0.1,0.1-0.1,0.2-0.2,0.2c-0.1,0-0.2-0.1-0.2,0c0,0,0,0.2,0,0.2l-0.2,0.6l0.1-0.6
		c0-0.1-0.2-0.1-0.2,0c0,0.1-0.1,0.2-0.1,0.2s-0.2,0-0.2,0c0,0.1-0.1,0.1-0.1,0.1c-0.1,0-0.2,0-0.2,0.1c0,0.1-0.1,0.2-0.1,0.2
		l-0.1,0.3c0,0-0.2-0.1-0.3,0c-0.1,0-0.1,0.1-0.3,0.1c-0.2,0-0.2,0-0.2,0s0,0.3,0,0.3c0,0-0.1,0.1-0.1,0.2c0,0,0,0.3,0,0.2
		c0-0.2,0,0.2,0,0.2L34.8,25c0,0,0.1-0.2,0.1-0.4c0-0.2,0-0.4,0-0.5l0-0.2c0,0,0,0-0.2,0.1c-0.2,0-0.2,0-0.2,0l0-0.2
		c0,0-0.2,0-0.3,0.1c-0.1,0.1-0.2,0.2-0.5,0.3L33,24.7l0.4-0.4c0.2-0.2,0.2-0.1,0.2-0.2c0-0.1-0.2-0.2-0.2-0.2l-0.4,0.4
		c0,0,0.2-0.3,0.2-0.4c0-0.1-0.1-0.1-0.1-0.1h-0.8l-0.4,0c0,0,0-0.2,0-0.2c-0.1,0-0.3-0.1-0.4-0.1c-0.2,0-0.6,0-0.6,0
		c0,0-0.1,0.1-0.2,0.1c-0.1,0-0.1,0-0.2,0c-0.1,0.1-0.1,0.2-0.1,0.2l-0.1-0.2c0,0-0.1,0.1-0.2,0.2c-0.1,0.1-0.2,0-0.2,0
		s-0.1,0.8-0.1,0.8c0,0-0.1-0.4-0.1-0.4l-0.2,0.5l0.1-0.3c0,0,0.1-0.2,0.2-0.4c0.1-0.2-0.2-0.4-0.3-0.2c-0.1,0.2,0,0.1,0,0
		c0-0.1-0.2,0-0.2,0c0,0.1-0.2,0.6-0.2,0.6s0.2-0.5,0.1-0.6c0-0.1-0.2-0.1-0.2,0c-0.1,0.1-0.2,0.2-0.1,0c0-0.2-0.2-0.2-0.3,0
		c-0.1,0.2-0.3,0.2-0.2,0.1c0.1-0.1-0.3,0-0.3,0l0,0.3l0-0.3c0,0-0.2,0-0.4,0.2c-0.2,0.1-0.5,0.5-0.5,0.5l-0.4,0.2
		c0,0,0.2-0.2,0.3-0.3c0.1,0,0.2-0.2,0.2-0.2c0-0.1,0-0.2,0-0.2l-0.2,0.1L27,24.5v-0.2l-0.3,0.2l-0.4,0.4c0,0,0.2-0.3,0.3-0.4
		c0.1-0.1,0.3-0.3,0.3-0.3s-0.1-0.1-0.2,0c-0.1,0.1-0.2,0.1-0.3,0.1c-0.1,0-0.4,0.6-0.4,0.6l0.2-0.6c0,0-0.2,0-0.3,0.1
		c-0.1,0.1-0.1,0.2-0.4,0.2c-0.2,0-0.4-0.2-0.4,0c-0.1,0.2-0.2,0.3-0.2,0.3l0-0.4c0,0-0.4,0.2-0.4,0.2L24,25l0-0.3l-0.2-0.1
		l-0.3,0.5l0-0.5c0,0-0.2,0-0.3,0.1c-0.1,0.1-0.2,0.3-0.2,0.3v-0.3L23,24.9l-0.1,0.5l0-0.4l-0.2,0l0,0.6l-0.1-0.5l-0.2,0.2l0,0.4
		l-0.1-0.3l-0.3,0.1c0,0,0.2-0.3,0.4-0.4c0.1-0.1,0.2-0.3,0.2-0.3s-0.3,0-0.3,0.1c0,0.1-0.2,0.2-0.2,0.2s-0.2-0.1-0.2,0.2
		c-0.1,0.2-0.5,0.8-0.5,0.8l0.2-0.6l-0.2,0l-1,0.6l-0.2,0.1l0-0.2l-0.5,0.3l0-0.4l-0.4,0.3l0-0.2l-0.2,0v-0.3c0,0-0.2-0.1-0.4-0.1
		c-0.2,0-0.3-0.3-0.3-0.3L18,25l-0.2,0l0-0.2c0,0-0.4-0.2-0.7-0.4c-0.3-0.2-0.4-0.2-0.5-0.2c-0.1,0-0.1-0.1-0.1-0.1
		c0-0.1-0.1,0-0.3-0.1c-0.2,0-0.2,0-0.2-0.2c-0.1-0.1-0.2-0.2-0.4-0.2c-0.2,0-0.4-0.2-0.6-0.2c-0.2-0.1-0.2-0.1-0.4-0.2
		C14.5,23,14.5,23,14.3,23c-0.2-0.1-0.1-0.1-0.2-0.1c-0.1,0-0.1,0.1-0.2-0.1c-0.1-0.2,0-0.1-0.2-0.2c-0.2,0-0.1,0-0.2-0.2
		c-0.1-0.2-0.2-0.1-0.3-0.3c-0.1-0.2-0.2-0.3-0.2-0.6c0-0.4,0-0.7-0.2-0.7c-0.2,0-0.7-0.1-0.8-0.1c-0.2,0-0.2,0-0.2,0s0.6,0,0.9-0.1
		c0.3-0.1-0.1-0.1,0-0.2c0.1-0.1,0.4-0.2,0.5-0.3c0.2-0.1,0.1-0.1,0.3,0c0.2,0.1,0.2,0.2,0.4,0.2c0.2,0.1,0.4,0,0.4,0l-0.3-0.3
		c0,0,0.3,0.2,0.4,0.3c0.1,0.1,0.3-0.1,0.3-0.1l-0.2-0.3c0,0,0.2,0,0.3,0.2c0.2,0.2,0.2,0.1,0.2,0.1l0-0.2c0,0,0,0.1,0,0.2
		c0,0.1,0.2,0.1,0.2,0.1l-0.1-0.3l0.2,0.3l0.1-0.2l0.1,0.2l0.2,0l-0.1-0.2l0.3,0.3l-0.1-1c0,0,0.2,0.6,0.3,0.7
		c0,0.1,0.1,0.2,0.1,0.2l0.2,0.2l0.1-0.2l0.1,0.3c0,0,0.5,0.3,0.6,0.4c0.1,0.1,0.3,0.2,0.3,0.2s-0.1-0.6,0-0.5
		c0.1,0.1,0.1,0.6,0.1,0.6l0.2,0.1V21l0.1,0.2c0,0,0.2,0.1,0.2,0.1c0,0.1,0,0.1,0.1,0.2c0.1,0.1,0.4,0.2,0.5,0.3
		c0.1,0.1,0.2,0.2,0.2,0.2l0-0.5l0.1,0.5c0,0,0,0.2,0.1,0.2c0.1,0,0.3,0.2,0.3,0.2s0.3,0.1,0.3,0.1c0.1,0,0.2-0.1,0.2-0.2
		c0-0.1,0-0.2-0.2-0.3c-0.2-0.1-0.3-0.2-0.3-0.2s0.6,0.2,0.7,0.4c0.2,0.1,0.3,0.2,0.5,0.2c0.2,0,0.2,0,0.2,0L20.8,22
		c0,0,0.1,0.2,0.3,0.2c0.1,0,0.2,0,0.2,0l-0.6-0.5c0,0,0.6,0.3,0.7,0.4c0.1,0.1,0.4,0.1,0.4,0.1s0.1-0.3,0-0.4
		c-0.2-0.1-0.7-0.4-0.6-0.4c0.1,0,0.6,0.3,0.8,0.4c0,0-0.2,0.2,0.1,0.4c0.2,0.1,0.2,0,0.2,0l0-0.4l0.2,0.4v-0.4l0.4,0.3
		c0,0,0.2,0,0.4,0c0.1,0,0.3,0.1,0.2,0l-0.8-0.6l0.6,0.4c0,0,0.1,0.2,0.2,0.3c0.2,0,0.4-0.2,0.4-0.2l-0.6-0.5c0,0,0.6,0.4,0.7,0.5
		c0.2,0.1,0.3,0,0.3,0l-0.3-0.3l0.4,0.3l0.2,0l-0.4-0.5c0,0,0.4,0.4,0.5,0.5c0.1,0.1,0.1,0,0.2,0c0.1-0.1,0.2,0,0.3,0s0.2,0,0.4,0
		c0.2,0,0.1-0.1,0.3-0.1c0.2,0-0.4-0.5-0.4-0.5l-0.7-0.6c0,0,1.1,0.9,1.2,1c0.1,0.1,0.3,0.1,0.3,0.1l0.5-0.2c0,0-0.2-0.5-0.4-0.5
		c-0.2,0-0.4-0.1-0.4-0.1s-0.5-0.4-0.4-0.4c0.1,0,0.7,0.3,0.8,0.4c0.2,0.1,0.4,0.6,0.5,0.6c0.1,0,0.1-0.1,0.1-0.1L26.7,21l0.4,0.4
		l0.4-0.1c0,0,0-0.2-0.2-0.2C27.1,21,27,21,27,21s0.4,0.2,0.6,0.3c0.2,0.1,0.6,0,0.8-0.1c0.2,0,0.6-0.1,0.6-0.1s-0.4-0.4-0.5-0.4
		c-0.1,0-0.2-0.1-0.2-0.1s0.1-0.1,0.3,0c0.2,0.1,0.4,0.3,0.5,0.4c0.3,0.1,0.4,0,0.4,0s-0.1-0.1-0.2-0.2c-0.2-0.1-0.1-0.1,0.1,0
		c0.1,0.1,0.2,0.1,0.3,0.2c0.1,0,0.1-0.1,0.3-0.1c0.1,0,0.3,0,0.4,0c0.1,0,0.1-0.1,0.1-0.1l-0.7-0.3c0,0,0.5,0,0.6,0.1
		c0.1,0.1,0,0.2,0.3,0.2c0.3,0,0.7,0,0.8,0c0.1,0,0.1-0.3,0.1-0.3l0.2,0.3c0,0,0.4,0,0.4,0c0-0.1,0.1-0.1,0.2-0.1
		c0.1,0,0.2-0.1,0.3-0.2c0.1-0.1,0.2-0.1,0.1-0.1c-0.1,0-0.2-0.3-0.2-0.3s0.2,0.2,0.3,0.2c0.1,0,0.3-0.2,0.4-0.3
		c0.2,0,0.4-0.2,0.6-0.2c0.2,0,0.3,0,0.3,0s-0.1-0.2,0-0.2l0.5,0c0,0-0.1-0.1,0.1-0.2c0.2,0,0.2,0,0.3-0.1c0-0.1,0-0.2,0.2-0.2
		c0.2,0,0.1,0.1,0.2,0.1c0.1-0.1,0.1-0.2,0.2-0.2c0.1,0,0.2-0.1,0.2-0.1l-0.2-0.1l-0.7,0c0,0,0.2-0.1,0.4-0.1l0.2,0
		c0,0,0.2,0.2,0.3,0.2c0.1,0,0.1,0,0.1,0s0.1-0.1,0.2-0.1s0.2-0.1,0.1-0.1c-0.1,0-0.3-0.3-0.3-0.3l-0.2-0.1c0,0,0.4,0,0.5,0.1
		c0.1,0.1,0,0.2,0.2,0.3c0.2,0,0.1,0,0.2-0.1l0.2,0c0.2,0,0.5-0.1,0.4-0.1c-0.1,0-1-0.7-1.2-0.7l-0.2,0c0,0,0.6,0,0.8,0.2
		c0.2,0.2,0.6,0.5,0.6,0.5l0.2,0l0.3-0.1l0-0.2l0.4,0l0-0.1l0.6,0l0.1-0.2l0.3,0l0.4-0.2l-0.9-0.3c0,0,0.6,0.1,0.8,0.2
		c0.3,0.1,0.3,0.2,0.4,0.1c0.1-0.1,0.1-0.3,0.1-0.3l-0.7-0.4c0,0,0.6,0.4,0.8,0.4c0.2,0.1,0.4,0.1,0.3,0c-0.1-0.1-0.3-0.3-0.3-0.3
		s0.2,0.2,0.4,0.2c0.2,0,0.4-0.1,0.2-0.2c-0.2-0.1-0.3-0.2-0.4-0.3c-0.1-0.1-0.3-0.3-0.3-0.3s0.3,0.3,0.7,0.5
		c0.4,0.1,0.6-0.1,0.6-0.1s-0.4-0.4-0.7-0.4c0.3,0,0.6,0.2,0.8,0.3c0.3,0.2,0.2,0,0.2-0.1c0-0.1,0-0.2,0.1,0c0.1,0.1,0.2,0,0.3,0
		c0.1,0,0.6,0.1,0.8-0.1c0.2-0.2,0.2-0.3,0.7-0.3c0.4,0,0.5,0,0.7,0.1c0,0,0.2,0.2,0.2,0.2c0.2-0.2,0.3-0.3,0.6-0.2
		c0.3,0,0.5,0,0.7,0.1c0.2,0.1,0.3,0.1,0.5,0.1c0.1,0,0.6,0.1,0.8,0.2c0.1,0.1,0.1,0.2,0.3,0.2s0.1-0.1,0.3,0c0.2,0.1,0,0.1,0.3,0.3
		c0.1,0,0.2,0,0.3,0c0.1,0,0.2,0.2,0.2,0.2l0.4,0.1c0,0,0.2,0.2,0.4,0.1c0.2-0.1,0.2-0.2,0.5,0.1c0.3,0.4,0.8,0.6,1,0.7
		c0.1,0.1,0.2,0.2,0.4,0.3c0.1,0.1,0.2,0.2,0.4,0.3c0.2,0.1,0.3-0.1,0.3,0.2c0,0.2,0.3,0.3,0.3,0.3s0.2,0.2,0.2,0.1
		c0.1-0.1,0.2-0.1,0.2,0.1c0,0.2,0,0.1,0.1,0.2c0.1,0.1,0.2-0.2,0.2,0c0,0.2,0.3,0.2,0.3,0.2S53,19.6,52.9,19c0-0.6-0.1-0.7-0.1-0.9
		c0-0.2,0.1-0.1,0.1-0.3s0-0.2,0-0.3c0-0.1-0.1-0.1,0-0.2c0-0.1,0.1-0.2,0.1-0.3c0-0.1,0-0.3,0.1-0.6c0.1-0.3,0.3-0.8,0.4-1
		c0-0.2,0.1-0.1,0.1-0.3c0-0.1,0-0.3,0-0.2c0.1,0.1,0.1-0.3,0.1-0.3s-0.1,0.4,0.1,0.4c0.2,0,0.3-0.3,0.2-0.5c0-0.1,0-0.1,0-0.2
		c0.1-0.1,0.2-0.5,0.2-0.6c0-0.1,0.5-1.2,0.6-1.3c0.1-0.2,0.3-0.6,0.3-0.6S55,12.4,55,12.4c0,0.1-0.1,0.3-0.2,0.6
		c-0.1,0.3-0.2,0.3,0,0.3c0.2,0,0.3,0,0.2-0.2c0-0.1-0.1-0.2-0.1-0.2s0,0.1,0.2,0.1c0.2,0,0.2,0.1,0.2-0.2c0-0.2,0-0.3,0-0.3
		s0.2,0,0.3,0c0,0,0.1-0.3,0.2-0.4c0.1-0.1,0.1-0.2,0.2-0.2c0.1,0,0-0.2,0-0.3c0,0.1,0,0.1,0,0.1s0-0.1,0.2-0.1c0.2,0,0.2,0,0.3,0
		c0.1,0,0.3-0.2,0.2-0.3c0.2,0,0.2,0,0.3-0.1c0.1-0.1,0-0.1,0.1-0.1c0.1,0,0.1-0.2,0-0.3c-0.1,0-0.2-0.1-0.2-0.1s0.2,0,0.3,0
		c0.1,0,0-0.1,0.1-0.1s0.2,0,0.2,0l0.1-0.2l0.3,0v-0.2l0.2,0c0,0,0.2,0,0.2-0.1c0-0.1,0.1-0.2,0.1-0.2h0.2c0,0,0.1,0,0.2-0.2
		c0.1-0.1,0.2-0.2,0.1-0.2c-0.1,0-0.4,0-0.4,0s0.2,0,0.4-0.1c0.3,0,0.6,0,0.6,0l0-0.3l0.3,0.1l0.1-0.1l0.3,0c0,0,0.1,0,0.2-0.1
		c0-0.1,0.2-0.3,0.4-0.4c0.1-0.1,0-0.2,0.2-0.2c0.2-0.1,0.1-0.1,0.1-0.1s0,0,0.2,0.1c0.2,0,0.2,0,0.3,0c0.1-0.1,0.3-0.1,0.3-0.1
		c0-0.1,0.2-0.1,0.4-0.1c0.2,0,0.3,0,0.4,0c0.1,0,0.1-0.2,0.3-0.2c0.2,0,0.3,0.2,0.3,0.1l0-0.1c0,0,0.4,0,0.5,0
		C64,8.1,64.2,8,64.4,8c0.1,0,0.2,0,0.3,0c0.1-0.1,0.2-0.1,0.4-0.1c0.2,0,0.4,0,0.4,0L65,7.4l-0.4-0.5c0,0,0.6,0.6,0.8,0.8
		C65.5,7.8,65.6,8,65.6,8s0-0.2,0.3-0.2c0.3,0,0.9,0,0.9,0l-1-1.3l1,1.3c0,0,0.3,0,0.5,0.1C67.5,7.9,67.6,8,67.6,8
		c0.1,0,0.1-0.1,0.2,0c0.1,0-0.6-0.6-0.4-0.5l-0.8-0.7c0,0,0.8,0.6,1,0.8C67.8,7.7,67.8,7.9,68,8c0.2,0.1,0.6,0.2,0.8,0.2l0.3,0
		c0,0-0.9-0.8-1.3-1c-0.4-0.3-0.7-0.4-0.7-0.4s0.6,0.2,0.7,0.3c0.1,0.1,0.4,0.4,0.7,0.6c0.2,0.2,0.4,0.4,0.4,0.4
		c0.1,0.1,0.3,0.3,0.3,0.3s0.2-0.1,0.2-0.1c0.2,0.2,0.2,0.3,0.3,0.2c0.2,0,0.1,0,0.2,0c0.1,0.1,0.2,0.2,0.4,0.2
		c0.2,0,0.6,0.2,0.7,0.2c0.2,0,0.3,0,0.4,0.1c0.1,0.1,0.2,0.1,0.5,0.1c0.2,0,0.3,0,0.4,0.1c0.1,0.1,0.1,0.1,0.2,0.1
		c0.2,0,0.1,0,0.2,0.1c0.2,0.1,0.2,0.2,0.3,0.1c0.1-0.1,0.2-0.1,0.2,0c0,0.2,0.1,0.1,0.2,0.1c0.1,0,0.1-0.1,0.1,0
		c0,0.2,0,0.3,0.2,0.4c0.2,0,0.2,0.2,0.3,0.2c0.2,0.1,0.4,0.1,0.4,0.1s0.1-0.2,0-0.3c-0.1-0.1-0.3-0.3-0.3-0.3s0.4,0.2,0.5,0.4
		c0.1,0.2,0.6,0.7,0.8,0.9c0.2,0.2,0.1,0.1,0.3,0.2c0.2,0.1,0.1,0.1,0.3,0.3c0.2,0.2,0.1,0,0.2,0c0.1-0.1,0.1,0,0.2,0
		c0,0.1,0.2,0.1,0.1,0.2c-0.1,0-0.2-0.1-0.2,0c0,0.1,0.1,0.2,0.2,0.4c0.1,0.2,0,0.3,0.2,0.4c0.2,0.1,0.1,0,0.2,0.2
		c0,0.2,0.1,0.4,0.2,0.5c0.1,0.2,0.2,0.2,0.2,0.4c0.1,0.2,0.1,0.2,0.2,0.3c0.1,0.1,0.1,0.3,0.1,0.5c0,0.2,0,0.4,0.1,0.6
		c0.1,0.2,0.3,0.8,0.5,1.3c0.1,0.3,0.1,0.3,0.2,0.4c0,0,0,0.1,0.1,0.2c0.1,0.4,0.2,0.4,0.2,0.6c0,0.2,0,0.4,0,0.4
		c0,0.1,0,0.3-0.1,0.6c-0.1,0.3-0.1,0.5-0.1,0.6c0,0.2,0,0.4-0.1,0.7c-0.1,0.2,0,0.4-0.1,0.6c-0.1,0.1-0.1,0.3-0.1,0.5
		c0,0.2,0,0.1-0.1,0.3c-0.1,0.2-0.2,0.1-0.1,0.2c0.1,0.1,0.2,0.2,0.2,0.2s-0.2,0-0.2,0.2c0,0.1,0.1,0.2,0,0.4c0,0.2,0,0.2,0,0.2h0.2
		c0,0,0,0.2-0.1,0.2c-0.1,0-0.2,0-0.2,0l0.1,0.2c0,0,0.3,0.1,0.2,0.1c-0.2,0-0.3,0.1-0.3,0.1s-0.1,0.2,0,0.4c0,0.2,0.1,0.2,0.1,0.2
		l-0.3,0.2l0.1,0.3l-0.3,0.1c0,0-0.3,0.2-0.1,0.3c0.2,0.1,0.3,0.1,0.3,0.1l-0.2,0.2l0.2,0.4l-0.3,0v0.2l-0.2,0.2l0.1,0.4l-0.2,0v0.6
		c0,0,0.2,0,0.4,0c0.1-0.1,0-0.2,0.2-0.3c0.1-0.1,0.6-0.5,0.6-0.7c0-0.2,0-0.2,0-0.2l0.1-0.2c0,0,0.4-0.5,0.4-0.7c0-0.2,0-0.3,0-0.3
		l0.2,0.2c0,0,0.1,0,0.1-0.2v-0.2l0.1,0.1l-0.1-0.4l0.1,0.2c0,0,0.1,0,0.1-0.2l0-0.2l0.2,0.1l0-0.3l0.1-0.3l0.2,0l0-0.4l0.2,0.1
		c0,0,0-0.2,0-0.3c0-0.1,0.1-0.1,0.1-0.3l0-0.2l0.2,0c0,0,0.1-0.1,0.1-0.4c0-0.2,0-0.4,0-0.4l0.2,0.1l0.1-0.4l-0.1-0.2l0.2-0.1
		l0-0.3l-0.2-0.1l0.2-0.1c0,0,0.1-0.4,0-0.4l-0.1-0.1c0,0,0.2,0.2,0.3,0c0.1-0.1,0-0.2,0.1-0.3c0-0.2,0-0.3,0-0.3l-0.2-0.1
		c0,0,0.3,0,0.3-0.1c0-0.1,0-0.4,0-0.4s0.1-0.2,0.1-0.4c0-0.2,0.1-0.2,0.1-0.2v-0.5l0.2-0.3l0-0.3l-0.1-0.1c0,0,0.2,0,0.2-0.2
		c0-0.1,0-0.3,0-0.4c0.1-0.2,0.1-0.3,0-0.4l-0.1-0.2l0.3-0.2c0,0,0-0.3,0-0.6c0-0.3,0-0.6,0-0.7c0-0.1,0.1-0.4,0-0.6
		C82.1,13.2,82,13,82,13s0.1-0.1,0.1-0.2c0-0.1,0.1-0.2,0-0.4c-0.1-0.2-0.1-0.1,0-0.3c0.1-0.2,0.1-0.4,0.2-0.6
		c0-0.2,0.1-0.6,0.1-0.9c0-0.3,0-0.3,0.1-0.4c0.1-0.2,0.2-0.9,0.3-1.4c0.1-0.5,0.4-1,0.5-1.2c0.1-0.1,0.2,0,0.3-0.2
		c0.1-0.1,0.2-0.9,0.4-1.3c0.3-0.4,0.4-0.3,0.6-0.7C84.9,4.9,85,4.6,85,4.6s0.1-0.1,0.2-0.1c0.2,0,0.2-0.1,0.2-0.2
		c0-0.1,0.2-0.6,0.2-0.6s-0.2,0.4,0,0.4C85.7,4.2,86,4,86.2,4l0.1-0.1l0-0.3l0.2,0.3l0.2-0.1l0-0.4c0,0,0.1,0.4,0.2,0.4
		c0.1,0,0.2-0.1,0.2-0.1l-0.1-0.4l0.2,0.3l0.1-0.3l0.1-0.2l0,0.3c0,0,0.1,0,0.1,0.1c0,0.1,0,0.1,0.1,0.2c0.1,0,0.2,0,0.2,0
		c0-0.1-0.2-0.2-0.1-0.5c0-0.3,0.2-0.6,0.2-0.6s0,0.2-0.1,0.4c0,0.2-0.1,0.3,0,0.4c0.1,0.1,0.1,0.3,0.1,0.3s0-0.7,0.1-0.8
		c0-0.2,0.1-0.4,0.1-0.3c0,0.1-0.1,0.8-0.1,0.9c0,0.2,0,0.2,0,0.3c0.1,0.1,0.2,0.1,0.2,0.1l0.3-0.9c0,0-0.2,0.7-0.2,0.8
		c0,0.1,0.2,0.1,0.2,0c0.1,0,0.1-0.1,0.1-0.2c0-0.1,0-0.4,0-0.4l0.1,0.3l0.2-0.2l0-2l0.1,2l0.3-0.7c0,0-0.3,0.6-0.2,0.7
		c0.1,0.1,0.3,0.1,0.4,0c0-0.1,0-0.5,0-0.5s-0.1,0.4,0.1,0.4c0.1,0,0.2,0.1,0.3,0c0.1,0,0.2-0.1,0.4,0c0.2,0.1,0.2,0,0.2,0l0.2-0.7
		c0.1-0.1-0.1,0.4-0.1,0.6c0,0.2,0.2,0.2,0.2,0.1c0.1,0,0.1-0.1,0.1-0.1c0-0.1,0.2-0.5,0.2-0.5L91,3.3l0.2-0.1l0.6-1.2l-0.5,1.1v0.2
		c0,0,0.3,0.1,0.4,0c0.1,0,0.2-0.1,0.3-0.2c0.1-0.1,0.1-0.1,0.1-0.1v0.3l0.3,0l0.7-1c0,0-0.5,0.8-0.5,0.9c0,0.1,0.2,0.2,0.3,0.1
		c0.1-0.1,0.6-1,0.6-1s-0.6,0.9-0.5,1c0.1,0.1,0.4,0,0.4,0L93.8,3l-0.2,0.5l0.2,0l0.5-0.6c0,0-0.5,0.5-0.4,0.6
		c0.1,0.1,0.1,0.1,0.2,0c0.1-0.1,0.2-0.1,0.2,0c0,0.1,0.1,0.1,0.2,0.1c0.1-0.1,0-0.1,0-0.2c-0.1-0.1-0.1-0.1,0-0.1
		c0.1,0,0.2-0.4,0.1-0.4c-0.1,0-0.1-0.2,0-0.2c0.2,0,0.2,0,0.2,0.1c0,0.1,0,0.2,0.1,0.3c0,0.2,0,0.2,0.2,0.3c0.2,0,0.2,0,0.3-0.3
		C95.3,2.7,95.1,2,95.3,2.2"/>
</g>
</svg>
