<?xml version="1.0" encoding="utf-8"?>
<!-- Generator: Adobe Illustrator 23.1.1, SVG Export Plug-In . SVG Version: 6.00 Build 0)  -->
<svg version="1.1" id="Layer_1" xmlns="http://www.w3.org/2000/svg" xmlns:xlink="http://www.w3.org/1999/xlink" x="0px" y="0px"
	 viewBox="0 0 200 100" style="enable-background:new 0 0 200 100;" xml:space="preserve">
<path d="M120.6,24.4c-6-7.6-5-16.1-9.8-16.1c-2.1,0-5.1,1.4-6.6,3.8C102.4,4.8,99.2,0,95.5,0c-4.4,0-8.2,6.9-9.4,16.5
	c-0.9-0.8-3-1.3-4-1.3c-3.8,0-5.6,5.1-6.8,13.3s-7,13.3-3.3,13.3h18.6c0-0.5,0-1,0-1.5c0-7.6,3.8-13.7,8.5-13.7
	c4.7,0,8.5,6.1,8.5,13.7c0,0.5,0,1,0,1.5h19.9C132.3,41.7,126.6,32,120.6,24.4L120.6,24.4z"/>
<g>
	<path d="M52.7,66.7c-0.3-0.1-0.6-0.2-0.8-0.3c-0.1,0-0.1-0.2-0.1-0.3c0.1-0.2,0.3-0.3,0.4-0.5c0.1-0.1,0.2-0.1,0.3,0.1
		C52.6,66.1,52.6,66.3,52.7,66.7 M49.9,61.7c0.3,0.2,0.5,0.4,0.8,0.6c0.2,0.2,0.2,0.4,0.1,0.6c-0.1,0.1-0.1,0.2-0.2,0.3
		c-0.4,0.4-0.8,0.8-1.1,1.2c-0.1,0.1-0.2,0.2-0.3,0.4c-0.2,0.3-0.3,0.3-0.7,0.2c0-0.1,0.1-0.3,0.1-0.4c0.3-0.8,0.6-1.5,0.9-2.3
		C49.5,62.1,49.6,61.8,49.9,61.7 M41.5,56.6c0.2,0.1,0.2,0.2,0.1,0.4c0,0.2-0.1,0.4-0.1,0.6c-0.1,0.3-0.2,0.6-0.3,1
		c-0.1,0.6-0.2,1.1-0.4,1.7c0,0.2-0.2,0.3-0.4,0.2c-0.2-0.1-0.4-0.2-0.6-0.3c-0.5-0.1-1-0.2-1.5-0.2c-0.1,0-0.2,0-0.2,0
		c-0.2-0.3-0.4-0.5-0.6-0.8c-0.1-0.2-0.1-0.3,0-0.4c0.5-0.3,1-0.6,1.5-0.8c0.6-0.2,1.1-0.5,1.6-0.8C41,56.9,41.3,56.8,41.5,56.6
		 M43.4,61.8c0-0.2,0.1-0.4,0.1-0.5c0-0.2,0.1-0.4,0.1-0.6c0.1-0.6,0.2-1.2,0.4-1.8c0.2-0.8,0.4-1.5,0.6-2.3c0-0.1,0.1-0.2,0.2-0.3
		c0.1,0,0.2,0,0.3,0.1c0.1,0.1,0.3,0.3,0.4,0.4c0.3,0.2,0.6,0.5,0.8,0.7c0.2,0.2,0.2,0.4,0.1,0.6c-0.1,0.4-0.3,0.8-0.5,1.2
		c-0.3,0.8-0.6,1.6-1,2.3c-0.1,0.2-0.2,0.5-0.3,0.7c0,0.1-0.1,0.2-0.3,0.2c-0.3-0.2-0.6-0.3-0.9-0.5C43.4,62.1,43.4,61.9,43.4,61.8
		 M63.2,52.4c-0.3,0.4-0.7,0.6-1,0.9c-0.6,0.4-1.2,0.9-1.8,1.3c-0.2,0.1-0.3,0.2-0.5,0.2c-0.2,0-0.4-0.1-0.6-0.2
		c-0.3-0.1-0.6-0.3-0.9-0.5c-0.7-0.3-1.3-0.6-2-1c-0.1,0-0.2-0.2-0.3-0.3c-0.1-0.1-0.2-0.3-0.3-0.4c-0.4-0.4-0.9-0.8-1.5-0.9
		c-0.3-0.1-0.5-0.2-0.7-0.3c0-0.1,0-0.2,0-0.3c0.1-0.6,0.6-1,0.8-1.4c0.1-0.2,0.3-0.2,0.5,0c0.4,0.3,0.9,0.6,1.3,0.9
		c0.5,0.4,1.1,0.7,1.8,0.9c0.9,0.3,1.7,0.6,2.6,0.8c0.3,0.1,0.6,0.2,0.9,0.2C62.2,52.2,62.7,52.3,63.2,52.4 M50.7,58.7
		c0-0.1,0-0.1,0-0.2c0.3-0.9,0.6-1.8,0.9-2.7c0.3-0.7,0.6-1.4,0.9-2.1c0.1-0.3,0.3-0.4,0.6-0.2c0,0,0.1,0.1,0.2,0.1
		c0.5,0.3,0.9,0.7,1.4,1c0.5,0.3,1,0.4,1.4,0.7c0.5,0.3,1.1,0.5,1.6,0.8c0.4,0.2,0.4,0.4,0,0.6c0,0-0.1,0.1-0.2,0.1
		c-0.5,0.4-1.1,0.7-1.6,1.1c-0.3,0.2-0.5,0.4-0.8,0.7c-0.8,0.7-1.6,1.4-2.4,2.1c-0.3,0.2-0.5,0.2-0.6-0.1c-0.3-0.6-0.8-1-1.2-1.5
		C50.8,59.1,50.7,59,50.7,58.7 M64.7,74.7C64.7,74.7,64.6,74.8,64.7,74.7c-0.3-0.2-0.4-0.4-0.6-0.6c-0.4-0.6-0.8-1.3-1.3-1.9
		c-0.2-0.2-0.4-0.4-0.7-0.6c-0.3-0.2-0.7-0.4-0.8-0.8c0-0.1-0.1-0.1-0.1-0.2c-0.4-0.4-0.9-0.8-1.4-1c-0.4-0.1-0.7-0.3-1.1-0.4
		c-0.5-0.2-1.1-0.4-1.6-0.6c-0.5-0.2-1-0.4-1.4-0.6c-0.5-0.2-1-0.4-1.5-0.6c-0.2-0.1-0.3-0.2-0.3-0.4c-0.1-0.6-0.3-1.2-0.4-1.7
		c-0.1-0.3,0-0.5,0.2-0.7c0.2-0.2,0.5-0.5,0.7-0.7c0.5-0.5,1.1-1,1.6-1.5c0.4-0.4,0.8-0.8,1.2-1.2c0.6-0.6,1.2-1.2,1.8-1.7
		c0.5-0.4,0.9-0.8,1.4-1.2c0.2-0.1,0.3-0.2,0.5-0.1c0.3,0.1,0.6,0.3,0.9,0.4c0.4,0.1,0.6,0.4,0.7,0.9c0.2,0.6,0.3,1.2,0.5,1.8
		c0.1,0.4,0.2,0.9,0.3,1.3c0.2,0.9,0.3,1.9,0.5,2.8c0.1,0.4,0.1,0.7,0.2,1.1c0.1,0.5,0.2,1.1,0.2,1.6c0.1,0.6,0.1,1.2,0.2,1.9
		c0,0.5,0,1,0.1,1.4c0.1,0.7,0.3,1.3,0.2,2.1c0,0.1,0,0.2,0,0.3C64.9,74.1,64.8,74.4,64.7,74.7 M66.6,54.2c0.2,0.2,0.5,0.4,0.7,0.6
		c0.4,0.3,0.8,0.7,1.2,0.9c0.8,0.4,1.6,0.8,2.4,1c0.7,0.2,1.4,0.4,2,0.7c0.5,0.2,1,0.4,1.6,0.6c0.1,0,0.1,0.1,0.2,0.1
		c0.2,0.2,0.5,0.4,0.6,0.6c0.4,0.5,0.8,1.1,1.2,1.6c0.1,0.1,0.2,0.3,0.3,0.5c0.4,0.6,0.9,1.1,1.2,1.7c0.4,0.7,0.9,1.4,1.3,2.1
		c0.3,0.4,0.5,0.9,0.7,1.3c0.2,0.3,0.4,0.7,0.6,1c0.2,0.5,0.4,1,0.6,1.4c0.2,0.5,0.5,1.1,0.7,1.6c0.2,0.5,0.5,0.9,0.7,1.4
		c0.3,0.7,0.5,1.4,0.8,2.1c0.1,0.3,0.3,0.7,0.4,1c0,0.1,0.1,0.1,0.1,0.2c0,0.4,0.2,0.7,0.4,1c0.1,0.1,0.2,0.2,0.4,0.2
		c0.2,0,0.2-0.1,0.2-0.3c0.1-0.2,0.1-0.3,0-0.6c-0.3-0.8-0.6-1.6-0.9-2.4c-0.2-0.6-0.5-1.3-0.7-1.9c-0.1-0.2-0.2-0.3-0.3-0.5
		c-0.2-0.4-0.4-0.8-0.5-1.3c-0.3-0.8-0.7-1.7-1.2-2.5c-0.2-0.3-0.3-0.7-0.5-1c-0.3-0.5-0.5-1.1-0.8-1.6c-0.3-0.5-0.7-1-1.1-1.5
		c-0.4-0.6-0.8-1.2-1.2-1.7c-0.3-0.4-0.6-0.7-0.9-1.1c-0.1-0.1-0.3-0.3-0.2-0.5c0.2-0.1,0.3,0,0.5,0c0.4,0.2,0.9,0.4,1.3,0.6
		c0.4,0.1,0.7,0.3,1.1,0.4c0.5,0.2,1,0.4,1.5,0.7c0.1,0.1,0.2,0.1,0.2,0.2c1,0.5,1.9,1,2.9,1.5c0.6,0.3,1.2,0.4,1.9,0.3
		c0.2-0.1,0.4,0,0.5,0.2c0.3,0.4,0.6,0.7,0.9,1.1c0.3,0.3,0.6,0.7,0.8,1c0.4,0.5,0.7,0.9,1.1,1.4c0.7,0.9,1.3,1.9,1.9,2.8
		c0.2,0.3,0.4,0.5,0.6,0.8c0.3,0.4,0.6,0.8,0.8,1.3c0.5,0.8,0.9,1.7,1.4,2.5c0.5,0.8,0.9,1.7,1.3,2.5c0.4,0.9,0.8,1.8,1.2,2.7
		c0.2,0.4,0.4,0.8,0.4,1.3c0,0.2,0.1,0.4,0.3,0.4c0.2,0.1,0.3,0.3,0.4,0.6c0.1,0.4,0.2,0.9,0.4,1.2c0.3,0.6,0.4,1.2,0.6,1.8
		c0.3,0.9,0.5,1.8,0.7,2.6c0.1,0.3,0.3,0.7,0.5,1c0,0.1,0.2,0.1,0.3,0.1c0.2,0,0.3-0.2,0.3-0.4c-0.1-0.4-0.1-0.9-0.2-1.3
		c-0.2-0.7-0.5-1.4-0.7-2.1c-0.1-0.4-0.2-0.9-0.3-1.3c-0.1-0.3-0.2-0.6-0.3-0.9c-0.1-0.3-0.3-0.6-0.4-1c-0.2-0.5-0.4-1-0.4-1.6
		c0-0.1,0-0.2-0.1-0.3c-0.5-0.7-0.9-1.5-1.3-2.4c-0.1-0.2-0.2-0.5-0.4-0.7c-0.3-0.5-0.6-1.1-0.9-1.6c-0.4-0.7-0.8-1.5-1.2-2.2
		c-0.2-0.4-0.5-0.9-0.7-1.3c-0.3-0.4-0.5-0.8-0.8-1.3c-0.3-0.4-0.5-0.8-0.7-1.3c0,0,0-0.1-0.1-0.1c-0.4-0.6-0.7-1.2-1.1-1.8
		c-0.1-0.2-0.3-0.3-0.4-0.5c-0.4-0.5-0.7-1-1.1-1.5c-0.4-0.6-0.8-1.1-1.2-1.7c-0.2-0.3-0.5-0.7-0.7-1c-0.1-0.1-0.2-0.2-0.3-0.2
		c-0.5-0.3-0.9-0.6-1.3-1c-0.1-0.1-0.2-0.2-0.4-0.3c-0.5-0.3-1.1-0.6-1.6-0.8c-0.8-0.4-1.6-0.8-2.4-1.1c-0.9-0.4-1.8-0.8-2.8-1.1
		c-0.6-0.2-1.2-0.5-1.8-0.7c-0.4-0.1-0.8-0.3-1.3-0.4c-0.5-0.1-0.9-0.4-1.4-0.5c-0.1,0-0.2-0.1-0.3-0.1c-0.3-0.1-0.6-0.3-0.8-0.6
		c-0.4-0.5-0.8-1-1.2-1.4c-0.6-0.6-1.4-1.1-2.2-1.4c-0.5-0.2-0.9-0.4-1.4-0.6c-0.2-0.1-0.5-0.2-0.8-0.3c-0.1,0-0.1,0-0.2,0
		c-1-0.5-2-0.7-3.1-1c-0.5-0.2-1-0.2-1.4-0.3c-1.1-0.2-2.1-0.5-3.1-0.8c-0.1,0-0.2,0-0.3-0.1c-0.4-0.1-0.8-0.2-1.1-0.6
		c-0.3-0.3-0.6-0.5-1.1-0.5c-0.2,0-0.4-0.1-0.6-0.2c-0.4-0.2-0.9-0.4-1.3-0.6c-0.1,0-0.2,0-0.3,0c-0.3,0-0.6,0-1,0
		c-0.6-0.1-1,0.2-1.4,0.6c-0.1,0.2-0.3,0.2-0.5,0.2c-0.4,0-0.6,0.2-0.8,0.5c-0.4,0.7-0.7,1.4-1,2.1c-0.3,0.5-0.5,1.1-0.9,1.6
		c-0.2,0.2-0.3,0.5-0.5,0.8c-0.4,0.7-0.8,1.4-1.2,2.1c-0.1,0.2-0.2,0.5-0.3,0.7c0,0.1-0.1,0.2-0.2,0.3c-0.2,0.2-0.5,0.1-0.6-0.2
		c0,0,0,0,0,0c0-1-0.7-1.5-1.4-2c-0.6-0.4-1.2-0.5-1.8-0.4c0,0-0.1,0-0.2,0c-0.2,0-0.3-0.1-0.3-0.3c0.2-1.1,0.1-2.2,0.1-3.3
		c0-0.4-0.1-0.8-0.2-1.2c-0.1-0.3-0.1-0.5-0.2-0.8c-0.1-0.5-0.3-1-0.5-1.4c-0.2-0.5-0.5-1-0.7-1.5c-0.2-0.5-0.5-1-0.9-1.4
		c-0.2-0.2-0.4-0.5-0.6-0.7c-0.7-0.9-1.5-1.7-2.4-2.5c-0.2-0.2-0.4-0.3-0.7-0.5c-0.6-0.3-1.1-0.7-1.7-1c-0.4-0.2-0.7-0.5-1.1-0.6
		c-0.5-0.1-0.9-0.3-1.3-0.5c-0.5-0.2-1-0.3-1.5-0.5c0,0-0.1,0-0.1,0c-0.5-0.1-1-0.1-1.6-0.2c-0.4,0-0.9-0.1-1.3-0.1
		c-0.7,0-1.4-0.1-2.1,0.1c-0.5,0.1-1.1,0.1-1.6,0.2c-0.7,0.2-1.5,0.3-2.2,0.6c-0.5,0.2-1,0.4-1.5,0.6c-0.5,0.2-1,0.5-1.6,0.7
		c-1.5,0.6-2.7,1.6-3.7,2.8c-0.4,0.5-0.8,1.1-1.2,1.6c-0.6,0.8-0.9,1.8-1.3,2.8c-0.2,0.4-0.3,0.8-0.4,1.2c-0.1,0.3-0.2,0.7-0.3,1
		c-0.1,0.5-0.3,0.9-0.5,1.3c0,0,0,0.1,0,0.1c0,0.7-0.2,1.5-0.4,2.2c-0.1,0.4-0.1,0.7-0.1,1.1c0,0.1-0.1,0.2-0.1,0.3
		c0,0.1,0,0.3,0,0.4c0,0.3,0.1,0.5,0.1,0.8c0.1,0.6,0.1,1.3,0.2,1.9c0,0.3,0.1,0.5,0.2,0.7c0.1,0.2,0,0.3-0.1,0.4
		c-0.1,0.1-0.2,0.3-0.3,0.4c-0.5,0.5-0.9,1-1.4,1.4c-0.3,0.3-0.5,0.6-0.8,0.9C9.4,60.7,9,61,8.8,61.3c-0.4,0.4-0.7,0.7-1.1,1.1
		c-0.1,0.1-0.3,0.3-0.4,0.5c-0.4,0.4-0.9,0.8-1.3,1.2c-0.2,0.2-0.5,0.5-0.7,0.7c-0.4,0.5-0.8,0.9-1.2,1.4c-0.1,0.2-0.3,0.4-0.3,0.6
		c-0.1,1-0.1,2.1-0.2,3.1c0,0.9-0.1,1.8-0.1,2.7c0,1.4,0,2.8-0.1,4.2c0,0.6-0.1,1.3-0.1,2c0,1.2-0.1,2.3-0.1,3.5c0,1,0,2-0.1,2.9
		c0,0.9,0,1.8,0,2.6c0,0.8-0.2,1.5-0.2,2.3c0,0.5-0.1,1-0.1,1.5C3,91.8,3,92,3.1,92.1c0.2,0.2,0.5,0.2,0.6,0
		c0.1-0.2,0.2-0.4,0.3-0.6c0.2-0.6,0.3-1.3,0.5-2c0-0.1,0-0.2,0-0.2c0-1.1,0-2.2,0-3.3c0-0.3,0-0.5,0.1-0.8c0.1-0.4,0.1-0.8,0-1.2
		c-0.1-0.5-0.1-1-0.1-1.5c0-0.4,0-0.8,0-1.3c0-0.6,0-1.3,0.1-1.9c0.1-0.8,0.1-1.7,0.1-2.5c0-0.2,0-0.5,0.1-0.7
		c0.1-0.5,0.1-1.1,0.1-1.6c0-0.5,0-1,0.1-1.5C5,72.2,5,71.6,5.1,71c0.1-0.6,0.2-1.2,0.4-1.7c0.3-0.6,0.7-1.2,1.4-1.5
		c0.1,0,0.2-0.2,0.3-0.3c0.3-0.8,0.8-1.4,1.3-2c0.5-0.7,1.1-1.3,1.7-2c0.5-0.6,1.1-1.2,1.6-1.8c0.3-0.3,0.5-0.6,0.8-0.9
		c0.3-0.3,0.4-0.3,0.6,0.1c0.1,0.2,0.1,0.5,0.2,0.7c0.1,0.6,0.3,1.1,0.7,1.5c0.4,0.5,0.7,1,1,1.5c0.1,0.1,0.1,0.3,0.2,0.4
		c0.1,0.5,0.4,0.7,0.8,0.8c0.7,0.3,1.5,0.2,2.3,0.2c0.3,0,0.6-0.1,0.8-0.3c0.3-0.2,0.7-0.2,1.1-0.2c0.9,0,1.9,0,2.8,0
		c0.2,0,0.4,0,0.6,0c0,0.3-0.1,0.5-0.2,0.6c-0.5,0.7-0.9,1.4-1.4,2.1c-0.3,0.5-0.5,1-0.8,1.5c-0.1,0.1-0.1,0.3,0,0.4
		c0.3,0.6,0.3,1.2,0.4,1.8c0.1,0.8,0.3,1.6,0.4,2.4c0,0.1,0,0.1,0,0.2c0.1,0.6,0.1,1.1,0.2,1.7c0,0.3,0.1,0.5,0.2,0.7
		c0.2,0.6,0.3,1.2,0.3,1.9c0,0.5,0.1,0.9,0.2,1.4c0,0.2,0.2,0.4,0.3,0.6c0.1,0.1,0.3,0.1,0.4,0.1c0.2,0,0.3-0.1,0.3-0.3
		c0.1-0.4,0.1-0.7,0-1.1c-0.1-0.7-0.2-1.3-0.3-2c0-0.3-0.1-0.6-0.1-0.9c-0.1-0.6-0.2-1.3-0.3-1.9c0-0.2-0.1-0.3-0.1-0.5
		c-0.1-0.7-0.2-1.4-0.2-2.1c0-0.5,0.1-0.9,0.5-1.3c0.2-0.2,0.3-0.5,0.5-0.8c0.2-0.5,0.5-1,0.7-1.5c0.1-0.3,0.2-0.6,0.4-0.9
		c0.3-0.5,0.6-1.1,0.8-1.6c0.1-0.3,0.3-0.6,0.5-0.9c0-0.1,0.1-0.2,0.2-0.2c0.3-0.1,0.6-0.2,1-0.3c0.3-0.1,0.6-0.1,0.8-0.2
		c0.4-0.1,0.5-0.1,0.8,0.2c0.2,0.3,0.5,0.6,0.7,0.9c0.2,0.3,0.6,0.5,1,0.6c0.6,0.3,1.1,0.5,1.5,1c0.6,0.7,0.6,0.4,0.6,1.3
		c0,0.4,0,0.8,0,1.3c0,0.1,0.1,0.3,0.1,0.4C33,70.8,33,71,33,71.3c0,1,0,2,0,3c0,1.2,0,2.5,0,3.8c0,1.4,0,2.8,0,4.2
		c0,0.1,0,0.2,0,0.4c0,0.2,0.1,0.3,0.3,0.3c0.1,0,0.4-0.1,0.4-0.3c0-0.2,0-0.4,0-0.5c0-0.4-0.1-0.9,0.1-1.3c0,0,0,0,0,0
		c0.1-0.7,0.1-1.5,0.2-2.2c0-0.6,0-1.2,0-1.7c0-0.4,0.1-0.9,0.1-1.3c0-0.6,0-1.1,0-1.6c0-0.7,0.1-1.5,0.2-2.2c0,0,0,0,0,0
		c0-0.4,0.1-0.8,0.4-1.1c0.2-0.2,0.2-0.5,0.2-0.8c0-0.1,0-0.3,0-0.5c0-0.2,0.1-0.2,0.3-0.3c0.3-0.1,0.7-0.3,1-0.4
		c0.2-0.1,0.3-0.1,0.4,0.1c0.1,0.2,0.2,0.5,0.4,0.7c0.4,0.6,0.9,1.2,1.6,1.5c0.2,0.1,0.5,0.3,0.7,0.4c0.4,0.2,0.7,0.1,1.1,0
		c0.2,0,0.3-0.1,0.5-0.1c0.2,0.4,0.4,0.7,0.6,1.1c0.2,0.3,0.5,0.6,0.9,0.8c0.4,0.2,1.1,0.1,1.4-0.2c0.2-0.2,0.4-0.4,0.6-0.5
		c0.3-0.2,0.6-0.6,0.7-0.9c0.1-0.3,0.3-0.5,0.6-0.5c0.1,0,0.1,0,0.2,0.1c-0.3,0.7-0.7,1.2-1.2,1.8c-0.4,0.4-0.7,0.7-1.1,1.1
		c-0.2,0.2-0.3,0.4-0.4,0.6c-0.1,0.3-0.2,0.5,0,0.8c0.4,0.1,0.8-0.1,1.2-0.3c0.6-0.5,1.1-1,1.7-1.5c0.5-0.4,0.9-1,1.3-1.6
		c0.3-0.4,0.5-0.8,0.8-1.2c0.3-0.5,0.2-0.9,0-1.4c-0.1-0.3-0.3-0.6-0.4-0.9c0.2-0.1,0.4-0.2,0.6,0c0.6,0.4,1.3,0.7,2,1.1
		c0.2,0.1,0.4,0.2,0.6,0.3c0.3,0.1,0.5,0.2,0.8,0.2c0.6,0.1,1,0.4,1.5,0.7c0.1,0,0.1,0.1,0.2,0.2c0.3,0.5,0.3,1.1,0.5,1.6
		c0.1,0.6,0.2,1.3,0.4,2c0.1,0.6,0.4,1.1,0.5,1.7c0.1,0.5,0.2,0.9,0.3,1.4c0.2,0.7,0.3,1.5,0.5,2.2c0.1,0.4,0.2,0.8,0.5,1.1
		c0.1,0.1,0.2,0.1,0.3,0.1c0-0.1,0.1-0.2,0.2-0.3c0-0.6,0-1.2-0.2-1.8c-0.2-0.8-0.4-1.7-0.6-2.5c0-0.2-0.1-0.5-0.2-0.7
		c-0.1-0.4-0.1-0.7-0.1-1.1c0-0.1-0.1-0.3-0.1-0.4c0,0,0-0.1,0-0.1c-0.1-0.4-0.1-0.9-0.2-1.3c-0.1-0.6-0.3-1.2-0.5-1.8
		c0.1,0,0.2,0,0.3,0c0.5,0.2,1.1,0.4,1.6,0.6c0.8,0.3,1.5,0.7,2.3,1.1c0.6,0.3,1.3,0.5,2.1,0.5c0.4,0,0.6,0.2,0.9,0.5
		c0.4,0.6,0.9,1.2,1.4,1.7c0.2,0.2,0.4,0.5,0.6,0.8c0.1,0.2,0.3,0.4,0.5,0.6c0.2,0.4,0.5,0.7,0.7,1.1c0.2,0.3,0.5,0.6,0.7,0.9
		c0.4,0.6,0.8,1.1,1.2,1.7c0.3,0.4,0.5,0.9,0.8,1.3c0.3,0.5,0.6,1,0.9,1.5c0.5,0.8,1,1.7,1.4,2.7c0.2,0.5,0.5,0.9,0.7,1.3
		c0.4,0.9,0.8,1.8,1.2,2.8c0.1,0.2,0.1,0.4,0.1,0.6c0,0.1,0.1,0.3,0.2,0.4c0.4,0.3,0.5,0.7,0.7,1.2c0.1,0.3,0.2,0.6,0.3,0.9
		c0.2,0.5,0.3,1,0.5,1.6c0.3,0.9,0.5,1.9,0.8,2.8c0.1,0.3,0.3,0.6,0.4,0.8c0.1,0.2,0.2,0.2,0.4,0c0.2-0.2,0.2-0.6,0.2-0.8
		c-0.1-0.4-0.2-0.8-0.3-1.2c-0.3-0.9-0.6-1.8-0.9-2.8c-0.1-0.3-0.2-0.5-0.3-0.8c-0.2-0.6-0.5-1.2-0.7-1.9c-0.1-0.3-0.2-0.6-0.2-0.9
		c0-0.2-0.1-0.3-0.2-0.5c-0.1-0.1-0.2-0.2-0.2-0.3c-0.3-0.6-0.6-1.2-0.9-1.8c-0.4-0.7-0.8-1.5-1.2-2.2c-0.5-0.9-1.1-1.8-1.6-2.8
		c-0.4-0.8-0.8-1.5-1.3-2.3c-0.3-0.5-0.7-0.9-1-1.3c-0.3-0.5-0.6-1-0.8-1.6c0-0.1,0-0.2,0-0.4c0-0.6,0-1.2-0.1-1.8
		c-0.1-0.2,0-0.5-0.1-0.7c-0.1-0.7-0.2-1.4-0.2-2.1c0-0.5,0-1-0.1-1.4c-0.1-0.7-0.1-1.4-0.3-2.1c-0.1-0.2,0-0.5-0.1-0.8
		c-0.1-1.3-0.3-2.7-0.5-4.1c-0.1-0.5-0.2-1-0.3-1.4c0-0.2,0-0.5-0.1-0.7c0-0.9-0.2-1.7-0.4-2.5c-0.1-0.6-0.3-1.1-0.6-1.6
		c-0.1-0.2-0.2-0.3-0.4-0.5c-0.3-0.3-0.3-0.4,0-0.7c0.4-0.4,0.9-0.7,1.4-0.8c0.5-0.1,0.9-0.4,1.4-0.7C66.1,54.5,66.3,54.4,66.6,54.2
		"/>
</g>
<g>
	<path d="M156.5,70.3c-0.1,0-0.2,0.1-0.1,0.2c0.1,0.2,0.2,0.3,0.4,0.4c0.2,0.1,0.2,0,0.2-0.2C156.9,70.5,156.8,70.3,156.5,70.3
		C156.6,70.3,156.6,70.3,156.5,70.3 M166.4,31c0.2,0,0.4,0,0.7,0c1.4,0,2.6,0.2,3.6,0.6c0.6,0.2,1.6,0.4,2.3,0.4
		c1.2,0,1.3,0.1,3.1,1.3c2.4,1.7,4.6,3.7,4.6,4.3c0,0.4,0.7,1.3,1.1,1.3c0.2,0,0.7,1.8,1.1,3.9c0.2,1,0.2,1.4,0,1.8
		c-0.1,0.3-0.2,0.9-0.1,1.5c0.1,0.7,0,1.1-0.1,1.2c-0.2,0.1-0.2,0.3,0,0.5c0.2,0.3,0.2,0.6-0.2,1.6c-1.4,3.5-1.6,3.8-2.7,4.8
		c-0.8,0.7-1.2,1.2-1.2,1.6c-0.1,0.6-1.5,3-0.7,2.9c0.8-0.1,2.2-0.1,4,0.7c3,1.4,3.1,1.5,3.8,1.3c0.4-0.1,0.9-0.3,1.2-0.3
		c0.3-0.1,0.4-0.1,0.3,0.4c-0.1,0.5-0.2,0.6-0.8,0.8c-0.4,0.1-0.7,0.3-0.7,0.4c0,0.1,0.3,0.5,0.6,1c1.1,1.3,1.8,2.4,2.4,3.3
		c0.3,0.5,1.2,1.5,1.9,2.3c1.1,1.2,1.6,1.6,2.7,2c1.4,0.6,1.7,1,1.2,1.6c-0.4,0.4-0.6,0.4-1-0.1c-0.2-0.2-0.9-0.7-1.6-1
		c-1.2-0.5-1.5-0.8-2.5-2.1c-0.6-0.8-1.4-1.7-1.6-1.9c-0.2-0.2-0.9-1.1-1.5-1.9c-1.1-1.6-1.5-1.8-3.5-2.3c-0.9-0.2-1.3-0.5-2.4-1.5
		c-0.7-0.7-3.5,0.3-3.7,0.3c-0.4,0-1.6,0.9-1.6,1.2c0,0.5,2.1,2.7,2.6,2.8c0.6,0.1,0.8,0.4,0.3,0.9c-0.2,0.2-0.2,0.3,0.1,0.6
		c0.4,0.3,1.3,2,1.6,3.1c0.1,0.4,0.9,1.6,2,2.8c0.3,0.3,0.6,0.6,0.8,0.6c0.2,0,0.3,0.2,0.3,0.5c0,0.4,0.2,0.6,0.7,0.9
		c1.3,0.6,1.3,0.7,0.7,1.3c-0.6,0.6-0.9,0.6-0.9,0c0-0.5-0.7-0.9-1.5-0.8c-0.4,0.1-0.6,0-0.7-0.3c0-0.2-0.3-0.7-0.6-1
		c-0.3-0.3-0.8-1.2-1.3-2c-0.4-0.8-0.9-1.5-1-1.6c-0.2-0.1-0.5-0.8-0.8-1.4c-0.3-0.6-0.6-1.1-0.7-1.1c-0.1,0-0.4-0.2-0.8-0.5
		c-0.3-0.3-1-0.6-1.4-0.7c-1.1-0.2-2-0.7-2.5-1.3l-0.4-0.5l-1.3,0.5c-1.8,0.7-2.1,0.8-2.8,1.4l-0.6,0.5l0.7,1.4
		c0.4,0.8,0.9,2.1,1.3,3c0.3,0.8,0.8,1.8,1.1,2.1c0.3,0.3,0.5,0.8,0.5,1c0,0.6,1.3,3.6,1.8,4.1c0.2,0.2,0.9,0.6,1.5,0.8
		c1.1,0.4,1.6,0.9,1,0.9c-0.2,0-0.4,0.2-0.5,0.4c-0.1,0.4-0.1,0.4-0.7-0.1c-0.4-0.4-0.8-0.5-1.5-0.5c-0.8,0-1-0.1-1-0.4
		c0-0.2-0.2-0.8-0.5-1.4c-0.3-0.5-0.6-1.4-0.8-1.9c-0.2-0.5-0.6-1.5-1-2.2c-0.4-0.7-0.7-1.3-0.7-1.4c0-0.1-0.3-0.5-0.7-1
		c-0.9-1.1-1.8-2.9-2-3.9c-0.2-0.8-0.4-0.9-1.1-0.4c-0.7,0.5-0.6,0.7,0.5,1.8c0.9,0.9,1,1,0.6,1.4c-0.3,0.3-0.4,0.3-0.6,0.1
		c-0.1-0.1-0.7-0.8-1.2-1.3c-1.1-1.2-0.4-1.6-2.4-0.5c-1.2,0.7-1.3,1-0.4,1c0.9,0,1-0.1,1.9,1.6c0.9,1.7,1.7,8,1.4,8.5
		c-0.3,0.5,0.4,2.5,0.9,2.7c0.2,0.1,0.8,0.3,1.3,0.4c0.5,0.2,1.2,0.4,1.4,0.6l0.4,0.4l-0.5,0.1c-0.3,0.1-0.5,0.3-0.5,0.5
		c0,0.2-0.1,0.4-0.3,0.4s-0.3-0.1-0.3-0.3c0-0.4-0.8-0.9-1.9-1.1c-0.6-0.1-0.9-0.3-0.9-0.5c0-0.2-0.2-0.8-0.4-1.5
		c-0.8-2.4-0.9-2.7-0.9-3.9c0-1.1-0.1-1.3-0.7-1.9c-0.9-0.8-1.1-1.3-1.3-2.7l0.7-1.6h-1.8c-1.2,0-2,0.1-2.2,0.3
		c-0.5,0.4-1.5,0.1-2.1-0.5c-0.7-0.8-2.6-0.3-3,0.5c-0.2,0.3-0.3,0.9-0.3,1.2c0,0.6,0.1,0.6,1.8,0.8c1.6,0.3,2.2,0.6,2.6,1.5
		c0.2,0.5,0.4,0.8,0.5,0.8c0.1,0,0.4,0.4,0.6,1c0.4,0.8,0.4,1.1,0.2,1.6c-0.6,1.3-1.7,2.8-2.8,3.6c-0.6,0.4-1.6,1.2-2.1,1.6
		c-0.5,0.4-1.1,0.8-1.2,0.8c-0.2,0-0.5,0.4-0.8,0.9c-0.4,0.9-2.1,2.5-3.2,3.2c-0.3,0.2-1.2,0.8-2,1.4c-2.7,1.9-4.3,2.5-7.3,2.9
		c-1.2,0.1-2.2,0.3-2.2,0.3c0,0-0.3-0.1-0.6-0.2c2.4-0.8,5.1-1.4,6.2-2.8c-2.4,0-4.8,0.9-7.2,1.7c-0.4-0.8,1.6-1.7,2.9-2
		c2.8-0.7,3.3-1.7,5.4-4.8c0.7-1,1.6-2,1.9-2.2c1-0.6,2.4-0.7,3.4-0.3l0.9,0.3l0.4-0.6c0.2-0.3,0.6-0.8,0.9-1.1
		c0.3-0.3,0.8-1.2,1.2-1.9c0.4-0.8,0.8-1.4,0.9-1.4c0.1,0,0.4-0.2,0.7-0.5l0.5-0.5l-0.7-0.3c-0.4-0.2-0.9-0.3-1.2-0.3
		s-0.6-0.1-0.6-0.2c0-0.2-1.5-0.9-1.8-0.9c-0.1,0-0.4-0.2-0.6-0.4c-0.2-0.2-0.5-0.4-0.7-0.3c-0.5,0.2-1.4-0.3-1.7-0.9
		c-0.3-0.7-0.2-1.9,0.2-2c0.5-0.2,0.3-0.7-0.3-0.7c-0.3,0-0.8-0.2-1.1-0.5c-0.7-0.6-1.6-0.5-1.9,0.1c-0.2,0.6-1.3,1-2.4,0.9
		c-0.8,0-1.1-0.2-1.8-0.9c-0.9-0.9-3.6-2.3-4.4-2.3c-0.3,0-0.6-0.1-0.7-0.3c-0.5-0.5-1-0.4-1.3,0.4c-0.3,1-1.3,1.6-2.7,1.8
		c-0.8,0.1-1.3,0.3-1.8,0.7c-0.3,0.3-0.8,0.6-1.1,0.6c-0.6,0-1.1,0.5-1.1,1.2c0,1.3-1.5,2.8-4.1,4c-1.3,0.6-1.4,2.2-2.9,3.5
		c-2.1,2.6-3.8,2.7-6.2,3.8c2.4-2.3,4.9-4.5,5.7-7.3c0,0-5.7,1.3-6.8,3.3c2.1-6.9,5.1-3.6,7-6.2c1.8-2.5,3.7-4.1,5.5-4.4
		c0.4-0.1,1.5-0.8,2.6-1.8c2.5-2.2,4.3-3,6.1-3c1.8,0.1,2.5,0.2,3.1,0.4c0.3,0.1,0.6,0.3,0.8,0.3c0.2,0,0.9,0.6,1.6,1.3
		c1.2,1.2,1.4,1.3,2.4,1.3c0.6,0,1.3,0.2,1.5,0.3c0.6,0.4,1.4-0.2,2.2-1.7c0.7-1.2,1.4-2,2.8-2.8c0.5-0.3,1.1-0.6,1.5-0.8
		c1.1-0.6,1.3-0.8,1.3-1.6c0-0.9,0.4-1.6,1-1.4c0.2,0.1,0.4,0.3,0.5,0.6c0.1,0.4,0.2,0.4,0.9,0.3c0.9-0.1,2.2-1.3,3-2.7
		c0.3-0.5,0.8-1.1,1.1-1.3c0.5-0.3,0.6-0.2,0.9,0.2c0.5,0.7,1,0.6,2.3-0.3c1.5-1.1,1.8-1.4,2.5-2.6c0.3-0.5,0.8-1.1,1.2-1.3
		c0.5-0.3,0.6-0.3,1,0c1.5,1.1,1.3,1,2.3,0.6c0.5-0.2,1.1-0.8,1.5-1.3c1-1.4,2.3-2.9,3-3.2c0.6-0.3,0.7-0.3,1.6,0.3
		c0.6,0.3,1.5,1,2,1.6c0.5,0.6,1.1,1,1.2,0.9c0.1-0.1,0.2-0.9,0.2-2c0-1.5,0.1-2,0.5-2.9l0.5-1.1l1,0.1c1.3,0.2,1.4-0.3,0.3-0.8
		c-0.4-0.2-0.9-0.6-1-0.8c-0.2-0.3-0.6-1-1-1.6c-0.5-0.8-0.7-1.4-0.7-2v-0.9l1.1-0.1c0.7-0.1,1.1-0.2,1.1-0.4c0-0.2-0.4-0.3-2.1-0.3
		l-2.1,0l-1.6-1.1c-0.9-0.6-1.8-1.1-2.1-1.1c-0.2,0-1,0.2-1.6,0.4c-0.7,0.2-1.9,0.4-2.7,0.5l-1.5,0.1l-0.1-0.7
		c-0.1-0.8-0.3-0.8-0.7-0.1c-0.7,1.2-1.9,1.7-4,1.9c-2.7,0.2-2.9,0.4-1.6,1.5c0.4,0.4,1,1.2,1.3,1.9c0.5,1.2,0.6,1.3,0.3,2.5
		c-0.3,1.4-1.1,2.5-2.3,3.2c-0.9,0.5-1.4,0.3-0.6-0.2c1.1-0.7,1.5-3.1,0.7-4.1c-0.3-0.4-0.6-0.5-1.8-0.5c-1.7,0-2.4-0.4-3.1-1.8
		c-0.4-0.8-0.5-1.1-0.3-1.6c0.1-0.4,0.4-0.9,0.6-1.1c0.4-0.4,0.7-1.4,1.1-3.3c0.1-0.6,0.4-0.9,1.3-1.6c1.7-1.2,3.2-1.9,4.9-2
		c1.1-0.1,1.7-0.3,2-0.6c0.4-0.4,0.9-0.5,2.8-0.7C165,31.1,165.7,31,166.4,31z"/>
</g>
</svg>
