<?xml version="1.0" encoding="utf-8"?>
<!-- Generator: Adobe Illustrator 23.1.1, SVG Export Plug-In . SVG Version: 6.00 Build 0)  -->
<svg version="1.1" id="Layer_1" xmlns="http://www.w3.org/2000/svg" xmlns:xlink="http://www.w3.org/1999/xlink" x="0px" y="0px"
	 viewBox="0 0 150 100" style="enable-background:new 0 0 150 100;" xml:space="preserve">
<g>
	<path d="M76.1,48.8c-0.5-0.2-0.9-0.3-1.2-0.4c-0.1,0-0.2-0.3-0.1-0.4c0.2-0.3,0.4-0.5,0.6-0.8c0.1-0.1,0.4-0.1,0.4,0.1
		C75.9,47.8,76,48.2,76.1,48.8 M71.8,41.1c0.4,0.3,0.8,0.6,1.2,1c0.3,0.2,0.3,0.5,0.2,0.9c-0.1,0.2-0.2,0.4-0.3,0.5
		c-0.6,0.6-1.2,1.2-1.7,1.9c-0.2,0.2-0.3,0.4-0.5,0.6c-0.3,0.5-0.4,0.5-1.1,0.2c0-0.2,0.1-0.4,0.2-0.6c0.4-1.2,0.9-2.4,1.3-3.5
		C71.3,41.7,71.4,41.3,71.8,41.1 M59.1,33.3c0.2,0.1,0.2,0.3,0.2,0.5c0,0.3-0.1,0.7-0.2,1c-0.1,0.5-0.3,1-0.4,1.5
		c-0.2,0.8-0.3,1.7-0.5,2.6c-0.1,0.3-0.3,0.4-0.6,0.3c-0.3-0.1-0.6-0.3-1-0.4c-0.7-0.2-1.5-0.3-2.3-0.2c-0.1,0-0.3,0-0.4,0
		c-0.3-0.4-0.6-0.8-0.8-1.2c-0.2-0.3-0.2-0.4,0.1-0.6c0.7-0.5,1.5-1,2.3-1.3c0.8-0.3,1.7-0.7,2.4-1.3C58.2,33.8,58.7,33.6,59.1,33.3
		 M61.9,41.3c0.1-0.3,0.1-0.5,0.2-0.8c0.1-0.3,0.1-0.6,0.2-0.8c0.2-0.9,0.4-1.8,0.6-2.7c0.3-1.2,0.5-2.3,0.8-3.5
		c0-0.1,0.1-0.4,0.3-0.4c0.1,0,0.3,0.1,0.5,0.2c0.2,0.2,0.4,0.4,0.6,0.6c0.4,0.4,0.8,0.7,1.2,1.1c0.3,0.2,0.4,0.6,0.2,0.9
		c-0.2,0.6-0.5,1.2-0.7,1.8c-0.5,1.2-1,2.4-1.5,3.5c-0.1,0.4-0.2,0.7-0.4,1.1c-0.1,0.2-0.2,0.3-0.4,0.2c-0.5-0.2-0.9-0.5-1.4-0.8
		C62,41.7,62,41.4,61.9,41.3 M92.3,26.8c-0.5,0.6-1,1-1.5,1.3c-0.9,0.7-1.8,1.3-2.7,2c-0.2,0.2-0.5,0.3-0.8,0.2
		c-0.3-0.1-0.6-0.2-0.9-0.3c-0.5-0.2-0.9-0.5-1.4-0.7c-1-0.5-2-1-3-1.5c-0.2-0.1-0.3-0.3-0.4-0.4c-0.1-0.2-0.3-0.5-0.4-0.7
		c-0.6-0.6-1.4-1.2-2.3-1.4c-0.4-0.1-0.7-0.3-1.1-0.5c0-0.2,0-0.3,0.1-0.5c0.2-0.8,0.8-1.5,1.3-2.2c0.2-0.3,0.4-0.3,0.8,0
		c0.7,0.5,1.3,0.9,2,1.4c0.8,0.6,1.7,1,2.7,1.4c1.3,0.4,2.7,0.9,4,1.3c0.5,0.1,0.9,0.2,1.4,0.3C90.6,26.6,91.4,26.7,92.3,26.8
		 M73.1,36.6c0-0.1,0-0.2,0-0.3c0.4-1.4,0.8-2.8,1.3-4.1c0.4-1.1,0.9-2.1,1.3-3.2c0.2-0.5,0.5-0.5,0.9-0.3c0.1,0,0.1,0.1,0.2,0.2
		c0.7,0.5,1.4,1.1,2.2,1.5c0.7,0.4,1.5,0.7,2.2,1c0.8,0.4,1.6,0.8,2.5,1.2c0.5,0.3,0.5,0.6,0.1,1c-0.1,0.1-0.2,0.1-0.2,0.2
		c-0.8,0.6-1.6,1.1-2.4,1.7c-0.4,0.3-0.8,0.7-1.2,1c-1.2,1.1-2.5,2.2-3.7,3.3c-0.4,0.3-0.7,0.3-1-0.1c-0.5-0.9-1.3-1.5-1.9-2.3
		C73.2,37.2,73.1,36.9,73.1,36.6 M94.5,61c0,0-0.1,0-0.1,0c-0.2-0.3-0.5-0.6-0.7-1c-0.7-0.9-1.3-1.9-2-2.9c-0.3-0.4-0.6-0.6-1-0.8
		c-0.5-0.3-1.1-0.6-1.2-1.3c0-0.1-0.1-0.2-0.2-0.3c-0.6-0.6-1.3-1.2-2.2-1.5c-0.5-0.2-1.1-0.4-1.6-0.6c-0.8-0.3-1.6-0.6-2.4-1
		c-0.7-0.3-1.5-0.6-2.2-0.9c-0.8-0.3-1.6-0.6-2.4-0.9c-0.3-0.1-0.4-0.3-0.4-0.6c-0.2-0.9-0.4-1.8-0.6-2.7c-0.1-0.4,0-0.8,0.2-1.1
		c0.4-0.4,0.7-0.7,1.1-1.1c0.8-0.8,1.7-1.6,2.5-2.4c0.6-0.6,1.2-1.2,1.9-1.8c0.9-0.9,1.9-1.8,2.8-2.6c0.7-0.6,1.4-1.2,2.1-1.8
		c0.2-0.2,0.5-0.2,0.8-0.1c0.4,0.2,0.9,0.4,1.4,0.6c0.6,0.2,1,0.7,1.1,1.3c0.2,0.9,0.5,1.9,0.7,2.8c0.2,0.7,0.3,1.3,0.4,2
		c0.2,1.4,0.5,2.9,0.7,4.3c0.1,0.5,0.2,1.1,0.3,1.7c0.1,0.8,0.2,1.6,0.3,2.4c0.1,0.9,0.2,1.9,0.3,2.9c0.1,0.7,0,1.5,0.2,2.2
		c0.2,1,0.4,2.1,0.3,3.2c0,0.1,0,0.3,0,0.4C94.8,60,94.6,60.5,94.5,61 M97.4,29.6c0.4,0.3,0.7,0.6,1.1,0.9c0.6,0.5,1.2,1,1.9,1.4
		c1.2,0.6,2.4,1.2,3.7,1.6c1,0.3,2.1,0.7,3.1,1c0.8,0.3,1.6,0.7,2.4,0.8c0.1,0,0.2,0.1,0.2,0.2c0.3,0.3,0.7,0.6,1,0.9
		c0.6,0.8,1.2,1.6,1.8,2.4c0.2,0.2,0.3,0.5,0.5,0.7c0.6,0.8,1.3,1.7,1.9,2.6c0.6,1.1,1.4,2.1,2.1,3.2c0.4,0.6,0.7,1.3,1.1,2
		c0.3,0.5,0.6,1,0.8,1.5c0.3,0.7,0.7,1.5,1,2.2c0.4,0.8,0.7,1.6,1.1,2.4c0.3,0.7,0.8,1.4,1.1,2.1c0.4,1,0.8,2.1,1.2,3.2
		c0.2,0.5,0.4,1,0.6,1.6c0,0.1,0.1,0.2,0.1,0.3c0,0.6,0.4,1,0.6,1.5c0.1,0.2,0.3,0.3,0.6,0.3c0.2,0,0.3-0.2,0.3-0.4
		c0.1-0.3,0.1-0.5,0-0.8c-0.5-1.2-0.9-2.4-1.4-3.6c-0.4-1-0.7-2-1.1-3c-0.1-0.3-0.3-0.5-0.4-0.8c-0.3-0.6-0.5-1.3-0.8-2
		c-0.5-1.3-1-2.6-1.8-3.8c-0.3-0.5-0.5-1-0.8-1.6c-0.4-0.8-0.8-1.7-1.2-2.4c-0.5-0.8-1.1-1.6-1.6-2.3c-0.6-0.9-1.2-1.8-1.8-2.6
		c-0.4-0.6-0.9-1.1-1.3-1.7c-0.2-0.2-0.4-0.4-0.3-0.8c0.2-0.2,0.5-0.1,0.7,0c0.7,0.3,1.3,0.6,2,0.9c0.5,0.2,1.1,0.4,1.7,0.6
		c0.8,0.3,1.6,0.6,2.3,1.1c0.1,0.1,0.2,0.2,0.4,0.2c1.5,0.8,3,1.6,4.5,2.3c0.9,0.4,1.9,0.6,2.9,0.4c0.4-0.1,0.6,0,0.8,0.3
		c0.4,0.6,0.9,1.1,1.4,1.7c0.4,0.5,0.8,1,1.3,1.5c0.5,0.7,1.1,1.4,1.6,2.1c1,1.4,2,2.9,3,4.3c0.3,0.4,0.6,0.7,0.9,1.2
		c0.4,0.6,0.8,1.3,1.2,2c0.7,1.3,1.4,2.6,2.2,3.8c0.8,1.2,1.4,2.6,2.1,3.9c0.6,1.3,1.2,2.7,1.9,4.1c0.3,0.6,0.6,1.3,0.6,2
		c0,0.3,0.1,0.5,0.5,0.7c0.4,0.1,0.5,0.5,0.6,0.9c0.2,0.6,0.3,1.3,0.6,1.9c0.5,0.9,0.7,1.8,0.9,2.7c0.4,1.3,0.7,2.7,1.1,4
		c0.2,0.5,0.5,1,0.8,1.5c0.1,0.1,0.3,0.2,0.5,0.1c0.2,0,0.5-0.4,0.5-0.6c-0.1-0.7-0.2-1.4-0.4-2c-0.3-1.1-0.7-2.1-1-3.2
		c-0.2-0.6-0.3-1.3-0.5-2c-0.1-0.4-0.3-0.9-0.5-1.3c-0.2-0.5-0.4-1-0.6-1.5c-0.3-0.8-0.6-1.6-0.6-2.5c0-0.1-0.1-0.3-0.2-0.4
		c-0.8-1.1-1.4-2.4-2-3.6c-0.2-0.3-0.4-0.7-0.5-1c-0.4-0.8-0.9-1.6-1.3-2.5c-0.6-1.1-1.2-2.3-1.8-3.4c-0.3-0.7-0.7-1.3-1.1-1.9
		c-0.4-0.6-0.8-1.3-1.2-1.9c-0.4-0.6-0.8-1.3-1.1-1.9c0-0.1-0.1-0.1-0.1-0.2c-0.6-0.9-1.1-1.8-1.7-2.7c-0.2-0.3-0.4-0.5-0.6-0.8
		c-0.5-0.8-1.1-1.6-1.6-2.3c-0.6-0.8-1.2-1.7-1.8-2.6c-0.3-0.5-0.7-1-1.1-1.5c-0.1-0.1-0.3-0.2-0.4-0.3c-0.7-0.4-1.4-0.9-1.9-1.5
		c-0.1-0.2-0.3-0.3-0.5-0.4c-0.8-0.4-1.6-0.8-2.4-1.3c-1.2-0.6-2.4-1.2-3.6-1.7c-1.4-0.6-2.8-1.2-4.2-1.7c-0.9-0.4-1.9-0.7-2.8-1.1
		c-0.6-0.2-1.3-0.5-2-0.6c-0.8-0.2-1.4-0.6-2.1-0.8c-0.2,0-0.3-0.1-0.5-0.2c-0.5-0.2-0.9-0.4-1.3-0.9c-0.6-0.7-1.2-1.5-1.9-2.1
		c-1-0.9-2.1-1.7-3.4-2.2c-0.7-0.2-1.4-0.6-2.1-0.9c-0.4-0.1-0.8-0.3-1.2-0.4c-0.1,0-0.2,0-0.3,0c-1.5-0.7-3.1-1-4.7-1.6
		c-0.7-0.2-1.5-0.3-2.2-0.4c-1.6-0.3-3.3-0.7-4.8-1.2c-0.1,0-0.3-0.1-0.4-0.1c-0.6-0.2-1.2-0.4-1.6-0.9c-0.4-0.5-1-0.8-1.7-0.8
		c-0.3,0-0.6-0.1-0.9-0.3c-0.7-0.3-1.3-0.6-2-1c-0.1,0-0.3-0.1-0.4-0.1c-0.5,0-1,0-1.5,0c-0.9-0.1-1.6,0.3-2.1,1
		c-0.2,0.3-0.4,0.3-0.7,0.3c-0.6,0-1,0.3-1.3,0.8c-0.5,1.1-1,2.2-1.6,3.2c-0.4,0.8-0.7,1.7-1.4,2.4c-0.3,0.3-0.5,0.8-0.8,1.2
		c-0.6,1.1-1.2,2.1-1.8,3.2c-0.2,0.4-0.3,0.8-0.5,1.1c-0.1,0.2-0.2,0.4-0.3,0.5c-0.3,0.3-0.8,0.1-0.9-0.3c0,0,0,0,0,0
		c0-1.5-1-2.3-2.2-3c-0.9-0.6-1.8-0.7-2.8-0.5c-0.1,0-0.2,0-0.2,0c-0.3,0-0.4-0.1-0.4-0.5c0.2-1.7,0.1-3.4,0.1-5.1
		c0-0.6-0.2-1.2-0.3-1.8c-0.1-0.4-0.2-0.8-0.3-1.2c-0.1-0.8-0.5-1.5-0.8-2.2c-0.3-0.8-0.7-1.6-1.1-2.4c-0.4-0.8-0.8-1.5-1.4-2.2
		c-0.3-0.3-0.6-0.7-0.8-1c-1.1-1.4-2.3-2.6-3.6-3.8c-0.3-0.3-0.6-0.5-1-0.7c-0.9-0.5-1.7-1.1-2.6-1.6c-0.6-0.3-1.1-0.7-1.7-1
		c-0.7-0.2-1.4-0.5-2-0.7c-0.8-0.2-1.5-0.5-2.3-0.7c0,0-0.1,0-0.2,0c-0.8-0.1-1.6-0.2-2.4-0.3c-0.7-0.1-1.3-0.2-2-0.2
		c-1.1-0.1-2.2-0.1-3.3,0.1c-0.8,0.2-1.6,0.2-2.4,0.4c-1.1,0.3-2.3,0.5-3.4,1c-0.7,0.3-1.6,0.6-2.3,0.9c-0.8,0.3-1.6,0.7-2.4,1.1
		c-2.2,1-4.1,2.4-5.7,4.3c-0.7,0.8-1.2,1.7-1.9,2.5c-1,1.3-1.4,2.8-2,4.3c-0.2,0.6-0.5,1.2-0.7,1.8c-0.1,0.5-0.2,1-0.4,1.5
		c-0.2,0.7-0.5,1.4-0.7,2c0,0,0,0.1,0,0.2c0,1.1-0.3,2.2-0.6,3.3c-0.1,0.5-0.2,1.1-0.2,1.6c0,0.1-0.1,0.3-0.1,0.5
		c0,0.2-0.1,0.4-0.1,0.7c0,0.4,0.1,0.8,0.1,1.2c0.1,1,0.2,2,0.3,3c0,0.4,0.2,0.8,0.3,1.1c0.1,0.2,0,0.4-0.1,0.6
		c-0.2,0.2-0.3,0.4-0.5,0.6c-0.7,0.7-1.4,1.5-2.1,2.2c-0.4,0.4-0.8,0.9-1.2,1.4c-0.4,0.4-0.9,0.8-1.3,1.3c-0.5,0.5-1.1,1.1-1.6,1.7
		c-0.2,0.2-0.4,0.5-0.6,0.7c-0.6,0.6-1.3,1.3-2,1.9c-0.4,0.4-0.7,0.7-1.1,1.1C3,46.6,2.4,47.3,1.8,48c-0.2,0.3-0.4,0.6-0.4,1
		c-0.1,1.6-0.2,3.2-0.2,4.8C1,55.2,1,56.5,0.9,58c0,2.2,0,4.3-0.1,6.5c0,1-0.1,2-0.1,3c0,1.8-0.1,3.5-0.1,5.3c0,1.5-0.1,3-0.1,4.5
		c0,1.3,0,2.7,0,4c0,1.2-0.2,2.4-0.3,3.5C0,85.5,0,86.3,0,87c0,0.2,0.1,0.4,0.2,0.5c0.2,0.3,0.7,0.3,0.9,0c0.2-0.3,0.3-0.6,0.4-1
		c0.3-1,0.5-2,0.8-3c0-0.1,0-0.2,0-0.4c0-1.7,0-3.4,0-5.1c0-0.4,0-0.8,0.1-1.2c0.1-0.6,0.1-1.3,0-1.9c-0.1-0.8-0.1-1.6-0.1-2.4
		c0-0.6,0-1.3,0-1.9c0-0.9,0-1.9,0.1-2.9c0.2-1.3,0.1-2.6,0.2-3.9c0-0.4,0-0.7,0.1-1.1C3,62.1,3,61.3,3,60.4c0-0.8,0-1.5,0.1-2.3
		c0.1-0.9,0.1-1.9,0.2-2.9c0.1-0.9,0.3-1.8,0.6-2.6c0.4-1,1.1-1.8,2.1-2.2c0.2-0.1,0.3-0.3,0.4-0.5c0.4-1.2,1.2-2.1,1.9-3.1
		c0.8-1.1,1.7-2,2.6-3c0.8-0.9,1.6-1.8,2.5-2.7c0.4-0.5,0.8-1,1.2-1.4c0.5-0.5,0.6-0.5,0.9,0.2c0.1,0.4,0.2,0.8,0.3,1.1
		c0.2,0.8,0.5,1.6,1,2.3c0.6,0.7,1,1.5,1.5,2.3c0.1,0.2,0.2,0.4,0.2,0.6c0.1,0.7,0.6,1,1.2,1.2c1.1,0.4,2.3,0.3,3.5,0.3
		c0.4,0,0.9-0.2,1.2-0.4c0.5-0.4,1-0.3,1.6-0.3c1.4,0,2.9,0,4.3,0c0.3,0,0.6,0,1,0c0.1,0.4-0.2,0.7-0.3,1c-0.7,1.1-1.4,2.2-2.1,3.3
		c-0.4,0.7-0.8,1.5-1.2,2.3c-0.1,0.2-0.1,0.4,0,0.6c0.5,0.8,0.5,1.8,0.7,2.7c0.2,1.2,0.4,2.4,0.7,3.6c0,0.1,0.1,0.2,0.1,0.3
		c0.1,0.8,0.2,1.7,0.3,2.5c0,0.4,0.2,0.8,0.3,1.1c0.2,0.9,0.5,1.9,0.5,2.9c0,0.7,0.2,1.4,0.3,2.2c0.1,0.3,0.3,0.7,0.5,0.9
		c0.1,0.1,0.4,0.2,0.6,0.2c0.2,0,0.4-0.2,0.4-0.4c0.1-0.5,0.2-1.1,0-1.7c-0.2-1-0.3-2.1-0.5-3.1c-0.1-0.4-0.1-0.9-0.2-1.4
		c-0.2-1-0.3-2-0.5-2.9c0-0.2-0.1-0.5-0.1-0.7c-0.1-1.1-0.4-2.1-0.3-3.2c0-0.7,0.1-1.4,0.7-1.9c0.3-0.3,0.5-0.7,0.7-1.2
		c0.4-0.7,0.7-1.5,1-2.3c0.2-0.4,0.3-0.9,0.6-1.3c0.4-0.8,0.8-1.6,1.2-2.4c0.2-0.4,0.4-0.9,0.7-1.4c0.1-0.1,0.2-0.3,0.4-0.3
		c0.5-0.1,1-0.3,1.5-0.4c0.4-0.1,0.8-0.2,1.3-0.3c0.7-0.2,0.8-0.1,1.2,0.4c0.3,0.5,0.7,1,1.1,1.4c0.4,0.5,0.9,0.7,1.5,1
		c0.8,0.4,1.7,0.8,2.4,1.5c1,1.1,0.8,0.6,0.8,2c0,0.6,0,1.3,0,1.9c0,0.2,0.1,0.4,0.2,0.6c0.3,0.3,0.3,0.7,0.3,1c0,1.5,0,3.1,0,4.6
		c0,1.9,0,3.8,0,5.8c0,2.2,0,4.3,0,6.5c0,0.2,0,0.4,0,0.6c0,0.3,0.1,0.4,0.4,0.5c0.2,0,0.6-0.2,0.6-0.4c0-0.3,0-0.5,0.1-0.8
		c0-0.7-0.1-1.4,0.2-2c0,0,0,0,0,0c0.1-1.1,0.2-2.2,0.3-3.4c0-0.9,0-1.8,0.1-2.6c0-0.7,0.1-1.3,0.2-2c0-0.8,0-1.7,0.1-2.5
		c0.1-1.1,0.2-2.3,0.3-3.4c0,0,0,0,0,0c0-0.7,0.2-1.2,0.7-1.7c0.3-0.3,0.3-0.8,0.3-1.2c0-0.2,0-0.4,0-0.7c0-0.2,0.2-0.4,0.4-0.5
		c0.5-0.2,1-0.4,1.5-0.6c0.3-0.1,0.4-0.1,0.6,0.2c0.2,0.3,0.3,0.7,0.6,1c0.6,1,1.3,1.9,2.5,2.4c0.4,0.1,0.7,0.4,1.1,0.6
		c0.5,0.2,1.1,0.2,1.7,0c0.2-0.1,0.5-0.1,0.8-0.2c0.3,0.6,0.6,1.1,0.9,1.6c0.3,0.5,0.8,0.9,1.3,1.2c0.6,0.3,1.7,0.1,2.2-0.4
		c0.3-0.3,0.6-0.5,0.9-0.7c0.5-0.4,0.9-0.8,1.1-1.4c0.2-0.4,0.4-0.8,0.9-0.8c0.1,0,0.2,0,0.4,0.1c-0.5,1-1,1.9-1.8,2.7
		c-0.5,0.5-1.1,1.1-1.7,1.6c-0.2,0.3-0.5,0.6-0.7,0.9c-0.2,0.4-0.3,0.8,0,1.3c0.6,0.2,1.3-0.1,1.8-0.5c0.9-0.7,1.7-1.5,2.6-2.3
		c0.8-0.7,1.4-1.6,2.1-2.4c0.4-0.6,0.8-1.3,1.2-1.9c0.4-0.7,0.3-1.4,0-2.2c-0.2-0.4-0.4-0.9-0.6-1.3c0.3-0.2,0.6-0.2,0.9,0
		c0.9,0.7,2,1.1,3.1,1.6c0.3,0.1,0.6,0.3,1,0.5c0.4,0.1,0.8,0.3,1.2,0.4c0.9,0.2,1.6,0.6,2.3,1.1c0.1,0.1,0.2,0.2,0.2,0.3
		c0.4,0.8,0.5,1.7,0.7,2.5c0.2,1,0.4,2,0.6,3c0.2,0.9,0.5,1.7,0.8,2.6c0.2,0.7,0.3,1.4,0.4,2.1c0.2,1.1,0.4,2.2,0.7,3.3
		c0.1,0.6,0.3,1.2,0.7,1.7c0.1,0.1,0.3,0.1,0.4,0.2c0.1-0.1,0.2-0.3,0.2-0.4c0-0.9,0-1.9-0.3-2.8c-0.3-1.3-0.6-2.6-0.8-3.8
		c-0.1-0.3-0.2-0.7-0.2-1c-0.1-0.5-0.1-1.1-0.2-1.7c0-0.2-0.1-0.4-0.1-0.6c0-0.1-0.1-0.1-0.1-0.2c-0.1-0.6-0.2-1.3-0.4-1.9
		c-0.2-0.9-0.5-1.8-0.8-2.7c0.1,0,0.3-0.1,0.4,0c0.8,0.3,1.6,0.5,2.4,0.9c1.2,0.5,2.4,1.1,3.5,1.7c1,0.5,2.1,0.8,3.2,0.8
		c0.6,0,1,0.3,1.3,0.7c0.7,0.9,1.4,1.8,2.2,2.6c0.4,0.3,0.6,0.8,0.9,1.2c0.2,0.3,0.5,0.6,0.7,0.9c0.4,0.6,0.7,1.1,1.1,1.7
		c0.3,0.5,0.7,0.9,1,1.4c0.6,0.8,1.2,1.7,1.8,2.6c0.4,0.6,0.8,1.3,1.2,2c0.5,0.8,0.9,1.6,1.4,2.3c0.8,1.3,1.5,2.7,2.1,4.1
		c0.3,0.7,0.7,1.3,1,2c0.6,1.4,1.3,2.8,1.9,4.3c0.1,0.3,0.1,0.6,0.2,0.8c0.1,0.2,0.1,0.5,0.3,0.6c0.7,0.4,0.8,1.1,1,1.8
		c0.2,0.5,0.3,0.9,0.5,1.4c0.2,0.8,0.5,1.6,0.7,2.4c0.4,1.4,0.8,2.9,1.2,4.3c0.1,0.4,0.4,0.9,0.7,1.3c0.2,0.3,0.4,0.3,0.6,0
		c0.4-0.4,0.3-0.8,0.3-1.3c-0.1-0.6-0.3-1.3-0.4-1.9c-0.4-1.4-0.9-2.8-1.3-4.2c-0.1-0.4-0.3-0.8-0.4-1.2c-0.3-1-0.7-1.9-1-2.9
		c-0.1-0.5-0.3-1-0.4-1.4c0-0.3-0.1-0.5-0.3-0.7c-0.1-0.1-0.2-0.3-0.3-0.5c-0.4-0.9-0.9-1.8-1.3-2.7c-0.6-1.1-1.2-2.3-1.8-3.4
		c-0.8-1.4-1.6-2.8-2.4-4.3c-0.6-1.2-1.3-2.4-2.1-3.5c-0.5-0.7-1-1.3-1.5-2.1c-0.5-0.8-0.9-1.6-1.3-2.4C97,64.3,97,64,97,63.9
		c0-0.9,0-1.8-0.2-2.7c-0.1-0.4-0.1-0.7-0.1-1.1c-0.1-1-0.3-2.1-0.4-3.2c-0.1-0.7,0-1.5-0.1-2.2c-0.2-1.1-0.1-2.2-0.4-3.3
		c-0.1-0.4,0-0.8-0.1-1.2c-0.2-2.1-0.4-4.1-0.7-6.2c-0.1-0.7-0.3-1.5-0.4-2.2c0-0.4-0.1-0.7-0.1-1.1c-0.1-1.3-0.3-2.6-0.6-3.9
		c-0.2-0.8-0.5-1.7-0.8-2.5c-0.1-0.3-0.3-0.5-0.5-0.7c-0.4-0.4-0.4-0.6,0-1c0.6-0.6,1.3-1.1,2.2-1.2c0.8-0.1,1.4-0.7,2.1-1.1
		C96.7,30.1,97,29.9,97.4,29.6"/>
</g>
</svg>
