<?xml version="1.0" encoding="utf-8"?>
<!-- Generator: Adobe Illustrator 23.1.1, SVG Export Plug-In . SVG Version: 6.00 Build 0)  -->
<svg version="1.1" id="Layer_1" xmlns="http://www.w3.org/2000/svg" xmlns:xlink="http://www.w3.org/1999/xlink" x="0px" y="0px"
	 viewBox="0 0 100 100" style="enable-background:new 0 0 100 100;" xml:space="preserve">
<g>
	<path d="M100,47.9c0-1.2-0.1-2.5-0.4-3.7c-0.8-3.5-2.5-6.6-4.5-9.5c-4-5.8-9.5-10-15.8-13c-7.1-3.3-14.7-4.9-22.4-5.5
		C48,15.5,39.2,15.8,30.4,17c-5.1,0.7-10.3,1.7-15.4,2.6c-3,0.5-5.9,1.3-8.5,3C2.7,25,0.2,28.2,0.1,32.9C0,38.4,0,44,0.1,49.6
		c0,1.2,0.3,2.5,0.7,3.6c1.7,4,5.2,5.9,9.3,6.7c3.5,0.7,7.1,1,10.7,1.5c2.9,0.5,5.5,1.6,8,3.2c3.4,2.3,6.2,5.2,8.8,8.2
		c2.3,2.6,4.7,5.1,7.8,6.7c4.8,2.5,10,3.8,15.3,4.3c7.7,0.8,15.3,0.1,22.7-2.3c4.8-1.5,9.3-3.7,12.7-7.5c2.2-2.4,3.7-5.2,3.8-8.5
		c0.1-3.1,0-6.3,0-9.4c0,0,0,0,0,0C100,53.4,100,50.6,100,47.9z M90.4,57.1c-5,3.7-10.8,5.3-16.9,6c-5.2,0.7-10.5,0.5-15.7-0.3
		c-5.2-0.9-10.3-2.5-14.4-6c-1.7-1.4-3-3.2-4.6-4.8c-3.3-3.5-6.6-6.9-11.1-8.9c-3.6-1.6-7.4-2.1-11.2-2.5c-3.5-0.3-6.8-1-9.8-3.1
		c-4-2.8-4.2-7.2-0.5-10.5c2.9-2.5,6.4-3.7,10-4.5c6.7-1.6,13.5-2.7,20.4-3.2c3.5-0.2,6.9-0.4,10.4-0.6c6.8,0.1,13.6,0.7,20.3,2.2
		c6.4,1.5,12.4,3.8,17.7,7.8c4.7,3.5,8.3,8,10.1,13.6C97.1,48.3,95.5,53.3,90.4,57.1z"/>
	<path d="M78,34c1.6-0.9,3.2-1.9,4.8-2.8c0-0.1,0-0.2-0.1-0.3c-1.9-1.2-3.9-2.4-5.8-3.6c-0.2-0.1-0.6,0-0.9,0.2
		c-1.6,0.9-3.2,1.8-4.8,2.8c-7.8,4.5-15.5,9-23.3,13.5c-2.6,1.5-5.2,3-7.9,4.6c1.4,1.5,2.8,2.8,4.1,4.2c0.5,0.6,1,0.5,1.6,0.2
		c6.8-3.9,13.6-7.9,20.4-11.8C70.1,38.6,74,36.3,78,34z"/>
	<path d="M85.1,41.9c1.6-0.9,3.1-1.8,4.8-2.8c-1.1-1.5-2.1-2.8-3-4.2c-0.6-0.8-1.1-1-2-0.4c-5.8,3.4-11.7,6.8-17.6,10.2
		c-4,2.3-7.9,4.6-11.9,6.9c-2.3,1.3-4.5,2.6-6.8,4c0,0.1,0,0.3-0.1,0.4c2.2,0.9,4.4,1.8,6.6,2.6c0.5,0.2,1.2,0,1.7-0.2
		c2.4-1.3,4.8-2.7,7.1-4.1C71,50,78.1,46,85.1,41.9z"/>
	<path d="M71.3,25.2c-2.6-0.7-5.2-1.3-7.8-1.9c-0.3-0.1-0.8,0-1.1,0.2c-4.2,2.4-8.3,4.8-12.5,7.2c-3.9,2.3-7.8,4.5-11.7,6.8
		c-2.1,1.2-4.3,2.5-6.4,3.7c1.8,1.5,3.6,2.9,5.4,4.4c11.5-6.6,23-13.3,34.6-20C71.6,25.4,71.5,25.2,71.3,25.2z"/>
	<path d="M51.2,25.5c1.7-1,3.4-2,5.1-3c0-0.1,0-0.2-0.1-0.4c-3.8-0.1-7.7-0.2-11.5-0.2c-0.3,0-0.7,0.2-1,0.3
		c-3.1,1.7-6.1,3.5-9.2,5.3c-4,2.3-8,4.6-11.9,6.9c-1.8,1-3.5,2.1-5.4,3.2c0.3,0.1,0.5,0.1,0.6,0.1c3.1,0.5,6.3,0.9,9.4,1.4
		c0.3,0,0.6-0.1,0.9-0.2c4.5-2.5,8.9-5.1,13.3-7.7C44.6,29.3,47.9,27.4,51.2,25.5z"/>
	<path d="M61.8,59.8c0.2,0.1,0.3,0.2,0.4,0.3c0.9,0.1,1.8,0.3,2.7,0.3c5.5,0.4,10.8-0.1,16-2c3.8-1.4,7.3-3.4,9.5-7.1
		c1.6-2.7,1.6-5.5,1-8.5C81.3,48.5,71.6,54.1,61.8,59.8z"/>
	<path d="M30.3,25.5c1.7-1,3.4-2,5.3-3.1c-0.6,0-0.9,0-1.2,0c-5.1,0.7-10.2,1.3-15.3,2.2c-3.3,0.6-6.5,1.6-9.2,3.7
		c-3,2.4-2.9,5.1,0.3,7.1c0.3,0.2,0.6,0.3,0.9,0.4c0.4,0.1,0.9,0.1,1.2,0c2.1-1.1,4.2-2.3,6.2-3.5C22.5,30.1,26.4,27.8,30.3,25.5z"
		/>
</g>
</svg>
