<?xml version="1.0" encoding="utf-8"?>
<!-- Generator: Adobe Illustrator 23.1.1, SVG Export Plug-In . SVG Version: 6.00 Build 0)  -->
<svg version="1.1" id="Layer_1" xmlns="http://www.w3.org/2000/svg" xmlns:xlink="http://www.w3.org/1999/xlink" x="0px" y="0px"
	 viewBox="0 0 100 100" style="enable-background:new 0 0 100 100;" xml:space="preserve">
<path d="M99.9,46.9c-1.9,1.7-3.7,3.6-5.8,5.1C88.9,55.6,83,57,76.8,56.7c-1.5-0.1-1.5-0.1-1.9,1.3c-2.5,7.8-3.8,20.8-4.4,28.8
	c0,0.3-0.1,0.6-0.1,0.9c0,0.1-0.1,0.2-0.1,0.4c-13.5,0-27,0-40.6,0c-0.1-1.9-0.4-8.8-0.5-10.8c-0.7-6.9-2.2-13.6-4.3-20.2
	c-0.2-0.7-0.6-0.6-1.1-0.6c-4.5,0.3-8.8-0.3-13-2c-4.1-1.6-7.5-4.3-10.4-7.5C0.1,46.9,0,46.4,0,46.1c0.2-7.8,2.2-15.3,5.7-22.3
	c1-1.9,2-4,3.1-5.8c0.2-0.4,0.7-0.7,1.2-0.8c4.2-1,8.4-0.9,12.5,0.1c0.6,0.1,0.7,0.4,0.7,0.9C23.2,21,23,23.8,23,26.7
	c0,0.6-0.2,0.8-0.8,1c-1.3,0.4-2.5,0.8-3.8,1.3c-0.3,0.1-0.7,0.4-0.7,0.7c-0.1,2.6,0,5.2,0,7.8c2.2-0.7,4.3-1.5,6.3-1.9
	c5-1.1,10.1-1,15,0.6c0.7,0.2,1.6-0.1,2.7-0.2c-0.4-1-0.6-1.8-0.9-2.5c-1.5-3.2-2.7-6.5-2.9-10.1c-0.3-4.2,0.4-8.1,3.7-11.2
	c3.4-3.3,7.6-4,12-2.8c4.5,1.3,7.1,4.5,8,9c1,4.7,0,9.2-1.9,13.5c-0.5,1.3-1,2.5-1.6,3.8c1.2,0.6,2.2,0.7,3.4,0.4
	c6.6-2,13-1.4,19.3,1.1c0.3,0.1,0.7,0.3,1,0.4c0,0,0.1,0,0.3-0.1c0.1-2.1,0.1-4.3,0.1-6.3c0-1.9-0.1-1.9-1.8-2.4
	c-1-0.3-1.9-0.6-2.8-1c-0.3-0.1-0.6-0.5-0.6-0.8c-0.1-2.9-0.2-5.8-0.3-8.7c0-0.5,0.1-0.7,0.7-0.8c4.3-1,8.5-1.2,12.8-0.1
	c0.3,0.1,0.7,0.3,0.9,0.6c3.5,6.1,6.6,12.4,7.9,19.4c0.4,2.2,0.6,4.3,0.9,6.5c0.1,0.4,0.1,0.7,0.1,1C99.9,45.3,99.9,46.1,99.9,46.9z
	"/>
</svg>
