<?xml version="1.0" encoding="utf-8"?>
<!-- Generator: Adobe Illustrator 23.1.1, SVG Export Plug-In . SVG Version: 6.00 Build 0)  -->
<svg version="1.1" id="Layer_1" xmlns="http://www.w3.org/2000/svg" xmlns:xlink="http://www.w3.org/1999/xlink" x="0px" y="0px"
	 viewBox="0 0 100 100" style="enable-background:new 0 0 100 100;" xml:space="preserve">
<path d="M76.9,50c0-14.8-12.1-26.9-26.9-26.9S23.1,35.2,23.1,50S35.2,76.9,50,76.9S76.9,64.8,76.9,50z M77.6,26.7
	c0.5-0.2,1.4-0.4,1.9-0.9c2.1-2,4.2-4,6.1-6.1c1.3-1.5,1.1-3.7-0.3-5.1c-1.4-1.3-3.6-1.5-5-0.2c-2.1,1.9-4.1,3.9-6,6
	c-1.1,1.1-1.2,2.6-0.5,4C74.4,25.9,75.6,26.5,77.6,26.7z M26.7,77.6c-0.2-2.1-0.9-3.3-2.4-3.9s-2.9-0.4-4.1,0.8
	c-1.9,1.8-3.7,3.6-5.5,5.5c-1.5,1.6-1.5,3.9,0,5.4s3.8,1.5,5.4,0c1.9-1.8,3.7-3.6,5.5-5.5C26.2,79.1,26.4,78.1,26.7,77.6z
	 M82.2,86.5c2.1-0.2,3.3-0.9,4-2.4s0.4-2.9-0.8-4.1c-1.8-1.9-3.6-3.7-5.5-5.5c-1.6-1.5-3.9-1.5-5.4,0c-1.6,1.5-1.6,3.8,0,5.5
	c1.7,1.8,3.5,3.6,5.4,5.3C80.6,85.9,81.7,86.2,82.2,86.5z M26.7,22.4c-0.2-0.5-0.4-1.4-0.9-1.9c-1.9-2.1-3.9-4.1-6-6
	c-1.5-1.4-3.7-1.1-5.1,0.3s-1.6,3.6-0.2,5c1.9,2.1,3.9,4.1,6,6c1.1,1.1,2.6,1.2,4,0.5C25.9,25.6,26.5,24.3,26.7,22.4z M100,51
	c-1,2.2-2.7,3-5.1,2.9c-2.1-0.1-4.1,0-6.2,0c-2.4,0-4.1-1.6-4.1-3.8s1.7-3.8,4.1-3.8c2.1,0,4.2,0.1,6.2,0C97.3,46,99,46.8,100,49
	C100,49.7,100,50.3,100,51z M49,100c-2.2-1-3-2.7-2.9-5.1c0.1-2.1,0-4.1,0-6.2c0-2.4,1.6-4.1,3.8-4.1s3.8,1.7,3.8,4.1
	c0,2.1-0.1,4.2,0,6.2C54,97.3,53.2,99,51,100C50.3,100,49.7,100,49,100z M0,49c1-2.2,2.7-3,5.1-2.9c2.1,0.1,4.1,0,6.2,0
	c2.3,0,4,1.6,4,3.8s-1.7,3.8-4.1,3.8c-2.1,0-4.2-0.1-6.2,0C2.7,54,1,53.2,0,51C0,50.3,0,49.7,0,49z M51,0c2.2,1,3,2.7,2.9,5.1
	c-0.1,2.1,0,4.1,0,6.2c0,2.3-1.7,4.1-3.8,4c-2.2,0-3.8-1.7-3.8-4.1c0-2.1,0.1-4.2,0-6.2C46,2.7,46.8,1,49,0C49.7,0,50.3,0,51,0z"/>
</svg>
