<?xml version="1.0" encoding="utf-8"?>
<!-- Generator: Adobe Illustrator 23.1.1, SVG Export Plug-In . SVG Version: 6.00 Build 0)  -->
<svg version="1.1" id="Layer_1" xmlns="http://www.w3.org/2000/svg" xmlns:xlink="http://www.w3.org/1999/xlink" x="0px" y="0px"
	 viewBox="0 0 100 100" style="enable-background:new 0 0 100 100;" xml:space="preserve">
<path d="M14.9,97.5c2.4-2.4,3.1-5.9,2.1-8.9c3-2.2,6-4.8,8.9-7.7c1.9-1.9,3.6-3.8,5.2-5.7l9.4,9.4l3.3-3.3l-5.9-5.9l56.5-56.5L100,0
	L81.2,5.7L24.7,62.2l-5.9-5.9l-3.3,3.3l9.4,9.4c-1.9,1.6-3.8,3.3-5.7,5.2c-2.9,2.9-5.4,5.9-7.7,8.9c-3-1-6.5-0.3-8.9,2.1
	c-3.4,3.4-3.4,8.9,0,12.3C5.9,100.8,11.5,100.8,14.9,97.5z M83,9.2l11.3-3.4l-13,13L83,9.2z M6.1,88.7c1.4-1.4,3.8-1.4,5.2,0
	c1.4,1.4,1.4,3.8,0,5.2c-1.4,1.4-3.8,1.4-5.2,0C4.7,92.5,4.7,90.1,6.1,88.7z"/>
</svg>
