<?xml version="1.0" encoding="utf-8"?>
<!-- Generator: Adobe Illustrator 23.1.1, SVG Export Plug-In . SVG Version: 6.00 Build 0)  -->
<svg version="1.1" id="Layer_1" xmlns="http://www.w3.org/2000/svg" xmlns:xlink="http://www.w3.org/1999/xlink" x="0px" y="0px"
	 viewBox="0 0 200 100" style="enable-background:new 0 0 200 100;" xml:space="preserve">
<path d="M20,100c0-36.5,0-50,0-86.7c-4.6,0-8.9,0-13.5,0c0-4.7,0-8.8,0-13.3c68.3,0,119.5,0,188,0c0,4.3,0,8.4,0,12.9
	c-4.3,0-8.4,0-13.1,0c0,36.6,0,50.3,0,86.9c-4.8,0-9,0-13.9,0c0-27.1,0-31.7,0-59.1c-50.5,0-83.4,0-133.9,0c0,27.3,0,31.8,0,59.2
	C29,100,24.8,100,20,100z M167.3,13.5c-50.5,0-83.5,0-133.5,0c0,4.7,0,9,0,13.3c50.3,0,83.4,0,133.5,0
	C167.3,22.2,167.3,18,167.3,13.5z"/>
</svg>
