<?xml version="1.0" encoding="utf-8"?>
<!-- Generator: Adobe Illustrator 24.1.3, SVG Export Plug-In . SVG Version: 6.00 Build 0)  -->
<svg version="1.1" id="Layer_1" xmlns="http://www.w3.org/2000/svg" xmlns:xlink="http://www.w3.org/1999/xlink" x="0px" y="0px"
	 viewBox="0 0 100 100" style="enable-background:new 0 0 100 100;" xml:space="preserve">
<path d="M2,92.5c26,0,52.1,0,78.1,0.1c1.3,0,2.7,0,4.5,0c-1.1,2.5-2,4.7-3.1,6.9c-0.2,0.4-1.1,0.6-1.7,0.6c-24.3,0-48.6,0-72.9,0
	c-0.7,0-1.7-0.8-2.1-1.5C3.7,96.7,2.9,94.8,2,93C2,92.8,2,92.6,2,92.5z M26,0c-1.1,1.3-0.7,2.4,0.3,3.7c2.6,3.3,2.1,5.8-1.4,8.1
	c-0.8,0.5-1.8,0.9-2.6,1.4c-3.3,1.7-5,4.7-4.6,7.8c0.4,2.8,3.9,6.5,6.8,6.9c0.6,0.1,1.7-0.4,2-0.9c0.2-0.5-0.2-1.6-0.7-2
	c-0.8-0.8-2-1.1-2.9-1.8c-2.7-2.2-2.4-5.1,0.6-6.9c1.6-0.9,3.3-1.7,4.6-2.9c3.9-3.4,4.3-7.3,1.3-11.5c-0.5-0.7-1.2-1.4-1.8-2.1
	C27,0,26.5,0,26,0z M42.5,0c-1.2,1.3-0.9,2.4,0.1,3.7c2.6,3.3,2.1,5.8-1.4,8.1c-0.8,0.5-1.6,0.9-2.4,1.3c-3.5,1.8-5.1,4.4-4.8,7.7
	c0.3,2.9,3.5,6.5,6.7,7.1c0.7,0.1,1.5-0.5,2.3-0.8c-0.4-0.7-0.6-1.6-1.1-2.2c-0.8-0.7-1.9-1.1-2.7-1.7c-2.6-2.1-2.3-5,0.5-6.7
	c0.9-0.5,2-0.9,2.9-1.5c5.8-3.4,6.7-8.7,2.4-13.8c-0.3-0.4-0.6-0.8-1-1.1C43.5,0,43,0,42.5,0z M59,0c-1.5,1.4-0.8,2.5,0.2,3.9
	c2.3,3.1,2,5.4-1.1,7.7c-1,0.7-2.2,1.2-3.3,1.8c-3.3,1.8-4.8,4.7-4.3,8c0.5,2.7,4,6.3,6.8,6.6c0.6,0.1,1.8-0.4,2-0.9
	c0.2-0.5-0.3-1.5-0.8-2c-0.5-0.5-1.5-0.6-1.9-1.1c-1-1.3-2.4-2.6-2.7-4.1c-0.4-1.9,1.4-3,3-3.8c8.1-4.1,9.2-8.8,3.6-16
	C60,0,59.5,0,59,0z M49.5,76.6c0-8.4,0-16.6,0-25.1c2.6,0,5.1,0,7.5,0c0-6.3,0-12.2,0-18.1c-16.2,0-32.3,0-48.5,0c0,1.2,0,2.1,0,3.1
	c0,11.7-0.2,23.3,0.1,35c0.1,3.7,1.3,7.5,2.8,11c1.9,4.4,5.6,6.5,10.6,6.4c14-0.1,28-0.2,42,0c6.3,0.1,10-2.8,12.3-8.2
	c1-2.3,1.3-5.5,3-6.6c1.9-1.2,5-0.3,7.6-0.3c6.8,0,11.1-4.3,11.1-11.1c0-6.1,0-12.2,0-18.2c0-7-4.2-11.2-11.2-11.3c-8,0-16,0-24,0
	c-0.7,0-1.5,0.1-2.3,0.1c0,6.1,0,12,0,18.3c1.9,0,3.7,0,5.6,0c0,8.4,0,16.6,0,25C60.5,76.6,55,76.6,49.5,76.6z M78.4,43
	c2.8,0,5.6-0.2,8.3,0.1c1.9,0.2,2.9,1.5,3,3.4c0,4.7,0.1,9.3,0,14c0,2-1,3.4-3.1,3.6c-2.6,0.2-5.3,0-8.1,0
	C78.4,56.9,78.4,50.1,78.4,43z"/>
</svg>
