<?xml version="1.0" encoding="utf-8"?>
<!-- Generator: Adobe Illustrator 24.1.3, SVG Export Plug-In . SVG Version: 6.00 Build 0)  -->
<svg version="1.1" id="Layer_1" xmlns="http://www.w3.org/2000/svg" xmlns:xlink="http://www.w3.org/1999/xlink" x="0px" y="0px"
	 viewBox="0 0 100 100" style="enable-background:new 0 0 100 100;" xml:space="preserve">
<path d="M49.2,42.9c7.6,0,15.6,0.4,23.5,2.1c2,0.5,4,1.2,5.9,1.9c2.6,1,3.9,2.9,3.5,5.9c-0.2,1.9-0.1,1.9,1.7,1.6
	c1.8-0.3,3.5-0.1,5.2,0.4c5.6,1.7,7.4,7.3,3.9,12c-2.3,3.1-5.4,5.1-8.9,6.6c-3.3,1.4-6.8,2.5-10.2,3.8c-0.6,0.2-1.3,0.6-1.7,1
	c-2.4,2.6-5,4.8-8.1,6.7C64,85,63.8,85,63.7,85.2c-1.8,2.4-4.4,3.4-7.3,3.8c-5,0.8-10.1,0.8-15.1-0.5c-2-0.5-3.7-1.5-5-3.1
	c-0.2-0.2-0.5-0.4-0.8-0.6C25.8,78.5,20.2,69.5,18.4,58c-0.3-2-0.4-4-0.6-6c-0.2-2.1,0.7-3.7,2.6-4.5c2.2-1,4.5-1.8,6.8-2.4
	C34.3,43.3,41.5,43,49.2,42.9z M49,57.4c7.3,0,13.6-0.4,19.8-1.4c3.2-0.5,6.3-1.1,9.2-2.6c1-0.5,2.3-1.1,2.3-2.4
	c0-1.4-1.2-2-2.3-2.4c-1.8-0.7-3.6-1.4-5.5-1.8c-6-1.4-12.1-1.9-18.2-2c-8.5-0.3-16.9,0.1-25.2,1.7c-2.8,0.5-5.5,1.1-8,2.6
	c-2.1,1.3-2.2,2.8,0,4c1.7,0.9,3.5,1.6,5.3,2C34.2,56.9,42.1,57.2,49,57.4z M77,71.9c0.2,0,0.4,0.1,0.5,0c3.9-0.8,7.6-2,10.8-4.5
	c1.3-1,2.3-2.2,2.8-3.8c0.9-2.7-0.5-5.2-3.2-5.9c-3.1-0.8-6,1.7-7,4.4c-1.1,3.1-2,6.2-3.6,9.1C77.2,71.3,77.1,71.6,77,71.9z
	 M92.4,74c2.6,2.4,2.6,5.2,0.1,7.7c-0.6,0.6-1.2,1.1-1.9,1.5c-1.9,1-3.7,2.1-5.7,2.8c-8.7,3.2-17.8,4.3-27,4.9
	c-8.2,0.5-16.4,0.2-24.6-0.8c-6.4-0.8-12.7-1.9-18.8-4.3c-2.7-1-5.2-2.3-7.3-4.4c-2.2-2.2-2.3-4.8-0.1-7c1-1.1,2.3-2.1,3.6-2.7
	c2.5-1.2,5.1-2.1,7.6-3.1c0.5-0.2,1-0.2,0.7-1c-0.2-0.6-0.4-1.1-1.2-0.7c-2.4,1-4.9,1.8-7.3,2.9c-2,0.9-3.8,2.2-5.2,4
	c-2.1,2.7-2.1,5.9,0.2,8.4c0.9,1,2,1.9,3.1,2.7c2,1.3,4.1,2.6,6.2,3.7c4.4,2.2,8.9,4.4,13.4,6.5c12,5.6,24.3,6.4,36.9,2.5
	c4.3-1.3,8.4-3.4,12.5-5.2c5.3-2.3,10.3-5.1,15-8.5c4.9-3.6,4.8-8.4,0.1-12.1c-1.1-0.9-1.4-0.8-2.4,0.4C91,72.8,91.7,73.4,92.4,74z
	 M57.2,0c-1.4,1.8-2.9,3.6-4.2,5.5c-3,4.4-3.2,8.9-0.5,13.5c0.8,1.4,1.6,2.9,2.3,4.3c1.3,2.7,1.8,5.5,1,8.5c-0.4,1.5-1.1,3-1.8,4.7
	c2.1-2.3,4-4.5,5.1-7.2c0.8-2.1,0.9-4.2-0.1-6.3c-0.6-1.3-1.1-2.5-1.9-3.7C53.9,14,53.7,8.6,56.2,3c0.4-0.9,0.8-1.9,1.3-2.8
	C57.4,0.1,57.3,0.1,57.2,0z M44.3,11.2c-0.9,1.6-1.9,3.1-2.8,4.7c-1.9,3.6-1.7,7.1,0.8,10.5c0.8,1,1.5,2.1,2.2,3.1
	c2,3,2.3,6.2,1,9.6c-0.1,0.2-0.2,0.5-0.2,0.8c0.1,0.1,0.2,0.1,0.3,0.2c0.9-1.7,1.9-3.4,2.7-5.2c1-2.2,0.6-4.4-0.7-6.4
	c-0.5-0.8-1-1.6-1.6-2.3c-3-3.8-3.5-8-2.1-12.6c0.2-0.7,0.5-1.5,0.7-2.2C44.5,11.3,44.4,11.3,44.3,11.2z"/>
</svg>
