<?xml version="1.0" encoding="utf-8"?>
<!-- Generator: Adobe Illustrator 24.1.3, SVG Export Plug-In . SVG Version: 6.00 Build 0)  -->
<svg version="1.1" id="Layer_1" xmlns="http://www.w3.org/2000/svg" xmlns:xlink="http://www.w3.org/1999/xlink" x="0px" y="0px"
	 viewBox="0 0 100 100" style="enable-background:new 0 0 100 100;" xml:space="preserve">
<path d="M129.1-12.3c21.9,0,43.8,0,65.6,0.1c1.1,0,2.2,0,3.8,0c-0.9,2.1-1.7,4-2.6,5.8C195.8-6.2,195-6,194.5-6
	c-20.4,0-40.8,0-61.2,0c-0.6,0-1.5-0.6-1.8-1.2c-0.9-1.5-1.6-3.1-2.3-4.6C129.1-12.1,129.1-12.2,129.1-12.3z M149.3-90
	c-0.9,1.1-0.6,2,0.2,3.1c2.2,2.8,1.8,4.8-1.2,6.8c-0.7,0.5-1.5,0.8-2.2,1.2c-2.8,1.4-4.2,3.9-3.8,6.6c0.4,2.4,3.3,5.4,5.7,5.8
	c0.5,0.1,1.5-0.3,1.7-0.7c0.2-0.4-0.2-1.3-0.6-1.7c-0.7-0.6-1.7-0.9-2.5-1.5c-2.3-1.8-2.1-4.3,0.5-5.8c1.3-0.8,2.8-1.4,3.9-2.4
	c3.3-2.8,3.6-6.1,1.1-9.6c-0.4-0.6-1-1.2-1.5-1.7C150.1-90,149.7-90,149.3-90z M163.1-90c-1,1.1-0.7,2,0.1,3.1
	c2.2,2.8,1.8,4.9-1.2,6.8c-0.6,0.4-1.4,0.7-2,1.1c-2.9,1.5-4.3,3.7-4,6.5c0.2,2.4,3,5.4,5.6,5.9c0.6,0.1,1.3-0.4,1.9-0.7
	c-0.3-0.6-0.5-1.4-1-1.8c-0.6-0.6-1.6-0.9-2.3-1.5c-2.2-1.8-2-4.2,0.5-5.7c0.8-0.5,1.6-0.8,2.4-1.3c4.8-2.9,5.6-7.3,2-11.6
	c-0.3-0.3-0.5-0.6-0.8-1C164-90,163.6-90,163.1-90z M177-90c-1.3,1.2-0.7,2.1,0.2,3.2c2,2.6,1.6,4.5-0.9,6.4c-0.8,0.6-1.8,1-2.7,1.5
	c-2.8,1.5-4.1,3.9-3.6,6.7c0.4,2.3,3.4,5.3,5.7,5.6c0.5,0.1,1.5-0.3,1.7-0.8c0.2-0.4-0.3-1.3-0.7-1.7c-0.4-0.4-1.2-0.5-1.6-0.9
	c-0.9-1.1-2-2.2-2.3-3.5c-0.3-1.6,1.1-2.5,2.5-3.2c6.8-3.4,7.7-7.4,3-13.4C177.8-90,177.4-90,177-90z M169.1-25.6c0-7,0-13.9,0-21.1
	c2.2,0,4.2,0,6.3,0c0-5.3,0-10.3,0-15.2c-13.6,0-27.1,0-40.8,0c0,1,0,1.8,0,2.6c0,9.8-0.2,19.6,0.1,29.4c0.1,3.1,1.1,6.3,2.3,9.2
	c1.6,3.7,4.7,5.4,8.9,5.4c11.8-0.1,23.5-0.2,35.3,0c5.3,0.1,8.4-2.3,10.3-6.9c0.8-1.9,1.1-4.6,2.5-5.5c1.6-1,4.2-0.2,6.4-0.2
	c5.7,0,9.3-3.6,9.3-9.3c0-5.1,0-10.2,0-15.3c0-5.9-3.5-9.4-9.4-9.5c-6.7,0-13.4,0-20.2,0c-0.6,0-1.2,0.1-1.9,0.1
	c0,5.1,0,10.1,0,15.4c1.6,0,3.1,0,4.7,0c0,7.1,0,13.9,0,21C178.3-25.6,173.7-25.6,169.1-25.6z M193.3-53.9c2.4,0,4.7-0.1,6.9,0
	c1.6,0.1,2.5,1.3,2.5,2.9c0,3.9,0,7.8,0,11.7c0,1.7-0.9,2.9-2.6,3c-2.2,0.1-4.4,0-6.8,0C193.3-42.2,193.3-47.9,193.3-53.9z"/>
<path d="M-31.4,209c-0.6-7.4-0.9-14.9-1.8-22.3c-1.6-13.1-4.9-25.8-11.2-37.6c-3-5.5-6.6-10.5-11.2-15c6.6,1.6,17.1,11.9,22.4,21.8
	c5,9.5,7.2,19.7,8,30.9c3.9-14.4,6.1-28.8,17.5-39.1c-8.1,19-9.4,39.2-9.9,59.4c4.4-16.9,14-30.1,28.3-40.1
	c-9.9,13.1-18.8,26.7-19.8,43.9c-11.1,0-22.1,0-33.4,0c-2.5-18.8-9.1-36.1-21.4-50.8c18.6,11.1,27.4,28.6,31.7,49
	C-31.9,209-31.7,209-31.4,209z"/>
<path d="M-177.1,168c-1.5-1.9-2.7-3.4-4-4.8c-0.4-0.4-1.4-0.3-2-0.1c-4.7,1.4-9.2,1.3-13-2c-1.1-0.9-1.7-2.4-2.5-3.6
	c1.4-0.7,2.7-1.8,4.1-2c2-0.3,4.1-0.1,6.2-0.1c-0.9-0.8-1.9-1.6-3.1-2.6c-2.6,2.1-5.7,2-9,1c-1.9-0.6-2.2-1.4-1.1-3.1
	c1.3-2,3.1-2.9,5.5-2.9c0.8,0,1.7,0.2,2,0.2c0.8-2.2,1.4-4.4,2.5-6.2c1-1.7,2-1.5,3.4-0.1c2.3,2.5,2.2,5.3-0.5,9
	c1.4,1.5,2.9,2.9,4.2,4.3c0.5-1.7,1-3.7,1.8-5.5c0.4-0.8,1.4-1.4,2.1-2.1c0.7,0.8,1.6,1.4,2,2.3c1.7,3.6,0.9,6.9-1.8,10.1
	c1.5,1.8,2.9,3.6,4.7,5.8c0.1-1,0.1-1.7,0.3-2.3c0.6-2.4,1.1-4.8,1.9-7c0.8-2.1,1.9-2.1,3.3-0.3c2.9,3.7,3.4,7.9,2.3,12.3
	c-0.1,0.4-0.1,0.9-0.4,1.2c-2.5,3.7-0.6,6.5,1.8,9.2c0.4-2.5,0.7-5,1.4-7.4c0.7-2.3,1.8-4.6,3.1-6.6c1.6-2.3,4-1.9,4.8,0.9
	c1.8,6.2,1.6,12.3-1.2,18.2c-0.7,1.5-2,2.7-3.1,4.1c0.7,1.6,1.6,3.3,2.6,5.6c0.3-1.7,0.3-3,0.8-4.1c1.1-2.6,2.4-5.2,3.9-7.6
	c1.1-1.8,3-1.7,4.3-0.3c1.2,1.3,2.2,3,2.5,4.6c0.7,4.4,0.1,8.8-2.2,12.6c-1.2,2-3.3,3.5-5.2,5.5c0.5,2.1,1.2,4.8,1.9,7.6
	c0.1,0.6,0.4,1.3,0.3,1.9c-0.1,0.6-0.6,1.1-0.9,1.6c-0.5-0.4-1.4-0.8-1.5-1.3c-0.6-2.1-1-4.3-1.5-6.6c-5.5,1.5-10.6,0.8-15.4-1.7
	c-2.5-1.3-4.5-3-5.8-5.6c-0.9-1.8-0.5-3,1.3-4c2.6-1.4,5.3-1.5,8-0.7c3.1,1,6.1,2.5,9.3,3.9c-1.1-2.6-2.3-5.5-3.6-8.5
	c-2.1,0.4-3.9,1-5.9,1.2c-4.9,0.6-9.7,0.1-13.9-2.8c-1.9-1.3-4.3-3-3.7-5.4c0.5-2.3,3.3-3,5.6-3.4c3.8-0.7,7.3,0.4,10.7,2
	c1,0.5,1.9,1,3.3,1.2c-1.6-2.6-3.2-5.3-5-7.8c-0.3-0.4-1.4-0.3-2.1-0.1c-5.3,1-10.2,0.3-14.4-3.3c-2-1.7-1.9-2.7,0.5-4
	c2.3-1.2,4.8-1.6,7.3-1.1C-179.4,167.4-178.5,167.6-177.1,168z"/>
<path d="M-24.3,259.5c-5.9-13.8-14.3-25.3-29.2-30.5c11.8,1.8,22.4,5.9,28.8,16.8c5.5,9.5,5.7,19.7,3.6,30.1c-0.4,2-1.7,1.6-3.1,1.1
	c-15-5.7-26.2-15.4-31.9-30.7c-1.9-4.9-3-10.2-4.4-15.3c-0.2-0.7-0.1-2,0.3-2.3c0.6-0.4,1.8-0.2,2.5,0.1
	c12.3,4.9,21.8,13.4,29.4,24.2C-26.9,255.2-25.6,257.4-24.3,259.5z M-16.1,268.9c-2.9,4.4-4.8,9.3-5.9,14.5
	c-0.1,0.4-0.3,0.9-0.1,1.2c0.2,0.5,0.6,1.2,1,1.3c0.4,0.1,1.2-0.4,1.4-0.9c0.3-0.7,0.4-1.6,0.5-2.4c0.2-1.3,0.8-1.9,2.2-2.2
	c4.2-0.8,8.5-1.7,12.6-2.9c5.2-1.5,10.1-3.7,14.1-7.5c3.1-2.9,5.1-6.4,5.1-10.8c0-2-0.6-3.2-2.8-3.1c-1.1,0-2.2-0.2-2.8-0.2
	C-1.9,255.9-10.3,260.1-16.1,268.9z M-12.3,270.3c6.1-6,13.2-9.9,21.7-11.3C2.1,262.8-5.1,266.6-12.3,270.3z"/>
<path d="M-101.2-17.8c22.5,0,44.9,0,67.5,0c0.2,7.8,0.2,15.5-4.4,22.2c-1.4,2-3.9,3.2-5.9,4.8c-0.7,0.5-1.4,1.2-1.7,2
	c-0.6,1.9-0.9,4-1.3,6.2c-0.7,0-1.3,0-2,0c-12.4,0-24.8,0-37.2,0c-1.6,0-2.3-0.5-2.4-2c0-0.4-0.2-0.8-0.2-1.2c-0.3-2.7-1-4.7-4.1-6
	c-2.2-0.9-4-3.4-5.3-5.6C-101.1-2.2-102.3-11.8-101.2-17.8z M-43.7-20.6c1.3,0,1.9-0.4,2.4-1.7c1.5-4.7,3.2-9.4,4.7-14.1
	c0.5-1.6,0.8-3.3,0.7-4.9c-0.2-4.3-3.8-6.5-7.7-4.7c-1.3,0.6-2.7,1.6-3.3,2.7c-4.1,7.3-7.9,14.7-12.2,22.6
	C-53.6-20.6-48.6-20.7-43.7-20.6z"/>
<path d="M-160.5,236.4c-0.3,5-0.4,10-0.9,15c-0.7,6.4-2.8,12.4-5.8,18.1c-0.4,0.8-0.6,1.9-0.5,2.7c0.8,4.5-1.1,8.5-5.1,10.2
	c-3.9,1.7-8.4,0.4-10.8-3c-2.4-3.4-2.1-8,0.7-11.1c2.9-3.2,7.3-3.8,11.3-1.6c0.3,0.2,0.6,0.4,1,0.6c2.5-4.4,4-9,4.9-13.8
	c1.7-8.8,1.4-17.5-0.8-26.2c-0.3-1.3-0.6-2.6,1-3.2c1.5-0.5,2.1,0.5,2.8,1.6c3.5,6.2,7.7,11.8,13.4,16.3c1.1,0.9,2.4,1.7,3.7,2.6
	c0.5-0.5,1-0.9,1.5-1.3c2-1.6,4.8-1.3,6.4,0.6c1.6,1.9,1.5,4.7-0.3,6.4c-1.8,1.7-4.6,1.6-6.5,0c-1.1-1-2.4-1.8-3.6-2.8
	c-3.7-3.2-7.3-6.4-11-9.7C-159.8,237.4-160.2,236.8-160.5,236.4z M-146.7,252.4c-2.5,1.1-3.9,3.8-3.4,6.5c0.5,2.6,2.9,4.5,5.5,4.6
	c3.2,0.1,5.2-2,6-5.9c2.3,2.3,3.9,2.8,5.8,1.7c1.7-1,2.4-2.5,1.9-4.5c-0.4-1.8-1.6-2.8-3.3-3c-2.2-0.3-3.5,0.8-4.8,3.8
	C-141.1,252.3-143.9,251.2-146.7,252.4z M-185.2,296c3.8,0,6.9-3.2,6.9-7c-0.1-3.7-3.1-6.8-6.9-6.8c-3.9,0-6.9,3-6.9,6.9
	C-192.1,292.9-189.1,296-185.2,296z M-166.4,276.5c0,3.1,2.5,5.6,5.6,5.7c3.2,0,5.7-2.4,5.7-5.7c0-3.1-2.5-5.6-5.6-5.6
	C-163.8,270.9-166.4,273.4-166.4,276.5z M-181,258.8c0,3.1,2.6,5.6,5.6,5.6c3.2,0,5.7-2.6,5.6-5.8c-0.1-3.1-2.5-5.5-5.7-5.5
	C-178.6,253.2-181,255.7-181,258.8z M-163.8,287.7c-0.1-2.6-2.2-4.7-4.8-4.6c-2.6,0.1-4.6,2.3-4.6,4.8c0.1,2.6,2.2,4.6,4.8,4.6
	C-165.8,292.5-163.7,290.3-163.8,287.7z M-192.2,269.6c-2.6,0-4.6,2.1-4.6,4.7c0,2.6,2,4.6,4.7,4.6c2.6,0,4.6-2,4.6-4.7
	C-187.5,271.6-189.6,269.6-192.2,269.6z M-131.8,243.3c-2.1,0-3.7,1.7-3.7,3.7c0,2,1.6,3.6,3.6,3.6c2.1,0,3.7-1.6,3.7-3.7
	C-128.2,244.9-129.8,243.3-131.8,243.3z M-187.4,260.2c-2,0-3.5,1.4-3.5,3.3c0,2,1.4,3.5,3.3,3.5c2,0,3.5-1.4,3.5-3.3
	C-184,261.8-185.5,260.3-187.4,260.2z M-137,235.7c-1.5,0-2.8,1.2-2.9,2.8c0,1.6,1.3,3,2.9,2.9c1.5,0,2.8-1.3,2.8-2.9
	C-134.2,237-135.5,235.7-137,235.7z M-146.1,236.2c-1.6,0-2.9,1.3-2.8,3c0.1,1.7,1,2.7,2.7,2.8c1.7,0.1,2.9-1.1,3-2.8
	C-143.3,237.5-144.5,236.2-146.1,236.2z M-147.6,250.1c-0.9-0.6-1.8-1.6-2.8-1.7c-1.4-0.2-2.3,0.9-2.3,2.4c0,1.5,1,2.5,2.4,2.2
	c1-0.2,1.8-1.2,2.7-1.9C-147.6,250.8-147.6,250.4-147.6,250.1z"/>
<path d="M217,47.9c-0.5-0.6-1.1-1.3-1.7-2.1c-0.3,3.8-0.8,7.4-3.3,10.4c-1.7-1.4-1.6-1.3-0.8-3.2c1.1-2.6,2-5.3,2.9-7.9
	c0.2-0.4,0.1-0.9,0.2-1.5c-0.7,0.3-1.2,0.7-1.7,0.8c-0.8,0.2-1.7,0.5-2.2-0.5c-0.1-0.2-0.4-0.2-0.6-0.3c-2.2-0.5-4.5-0.9-6.6-1.4
	c0.5-0.2,1.2-0.3,1.8-0.6c0.5-0.2,1.1-0.7,1.1-1.1c0-0.5-0.4-1.2-0.9-1.5c-1.8-1.3-3.6-2.6-5.4-3.8c0.6-0.5,1.3-0.9,1.8-1.4
	c0.3-0.4,0.5-0.9,0.5-1.5c0.2-1.4-1.3-2.4-0.6-4.1c0.5-1.1-0.5-2.7-0.8-4.1c1.9,0.7,3.9,3.1,6.2,1.4c0.9,0.7,1.6,1.4,2.4,2
	c0.9,0.7,1.5,0.5,1.5-0.6c0.1-1.7,0-3.5-0.1-5.3c0-0.4-0.1-0.9-0.2-1.1c1,0,2,0.3,2.7-0.1c0.7-0.4,1.1-1.4,1.7-2.1
	c0.1-0.2,0.2-0.5,0.3-0.6c2.2-0.6,2.5-2.6,3.2-4.4c0-0.1,0.1-0.1,0.3-0.3c0.2,1.9,0.2,3.9,2.6,4.3c0.5,4.3,0.5,4.3,4.3,3.2
	c-0.4,2-0.7,3.9-1.1,5.8c-0.1,0.4-0.3,0.8-0.3,1.3c-0.3,1.9,0.4,2.6,2.3,2c0.5-0.2,1.1-0.4,1.6-0.6c0.5-0.2,1-0.5,1.6-0.7
	c0.7,1,1.5,1.6,2.8,0.9c0.1-0.1,0.4,0,0.6,0.1c1.3,0.1,2.6,0.3,4,0.4c-0.6,0.8-1.5,1.5-1.9,2.5c-0.4,0.9-0.2,2-0.3,3.2
	c-3.7,2.4-3.7,2.6-2,5.8c-0.7,0.3-1.4,0.6-2.2,0.8c-1.7,0.4-3.3,0.9-5,1.2c-1.5,0.2-2.1,1-1.7,2.4c0.3,1.1,0.8,2.2,1.3,3.6
	c-2.5-0.7-4.7-1.3-6.9-1.9c-0.4-0.1-0.9,0-1.4,0C217.1,47.6,217.1,47.7,217,47.9z"/>
<path d="M348.6,33c-1.3,0.4-2.7,0.7-3.9,1.2c-1.3,0.5-2.5,1.3-4,2.1c1.7-4,3.2-7.7,4.8-11.4c-0.1,0-0.1-0.1-0.2-0.1
	c-0.9,1.4-1.8,2.8-2.6,4.2c-0.8,1.5-1.5,3-2.2,4.5c-0.7,1.6-1.3,3.2-1.8,4.8c-0.5,1.6-1,3.2-1.6,5c-1.1-2.8-2.7-4.9-5.3-6
	c0.4,0.6,0.9,1.3,1.3,1.9c0.6,1,1.2,2,1.8,3c1.2,2.1,1.9,4.1,1.2,6.6c-0.6,2.1-0.7,4.3-1.1,6.5c-5.2-0.9-9.5-6.6-9-12.2
	c0.4-5.1,2.7-9.1,6.2-12.6c4.1-4.1,9-7,14.4-9.1c0.3-0.1,1.1,0,1.3,0.3c3.7,4.8,6.5,10,7.1,16.2c1,10-7.7,19.1-17.6,17.9
	c0.1-2.5,0.1-5.1,0.5-7.7c0.4-2.6,1.1-5.3,1.7-7.9c0.2-0.7,0.7-1.6,1.3-2c2.2-1.6,4.5-3,6.8-4.5c0.4-0.2,0.7-0.4,1.1-0.7
	C348.7,33.3,348.7,33.1,348.6,33z"/>
<path d="M290,16.3c-1.1,5.4,1.1,10.8,1.3,16.3c0.1,3.5-0.1,7-0.3,10.5c-0.1,2.1-1.2,3.8-2.7,5.3c-4.2,4.1-9.1,6.7-15.3,7.8
	c4.5-4,7.8-8.5,10.2-13.6c2.3-5.2,3.5-10.7,3.4-16.4c-0.1,0.3-0.2,0.6-0.3,0.9c-1.5,6.9-3.6,13.5-7.2,19.7c-2,3.4-4.4,6.5-7.9,8.5
	c-0.9,0.5-1.5,0.5-2.2-0.4c-3.8-4.8-4.1-10-1.8-15.6c1.8-4.1,4.6-7.4,7.8-10.4c3.2-3.1,6.7-5.8,10.1-8.6
	C286.8,18.9,288.4,17.6,290,16.3z"/>
<path d="M269.3,173.3c-0.4,1.3-0.8,2.5-1.3,3.8c-1-0.3-2-0.6-3.1-1c0.6-1.5,1.3-2.9,1.8-4.4c0.3-0.7,0.4-1.6,0.2-2.3
	c-0.8-3.2-1.1-6.3-0.4-9.6c0.7-3.7,2.7-6.7,6-8.4c3.7-1.9,7.5-3.4,11.3-5.2c2.2-1,4.4-2,6.8-3.1c0.4,1.7,1,3.7,1.4,5.7
	c0.8,4.1,0.9,8.1-0.3,12.2c-2,6.9-7,10.5-13.7,12.2C274.5,174.2,272.5,174.2,269.3,173.3z"/>
<path d="M265.3,216.1c-1.2-0.4-2.2-0.7-3.1-1.1c-0.4-0.2-0.9-0.9-0.9-1.4c0-0.5,0.6-1.2,1.1-1.3c1.3-0.4,2.7-0.8,4.1-0.8
	c8.2-0.1,16.4-0.1,24.6,0c1.3,0,2.7,0.3,4,0.7c0.5,0.2,1.2,0.8,1.2,1.3c0,0.5-0.5,1.1-1,1.5c-0.5,0.4-1.1,0.6-1.7,0.6
	c-1.2,0.1-1.4,0.7-1.3,1.7c0.1,3.7,0,7.3,0,11c0,2.1-0.7,2.8-2.8,2.8c-7.1,0-14.2,0-21.3,0c-2.1,0-2.8-0.7-2.8-2.9
	C265.3,224.2,265.3,220.2,265.3,216.1z M284.8,229.3c0,0.1,0.1,0.2,0.1,0.3c1.5-0.1,3.1-0.1,4.6-0.3c0.5-0.1,1.2-0.7,1.2-1.1
	c0.1-2,0.1-4,0.1-5.9C289.9,225.6,288,228,284.8,229.3z M294.6,213.9c0-0.1,0-0.3-0.1-0.4c-0.7-0.1-1.5-0.2-2.3-0.4
	c0,0.6,0.1,0.9,0.1,1.5C293.1,214.3,293.9,214.1,294.6,213.9z M263,213.4c0,0.1-0.1,0.3-0.1,0.4c0.8,0.2,1.5,0.4,2.5,0.7
	c-0.1-0.7-0.1-1-0.1-1.5C264.4,213.2,263.7,213.3,263,213.4z"/>
<path d="M209.8,209.3c0,2.8,0,5.5,0,8.3c-0.7,0.1-1.4,0.3-2.2,0.4c-0.8,0.1-1.1,0.5-0.9,1.3c0.4,1.6,0.7,3.3,1,4.9
	c0.2,0.8,0.5,1.1,1.4,0.9c1.6-0.4,3.2-0.7,4.8-0.9c0.9-0.2,1.1-0.7,0.9-1.5c-0.3-1.5-0.7-3-0.9-4.5c-0.2-1.1-0.7-1.3-1.6-1
	c-0.5,0.2-1.1,0.2-1.8,0.4c0-2.7,0-5.4,0-8.2c0.9,0,1.8,0,2.6,0c3.9,0,7.8,0,11.8,0c2.3,0,2.6,0.3,2.6,2.7c0,0.2,0,0.3,0.1,0.6
	c0.3,0.1,0.5,0.2,0.8,0.2c3.7,0.7,5.8,3.2,5.8,6.9c0,1.1,0,2.1,0,3.2c-0.2,3.3-2.8,5.9-6.1,6.2c-0.4,0-0.9,0-1.4,0.1
	c0,0.7-0.1,1.4-0.1,2c-0.1,1.1-0.7,1.8-1.8,1.8c-5.9,0-11.7,0-17.6,0c-1.2,0-1.8-0.6-1.9-1.8c-0.4-6.6-0.8-13.3-1.1-19.9
	c-0.1-1.3,0.5-1.9,1.8-1.9C207.1,209.2,208.4,209.3,209.8,209.3z M226.8,225.9c2.4,0.4,4.3-0.9,4.5-3.1c0.1-1.3,0.1-2.6,0-4
	c-0.2-2-1.8-3.2-3.8-3.1C227.2,219.1,227,222.5,226.8,225.9z"/>
<path d="M216.3,141.4c0.1,0.7,0.2,1.4,0.4,2.1c0.1,0.4,0.3,0.7,0.5,1c0.3-0.2,0.8-0.3,1-0.5c1-1,1.9-2.1,2.8-3.2
	c0.2-0.2,0.5-0.4,0.8-0.6c1.2,1.7,1,3.1-0.6,5.2c0.3,0.7,0.8,1.2,0.8,1.8c0.2,2-0.8,3.5-2.4,4.7c-0.4,0.3-0.9,1.1-0.8,1.2
	c0.5,0.7,1.2,1.3,1.9,1.9c0.1,0.1,0.7-0.4,1-0.7c0.7-0.8,1.4-1.7,2.2-2.7c0.5,0.4,0.8,0.8,1.3,1.2c0.5-0.6,0.9-1.1,1.3-1.7
	c0.9,0.8,1,1.3,0.1,2.1c-1.1,1-1.7,1.9-0.1,3.2c-0.1,0.1-0.2,0.2-0.3,0.3c-0.8-0.1-1.5-0.1-2.5-0.2c0.2,0.6,0.4,1.1,0.5,1.5
	c0.1,0.4,0.4,1.2,0.3,1.3c-0.5,0.4-1.1,0.6-1.7,0.7c-0.6,0-1.2-0.2-1.8-0.4c-0.5,2.5,0.4,5.2-1.6,7.3c1.5,0.3,2.1-0.3,2.4-1.4
	c0.4-1.4,0.9-2.8,1.4-4.1c0.1-0.4,0.6-0.6,0.9-0.9c0.3,0.4,0.7,0.7,0.8,1.1c0.2,0.8,0.3,1.6,0.4,2.4c0.1,0,0.2,0,0.3,0
	c0.1-0.7,0.2-1.3,0.3-2c0.1-1-0.2-2.2,1.4-2.6c0.5-0.1,0.7-1.3,1.1-2.3c0.5,1.8,1,3.3,1.5,4.9c0.2-0.5,0.5-0.9,0.7-1.4
	c0.8-1.3,1.1-1.4,2.1-0.2c0.6-0.5,1.3-1,1.9-1.4c1.2,2.1,0,4.3-2.2,4.5c-0.6,0.1-1.2,0.5-1.8,0.8c0,0.2,0.1,0.4,0.1,0.6
	c0.9,0.2,1.9,0.3,2.9,0.5c0,0.5,0.1,1.2,0.2,2.2c-0.8-0.1-1.6,0.1-2.2-0.2c-1.8-1-3.7-0.5-5.5-0.4c-0.1,0.1-0.2,0.2-0.3,0.4
	c0.6,0.5,1.2,1.1,1.9,1.5c1.2,0.7,2.4,1.3,3.6,1.9c0,0.2-0.1,0.4-0.1,0.6c-0.9,0.1-1.7,0.2-2.7,0.3c0,0.3-0.1,0.7-0.1,1.3
	c-1.8-1.1-3.6-2.2-5.5-3.3c-0.4,2.6,0,3.2,2.8,4.2c-2,1.9-4.3,1.6-5.6-0.9c-0.5-0.9-1-1.7-1.8-2.5c-1.1,2-1.9,4.1-1.7,6.4
	c-1.2,0.2-1.8-0.1-1.8-1.5c-0.1-2.6-1-3-3.4-2c-1.3,0.5-2.5,1.3-4,0.7c-0.9-0.4-1-0.9-0.3-1.4c0.7-0.5,1.6-0.8,2.4-1
	c0.6-0.1,1.2,0,1.8,0c-0.3-1.6-0.7-1.8-2.1-1.6c-3.2,0.7-3.2,0.7-6-0.8c0.5-1.2,1.4-1.6,2.6-1.3c0.6,0.2,1.3,0.4,1.9,0.6
	c0.3,0,0.6-0.2,0.8-0.3c-0.1-0.3-0.3-0.9-0.4-0.9c-0.7-0.1-1.4,0-2.1,0.1c-1.4,0.3-2.3-0.1-3.1-1.7c1,0,1.9,0,2.9,0
	c0.1-0.1,0.1-0.2,0.2-0.2c-0.8-0.6-1.6-1.1-2.4-1.7c-0.6-0.4-1.2-0.8-1.7-1.2c-1-0.9-0.8-1.7,0.4-2.1c0.8-0.3,1.5-0.6,2.5-0.9
	c0.4,1,0.9,2.1,1.4,3.3c0.1,0,0.2,0,0.4,0c0-0.8,0-1.7,0-2.5c1.9-0.7,2.3-0.4,2.4,1.4c0,0.6,0.2,1.3,0.2,1.9
	c0.1,0.1,0.3,0.1,0.4,0.2c0.4-0.7,0.9-1.4,1.5-2.4c1.2,2.4,0.3,5.6,3.5,7.2c0.1-2.2,0.5-4.3,0.1-6.2c-0.4-1.8-2.2-2.8-4-3.3
	c-0.7-0.2-1.6-0.2-2.4-0.2c-1.2,0-1.8-1-1.3-2.1c0.2-0.3,0.4-0.6,0.6-0.8c0.8-1,0.7-1.9-0.4-2.7c-0.6-0.4-1.3-0.7-2-1
	c1.6-1.8,2.3-2,4-0.8c1.3,0.9,1.3,0.9,2-0.5c0.1-0.1,0.1-0.2,0.4-0.5c1,1.8,1.9,3.4,2.8,5c0.1,0,0.3-0.1,0.4-0.1
	c-0.1-0.5-0.1-1.1-0.2-1.6c-0.6-1.7-1.4-3.3-2.1-5c-0.2-0.6-0.5-1.1-0.6-1.7c-0.3-1.6,0.1-2,1.6-1.6c0.8,0.2,0.9-0.2,1.1-0.9
	c0.2-1.2,0.7-2.4,1-3.5C215.9,141.4,216.1,141.4,216.3,141.4z"/>
<path d="M427.2,152.9c-2.5-0.5-5-1.1-7.5-1.6c-2.5-0.5-4.7,0.1-6.7,1.7c-2.6,2.2-4.7,4.8-6.3,8.1c1.6-0.4,3-0.6,4.3-1
	c1.2-0.4,2.4-0.3,3.4,0.3c3,1.7,5.4,4,7,7.1c1.6,3.1,3.4,6.2,5.1,9.2c-1.1-0.1-1.4-0.4-2.2-1.5c-1.2-1.8-2.4-3.7-3.7-5.4
	c-2.2-2.7-4.9-4.7-8.4-5.3c-2.3-0.4-4.5,0.1-6.5,1.3c-0.4,0.2-0.7,0.9-0.8,1.4c-0.1,1.8-0.2,3.6-0.2,5.4c0,1.1,0,2.3,0,3.5
	c-1,0-1.8,0-2.7,0c-0.1-1.7-0.4-3.3-0.4-5c0-2.7-1.5-4.4-3.7-5.5c-3.8-2-7.4-1.5-10.9,0.9c-3.2,2.1-5.3,5.2-7.3,8.4
	c-0.5,0.8-1.3,1.5-2,2.2c-0.1-0.1-0.3-0.2-0.4-0.3c0.1-0.2,0.2-0.5,0.3-0.7c1.7-3.2,3.4-6.4,5.2-9.5c1.6-2.8,3.9-5,6.8-6.3
	c0.9-0.4,2.1-0.3,3.2-0.2c1.3,0.1,2.6,0.5,4.1,0.9c-0.3-0.5-0.4-0.9-0.6-1.1c-2.7-4-5.4-8.1-8.2-12c-1.2-1.7-2.7-3.1-4.2-4.5
	c-2.3-2.3-3.9-5-5.4-7.8c6.9,6.5,14.1,12.8,19.5,20.7c-0.7-8.1-2.1-16.1-1.7-24.2c0.7,3.7,1.2,7.4,2.1,11.1
	c0.9,3.9,2.1,7.6,3.1,11.5c0.4,1.3,0.6,2.7,0.9,4.3c0.4-0.3,0.6-0.5,0.8-0.7c3.4-2.8,6.8-5.6,10.2-8.4c1.3-1.1,2.9-1.3,4.5-0.7
	c3.1,1.1,6.1,2.3,9.2,3.5C427.3,152.7,427.3,152.8,427.2,152.9z"/>
<path d="M349.1,175.7c-4.1-6.9-9.3-12.1-17.7-13.2c6.3,3.3,12.1,6.9,14.5,14.5c-6,0.1-11.4-1-16.4-3.9c-7-4-11.2-10.3-13.4-18.2
	c1.2-0.2,2.2-0.4,3.3-0.5c4.8-0.6,9.6-0.6,14.2,1c8.8,3,13.3,9.7,15.3,18.4c0.1,0.5,0.2,1,0.3,1.6
	C349.2,175.5,349.2,175.6,349.1,175.7z"/>
<path d="M233,80.6c0.3-1.3,0.6-2.3,0.8-3.2c0.2,0,0.4,0,0.5,0.1c-0.1,0.8-0.2,1.6-0.3,2.5c0.6-0.7,1.2-1.3,1.7-1.9
	c0.1,0.1,0.3,0.2,0.4,0.4c-0.5,0.7-0.9,1.4-1.5,2.4c1-0.5,1.9-0.9,2.7-1.3c0.1,0.2,0.1,0.3,0.2,0.5c-0.8,0.5-1.5,1.1-2.6,1.8
	c1.3-0.1,2.2-0.2,3.1-0.3c0,0.1,0.1,0.2,0.1,0.3c-0.2,0.2-0.4,0.4-0.6,0.5c-0.8,0.2-1.6,0.3-2.4,0.3c-1.7,0-2.4,0.8-2.9,2.5
	c-1.5,4.9-3.4,9.5-6.2,13.8c-1.4,2.2-3.1,4.1-5.5,5.6c4.8,0.3,11.2-4,13.5-8.9c-1.1-1-2.3-2.1-3.6-3.4c1.5-0.3,1.8,1,2.7,1.3
	c0.2-0.9-1-1.7-0.6-2.6c0.1,0,0.3-0.1,0.4-0.1c0.4,0.8,0.8,1.5,1.1,2.3c0.1,0,0.2,0,0.2,0c0-0.9,0-1.7,0-2.6c0.2,0,0.4,0,0.6-0.1
	c0.1,1,0.2,1.9,0.4,3.3c0.6-1.1,1-2,1.5-2.9c0.2,0.1,0.3,0.1,0.5,0.2c-0.2,0.8-0.5,1.5-0.7,2.4c0.7-0.5,1.4-1,2.1-1.5
	c0.1,0.1,0.2,0.3,0.3,0.4c-0.6,0.6-1.3,1.1-1.9,1.7c0.1,0.1,0.1,0.2,0.2,0.3c0.9-0.2,1.7-0.4,2.6-0.6c0,0.2,0.1,0.3,0.1,0.5
	c-0.9,0.4-1.7,0.7-2.6,1.1c0,0.1,0,0.1,0,0.2c0.9,0.1,1.9,0.2,2.8,0.3c0,0.2,0,0.4,0,0.6c-0.7,0-1.4,0.1-2,0
	c-2.1-0.5-3.4,0.3-4.7,2.1c-3.3,4.8-8.3,7-14,7.4c-0.4,0-0.9,0-1.5,0.1c-0.4,3.9-0.8,7.8-1.2,11.8c-0.5-0.1-0.9-0.1-1.5-0.2
	c0.4-4.1,0.8-8.1,1.2-12.3c-0.6-0.1-1.2-0.2-1.7-0.4c-5.3-1.2-8.8-4.6-10.9-9.4c-1.3-2.8-2-5.8-2.9-8.7c-0.2-0.8-0.5-1.2-1.3-1.3
	c-1-0.1-1.9-0.3-2.9-0.5c-0.2-0.1-0.5-0.2-0.7-0.4c0-0.1,0.1-0.3,0.1-0.4c0.8,0.1,1.6,0.1,2.8,0.2c-0.9-0.6-1.6-1.1-2.2-1.5
	c0.4-0.5,0.4-0.5,2.7,0.5c-0.4-0.6-0.8-1.1-1.1-1.7c-0.1-0.2,0-0.4,0-0.7c0.2,0.1,0.5,0.1,0.6,0.2c0.5,0.6,0.9,1.3,1.6,1.9
	c-0.1-1-0.1-1.9-0.2-2.9c0.2,0,0.3-0.1,0.5-0.1c0.2,0.8,0.4,1.5,0.7,2.4c0.3-0.9,0.6-1.7,0.8-2.4c0.2,0,0.3,0.1,0.5,0.1
	c-0.1,0.9-0.3,1.7-0.4,2.8c0.8-0.8,1.4-1.5,2-2.1c0.1,0.1,0.3,0.2,0.4,0.4c-0.5,0.8-1,1.5-1.7,2.5c1.1-0.5,2-0.9,2.9-1.3
	c0.1,0.2,0.2,0.4,0.2,0.5c-1.2,0.7-2.4,1.3-3.6,2.1c-0.3,0.2-0.7,0.8-0.7,1.2c0.9,5.1,2.6,9.8,6.2,13.6c2.1,2.3,5,3.7,7.6,3.9
	c-2.5-3.1-3.8-6.6-4.9-10.2c-0.2-0.7-0.5-0.8-1.2-0.7c-1.3,0.2-2.6,0.3-3.9,0.4c0-0.2-0.1-0.4-0.1-0.5c0.8-0.2,1.6-0.4,2.7-0.7
	c-1-0.3-1.8-0.6-2.6-0.9c0-0.2,0.1-0.4,0.1-0.6c0.9,0.2,1.7,0.3,3,0.5c-0.8-0.7-1.4-1.1-1.9-1.6c-0.1-0.1-0.1-0.4-0.2-0.5
	c0.2,0,0.5-0.1,0.6,0c0.7,0.5,1.3,1,2.2,1.4c-0.4-0.9-0.8-1.8-1.2-2.7c0.1-0.1,0.3-0.2,0.4-0.3c0.4,0.6,0.9,1.2,1.5,2
	c0-0.9,0-1.7,0-2.7c1.2,0.8,0.4,2.1,1.1,2.9c0.3-0.9,0.7-1.7,1.1-2.8c0.8,1.3-0.4,2.2-0.1,3.5c0.7-0.9,1.3-1.6,1.8-2.3
	c0.2,0.1,0.3,0.2,0.5,0.3c-0.1,0.3-0.1,0.6-0.2,0.9c-0.6,0.7-1.3,1.5-2,2.1c-0.8,0.7-0.9,1.4-0.5,2.3c1.1,2.6,2.2,5.2,3.4,7.7
	c0.3,0.6,0.8,1,1.3,1.8c0-1,0-1.7,0-2.4c-0.2-6.4-0.4-12.8-0.4-19.2c0-1.1-0.4-1.6-1.5-1.9c-1.3-0.3-2.5-0.8-3.7-1.3
	c-0.3-0.1-0.4-0.5-0.7-0.7c0.3-0.1,0.7-0.2,1-0.2c0.8,0.2,1.5,0.5,2.3,0.5c-0.8-0.7-1.5-1.4-2.3-2.1c0.6-1.2,1.1-0.3,1.6,0.1
	c0.6,0.4,1.1,0.9,1.9,1.2c-0.3-0.6-0.6-1.3-0.9-1.9c-0.2-0.5-1-1.2,0.3-1.6c0.6,1.1,1.1,2.2,1.7,3.3c0.1,0,0.2,0,0.3,0
	c0-0.7-0.1-1.5,0-2.2c0.1-0.6-0.6-1.7,1.1-1.6c0,1,0,2,0,3c0.1,0,0.2,0,0.3,0c0.4-0.9,0.7-1.8,1.1-2.7c0.9,0.4,0.9,0.4,0.5,1.5
	c-0.2,0.6-0.5,1.3-0.7,1.9c0.1,0,0.2,0.1,0.2,0.1c0.7-0.8,1.5-1.6,2.2-2.4c0.9,0.7,0.9,0.7,0,1.7c-0.5,0.5-1,1.1-1.6,1.7
	c1.4,0.3,2.5-1.5,3.8-0.7c0,0.2,0.1,0.3,0.1,0.5c-1.7,0.7-3.3,1.3-5,2c-0.4,0.2-0.9,0.8-0.9,1.2c0.1,7.1,0.3,14.3,0.5,21.4
	c0,0.3,0.1,0.7,0.1,1.1c1.3-0.1,2-1,2.3-2c0.8-2,1.5-4,1.9-6c0.5-2.7,0.7-5.5,1-8.3c0.1-0.9-0.2-1.3-1-1.5c-1.2-0.3-2.4-0.8-3.6-1.2
	c0-0.2,0-0.3,0.1-0.5c0.8,0.1,1.6,0.2,2.5,0.4c-0.6-0.7-1.1-1.3-1.7-1.9c0.1-0.1,0.3-0.2,0.4-0.3c0.7,0.5,1.4,1.1,2.4,1.9
	c-0.5-1.1-0.8-2-1.2-2.8c0.2-0.1,0.4-0.2,0.6-0.2c0.5,0.8,0.9,1.7,1.6,2.8c0.1-1.3,0.1-2.3,0.2-3.2c0.2,0,0.4,0,0.5,0
	c0.1,0.8,0.1,1.5,0.3,2.7c0.5-1,0.8-1.7,1.1-2.4c0.2,0,0.3,0.1,0.5,0.1c-0.2,0.9-0.5,1.7-0.7,2.6c0.1,0.1,0.2,0.2,0.3,0.3
	c0.5-0.7,0.9-1.5,1.4-2.2c0.2,0.1,0.3,0.3,0.5,0.4c0.3,1.1-1.2,1.4-1.4,2.4c0.9-0.2,1.8-0.5,2.7-0.7c0,0.2,0.1,0.4,0.1,0.5
	c-1.2,0.5-2.3,1-3.5,1.4c-0.8,0.3-1,0.7-1.1,1.5c-0.4,3.7-0.9,7.3-1.5,11c-0.3,1.6-1.1,3.1-1.6,4.8c0.9-0.8,1.8-1.5,2.6-2.4
	c3-3.6,4.9-7.8,6.5-12.2c0.6-1.7,1.2-3.4,1.8-5.1c0.3-0.7,0.2-1.1-0.5-1.5c-0.8-0.4-1.5-0.9-2.2-1.4c-0.3-0.2-0.4-0.6-0.7-0.9
	c0.3,0.1,0.7,0.1,1,0.2c0.5,0.2,0.9,0.5,1.5,0.9c-0.5-1-0.9-1.8-1.3-2.5c0.2-0.1,0.3-0.2,0.5-0.2c0.5,0.6,1,1.3,1.7,2.2
	c-0.1-1.2-0.2-2.1-0.3-2.9c0.2,0,0.3,0,0.5-0.1C232.4,78.4,232.6,79.3,233,80.6z"/>
<path d="M409.5,212.7c2.5,0.1,4.7,1.4,5.9,4.2c1.2,2.7,0.9,5.4-1.1,7.5c-3.9,4.1-7.9,8.1-12,12c-2.8,2.6-7.2,2.2-9.8-0.5
	c-2.6-2.7-2.6-7,0-9.7c3.8-3.9,7.7-7.8,11.6-11.6C405.5,213.3,407.1,212.7,409.5,212.7z M406.9,228.8c1.7-1.7,3.4-3.5,5.1-5.2
	c0.2-0.3,0.5-0.5,0.7-0.8c1.5-1.9,1.4-4.5-0.2-6.3c-1.7-1.8-4.5-2.3-6.3-0.6c-2.2,1.9-4,4.2-6,6.2
	C402.3,224.2,404.5,226.4,406.9,228.8z"/>
<path d="M281.2,118c-0.1-0.7-0.4-1.1-0.3-1.6c0.7-4.7,1.1-9.6,2.3-14.2c1-3.8,2.8-7.4,4.4-11c0.9-2,2.7-3.3,4.7-4.3
	c1.6-0.8,3.1-1.8,4.7-2.6c0.4-0.2,0.9-0.5,1.7-0.8c0.2,3.3,1.1,6.4-0.9,9.3c-4.7,6.9-9.4,13.8-14.1,20.8
	C282.9,114.8,282.2,116.3,281.2,118z"/>
<path d="M338.8,97.5c-1.2,4.2-2.3,8.4-3.8,12.5c-0.6,1.7-2.1,3.2-3.6,4.3c-3.4,2.7-7.1,5.1-10.7,7.6c-4.7-7.6-3.2-18.3,3.4-24.3
	c7.4-6.7,16.3-8.4,25.8-7.8c8.4,0.5,16.4,2.8,24.2,6.1c1.3,0.6,1.9,1.2,1.7,2.7c-1.4,8.8-3.7,17.2-9.2,24.4
	c-7,9.2-16.3,13.8-28,11.8c-6.2-1-11.1-4.6-15.9-9.4c3.2-2.8,6.1-5.7,9.3-8c3.9-2.8,7.9-5.4,12.2-7.6c1.6-0.8,4-0.8,5.8-0.4
	c4.4,0.8,8.8,2,13.7,3.2c-3.8-3.6-8.2-4.8-12.8-6.4c6.2-2.4,12.4-4.9,18.5-7.3c-4.6-0.5-14.5,3-31.4,11.2c0.5-2.2,1.3-4.3,1.6-6.5
	c0.2-2.1-0.2-4.2-0.3-6.4C339.1,97.4,339,97.4,338.8,97.5z M346.2,67.9c-0.3-0.4-1.4-0.6-2-0.4c-2.1,0.7-4.1,1.4-6.1,2.3
	c-9.5,4.3-18.3,9.6-24.5,18.3c-3.9,5.4-6.1,11.5-5.5,18.3c0.5,5.9,3.7,10.2,8.8,13.9c-0.4-1.6-0.7-2.6-0.9-3.7
	c-1.2-5.6-1-11.2,2.4-15.9c2.2-3,2.4-5.3,0.1-8c0-0.1,0.1-0.3,0.2-0.6c1.3,1,2.6,2,3.8,3c2.5-1.5,5-3,7.5-4.6
	c0.9-0.6,1.9-1.5,2.4-2.4c2.7-4.4,5.3-8.9,8-13.4c0.3-0.5,0.7-0.9,1-1.3c0.1,0.1,0.2,0.3,0.3,0.4c-2.3,4.8-4.7,9.6-7,14.4
	c0.2,0.2,0.4,0.4,0.7,0.5c1-0.6,1.9-1.3,2.9-1.9c0,0.1,0.3,0.7,0.5,0.7c5.5-0.1,11.1-0.2,16.7-0.4C353.8,80.3,350.5,73.8,346.2,67.9
	z"/>
<path d="M260.3,85.7c3,0.1,5.3,1.2,7.2,3.1c4.9,4.9,8.2,10.7,9.4,17.5c0.6,3.3,0.9,6.7,1.3,10.1c0,0.4-0.2,0.8-0.3,1.2
	c-0.4-0.2-1-0.3-1.2-0.7c-1.3-2.2-2.5-4.6-3.8-6.8c-1.2-1.9-2.3-4-3.9-5.6c-2.6-2.6-4.5-5.6-6.2-8.6c-1.5-2.5-2.8-5.2-4-7.8
	C258,86.3,258.6,85.6,260.3,85.7z"/>
<path d="M355.9,156.9c-3.9,2.6-5.4,6.5-6.1,11c-4.4-10.1,3.1-20.4,14.6-20.1c2.1,7.2-4.8,18.8-12.4,20.7
	C352.5,164.3,353.2,160.3,355.9,156.9z"/>
<path d="M280.4,79.9c1.2,1.8,2.4,3.4,3.3,5.2c0.6,1.2,0.9,2.7,0.8,4.1c-0.3,3-1,6-1.5,9c-0.9,5.6-1.8,11.2-2.7,16.8
	c-0.1,0.6-0.3,1.2-0.7,1.7c-0.4-2.9-0.8-5.9-1.3-8.7c-0.9-4.7-1.8-9.3-2.8-13.9c-0.6-2.7-0.5-5.4,0.7-7.9c0.9-1.8,2.1-3.6,3.2-5.3
	C279.6,80.3,280.2,80,280.4,79.9z"/>
<path d="M405.7,34.7c0.4-2.8,1.6-5.2,4.6-9.6c-1.7,0.6-3.4,2.8-5.9,7.2c-2.4-6.2,5-13,13.6-12.5c-0.1,1-0.2,2-0.3,2.9
	c-0.6,3.4-1.4,6.7-3.6,9.5C412,35.1,408.7,36,405.7,34.7z"/>
<path d="M395.1,27.4c4,6.5,5.3,9.9,5.3,14.5c-2.2,0.1-4.1-0.7-5.7-2.2c-1.6-1.6-2.4-3.6-3-5.7c-0.8-2.9-1-7.8-0.5-10.4
	c6.1,0,12.2,6.4,11.4,12.1c-0.1,0.9-0.5,1.8-0.8,2.7C401.2,33.8,398.8,30.2,395.1,27.4z"/>
<path d="M401.6,43.1c4.8-2.9,9.8-4.2,15.3-3.7c-4.4-1.5-8.8-1.5-13.1,0.7c0.7-2.1,3.4-4.1,6-4.5c2.2-0.4,4.3,0,6.2,0.9
	c2.1,1,4,2.3,6.3,3.6c-0.9,0.7-1.5,1.3-2.2,1.7c-2.9,2.1-6,4-9.7,4.7C406.6,47.3,403.4,46.1,401.6,43.1z"/>
<path d="M265.3,209.7c0.9-0.8,1.6-1.8,2.6-2.2c2.2-1,4.6-1.7,6.9-2.5c0.7-0.2,1.1-0.4,1.3-1.2c0.2-1.2,1.4-2.1,2.6-2
	c1.3,0,2.3,0.7,2.6,2c0.2,0.9,0.7,1,1.4,1.3c2.5,0.9,4.9,1.8,7.3,2.8c0.8,0.4,1.4,1.3,2,1.9c-0.1,0.1-0.1,0.2-0.2,0.3
	c-8.7,0-17.5,0-26.2,0C265.5,210,265.4,209.9,265.3,209.7z M279.9,204.4c0.1-0.1,0.1-0.3,0.2-0.4c-0.5-0.2-1-0.7-1.5-0.7
	c-0.4,0-0.8,0.5-1.2,0.8c0.1,0.1,0.1,0.2,0.2,0.3C278.4,204.4,279.1,204.4,279.9,204.4z"/>
<path d="M396.8,51.6c3.3-0.9,6.5-1.2,9.9-0.4c-1.3-1-2.7-1.3-7.7-1.4c2.7-2.2,8-2.2,10.8-0.8c2.7,1.3,4.3,3.8,4.3,6.7
	C409.2,57,400.4,56,396.8,51.6z"/>
<path d="M394.6,51.9c-0.8-0.5-1.3-0.7-1.7-1c-2.2-2.2-4.5-4.3-6.5-6.7c-1.5-1.8-2.2-4.1-1.5-6.6c0.3-0.9,0.6-1.3,1.7-1.1
	c4.6,0.7,7.6,3.5,8.5,8.3c0.3,1.7,0.3,3.5,0.3,5.3c-0.8-4.1-2.4-7.7-6.3-9.8C392.1,43.6,393.5,47.5,394.6,51.9z"/>
<path d="M405,114.6c-0.3-12.7-2.7-25-4.6-37.7c2.5,2.3,4.2,4.8,5.5,7.7c2.3,5.6,2.7,11.5,1.9,17.4c-0.5,3.7-1.5,7.4-2.3,11.1
	C405.4,113.5,405.2,114,405,114.6z M404.6,117c-1.1-12.7-10.7-23.9-20.5-24C391,101.1,397.8,109.1,404.6,117z M415.1,97.1
	c-5.6,4.3-7.4,10.5-8.7,17c4.8-7,10.7-13.1,16.5-19.5C419.9,94.7,417.3,95.4,415.1,97.1z"/>
<path d="M348.5,232.4c0.3,1.1,0.5,2.2,0.8,3.3c-6.2,0-12.1,0-18.3,0c0.2-0.9,0.4-1.7,0.7-2.4c0.2-0.6,0.2-1-0.5-1.2
	c-6-2.4-8.4-7.2-9.1-13.3c-0.1-1-0.1-2.1-0.2-3.2c0-0.2,0.1-0.3,0.1-0.6c12.1,0,24.2,0,36.3,0C359,221.5,356.6,229.5,348.5,232.4z
	 M348.6,213.6c3.9,0.6,6.8-0.7,9.1-3.9c1.3-1.8,1.6-3.4,0.3-4.7c-1.2-1.3-3-1.2-4.6,0.2c-2.8,2.5-5.6,5-8.5,7.6
	c-0.2,0.2-0.4,0.4-0.8,0.8C345.9,213.5,347.3,213.3,348.6,213.6z"/>
<path d="M202.3,233.9c9,0,18.1,0,27.1,0c0,1.5-0.4,2-1.8,2c-7.8,0-15.7,0-23.5,0C202.8,235.9,202.4,235.5,202.3,233.9z"/>
<path d="M289,237.8c-7,0-13.7,0-20.7,0c0.9-1.7,1.8-3.2,2.7-4.8c0.9,1.6,1.6,3,2.6,4.8c0.9-1.7,1.7-3.1,2.6-4.7
	c0.9,1.6,1.7,3.1,2.6,4.8c0.9-1.7,1.7-3.1,2.5-4.7c0.9,1.6,1.7,3.1,2.6,4.7c0.9-1.6,1.7-3.1,2.6-4.7
	C287.3,234.7,288.1,236.2,289,237.8z"/>
<path d="M268.4,239.9c0-0.4,0-0.8,0-1.2c6.9,0,13.8,0,20.7,0c0,0.4,0,0.7,0,1.2C282.3,239.9,275.4,239.9,268.4,239.9z"/>
<path d="M209.2,205.4c-0.6-0.3-0.7-1-0.3-1.6c0.5-0.8,1-1.6,1.7-2.3c1.3-1.5,1.4-1.7,0.1-3.3c1.2,0.3,2.2,0.5,2.7,1.6
	c0.4,1.1-0.4,1.8-1,2.5C211.3,203.2,210.3,204.2,209.2,205.4z"/>
<path d="M222.2,198.1c0.5,0.2,1.1,0.3,1.6,0.6c1.2,0.7,1.5,1.6,0.6,2.7c-0.7,0.9-1.6,1.6-2.3,2.5c-0.5,0.5-0.8,1-1.3,1.6
	c-0.9-0.4-0.7-1.2-0.3-1.9c0.5-0.8,1.1-1.6,1.7-2.3C223.3,199.9,223.4,199.5,222.2,198.1z"/>
<path d="M214.9,205.4c-0.6-0.3-0.7-1-0.3-1.6c0.5-0.9,1.1-1.7,1.8-2.5c0.9-1,1.4-1.9,0.1-3c0.1-0.1,0.2-0.2,0.3-0.3
	c0.7,0.5,1.8,0.9,2.1,1.7c0.2,0.6-0.3,1.7-0.7,2.3C217.2,203.1,216.1,204.2,214.9,205.4z"/>
<path d="M279.4,199.6c-0.8-0.4-0.7-1.2-0.3-1.8c0.4-0.8,1-1.4,1.6-2.1c1.3-1.5,1.3-1.7-0.1-3.3c0.7,0.3,1.2,0.4,1.7,0.6
	c1.3,0.7,1.6,1.6,0.6,2.8c-0.7,0.8-1.5,1.5-2.2,2.3C280.3,198.5,279.9,199,279.4,199.6z"/>
<path d="M275.1,192.3c0.7,0.3,1.3,0.4,1.8,0.7c1.1,0.6,1.4,1.6,0.6,2.6c-0.7,0.9-1.5,1.6-2.3,2.4c-0.4,0.5-0.8,1-1.3,1.6
	c-0.8-0.3-0.7-1.1-0.4-1.8c0.4-0.8,1-1.5,1.6-2.2C276.4,194.2,276.4,194,275.1,192.3z"/>
<path d="M284.9,199.5c-0.7-0.3-0.6-1.1-0.2-1.7c0.5-0.8,1.1-1.6,1.7-2.3c1.1-1.3,1.1-1.6-0.1-3c1.2,0.1,2.4,0.4,2.6,1.5
	c0.1,0.7-0.4,1.7-0.9,2.4C287,197.5,285.9,198.4,284.9,199.5z"/>
</svg>
