<?xml version="1.0" encoding="utf-8"?>
<!-- Generator: Adobe Illustrator 23.1.1, SVG Export Plug-In . SVG Version: 6.00 Build 0)  -->
<svg version="1.1" id="Layer_1" xmlns="http://www.w3.org/2000/svg" xmlns:xlink="http://www.w3.org/1999/xlink" x="0px" y="0px"
	 viewBox="0 0 150 100" style="enable-background:new 0 0 150 100;" xml:space="preserve">
<g id="HrWKrn.tif">
	<g>
		<path d="M75.4,20c1.2-2.9,2.3-5.5,3.4-8.1c1.4-3.3,2.7-6.6,4.1-9.8c0.7-1.8,1.6-2.1,3.3-1.2c0.9,0.4,1.8,0.8,2.6,1.3
			c1.5,0.8,1.8,1.5,1.2,3.1c-3.2,8-6.5,16.1-9.7,24.1c-0.2,0.5-0.3,1.2-0.1,1.7c7.5,15.6,15.9,30.6,26.3,44.5
			c6.5,8.7,13.8,16.7,22,24c0.2,0.2,0.5,0.4,0.9,0.8c-0.5,0-0.8,0.1-1.2,0.1c-16,0-32,0-47.9,0c-0.8,0-1.2-0.3-1.5-1
			C76.5,93.8,75.1,88,74,82.1c-1.6-8.8-2.3-17.8-2.4-26.7c0-0.2,0-0.4-0.2-0.7c-0.1,0.4-0.2,0.8-0.3,1.1c-4,14.2-10.3,27.1-20,38.3
			c-1.8,2.1-3.9,3.8-5.9,5.7c-0.3,0.3-0.8,0.5-1.3,0.5c-7.4,0-14.7,0-22,0c-0.1,0-0.1-0.1-0.3-0.1c0.1-0.2,0.2-0.3,0.4-0.4
			c13.9-12.2,25.1-26.6,34.4-42.5c5-8.5,9.4-17.4,14.1-26.1c0.3-0.5,0.3-1.3,0.1-1.9c-3.1-7.9-6.3-15.8-9.5-23.7
			c-0.9-2.2-0.7-2.8,1.4-3.8c0.8-0.4,1.6-0.8,2.4-1.2c1.5-0.7,2.4-0.3,3.1,1.2c2.3,5.5,4.6,10.9,6.8,16.4
			C74.9,18.8,75.1,19.2,75.4,20z"/>
	</g>
</g>
</svg>
