<?xml version="1.0" encoding="utf-8"?>
<!-- Generator: Adobe Illustrator 23.1.1, SVG Export Plug-In . SVG Version: 6.00 Build 0)  -->
<svg version="1.1" id="Layer_1" xmlns="http://www.w3.org/2000/svg" xmlns:xlink="http://www.w3.org/1999/xlink" x="0px" y="0px"
	 viewBox="0 0 300 100" style="enable-background:new 0 0 300 100;" xml:space="preserve">
<g>
	<path d="M81.3,43.2c-4.6-0.6-8.9-2.3-12.8-4.8c-0.5-0.3-0.8-0.3-1.3,0c-0.9,0.6-1.9,1.2-2.8,1.7c-4.4,2.3-9.1,3.6-14.2,3.3
		c-1.2-0.1-2.4-0.3-3.6-0.5c0,1-0.1,2,0,2.9c0.5,7.9,2.3,15.3,5.9,22.4c1.9,3.7,4.2,7.1,7.6,9.6c5.1,3.8,10.8,3.8,15.7-0.2
		c1.7-1.4,3.2-3,4.5-4.7c4.6-6.3,6.9-13.6,8.2-21.3c0.3-1.9,0.5-3.9,0.7-5.8c0-1,0-2,0-3C86.6,43.5,84,43.6,81.3,43.2z M62,76.2
		c-2.9-2-4.9-4.8-6.6-7.8c-3.3-5.9-5.2-12.2-6.1-18.9c-0.2-1.3-0.3-2.6-0.4-3.7c2.5-0.2,4.8-0.2,7.1-0.5c4-0.6,7.7-2.1,11.1-4.1
		c0.2-0.1,0.4-0.2,0.7-0.2L68,78.2C66,78.2,63.9,77.6,62,76.2z"/>
	<path d="M49.8,25.6c4,1,8.1-0.9,9.9-4.7c1.8-3.7,0.7-8.1-2.5-10.6c-1.3-1-2.8-1.5-4.4-1.9c-0.7,0-1.3,0-2,0
		c-0.2,0.1-0.4,0.1-0.6,0.2c-4,0.7-7,4.2-7.1,8.2C43.1,21,45.9,24.6,49.8,25.6z"/>
	<path d="M46.4,53.1c-0.7-3.9-1.1-7.8-0.9-11.9c1.4,0.3,2.7,0.6,4.1,0.9c2.4,0.6,4.8,0.1,4.8,0.1c2.1-0.6,4.1-1.1,6.1-1.7
		c1.9-0.6,1.9-0.7,1.9-2.6c0,0,0.1-0.1,0.1-0.2c0.2,0.5,0.4,1,0.7,1.7c1.3-0.7,2.5-1.4,3.6-2.2c0.7-0.5,1.2-0.8,2,0.1
		c0-0.3,0-0.5-0.1-0.6c-0.9-1.7-1.7-3.6-2.8-5.1c-1.7-2.3-4-3.6-7-3.6c-4.6,0-9.3,0-13.9,0c-0.7,0-1.4,0-2,0.2
		c-3.1,0.8-5.1,2.9-6.6,5.6c-2.4,4.4-3.2,9.3-3.4,14.2c-0.2,3.9-0.1,7.9-0.2,11.8c0,0.3-0.1,0.6-0.2,0.8c-0.5,0.6-1,1.2-1.6,1.8
		c-1-1.1-1.9-2-2.7-2.9c-0.7,0.7-1.4,1.2-2.2,1.9c0.7,0.6,1.3,1.1,2,1.7c-0.3,0.3-0.5,0.6-0.8,0.8C18.8,72.5,10.4,80.9,2,89.3
		c-0.2,0.2-0.5,0.5-0.6,0.8C0.9,92.1,0.5,94,0,96.1c1.9-0.4,3.6-0.8,5.3-1.3c0.5-0.1,1.1-0.4,1.4-0.8c8.4-8.4,16.8-16.8,25.2-25.1
		c0.2-0.2,0.4-0.6,0.6-0.9c0.1,0,0.3,0,0.4,0c0.5,0.7,1,1.3,1.6,2c0.8-0.7,1.3-1.3,2.1-2.1c-1-0.9-2-1.7-3-2.6
		c0-0.1,0.1-0.3,0.1-0.4c0.4-0.1,0.8-0.3,1.1-0.2c2.4,0.7,4.4-0.8,4.2-3.2c-0.2-1.8,0.9-2.6,2.1-3.7c0,0.5,0,0.8-0.1,1
		c-0.1,1.7-0.3,3.3-0.4,5c-0.5,5.8-1,11.6-1.6,17.4c-0.4,4.5-0.8,9-1.2,13.5c-0.2,2.7,1.8,4.9,4.5,5.1c2.5,0.1,4.7-1.8,5-4.4
		c0.2-2,0.4-4,0.5-6c0.6-7.3,1.3-14.5,1.9-21.8c0.1-1.1,0.4-2.1-0.1-3.2C48.1,60.9,47.1,57.1,46.4,53.1z M1.2,94.4
		c0.3-1.4,0.6-2.6,0.9-3.9c0.1-0.2,0.2-0.4,0.4-0.6c8.6-8.6,17.2-17.2,25.8-25.8c0.1-0.1,0.1-0.1,0.3-0.2c0.5,0.6,1,1.1,1.5,1.6
		C20.5,75.1,10.9,84.7,1.2,94.4z M41.4,55.4c-0.1,0-0.2,0.1-0.2,0.1c-0.7-0.7-1.4-1.4-2.1-2.2c-0.1-0.2-0.2-0.4-0.2-0.6
		c0.1-4.2,0.4-8.3,1.6-12.4c0.2-0.9,0.6-1.7,1-2.8C41.4,43.7,41.4,49.6,41.4,55.4z"/>
	<path d="M64.2,81.1c-2-0.7-3.8-1.6-5.3-3c-1.5-1.3-2.8-2.8-4.3-4.2c0.1,0.7,0.1,1.4,0.2,2.1c0.5,5.1,0.9,10.3,1.4,15.4
		c0.1,1.4,0.2,2.9,0.4,4.3c0.3,2.6,2.6,4.6,5.1,4.4c2.7-0.2,4.6-2.4,4.4-5.1c-0.3-4.3-0.7-8.7-1.1-13C64.9,81.6,64.5,81.2,64.2,81.1
		z"/>
</g>
<path d="M207.2,63.2c-0.6-1-1.6-1.5-2.8-1.5c-4.6,0-9.3,0-13.9,0c-2.9,0-5.8,0-8.7,0c-0.1,0-0.3,0-0.4,0c0-0.1,0-0.2-0.1-0.2
	c-0.3-1.1-0.6-2.2-1.3-3.1c-1.2-1.6-3.1-1.7-4.4-0.1c-0.7,0.9-1.1,2-1.4,3.2c0,0.2-0.1,0.3-0.4,0.3c-2.3,0-4.5,0-6.8,0
	c-0.2,0-0.3,0-0.5,0c0-2.6,0-5.2,0-7.8c13,0,26.1,0,39.1,0c-0.2-0.1-0.3-0.2-0.4-0.3c-2.3-1.8-4.5-3.6-6.8-5.3
	c-0.3-0.2-0.6-0.4-1-0.3c-0.4,0-0.8,0-1.2,0c-9.8,0-19.6,0-29.4,0c-0.1,0-0.3,0-0.4,0c0-2.7,0-5.4,0-8c0.2,0,0.4,0,0.5,0
	c0,0-0.1,0-0.1,0.1c0.4,0.7,0.7,1.5,1.1,2.2c0.6,0.9,1.8,1.3,2.7,0.7c0.4-0.2,0.8-0.6,1.1-1c0.4-0.6,0.6-1.3,1-2c0.1,0,0.2,0,0.4,0
	c5.8,0,11.5,0,17.3,0c0.2,0,0.4,0,0.6,0c1.4-0.1,2.4-1.2,2.5-2.6c0-1.4-1.1-2.7-2.8-2.7c-5.3,0-10.6,0-15.8,0c-0.7,0-1.5,0-2.2,0
	c-0.1-0.4-0.3-0.8-0.4-1.2c-0.2-0.4-0.3-0.7-0.6-1.1c-1-1.4-2.7-1.4-3.7,0c-0.4,0.6-0.6,1.2-0.9,1.9c-0.1,0.3-0.2,0.4-0.5,0.4
	c-7.9,0-15.8,0-23.7,0c-4.8,0-9.6,0-14.4,0c-7.2,0-14.4,0-21.6,0c-0.1,0-0.2,0-0.4,0c2.2,1.7,4.3,3.4,6.3,5c0.2,0.2,0.4,0.3,0.7,0.3
	c6,0,12.1,0,18.1,0c0.1,0,0.3,0,0.4,0c0,2.7,0,5.4,0,8c-0.4,0-0.7,0-1.1,0c0-0.1-0.1-0.2-0.1-0.3c-0.3-1.1-0.7-2.1-1.4-2.9
	c-0.9-1-2.3-1.1-3.3-0.2c-0.5,0.5-0.9,1-1.2,1.7c-0.2,0.6-0.4,1.2-0.6,1.8c-0.1,0-0.1,0-0.2,0c-2.3,0-4.5,0-6.8,0
	c-5.3,0-10.6,0-15.9,0c-1.9,0-3.3,1.9-2.9,3.7c0.3,1.3,1.5,2.3,3,2.3c7.4,0,14.8,0,22.2,0c0.4,0,0.5,0.1,0.6,0.5
	c0.2,1,0.6,2,1.4,2.8c1,1,2.3,1.1,3.4,0.1c0.7-0.6,1.1-1.4,1.3-2.3c0.1-0.4,0.2-0.7,0.3-1.1c0.4,0,0.7,0,1.1,0c0,2.6,0,5.1,0,7.8
	c-13.3,0-26.6,0-39.9,0c0,0.1,0,0.1,0,0.1c2.6,2.1,5.2,4.2,7.8,6.3c0.1,0.1,0.3,0.1,0.5,0.1c2.7,0,5.4,0,8.1,0c7.3,0,14.5,0,21.8,0
	c0.6,0,1.2,0,1.8,0c0,3.3,0,6.5,0,9.7c-0.1,0-0.2,0-0.2-0.1c-0.8-0.3-1.7-0.6-2.5-0.9c-1.1-0.4-2.2-0.5-3.3-0.1c-2.9,1-5.7,2-8.6,3
	c-2,0.7-3.2,2.5-3.2,4.6c0,3.6,0,7.3,0,10.9h-13.3v4.5h97.7v-4.5h-11.2c0-2.8,0-5.6,0-8.4c0-1.2,0-2.3,0-3.5
	c-0.1-2.1-1.5-3.8-3.5-4.4c-2.9-0.8-5.8-1.6-8.7-2.3c-0.6-0.2-1.3-0.2-1.9-0.1c-1.2,0.2-2.4,0.6-3.7,1c-1.1,0.3-2.1,0.6-3.2,0.9
	c0-3.5,0-6.9,0-10.4c0.1,0,0.1,0,0.1,0c2.4,0,4.8,0,7.2,0c0.3,0,0.3,0.1,0.3,0.3c0.3,1.1,0.6,2.2,1.4,3.2c0.7,1,1.8,1.4,2.8,1.1
	c0.8-0.2,1.4-0.8,1.8-1.5c0.6-0.9,0.9-2,1.2-3.1c1,0,2,0,2.9,0c6.7,0,13.5,0,20.2,0c0.3,0,0.6,0,0.9-0.1
	C207.4,67.6,208.3,65.1,207.2,63.2z M191,37c0.1,0,0.3,0.2,0.3,0.3c0,0.1-0.2,0.3-0.3,0.3c-0.3,0-0.7,0-1.1,0
	C190.2,37,190.4,36.9,191,37z M187.9,37c0.3,0,0.6,0,0.9,0c-0.1,0.5-0.4,0.7-0.9,0.6c-0.3,0-0.6,0-0.9,0
	C187.2,37.2,187.4,36.9,187.9,37z M185,37c0.3,0,0.6,0,0.9,0c-0.1,0.5-0.4,0.7-0.9,0.6c-0.3,0-0.6,0-0.9,0C184.4,37,184.4,37,185,37
	z M182.1,37c0.3,0,0.6,0,0.9,0c0,0,0,0,0.1,0c-0.1,0.5-0.4,0.7-0.9,0.6c-0.3,0-0.6,0-0.8,0C181.5,37.1,181.6,37,182.1,37z M179.3,37
	c0.3,0,0.6,0,0.9,0c-0.2,0.6-0.3,0.6-0.8,0.6c-0.3,0-0.6,0-0.9,0C178.6,37.2,178.9,36.9,179.3,37z M176.4,37c0.3,0,0.6,0,0.9,0
	c-0.2,0.6-0.3,0.6-0.8,0.6c-0.3,0-0.6,0-0.9,0C175.8,37.2,176,36.9,176.4,37z M173.1,37c0.5,0,0.9,0,1.4,0c-0.4,0.7-0.2,0.6-1.4,0.6
	C173.1,37.4,173.1,37.2,173.1,37z M102.8,51.6c0,0.1-0.1,0.1-0.2,0.1c-0.3,0-0.5,0-0.8,0c-0.3,0-0.6-0.3-0.6-0.7
	c0-0.3,0.3-0.6,0.6-0.7c0.6,0,1.2,0,1.8,0C103.3,50.8,103,51.2,102.8,51.6z M106.4,51.5c0,0.1-0.2,0.1-0.2,0.1c-0.7,0-1.3,0-2,0
	c0.3-0.4,0.5-0.8,0.8-1.2c0-0.1,0.1-0.1,0.2-0.1c0.6,0,1.3,0,2,0C106.8,50.8,106.6,51.2,106.4,51.5z M109.9,51.5
	c-0.1,0.1-0.2,0.2-0.3,0.2c-0.6,0-1.3,0-2,0c0.3-0.4,0.5-0.8,0.8-1.2c0-0.1,0.1-0.1,0.2-0.1c0.6,0,1.3,0,2,0
	C110.4,50.8,110.2,51.1,109.9,51.5z M113.4,51.6c0,0-0.1,0.1-0.2,0.1c-0.6,0-1.3,0-2,0c0.3-0.5,0.5-0.8,0.8-1.2
	c0-0.1,0.2-0.1,0.2-0.1c0.6,0,1.3,0,2,0C113.9,50.8,113.7,51.2,113.4,51.6z M117,51.5c0,0.1-0.2,0.1-0.2,0.1c-0.7,0-1.3,0-2,0
	c0.3-0.4,0.5-0.8,0.8-1.2c0-0.1,0.2-0.1,0.3-0.1c0.6,0,1.3,0,2,0C117.5,50.8,117.3,51.2,117,51.5z M120.5,51.6c0,0-0.1,0.1-0.2,0.1
	c-0.6,0-1.3,0-2,0c0.3-0.5,0.5-0.8,0.8-1.2c0-0.1,0.2-0.1,0.3-0.1c0.6,0,1.2,0,1.9,0C121,50.8,120.8,51.2,120.5,51.6z M124.3,51.6
	c-0.8,0-1.6,0-2.4,0c0.3-0.4,0.5-0.8,0.7-1.2c0.1-0.1,0.2-0.1,0.3-0.1c0.5,0,0.9,0,1.4,0C124.3,50.8,124.3,51.2,124.3,51.6z
	 M167,50.3c6.9,0,13.7,0,20.6,0c3.1,0,6.3,0,9.4,0c0.2,0,0.5,0.1,0.7,0.2c0.5,0.3,0.9,0.7,1.4,1.1c-10.8,0-21.6,0-32.4,0
	c0-0.4,0-0.9,0-1.3C166.8,50.3,166.9,50.3,167,50.3z M170.1,40.7c0,0-0.1,0-0.1,0c-0.1-0.2-0.2-0.5-0.3-0.7c0.3-0.2,0.6-0.3,0.9-0.5
	C170.4,39.9,170.2,40.3,170.1,40.7z M169.9,33.9c0,0,0.1,0,0.1,0c0.2,0.4,0.3,0.8,0.5,1.2c-0.3-0.2-0.6-0.3-0.9-0.5
	C169.7,34.4,169.8,34.1,169.9,33.9z M132.3,51.7c-0.3,0-0.7,0-1,0c-0.9,0-1.9,0-2.8,0c-0.6,0-1.1,0.4-1.2,1
	c-0.1,0.6,0.2,1.1,0.8,1.3c0.2,0.1,0.4,0.1,0.7,0.1c-0.3,0.6-0.5,1.1-0.8,1.7c-0.1,0-0.1,0-0.2,0c-0.2-0.3-0.4-0.5-0.5-0.8
	c-0.6-1.4-0.8-3-0.7-4.5c0-1.2,0.2-2.3,0.7-3.4c0.1-0.3,0.3-0.5,0.5-0.8c0.5,0.5,0.7,1.1,0.9,1.7c-0.1,0-0.2,0-0.3,0
	c-0.7,0-1.2,0.5-1.1,1.2c0,0.6,0.5,1.2,1.2,1.2c1.2,0,2.3,0,3.5,0c0.1,0,0.2,0,0.3,0C132.3,50.8,132.3,51.2,132.3,51.7z M129.6,37.6
	c-4.9,0-9.9,0-14.8,0c-0.6,0-0.9-0.2-1.3-0.6c0.4,0,0.8,0,1.1,0c4.3,0,8.7,0,13,0c4.1,0,8.2,0,12.3,0c7.1,0,14.2,0,21.3,0
	c2.6,0,5.3,0,7.9,0c0.7,0,1.3-0.1,1.6-0.7c0,0.7,0,1.4,0,2.2c-0.3-0.7-0.8-0.8-1.4-0.8c-9.8,0-19.7,0-29.5,0
	C136.4,37.6,133,37.6,129.6,37.6z M164.3,64.1c0,0.6,0,1.2,0,1.8c-9.9,0-19.7,0-29.6,0c0-0.6,0-1.2,0-1.8
	C144.5,64.1,154.4,64.1,164.3,64.1z M134.6,61.8c0-2.6,0-5.2,0-7.7c9.9,0,19.7,0,29.6,0c0,2.6,0,5.1,0,7.7
	C154.4,61.8,144.5,61.8,134.6,61.8z M134.7,68.3c9.9,0,19.7,0,29.6,0c0,3.7,0,7.4,0,11.1c-0.6,0.2-1.2,0.4-1.9,0.5
	c-0.4,0.1-0.9,0-1.3-0.1c-2.7-0.9-5.4-1.7-8-2.6c-1.4-0.5-2.7-0.5-4.1,0.1c-2.8,1.1-5.5,2.1-8.3,3.1c-0.7,0.3-1.3,0.3-2,0
	c-1.3-0.5-2.5-0.9-3.8-1.3c-0.2-0.1-0.3-0.1-0.3-0.4c0-3.4,0-6.8,0-10.2C134.6,68.4,134.6,68.4,134.7,68.3z M134.6,51.7
	c0-0.2,0-0.4,0-0.6c0-0.2,0-0.4,0-0.6c9.9,0,19.8,0,29.7,0c0,0.3,0,0.6,0,0.9c0,0.1,0,0.2,0,0.4C154.4,51.7,144.5,51.7,134.6,51.7z
	 M134.6,48c0-2.7,0-5.3,0-8c9.9,0,19.7,0,29.6,0c0,2.7,0,5.3,0,8C154.4,48,144.5,48,134.6,48z M131.9,66c-10.2,0-20.3,0-30.5,0
	c-0.2,0-0.4-0.1-0.5-0.2c-0.7-0.5-1.3-1.1-2.1-1.7c11.2,0,22.3,0,33.4,0c0,0.6,0,1.2,0,1.9C132.1,66,132,66,131.9,66z M185.3,83.9
	c0,1.9,0,3.8,0,5.7c0,1.9,0,3.9,0,5.8h-1.2c0-4.6,0-9.1,0-13.7C185,82.3,185.3,83,185.3,83.9z M173.2,79.2c0.7-0.2,1.4-0.2,2,0
	c2.7,0.8,5.5,1.5,8.2,2.2c0,0,0.1,0,0.1,0c0,0.4,0,0.8,0,1.2c-0.5-0.1-0.9-0.3-1.4-0.4c-2.6-0.7-5.1-1.5-7.7-2.2
	c-0.2-0.1-0.5,0-0.7,0c-3.8,1.4-7.6,2.7-11.5,4.1c-0.2,0.1-0.4,0.1-0.6,0c-4.1-1.6-8.1-3.1-12.2-4.7c1-0.5,1.9-0.5,2.9-0.2l8.1,2.7
	c0.9,0.3,1.8,0.3,2.7,0C166.6,81.2,169.9,80.2,173.2,79.2z M178.8,68.9c-0.1,0.5-0.4,0.9-0.6,1.3c-0.1,0.1-0.2,0.3-0.3,0.4
	c-0.6-0.4-1.1-1.3-1.2-2.3c0.2,0,0.3,0,0.5,0c0.7,0,1.2-0.5,1.2-1.2c0-0.7-0.5-1.2-1.2-1.2c-3.1,0-6.1,0-9.2,0c-0.4,0-0.8,0-1.2,0
	c0-0.6,0-1.2,0-1.9c0.6,0,1.3,0,1.9,0c1.3,0,2.5,0,3.8,0c1.6,0,3.1,0,4.7,0c0.9,0,1.5-0.6,1.3-1.4c-0.1-0.6-0.5-0.9-1.2-1
	c-0.2,0-0.3,0-0.5,0c0.2-0.9,0.5-1.7,1.2-2.3c0.2,0.2,0.4,0.4,0.5,0.6c0.5,0.9,0.8,1.8,0.9,2.8C179.5,64.9,179.4,67,178.8,68.9z
	 M183.7,65.9c0,0.1-0.2,0.1-0.3,0.1c-0.6,0-1.1,0-1.7,0c0-0.6,0-1.2,0-1.9c1,0,2,0,3.1,0C184.4,64.8,184.1,65.3,183.7,65.9z
	 M187.8,65.9c0,0.1-0.2,0.1-0.3,0.1c-0.8,0-1.6,0-2.4,0c0.3-0.5,0.6-1,0.9-1.5c0.2-0.3,0.4-0.4,0.8-0.4c0.7,0,1.4,0,2.1,0
	C188.5,64.7,188.2,65.3,187.8,65.9z M190.9,65.3c-0.2,0.6-0.6,0.8-1.2,0.7c-0.2,0-0.4,0-0.6,0c0.4-0.6,0.7-1.2,1.1-1.7
	c0-0.1,0.2-0.1,0.3-0.1c0.3,0,0.7,0,1.1,0C191.3,64.5,191.1,64.9,190.9,65.3z M194.2,65.9c0,0.1-0.2,0.1-0.2,0.1c-0.7,0-1.3,0-2.1,0
	c0.4-0.6,0.7-1.2,1-1.7c0-0.1,0.2-0.1,0.2-0.1c0.7,0,1.4,0,2.1,0C194.8,64.7,194.5,65.3,194.2,65.9z M197.8,65.9
	c0,0.1-0.2,0.1-0.3,0.1c-0.7,0-1.3,0-2,0c0.4-0.6,0.7-1.2,1-1.8c0,0,0.1-0.1,0.2-0.1c0.7,0,1.4,0,2.1,0
	C198.4,64.8,198.1,65.3,197.8,65.9z M201.5,65.8c-0.1,0.1-0.2,0.2-0.3,0.2c-0.7,0-1.3,0-2.1,0c0.4-0.6,0.7-1.2,1-1.8
	c0-0.1,0.1-0.1,0.2-0.1c0.7,0,1.4,0,2.1,0C202.1,64.7,201.8,65.2,201.5,65.8z M205,65.9c-0.1,0.1-0.3,0.1-0.4,0.1c0,0-0.1,0-0.1,0
	c-0.5,0-1.1,0-1.7,0c0.4-0.6,0.7-1.2,1-1.8c0,0,0-0.1,0.1-0.1c0.3-0.2,1.2,0,1.4,0.3C205.5,64.9,205.4,65.6,205,65.9z"/>
<path d="M260.8,97.4c-2.4-4.9-4.8-9.8-7.2-14.7c-0.3-0.7-0.6-1.3-1-2c-0.4-0.7-0.9-1.3-1.8-1.3c-1.2,0-2.3,0-3.5,0
	c0,0-0.8,0.2-1.1-0.4c-0.7-1.6-1.3-3.3-1.5-5.1c-0.1-1.2-0.3-2.4-0.4-3.7c0.2,0,0.4,0,0.6,0c1.1-0.2,2.3-0.3,3.4-0.5
	c-0.1-0.1-0.2-0.1-0.3-0.2c-1.7-1.3-3.3-2.7-4.6-4.4c-0.8-1-1.4-2.1-1.7-3.3c-0.1-0.5-0.2-1.1-0.2-1.6c0-6.7,0-13.5,0-20.2
	c0,0,0-0.1,0-0.1c5.8,0,11.5,0,17.3,0c-0.3-0.6-0.7-1.2-1.4-1.7c-1.2-1-2.6-1.5-4-2.1c-1.4-0.6-2.9-1.2-4.3-1.9
	c-1.1-0.5-1.7-1.5-1.9-2.6c-0.1-0.9-0.2-1.9-0.2-2.8c0-1.5,0.2-3.1,0.2-4.6c0.1-1.5-0.7-2.6-2.1-2.6c-2.8-0.1-5.7-0.1-8.5,0
	c-1.2,0-1.9,0.8-2,2c0,0.3,0,0.6,0,0.9c0.1,2.1,0.2,4.2,0.2,6.3c0,1.8-1,3.1-2.6,3.8c-1.3,0.6-2.5,1.1-3.8,1.6
	c-1.3,0.5-2.7,1.1-3.8,2c-1.7,1.4-2.1,3.2-1,5.2c0.6,1.2,1.6,2.1,2.6,2.8c2.9,2.3,4.5,5.2,4.7,9c0.1,2.7,0.2,5.5,0.4,8.2
	c0.1,1.7,0.4,3.4,0.6,5.1c0.1,0.5,0.3,0.8,0.8,1c0.6,0.2,1.2,0.3,1.7,0.4c1.1,0.2,2.2,0.3,3.3,0.4c-0.3,2.9-0.5,5.9-1.8,8.6
	c-0.4,0.9-3.6,0.5-3.6,0.5c-1.5-0.2-2.4,0.5-3.1,1.8c-2.3,4.7-4.6,9.3-6.9,13.9c-0.4,0.9-0.9,1.8-1.3,2.7c-0.5,1.2,0,2,1.3,2.1
	c0.1,0,0.3,0,0.4,0c4.9,0,9.7,0,14.6,0c7.4,0,14.8,0,22.3,0c1.4,0,2-0.9,1.4-2.2C260.9,97.7,260.8,97.6,260.8,97.4z"/>
<path d="M268.3,41.8c0,0,0-0.1,0-0.1c-8.4,0-16.8,0-25.3,0c0,0,0,0.1,0,0.1c0,6,0,12.1,0,18.1c0,0.5,0.1,1,0.2,1.4
	c0.3,1.1,0.8,2,1.5,2.9c1.2,1.5,2.6,2.8,4.1,3.9c1.5,1.2,3.1,2.2,4.7,3.1c0.7,0.4,1.3,0.7,2,1.1c0.1,0.1,0.2,0.1,0.3,0
	c0.3-0.2,0.6-0.3,0.9-0.4c1.8-1,3.6-2,5.3-3.3c1.4-1,2.7-2.1,3.8-3.3c0.7-0.8,1.3-1.6,1.8-2.5c0.5-1,0.8-2,0.8-3.1
	C268.3,53.7,268.3,47.8,268.3,41.8z M262.2,55.9c-1.7,0-3.5,0-5.2,0c0,1.7,0,3.5,0,5.2c-0.9,0-1.8,0-2.7,0c0-1.7,0-3.5,0-5.2
	c-1.7,0-3.5,0-5.2,0c0-0.9,0-1.8,0-2.7c1.7,0,3.5,0,5.2,0c0-1.7,0-3.5,0-5.2c0.9,0,1.8,0,2.7,0c0,1.7,0,3.5,0,5.2c1.7,0,3.5,0,5.2,0
	C262.2,54.1,262.2,55,262.2,55.9z"/>
</svg>
