<?xml version="1.0" encoding="utf-8"?>
<!-- Generator: Adobe Illustrator 23.1.1, SVG Export Plug-In . SVG Version: 6.00 Build 0)  -->
<svg version="1.1" id="Layer_1" xmlns="http://www.w3.org/2000/svg" xmlns:xlink="http://www.w3.org/1999/xlink" x="0px" y="0px"
	 viewBox="0 0 200 100" style="enable-background:new 0 0 200 100;" xml:space="preserve">
<g>
	<path d="M80.2,89.8c-5.5,0-11,0-16.6,0c-0.5,0-1,0-1.6,0c1.5,1.4,2.4,3.1,2.4,5.1c0,2-0.8,3.7-2.4,5.1c0.8,0,1.5,0,2.2,0
		c5.3,0,10.6,0,16,0c2.1,0,3.9-1.2,4.5-3.2c0.2-0.7,0.2-1.6,0.2-2.4C85,91.8,82.9,89.8,80.2,89.8z M66,92.2c0.1-0.1,0.3-0.1,0.5-0.1
		c4.6,0,9.2,0,13.8,0c0.6,0,0.9,0.2,0.9,0.6c0.1,0.5-0.3,0.8-0.9,0.8c-2.3,0-4.7,0-7,0c0,0,0,0,0,0c-2.3,0-4.6,0-6.8,0
		c-0.2,0-0.4,0-0.5-0.1c-0.2-0.2-0.5-0.4-0.4-0.7C65.5,92.6,65.8,92.3,66,92.2z M80.7,96.9c-0.2,0-0.3,0-0.5,0c-2.3,0-4.5,0-6.8,0
		c-2.2,0-4.5,0-6.7,0c-0.1,0-0.3,0-0.4,0c-0.4,0-0.7-0.3-0.7-0.7c0-0.4,0.3-0.7,0.7-0.7c0.4,0,0.8,0,1.2,0c4.3,0,8.6,0,12.9,0
		c0.1,0,0.2,0,0.3,0c0.4,0.1,0.6,0.3,0.6,0.7C81.3,96.5,81.1,96.8,80.7,96.9z"/>
	<path d="M50.9,88.2c2.8,0,5.1-2.3,5.1-5.1c0-2.8-2.3-5.1-5.1-5.1c-2.8,0-5.2,2.3-5.2,5.1C45.8,85.8,48.1,88.2,50.9,88.2z"/>
	<path d="M43.7,89.7c-2.8,0-5.1,2.3-5.1,5.1c0,2.8,2.3,5.2,5.1,5.2c2.7,0,5.1-2.3,5.1-5C48.8,92.1,46.5,89.8,43.7,89.7z"/>
	<path d="M57.9,89.8c-2.8-0.1-5.2,2.1-5.3,5c-0.1,2.8,2.2,5.1,5,5.2c2.7,0.1,5.1-2.2,5.2-5C63,92.2,60.7,89.8,57.9,89.8z"/>
	<path d="M53.1,89.8c-1.8,0-3.4,0-5.2,0c1.5,1.4,2.3,3.1,2.4,5.1c0,2-0.8,3.7-2.3,5.1c1.8,0,3.4,0,5.2,0c-1.5-1.4-2.1-3.1-2.1-5.1
		C51.1,92.9,51.7,91.2,53.1,89.8z"/>
	<path d="M55.5,61.9c1.8,2.4,4.1,4.4,5.7,5.7c0.9-1,1.8-2.2,2.5-3.2c-1.6-1.3-4.1-3.4-6.1-6c-2-2.6-4-6.4-7.9-7.1
		c0,0-0.8,0.6-1.3,1.4c-0.5,0.8-0.7,2.1-0.7,2.1C51.5,55.5,53.4,59.3,55.5,61.9z"/>
	<path d="M55.4,72.6c0,0,0.9,2.7,3.7,5c0.2,0.1,0.3,0.2,0.5,0.4c-1.3,0-2.6,0-3.9,0c-0.2,0-0.3,0-0.6,0c1.6,1.4,2.4,3.1,2.4,5.1
		c0,2-0.8,3.7-2.3,5.1c0.2,0,0.3,0,0.3,0c6,0,12,0,18,0c2,0,3.8-1.3,4.4-3.2c0.2-0.7,0.2-1.5,0.2-2.3c0-2.8-2-4.8-4.8-4.8
		c-2.8,0-5.6,0-8.4,0c0.7-1.6,1.7-3.8,2.6-5.3c1.6-2.5,3.6-3.9,3.6-3.9s-0.5-1.6-2.4-3.1c-1.8-1.5-3.3-2.2-3.3-2.2s-2.2,3.5-4.1,5.4
		C59.5,70.8,55.4,72.6,55.4,72.6z M74.6,85.8c-0.2,0-0.3,0-0.5,0c-4.5,0-9.1,0-13.6,0c-0.2,0-0.3,0-0.5,0c-0.4-0.1-0.6-0.3-0.6-0.7
		c0-0.4,0.2-0.6,0.6-0.7c0.1,0,0.3,0,0.5,0c2.3,0,4.5,0,6.8,0c2.3,0,4.6,0,6.9,0c0.2,0,0.3,0,0.5,0c0.3,0.1,0.5,0.3,0.5,0.7
		C75.1,85.5,74.9,85.7,74.6,85.8z M74.1,81.1c0.2,0,0.4,0,0.5,0.1c0.2,0.2,0.5,0.4,0.5,0.7c0,0.2-0.2,0.5-0.4,0.7
		c-0.1,0.1-0.4,0.1-0.5,0.1c-2.3,0-4.6,0-6.9,0c-2.3,0-4.6,0-6.8,0c-0.2,0-0.5,0-0.6-0.1c-0.2-0.2-0.4-0.4-0.4-0.7
		c0-0.2,0.3-0.5,0.4-0.6c0.1-0.1,0.3-0.1,0.5-0.1C64.9,81,69.5,81,74.1,81.1z"/>
	<path d="M160,33.5c-2.2-6.5-6.7-11.1-13-13.9c-0.2-0.1-0.3-0.3-0.4-0.5c-0.3-1.1-0.6-2.3-1-3.5C142.3,6.3,133.4,0,121.9,0
		c-2.4,0-6.1,0.9-9.6,2.7c-4.7,2.5-8.2,6.2-10.4,11c-0.8,1.7-1.4,3.5-1.7,5.4c-0.2,1.1-0.4,2.2-0.5,3.3c0,0.4-0.1,0.6-0.5,0.8
		c-9.3,5.2-14.1,16.2-11.4,26.5c1.5,5.9,4.9,10.6,9.9,14c4.5,3,9.4,4.2,14.7,3.9c1.4-0.1,2.8-0.2,4.1-0.7c0.8-0.3,1.6-0.4,2.4-0.7
		c2.5-0.9,4.7-2.2,6.7-3.8c0.2-0.2,0.4-0.2,0.7-0.1c0.9,0.4,1.8,0.9,2.7,1.2c4.5,1.7,9.1,2.1,13.8,1c5.8-1.4,10.5-4.5,14-9.3
		C161.7,48.5,162.7,41.2,160,33.5z"/>
	<path d="M130.9,79.6c-0.3-3.3-0.6-6.6-0.8-10c0-0.3-0.2-0.5-0.5-0.6c-0.8-0.3-1.7-0.6-2.5-0.9c-0.3-0.1-0.5-0.1-0.8,0.1
		c-2.3,1.5-4.9,2.6-7.5,3.4c-0.3,0.1-0.4,0.2-0.5,0.5c-0.5,5.6-0.9,11.1-1.4,16.7c-0.3,3.5-0.6,7.1-0.9,10.6c0,0.4,0.1,0.5,0.5,0.5
		c2.6,0,5.2,0,7.8,0c0,0,0,0,0,0c2.6,0,5.2,0,7.8,0c0.4,0,0.6-0.1,0.5-0.6c-0.4-3.9-0.7-7.7-1-11.6
		C131.3,85.1,131.1,82.3,130.9,79.6z"/>
</g>
</svg>
