<?xml version="1.0" encoding="utf-8"?>
<!-- Generator: Adobe Illustrator 23.1.1, SVG Export Plug-In . SVG Version: 6.00 Build 0)  -->
<svg version="1.1" id="Layer_1" xmlns="http://www.w3.org/2000/svg" xmlns:xlink="http://www.w3.org/1999/xlink" x="0px" y="0px"
	 viewBox="0 0 150 100" style="enable-background:new 0 0 150 100;" xml:space="preserve">
<g>
	<path d="M59.1,68.5c1.3-1.1-0.2-2.8-1.8-1.4c-1.1,1-1.9,2.6-1.8,4.4c0.2,3.1,3.2,5.1,5.9,6.2c3.7,1.6,7.5,2.4,12.2,2.6
		c3.2,0.1,6.2-0.1,9.4-0.7c1.7-0.3,1.3-2.7-0.3-2.5c-3.1,0.4-5.8,0.8-8.6,0.8c-3.4-0.1-6.9-0.5-10.1-1.7c-2.1-0.9-3.8-1.4-5.2-3.1
		C58.1,72.2,57,70.3,59.1,68.5z"/>
	<path d="M79,70.9c-0.7,0.9-4,1.7-5.7,0.5c-1.7-1.1-3.7,1.2-1.2,2.5c2.4,1.3,9.3,1,9.6-2.8C82.1,68.5,78.7,67.9,79,70.9z"/>
	<path d="M70.9,32.3c3.2,9.4,5.5,20.2,6.9,30.4c0.1,0.9,0.5,1.1,1.1,1c0.6-0.1,1.2-0.3,1.1-1.3c-1-8.8-3.9-22.1-7.1-30.9
		c-3.2-9-8.5-18.7-12.5-26.3C60,4.3,59.6,4,58.8,4.4c-0.7,0.3-1,0.7-0.4,1.7C63.1,14.6,67.6,22.8,70.9,32.3z"/>
	<path d="M129.1,71.7c3-7.2-0.1-29.4,0.9-39.3c-0.2-6-3.5-13.7-3.5-20.2c0-3.5-3.5-7.5-6.3-7.9c-2.3-0.3-6.4,0.2-9.3,0.3
		C99.5,5,100.6,3.1,96,1.5C90.8-0.3,86.7,0,79.8,0.1c-3.3,0.1-9.9,2.1-11.5,4.4c0,0,0.1,0.1,0.1,0.1c-0.8-0.5-1.9-0.4-3.4-0.4
		c-3.3,0.1-2,2.3-0.9,4.6c3.4,6.4,9.2,14.9,13.5,24.1c4,8.8,7.5,19.4,9.7,29.4c0.2,0.8,0.6,1,1.2,0.9c0.6-0.1,1.1-0.5,1-1.4
		c-1.1-8.7-6.1-22.4-9.9-30.5C75,22,70.4,15.7,67.1,8.7c6,7.7,10.5,15.2,15.2,24.3c4.5,8.7,8.1,19.4,11,29.2c0.5,1.9,0.6,3-1.6,2.6
		c-1.9-0.4-2.2,0.6-1.8,3c0.3,2.2-3.1,2.2-5.5,1.4c-3-0.9-3.6,1.9-1.1,2.6c3.6,1,10.1,0.6,8.9-4.2c4.9-0.3,4.9-4.7,3.8-6.1
		c9,1.2,12.8,8,12.3,11.9C104.8,85,90.1,87.1,79.5,87.6c-11.3,0.5-27.2-2.1-31-11.4c0-9.7,8.9-13.1,12.6-14.6
		c-0.9,2.7-1.2,6.7-0.7,8.9c0.7,3,6.1,3.8,8.5,3.2c2.6-0.7,1.2-3.5-0.7-2.8c-1.8,0.7-5.7-0.5-5.2-1.9c0-3.7,0.7-7.5,0.9-12.1
		c0.3-8.7-0.2-18-1.9-24c-2.8-9.7-6.4-19-8.8-27.3c-0.3-1.2-0.9-1.5-1.5-1.4c-0.4,0-0.6,0.2-0.8,0.4c0.1-0.3,0.3-0.4,0.6-0.4
		C50,4.3,49,3.4,48,2c-1-1.4-6-1.4-9.6-1.3c-3.6,0.2-13,4.7-12.2,13.1c0.9,9.7-2.6,20-4.7,25.9c-2.1,5.9,2.8,10.2,3.5,15
		c0.7,4.7-6.1,14.2-4.3,20.6c-0.8,2-1.1,4-1,6.1c0.1,2.2,2.7,2.2,2.7,0.2c0-4.3,3-9.4,5.9-12c4.5-4,15.2-9.8,21.2-10.7
		c-4.3,2.2-7.4,3.6-11.6,8.1c-6.5,7.1-3.9,19.2,4.3,25.6c7.8,6.1,13.9,7.4,20.3,7.3c2.5-0.1,3-3-0.3-3.1c-7.2-0.1-10.1-1-17.4-6
		c-7.2-5-11.4-17.2-2.3-24.4c8.1-6.4,13.3-6.8,15.7-7.3c-2.3,1.8-12.9,5.2-12.9,15.1c0,10.5,15.8,16.3,32,16.3
		c16.2,0,29.4-5.2,32.7-14c3.8-10-7.4-16-7.4-16s3.3-0.1,9,4.7c5.7,4.8,5.7,12.1,1.3,17.8c-4.4,5.7-16.3,10.5-24.7,11.2
		c-1.9,0.1-1.7,2.8-0.1,2.8c4.9,0,23.7-3.4,29.3-15.5c5.7-12.1-3.2-19.5-12.3-23.4c5.1,1,10.3,3,14.1,5.7c4.7,3.5,7.7,7.9,7.4,13.5
		c-0.2,2.4,2.3,2.8,2.7,0.8c0.4-2.3,0.1-4.6-0.5-6.7C129,71.6,129,71.6,129.1,71.7z"/>
	<path d="M90.4,78.7c-1.9,0.3-1.5,2.7,0.2,2.4c3.1-0.5,5.6-1.4,7.7-3.4c2.1-1.8,3.2-4.3,3.1-7.1c-0.1-2-0.9-3.5-2.1-4.9
		c-1-1.1-2.6,0.3-1.9,1.4c1.1,1.5,1.5,2.4,1.5,4C98.8,76,93.1,78.3,90.4,78.7z"/>
	<path d="M64.4,32.9c2.5,9.6,3.9,21.6,4.6,31.8c0,0.9,0.4,1.1,1,1.1c0.6,0,1.2-0.2,1.2-1.2c-0.3-8.8-2.1-23.3-4.6-32.3
		C64,23,59.4,13,56,5.2c-0.4-0.9-0.8-1.3-1.5-0.9c-0.7,0.3-1,0.6-0.5,1.7C57.9,14.8,61.8,23.3,64.4,32.9z"/>
</g>
</svg>
