<?xml version="1.0" encoding="utf-8"?>
<!-- Generator: Adobe Illustrator 23.1.1, SVG Export Plug-In . SVG Version: 6.00 Build 0)  -->
<svg version="1.1" id="Layer_1" xmlns="http://www.w3.org/2000/svg" xmlns:xlink="http://www.w3.org/1999/xlink" x="0px" y="0px"
	 viewBox="0 0 100 100" style="enable-background:new 0 0 100 100;" xml:space="preserve">
<g transform="translate(0,0)">
	<path d="M14.9,1.1c-3.6,4-6.7,8.6-9.1,13.8l25,23.5l-2.7,2.9L4.2,18.8c-1.9,5.1-3.3,10.7-3.8,16.5L25,47.7l-1.8,3.5L0.1,39.5
		c-0.2,5.2,0.2,10.5,1.2,15.9l21.3,1.8l-0.3,3.9L2.1,59.5c0.2,0.7,0.3,1.3,0.5,2C3.5,65,4.7,68.4,6,71.6c1.9-0.3,3.8-0.7,5.9-1.1
		c5.7-1.1,11.3-2.1,11.3-2.1l0.7,3.9c0,0-5.6,1.1-11.3,2.1C11,74.7,9.3,75,7.7,75.3c1.8,3.7,3.9,7.2,6.3,10.4l12.9-7.3l1.9,3.5
		l-12.4,7c2.6,3.1,5.4,6,8.4,8.5l3.6-4.3c0.3-4.4,1.1-8,3-11c1.3-2,3.3-3.6,5.8-4.7c-1.8-2.7-3.1-5.8-4.1-9.2
		c-3.1-11.5,0.1-23,7.7-29.3L14.9,1.1L14.9,1.1z M85.1,1.1L59,38.9c7.6,6.3,10.8,17.8,7.7,29.3c-0.9,3.4-2.3,6.4-4,9.1
		c2.6,1.1,4.6,2.9,5.8,5c1.7,2.8,2.2,6.2,2.4,10.1l4.2,4.9c3-2.5,5.8-5.3,8.4-8.5l-12.4-7l1.9-3.5L86,85.7c2.3-3.2,4.5-6.7,6.3-10.4
		c-1.6-0.3-3.2-0.6-4.9-0.9c-5.7-1.1-11.3-2.1-11.3-2.1l0.7-3.9c0,0,5.6,1.1,11.3,2.1c2.1,0.4,4.1,0.8,5.9,1.1
		c1.4-3.2,2.5-6.6,3.5-10.1c0.2-0.7,0.3-1.3,0.5-2l-20.1,1.7l-0.3-3.9l21.3-1.8c1-5.4,1.4-10.8,1.1-15.9L76.8,51.2L75,47.7
		l24.6-12.5c-0.6-5.8-1.9-11.4-3.8-16.5L71.9,41.2l-2.7-2.9l25-23.5C91.8,9.7,88.7,5,85.1,1.1L85.1,1.1z M49.6,56.4
		c-2.2,0-4.3,1.1-5.9,3.2c-1.6,2.1-2.7,5.1-2.7,8.4s1.1,6.3,2.7,8.4c1.6,2.1,3.7,3.2,5.9,3.2s4.3-1.1,5.9-3.2
		c1.6-2.1,2.7-5.1,2.7-8.4s-1.1-6.3-2.7-8.4C53.9,57.6,51.8,56.4,49.6,56.4L49.6,56.4z M58,80c-2.2,2.4-5.1,3.9-8.4,3.9
		c-3.2,0-6-1.4-8.2-3.7c-0.6,0.1-1.1,0.3-1.6,0.5c-2.4,0.9-3.9,2-5,3.6c-1.9,2.9-2.4,7.9-2.5,14.7h34.7c0-6.7-0.2-11.7-1.9-14.6
		c-0.9-1.6-2.2-2.7-4.6-3.6C59.8,80.4,59,80.2,58,80L58,80z"/>
</g>
</svg>
