<?xml version="1.0" encoding="utf-8"?>
<!-- Generator: Adobe Illustrator 23.1.1, SVG Export Plug-In . SVG Version: 6.00 Build 0)  -->
<svg version="1.1" id="Layer_1" xmlns="http://www.w3.org/2000/svg" xmlns:xlink="http://www.w3.org/1999/xlink" x="0px" y="0px"
	 viewBox="0 0 100 100" style="enable-background:new 0 0 100 100;" xml:space="preserve">
<g>
	<path d="M50,0C22.4,0,0.1,22.3,0,50c-0.1,27.6,22.3,50,50,50c27.6,0,50-22.4,50-50S77.6,0,50,0z M87.8,57.8c1.3,3.3,2.7,6.7,4,10.1
		c0.1,0.4,0.1,0.8,0,1.1c-1.9,4.3-4.4,8.3-7.6,11.8c0,0.1-0.1,0.1-0.2,0.2c-0.2-0.1-0.4-0.2-0.6-0.4c-2.6-1.9-5.3-3.8-7.9-5.7
		c-0.5-0.4-0.8-0.3-1.2,0c-4,3.1-8.1,6.1-12.2,9.1c-0.6,0.5-1.3,0.7-2.1,0.8c-3.7,0.4-7.5,0.9-11.2,1.3c-0.6,0.1-0.8-0.1-1-0.6
		c-0.8-2.7-1.8-5.4-2.7-8.2c-0.3,0.1-0.5,0.2-0.7,0.3c-3.1,1.6-6.2,3.3-9.3,5c-0.5,0.3-0.8,0.3-1.3,0.2c-4.4-1.3-8.8-2.5-13.2-3.7
		c-0.2,0-0.3,0-0.6-0.1c0.6,2.5,1.2,5,1.9,7.6c-0.3-0.2-0.4-0.3-0.6-0.4c-5.6-4.5-10-10.1-13.1-16.7c-0.1-0.3-0.2-0.6-0.1-0.8
		c1.7-2.5,3.4-5,5.2-7.5c2,1,3.8,2,5.7,3c0.8,0.4,1.6,0.6,2.5,0.4c3.6-0.7,7.2-1.3,10.8-1.9c0.2-0.1,0.5-0.3,0.5-0.5
		c0.2-2.7,0.4-5.3,0.6-8c0-0.1-0.1-0.2-0.1-0.3c-2.6-0.1-5.1-0.3-7.8-0.4c0.3-0.8,0.5-1.7,0.7-2.5c0.1-0.9,0.6-1.5,1.3-2.1
		c1.9-1.5,3.7-3,5.6-4.6c-1.8-1.1-3.5-2.2-5.3-3.3c4.8-2.8,9.5-5.5,14.3-8.2c-0.2-0.1-0.4-0.3-0.6-0.4c-2.8-1.8-5.6-3.6-8.4-5.5
		c-0.4-0.3-0.7-0.3-1.2,0c-4.3,2.6-8.7,5.2-13,7.8c-0.5,0.3-0.8,0.4-1.3,0.2c-3.3-1.1-6.6-2.1-9.9-3.1c3-6.8,7.3-12.6,13.2-17.4
		c-0.3,3.2-0.5,6.2-0.8,9.4c0.4-0.3,0.6-0.5,0.9-0.7c2.6-2.1,5.2-4.1,7.8-6.2c0.4-0.3,0.7-0.3,1.1-0.2c4.6,1.4,9.2,2.9,13.9,4.3
		c0.2,0,0.4,0.1,0.7,0.2c-1.6-2-3.1-3.9-4.7-5.8c1.4-0.7,2.8-1.5,4.2-2.2c1.6-0.8,1.6-0.8,2.8,0.5c1.4,1.4,2.7,2.9,4.1,4.3
		c0.2,0.2,0.5,0.5,0.8,0.5c4.9,0.7,9.7,1.4,14.7,2.1c-0.2-2.4-0.4-4.8-0.7-7.3c2.9,0.9,5.8,1.7,8.7,2.6c0-1.6,0-3.2,0-4.9
		c7.1,4.5,12.6,10.4,16.4,17.9c5.8,11,6.1,23.1,3.9,31.7c-2.3-1.3-4.7-2.5-7.2-3.7C87.6,57.3,87.7,57.5,87.8,57.8z"/>
	<path d="M51.8,79.2c1.4-3.1,2.8-6.1,4.2-9.1c-2.8-0.7-5.5-1.4-8.2-2.1C49.2,71.8,50.4,75.4,51.8,79.2z"/>
	<path d="M36.4,41.7c2.5,1.1,4.9,2.1,7.3,3.1c0.2,0,0.5,0,0.6-0.1c1.1-0.9,2.2-1.9,3.2-2.8c-1.5-1.6-2.9-3.1-4.4-4.7
		C40.9,38.7,38.7,40.2,36.4,41.7z"/>
	<path d="M80.5,59.3c-0.1-0.4-0.2-0.8-0.1-1.2c0.4-3.1,0.8-6.1,1.2-9.1c0-0.4-0.1-0.7-0.5-0.9c-2.2-1-4.3-2.2-6.5-3.3
		c-0.8-0.4-1.5-0.8-2.3-1.2c0.7-2.4,1.4-4.7,2.2-7.2c-6.5,0.8-12.8,1.5-19.3,2.3c0.2,0.3,0.3,0.5,0.5,0.6c1.7,2.5,3.4,5.1,5.1,7.6
		c0.5,0.7,0.7,1.3,0.7,2.1c0.1,3.7,0.4,7.5,0.5,11.3c0,1,0.3,1.4,1.2,1.8c1.7,0.7,3.4,1.6,5.1,2.4c0.8-2,1.6-4,2.4-6
		c4.5,3.4,8.8,6.8,13.3,10.3c-0.2-0.5-0.2-0.7-0.3-0.9C82.6,65,81.5,62.2,80.5,59.3z"/>
</g>
</svg>
