<?xml version="1.0" encoding="utf-8"?>
<!-- Generator: Adobe Illustrator 21.0.0, SVG Export Plug-In . SVG Version: 6.00 Build 0)  -->
<svg version="1.1" id="Layer_1" xmlns="http://www.w3.org/2000/svg" xmlns:xlink="http://www.w3.org/1999/xlink" x="0px" y="0px"
	 viewBox="0 0 612 612" style="enable-background:new 0 0 612 612;" xml:space="preserve">
<style type="text/css">
	.st0{display:none;}
	.st1{display:inline;}
</style>
<g class="st0">
	<path class="st1" d="M600.9,303.6C600.8,466.4,469,598.2,306.4,598.2c-163,0-294.9-132-294.6-294.8C12.1,140.5,144,8.8,306.6,9.1
		C469.1,9.3,601,141.3,600.9,303.6z M569.9,365.9c13.2-50.7,11.2-122-22.8-186.9c-22.9-43.7-55.1-78.6-96.9-105.2
		c0,9.9,0,19.2,0,28.6c-17.1-5.2-34-10.3-51.4-15.6c1.5,14.6,2.9,28.7,4.3,43.1c-29.3-4.1-57.9-8-86.5-12.1
		c-1.7-0.2-3.5-1.5-4.8-2.8c-8.1-8.4-16.1-17-24.1-25.5c-7.2-7.6-7.2-7.6-16.4-2.7c-8.2,4.3-16.4,8.7-25,13.2
		c9.3,11.3,18.2,22.3,27.9,34.1c-2.3-0.7-3.4-1-4.4-1.3c-27.4-8.4-54.7-16.8-82.1-25.4c-2.5-0.8-4.3-0.5-6.4,1.2
		c-15.3,12.2-30.8,24.3-46.2,36.5c-1.5,1.2-3,2.3-5.2,3.9c1.6-18.7,3-36.5,4.6-55.3c-34.3,28.5-59.9,62.4-77.5,102.8
		c19.7,6.1,39,12,58.2,18c2.8,0.9,4.9,0.5,7.4-1c25.5-15.4,51-30.7,76.4-46.2c2.7-1.6,4.5-1.5,7,0.2c16.5,10.9,33,21.7,49.6,32.5
		c1.1,0.7,2.2,1.5,3.6,2.5c-28.1,16.1-55.8,32.1-84.1,48.3c10.7,6.6,20.8,13,31.4,19.6c-11.3,9.3-21.9,18.3-32.8,26.9
		c-4.1,3.3-6.9,6.9-7.9,12.1c-0.9,5-2.5,9.8-3.9,15c15.8,0.7,30.9,1.5,46.2,2.2c0.1,0.8,0.3,1.3,0.3,1.9
		c-1.1,15.7-2.1,31.4-3.4,47.1c-0.1,1-1.9,2.5-3,2.7c-21.2,3.7-42.5,7.1-63.7,10.9c-5.5,1-9.9,0-14.6-2.6
		c-10.9-6.1-22-11.8-33.3-17.8c-10.4,14.8-20.7,29.4-30.7,44c-0.7,1-0.2,3.1,0.4,4.5c18,39,43.9,71.8,77.4,98.6
		c0.9,0.7,1.8,1.2,3.6,2.4c-3.9-15.5-7.5-30-11.2-44.9c1.6,0.3,2.5,0.5,3.4,0.8c26,7.2,52,14.4,77.9,21.7c2.7,0.8,4.9,0.5,7.4-0.9
		c18.2-10,36.4-19.8,54.7-29.6c1.3-0.7,2.6-1.3,4.1-2c5.4,16.4,10.9,32.3,16,48.3c1,3.2,2.5,3.9,5.7,3.5c22-2.6,44-5.1,65.9-7.5
		c4.7-0.5,8.6-1.9,12.5-4.8c24-17.9,48.1-35.6,72.1-53.5c2.5-1.9,4.2-2.1,6.8-0.1c15.5,11.3,31.2,22.4,46.8,33.6
		c1.2,0.9,2.5,1.7,3.8,2.6c0.6-0.5,1.1-0.8,1.4-1.2c18.6-20.8,33.7-43.9,45-69.4c0.8-1.7,0.5-4.4-0.2-6.2
		c-7.8-19.9-15.8-39.8-23.8-59.6c-0.6-1.5-1.1-3-1.9-5.3C542.1,351.3,555.9,358.5,569.9,365.9z"/>
	<path class="st1" d="M337.2,237.2c38.1-4.5,75.5-8.8,113.8-13.3c-4.5,14.5-8.8,28.5-13.1,42.7c4.6,2.4,9,4.7,13.4,7
		c12.7,6.6,25.4,13.3,38.2,19.7c2.6,1.3,3.2,2.8,2.8,5.5c-2.5,17.8-4.9,35.6-7.1,53.4c-0.3,2.2,0.1,4.8,0.8,6.9
		c6.1,16.8,12.4,33.6,18.7,50.4c0.5,1.3,0.8,2.6,1.6,5.1c-26.5-20.6-52.1-40.4-78.1-60.7c-4.8,11.9-9.5,23.5-14.4,35.5
		c-10.2-4.8-19.9-9.8-30-14c-5.1-2.1-6.8-4.8-7-10.4c-0.7-22.3-2.1-44.5-3.1-66.7c-0.2-4.6-1.4-8.5-4-12.4
		c-10.2-14.8-20-29.8-30-44.7C338.9,240.1,338.2,238.9,337.2,237.2z"/>
	<path class="st1" d="M226,255c13.6-9.1,26.5-17.8,39.7-26.6c8.7,9.2,17.3,18.2,26.1,27.4c-5.8,5.1-12.2,10.9-18.7,16.5
		c-0.7,0.6-2.4,0.8-3.3,0.4C255.3,266.9,241.1,261.1,226,255z"/>
	<path class="st1" d="M316.8,475.7c-8-22.4-15.6-43.8-23.4-65.9c16.2,4.2,31.9,8.3,48.1,12.5C333.4,440,325.3,457.4,316.8,475.7z"/>
</g>
<path d="M294.2,97.8c-45.6,6.3-83.5,23.9-110,61.7c-3,4.4-9.4,9.1-2.4,15.5c5.6,5.2,8.5,12.1,19.9,8.6
	c116-36.2,231.9,29.9,260.3,147.7c27.3,113.4-53.5,230.8-168.7,245.3c-115.9,14.4-216.5-61.5-230-177.3
	c-8.9-76.9,20.1-140,82.1-187.3c4.1-3.1,8.5-6,12.7-8.9c0.4-0.3,0.6-0.6,4.7-4.8c-6.5-4.9-13.4-9.4-19.6-14.7c-8.1-7-15.6-15-8-26.5
	c7.7-11.7,17.9-9,27.8-2.9c43.4-67.4,131.5-89.9,196.1-70c3.7,1.1,7.4,3.7,10.9,3.5c5.2-0.3,10.2-2.4,15.4-3.8
	c-2.7-4.7-4.5-12.4-8.2-13.5c-17.7-5-35.9-8.3-53.9-11.8c-4.5-0.8-9.3-0.1-16.6-0.1c11.2-15.9,25.4-22.7,41.5-25.8
	c22.4-4.2,43.8,0.4,63.6,11.2c15.1,8.3,29.7,17.5,44.6,26c25.5,14.7,52,22.9,83.7,10.6c-11.6,32.4-28.5,57.9-54.8,76.5
	c-54.6,38.9-126.9,22.1-166.8-12.1C304.6,133.1,296.6,117.7,294.2,97.8z M171.1,295.6c0.2-12-8.7-21.7-20.5-22.2
	c-12.1-0.5-22.4,9.5-22.5,21.7c-0.1,11.3,9.9,21.4,21.4,21.7C160.8,317,170.8,307.2,171.1,295.6z"/>
</svg>
