<?xml version="1.0" encoding="utf-8"?>
<!-- Generator: Adobe Illustrator 21.0.0, SVG Export Plug-In . SVG Version: 6.00 Build 0)  -->
<svg version="1.1" id="Layer_1" xmlns="http://www.w3.org/2000/svg" xmlns:xlink="http://www.w3.org/1999/xlink" x="0px" y="0px"
	 viewBox="0 0 612 612" style="enable-background:new 0 0 612 612;" xml:space="preserve">
<style type="text/css">
	.st0{display:none;}
	.st1{display:inline;}
</style>
<g id="REF" class="st0">
</g>
<g class="st0">
	<path class="st1" d="M600.9,303.6C600.8,466.4,469,598.2,306.4,598.2c-163,0-294.9-132-294.6-294.8C12.1,140.5,144,8.8,306.6,9.1
		C469.1,9.3,601,141.3,600.9,303.6z M569.9,365.9c13.2-50.7,11.2-122-22.8-186.9c-22.9-43.7-55.1-78.6-96.9-105.2
		c0,9.9,0,19.2,0,28.6c-17.1-5.2-34-10.3-51.4-15.6c1.5,14.6,2.9,28.7,4.3,43.1c-29.3-4.1-57.9-8-86.5-12.1
		c-1.7-0.2-3.5-1.5-4.8-2.8c-8.1-8.4-16.1-17-24.1-25.5c-7.2-7.6-7.2-7.6-16.4-2.7c-8.2,4.3-16.4,8.7-25,13.2
		c9.3,11.3,18.2,22.3,27.9,34.1c-2.3-0.7-3.4-1-4.4-1.3c-27.4-8.4-54.7-16.8-82.1-25.4c-2.5-0.8-4.3-0.5-6.4,1.2
		c-15.3,12.2-30.8,24.3-46.2,36.5c-1.5,1.2-3,2.3-5.2,3.9c1.6-18.7,3-36.5,4.6-55.3c-34.3,28.5-59.9,62.4-77.5,102.8
		c19.7,6.1,39,12,58.2,18c2.8,0.9,4.9,0.5,7.4-1c25.5-15.4,51-30.7,76.4-46.2c2.7-1.6,4.5-1.5,7,0.2c16.5,10.9,33,21.7,49.6,32.5
		c1.1,0.7,2.2,1.5,3.6,2.5c-28.1,16.1-55.8,32.1-84.1,48.3c10.7,6.6,20.8,13,31.4,19.6c-11.3,9.3-21.9,18.3-32.8,26.9
		c-4.1,3.3-6.9,6.9-7.9,12.1c-0.9,5-2.5,9.8-3.9,15c15.8,0.7,30.9,1.5,46.2,2.2c0.1,0.8,0.3,1.3,0.3,1.9
		c-1.1,15.7-2.1,31.4-3.4,47.1c-0.1,1-1.9,2.5-3,2.7c-21.2,3.7-42.5,7.1-63.7,10.9c-5.5,1-9.9,0-14.6-2.6
		c-10.9-6.1-22-11.8-33.3-17.8c-10.4,14.8-20.7,29.4-30.7,44c-0.7,1-0.2,3.1,0.4,4.5c18,39,43.9,71.8,77.4,98.6
		c0.9,0.7,1.8,1.2,3.6,2.4c-3.9-15.5-7.5-30-11.2-44.9c1.6,0.3,2.5,0.5,3.4,0.8c26,7.2,52,14.4,77.9,21.7c2.7,0.8,4.9,0.5,7.4-0.9
		c18.2-10,36.4-19.8,54.7-29.6c1.3-0.7,2.6-1.3,4.1-2c5.4,16.4,10.9,32.3,16,48.3c1,3.2,2.5,3.9,5.7,3.5c22-2.6,44-5.1,65.9-7.5
		c4.7-0.5,8.6-1.9,12.5-4.8c24-17.9,48.1-35.6,72.1-53.5c2.5-1.9,4.2-2.1,6.8-0.1c15.5,11.3,31.2,22.4,46.8,33.6
		c1.2,0.9,2.5,1.7,3.8,2.6c0.6-0.5,1.1-0.8,1.4-1.2c18.6-20.8,33.7-43.9,45-69.4c0.8-1.7,0.5-4.4-0.2-6.2
		c-7.8-19.9-15.8-39.8-23.8-59.6c-0.6-1.5-1.1-3-1.9-5.3C542.1,351.3,555.9,358.5,569.9,365.9z"/>
	<path class="st1" d="M337.2,237.2c38.1-4.5,75.5-8.8,113.8-13.3c-4.5,14.5-8.8,28.5-13.1,42.7c4.6,2.4,9,4.7,13.4,7
		c12.7,6.6,25.4,13.3,38.2,19.7c2.6,1.3,3.2,2.8,2.8,5.5c-2.5,17.8-4.9,35.6-7.1,53.4c-0.3,2.2,0.1,4.8,0.8,6.9
		c6.1,16.8,12.4,33.6,18.7,50.4c0.5,1.3,0.8,2.6,1.6,5.1c-26.5-20.6-52.1-40.4-78.1-60.7c-4.8,11.9-9.5,23.5-14.4,35.5
		c-10.2-4.8-19.9-9.8-30-14c-5.1-2.1-6.8-4.8-7-10.4c-0.7-22.3-2.1-44.5-3.1-66.7c-0.2-4.6-1.4-8.5-4-12.4
		c-10.2-14.8-20-29.8-30-44.7C338.9,240.1,338.2,238.9,337.2,237.2z"/>
	<path class="st1" d="M226,255c13.6-9.1,26.5-17.8,39.7-26.6c8.7,9.2,17.3,18.2,26.1,27.4c-5.8,5.1-12.2,10.9-18.7,16.5
		c-0.7,0.6-2.4,0.8-3.3,0.4C255.3,266.9,241.1,261.1,226,255z"/>
	<path class="st1" d="M316.8,475.7c-8-22.4-15.6-43.8-23.4-65.9c16.2,4.2,31.9,8.3,48.1,12.5C333.4,440,325.3,457.4,316.8,475.7z"/>
</g>
<g id="ROv7hV.tif">
	<g>
		<path d="M2136.9-172.7c3.6,14.1,6.9,27,10.4,40.7c6.4-4.5,7.6-10.8,10.1-16.2c2.8-6.1,5.5-12.2,13.8-13.4c-1,15.1,1,29.4,7.3,44.7
			c2.7-3,4.7-5.4,6.9-7.5c1.7-1.6,3.7-3,5.6-4.4c1.1,1.7,2.4,3.3,3.2,5.1c1.3,3.2,2.1,6.6,3.4,9.9c1.4,3.5,3.6,5.4,7.1,2.2
			c6.9-6.4,13.8-12.9,20.6-19.5c5.5-5.2,10.9-10.4,16.7-16c9.2,13.6,6.9,26.2,1.4,38.8c-5.8,13.2-18.1,18.5-30.3,24
			c0.2,0.5,0.4,0.9,0.7,1.4c3.2,0.3,6.4,0.9,9.7,0.9c20.5,0.1,36.3,9.6,48.9,25c17.8,21.7,22.1,46.9,18.5,74
			c-2.8,20.9-8.3,41-15,60.8c-10.4,30.9-24.8,59.7-47,84.1c-8.9,9.8-19.6,17.2-31.5,23.2c-14.1,7.2-28.6,13.2-44.2,16.4
			c-15.5,3.1-30.5,2-44.4-6.3c-9.3-5.6-16.2-13.7-22.5-22.3c-12.1-16.6-24.3-33.4-31.7-52.8c-7.6-19.8-14.6-39.9-20.3-60.3
			c-7.4-26.2-9.6-53.3-9-80.6c0.3-12.3,2.3-24.1,10.6-34.1c5.9-7.2,13.4-12.1,22-14.8c10.1-3.1,20.6-5,31.4-7.5
			c-7.1-9.3-17-17.8-17.7-31.4c-0.6-12.9,1.6-25.1,8.5-38.2c1.8,3.5,3.7,5.8,4.1,8.3c2.4,14.5,10.4,25.2,21.7,33.9
			c1.3,1,2.7,1.8,5,3.2c1.6-5.1,3.2-9.5,4.4-14c2.5-9.2,6-10.3,12.9-3.7c3.6,3.5,7.3,7,11,10.4c0.5-0.3,1-0.5,1.5-0.8
			c-1.3-5.1-2.2-10.4-4-15.4c-4.3-12-8.9-23.9-13.6-35.8c-1.8-4.6,0.5-7.2,3.8-8.9C2129.6-171.1,2133.1-171.6,2136.9-172.7z"/>
		<path d="M2715.9,23c-1.8-13.2-3.3-26.4-5.5-39.5c-4.8-28.9-11.3-57.4-21-85c-8.6-24.5-17.9-48.9-28.8-72.5
			c-12-26.2-26.4-51.3-45.7-73.2c-6.9-7.9-14.4-15.1-23.9-19.9c-8.7-4.4-16.6-2.7-24.4,2.3c-12.6,8-21.9,19.2-30.6,31
			c-15.9,21.6-28.4,45.2-39.5,69.6c-13.5,29.8-24.4,60.6-32.9,92.2c-8.2,30.4-14.2,61.1-16.7,92.5c-0.1,0.8,0,1.6,0,3.1
			c1.9,0.2,3.8,0.4,5.7,0.5c20.9,0.9,40.4,6.5,57.3,19c16.3,12.1,26.3,28.1,29.1,48.5c3.3,24.3-4.6,45.6-17.5,65.4
			c-9.4,14.5-21.1,26.9-36.4,35.4c-15,8.3-31,12-48,10.3c-25.5-2.5-47-13.6-64.8-31.8c-23.9-24.5-31.1-53.2-21.9-86.3
			c4.2-14.9,11.1-28,22.4-38.7c11.3-10.7,25.1-16.6,40.1-19.7c6.8-1.4,13.8-1.8,20.8-2.3c3-0.2,3.9-1.2,4.1-4.1
			c2.8-34.9,10-69.1,19.3-102.7c8.2-29.6,18.9-58.4,31.9-86.2c13.9-29.7,29.6-58.3,51.3-83.2c8-9.2,16.8-17.5,27.5-23.4
			c10.8-6,23.5-3.4,35.2,5.8c18.5,14.7,32,33.6,44.3,53.4c17.2,27.7,31.1,57.1,41.9,87.8c7,19.7,12.9,39.8,18.7,59.8
			c8.4,29.1,13.3,58.9,16,89.1c0.3,3.8,2.4,3.7,5,3.8c13.4,0.2,26.5,2.3,39,7.2c26,10.3,42.5,28.1,46.1,56.7
			c2.8,22.6-3.3,43.1-13.9,62.6c-7.3,13.5-15.7,26.1-28.3,35.5c-15.7,11.6-33.4,16.7-52.7,16.3c-33.3-0.7-58.6-15.9-77.3-42.9
			c-12.4-17.8-20.5-37.5-19.8-59.5c0.8-24.4,11.5-44.1,31.7-58.1c16.6-11.5,35.2-16.8,55.2-17.6c1.7-0.1,3.3-0.1,5-0.3
			C2714.3,23.7,2714.6,23.5,2715.9,23z"/>
		<path d="M2377,692.5c-1.1-6.9-1.9-12.1-2.9-17.3c-1.1-5.4-2.6-10.7-3.5-16.1c-0.7-4.1-2.4-4.6-6.4-4.3c-10.9,0.9-21.9,2-32.7,1.2
			c-20.8-1.5-38.5-11.1-53.3-25.5c-29.4-28.7-42.2-63.9-39.2-104.6c1.5-20.6,10.6-38.2,24.3-53.4c5.8-6.4,12.4-12,18.6-17.9
			c1.9-1.8,2.6-3.2,1.2-6c-12.8-26.3-30.4-48.2-56.4-62.5c-2-1.1-4-2.4-6-3.6c1.6-3.3,3-6.5,4.5-9.6c0.1-0.3,0.5-0.4,1.1-1
			c32.1,15.8,53.7,41.6,68.6,72.7c8.7-2.4,16.9-5.5,25.5-6.8c19.3-2.8,37.1,2.6,54.1,11.6c14.3,7.6,27.3,16.9,38.9,28.2
			c12.1,11.8,20.7,25.6,26.6,41.4c7.3,19.6,7.9,39.3,3,59.3c-6.6,26.7-21.3,48-44.3,63.3c-2.9,1.9-3.4,3.3-2,6.3
			c5,10.8,9.8,21.6,14.8,32.7c-4.9-2.5-10-5.1-15.8-8.1c1.3,7.7,2.5,14.7,3.9,22.8c-5.5-7.7-10.4-14.5-16.1-22.4
			C2381.3,679.8,2379.4,685.5,2377,692.5z"/>
		<path d="M1910,472c-36,58.4-72,116.9-108.2,175.6c2,1.1,3.7,2,5.3,3.1c11.8,8.3,15.2,18.3,9.8,32.1c-4.7,12-13,21-26.7,22.5
			c-17.7,2-38.3-15.6-34.8-35.4c3.1-17.5,16-24.5,32.3-24.2c3.3,0.1,5-0.7,6.7-3.5c19-31,38.1-61.9,57.2-92.8
			c11.7-19.1,23.3-38.2,35-57.3c3.7-6,7.4-12,10.5-18.5c-45.2,44.1-90.3,88.3-135,131.9c2.4,4.9,5.6,9.1,6.6,13.7
			c3.9,17.6-9.2,36.2-27.3,39.5c-11.6,2.1-27.8-7.4-33.5-19.1c-6-12.2-0.3-29.2,8.5-35.1c8.5-5.7,18.1-6.9,27.7-4.8
			c6.6,1.5,10.8,0.3,15.7-4.5c26.2-26.1,52.7-51.9,79.1-77.7c18.8-18.4,37.7-36.7,56.6-55.1c7.4-7.2,14.6-14.4,22.1-21.5
			c2.4-2.3,3.4-4.9,3.4-8.3c-0.1-47.8-0.1-95.6-0.1-143.5c0-1.8,0-3.6,0-5.7c3,0,5.6,0,9,0c0,3.6,0,7.4,0,11.1
			c0,44.8,0,89.7,0.2,134.5c0,2.4,1.3,5.5,3,7.2c27.6,28.4,55.4,56.7,83.2,84.9c25.5,25.9,51.2,51.5,76.7,77.4
			c2.1,2.1,3.7,2.7,6.5,1.8c8.3-2.8,16.6-2.4,25-0.2c17.5,4.5,25.3,23.3,16.3,39.1c-6.3,11-14.4,18.9-27.7,18.9
			c-12.8-0.1-22.5-6.1-29.2-17c-6.5-10.6-4-23.9,4-34.6c-46.1-46.7-92.2-93.5-138.4-140.2c-0.3,0.2-0.5,0.3-0.8,0.5
			c3.1,5.8,6.1,11.6,9.3,17.3c10.3,18.4,20.7,36.7,31,55c16.6,29.5,33.2,58.9,49.8,88.4c2.7,4.8,5.3,9.6,7.8,14.5
			c1.6,3.2,3.3,4.5,7.3,3.7c8.6-1.7,17.1,0.3,24.6,4.4c9.7,5.3,13.7,13.9,12.5,25c-1.5,13-11.9,25.9-24,29
			c-14.1,3.7-29.7-3.6-36.9-17.2c-6.3-12-2.9-26.4,8.5-36.1c0.4-0.3,0.7-0.7,1.5-1.6c-33.6-59.9-67.3-120-101-180.1
			c-0.4,0.1-0.7,0.2-1.1,0.4c17.4,66.6,34.7,133.2,52.1,199.8c4.8,0.7,9.6,1,14.2,2c17.6,3.9,25.4,21.1,17.7,37.5
			c-7,14.9-19.1,22.8-33.5,20.2c-20.7-3.8-36.9-25.3-21.9-47.8c3-4.5,8.6-7.4,14.2-11.9c-16.4-62.8-33.2-127.2-50-191.6
			c-0.5,0.1-1,0.1-1.6,0.2c0,66.9,0,133.7,0,200.4c4.6,1.8,10,3,14.5,5.8c11.4,7.1,14.8,18.1,10.1,30.7c-3.4,9-8.9,16.2-17.6,20.8
			c-14.7,7.8-33-1.4-40.1-12.7c-11.8-18.7-1.5-40.8,20.4-43.7c0.6-0.1,1.3-0.2,2.4-0.4c0.7-67.9,1.3-135.7,2-203.5
			c-0.4-0.1-0.8-0.1-1.1-0.2c-19,65.1-38,130.3-56.8,194.5c5.5,3.1,10.9,5.1,15,8.7c7.8,6.9,9.6,15.9,6.7,25.9
			c-3.4,11.7-14.5,24.4-28.3,25.4c-12.8,0.9-26.4-7.1-32.8-20.2c-4.4-9.1-1.3-23.9,6.7-31.8c5-4.9,11.3-6.8,18-7.5
			c1.6-0.2,3.3-0.2,5.2-0.3c19.2-65.8,38.3-131.5,57.5-197.2C1910.7,472.3,1910.3,472.1,1910,472z"/>
		<path d="M1835.5-58c1.6,3.2,3.5,5.7,4.2,8.5c1.4,5.5,2.1,11.1,3.1,16.7c1.8,10,8.2,16.5,16.9,20.8c6.1,3,12,2,17.4-1.9
			c2.7-1.9,5.2-4.1,7.6-6.4c5.4-5.3,12-7.3,19.3-8.1c14.3-1.6,28,1.7,41.8,4.4c0.1,0.4,0.3,0.9,0.4,1.3c-1.5,0.8-3,2.1-4.7,2.5
			c-4.7,1-9.4,2.2-14.2,2.4c-14.3,0.7-23.5,9.4-32.5,19.5c8.5,0.1,16,1.3,21.9,7.5c0.9,0.9,3.1,0.8,4.6,0.8
			c13.9,0.2,26.3,10.8,29.7,24.4c1.7,6.8,4.5,13.2,3.1,20.4c-1.1,5.8-2.9,11.2-7.5,15.3c-0.8,0.7-1.5,2.4-1.2,3.2
			c5.1,14.9,0,25.5-13.2,32.8c2,14.5-2.5,23.6-14.9,29.6c2.1,11.9-1.6,21.4-12.1,27.9c-0.8,0.5-1.4,1.7-1.5,2.7
			c-2.1,19-14.9,28.4-32.2,25.2c-5.5,4.1-9.7,9.7-14.5,10.3c-8.7,1.1-18.2,0.4-26.7-2c-5.9-1.7-11.3-3.9-17.8-4
			c-14.6-0.3-24.7-12.7-22.9-27.5c-15-4.6-19.5-15.6-17.5-30.1c-14.1-7.3-20.6-19.1-13.8-35.4c-4.8-4.5-10.5-8-13.4-13
			c-2.7-4.8-2.5-11.3-3.7-17.1c-0.4-1.7-0.5-3.9-1.6-5.1c-10.5-11.2-9.3-25-1.6-37c0.8-1.2,1.9-2.5,1.9-3.8
			c0.2-11.4,15-19.9,26.2-18.1c1.4,0.2,3.6,0.4,4.1-0.4c3.6-5.2,9-6.3,15-6.7c-8.9-12.1-23.3-20.4-22.6-39
			c6.3,4.8,11.6,9.1,17.1,13.2c9.4,7,19.3,12.9,30.9,15.5c2.4,0.5,4.9,0.8,7.4,0.8c8.5-0.1,12-4.8,8.3-12.3
			C1819.4-34.8,1825-46.2,1835.5-58z"/>
		<path d="M2612.2,519.4c0,4.2,0,8,0,12.1c-1.3-1.6-2.5-3.2-4.4-5.5c-1.1,3.5-1.8,5.8-2.4,8c-0.3,0-0.5,0-0.8,0
			c-0.3-1.8-0.7-3.6-1.1-6.1c-1.9,1.3-3.4,2.3-5.5,3.7c0.4-5.1,0.8-9.6,1.2-14.1c-15.8-4.1-26-13.5-28.8-29.3
			c-2.4-13.4,2.1-25.3,10.3-35.8c4.6-5.8,9.6-11,16.9-13.5c1.6-0.5,3.2-1.3,4.8-1.1c5.1,0.6,7.3-1.2,8.4-6.6
			c2.8-13.7,8.1-26.6,15.7-39.2c-19.6-17-42.8-22-68.1-20.9c-0.2-1.4-0.4-2.3-0.4-3.3c0-0.8,0.1-1.6,0.2-3.8
			c10.9,1,21.7,1.1,32.2,3.3c29.2,6,49.9,23.3,63.7,49.5c8.4,16,13.7,33,17.1,50.7c0.9,4.7,2.3,9.4,2.7,14.2
			c0.3,4.1,1.8,6.3,5.8,7.3c23.5,5.5,36.6,21.4,43.4,43.5c0.2,0.8,0.7,1.5,1,2.2c14.8-2.7,24,5.5,32.5,15.8
			c8.8,10.7,12.4,22.6,9.6,36.2c-2.2,10.7-8.2,18.9-17.9,23.8c-4,2.1-4.9,4.2-3.9,8c0.7,2.7,1.3,5.4,2.1,8.6
			c-2.1-1.4-3.7-2.4-5.8-3.8c-0.3,2.4-0.5,4.3-0.9,7.1c-1.3-2.6-2.2-4.6-3.4-7c-1.3,1.7-2.3,3.1-3.7,5c-0.6-4.6-1.1-8.4-1.6-12.1
			c-20.9-3.7-31.7-12.7-34.9-31c-3.6-21.1,0.1-35.4,21-48.5c-5.7-21.6-18.6-36.1-41.6-42c0.5,4.7,1.2,9,1.3,13.3
			c0.6,33,1.5,65.9,1.3,98.9c-0.1,11,1.4,19.8,8.9,28.9c10,12.2,17.3,26.5,26.3,40.7c19.5-1.1,30.2,12.4,37.9,29.1
			c6.8,14.8-1.4,35.6-16.6,42.2c-5,2.2-5.4,4.7-3.7,9c0.7,1.7,1,3.5,1.6,6c-2.1-0.9-3.5-1.5-5.3-2.3c-0.2,2.2-0.4,4.3-0.6,6.3
			c-0.2,0.1-0.5,0.2-0.7,0.3c-0.9-2.1-1.8-4.2-3-6.9c-1.4,1.6-2.6,2.9-4.2,4.8c-0.5-4.4-0.8-8.3-1.2-12.1c-3.6-0.6-6.8-1.1-10-1.8
			c-14.3-3.2-24.1-19.1-24.4-36.1c-0.3-15.2,6-26.6,19.2-34.1c2.2-1.2,3.5-2.2,2.2-5c-6.8-14.8-15.2-28.7-25.2-41.6
			c-0.3-0.4-0.7-0.6-2.1-1.6c-2.3,54.2-6.9,107.5-5.2,161.3c7.2,1.9,13.8,3.7,18.1,10.1c3.8,5.7,5.7,11.9,5.4,18.8
			c-0.5,13-8,22.9-20.3,26.2c0,2.8,0,5.7,0,9.3c-2.6-1.7-4.7-2.6-4.1,2.8c-1.3-2.4-1.8-3.5-2.5-4.8c-0.9,0.5-1.9,0.9-3.3,1.7
			c0.1-1.9,0.1-3.3,0.3-4.7c0.3-2.4,0-4.1-2.9-4.7c-15.1-2.9-20-20.2-17.4-31.9c2.2-10,6.9-17.9,17.5-21c1.3-0.4,2.9-2.7,2.9-4.1
			c1-34.3,1.8-68.6,2.6-102.9c0-1,0-2-0.6-3.2c-11.2,14.5-21.2,29.8-28.8,46.5c20,11.2,21.4,25.5,17.5,39.6
			c-3,10.7-12,20.6-28.3,21.1c-0.5,2.8-1,5.8-1.7,9.3c-1.1-1.2-2-2.2-3.1-3.5c-0.9,2-1.7,3.6-2.9,6.1c-0.3-2.4-0.5-3.8-0.8-5.8
			c-1.5,0.8-2.9,1.5-4.4,2.2c0.7-3.5,1.3-7,2-10.3c-16.5-9.4-22.4-20-19-33.5c3.9-15.6,18.2-26.4,35.2-26.9
			c9.1-18.9,20.4-36.2,33.8-52.2c1-1.2,1.6-2.9,1.7-4.4c0.8-11.6,1.7-23.3,2-34.9c0.8-32.5,1.5-64.9,2-97.4
			c0.1-6.4-0.7-12.9-1.1-19.5c-7.2,0-12.6,3.4-17.1,7.8c-14.4,14.1-23.2,31.3-26.7,51.2c-0.1,0.6,0,1.3,0,2.2
			c8.7,3.6,16.3,8.6,21.2,17.1c6.8,11.8,6.8,24.2,3.1,36.6c-4.5,15-14.8,24-30.7,25.9c-1.2,0.1-2.8,1.7-3.1,2.9
			c-0.7,3.2-0.7,6.5-1.1,10.4c-1.5-1.8-2.7-3.2-4.3-5.2c-1.1,2.4-2,4.5-3.5,7.8c-0.4-3.2-0.6-5.2-0.9-7.8c-1.9,1.3-3.6,2.4-5.7,3.8
			c0.7-4.1,1.5-7.7,1.7-11.2c0.1-1.3-1.2-3.5-2.3-3.9c-20.4-7.1-26.4-25.5-22-43.9c3-12.6,9.3-23.7,21.5-29.6c5.5-2.7,12-3.3,18.7-5
			c1.5-14.1,8-27.4,16.2-40c8.1-12.6,16.6-25.1,34.5-27.1c-4.1-42.3-9.6-84.1-39.5-117.8c-0.7-0.1-1.4-0.2-2-0.2
			c-3.3,8.9-6.7,17.8-9.8,26.8c-1.4,4.2-2.4,8.7-3,13.1c-0.2,1.2,1.3,3.4,2.4,3.9c30.3,10.9,30.9,50.3,15.9,67.2
			C2630,513.2,2626,515.6,2612.2,519.4z"/>
	</g>
</g>
<g id="_x34_eK5UO.tif">
	<g>
		<path d="M2523,1923c-8.8-3.5-15-9.2-14.2-19.2c0.3-4.3,3-8.6,5.3-12.5c1.7-2.9,1.9-7.2-0.9-9.4c-9.9-7.8-11.5-16.7-4.7-27.8
			c-4.6-5.7-5.9-12.3-3.6-19.4c-11.3-7.5-15.2-21.6-1.7-33.4c-3.6-6.5-4.7-13.2-0.9-20.2c0.4-0.8-0.1-2.5-0.8-3.4
			c-5.9-8.8-6.1-16.8-0.5-23.9c5.5-7,13.7-8.7,23.4-4.8c0.3,0.1,0.6,0.1,0.9,0.1c10.3-14.1,19.2-15.8,32.3-6.1
			c8.7-11.9,11-24.9,6.2-38.7c-4.5-12.9-13.1-22-26.9-24.9c-15.1-3.1-30.8,7-33.7,21.2c-2.8,13.5,8.7,26.7,21.3,24.5
			c8.9-1.5,14.4-10.2,11.2-17.6c-2.8-6.3-8.7-7.7-14.2-3.6c-1.2,0.9-3.3,0.6-5.1,0.9c0.3-1.9,0-4.4,1.1-5.5c4.1-4,9.2-5.4,14.7-3.2
			c6.5,2.6,9.9,7.7,10.6,14.5c0.7,7.6-2.7,13.3-8.8,17.3c-7.4,4.9-15.3,5.3-23.2,1.1c-16.1-8.7-18.9-31.3-5.5-45
			c16.5-16.9,43.2-14.5,57.7,5.5c2.6,3.6,4.8,7.6,6.4,11.8c1.6,4.1,2.2,8.5,3.4,13.1c2.7-4.9,5-9.8,7.9-14.3
			c8.2-13.2,18.7-23.8,33.4-29.6c1.4-0.5,2.9-1.4,4.3-1.2c2,0.3,3.8,1.5,5.7,2.4c-1.2,1.7-2.1,4.4-3.7,4.9
			c-13.1,4-22.8,12.5-30.1,23.5c-5.1,7.6-8.9,16-13.3,24.1c0.6,0.5,1.3,1,1.9,1.5c2.9-2.4,6.3-4.5,8.7-7.4
			c11.9-14,26.9-21.4,45.3-21.7c1.8,0,3.6,0.3,5.6,0.5c-1.1,3.4-2,6.3-3.3,10.3c8.4,0.9,16.2,1.8,24.2,2.7
			c1.5,9.7-4.5,18.7-18.7,26.8c1.1,2,2.2,3.9,3.6,6.4c-12.2,4.3-24.2,4.5-35.9,0.2c-7.7-2.9-14.9-7.2-22-11.5
			c-2.8-1.7-4.4-1.8-6.9,0.2c-5.2,4.2-5.9,9.6-5.3,15.7c16.3-9.9,33.7,0.6,30.7,20.4c2.4,0.4,4.9,0.6,7.2,1.3
			c10.7,3.3,16,15.6,10.9,25.9c-1.3,2.6-1.4,4.5-0.1,7.2c5.8,12.1-3.1,26-16.6,26.3c-5.3,0.1-5.3,0.1-10.1,4.1
			c2.4,6.3,2.3,12.6-1.8,18.3c-1.4,2-3.3,4.4-5.4,5c-7.7,2.1-12.9,7.1-17,13.4c0.3,3.9,1.5,8.4,0.9,12.6
			c-1.5,10.7-11.4,17.1-22,14.9c-6-1.2-6.4-0.9-5.4,4.9c1.2,7.7-3.5,16.1-11.1,19.4c-1.2,0.5-2.4,1-3.6,1.6
			C2528.3,1923,2525.7,1923,2523,1923z M2557.2,1796.6c0-0.7,0-1.5,0-2.2c-1.9-1.4-3.8-3.7-5.8-4c-3.1-0.4-5.8,1.9-5.1,5.1
			c0.4,2,3.1,4.8,4.8,4.9C2553,1800.6,2555.1,1798,2557.2,1796.6z M2553,1761.9c-3.5-2.3-5.3-4.4-7.5-4.7c-3.3-0.5-5.4,2-5.2,5.2
			c0.1,3.2,2.4,5.5,5.6,4.8C2548.1,1766.7,2549.8,1764.5,2553,1761.9z M2520.5,1780.9c0.7,0,1.5,0,2.2,0c1.4-1.9,3.7-3.6,4.1-5.7
			c0.6-3.1-1.6-5.3-5-5.4c-3.4-0.1-5.6,2.1-5.2,5.2C2516.9,1777.2,2519.1,1779,2520.5,1780.9z"/>
		<path d="M1675,1536c2.8-8.8,4.6-18.1,8.7-26.3c11.2-22.2,30.4-35.6,52.8-44.9c29.1-12,59.7-16,90.9-14.7
			c15.7,0.7,27.2,9.9,36.7,21.7c12.7,15.8,19,34.2,21.6,54c3.3,25.3,0.3,49.8-10.8,73c-6.4,13.3-14.9,25.1-28,32.4
			c-5.8,3.2-12.6,6.2-19.1,6.5c-33.6,1.5-66.5-2.9-97.3-17.2c-22.1-10.2-40.2-25-49.7-48.2c-2.7-6.5-3.9-13.6-5.8-20.5
			C1675,1546.7,1675,1541.3,1675,1536z M1876.2,1540.4c-0.5-4.2-0.9-12.1-2.3-19.7c-3.3-18.2-10-34.9-23.5-48.1
			c-16.1-15.7-37.4-16.1-53.6-0.7c-5,4.8-9.5,10.4-12.8,16.4c-14.1,25.2-16.6,52.3-11.4,80.3c3.2,17.1,9.7,32.9,22,45.7
			c13.7,14.3,32.2,17.6,47.5,7.4c6.4-4.2,12.2-10,16.6-16.3C1871.6,1587.1,1875.7,1566,1876.2,1540.4z M1713.3,1504.7
			c1.2-0.8,2.4-1.2,3.2-2c7.9-7.8,17.4-13.1,27.4-17.8c1.4-0.7,2.1-3,3.1-4.6c-1.9-0.3-4.2-1.5-5.5-0.8c-8.5,4.7-16.8,9.8-25.1,15
			c-2.1,1.3-3.8,3.2-5.4,5.1c-0.6,0.7-0.7,2.3-0.3,3.1C1711.1,1503.6,1712.3,1504,1713.3,1504.7z"/>
		<path d="M2265,1923c-10.3-3-20.6-6.1-30.9-9.1c-0.8-0.2-1.5-0.8-2.2-1.9c2,0.1,3.9,0.2,5.9,0.4c15,1.5,29.6-0.6,43.9-4.6
			c1.4-0.4,2.5-2.3,3.7-3.5c-1.6-0.2-3.4-1-4.8-0.6c-18.4,5-37,6.2-55.8,2.4c-1.5-0.3-2.9-0.7-4.2-1.1c-1.3-9.7-0.3-11.4,8.9-14
			c20.7-5.9,41.2-12.1,59.8-23.1c32.1-19.1,52.6-46.4,59.3-83.4c2.9-16.1,2.1-32.2-1.6-48.1c-1.5-6.5-0.3-10.3,5.7-13
			c4.2-2,9-2.6,14.3-4.1c-0.4,5.8-0.7,10.2-0.9,14.6c-0.3,7.8,1.3,14.7,6.4,21.3c11.1,14.3,18.3,30.6,20.3,48.7
			c2.3,20.4-2.1,39.6-13.4,56.7c-21.2,32.1-50.8,52.5-88.5,60.9c-2.6,0.6-5.1,1-7.7,1.6C2277,1923,2271,1923,2265,1923z
			 M2377.4,1799.3c-0.2-0.5-0.9-2-1.6-3.4c-0.9,1.1-2.6,2-2.7,3.2c-2.7,21.3-10.7,40.2-23.5,57.3c-0.8,1-0.5,2.8-0.7,4.2
			c1.4-0.5,3.3-0.6,4-1.6C2366.1,1841.8,2374.6,1822.4,2377.4,1799.3z"/>
		<path d="M2082,1923c-3.9-0.9-7.7-1.6-11.6-2.6c-31.8-8.1-52.9-28.7-67.2-57.3c-0.4-0.7-0.7-1.4-1-2.1c-0.5,0.2-0.9,0.2-1,0.4
			c-1.6,5.5-4.9,9.6-10.7,10.5c-6,1-10.8-1.9-14.2-6.6c-8.5-11.8-9.4-25.4-7.7-39.2c1.7-14.5,7.3-27.6,15.9-39.4
			c0.8-1.1,1-3.5,0.4-4.7c-2.8-6-6.2-12.1-13.7-12.4c-6.9-0.3-11.5,4.6-14.3,10.2c-3.6,7.1-6.1,14.6-8.8,22.1c-1,2.9-1.8,5.9-5.5,5
			c-3.5-0.9-3.4-3.7-2.8-6.9c2.1-9.7,5.2-18.9,10.9-27.1c5.6-8,12.7-14,22.3-16.8c3.8-1.1,7.6-2.4,11.3-3.9
			c7.1-2.8,14.2-5.3,20.9,1.5c7.2-15.2,16.1-28.4,28.1-39.2c10-9.1,21-16.4,34.6-18.8c3.5-0.6,7.4-0.4,10.8,0.5
			c6.7,1.6,10.8,8,8.9,14.5c-1.4,4.8-3.9,9.6-7,13.5c-12.1,14.7-21.9,30.5-26.9,49.1c-0.2,0.6-0.3,1.2-0.5,2.2
			c5.7,0.3,11.1,0.1,16.5,1c22.6,3.7,34.3,18.7,33.1,42.3c-0.1,2.2,0.1,4.5-0.7,6.4c-0.8,1.9-2.6,4.5-4.3,4.7
			c-3.1,0.5-3.7-2.2-3.8-5.1c-0.1-6,0.2-12.1-0.8-17.9c-2.3-12.7-10.4-20.2-20.1-19.8c-10.1,0.5-18.6,10-19.9,22.3
			c-1.2,11.3,2,21.8,5.7,32.1c8.7,24.3,22.3,45.8,39,65.2c3.1,3.6,3.3,6.3,1.1,9.9c-1.3,2.1-2.5,4.3-3.7,6.4
			C2090.7,1923,2086.3,1923,2082,1923z M2069.5,1701c-2.8,1-8.6,2.3-13.7,5c-27.8,14.8-42.9,39.3-51.6,68.5c-0.5,1.8,0.5,5,1.9,6.1
			c4.2,3.2,8.9,5.6,13.4,8.3c1.2,0.8,2.2,1.9,3.3,2.9c-1.6,0.3-3.6,1.4-4.7,0.9c-5.1-2.6-10.7-5-14.7-8.9c-3.7-3.6-5.4-2.9-8.3,0.1
			c-12.4,12.9-19.1,28.3-20.9,45.9c-1.1,10.6,0,21,5.8,30.4c2.2,3.5,5.1,6.6,9.7,5.7c4.6-1,5.8-5,6.4-9.1
			c2.5-14.6,7.6-28.2,15.8-40.6c6.9-10.5,15.7-18.8,28.1-22.8c2.1-0.7,4.4-3.8,4.7-6c3.1-25.2,14.2-46.5,30.2-65.7
			c2.1-2.5,4.3-5.2,5.7-8.1C2084.1,1706.1,2080.6,1700.9,2069.5,1701z M2032.6,1834.6c0.6,0.6,1.2,1.2,1.8,1.8
			c0.1,0.5,0.3,1,0.4,1.4c4,19,12.9,35.5,25.9,49.8c0.8,0.9,2.7,0.9,4.1,1.3c-0.3-1.4-0.2-3.1-0.9-4.2c-4.8-7-10.6-13.4-14.4-20.8
			c-4.4-8.6-7-18.2-10.5-27.3c-0.5-1.2-1.5-2.7-2.6-3C2035.3,1833.2,2033.9,1834.2,2032.6,1834.6z"/>
		<path d="M1758,1923c0.2-0.4,0.4-0.9,0.7-1.2c4.4-3.2,8.8-6.3,13.6-9.7c5,3.7,9.8,7.2,14.7,10.8C1777.3,1923,1767.7,1923,1758,1923
			z"/>
		<path d="M2636.8,1571.6c-0.8,4.2-1.8,12-3.7,19.5c-2.1,8.2-3.7,16.2-1.7,24.6c0.4,1.6,0.4,3.3,0.3,5c-0.6,8.1-5.2,13.3-13.2,12.3
			c-12.9-1.6-24.9,1.3-37.4,3.8c-24.9,4.9-48-1.5-69-15c-26.5-17.1-44.5-40.8-51.5-71.9c-3.3-14.4-2.4-28.6,1.2-43
			c1.9-7.4,2.4-15.4,1.9-23c-0.9-14.5,4.7-20,18.9-18.3c6.1,0.7,12.9,0.9,18.7-0.9c41.5-12.2,75.3,1.8,104.2,30.8
			C2625.2,1515.4,2636,1539.7,2636.8,1571.6z M2532.9,1478c-0.7,0.5-2.2,1.7-3.7,2.9c1.5,1.2,2.8,2.9,4.5,3.4
			c4.8,1.3,9.8,1.7,14.6,3.2c12.5,3.8,23.1,10.8,32.7,19.6c1.2,1.1,3.7,0.9,5.5,1.4c-0.2-1.7,0.2-4.1-0.8-5.1
			C2571.4,1489.2,2554.5,1480.3,2532.9,1478z"/>
		<path d="M2258,1229.2c4.8-11.9,9.2-22.9,13.7-33.9c0.6-1.4,1.6-2.5,2.4-3.8c2.1-3.5,5.1-5.1,8.8-2.8c3.8,2.3,2.8,5.6,1.1,9.1
			c-4.1,9-7.8,18.2-11.6,27.4c-0.4,1-0.3,2.3-0.4,3.2c8.3,0.5,16.5,0.3,24.4,1.6c37.7,6,65.9,41.1,63.9,79.3
			c-2.2,42.8-35.3,74.5-78.2,74.7c-15.1,0-30.4,0.6-45.4-1.1c-38.1-4.3-67.7-39.9-66.2-78.3c1.6-39.2,28.7-69.7,67.6-75.2
			C2245,1228.4,2252.1,1229.2,2258,1229.2z M2228.2,1268.4c3.4-0.3,6.7-1.4,6.6-5.2c-0.1-3.8-3.4-5.1-6.8-5c-3.4,0-6.7,1.5-6.6,5.3
			C2221.4,1267.1,2224.7,1268.3,2228.2,1268.4z"/>
		<path d="M2537.8,955.4c-1.3-8.3-2.4-16.5-3.8-24.7c-1-6,0.4-9.3,4.9-10.2c4.1-0.9,7.3,1.5,8.3,7.1c1.7,9.1,2.9,18.3,4.3,27.2
			c8.2,1.4,16.5,2.1,24.4,4.2c36.8,9.9,61,45.6,57.9,84.7c-2.9,36.7-32.7,68.2-69.4,72.2c-19.8,2.2-39.8,2.9-59.1-4.8
			c-33.7-13.4-54.4-48.1-50.2-84.2c4.2-35.9,32-64.8,67.6-70.2C2527.5,956.2,2532.3,955.9,2537.8,955.4z M2515.5,981.1
			c0-4.8-3.5-6.3-7.8-4.4c-12.9,5.8-22.6,15.1-29.6,27.3c-1.5,2.7-1.7,5.1,1.1,7c3,1.9,5.2,0.4,6.6-2.2
			c6.2-11.2,15.2-19.1,26.7-24.5C2513.9,983.5,2514.8,981.8,2515.5,981.1z"/>
		<path d="M1782.6,931.1c-17.6,2.4-32.3,9.3-42.5,23.8c-1.2,1.7-3.6,3.5-0.9,6c2.2,2,3.3,4.7,7.7,3.3c44.8-14,89.6,11.5,100.6,57
			c10.6,43.8-20.6,89.2-65.2,94.7c-44.8,5.6-83.6-23.7-88.8-68.5c-3.5-29.7,7.7-54.1,31.7-72.3c1.6-1.2,3.3-2.3,4.9-3.5
			c0.1-0.1,0.2-0.2,1.8-1.8c-2.5-1.9-5.2-3.6-7.6-5.7c-3.1-2.7-6-5.8-3.1-10.2c3-4.5,6.9-3.5,10.7-1.1c16.8-26,50.8-34.7,75.8-27
			c1.4,0.4,2.8,1.4,4.2,1.4c2-0.1,4-0.9,5.9-1.5c-1-1.8-1.7-4.8-3.2-5.2c-6.8-1.9-13.8-3.2-20.8-4.6c-1.7-0.3-3.6,0-6.4,0
			c4.3-6.2,9.8-8.8,16-9.9c8.7-1.6,16.9,0.1,24.6,4.3c5.8,3.2,11.5,6.7,17.2,10.1c9.8,5.7,20.1,8.8,32.3,4.1
			c-4.5,12.5-11,22.3-21.2,29.6c-21.1,15-49,8.5-64.4-4.7C1786.7,944.8,1783.6,938.8,1782.6,931.1z M1735.1,1007.5
			c0.1-4.6-3.4-8.4-7.9-8.6c-4.7-0.2-8.7,3.7-8.7,8.4c0,4.4,3.8,8.3,8.3,8.4C1731.1,1015.9,1735,1012,1735.1,1007.5z"/>
		<path d="M2360.3,1576.4c-3.6,5.8-7.2,11.5-10,16.1c-3.2,0.3-5.4,0.5-7.6,0.7c1.2,1.7,2.4,3.5,3.9,5.6c-1.3-0.3-2.7-0.7-5-1.3
			c1.4,1.7,2.3,2.9,3.6,4.4c-4.3,6.7-8.2,13.9-13.2,20.3c-17.9,23.1-53.4,21-68.9-3.8c-13.4-21.5-26.6-43.1-39.8-64.6
			c-17.7-28.9-4.6-63.3,27.9-73.2c0.8-0.2,1.5-0.6,1.7-0.7c-6.5-7.5-13.1-15-19.7-22.5c0.4-0.5,0.8-1,1.2-1.4
			c12.4-0.5,24,2.8,36.1,9c-6.3-11.9-9.2-23.9-9.3-37.4c11.2,6.2,19.7,14.5,26,23.7c3.3-11,6.6-22.3,9.9-33.6c0.7,0,1.5,0.1,2.2,0.1
			c6.3,10.6,9.8,22.2,10.1,33.9c8.7-7.8,17.5-15.6,26.3-23.5c0.5,0.4,1.1,0.8,1.6,1.3c0.2,12.7-3.5,24.4-10.1,36.4
			c12.1-5.9,23.9-8.6,37.5-6.8c-6.2,6.9-12.4,13.9-18.7,20.9c0.3,0.1,1.2,0.6,2.2,0.9c29,8.8,42.8,41.6,28.9,68.5
			c-1.5,2.9-3.1,5.9-5.1,8.6c-1.4,1.8-3.6,3-5.4,4.4c-1.3,1-2.6,1.9-3.9,2.9c0.2,0.3,0.5,0.7,0.7,1c1.3-0.6,2.6-1.3,4.8-2.4
			c-3,4.8-5.4,8.7-7.9,12.6c-0.2-3.3,0.1-6.7-0.7-9.9c-0.4-1.7-2.7-4.2-4.2-4.3c-4.8-0.3-9.6,0.5-13.9,0.8c0,5,0,9.7,0,14.4
			c0.5,0,1.1,0,1.6,0c0-3.1-0.4-6.2,0.2-9.1c0.3-1.5,2.3-2.8,3.5-4.1c0.8,1.4,2,2.7,2.2,4.2c0.3,3,0.1,6.1,0.1,9.2
			c0.8,0,1.5,0,2.3,0c0-3.1-0.4-6.2,0.2-9.2c0.3-1.5,2.3-2.7,3.6-4.1c0.8,1.4,2.1,2.7,2.3,4.2c0.4,3,0.1,6.1,0.1,10.3
			C2359.1,1577.4,2359.7,1576.9,2360.3,1576.4z M2296.6,1593.4c-0.4-0.2-0.9-0.6-1.3-0.6c-1.8,0-4.3-0.5-5.1,0.5
			c-1,1.1-1.1,3.7-0.6,5.3c0.3,1,3.3,2.3,3.9,1.8c1.5-1.1,2.4-3,3.3-4.7c0.3-0.6-0.1-1.6-0.2-2.4c1.1,2.3,2.2,4.6,3.5,7.4
			c1.1-1.7,1.8-2.8,2.6-4c0.8,1.2,1.5,2.3,2.8,4.4c1.1-3.4,1.9-5.9,2.7-8.4c-0.3-0.1-0.6-0.3-1-0.4c-0.7,1.2-1.3,2.3-2.1,3.6
			c-0.8-1.4-1.6-2.7-2.6-4.5c-0.9,1.9-1.5,3.2-2,4.1C2298,1596.6,2300.6,1590.2,2296.6,1593.4z M2288.6,1562
			c-5,2.1-10.9-2.4-12.9,4.4c-0.8,2.8-1.3,6.7,0.1,8.7c1.5,2.2,5.3,2.8,8.1,4c-0.1,0.5-0.3,1-0.4,1.4c-1.8-0.5-3.5-1-5.3-1.5
			c-0.9-0.2-1.8-0.2-2.7-0.2c0,0.9-0.1,2.5,0.1,2.6c2.8,0.7,5.6,1.6,8.4,1.5c1.4,0,3.7-1.9,3.8-3.1c0.1-1.9-1.3-3.9-2-5.8
			C2286.5,1570.7,2287.4,1566.9,2288.6,1562z M2320.9,1565c-1.1-1.4-1.9-2.5-2.8-3.6c-0.7-0.9-1.4-1.8-2.1-2.7
			c-0.7,0.9-1.3,1.9-2.2,2.6c-0.9,0.8-1.9,1.8-2.9,1.7c-0.9,0-1.9-1.2-2.8-1.9c-0.8-0.7-1.5-1.6-2.3-2.4c-0.6,1-1.7,2-1.8,3
			c-0.2,4.3-0.1,8.6-0.1,13c0.1,3.4,1.9,4.9,5.2,4.3c0.6-0.1,1.4-2,1.1-2.8c-0.8-2.8-2-5.5-3.2-8.8c3.2,0,4.7,0,6.8,0
			c0,2.2-0.2,4.2,0,6.2c0.2,1.6,0.3,3.6,1.3,4.5c1,0.9,3,0.7,4.6,0.7c0.2,0,0.8-2.1,0.5-2.4
			C2315.8,1572.4,2317.9,1568.8,2320.9,1565z M2301.7,1571.8c0.6-5-0.8-8.3-4.2-8.3c-2.3,0-5.4,1.5-6.8,3.4c-2.5,3.4-1,9.4,2.1,11.2
			c3.5,2,6.6,1.2,9-1.6c-0.7-5.2-7.7,2.7-7.5-4.2C2296.9,1572.1,2299.3,1572,2301.7,1571.8z M2327.9,1569.4c-2-1.9-0.3-7.2-6-5.4
			c1,3.2,1.7,6.2,2.8,9.1c1.4,3.8,2.1,7.2-3.7,9c4.4,1.8,7,1.5,8.2-2.5c1.6-5.2,3.2-10.3,4.9-15.7
			C2328.4,1562.2,2330.3,1567.8,2327.9,1569.4z M2254.2,1519.9c0-0.8,0.1-1.6,0.1-2.4c-2.1-1.5-4.1-3.9-6.5-4.3
			c-3.2-0.6-5.3,2-5.4,5.1c-0.1,3.4,2,6.1,5.5,5.5C2250.1,1523.5,2252.1,1521.3,2254.2,1519.9z M2282.1,1524.1
			c3.4-0.3,5.4-2.3,5.3-5.8c-0.1-3.2-2.2-5.8-5.4-5.1c-2.2,0.5-5,3-5.4,5.1C2276,1521.4,2278.2,1523.9,2282.1,1524.1z M2298,1550.1
			c0.7,0,1.5,0,2.2,0c1.4-2.1,3.8-4,4.1-6.2c0.5-3.3-2.1-5.7-5.5-5.6c-3.4,0.1-5.9,2.5-5.2,5.8
			C2294,1546.3,2296.5,1548.1,2298,1550.1z M2271.2,1544.8c0-0.8,0-1.6,0-2.3c-2.2-1.4-4.5-4.1-6.6-4c-1.9,0.2-4.7,3.2-5.1,5.3
			c-0.5,3.2,2.1,5.9,5.6,5.2C2267.4,1548.5,2269.2,1546.3,2271.2,1544.8z M2314.6,1524.8c0.8,0,1.5,0.1,2.3,0.1
			c1.6-2.1,4.1-4.1,4.4-6.4c0.4-2.9-1.8-5.3-5.2-5.4c-3.7-0.1-6,2.2-5.6,5.5C2310.8,1520.7,2313.2,1522.7,2314.6,1524.8z
			 M2342,1593.2c-0.6-0.6-1.2-1.2-1.7-1.8c-2.1,0.9-5.2,1.4-5.9,2.9c-1.9,3.9,0.9,5.9,4.5,7.2c-1.4-0.1-2.7-0.2-4.1-0.3
			c0,0.5,0,1,0,1.5c1.7,0,4.6,0.5,4.9-0.1C2340.8,1599.7,2341.3,1596.4,2342,1593.2z M2324.2,1589.7c-3.4,2.7-10.1,2.7-6.7,9
			c0.7,1.4,4.1,1.3,6.7,2.1C2324.2,1596.2,2324.2,1593.1,2324.2,1589.7z M2276.1,1589.6c0,3.7,0,7,0,11.7c2.8-1.1,5.9-1.3,6.6-2.8
			C2285.7,1592.4,2279.3,1592.3,2276.1,1589.6z M2334.8,1596.2c-2.4-2-4.2-4.3-5.2-4.1c-1.7,0.5-3,2.6-4.5,4
			c1.5,1.5,2.8,3.7,4.5,4.3C2330.5,1600.8,2332.4,1598.3,2334.8,1596.2z M2337.1,1563c-0.4,0-0.8,0-1.2,0c0,4.9,0,9.7,0,14.6
			c0.4,0,0.8,0,1.2,0C2337.1,1572.8,2337.1,1567.9,2337.1,1563z M2308.8,1592.7c0.1,2.5,0.2,4.8,0.3,7c0.3,0,0.7,0,1,0
			c0.6-2.1,1.2-4.3,1.8-6.4c0.4,0,0.8,0.1,1.2,0.1c0.6,2.2,1.1,4.3,1.9,7.3C2317.2,1593,2315.9,1591.3,2308.8,1592.7z"/>
		<path d="M2290.1,966.6c-1.7-13.6-3.6-26.9-10.2-39c-3.1-5.7-0.2-11.7,5.4-10.9c2.3,0.4,5.1,2.6,6.4,4.7c5.9,10,8.4,21.2,10.3,32.6
			c0.7,4.1,1.1,8.2,1.7,12.9c4.9-0.5,9.6-0.9,14.3-1.5c34.1-4.6,63.1,18.6,65.6,52.8c0.7,9.6-1.3,18.9-5.7,27.5
			c-8.5,16.8-17,33.5-25.6,50.2c-7.9,15.3-24.6,23.6-41.4,20c-9.5-2.1-18.6-2-28.1,0.1c-16,3.5-32.8-4.4-40.5-19
			c-9.2-17.5-18.4-35.1-26.9-52.9c-16.9-35.5,9.6-78.2,48.9-79C2272.8,965,2281.1,966.1,2290.1,966.6z M2227,1017.9
			c-0.1,5.5,1.6,8.2,4.6,8c3.8-0.3,4.6-3,4.8-6.3c0.5-7.2,3-13.6,8-18.9c2.3-2.5,3.5-5.2,0.5-7.7c-2.7-2.3-5.2-1.1-7.4,1.3
			C2231.1,1001.3,2227.6,1009.5,2227,1017.9z"/>
		<path d="M2062.9,1021.2c33.7,12,41.8,44,34.3,65.8c-8.3,24.2-32.9,38.7-58.5,33.9c-24.2-4.6-41.5-27.1-41-51.9
			c0.5-21.4,17.6-48.6,52-49.5c7-36.1,21.4-68.8,48-95.7c-20.5,2-57.4,26-77,50.1c12.3,9.4,20.2,21.5,21.6,37.4
			c-29.7,5-49.9,25.8-53.2,55.7c-9.4,0-17.9-3.1-25.6-8.1c-21-13.8-28.7-40.6-18.4-63.9c9.9-22.2,34.9-34.4,58.8-28.2
			c3.7,1,5.6-0.2,7.9-2.8c20.8-23.7,45.6-41.7,75.8-51.6c3-1,6.1-1.8,9.1-2.5c4.4-1,8.3-2,11.6-5.8c3.6-4.3,10.9-4.4,15.7-1.3
			c4.7,3,7.1,9,5.8,14.3c-1.5,5.7-6.3,9.4-12.2,10.2c-2.5,0.3-5.4,1.4-7.3,3.2c-25,23.1-38.9,52.2-46.2,85
			C2063.6,1017.3,2063.3,1019.1,2062.9,1021.2z M2029.8,1045.8c-4.1,0-6.2,2.4-6.6,6.1c-0.4,3.4,2.7,6.4,6.2,6.4
			c4,0,6.4-2.2,6.5-6.1C2036,1048.4,2033.7,1046.1,2029.8,1045.8z"/>
		<path d="M2013.5,1205.9c0.5-8.8,0.3-17.2,1.6-25.4c1.6-10.5,8-18.1,17.4-23.1c3-1.6,6.3-2.6,8.3,1.1c2,3.6-0.3,5.7-3.6,7.4
			c-9.2,4.7-13.2,12.8-13.7,22.8c-0.3,5.5,0,11,0,16.9c18.4,5,23.6,20.2,28.8,36.1c4.2,12.7,9.5,25.2,15.5,37.1
			c7.3,14.4,12.8,29,13.4,45.4c1.2,30-19.8,49.7-40.2,56.2c-20.4,6.5-40.2,4.9-58.5-6.6c-20.3-12.8-28.4-31.6-26.2-55.4
			c1.3-13.7,5.8-26.2,12.6-38c7.6-13.3,13.6-27.4,17.3-42.3c1-3.8,2.4-7.6,4.1-11.2C1995,1216.5,2001.8,1208.5,2013.5,1205.9z
			 M2006.5,1245c-0.8-1-1.7-2.1-2.7-3.3c-1.3,1.1-3.3,1.9-3.9,3.3c-5.6,13.2-11.1,26.5-16.4,39.9c-0.6,1.6,0.3,3.7,0.4,5.6
			c1.7-0.9,4.2-1.3,4.9-2.7c4.3-8.7,8.5-17.6,12.3-26.6C2003.2,1256.2,2004.6,1250.9,2006.5,1245z"/>
		<path d="M1713.8,1186.5c54.9,54.9,109.2,109.2,163.9,164c-27.8,26.4-60.9,38.3-98.8,32.1c-47.2-7.7-79.5-35.2-93.4-81
			C1672.4,1258.5,1683.3,1219.9,1713.8,1186.5z M1849.9,1331.1c-33.5,26.4-76.4,26.4-107.2,0.2c-15.7-13.4-25.3-30.4-28.2-50.8
			c-3.5-24.6,2.9-46.8,18.4-65.5c-3.7-4-7-7.6-10.4-11.3c-31.3,32.8-36.5,94.5,4.4,134.7c41.1,40.5,102,34.1,133.5,3.6
			C1857,1338.5,1853.6,1334.9,1849.9,1331.1z M1751.5,1273.3c2.2-0.9,6.5-2.1,10.4-4.2c3.9-2.1,4-5.1,0.1-7.1
			c-3.9-2-8.3-3.5-12.6-4.1c-4.7-0.7-8.5,3.3-8.4,7.8C1741.2,1270,1744.7,1273.2,1751.5,1273.3z M1791,1312.5
			c-0.3,7.3,3,11.2,7.7,11.2c4.6,0,8.5-4.1,7.6-9.1c-0.7-4-2-8.1-3.9-11.6c-2.2-4.1-5.3-4.1-7.5,0
			C1792.9,1306.5,1791.7,1310.6,1791,1312.5z M1776.4,1293.9c-0.8-3.9-2.6-5.9-5.5-4.8c-4.7,1.8-9.4,4-13.4,7
			c-3.1,2.3-2.4,7.5,0.3,10.3c2.8,2.9,7.7,3.6,10.3,0.6C1771.4,1303,1773.7,1298.3,1776.4,1293.9z"/>
		<path d="M2670.2,1291.9c-9.2-2.6-17.9-4.5-26.3-7.5c-30.7-10.9-50.5-32.7-60.6-63.2c-2.5-7.6-7.7-10.4-14.1-13.4
			c-0.4,4-0.8,7.6-1.2,11c0.6,0.4,0.8,0.8,1.1,0.8c6.1-0.5,8.2,3.1,10.2,8.3c11,28.8,30.5,49.6,59.4,61c2.9,1.1,4.1,2.5,4.3,5.7
			c2.8,43.1-24.5,79.4-66.5,88c-9.1,1.9-18.3,2.3-28.7,0.3c21.4-10.1,36.8-24.9,46.7-45.2c7-14.4,9.6-29.6,8.9-46.1
			c-41.4,0-82.5,0-124.4,0c2.6-20.2,11.1-36.6,25.3-50c14.3-13.6,31.6-20.6,51.2-22.3c2.9-13,1.3-25-5.5-36.3
			c-2.8-4.6-2.5-7.9,0.9-10c3.4-2.1,6.9-1,9.3,3.7c2.6,5.1,4.4,10.7,6.8,16c1,2.2,2.6,4.4,4.5,5.8c9.6,6.9,20.9,9.9,31.9,13.6
			c36.8,12.5,57,39.6,66.3,76.2C2670.1,1288.9,2670,1289.7,2670.2,1291.9z M2514.7,1259.3c1-0.4,1.9-0.6,2.5-1.1
			c6.6-4.4,13.1-8.7,19.6-13.3c1-0.8,1.3-2.7,1.9-4c-1.5-0.6-3.7-2.1-4.5-1.6c-7.2,4.5-14.2,9.4-21.2,14.4c-0.7,0.5-0.9,2.5-0.6,3.5
			C2512.5,1258,2513.9,1258.6,2514.7,1259.3z"/>
		<path d="M2003.5,1452.8c51.6,51.6,102.6,102.6,154,154c-26.7,25.5-58.6,36.3-94.9,29.8c-43.6-7.8-73-33.8-85.8-76.3
			C1964.7,1519.9,1975.2,1484,2003.5,1452.8z M2013.2,1589.9c18.7-18.6,37-36.7,54.7-54.3c-25.1,0-51.1,0-77.4,0
			C1992.1,1556.9,1999.9,1575.1,2013.2,1589.9z M2067.6,1527.8c-18.8-18.9-37.4-37.6-56.2-56.4c-13.4,16.2-20.4,34.9-21.1,56.4
			C2016.4,1527.8,2041.9,1527.8,2067.6,1527.8z M2075,1542.1c-18.3,18.2-36.6,36.4-54.8,54.5c11.9,12.9,41.3,25.2,54.8,22.7
			C2075,1593.4,2075,1567.5,2075,1542.1z M2139,1599.2c-18.9-18.9-37.5-37.5-56.1-56.1c0,25.4,0,51,0,77.1
			C2104.5,1619.6,2123,1612.4,2139,1599.2z"/>
		<path d="M2597.3,1298.1c-1.4,32.9-15.3,58.3-43.5,74.3c-30.6,17.4-61.8,16.2-91.1-3.3c-25-16.5-37.3-40.7-38.2-71
			C2482.3,1298.1,2539.4,1298.1,2597.3,1298.1z M2507,1310.5c-14,14.1-28.2,28.2-42.3,42.4c12,9.8,25.9,15.9,42.3,16.5
			C2507,1349.3,2507,1329.7,2507,1310.5z M2557.1,1352.8c-14.5-14.5-28.5-28.5-42.3-42.4c0,19.2,0,38.9,0,59
			C2531.2,1368.6,2545.2,1362.8,2557.1,1352.8z M2499.8,1305.3c-20.4,0-40.4,0-60.4,0c1.9,16.7,9.2,32.2,19.1,41.3
			C2472.2,1332.9,2485.8,1319.3,2499.8,1305.3z M2582.3,1305.2c-20.3,0-40.2,0-59.8,0c13.7,13.8,27.4,27.5,41.2,41.3
			C2574.2,1335,2580.8,1321.4,2582.3,1305.2z"/>
		<path d="M2177.7,1862.6c10.7,3.4,22,7.1,33.3,10.6c1.2,0.4,2.8-0.6,4.2-0.9c-1.1-1.1-2.1-2.9-3.4-3.2c-13.4-3-26.1-7.8-37.8-15.1
			c-1.7-1-4.1-3.8-3.7-4.6c1.6-3.5,1.9-8.7,7.7-8.3c11.1,0.8,22.2,2,33.4,2.3c32.7,1.1,63.7-4.5,90.6-24.7
			c18.9-14.1,32.4-32.3,40.2-54.6c0.2-0.6,0.6-1.1,0.9-1.7c0.4,0.1,0.9,0.1,1.3,0.2c-1,8.2-1.4,16.5-3.1,24.5
			c-7.8,37.2-30.1,63.3-63.8,79.5c-14.9,7.2-31,11.6-46.6,17.3c-1.6,0.6-3.4,0.6-4.8,1.4c-7.8,4.8-14.7,1.9-21.8-1.8
			C2194,1877.9,2184.8,1871,2177.7,1862.6z"/>
		<path d="M1780.2,1742.6c11.1-12.3,23-21.6,38.1-26.1c-12.7,9-21.4,21.1-28.3,36.3c17.3-8.3,34.2-13.8,52.6-11.5
			c-17.7,3.7-32.1,12.9-45.7,26c17.4,0.3,33.5,2.4,47.9,11.2c-10.8-2.3-21.6-2.5-32.3-0.5c-6.3,1.2-12.5,3.4-18.8,4.8
			c-5,1.1-10,2.1-15.1,2.4c-12.5,1-24.6-0.7-36.7-4.9c-13.6-4.7-28-5.1-42.4-1.8c14.4-8.8,30.4-11,47.8-11.2
			c-13.4-13.1-28-22.3-45.8-26c18.4-2.3,35.3,3,51.6,11c-1.4-9.1-11.1-21.8-27.3-35.9c11.1,2.6,18.8,7.7,38.4,25.8
			c2.5-17.2,5-34,7.5-50.8c0.3,0,0.5,0,0.8,0C1775.1,1708.1,1777.5,1724.9,1780.2,1742.6z"/>
		<path d="M2323.3,1786.4c-7.9,13-18.5,23.4-31.2,31.6c-24.3,15.6-51.5,20-79.8,19c-3-0.1-6-1.8-8.9-3
			c-11.2-4.6-21.3-10.8-30.5-18.9c0.8-1.5,1.5-2.7,2.2-4c2.1-3.9,4.7-5.5,9.7-4.5c20.5,4.1,41.1,8.2,62.3,7.4
			c27.7-1.1,53-8.9,74.8-26.6C2322.4,1787.1,2322.8,1786.8,2323.3,1786.4z"/>
		<path d="M2309.1,959.1c5.7-8.6,10.6-16.7,16.2-24.2c5.2-6.9,12.9-10.3,21.3-10.4c18.4-0.4,36.9-0.1,57.3-0.1
			c-7.6,10.3-13.9,20.1-21.6,28.5c-3.3,3.6-9.7,5.9-14.8,6.1C2348.4,959.5,2329.2,959.1,2309.1,959.1z"/>
		<path d="M2181,1162.9c26.9,16.3,52.4,31.8,78,47.2c-8.4,11.6-25,16.4-40.4,12.4c-20.5-5.3-30-20.1-34.4-39.3
			C2182.8,1177,2182.2,1170.7,2181,1162.9z"/>
		<path d="M2640.4,920c-5.2,7.9-9.7,15.3-14.8,22.1c-5,6.7-12.5,9.4-20.6,9.5c-16.1,0.2-32.3,0.1-49.9,0.1
			c9.7-11.8,13.2-27.8,30.3-31.2c1.5-0.3,3-0.5,4.4-0.5C2606.3,920,2622.8,920,2640.4,920z"/>
		<path d="M1750,1889.2c7.1-5.1,13.5-9.7,20.1-14.2c0.9-0.6,3-0.7,3.9-0.1c6.7,4.5,13.3,9.3,20.3,14.2c-7.6,5.4-14.7,10.4-22.1,15.7
			C1765.1,1899.8,1757.9,1894.7,1750,1889.2z"/>
		<path d="M1750,1811.6c7.6-5.4,14.8-10.5,22.1-15.7c7.3,5.1,14.4,10.2,22.2,15.7c-7.6,5.4-14.7,10.5-22.1,15.7
			C1764.9,1822.1,1757.8,1817,1750,1811.6z"/>
		<path d="M1777.4,1869.7c7.7-5.5,14.8-10.5,22.1-15.7c7.1,5,14.3,10.1,22.2,15.7c-7.3,5.2-14.3,10.2-21.3,15
			c-0.5,0.4-1.9-0.1-2.6-0.5C1791.2,1879.5,1784.6,1874.8,1777.4,1869.7z"/>
		<path d="M1744.8,1854c7.5,5.3,14.6,10.4,22.2,15.7c-7.1,5-13.9,9.8-20.7,14.5c-0.7,0.5-2.3,0.5-3,0c-6.8-4.7-13.5-9.5-20.6-14.6
			C1730.3,1864.4,1737.4,1859.3,1744.8,1854z"/>
		<path d="M1777.4,1831c7.7-5.4,14.8-10.5,22.2-15.7c7.2,5.1,14.4,10.2,22.1,15.7c-7.1,5.1-13.8,9.9-20.6,14.5
			c-0.9,0.6-3.1,0-4.2-0.8C1790.5,1840.4,1784.3,1835.9,1777.4,1831z"/>
		<path d="M1772.2,1866.1c-7.4-5.3-14.6-10.3-22.2-15.7c7.1-5,13.8-9.8,20.6-14.4c0.8-0.5,2.6-0.4,3.4,0.2
			c6.7,4.6,13.3,9.3,20.2,14.3C1786.8,1855.7,1779.7,1860.7,1772.2,1866.1z"/>
		<path d="M1722.7,1830.9c7.7-5.5,14.8-10.4,22.1-15.7c7.1,5.1,14.3,10.1,22.1,15.7c-7.2,5.1-14,10-20.9,14.7
			c-0.7,0.4-2.3,0.2-3.1-0.4C1736.3,1840.7,1729.8,1836,1722.7,1830.9z"/>
		<path d="M1777.4,1908.5c7.7-5.4,14.8-10.5,22.2-15.7c5.4,3.8,10.6,7.5,16.1,11.4c-5.2,6.9-11.8,11.8-19.3,15.4
			c-0.9,0.5-2.7,0.3-3.6-0.3C1787.7,1915.9,1782.8,1912.3,1777.4,1908.5z"/>
		<path d="M1733.3,1900.1c0.5,2.3,0.7,3.4,1.2,5.8c0.8-5.7,2.9-8.5,8.3-7.3c-0.5,1.1-0.9,2.1-1.5,3.6c3.8-3.4,3.7-4.3-0.7-5.9
			c2.3-3,4.5-3.7,7.8-1.1c5.9,4.6,12.1,8.8,18.5,13.3c-5.1,3.6-9.8,7.3-14.9,10.5c-1.2,0.8-3.7,0.9-4.9,0.2
			c-6.1-3.9-12-8.2-18.1-12.4C1730.7,1904.2,1731.7,1902.7,1733.3,1900.1z"/>
		<path d="M1717.6,1865.9c0-10.7,0-20.4,0-31.1c7.6,5.3,14.6,10.3,22,15.5C1732.2,1855.6,1725.3,1860.5,1717.6,1865.9z"/>
		<path d="M1804.8,1850.4c7.3-5.2,14.3-10.1,21.8-15.4c0,10.4,0,20.2,0,30.8C1819.3,1860.6,1812.2,1855.6,1804.8,1850.4z"/>
		<path d="M1804.8,1889.1c7.5-5.3,14.5-10.2,21.4-15.1c0.6,0.3,1.1,0.5,1.7,0.8c-2.4,8.2-4.9,16.3-7.6,25.3
			C1814.6,1896,1810,1892.8,1804.8,1889.1z"/>
		<path d="M1799.6,1807.9c-7.1-5-14-9.9-21-14.9c13.9-3.2,23.3-0.8,31.1,7.7C1806.4,1803,1803.2,1805.3,1799.6,1807.9z"/>
		<path d="M1739.8,1889.3c-5.4,3.5-10,6.5-15.9,10.3c-2.6-8.8-5-16.8-7.4-24.9c0.5-0.3,1.1-0.5,1.6-0.8
			C1725.1,1878.9,1732,1883.8,1739.8,1889.3z"/>
		<path d="M1765.6,1793.1c-6.8,4.8-13.6,9.7-20.8,14.8c-3.3-2.4-6.7-4.7-9.9-7C1743,1789.5,1754.5,1792.6,1765.6,1793.1z"/>
		<path d="M1729.4,1804.3c3.9,2.7,6.7,4.7,10.2,7.2c-6.8,4.8-13.3,9.4-19.7,14c-0.4-0.3-0.8-0.6-1.2-0.9
			C1722.1,1818.1,1725.6,1811.5,1729.4,1804.3z"/>
		<path d="M1804.8,1811.6c3.3-2.3,6.2-4.4,10.1-7.2c3.7,6.9,7.3,13.4,10.8,19.9c-0.5,0.4-0.9,0.7-1.4,1.1
			C1818,1820.9,1811.5,1816.3,1804.8,1811.6z"/>
		<path d="M2195.5,1835.6c-8.5,1.9-12.9-2.6-16.5-9.6C2184.7,1829.3,2189.9,1832.3,2195.5,1835.6z"/>
		<path d="M1866,1549.4c-0.2,11.7-3.2,27.9-13,42.2c-14.7,21.6-36.5,21.7-51.1,0.1c-11.8-17.5-14.4-37.3-12.5-57.8
			c1.4-15.5,5.7-30.1,16.1-42.2c13-15.2,30.6-15.2,43.8-0.1C1860,1503.7,1866.1,1522.8,1866,1549.4z M1850.5,1515.1
			c-1.2-1.6-2.6-3.6-4-5.6c-1.5,1.5-3.1,3-4.3,4.7c-0.7,0.9-1,2.2-1,3.3c0,2.6,0.4,5.2,0.6,7.7c2.4-1.8,4.9-3.4,7.1-5.4
			C1849.7,1519,1849.8,1517.4,1850.5,1515.1z M1858.6,1544c-2.6-2.5-5.1-6-6-5.6c-2.7,1.2-4.8,3.8-7.2,5.9c2.5,2.1,4.8,4.6,7.6,6.1
			C1853.5,1550.6,1856.2,1546.8,1858.6,1544z M1828.8,1570.2c-3,6.4-4.8,11.4-3,17c0.4,1.2,2.1,2.9,2.9,2.7c1.3-0.3,3-1.7,3.3-2.9
			C1833.5,1581.5,1832,1576.4,1828.8,1570.2z M1839.6,1566.5c1.2,3.5,2.2,7,3.6,10.3c0.4,1,2,2.1,3,2c1-0.1,2.2-1.4,2.7-2.5
			c2.1-4.1,0-9.6-4.6-12.3c-0.9-0.5-2.3-1-3.1-0.6C1840.5,1563.8,1840.2,1565.3,1839.6,1566.5z M1829.3,1516.4
			c2.8-4.9,4.7-10,3-15.5c-0.4-1.2-2.1-2.9-2.8-2.8c-1.3,0.3-3,1.7-3.3,2.9C1824.9,1506.4,1825.8,1511.6,1829.3,1516.4z
			 M1808.2,1572.9c0.9,1.2,2.2,3.2,3.5,5.1c1.5-1.5,3-3,4.3-4.6c0.6-0.7,1-1.9,0.9-2.8c-0.1-2.7-0.5-5.4-0.7-8.1
			c-2.4,2.1-4.9,4.1-7.1,6.3C1808.5,1569.5,1808.6,1570.8,1808.2,1572.9z M1799.9,1543.7c2.7,2.7,5.3,6.2,6,5.9
			c2.7-1.4,4.7-3.9,7-6.1c-2.3-2-4.3-4.6-6.9-5.6C1805,1537.6,1802.6,1541.1,1799.9,1543.7z M1807.5,1516c2.2,3,3.8,5.5,5.8,7.8
			c0.7,0.8,2.6,1.4,3.5,1c0.8-0.3,1.3-2.2,1.2-3.3c-0.3-2.4-0.7-5-1.8-7.2c-0.9-1.8-2.8-3.1-4.3-4.6
			C1810.6,1511.6,1809.3,1513.5,1807.5,1516z"/>
		<path d="M1981.1,1833.6c1.6-12.9,5.5-24.6,12.9-35.1c0.8-1.2,2.8-1.6,4.2-2.3c-0.3,1.6-0.2,3.4-1,4.7
			c-6.6,9.9-10.4,20.7-11.4,32.6c-0.2,2.3,1.7,5.9-2.5,6.2C1982.7,1839.7,1981.9,1835.7,1981.1,1833.6z"/>
		<path d="M2031.3,1551.9c-1.8,4-3.9,6.9-8.3,5.8c-0.9-0.2-2.1-3.5-1.6-4.3C2023.9,1549.5,2027.4,1550.7,2031.3,1551.9z"/>
		<path d="M2032.7,1512.6c-4.7,0.7-8.5,1.6-10.5-2.7c-0.4-0.9,1.2-3.8,2.3-4C2029.1,1505.1,2030.4,1508.8,2032.7,1512.6z"/>
		<path d="M2058.3,1579.1c1.9,3.9,2.5,7.4-1.1,9.9c-0.8,0.6-4.3-0.7-4.6-1.7C2051.5,1582.9,2054.8,1581.1,2058.3,1579.1z"/>
		<path d="M2098,1578.2c4.1,1.6,7.3,3.4,6.6,7.8c-0.1,0.9-3.3,2.5-4.1,2C2096.5,1586.1,2096.6,1582.6,2098,1578.2z"/>
		<path d="M2496.7,1338.8c-0.8,2.4-1.6,4.8-2.3,7.3c-1.1-0.4-2.2-0.8-3.4-1.2c1-2.4,2-4.7,2.9-7.1
			C2494.8,1338.1,2495.7,1338.4,2496.7,1338.8z"/>
		<path d="M2528.2,1337.9c0.9,2.3,1.8,4.6,2.7,6.9c-1.3,0.3-3.6,1-3.7,0.8c-0.9-2.3-1.4-4.7-2.1-7
			C2526.1,1338.4,2527.1,1338.2,2528.2,1337.9z"/>
		<path d="M2474,1317c-2.4,0.9-4.7,1.8-7.1,2.7c-0.3-1.3-0.7-2.6-1-3.9c2.4-0.6,4.8-1.2,7.3-1.8
			C2473.5,1315.1,2473.7,1316.1,2474,1317z"/>
		<path d="M2548.4,1314.3c2.4,0.4,4.9,0.8,7.2,1.5c0.1,0-0.4,2.5-0.6,3.8c-2.4-0.9-4.9-1.7-7.3-2.6
			C2547.9,1316.1,2548.1,1315.2,2548.4,1314.3z"/>
	</g>
</g>
<path class="st0" d="M293.6,79.8c-49.6,6.8-90.8,26-119.6,67.1c-3.3,4.8-10.2,9.9-2.6,16.9c6.1,5.6,9.2,13.2,21.6,9.4
	c126.1-39.4,252.1,32.5,282.9,160.5c29.7,123.3-58.1,250.9-183.4,266.6c-126,15.7-235.3-66.8-250-192.7
	c-9.7-83.6,21.8-152.2,89.2-203.6c4.5-3.4,9.2-6.5,13.8-9.7c0.4-0.3,0.6-0.7,5.1-5.2c-7.1-5.3-14.6-10.2-21.3-16
	c-8.8-7.6-17-16.3-8.7-28.8c8.4-12.7,19.5-9.8,30.2-3.2C198,67.8,293.7,43.4,364,65c4,1.2,8,4,11.9,3.8c5.6-0.3,11.1-2.6,16.7-4.1
	c-2.9-5.1-4.9-13.5-8.9-14.7c-19.2-5.4-39-9-58.6-12.8c-4.9-0.9-10.1-0.1-18-0.1c12.2-17.3,27.6-24.7,45.1-28
	c24.4-4.6,47.6,0.4,69.1,12.2c16.4,9,32.3,19,48.5,28.3c27.7,16,56.5,24.9,91,11.5c-12.6,35.2-31,62.9-59.6,83.2
	c-59.3,42.3-137.9,24-181.3-13.2C304.9,118.2,296.2,101.4,293.6,79.8z M159.8,294.8c0.2-13-9.5-23.6-22.3-24.1
	c-13.2-0.5-24.4,10.3-24.5,23.6c-0.1,12.3,10.8,23.3,23.3,23.6C148.6,318.1,159.5,307.4,159.8,294.8z"/>
<g class="st0">
	<path class="st1" d="M69.5,363.9c5.8,0,11.5,0,17.4,0c0-0.9,0.1-1.6,0.1-2.3c0-72.4,0-144.9,0-217.3c0-1.5-0.4-2.4-1.8-3.2
		c-20.2-11.9-30.9-29.6-31.9-53c0-1,0.2-2.1,0.4-3.2c6.6-24.5,13.2-49,19.8-73.5c0.2-0.6,0.4-1.1,0.6-1.8c0.8,0,1.5,0,2.2,0
		c150.9,0,301.8,0,452.7,0c1.7,0,2.4,0.4,2.9,2.1c6.5,24.6,13.3,49.1,19.7,73.7c0.9,3.5,0.3,7.5-0.3,11.2
		c-3.6,20.6-14.8,35.9-33.4,45.7c-1,0.5-1.6,1.2-1.4,2.4c0.1,0.4,0,0.8,0,1.2c0,71.6,0,143.3,0,214.9c0,0.9,0,1.9,0,3
		c6.3,0,12.5,0,18.8,0c0,74.6,0,149,0,223.6c-6.3,0-12.4,0-18.8,0c0,7,0,13.8,0,20.6c-9.6,0-18.9,0-28.4,0c0-6.8,0-13.6,0-20.5
		c-124.2,0-248.1,0-372.3,0c0,6.7,0,13.5,0,20.4c-9.6,0-19,0-28.6,0c0-6.8,0-13.5,0-20.5c-6,0-11.7,0-17.6,0
		C69.5,512.8,69.5,438.4,69.5,363.9z M302.6,91.5c-2.7,31.9-28.4,56-59.2,57.5c-16.9,0.8-31.9-4.4-44.5-15.7
		c-12.6-11.2-19.4-25.5-20.8-41.4c-5.7,34.8-26.5,54.2-62.5,57.6c0,71.2,0,142.6,0,214.2c124.1,0,248.1,0,372.1,0
		c0-71.6,0-143.1,0-214.5c-31.1-0.8-57.7-25.6-60.5-57.5c-1.7,16.5-8.5,30.5-20.9,41.5c-12.5,11.1-27.2,16.3-43.9,15.7
		c-13.8-0.5-26.2-5.2-36.9-14C311.9,123.8,304.5,109.1,302.6,91.5z"/>
</g>
<g id="YXNlTs.tif">
	<g>
		<path d="M203.4,608.5c-64.2,0-128.5,0-192.7,0c-1.6,0-3.1-0.7-4.7-1.1c0.3-0.2,0.8-0.4,0.9-0.6c2.9-15.1,5.4-30.4,8.7-45.4
			c7.2-32.9,14-65.9,22.5-98.5c13.4-51.5,27.1-103,42.5-154c10.1-33.3,23-65.7,35.3-98.3c9.3-24.8,20.7-48.7,36.7-70
			c3.8-5,8.1-10,13.2-13.7c12.1-9.1,22.9-3.6,32,7.8c8.3,10.3,14.7,22.1,21.8,33.4c3.2,5.1,5.9,10.6,9.5,17c0.2-2.4,0.1-3.4,0.4-4.3
			c10.6-38,21.1-76,35.6-112.7c7.5-19,15.1-38,28.1-54.3c7.1-8.9,15.4-11.4,23.6-3.7c6.6,6.2,12.1,13.9,16.5,21.9
			c12.3,21.7,20.6,45.2,28.2,68.9c7.1,22.3,14.2,44.7,20.3,67.4c7.8,29.2,14.8,58.5,21.8,87.9c4.6,19.1,8.4,38.3,12.7,57.5
			c1.5,6.7,3.2,13.3,4.9,20.7c0.9-1.9,1.5-2.9,1.8-3.9c9-30.7,19.6-60.9,34.7-89.2c4.4-8.3,10.3-15.9,16.5-23
			c4.5-5.2,10.8-6,16.6-1.6c9.3,7.1,14.8,16.9,19.8,26.8c15.6,30.5,26.7,62.7,35.9,95.5c10.6,37.9,20.7,76.1,30.3,114.3
			c5.9,23.3,10.6,46.9,15.4,70.5c3.5,17,6.3,34.1,9.6,51.2c2.2,11.3,4.7,22.6,7,33.9c-65.8,0-131.6,0-197.5,0
			c-0.3-0.5-0.7-1-0.9-1.5c-7.7-29.5-17.6-58.2-32.9-84.8c-10.3-18.1-22.5-34.4-40.7-45.4c-12.2-7.4-25.7-9.6-39.3-7.4
			c-18.3,3-32.3,14.1-43.8,27.9c-16.6,20.2-28.1,43.3-36.5,68C212.5,579.5,208,594,203.4,608.5z"/>
	</g>
</g>
</svg>
