<?xml version="1.0" encoding="utf-8"?>
<!-- Generator: Adobe Illustrator 21.0.0, SVG Export Plug-In . SVG Version: 6.00 Build 0)  -->
<svg version="1.1" id="Layer_1" xmlns="http://www.w3.org/2000/svg" xmlns:xlink="http://www.w3.org/1999/xlink" x="0px" y="0px"
	 viewBox="0 0 612 612" style="enable-background:new 0 0 612 612;" xml:space="preserve">
<style type="text/css">
	.st0{display:none;}
	.st1{display:inline;}
</style>
<g id="REF" class="st0">
</g>
<g class="st0">
	<path class="st1" d="M600.9,303.6C600.8,466.4,469,598.2,306.4,598.2c-163,0-294.9-132-294.6-294.8C12.1,140.5,144,8.8,306.6,9.1
		C469.1,9.3,601,141.3,600.9,303.6z M569.9,365.9c13.2-50.7,11.2-122-22.8-186.9c-22.9-43.7-55.1-78.6-96.9-105.2
		c0,9.9,0,19.2,0,28.6c-17.1-5.2-34-10.3-51.4-15.6c1.5,14.6,2.9,28.7,4.3,43.1c-29.3-4.1-57.9-8-86.5-12.1
		c-1.7-0.2-3.5-1.5-4.8-2.8c-8.1-8.4-16.1-17-24.1-25.5c-7.2-7.6-7.2-7.6-16.4-2.7c-8.2,4.3-16.4,8.7-25,13.2
		c9.3,11.3,18.2,22.3,27.9,34.1c-2.3-0.7-3.4-1-4.4-1.3c-27.4-8.4-54.7-16.8-82.1-25.4c-2.5-0.8-4.3-0.5-6.4,1.2
		c-15.3,12.2-30.8,24.3-46.2,36.5c-1.5,1.2-3,2.3-5.2,3.9c1.6-18.7,3-36.5,4.6-55.3c-34.3,28.5-59.9,62.4-77.5,102.8
		c19.7,6.1,39,12,58.2,18c2.8,0.9,4.9,0.5,7.4-1c25.5-15.4,51-30.7,76.4-46.2c2.7-1.6,4.5-1.5,7,0.2c16.5,10.9,33,21.7,49.6,32.5
		c1.1,0.7,2.2,1.5,3.6,2.5c-28.1,16.1-55.8,32.1-84.1,48.3c10.7,6.6,20.8,13,31.4,19.6c-11.3,9.3-21.9,18.3-32.8,26.9
		c-4.1,3.3-6.9,6.9-7.9,12.1c-0.9,5-2.5,9.8-3.9,15c15.8,0.7,30.9,1.5,46.2,2.2c0.1,0.8,0.3,1.3,0.3,1.9
		c-1.1,15.7-2.1,31.4-3.4,47.1c-0.1,1-1.9,2.5-3,2.7c-21.2,3.7-42.5,7.1-63.7,10.9c-5.5,1-9.9,0-14.6-2.6
		c-10.9-6.1-22-11.8-33.3-17.8c-10.4,14.8-20.7,29.4-30.7,44c-0.7,1-0.2,3.1,0.4,4.5c18,39,43.9,71.8,77.4,98.6
		c0.9,0.7,1.8,1.2,3.6,2.4c-3.9-15.5-7.5-30-11.2-44.9c1.6,0.3,2.5,0.5,3.4,0.8c26,7.2,52,14.4,77.9,21.7c2.7,0.8,4.9,0.5,7.4-0.9
		c18.2-10,36.4-19.8,54.7-29.6c1.3-0.7,2.6-1.3,4.1-2c5.4,16.4,10.9,32.3,16,48.3c1,3.2,2.5,3.9,5.7,3.5c22-2.6,44-5.1,65.9-7.5
		c4.7-0.5,8.6-1.9,12.5-4.8c24-17.9,48.1-35.6,72.1-53.5c2.5-1.9,4.2-2.1,6.8-0.1c15.5,11.3,31.2,22.4,46.8,33.6
		c1.2,0.9,2.5,1.7,3.8,2.6c0.6-0.5,1.1-0.8,1.4-1.2c18.6-20.8,33.7-43.9,45-69.4c0.8-1.7,0.5-4.4-0.2-6.2
		c-7.8-19.9-15.8-39.8-23.8-59.6c-0.6-1.5-1.1-3-1.9-5.3C542.1,351.3,555.9,358.5,569.9,365.9z"/>
	<path class="st1" d="M337.2,237.2c38.1-4.5,75.5-8.8,113.8-13.3c-4.5,14.5-8.8,28.5-13.1,42.7c4.6,2.4,9,4.7,13.4,7
		c12.7,6.6,25.4,13.3,38.2,19.7c2.6,1.3,3.2,2.8,2.8,5.5c-2.5,17.8-4.9,35.6-7.1,53.4c-0.3,2.2,0.1,4.8,0.8,6.9
		c6.1,16.8,12.4,33.6,18.7,50.4c0.5,1.3,0.8,2.6,1.6,5.1c-26.5-20.6-52.1-40.4-78.1-60.7c-4.8,11.9-9.5,23.5-14.4,35.5
		c-10.2-4.8-19.9-9.8-30-14c-5.1-2.1-6.8-4.8-7-10.4c-0.7-22.3-2.1-44.5-3.1-66.7c-0.2-4.6-1.4-8.5-4-12.4
		c-10.2-14.8-20-29.8-30-44.7C338.9,240.1,338.2,238.9,337.2,237.2z"/>
	<path class="st1" d="M226,255c13.6-9.1,26.5-17.8,39.7-26.6c8.7,9.2,17.3,18.2,26.1,27.4c-5.8,5.1-12.2,10.9-18.7,16.5
		c-0.7,0.6-2.4,0.8-3.3,0.4C255.3,266.9,241.1,261.1,226,255z"/>
	<path class="st1" d="M316.8,475.7c-8-22.4-15.6-43.8-23.4-65.9c16.2,4.2,31.9,8.3,48.1,12.5C333.4,440,325.3,457.4,316.8,475.7z"/>
</g>
<path class="st0" d="M293.6,79.8c-49.6,6.8-90.8,26-119.6,67.1c-3.3,4.8-10.2,9.9-2.6,16.9c6.1,5.6,9.2,13.2,21.6,9.4
	c126.1-39.4,252.1,32.5,282.9,160.5c29.7,123.3-58.1,250.9-183.4,266.6c-126,15.7-235.3-66.8-250-192.7
	c-9.7-83.6,21.8-152.2,89.2-203.6c4.5-3.4,9.2-6.5,13.8-9.7c0.4-0.3,0.6-0.7,5.1-5.2c-7.1-5.3-14.6-10.2-21.3-16
	c-8.8-7.6-17-16.3-8.7-28.8c8.4-12.7,19.5-9.8,30.2-3.2C198,67.8,293.7,43.4,364,65c4,1.2,8,4,11.9,3.8c5.6-0.3,11.1-2.6,16.7-4.1
	c-2.9-5.1-4.9-13.5-8.9-14.7c-19.2-5.4-39-9-58.6-12.8c-4.9-0.9-10.1-0.1-18-0.1c12.2-17.3,27.6-24.7,45.1-28
	c24.4-4.6,47.6,0.4,69.1,12.2c16.4,9,32.3,19,48.5,28.3c27.7,16,56.5,24.9,91,11.5c-12.6,35.2-31,62.9-59.6,83.2
	c-59.3,42.3-137.9,24-181.3-13.2C304.9,118.2,296.2,101.4,293.6,79.8z M159.8,294.8c0.2-13-9.5-23.6-22.3-24.1
	c-13.2-0.5-24.4,10.3-24.5,23.6c-0.1,12.3,10.8,23.3,23.3,23.6C148.6,318.1,159.5,307.4,159.8,294.8z"/>
<g class="st0">
	<path class="st1" d="M69.5,363.9c5.8,0,11.5,0,17.4,0c0-0.9,0.1-1.6,0.1-2.3c0-72.4,0-144.9,0-217.3c0-1.5-0.4-2.4-1.8-3.2
		c-20.2-11.9-30.9-29.6-31.9-53c0-1,0.2-2.1,0.4-3.2c6.6-24.5,13.2-49,19.8-73.5c0.2-0.6,0.4-1.1,0.6-1.8c0.8,0,1.5,0,2.2,0
		c150.9,0,301.8,0,452.7,0c1.7,0,2.4,0.4,2.9,2.1c6.5,24.6,13.3,49.1,19.7,73.7c0.9,3.5,0.3,7.5-0.3,11.2
		c-3.6,20.6-14.8,35.9-33.4,45.7c-1,0.5-1.6,1.2-1.4,2.4c0.1,0.4,0,0.8,0,1.2c0,71.6,0,143.3,0,214.9c0,0.9,0,1.9,0,3
		c6.3,0,12.5,0,18.8,0c0,74.6,0,149,0,223.6c-6.3,0-12.4,0-18.8,0c0,7,0,13.8,0,20.6c-9.6,0-18.9,0-28.4,0c0-6.8,0-13.6,0-20.5
		c-124.2,0-248.1,0-372.3,0c0,6.7,0,13.5,0,20.4c-9.6,0-19,0-28.6,0c0-6.8,0-13.5,0-20.5c-6,0-11.7,0-17.6,0
		C69.5,512.8,69.5,438.4,69.5,363.9z M302.6,91.5c-2.7,31.9-28.4,56-59.2,57.5c-16.9,0.8-31.9-4.4-44.5-15.7
		c-12.6-11.2-19.4-25.5-20.8-41.4c-5.7,34.8-26.5,54.2-62.5,57.6c0,71.2,0,142.6,0,214.2c124.1,0,248.1,0,372.1,0
		c0-71.6,0-143.1,0-214.5c-31.1-0.8-57.7-25.6-60.5-57.5c-1.7,16.5-8.5,30.5-20.9,41.5c-12.5,11.1-27.2,16.3-43.9,15.7
		c-13.8-0.5-26.2-5.2-36.9-14C311.9,123.8,304.5,109.1,302.6,91.5z"/>
</g>
<g>
	<path d="M308.9,531.2V486l0,0V531.2l6.7-45.6c47.1-1.7,89.7-21.1,121.4-51.9l48,48l3.6-3.5l-48.1-48c31-31.9,50.5-74.9,52-122.3
		l50.6-7.5l-50.8-7.6c-2.3-46.1-21.4-87.8-51.6-118.8l47.9-47.9l-3.3-3.3l-47.9,47.8c-32.2-31.5-75.7-51.2-123.9-52.4l-6.7-45.5
		l-6.8,45.6c-46.2,2.3-88,21.4-119.2,51.6l-47.8-47.2l-3.6,3.5l47.8,47.2c-31,31.8-50.6,74.8-52.2,122.3l-43.8,6.5l43.9,6.5
		c1.7,46.9,21,89.3,51.5,120.8l-47.1,46.9l3.6,3.5l47.1-46.7c31.7,31,74.6,50.6,121.9,52.3L308.9,531.2z M303.8,462.4L285.5,339
		l1-1.9l8.2-11.8l3.6-0.2c1.8,0.9,3.6,1.6,5.5,2.1V462.4z M245.8,227.6c11.7-9.9,25.7-17.1,41.1-20.6l-6.8,45.2L245.8,227.6z
		 M262.9,275.5l-49.8,7.4c3.3-16.9,11.1-32.1,22-44.6L262.9,275.5z M281.1,197.8l-3.6-20.1c4.6-1.1,9.3-1.9,14.1-2.5l-3.1,20.9
		C286,196.6,283.5,197.1,281.1,197.8z M278.6,198.4c-7.7,2.2-15,5.3-21.9,9l-9.7-17.8c8.8-4.8,18.2-8.6,28.1-11.3L278.6,198.4z
		 M254.6,208.8c-6.2,3.6-11.9,8.1-17.2,12.8l-16.9-12.2c7.4-7.1,15.5-13.3,24.4-18.5L254.6,208.8z M228.9,229.9
		c-5.1,5.6-9.8,11.6-13.5,18.2l-16.3-12.3c5-8.2,10.9-15.6,17.4-22.5L228.9,229.9z M214.1,250.3c-3.9,7-6.8,14.6-9.1,22.4l-19.7-5
		c2.9-10.5,7.1-20.5,12.5-29.7L214.1,250.3z M204.4,275.2c-0.8,3.1-1.3,6.2-1.8,9.4l-21,3c0.7-5.9,1.7-11.8,3.1-17.4L204.4,275.2z
		 M273.9,279l13.2,9.2v0.3c-1.5,2.7-2.6,5.7-3.1,8.8H150.1L273.9,279z M281.6,346.8l7.5,50.8c-17.3-3.6-32.8-11.7-45.5-23.1
		L281.6,346.8z M233.2,363.6c-9.7-11.9-16.6-26.1-19.8-41.6l44.8,6.6L233.2,363.6z M202.7,320.4c0.6,3.5,1.2,7,2.2,10.3l-20.1,3.5
		c-1.4-5.5-2.4-11.2-3.1-16.9L202.7,320.4z M205.5,333.3c2.5,8.3,6.1,16.2,10.4,23.6l-18.4,8.7c-5.2-9-9.2-18.7-12.1-28.9
		L205.5,333.3z M217.3,359c2.9,4.7,6.3,9,9.8,13.1l-12,16.9c-6.1-6.6-11.6-13.6-16.2-21.3L217.3,359z M235.1,380.6
		c5.8,5.4,11.9,10.2,18.8,14.2l-11.3,16.9c-8.8-5.4-16.9-11.8-24.2-19L235.1,380.6z M256,396.1c7.3,4.1,15,7.3,23.2,9.7l-5.2,19.6
		c-10.4-2.9-20.1-7.1-29.2-12.4L256,396.1z M281.6,406.4c3,0.8,6,1.3,9,1.8l3.1,21c-5.9-0.8-11.7-1.7-17.3-3.3L281.6,406.4z
		 M308.9,465.9L308.9,465.9v-40.5V465.9z M318.6,465.3l4.6-31c30.7-3.3,58.3-17,79.1-37.5l11.5,8.3l-8.5-11.5
		c19.7-20.8,32.8-48,35.8-78l31-4.6C467.7,393.9,401.5,460.5,318.6,465.3z M413.1,274c-2.5-9-5.9-17.5-10.4-25.3l18.1-9.3
		c5.4,9.6,9.5,19.9,12.3,30.7L413.1,274z M433.6,272.6c0.9,3.8,1.6,7.8,2.1,11.9l-21.1-3.2c-0.3-1.6-0.5-3.3-0.9-4.9L433.6,272.6z
		 M403.8,279.7l-45.4-6.7l24.5-34.3C392.9,250.4,400.1,264.3,403.8,279.7z M401.4,246.6c-3.5-5.9-7.8-11.3-12.3-16.4l12.1-17
		c7,7.3,13.2,15.3,18.3,24L401.4,246.6z M382.1,223.1c-5.7-5.3-12-10.2-18.8-14.1l11.6-16.7c8.5,5.2,16.3,11.4,23.5,18.3
		L382.1,223.1z M361.2,207.6c-6.9-3.8-14.1-6.9-21.9-9.2l6.8-19.2c9.4,2.8,18.3,6.8,26.6,11.7L361.2,207.6z M336.9,197.8
		c-3.9-1-7.9-1.7-11.9-2.4l-3.1-20.9c7.5,0.7,14.7,2,21.8,4L336.9,197.8z M373.9,229.4l-39.4,30.3l-8-53.8
		C344.6,209.4,360.8,217.6,373.9,229.4z M335.9,348.5l0.6,1.2l36.5,26.1c-10.7,9.3-23.3,16.3-37.3,20.3l-0.4,0.1
		c-2.1,0.6-4.4,0.9-6.7,1.4L335.9,348.5z M432.4,336c-3,11.2-7.6,21.8-13.4,31.6l-16.5-12c4.6-8,8.2-16.7,10.6-25.8L432.4,336z
		 M413.7,327.4c0.6-2.6,1-5.3,1.5-8l20.7-3.1c-0.6,5.9-1.5,11.7-2.9,17.3L413.7,327.4z M365.1,394.1c5.8-3.6,11.1-7.8,16.2-12.4
		l16.9,12.1c-7.2,7.1-15.4,13.3-24.1,18.5L365.1,394.1z M371.9,413.6c-9,5.1-18.5,9.1-28.6,11.9l-3.7-20c8.2-2.5,16.1-5.9,23.4-10.2
		L371.9,413.6z M390,372.7c4.1-4.7,7.9-9.6,11.1-14.9l16.5,11.9c-4.4,7.1-9.6,13.6-15.3,19.6L390,372.7z M384,364.4l-27-36.4l47.7-7
		C401.5,337.2,394.2,352.1,384,364.4z M337.1,406.1l3.7,20c-5.5,1.4-11.2,2.3-16.9,3l3.1-20.9C330.5,407.7,333.8,407,337.1,406.1z
		 M472.4,305.8l-121.9,18l-13.2-9.2l-0.5-7.8c0.1-0.4,0.3-0.9,0.3-1.3h135.3C472.5,305.6,472.4,305.7,472.4,305.8z M472.1,289.9
		l-31.2-4.6c-3.7-29.5-17-55.9-36.8-76.1l4.6-6.5l-6.2,4.7c-21.4-21.1-49.8-35-81.4-37.9l-4.5-30.9
		C399.2,142.5,465.9,207.8,472.1,289.9z M311.9,141.6l18.4,123.8l-8.1,11.7c-3.1-1.5-6.6-2.4-10.2-2.5V141.6z M310.6,284.6
		c9.2,0,16.8,7.5,16.8,16.8c0,9.3-7.5,16.7-16.8,16.7c-9.3,0-16.9-7.5-16.9-16.7C293.8,292.1,301.4,284.6,310.6,284.6z M297,138.8
		l-4.6,31.3c-5.4,0.6-10.7,1.4-15.8,2.7l0-0.1l-2.5,0.4l0.1,0.2c-22.1,6-42,17.6-58,33.1l-10.3-7.4l7.5,10.1
		c-20.4,20.9-33.9,48.6-37.1,79.2l-30.8,4.5C150,210.8,215.2,144.7,297,138.8z M145.5,312l31,4.6c2.1,18.8,7.8,36.5,17,52.2l0.6,1.2
		l0.1-0.1c5,8.5,11,16.2,17.7,23.4l-6.1,8.6l8.4-6.2c21,21.2,49,35.3,80.2,38.7l4.6,30.9C216.6,460.5,150.5,394.5,145.5,312z"/>
	<polygon points="299.4,34.7 316.3,57.3 333.8,57.3 333.8,16.9 318.5,16.9 318.5,39.3 318.3,39.3 302.1,16.9 284,16.9 284,57.3 
		299.2,57.3 299.2,34.7 	"/>
	<path d="M306.6,585.2c-2.5,0-4.2-0.2-5.4-0.8c-1.1-0.6-1.6-1.6-1.7-2.9h-19.2c0,3,0.7,5.4,2.3,7.1c1.5,1.7,3.5,3.2,6,4.1
		c2.5,1,5.2,1.6,8.3,1.9c3.1,0.3,6.2,0.4,9.2,0.4c9,0,15.6-1.1,19.7-3.5c4.2-2.3,6.2-6,6.2-11c0-3.4-1.1-6.1-3.4-8
		c-2.3-1.9-5.5-3.1-9.6-3.8l-19.1-2.8c-0.8-0.1-1.3-0.3-1.7-0.7c-0.3-0.3-0.4-0.9-0.4-1.4c0-0.8,0.5-1.5,1.5-2.1
		c0.9-0.5,2.6-0.8,5-0.8c0.9,0,1.7,0.1,2.6,0.2c0.9,0.2,1.7,0.4,2.4,0.7c0.8,0.3,1.4,0.8,1.8,1.3c0.4,0.5,0.7,1.2,0.7,2h18.5
		c-0.1-2.2-0.7-4.1-1.7-5.7c-1-1.6-2.6-3-4.7-4.1c-2.1-1.1-4.7-1.9-8-2.5c-3.2-0.6-7.1-0.9-11.5-0.9c-3.3,0-6.3,0.2-9.2,0.6
		c-2.9,0.4-5.3,1.1-7.4,2c-2,1.1-3.7,2.4-4.9,4.2c-1.2,1.7-1.8,3.9-1.8,6.4c0,1.5,0.2,2.9,0.7,4c0.4,1.3,1.1,2.4,1.9,3.4
		c0.9,0.9,2.1,1.8,3.5,2.5c1.4,0.7,3,1.2,5.1,1.5l18.1,2.7c1.1,0.2,1.9,0.5,2.3,1c0.4,0.5,0.6,1.1,0.6,1.7c0,1-0.4,1.8-1.3,2.4
		C310.8,584.9,309.1,585.2,306.6,585.2z"/>
	<polygon points="48.4,306.5 48.3,306.5 42.4,281.8 29.6,281.8 23.7,306.5 23.6,306.5 18.4,281.8 3,281.8 14.7,322.2 30.4,322.2 
		35.9,299.8 36,299.8 41.5,322.2 57.2,322.2 69,281.8 53.6,281.8 	"/>
	<polygon points="595.3,289.1 595.3,279.3 552.4,279.3 552.4,319.6 595.3,319.6 595.3,309.8 568.4,309.8 568.4,304.4 593.4,304.4 
		593.4,294.6 568.4,294.6 568.4,289.1 	"/>
</g>
</svg>
