<?xml version="1.0" encoding="utf-8"?>
<!-- Generator: Adobe Illustrator 21.1.0, SVG Export Plug-In . SVG Version: 6.00 Build 0)  -->
<svg version="1.1" id="Layer_1" xmlns="http://www.w3.org/2000/svg" xmlns:xlink="http://www.w3.org/1999/xlink" x="0px" y="0px"
	 viewBox="0 0 612 612" style="enable-background:new 0 0 612 612;" xml:space="preserve">
<style type="text/css">
	.st0{display:none;}
	.st1{display:inline;}
</style>
<g id="REF" class="st0">
</g>
<g class="st0">
	<path class="st1" d="M600.9,303.6C600.8,466.4,469,598.2,306.4,598.2c-163,0-294.9-132-294.6-294.8C12.1,140.5,144,8.8,306.6,9.1
		C469.1,9.3,601,141.3,600.9,303.6z M569.9,365.9c13.2-50.7,11.2-122-22.8-186.9c-22.9-43.7-55.1-78.6-96.9-105.2
		c0,9.9,0,19.2,0,28.6c-17.1-5.2-34-10.3-51.4-15.6c1.5,14.6,2.9,28.7,4.3,43.1c-29.3-4.1-57.9-8-86.5-12.1
		c-1.7-0.2-3.5-1.5-4.8-2.8c-8.1-8.4-16.1-17-24.1-25.5c-7.2-7.6-7.2-7.6-16.4-2.7c-8.2,4.3-16.4,8.7-25,13.2
		c9.3,11.3,18.2,22.3,27.9,34.1c-2.3-0.7-3.4-1-4.4-1.3c-27.4-8.4-54.7-16.8-82.1-25.4c-2.5-0.8-4.3-0.5-6.4,1.2
		c-15.3,12.2-30.8,24.3-46.2,36.5c-1.5,1.2-3,2.3-5.2,3.9c1.6-18.7,3-36.5,4.6-55.3c-34.3,28.5-59.9,62.4-77.5,102.8
		c19.7,6.1,39,12,58.2,18c2.8,0.9,4.9,0.5,7.4-1c25.5-15.4,51-30.7,76.4-46.2c2.7-1.6,4.5-1.5,7,0.2c16.5,10.9,33,21.7,49.6,32.5
		c1.1,0.7,2.2,1.5,3.6,2.5c-28.1,16.1-55.8,32.1-84.1,48.3c10.7,6.6,20.8,13,31.4,19.6c-11.3,9.3-21.9,18.3-32.8,26.9
		c-4.1,3.3-6.9,6.9-7.9,12.1c-0.9,5-2.5,9.8-3.9,15c15.8,0.7,30.9,1.5,46.2,2.2c0.1,0.8,0.3,1.3,0.3,1.9
		c-1.1,15.7-2.1,31.4-3.4,47.1c-0.1,1-1.9,2.5-3,2.7c-21.2,3.7-42.5,7.1-63.7,10.9c-5.5,1-9.9,0-14.6-2.6
		c-10.9-6.1-22-11.8-33.3-17.8c-10.4,14.8-20.7,29.4-30.7,44c-0.7,1-0.2,3.1,0.4,4.5c18,39,43.9,71.8,77.4,98.6
		c0.9,0.7,1.8,1.2,3.6,2.4c-3.9-15.5-7.5-30-11.2-44.9c1.6,0.3,2.5,0.5,3.4,0.8c26,7.2,52,14.4,77.9,21.7c2.7,0.8,4.9,0.5,7.4-0.9
		c18.2-10,36.4-19.8,54.7-29.6c1.3-0.7,2.6-1.3,4.1-2c5.4,16.4,10.9,32.3,16,48.3c1,3.2,2.5,3.9,5.7,3.5c22-2.6,44-5.1,65.9-7.5
		c4.7-0.5,8.6-1.9,12.5-4.8c24-17.9,48.1-35.6,72.1-53.5c2.5-1.9,4.2-2.1,6.8-0.1c15.5,11.3,31.2,22.4,46.8,33.6
		c1.2,0.9,2.5,1.7,3.8,2.6c0.6-0.5,1.1-0.8,1.4-1.2c18.6-20.8,33.7-43.9,45-69.4c0.8-1.7,0.5-4.4-0.2-6.2
		c-7.8-19.9-15.8-39.8-23.8-59.6c-0.6-1.5-1.1-3-1.9-5.3C542.1,351.3,555.9,358.5,569.9,365.9z"/>
	<path class="st1" d="M337.2,237.2c38.1-4.5,75.5-8.8,113.8-13.3c-4.5,14.5-8.8,28.5-13.1,42.7c4.6,2.4,9,4.7,13.4,7
		c12.7,6.6,25.4,13.3,38.2,19.7c2.6,1.3,3.2,2.8,2.8,5.5c-2.5,17.8-4.9,35.6-7.1,53.4c-0.3,2.2,0.1,4.8,0.8,6.9
		c6.1,16.8,12.4,33.6,18.7,50.4c0.5,1.3,0.8,2.6,1.6,5.1c-26.5-20.6-52.1-40.4-78.1-60.7c-4.8,11.9-9.5,23.5-14.4,35.5
		c-10.2-4.8-19.9-9.8-30-14c-5.1-2.1-6.8-4.8-7-10.4c-0.7-22.3-2.1-44.5-3.1-66.7c-0.2-4.6-1.4-8.5-4-12.4
		c-10.2-14.8-20-29.8-30-44.7C338.9,240.1,338.2,238.9,337.2,237.2z"/>
	<path class="st1" d="M226,255c13.6-9.1,26.5-17.8,39.7-26.6c8.7,9.2,17.3,18.2,26.1,27.4c-5.8,5.1-12.2,10.9-18.7,16.5
		c-0.7,0.6-2.4,0.8-3.3,0.4C255.3,266.9,241.1,261.1,226,255z"/>
	<path class="st1" d="M316.8,475.7c-8-22.4-15.6-43.8-23.4-65.9c16.2,4.2,31.9,8.3,48.1,12.5C333.4,440,325.3,457.4,316.8,475.7z"/>
</g>
<path class="st0" d="M293.6,79.8c-49.6,6.8-90.8,26-119.6,67.1c-3.3,4.8-10.2,9.9-2.6,16.9c6.1,5.6,9.2,13.2,21.6,9.4
	c126.1-39.4,252.1,32.5,282.9,160.5c29.7,123.3-58.1,250.9-183.4,266.6c-126,15.7-235.3-66.8-250-192.7
	C32.8,324,64.3,255.4,131.7,204c4.5-3.4,9.2-6.5,13.8-9.7c0.4-0.3,0.6-0.7,5.1-5.2c-7.1-5.3-14.6-10.2-21.3-16
	c-8.8-7.6-17-16.3-8.7-28.8c8.4-12.7,19.5-9.8,30.2-3.2C198,67.8,293.7,43.4,364,65c4,1.2,8,4,11.9,3.8c5.6-0.3,11.1-2.6,16.7-4.1
	c-2.9-5.1-4.9-13.5-8.9-14.7c-19.2-5.4-39-9-58.6-12.8c-4.9-0.9-10.1-0.1-18-0.1c12.2-17.3,27.6-24.7,45.1-28
	c24.4-4.6,47.6,0.4,69.1,12.2c16.4,9,32.3,19,48.5,28.3c27.7,16,56.5,24.9,91,11.5c-12.6,35.2-31,62.9-59.6,83.2
	c-59.3,42.3-137.9,24-181.3-13.2C304.9,118.2,296.2,101.4,293.6,79.8z M159.8,294.8c0.2-13-9.5-23.6-22.3-24.1
	c-13.2-0.5-24.4,10.3-24.5,23.6c-0.1,12.3,10.8,23.3,23.3,23.6C148.6,318.1,159.5,307.4,159.8,294.8z"/>
<g class="st0">
	<path class="st1" d="M69.5,363.9c5.8,0,11.5,0,17.4,0c0-0.9,0.1-1.6,0.1-2.3c0-72.4,0-144.9,0-217.3c0-1.5-0.4-2.4-1.8-3.2
		c-20.2-11.9-30.9-29.6-31.9-53c0-1,0.2-2.1,0.4-3.2c6.6-24.5,13.2-49,19.8-73.5c0.2-0.6,0.4-1.1,0.6-1.8c0.8,0,1.5,0,2.2,0
		c150.9,0,301.8,0,452.7,0c1.7,0,2.4,0.4,2.9,2.1c6.5,24.6,13.3,49.1,19.7,73.7c0.9,3.5,0.3,7.5-0.3,11.2
		c-3.6,20.6-14.8,35.9-33.4,45.7c-1,0.5-1.6,1.2-1.4,2.4c0.1,0.4,0,0.8,0,1.2c0,71.6,0,143.3,0,214.9c0,0.9,0,1.9,0,3
		c6.3,0,12.5,0,18.8,0c0,74.6,0,149,0,223.6c-6.3,0-12.4,0-18.8,0c0,7,0,13.8,0,20.6c-9.6,0-18.9,0-28.4,0c0-6.8,0-13.6,0-20.5
		c-124.2,0-248.1,0-372.3,0c0,6.7,0,13.5,0,20.4c-9.6,0-19,0-28.6,0c0-6.8,0-13.5,0-20.5c-6,0-11.7,0-17.6,0
		C69.5,512.8,69.5,438.4,69.5,363.9z M302.6,91.5c-2.7,31.9-28.4,56-59.2,57.5c-16.9,0.8-31.9-4.4-44.5-15.7
		c-12.6-11.2-19.4-25.5-20.8-41.4c-5.7,34.8-26.5,54.2-62.5,57.6c0,71.2,0,142.6,0,214.2c124.1,0,248.1,0,372.1,0
		c0-71.6,0-143.1,0-214.5c-31.1-0.8-57.7-25.6-60.5-57.5c-1.7,16.5-8.5,30.5-20.9,41.5c-12.5,11.1-27.2,16.3-43.9,15.7
		c-13.8-0.5-26.2-5.2-36.9-14C311.9,123.8,304.5,109.1,302.6,91.5z"/>
</g>
<path d="M144.4,175.2c4.2-6.3,8.1-12.4,12.2-18.3c26.7-38.4,55.5-75,91-105.8c9.6-8.3,20.3-15.5,31-22.4
	c17.4-11.3,34.9-10.9,52.9-0.3c19.9,11.7,36.9,26.7,52.8,43.1c29.8,30.6,55.7,64.4,79.1,100.1c0.7,1.1,1.3,2.2,2.2,3.8
	c-6.2,4.7-12.3,9.2-18.4,13.8c-1.2,0.9-2.4,1.8-3.6,2.7c-13.8,10.3-26.4,23.6-41.8,30.2c-19.3,8.3-40.9,11.1-62,16.5
	c-1.2-2.8-2.3-5.4-3.6-8.6c-7,2.3-13.7,4.5-21.3,7c0.8,2.7,1.4,5.1,2.2,7.4c5,15.1,10.1,30.3,15,45.4c0.7,2.3,1.3,5.2,0.5,7.3
	c-8.7,22.4-17.7,44.6-27.2,68.2c-1.3-2.6-2.2-4.1-2.9-5.7c-8.1-20.1-16.3-40.2-24.1-60.5c-1.1-2.9-1.1-6.7-0.2-9.7
	c4.7-15.2,10-30.3,15-45.5c0.7-2.2,1.3-4.4,2-7c-7.2-2.4-14-4.7-21.2-7.1c-1.2,2.9-2.2,5.4-3.5,8.6c-12.1-3-24-6.5-36.2-8.8
	c-18-3.3-33.6-10.6-47.7-22.5C173.3,195.9,158.8,186,144.4,175.2z M285.2,197.9c-32.5-18.8-64.6-37.4-97.1-56.2
	c-3.9,6.8-7.6,13.2-11.5,19.9c32.6,18.9,64.7,37.4,97.1,56.2C277.7,210.8,281.3,204.6,285.2,197.9z M336.4,217.8
	c32.7-19,64.8-37.5,97.1-56.3c-4.1-6.9-7.7-13.1-11.6-19.8c-32.5,18.8-64.6,37.4-97,56.2C328.8,204.6,332.4,210.8,336.4,217.8z
	 M111.6,335.5c3.7,11.7,6.8,23.7,11.3,35.1c26.1,66.2,64.3,124.5,113.6,175.7c15.1,15.7,31.6,29.7,51.6,39.2
	c11.4,5.5,22.3,5.5,33.7,0.1c16.2-7.7,30.2-18.4,42.9-30.7c51.2-49.7,90.1-108,118.1-173.5c6.3-14.8,10.8-30.5,16.1-45.7
	c-0.6-0.3-1.3-0.5-1.9-0.8c-1.3,1.9-2.7,3.8-4,5.7c-17.7,26.6-35.4,53.2-53.2,79.6c-2.2,3.3-5,6.4-8,8.9
	c-30.2,25.3-60.5,50.5-90.7,75.7c-11.9,9.9-23.8,19.8-35.9,29.8c-2.4-2-4.4-3.6-6.3-5.2c-32.2-26.8-64.1-54.2-96.8-80.4
	c-19-15.2-35.4-32.1-48-53c-11-18.4-23.7-35.9-35.6-53.8c-1.6-2.5-3.3-4.9-4.9-7.3C112.8,335.1,112.2,335.3,111.6,335.5z M157.1,274
	c-16,19-37.5,33.4-45.1,58.8c35.3,13.2,69.6,26.1,102.7,38.5c13.7-14.8,26.6-28.7,39.6-42.6c0.5,0.3,1,0.6,1.6,0.9
	c0,2.7,0,5.4,0,8.1c-0.3,14.7-0.6,29.4-0.7,44c0,1.8,0.8,4.7,2,5.2c11.9,4.8,23.9,9.2,36.2,13.8c0-1.4,0.1-1.8,0-2.2
	c-13.2-33-26.3-66-39.7-98.8c-0.7-1.8-4-3.5-6.1-3.5c-18.7-0.3-37.5-0.3-56.2,0c-2.6,0-5.6,1.6-7.6,3.4c-4.7,4.2-8.8,8.9-13,13.2
	c-5.9-5.7-11-10.8-17.1-16.7c3.6-3.2,7-6.5,10.6-9.3c3.4-2.7,4-5.7,2.9-9.9c-5.3-21.2-10.1-42.6-15.3-63.9c-0.5-2.1-1.7-4.5-3.3-5.8
	c-4.7-3.9-9.8-7.4-16.3-12.3C134.5,224.3,132.9,253.2,157.1,274z M477.9,195c-5,3.7-8.5,6.7-12.4,9c-5,3-7.1,7.3-8.3,12.8
	c-3.6,16.2-6.6,32.6-11.6,48.3c-4.1,12.8-2.7,22.3,8.7,29.9c0.6,0.4,1,1.2,0.9,1.1c-5.4,5.6-10.4,10.8-15.9,16.5
	c-3.9-4.1-8.1-8.1-11.8-12.4c-2.7-3.1-5.8-4.3-10-4.2c-18.1,0.2-36.2,0.2-54.3,0c-3.9,0-5.8,1-7.4,5c-12.4,31.7-25.2,63.2-37.8,94.8
	c-0.6,1.4-0.8,3-1.4,5.1c12-4.5,23.1-8.8,34.3-12.7c3.5-1.2,4.4-3.1,4.3-6.6c-0.3-6.8-0.2-13.6-0.3-20.4c0-10.5,0-21.1,0-33.9
	c12.7,14.1,24.5,26.9,35.7,40.1c2.8,3.3,4.7,4.2,8.8,2.7c30.8-11.8,61.6-23.2,92.5-34.8c1.9-0.7,3.8-1.7,6.2-2.7
	c-8-24.9-28.9-39.3-45.2-58.4C477.1,253.1,475.6,224.3,477.9,195z M110.2,223.7c-0.2-2.5-1.4-5.6-3.2-7.1
	c-23.4-19.3-48.4-36.2-77.9-45C20.2,169,11,167.2,2,165c38.5,43.6,74.6,87.5,95,141.7c9.5-11.2,18.8-22.2,28.5-33.7
	C115.9,258.1,111.8,241.3,110.2,223.7z M604.5,165.9c-39.4,6.2-71.9,26.2-101.9,51c-1.4,1.2-2.4,3.5-2.5,5.4
	c-1.7,18.2-5.6,35.6-15.4,50.6c9.7,11.6,19.1,22.7,28.5,33.8c20.4-54.3,56.6-98.1,96.5-141.1C607,165.8,605.7,165.8,604.5,165.9z
	 M293.5,493.6c0-11.2,0-22.4,0-33.6c0-11.5,0-22.9,0-34.5c-12.2-4.6-24.1-9-36.7-13.7c0.2,1.9,0.3,2.7,0.4,3.5
	c2.9,22.9,11.8,43.8,22.6,64c3,5.6,7.5,10.4,11.4,15.5C292,494.4,292.7,494,293.5,493.6z M316.5,459.6c0,11.4,0,22.8,0,34.6
	c14.7-8.6,36.3-58.4,36-82.2c-12.1,4.5-23.9,9-36,13.5C316.5,437,316.5,448.3,316.5,459.6z M420.5,272.6c3.2-13.8,6.4-27.3,9.4-40.1
	c-10.2,5.6-20.5,11.2-31.3,17.1c0,6.7,0,14.8,0,23C406,272.6,413.1,272.6,420.5,272.6z M188.9,269.7c0.3,1.3,1.9,3.1,3,3.2
	c6.5,0.3,13,0.1,19.6,0.1c0-9,0-17,0-23.3c-11-6-21.1-11.5-31.4-17.2C182.9,244.5,185.8,257.1,188.9,269.7z M231.1,391.6
	c-0.5-0.3-1-0.5-1.5-0.8c-4.7,11.2-9.4,22.3-13.9,33.6c-0.4,1.1,0.6,3.4,1.6,4.2c7.1,5,14.4,9.7,21.5,14.4
	C236.3,425.7,233.7,408.7,231.1,391.6z M378.9,391.8c-2.5,17-5.1,34-7.7,51.3c7-4.6,13.9-9.1,20.6-13.9c1.4-1,2.7-4.1,2.2-5.5
	c-4.3-11-9-21.8-13.6-32.7C379.9,391.2,379.4,391.5,378.9,391.8z M346.6,260.5c1.1,3.3,1.7,6,3,8.4c0.8,1.6,2.5,3.8,3.9,3.9
	c7.1,0.4,14.3,0.2,21.6,0.2c0-6.9,0-12.9,0-19.7C365.4,255.7,356.2,258,346.6,260.5z M235.1,273c4.5,0,8.7,0,12.9,0
	c11.7,0,11.7,0,14.8-11c0.1-0.4-0.1-0.8-0.2-1.8c-8.8-2.2-17.8-4.5-27.5-6.9C235.1,260.3,235.1,266.4,235.1,273z M172,381.3
	c7.1,10.5,14.2,21.1,21.9,32.6c3.8-8.6,6.6-15.1,9.7-22.1c-10.5-3.9-20.6-7.7-30.6-11.5C172.6,380.6,172.3,381,172,381.3z
	 M416.2,413.8c7.7-11.5,14.8-22,21.9-32.6c-0.3-0.3-0.6-0.7-0.9-1c-10.1,3.8-20.1,7.5-30.8,11.5C409.6,399,412.5,405.6,416.2,413.8z
	"/>
</svg>
