<?xml version="1.0" encoding="utf-8"?>
<!-- Generator: Adobe Illustrator 21.1.0, SVG Export Plug-In . SVG Version: 6.00 Build 0)  -->
<svg version="1.1" id="Layer_1" xmlns="http://www.w3.org/2000/svg" xmlns:xlink="http://www.w3.org/1999/xlink" x="0px" y="0px"
	 viewBox="0 0 612 612" style="enable-background:new 0 0 612 612;" xml:space="preserve">
<style type="text/css">
	.st0{display:none;}
	.st1{display:inline;}
</style>
<g id="REF" class="st0">
</g>
<g class="st0">
	<path class="st1" d="M600.9,303.6C600.8,466.4,469,598.2,306.4,598.2c-163,0-294.9-132-294.6-294.8C12.1,140.5,144,8.8,306.6,9.1
		C469.1,9.3,601,141.3,600.9,303.6z M569.9,365.9c13.2-50.7,11.2-122-22.8-186.9c-22.9-43.7-55.1-78.6-96.9-105.2
		c0,9.9,0,19.2,0,28.6c-17.1-5.2-34-10.3-51.4-15.6c1.5,14.6,2.9,28.7,4.3,43.1c-29.3-4.1-57.9-8-86.5-12.1
		c-1.7-0.2-3.5-1.5-4.8-2.8c-8.1-8.4-16.1-17-24.1-25.5c-7.2-7.6-7.2-7.6-16.4-2.7c-8.2,4.3-16.4,8.7-25,13.2
		c9.3,11.3,18.2,22.3,27.9,34.1c-2.3-0.7-3.4-1-4.4-1.3c-27.4-8.4-54.7-16.8-82.1-25.4c-2.5-0.8-4.3-0.5-6.4,1.2
		c-15.3,12.2-30.8,24.3-46.2,36.5c-1.5,1.2-3,2.3-5.2,3.9c1.6-18.7,3-36.5,4.6-55.3c-34.3,28.5-59.9,62.4-77.5,102.8
		c19.7,6.1,39,12,58.2,18c2.8,0.9,4.9,0.5,7.4-1c25.5-15.4,51-30.7,76.4-46.2c2.7-1.6,4.5-1.5,7,0.2c16.5,10.9,33,21.7,49.6,32.5
		c1.1,0.7,2.2,1.5,3.6,2.5c-28.1,16.1-55.8,32.1-84.1,48.3c10.7,6.6,20.8,13,31.4,19.6c-11.3,9.3-21.9,18.3-32.8,26.9
		c-4.1,3.3-6.9,6.9-7.9,12.1c-0.9,5-2.5,9.8-3.9,15c15.8,0.7,30.9,1.5,46.2,2.2c0.1,0.8,0.3,1.3,0.3,1.9
		c-1.1,15.7-2.1,31.4-3.4,47.1c-0.1,1-1.9,2.5-3,2.7c-21.2,3.7-42.5,7.1-63.7,10.9c-5.5,1-9.9,0-14.6-2.6
		c-10.9-6.1-22-11.8-33.3-17.8c-10.4,14.8-20.7,29.4-30.7,44c-0.7,1-0.2,3.1,0.4,4.5c18,39,43.9,71.8,77.4,98.6
		c0.9,0.7,1.8,1.2,3.6,2.4c-3.9-15.5-7.5-30-11.2-44.9c1.6,0.3,2.5,0.5,3.4,0.8c26,7.2,52,14.4,77.9,21.7c2.7,0.8,4.9,0.5,7.4-0.9
		c18.2-10,36.4-19.8,54.7-29.6c1.3-0.7,2.6-1.3,4.1-2c5.4,16.4,10.9,32.3,16,48.3c1,3.2,2.5,3.9,5.7,3.5c22-2.6,44-5.1,65.9-7.5
		c4.7-0.5,8.6-1.9,12.5-4.8c24-17.9,48.1-35.6,72.1-53.5c2.5-1.9,4.2-2.1,6.8-0.1c15.5,11.3,31.2,22.4,46.8,33.6
		c1.2,0.9,2.5,1.7,3.8,2.6c0.6-0.5,1.1-0.8,1.4-1.2c18.6-20.8,33.7-43.9,45-69.4c0.8-1.7,0.5-4.4-0.2-6.2
		c-7.8-19.9-15.8-39.8-23.8-59.6c-0.6-1.5-1.1-3-1.9-5.3C542.1,351.3,555.9,358.5,569.9,365.9z"/>
	<path class="st1" d="M337.2,237.2c38.1-4.5,75.5-8.8,113.8-13.3c-4.5,14.5-8.8,28.5-13.1,42.7c4.6,2.4,9,4.7,13.4,7
		c12.7,6.6,25.4,13.3,38.2,19.7c2.6,1.3,3.2,2.8,2.8,5.5c-2.5,17.8-4.9,35.6-7.1,53.4c-0.3,2.2,0.1,4.8,0.8,6.9
		c6.1,16.8,12.4,33.6,18.7,50.4c0.5,1.3,0.8,2.6,1.6,5.1c-26.5-20.6-52.1-40.4-78.1-60.7c-4.8,11.9-9.5,23.5-14.4,35.5
		c-10.2-4.8-19.9-9.8-30-14c-5.1-2.1-6.8-4.8-7-10.4c-0.7-22.3-2.1-44.5-3.1-66.7c-0.2-4.6-1.4-8.5-4-12.4
		c-10.2-14.8-20-29.8-30-44.7C338.9,240.1,338.2,238.9,337.2,237.2z"/>
	<path class="st1" d="M226,255c13.6-9.1,26.5-17.8,39.7-26.6c8.7,9.2,17.3,18.2,26.1,27.4c-5.8,5.1-12.2,10.9-18.7,16.5
		c-0.7,0.6-2.4,0.8-3.3,0.4C255.3,266.9,241.1,261.1,226,255z"/>
	<path class="st1" d="M316.8,475.7c-8-22.4-15.6-43.8-23.4-65.9c16.2,4.2,31.9,8.3,48.1,12.5C333.4,440,325.3,457.4,316.8,475.7z"/>
</g>
<path class="st0" d="M293.6,79.8c-49.6,6.8-90.8,26-119.6,67.1c-3.3,4.8-10.2,9.9-2.6,16.9c6.1,5.6,9.2,13.2,21.6,9.4
	c126.1-39.4,252.1,32.5,282.9,160.5c29.7,123.3-58.1,250.9-183.4,266.6c-126,15.7-235.3-66.8-250-192.7
	C32.8,324,64.3,255.4,131.7,204c4.5-3.4,9.2-6.5,13.8-9.7c0.4-0.3,0.6-0.7,5.1-5.2c-7.1-5.3-14.6-10.2-21.3-16
	c-8.8-7.6-17-16.3-8.7-28.8c8.4-12.7,19.5-9.8,30.2-3.2C198,67.8,293.7,43.4,364,65c4,1.2,8,4,11.9,3.8c5.6-0.3,11.1-2.6,16.7-4.1
	c-2.9-5.1-4.9-13.5-8.9-14.7c-19.2-5.4-39-9-58.6-12.8c-4.9-0.9-10.1-0.1-18-0.1c12.2-17.3,27.6-24.7,45.1-28
	c24.4-4.6,47.6,0.4,69.1,12.2c16.4,9,32.3,19,48.5,28.3c27.7,16,56.5,24.9,91,11.5c-12.6,35.2-31,62.9-59.6,83.2
	c-59.3,42.3-137.9,24-181.3-13.2C304.9,118.2,296.2,101.4,293.6,79.8z M159.8,294.8c0.2-13-9.5-23.6-22.3-24.1
	c-13.2-0.5-24.4,10.3-24.5,23.6c-0.1,12.3,10.8,23.3,23.3,23.6C148.6,318.1,159.5,307.4,159.8,294.8z"/>
<g class="st0">
	<path class="st1" d="M69.5,363.9c5.8,0,11.5,0,17.4,0c0-0.9,0.1-1.6,0.1-2.3c0-72.4,0-144.9,0-217.3c0-1.5-0.4-2.4-1.8-3.2
		c-20.2-11.9-30.9-29.6-31.9-53c0-1,0.2-2.1,0.4-3.2c6.6-24.5,13.2-49,19.8-73.5c0.2-0.6,0.4-1.1,0.6-1.8c0.8,0,1.5,0,2.2,0
		c150.9,0,301.8,0,452.7,0c1.7,0,2.4,0.4,2.9,2.1c6.5,24.6,13.3,49.1,19.7,73.7c0.9,3.5,0.3,7.5-0.3,11.2
		c-3.6,20.6-14.8,35.9-33.4,45.7c-1,0.5-1.6,1.2-1.4,2.4c0.1,0.4,0,0.8,0,1.2c0,71.6,0,143.3,0,214.9c0,0.9,0,1.9,0,3
		c6.3,0,12.5,0,18.8,0c0,74.6,0,149,0,223.6c-6.3,0-12.4,0-18.8,0c0,7,0,13.8,0,20.6c-9.6,0-18.9,0-28.4,0c0-6.8,0-13.6,0-20.5
		c-124.2,0-248.1,0-372.3,0c0,6.7,0,13.5,0,20.4c-9.6,0-19,0-28.6,0c0-6.8,0-13.5,0-20.5c-6,0-11.7,0-17.6,0
		C69.5,512.8,69.5,438.4,69.5,363.9z M302.6,91.5c-2.7,31.9-28.4,56-59.2,57.5c-16.9,0.8-31.9-4.4-44.5-15.7
		c-12.6-11.2-19.4-25.5-20.8-41.4c-5.7,34.8-26.5,54.2-62.5,57.6c0,71.2,0,142.6,0,214.2c124.1,0,248.1,0,372.1,0
		c0-71.6,0-143.1,0-214.5c-31.1-0.8-57.7-25.6-60.5-57.5c-1.7,16.5-8.5,30.5-20.9,41.5c-12.5,11.1-27.2,16.3-43.9,15.7
		c-13.8-0.5-26.2-5.2-36.9-14C311.9,123.8,304.5,109.1,302.6,91.5z"/>
</g>
<g>
	<g>
		<g>
			<path d="M288.5,419.5c0-1.6-0.3-2.9-0.9-3.9c-0.6-1-2.6-1-6,0c1.1-0.6,1.9-1.5,2.3-2.7c0.4-1.1,1-2.2,1.7-3.2
				c-1.5,0-2.9-0.5-4-1.5l-0.6-0.5c0-0.3,0.2-0.8,0.6-1.5c0.8-1,1.9-2.2,3.4-3.6c1.6-1.5,3.3-2.2,5.2-2.2c0-2.6-1.9-6.1-5.7-10.4
				c-3.8-4.4-6.1-8.3-6.9-11.9c-0.8-1.3-1.2-3.9-1.4-7.8c-0.2-3.9-1.2-6.6-3.2-8.3c-0.8,0-2.5,0.3-5.1,1c-2.7,0.6-4.4,1-5.2,1h-1.1
				c-3.1,0-6.6-0.4-10.6-1.2c-4-0.8-7.7-1.5-11.2-2.2h-1.2h-0.6c0.8,2.9,1.3,4.5,1.7,4.9v1v1l-1.7,3.4c-0.4,0.7-0.6,1.3-0.6,1.9h4.6
				c-0.4,0.3-0.9,1.1-1.4,2.4c-0.6,1.3-0.9,2.3-0.9,2.9c2.7,4.9,4.9,8.7,6.6,11.7c1.7,2.9,3.4,5.7,5.1,8.3c1.7,2.6,2.8,4.2,3.2,4.9
				c0.8,2.6,2.2,6,4.3,10.2c2.1,4.2,4.9,6.7,8.3,7.3c0,0.3,0.6,0.5,1.7,0.5c1.5,0,3-0.1,4.3-0.2c1.4-0.2,2.6-0.2,3.7-0.2h2.9
				c0.4,1,1,1.6,1.7,1.9c0.4,0.3,1,1.1,1.7,2.4c0.8,1.3,1.5,2.1,2.3,2.4C287.6,425,288.5,422.4,288.5,419.5 M257,547.2v1
				c-0.8,0.6-1.4,2-1.7,4.1c-0.4,2.1-1.5,3.2-3.4,3.2l-1.2-0.5c-0.4-0.6-0.9-1.9-1.7-3.9c-0.8-1.9-1.6-3.9-2.6-5.8
				c-1-1.9-2.1-3.7-3.5-5.3c-1.3-1.6-3-2.4-4.9-2.4c-2.7,0-4.3,1-4.9,2.9c-0.6,1.9-0.8,4-0.6,6.1c0.2,2.1,0.2,4.1,0,6.1
				c-0.2,1.9-1.6,2.9-4.3,2.9l-1.1-0.5c-0.7-5.5-1.7-9.1-2.9-10.9c-1.1-1.8-4.6-2.7-10.3-2.7c0,3.5,0.1,6.8,0.3,9.7
				c0.2,2.9-2.6,4.4-8.3,4.4c-1.9,0-3.2-0.8-4-2.4c1.1,0,2.1-0.7,2.9-1.9c0.8-1.3,1.2-2.3,1.2-2.9c0-2.9-1-4.4-3.2-4.6
				c-2.1-0.2-4.1-0.2-6-0.2v7.3c0,2.3-2.3,3.4-6.9,3.4v-5.3c-1.5,0-3.8,0.3-6.9,1c-1.1,0-2.3-0.2-3.4-0.5c-0.8-0.6-1.8-1.3-3.2-1.9
				c-1.3-0.7-2.4-1.3-3.1-1.9l-2.3-1h-2.3h-8.6H159c-5-0.3-10.8-1.2-17.5-2.7c-6.7-1.4-12.7-2.2-18-2.2c-1.5,0-2.5,0.2-2.9,0.7
				c-0.4,0.5-1.3,0.7-2.9,0.7c-3.8,0-8-0.8-12.6-2.4c-4.6-1.6-9.2-3.5-13.8-5.6c-4.6-2.1-9.3-4-14-5.6c-4.8-1.6-9.2-2.4-13.5-2.4
				c0-5.5,2.1-10.5,6.3-15c4.2-4.5,7.3-9.6,9.2-15.1v-1c0-1-0.1-1.8-0.3-2.4c-0.2-0.6-0.3-1.3-0.3-1.9c-0.8-1.6,0.4-2.4,3.4-2.4
				c2.7,0,3.7-0.5,2.9-1.5v-3.4v-1.4c0.4-0.6,1.1-1.9,2-3.6c0.9-1.8,1.8-2.8,2.6-3.2c-1.5,0-2.3-0.6-2.3-1.9c0-0.6,0.4-1.8,1.1-3.4
				c0.8-1.6,1.9-2.7,3.4-3.4v-12.6c1.6,0,2.3-1.6,2.3-4.8c0-1-0.2-2.3-0.6-3.9c0.8-1.6,2.4-2.8,4.9-3.7c2.5-0.8,3.7-2.5,3.7-5.1
				c0-2.3-0.8-3.6-2.3-3.9c0.4,0,1.1-0.5,2.3-1.4c-0.4-1.3-0.4-2.1,0-2.4c0.4,0,1.3-0.2,2.9-0.5c1.5-0.3,2.5-0.5,2.9-0.5l5.2-11.6
				h9.2c0-1.3-0.4-2.6-1.1-3.9c-0.8-1.3-0.2-2.1,1.7-2.4h-4.6c-3,0-6.9,0.2-11.5,0.5c-4.6,0.3-7.6,1.8-9.2,4.4l-4-3.4v17.5
				c-2.3,0.7-4.3,1.9-6,3.6c-1.7,1.8-3.4,3.8-4.9,6.1c-1.5,2.3-2.9,4.5-4,6.5c-1.1,2.1-2.3,3.8-3.4,5.1V470l-2.9,1.9
				c0-0.6-0.2-2.2-0.6-4.6c-0.4-2.4-1.5-4-3.4-4.6c0-0.6-0.1-1.8-0.3-3.4c-0.2-1.6-0.3-2.8-0.3-3.4c0-2.6,0.6-4.7,1.7-6.3
				c1.1-1.6,1.7-3.6,1.7-5.8v-2c-0.8-1-1.6-2.2-2.6-3.6c-0.9-1.5-1.6-2.5-2-3.2c0-1.3,0.6-1.9,1.7-1.9c0.4,0,1.4,0.3,3.2,1
				c1.7,0.6,3,1,3.7,1c0.8,0,1.2-0.5,1.4-1.5c0.2-1,0.3-1.8,0.3-2.4c0-0.3-0.2-1.2-0.6-2.7c-0.4-1.5-0.9-3.1-1.4-4.9
				c-0.6-1.8-1.2-3.3-1.7-4.6c-0.6-1.3-1.1-1.9-1.4-1.9h-0.6c-0.4,0.3-1.3,1-2.9,1.9c-0.8,0-2.2-0.2-4.3-0.5
				c-2.1-0.3-3.7-0.5-4.9-0.5c0,4.2-0.4,8.8-1.2,13.8c-0.8,5-3.4,8.3-8,9.9v-1.9c0-3.6,0.7-7.1,2-10.7c1.3-3.6,2-7.4,2-11.6V417
				c-1.9-3.5-3.2-5.3-4-5.3c-0.8,0-2,0.3-3.7,0.7c-1.7,0.5-2.8,0.7-3.2,0.7c-0.4,0.3-1.3,0.5-2.8,0.5h-4c0.4-1,0.8-1.6,1.1-1.9
				c0.4,0,1.4-0.7,3.2-2.2c1.7-1.4,2.6-2.5,2.6-3.1c-0.8-1.6-1.3-2.7-1.7-3.4c-1.9-2.6-3.5-5.3-4.9-8.3c-1.3-2.9-2-5.6-2-8.2
				c0-2.6,1-4.2,2.9-4.8h-2.3c-2.7,0-4.6,1.1-5.7,3.4c0-0.6-0.1-1.4-0.3-2.2c-0.2-0.8-0.3-1.5-0.3-2.2c0-2.6,0.3-4.4,0.9-5.3
				s0.9-2.9,0.9-5.8v-5.3l-1.2-2c0-1.6,0.4-2.8,1.2-3.4h-1.2c-2.7,0-4.2,0.6-4.6,1.9c-1.1-0.3-2.2-1.7-3.2-4.1c-1-2.4-1.4-4-1.4-4.6
				v-2.4c0-0.3,0.8-0.8,2.3-1.5c1.5-0.6,2.3-1.3,2.3-1.9c0.4-0.6,0.2-2.2-0.6-4.6c-0.8-2.4-1.1-4-1.1-4.6c-1.9,0-3.3-0.1-4-0.3
				c-0.8-0.2-1.1-1.4-1.1-3.6c0-2.6,0.8-4.1,2.3-4.4l-2.9-1.9v-5.8c-1.9,0-3.2,0.5-4,1.5c-0.8,1-1.4,2.2-2,3.7
				c-0.6,1.4-1.2,2.9-1.7,4.4c-0.6,1.4-1.8,2.7-3.7,3.6c-0.7-0.6-1.2-1.8-1.4-3.6c-0.2-1.8-0.3-3-0.3-3.7v-1.5v-1.9
				c0-0.3,0.3-1.2,0.8-2.7c0.6-1.4,0.9-2.5,0.9-3.1c0-0.3-0.3-0.8-0.9-1.5c-0.6-0.6-0.8-1.3-0.8-1.9l-0.6-1.5c0-2.3,1.1-4.5,3.4-6.8
				c2.3-2.2,4.8-3.6,7.5-3.9c-0.8,0-1.8-0.2-3.2-0.5c-1.3-0.3-2.4-0.8-3.2-1.4c-0.7-0.3-1.5-1.1-2.3-2.4h10.3l-1.7-2.4l1.7-2.9h17.2
				c-1.1-1.3-2.4-2.6-3.7-3.9c-1.3-1.3-3-2.1-4.9-2.4c0.4,0,1.3-0.5,2.9-1.4c1.5-1,2.5-1.8,2.9-2.4c1.5-0.6,2.5-1,2.9-1
				c0.4,0,1,0.2,1.7,0.7c0.8,0.5,1.5,0.6,2.3,0.2h1.2c0.8-0.6,1.6-1.5,2.6-2.7c1-1.1,1.6-1.7,2-1.7c-1.5,0-2.8-0.8-4-2.4
				c-0.4-0.3-0.6-0.6-0.6-1c0-0.3,0.2-0.5,0.6-0.5l4-5.3v-1v-1l-1.7,1.9c0-1-0.9-2.3-2.9-3.9c-1.9-1.6-4.1-3.2-6.6-4.6
				c-2.5-1.5-4.9-2.9-7.2-4.4c-2.3-1.4-3.8-2.5-4.6-3.2c3.1-1.3,5.2-3.2,6.6-5.6c1.3-2.4,2.4-5.1,3.1-8c0.8-2.9,1.3-5.7,1.7-8.5
				c0.4-2.7,1-5.4,1.7-8c0.8-1.9,1.9-4.8,3.4-8.5c1.5-3.7,3.2-7.5,4.9-11.4c1.7-3.9,3.2-7.4,4.3-10.7c1.2-3.2,1.7-5.3,1.7-6.3
				c0.8-1.3,1.9-3.4,3.4-6.3c1.5-2.9,3.1-5.9,4.9-9c1.7-3.1,3.4-6.1,4.9-9c1.5-2.9,2.7-4.9,3.4-5.8c0.8-1.6,2.4-3.4,4.9-5.3
				c2.5-1.9,5-3.9,7.5-5.8c2.5-1.9,4.5-3.9,6-5.8c1.5-1.9,1.7-3.9,0.6-5.8l4,1v-1c0-2.6-0.8-4.5-2.3-5.8h1.1h1.2
				c0.8,0.6,1.5,1.2,2.3,1.7c0.8,0.5,1.5,1.1,2.3,1.7c3.1-2.6,6-5.1,8.6-7.5c2.7-2.4,5.2-5.1,7.5-8h2.3c1.5,0,2.5-0.2,2.9-0.7
				c0.4-0.5,1-1.4,1.7-2.7l2.3-3.9c1.1,1.3,3.4,2,6.9,2c3.1,0,4.5-0.7,4.3-2.2c-0.2-1.5,0.9-2.5,3.2-3.2c2.3-0.7,5-1,8-1
				c3.1,0,5.9-0.8,8.6-2.4h2.3h9.2h1.7c8.4,0,16.3,0.9,23.8,2.7c7.5,1.8,15,2.7,22.6,2.7c0.8,0,2.4-1.4,4.9-4.1
				c2.5-2.7,5.6-5.8,9.2-9.2c3.6-3.4,8-6.5,13.2-9.2c5.2-2.8,10.8-4.1,16.9-4.1c10.3,0,20.3,1.8,29.8,5.3c1.1,0.3,1.9,0.5,2.3,0.5
				c2.3,0,3.7-0.8,4.3-2.4c0.6-1.6,0.9-3.2,0.9-4.9c0-1.9,0.2-3.7,0.6-5.3c0.4-1.6,1.7-2.4,4-2.4l6.9,11.2h1.7
				c2.3,0,3.8-0.6,4.6-1.9h24.6c0,0.3,0.3,0.9,0.9,1.7c0.6,0.8,1.2,1.4,2,1.7h0.6h0.6l4.6-1.5c0.4-0.3,0.8-0.5,1.1-0.5v1.5
				c0,1,0.2,2.1,0.6,3.4c0.4,1.3,1.3,2.1,2.9,2.4c1.1-0.7,2.4-1.9,3.7-3.7c1.3-1.8,2.9-3.6,4.6-5.6c1.7-1.9,3.4-3.6,5.2-4.9
				c1.7-1.3,3.5-1.8,5.5-1.5c0.4,0,1,0.4,2,1.2c0.9,0.8,1.6,1.5,2,2.2c-3.4,1.6-5.7,3.9-6.9,6.8c-1.1,2.9-1.7,6-1.7,9.2v5.3
				c0.4,1,2.9,2.8,7.5,5.6c4.6,2.7,9.5,5.6,14.9,8.7c5.3,3.1,10.4,5.8,15.2,8.2c4.8,2.4,7.7,3.6,8.9,3.6c1.9-1.3,3.3-1.9,4-1.9
				c0.4,0,0.6,0.3,0.6,1c0,0.3,0.4,0.6,1.1,1v1.5c-0.8,0.6-1.9,2.2-3.4,4.6c-1.5,2.4-2.3,3.8-2.3,4.1c-0.4,1.3-0.6,2.1-0.6,2.4
				c0,1.6,0.9,2.9,2.9,3.9c1.9,1,3.8,1.5,5.7,1.5c1.9,0,4.4-1,7.5-2.9c3.1-1.9,5.4-2.7,6.9-2.4c0.4,0,1.2,0.4,2.3,1.2
				c1.1,0.8,1.9,1.6,2.3,2.2c0,0.7-0.4,1.9-1.1,3.6c-0.8,1.8-1.1,3-1.1,3.6c-0.4,2.3-0.6,3.7-0.6,4.4c0,2.9,1.2,5.9,3.7,9
				c2.5,3.1,5.8,4.6,10,4.6v6.8c0,2.6,0.4,4.2,1.1,4.8c0,0.7,0.7,1.6,2,2.9c1.3,1.3,2,2.1,2,2.4c0.8,2.3,0.1,4.4-2,6.5
				c-2.1,2.1-4.1,3.5-6,4.1c-4.6,1.6-7,3.3-7.2,5.1c-0.2,1.8-1.2,3-3.1,3.6l4,5.8H433h-0.6c-0.7-0.3-2.5-1.1-5.1-2.2
				c-2.7-1.1-4.4-2.3-5.2-3.6c-1.2,2.3-2.7,4.2-4.6,5.8c-0.4-0.6-1.1-1.4-2-2.2c-1-0.8-2-1.5-3.2-2.2l-1.1-1c0-0.3-1.3,0-4,1
				c-2.7,0.7-6.5,1.7-11.5,3.2c-4.9,1.4-9.8,2.9-14.6,4.4c-4.8,1.5-8.9,2.7-12.3,3.9s-5.1,1.9-5.1,2.2c0,3.3,0.3,6.2,0.9,8.7
				c0.6,2.6,0.9,5.7,0.9,9.2v2.9c0,1.9-0.1,4.3-0.3,7.3c-0.2,2.9-0.5,5.7-0.9,8.3c-0.4,2.6-1.1,4.9-2,6.8c-1,1.9-2,2.9-3.2,2.9
				v-27.7l-3.4-4.9v24.8l-6.9-33.5l-2.3-3.9c-0.8,3.6-1.7,7.7-2.8,12.4c-1.2,4.7-1.7,9.1-1.7,13.3c0,2.6,0.5,5.2,1.4,7.8
				c1,2.6,1.4,5.4,1.4,8.3v1c0,0.6-0.3,2.4-0.9,5.1c-0.6,2.7-1,4.4-1.4,5.1c-0.4-1-1.1-2.9-2.3-5.8c-1.2-2.9-2.3-6-3.4-9.2
				c-1.1-3.2-2.2-6.1-3.2-8.7c-0.9-2.6-1.8-3.9-2.6-3.9v-19.9v5.3c-2.3-1.6-3.6-3.5-4-5.6c-0.4-2.1-0.6-4.4-0.6-7h-4
				c0,6.5-0.3,11.8-0.9,16c-0.6,4.2-0.9,9.6-0.9,16h-2.3v-7.3h-3.4v-10.2l-2.9,3.4v-21.4h-5.1c-0.8,0-1.4,1.1-1.7,3.4
				c-0.4,2.3-0.6,4.2-0.6,5.8c0,0.3,0.4,1.4,1.1,3.1c0.8,1.8,1.2,3,1.2,3.6c0,0.7-0.4,2.1-1.2,4.4c-0.8,2.3-1.1,3.7-1.1,4.4v1.5
				c0,0.3-0.1,0.9-0.3,1.7c-0.2,0.8-0.3,1.7-0.3,2.7v1.5c0,3.9,0.9,7.6,2.6,11.2c1.7,3.6,3.7,7,6,10.2c2.3,3.3,4.3,6.3,6,9.2
				c1.7,2.9,2.6,5.4,2.6,7.3c4.6,0,9.6-0.9,14.9-2.7c5.4-1.8,11-3.7,16.9-5.8c5.9-2.1,12-4.1,18.3-5.8c6.3-1.8,12.7-2.7,19.2-2.7
				c13.8,0,27.4,2.4,41,7.3c13.6,4.9,25.6,11.4,36.1,19.7c10.5,8.3,19.1,17.9,25.8,28.9c6.7,11,10,22.7,10,35
				c0,3.2-0.6,7.4-1.7,12.4c-1.1,5-2.7,10.1-4.6,15.3c-1.9,5.2-3.9,10-6,14.6c-2.1,4.5-4.3,8.1-6.6,10.7c-5.7,6.8-12.2,12-19.5,15.5
				c-7.3,3.6-14.1,8.4-20.7,14.6c-0.8,0.3-2.2,0.6-4.3,1c-2.1,0.3-4.4,0.6-6.9,1c-2.5,0.3-4.8,0.7-6.9,1c-2.1,0.3-3.5,0.5-4.3,0.5
				h-8c-5.4,0-11.5-0.1-18.4-0.2c-6.9-0.1-11.5-0.4-13.8-0.7h-5.7c0,3.6,1.3,6.1,4,7.5c2.7,1.4,5.7,2.6,9.2,3.4
				c3.4,0.8,6.9,1.7,10.3,2.7c3.4,1,5.9,2.6,7.4,4.9l35.5,9.2c4.2,1,7.1,3,8.6,6.1c1.5,3.1,4.2,5.1,8,6.1c3.4,1,9.5,2.4,18.1,4.4
				c8.6,1.9,18.5,4.3,29.8,7c11.3,2.7,22.9,5.7,35,8.7c12,3.1,23,6.1,33,9c10,2.9,18.2,5.7,24.7,8.5c6.5,2.8,9.7,5.1,9.7,7.1
				c0,1-0.6,1.5-1.7,1.5h-56.2l-98.6-12.6c-11.1-2.6-22.6-4.6-34.4-6.1c-11.8-1.5-23.3-3.5-34.4-6.1c-9.2-1.9-18.7-4.1-28.6-6.5
				c-9.9-2.4-19.7-3.7-29.3-3.7c0,1.6,0.6,2.7,1.7,3.2c1.1,0.5,1.7,1.6,1.7,3.2c0,1.3-0.7,3.2-2,5.6c-1.3,2.4-2.8,3.6-4.3,3.6
				c-3,0-4.9-1.1-5.4-3.4c-0.6-2.3-2.6-3.4-6-3.4c-1.5,0-2.6,0.3-3.2,1c-0.6,0.7-0.9,1.5-1.2,2.4c-0.2,1-0.6,1.8-1.1,2.4
				c-0.6,0.6-1.8,1-3.7,1c-4.6,0-8.4-1.4-11.5-4.1c-3-2.7-6.3-5.6-9.7-8.5c-3.8,0.7-7.2,0.7-10,0.2c-2.9-0.5-5.7-1.1-8.6-1.7
				c-2.8-0.6-5.7-1.2-8.6-1.7c-2.9-0.5-6.4-0.5-10.6-0.2c-3.1-3.6-6.8-5.7-11.2-6.3c-4.4-0.6-8.1-2.7-11.2-6.3
				c-0.4,0-1.2-0.7-2.3-2.2c-1.1-1.5-1.9-2.3-2.3-2.7c-1.5-1.6-3.9-2.6-7.2-2.9c-3.2-0.3-6.3-0.8-9.2-1.5c-2.9-0.6-5.4-1.7-7.7-3.2
				c-2.3-1.4-3.4-4-3.4-7.5c0-1,0.6-2.2,1.7-3.6c1.1-1.4,2.6-2.8,4.3-4.1c1.7-1.3,3.4-2.5,5.1-3.6c1.7-1.1,3.1-1.9,4.3-2.2
				c0.4,0,1,0.3,1.7,1c0.8,0.6,1.5,1,2.3,1h3.4c0-0.6,0.2-1.3,0.6-1.9c0-1-0.7-1.4-2.3-1.4l2.3-2c-0.4-0.3-0.7-0.7-1.1-1.2
				c-0.4-0.5-0.8-0.7-1.1-0.7c-0.4,0-1.1-0.1-2.3-0.3c-1.1-0.2-1.9-0.6-2.3-1.2c-1.2-1.3-2.7-3.2-4.6-5.6c-1.9-2.4-3.7-4.9-5.4-7.5
				c-1.7-2.6-3.2-5.2-4.6-7.8c-1.3-2.6-2-4.7-2-6.3v-2.4c0-1,0.8-1.8,2.3-2.4c-0.8-0.3-1.3-0.5-1.7-0.5c-3.1,0-5,1.4-5.7,4.1
				c-0.8,2.7-1.2,5.1-1.2,7c0,0.3,0.2,1.5,0.6,3.4c0,0.6,0.3,1.3,0.9,1.9c0.6,0.6,0.9,1.1,0.9,1.4c0,1.6-0.6,2.4-1.7,2.4
				c0.8,3.6,0.9,7.1,0.6,10.7c-0.4,3.6-1.9,7-4.6,10.2c1.1,0,1.7,0.5,1.7,1.5c0,0.6-0.3,1.4-0.9,2.2c-0.6,0.8-0.9,1.4-0.9,1.7
				c-0.4,0.3-0.6,0.6-0.6,1s0.2,0.6,0.6,1c0.4,0,1.1,0.5,2.3,1.4c1.1,1,1.7,1.6,1.7,1.9c0.8,1.6,0.2,4-1.7,7.1
				c-1.9,3.1-2.9,5.4-2.9,7h-2.9c0,4.8,0.8,9.1,2.3,12.6c1.5,3.5,5.9,5.3,13.2,5.3c1.5,0,2.6-0.4,3.2-1.2c0.6-0.8,1.2-1.2,2-1.2h1.1
				c1.5,2.6,3,5.8,4.3,9.7c1.3,3.9,3.5,6.6,6.6,8.3c5.4,3.2,12.6,5.4,21.8,6.5c9.2,1.1,18.1,2.5,27,4.1c8.8,1.6,16.3,4.1,22.6,7.3
				c6.3,3.2,9.5,8.6,9.5,16c0,1.6-0.4,2.6-1.2,2.9c-0.8,0.3-2.1,0.5-4,0.5c-1.9,0-3.2-0.6-4-1.9c-0.8-1.3-1.6-2.7-2.6-4.4
				c-1-1.6-2.1-3.1-3.4-4.3c-1.3-1.3-3.5-2-6.6-2c-1.5,0-4.1,1.1-7.7,3.4c-3.6,2.3-5.4,3.7-5.4,4.4v1.5l2.3,6.8V547.2z"/>
		</g>
	</g>
</g>
</svg>
