<?xml version="1.0" encoding="utf-8"?>
<!-- Generator: Adobe Illustrator 21.1.0, SVG Export Plug-In . SVG Version: 6.00 Build 0)  -->
<svg version="1.1" id="Layer_1" xmlns="http://www.w3.org/2000/svg" xmlns:xlink="http://www.w3.org/1999/xlink" x="0px" y="0px"
	 viewBox="0 0 612 612" style="enable-background:new 0 0 612 612;" xml:space="preserve">
<style type="text/css">
	.st0{display:none;}
	.st1{display:inline;}
</style>
<g id="REF" class="st0">
</g>
<g class="st0">
	<path class="st1" d="M600.9,303.6C600.8,466.4,469,598.2,306.4,598.2c-163,0-294.9-132-294.6-294.8C12.1,140.5,144,8.8,306.6,9.1
		C469.1,9.3,601,141.3,600.9,303.6z M569.9,365.9c13.2-50.7,11.2-122-22.8-186.9c-22.9-43.7-55.1-78.6-96.9-105.2
		c0,9.9,0,19.2,0,28.6c-17.1-5.2-34-10.3-51.4-15.6c1.5,14.6,2.9,28.7,4.3,43.1c-29.3-4.1-57.9-8-86.5-12.1
		c-1.7-0.2-3.5-1.5-4.8-2.8c-8.1-8.4-16.1-17-24.1-25.5c-7.2-7.6-7.2-7.6-16.4-2.7c-8.2,4.3-16.4,8.7-25,13.2
		c9.3,11.3,18.2,22.3,27.9,34.1c-2.3-0.7-3.4-1-4.4-1.3c-27.4-8.4-54.7-16.8-82.1-25.4c-2.5-0.8-4.3-0.5-6.4,1.2
		c-15.3,12.2-30.8,24.3-46.2,36.5c-1.5,1.2-3,2.3-5.2,3.9c1.6-18.7,3-36.5,4.6-55.3c-34.3,28.5-59.9,62.4-77.5,102.8
		c19.7,6.1,39,12,58.2,18c2.8,0.9,4.9,0.5,7.4-1c25.5-15.4,51-30.7,76.4-46.2c2.7-1.6,4.5-1.5,7,0.2c16.5,10.9,33,21.7,49.6,32.5
		c1.1,0.7,2.2,1.5,3.6,2.5c-28.1,16.1-55.8,32.1-84.1,48.3c10.7,6.6,20.8,13,31.4,19.6c-11.3,9.3-21.9,18.3-32.8,26.9
		c-4.1,3.3-6.9,6.9-7.9,12.1c-0.9,5-2.5,9.8-3.9,15c15.8,0.7,30.9,1.5,46.2,2.2c0.1,0.8,0.3,1.3,0.3,1.9
		c-1.1,15.7-2.1,31.4-3.4,47.1c-0.1,1-1.9,2.5-3,2.7c-21.2,3.7-42.5,7.1-63.7,10.9c-5.5,1-9.9,0-14.6-2.6
		c-10.9-6.1-22-11.8-33.3-17.8c-10.4,14.8-20.7,29.4-30.7,44c-0.7,1-0.2,3.1,0.4,4.5c18,39,43.9,71.8,77.4,98.6
		c0.9,0.7,1.8,1.2,3.6,2.4c-3.9-15.5-7.5-30-11.2-44.9c1.6,0.3,2.5,0.5,3.4,0.8c26,7.2,52,14.4,77.9,21.7c2.7,0.8,4.9,0.5,7.4-0.9
		c18.2-10,36.4-19.8,54.7-29.6c1.3-0.7,2.6-1.3,4.1-2c5.4,16.4,10.9,32.3,16,48.3c1,3.2,2.5,3.9,5.7,3.5c22-2.6,44-5.1,65.9-7.5
		c4.7-0.5,8.6-1.9,12.5-4.8c24-17.9,48.1-35.6,72.1-53.5c2.5-1.9,4.2-2.1,6.8-0.1c15.5,11.3,31.2,22.4,46.8,33.6
		c1.2,0.9,2.5,1.7,3.8,2.6c0.6-0.5,1.1-0.8,1.4-1.2c18.6-20.8,33.7-43.9,45-69.4c0.8-1.7,0.5-4.4-0.2-6.2
		c-7.8-19.9-15.8-39.8-23.8-59.6c-0.6-1.5-1.1-3-1.9-5.3C542.1,351.3,555.9,358.5,569.9,365.9z"/>
	<path class="st1" d="M337.2,237.2c38.1-4.5,75.5-8.8,113.8-13.3c-4.5,14.5-8.8,28.5-13.1,42.7c4.6,2.4,9,4.7,13.4,7
		c12.7,6.6,25.4,13.3,38.2,19.7c2.6,1.3,3.2,2.8,2.8,5.5c-2.5,17.8-4.9,35.6-7.1,53.4c-0.3,2.2,0.1,4.8,0.8,6.9
		c6.1,16.8,12.4,33.6,18.7,50.4c0.5,1.3,0.8,2.6,1.6,5.1c-26.5-20.6-52.1-40.4-78.1-60.7c-4.8,11.9-9.5,23.5-14.4,35.5
		c-10.2-4.8-19.9-9.8-30-14c-5.1-2.1-6.8-4.8-7-10.4c-0.7-22.3-2.1-44.5-3.1-66.7c-0.2-4.6-1.4-8.5-4-12.4
		c-10.2-14.8-20-29.8-30-44.7C338.9,240.1,338.2,238.9,337.2,237.2z"/>
	<path class="st1" d="M226,255c13.6-9.1,26.5-17.8,39.7-26.6c8.7,9.2,17.3,18.2,26.1,27.4c-5.8,5.1-12.2,10.9-18.7,16.5
		c-0.7,0.6-2.4,0.8-3.3,0.4C255.3,266.9,241.1,261.1,226,255z"/>
	<path class="st1" d="M316.8,475.7c-8-22.4-15.6-43.8-23.4-65.9c16.2,4.2,31.9,8.3,48.1,12.5C333.4,440,325.3,457.4,316.8,475.7z"/>
</g>
<path class="st0" d="M293.6,79.8c-49.6,6.8-90.8,26-119.6,67.1c-3.3,4.8-10.2,9.9-2.6,16.9c6.1,5.6,9.2,13.2,21.6,9.4
	c126.1-39.4,252.1,32.5,282.9,160.5c29.7,123.3-58.1,250.9-183.4,266.6c-126,15.7-235.3-66.8-250-192.7
	C32.8,324,64.3,255.4,131.7,204c4.5-3.4,9.2-6.5,13.8-9.7c0.4-0.3,0.6-0.7,5.1-5.2c-7.1-5.3-14.6-10.2-21.3-16
	c-8.8-7.6-17-16.3-8.7-28.8c8.4-12.7,19.5-9.8,30.2-3.2C198,67.8,293.7,43.4,364,65c4,1.2,8,4,11.9,3.8c5.6-0.3,11.1-2.6,16.7-4.1
	c-2.9-5.1-4.9-13.5-8.9-14.7c-19.2-5.4-39-9-58.6-12.8c-4.9-0.9-10.1-0.1-18-0.1c12.2-17.3,27.6-24.7,45.1-28
	c24.4-4.6,47.6,0.4,69.1,12.2c16.4,9,32.3,19,48.5,28.3c27.7,16,56.5,24.9,91,11.5c-12.6,35.2-31,62.9-59.6,83.2
	c-59.3,42.3-137.9,24-181.3-13.2C304.9,118.2,296.2,101.4,293.6,79.8z M159.8,294.8c0.2-13-9.5-23.6-22.3-24.1
	c-13.2-0.5-24.4,10.3-24.5,23.6c-0.1,12.3,10.8,23.3,23.3,23.6C148.6,318.1,159.5,307.4,159.8,294.8z"/>
<g class="st0">
	<path class="st1" d="M69.5,363.9c5.8,0,11.5,0,17.4,0c0-0.9,0.1-1.6,0.1-2.3c0-72.4,0-144.9,0-217.3c0-1.5-0.4-2.4-1.8-3.2
		c-20.2-11.9-30.9-29.6-31.9-53c0-1,0.2-2.1,0.4-3.2c6.6-24.5,13.2-49,19.8-73.5c0.2-0.6,0.4-1.1,0.6-1.8c0.8,0,1.5,0,2.2,0
		c150.9,0,301.8,0,452.7,0c1.7,0,2.4,0.4,2.9,2.1c6.5,24.6,13.3,49.1,19.7,73.7c0.9,3.5,0.3,7.5-0.3,11.2
		c-3.6,20.6-14.8,35.9-33.4,45.7c-1,0.5-1.6,1.2-1.4,2.4c0.1,0.4,0,0.8,0,1.2c0,71.6,0,143.3,0,214.9c0,0.9,0,1.9,0,3
		c6.3,0,12.5,0,18.8,0c0,74.6,0,149,0,223.6c-6.3,0-12.4,0-18.8,0c0,7,0,13.8,0,20.6c-9.6,0-18.9,0-28.4,0c0-6.8,0-13.6,0-20.5
		c-124.2,0-248.1,0-372.3,0c0,6.7,0,13.5,0,20.4c-9.6,0-19,0-28.6,0c0-6.8,0-13.5,0-20.5c-6,0-11.7,0-17.6,0
		C69.5,512.8,69.5,438.4,69.5,363.9z M302.6,91.5c-2.7,31.9-28.4,56-59.2,57.5c-16.9,0.8-31.9-4.4-44.5-15.7
		c-12.6-11.2-19.4-25.5-20.8-41.4c-5.7,34.8-26.5,54.2-62.5,57.6c0,71.2,0,142.6,0,214.2c124.1,0,248.1,0,372.1,0
		c0-71.6,0-143.1,0-214.5c-31.1-0.8-57.7-25.6-60.5-57.5c-1.7,16.5-8.5,30.5-20.9,41.5c-12.5,11.1-27.2,16.3-43.9,15.7
		c-13.8-0.5-26.2-5.2-36.9-14C311.9,123.8,304.5,109.1,302.6,91.5z"/>
</g>
<g>
	<path d="M588.2,518.1c-29.2,4.5-58.4,9.4-87.7,13.4c-20.7,2.8-39.9-4.7-59.4-10.1c-13.8-3.8-27.9-7-42.1-9.1
		c-17.4-2.5-34.4,1.4-49.9,8.9c-29.6,14.1-58.2,12.1-87.6-0.4c-17.2-7.3-35.2-13-53.3-17.6c-18.4-4.7-36.5-1.1-53.3,7.8
		c-7.2,3.8-14.4,7.5-21.5,11.6c-14.7,8.4-30.2,11.8-47,8.4c-19.8-4-39.6-8-61.3-12.4c3.7-4.3,5.7-7,8.1-9.3
		c26-25.8,56.1-46,88.3-63.1c41-21.8,84-37.7,129.7-46.4c0.8-0.2,1.6-0.2,2.8-0.4c1.2,3.4,1.9,6.9,3.6,9.9
		c2.8,5.1,5.4,10.5,9.3,14.6c13.8,14.3,34.5,12.3,45.5-4.9c4.6-7.2,7-15.8,11.1-25.2c101.1,11,190.7,49.4,265.5,120.3
		C588.7,515.4,588.4,516.8,588.2,518.1z"/>
	<path d="M217.3,101.1c42-1.2,80.5,6.1,111.8,35.4c-0.2,0.7-0.3,1.4-0.5,2.1c-3.6-0.7-7.3-1.5-10.9-2.2c-3.9-0.8-7.7-1.7-11.6-2.4
		c-17.3-3.2-34.6-6-52.2-3.3c-9.9,1.5-19,4.8-25.8,12.7c-3.6,4.2-3.9,7.5-0.3,12.4c20.1,27.3,37.3,56.4,49.5,88.2
		c13.9,36.3,19.4,74.1,20.8,112.7c0.4,10.8,1.3,21.7,0.7,32.5c-0.3,5.8-2.3,11.9-5.2,17c-4,6.9-9.9,6.3-13-1
		c-2.1-5.1-3.5-10.7-3.9-16.2c-2.2-28.5-2.6-57.2-6.2-85.5c-5.1-40.9-22.5-77.4-44.9-111.7c-2.5-3.8-5-7.5-7.6-11.4
		c-15.5,14.3-36.8,9-40.9-14.7c-30.1,15.2-49.9,39.8-66.4,69.8c-1.6-19.7,3-36.7,12-52.1c8.9-15.2,19.6-29.4,29.9-44.5
		c-8.9-9.7-21.5-12.4-35.4-10.1c-19.4,3.3-36,13-52.1,23.6c-10.6,7-20.8,14.6-31.5,21.3c22.4-48,64.3-66.5,113.3-74.1
		c-4.8-34.9-56-73.2-94.4-69.7C64.2,20.8,76.8,16.5,90.7,17c23.1,0.9,41.9,11.9,58.9,26.4c11.1,9.4,21.3,19.9,32,29.9
		c39.7-27.6,83.8-37.1,132.2-21.8c-9.4,1.7-19,3.2-28.3,5.2c-19.3,4.2-37.9,10.2-53.5,23C225.1,85.4,219.8,92.1,217.3,101.1z"/>
	<path d="M363.6,376c-1.1,0.1-1.7,0.2-2.3,0.1c-6.4-0.9-12.7-1.9-19.8-3c4.4-25.2,12-49.2,23.3-71.7c11.2-22.2,24.2-43.6,36.1-65
		c-20.5-2.6-28.4-15.2-20.2-35c-12.6-5.1-25.7-6.4-39-6.1c-13.1,0.2-26.1,1.6-39.8,2.5c12.8-14.6,29.5-21.9,47.6-26.4
		c18.2-4.5,36.6-5.3,55.1-3c5.6-24.5-10-48.6-34.7-52.4c-11-1.7-22.4-0.8-33.6-0.8c-3.1,0-6.1,0.6-9.8,1c15.6-17,47.8-29,72.5-21.8
		c27.1,7.8,43.9,26.9,56.3,50.7c49.5-14.1,91.5-10.7,135.5,11.5c-38,2.9-73.8,9-104.4,34c31.1,16.8,57.9,36.6,69.4,71.1
		c-24.2-20.1-50.4-35.7-82-40.5c-8.2,21.4-26.4,22.3-39.2,11.2C400.4,275.1,374.4,321.8,363.6,376z"/>
	<path d="M9.3,547.1c14.3,6.4,28.1,13.3,42.4,18.7c8.5,3.2,17.8,4.9,26.8,5.7c6.4,0.5,13.5-0.4,19.4-2.8c19.2-8,37.8-17.7,57.2-25.4
		c11.9-4.8,24.6-8.1,37.2-10.5c19.6-3.7,37.1,2.7,53,14c5.4,3.9,11.1,7.4,16.3,11.7c17.9,14.6,38.4,17.8,60.2,13
		c21.8-4.8,43.2-11.1,65-15.7c11.1-2.4,22.7-2.9,34.1-3.8c11.1-0.8,22.1,1.4,31.2,7.6c20.9,14.1,43.4,14.2,66.8,9.7
		c27.2-5.3,54.5-10.4,81.8-15.7c1.6-0.3,3.3-0.5,5.2-0.8c0,7.5,0,14.7,0,22.9c-13.1,2.7-26.2,5.7-39.5,8c-21.4,3.7-42.8,7-64.3,10.2
		c-17.3,2.6-34.2,0.6-48.9-8.9c-19.8-12.7-40.6-12.4-62.1-7.3c-22.1,5.2-44,11.4-66.3,16c-28.2,5.8-54.4,1-77.3-17.5
		c-4.5-3.7-9.6-6.7-14.2-10.2c-15.9-12.3-33.5-14.7-52-7.8c-17,6.3-34.8,11.6-50.1,20.9c-36.8,22.3-72.3,16.6-108.7,0.2
		c-10.1-4.6-15.4-10-13.3-21.4C9.9,554.3,9.3,550.4,9.3,547.1z"/>
	<path d="M188.5,391.9c-17.4,7.1-34.3,14.1-51.2,21.1c-1.5,0.6-3.2,1-4.8,1c-40.7,0.1-81.4,0-122.6,0c0-7.4,0-14.5,0-22.1
		C69.2,391.9,128.7,391.9,188.5,391.9z"/>
	<path d="M427,391.7c60,0,119.2,0,178.9,0c0,7.4,0,14.5,0,22.4c-2.2,0-4.2,0-6.2,0c-37.6,0-75.2,0.1-112.7-0.1
		c-3.4,0-7-0.9-10.2-2.1C460.3,405.4,444,398.6,427,391.7z"/>
</g>
</svg>
