<?xml version="1.0" encoding="utf-8"?>
<!-- Generator: Adobe Illustrator 21.1.0, SVG Export Plug-In . SVG Version: 6.00 Build 0)  -->
<svg version="1.1" id="Layer_1" xmlns="http://www.w3.org/2000/svg" xmlns:xlink="http://www.w3.org/1999/xlink" x="0px" y="0px"
	 viewBox="0 0 612 612" style="enable-background:new 0 0 612 612;" xml:space="preserve">
<style type="text/css">
	.st0{display:none;}
	.st1{display:inline;}
</style>
<g id="REF" class="st0">
</g>
<g class="st0">
	<path class="st1" d="M600.9,303.6C600.8,466.4,469,598.2,306.4,598.2c-163,0-294.9-132-294.6-294.8C12.1,140.5,144,8.8,306.6,9.1
		C469.1,9.3,601,141.3,600.9,303.6z M569.9,365.9c13.2-50.7,11.2-122-22.8-186.9c-22.9-43.7-55.1-78.6-96.9-105.2
		c0,9.9,0,19.2,0,28.6c-17.1-5.2-34-10.3-51.4-15.6c1.5,14.6,2.9,28.7,4.3,43.1c-29.3-4.1-57.9-8-86.5-12.1
		c-1.7-0.2-3.5-1.5-4.8-2.8c-8.1-8.4-16.1-17-24.1-25.5c-7.2-7.6-7.2-7.6-16.4-2.7c-8.2,4.3-16.4,8.7-25,13.2
		c9.3,11.3,18.2,22.3,27.9,34.1c-2.3-0.7-3.4-1-4.4-1.3c-27.4-8.4-54.7-16.8-82.1-25.4c-2.5-0.8-4.3-0.5-6.4,1.2
		c-15.3,12.2-30.8,24.3-46.2,36.5c-1.5,1.2-3,2.3-5.2,3.9c1.6-18.7,3-36.5,4.6-55.3c-34.3,28.5-59.9,62.4-77.5,102.8
		c19.7,6.1,39,12,58.2,18c2.8,0.9,4.9,0.5,7.4-1c25.5-15.4,51-30.7,76.4-46.2c2.7-1.6,4.5-1.5,7,0.2c16.5,10.9,33,21.7,49.6,32.5
		c1.1,0.7,2.2,1.5,3.6,2.5c-28.1,16.1-55.8,32.1-84.1,48.3c10.7,6.6,20.8,13,31.4,19.6c-11.3,9.3-21.9,18.3-32.8,26.9
		c-4.1,3.3-6.9,6.9-7.9,12.1c-0.9,5-2.5,9.8-3.9,15c15.8,0.7,30.9,1.5,46.2,2.2c0.1,0.8,0.3,1.3,0.3,1.9
		c-1.1,15.7-2.1,31.4-3.4,47.1c-0.1,1-1.9,2.5-3,2.7c-21.2,3.7-42.5,7.1-63.7,10.9c-5.5,1-9.9,0-14.6-2.6
		c-10.9-6.1-22-11.8-33.3-17.8c-10.4,14.8-20.7,29.4-30.7,44c-0.7,1-0.2,3.1,0.4,4.5c18,39,43.9,71.8,77.4,98.6
		c0.9,0.7,1.8,1.2,3.6,2.4c-3.9-15.5-7.5-30-11.2-44.9c1.6,0.3,2.5,0.5,3.4,0.8c26,7.2,52,14.4,77.9,21.7c2.7,0.8,4.9,0.5,7.4-0.9
		c18.2-10,36.4-19.8,54.7-29.6c1.3-0.7,2.6-1.3,4.1-2c5.4,16.4,10.9,32.3,16,48.3c1,3.2,2.5,3.9,5.7,3.5c22-2.6,44-5.1,65.9-7.5
		c4.7-0.5,8.6-1.9,12.5-4.8c24-17.9,48.1-35.6,72.1-53.5c2.5-1.9,4.2-2.1,6.8-0.1c15.5,11.3,31.2,22.4,46.8,33.6
		c1.2,0.9,2.5,1.7,3.8,2.6c0.6-0.5,1.1-0.8,1.4-1.2c18.6-20.8,33.7-43.9,45-69.4c0.8-1.7,0.5-4.4-0.2-6.2
		c-7.8-19.9-15.8-39.8-23.8-59.6c-0.6-1.5-1.1-3-1.9-5.3C542.1,351.3,555.9,358.5,569.9,365.9z"/>
	<path class="st1" d="M337.2,237.2c38.1-4.5,75.5-8.8,113.8-13.3c-4.5,14.5-8.8,28.5-13.1,42.7c4.6,2.4,9,4.7,13.4,7
		c12.7,6.6,25.4,13.3,38.2,19.7c2.6,1.3,3.2,2.8,2.8,5.5c-2.5,17.8-4.9,35.6-7.1,53.4c-0.3,2.2,0.1,4.8,0.8,6.9
		c6.1,16.8,12.4,33.6,18.7,50.4c0.5,1.3,0.8,2.6,1.6,5.1c-26.5-20.6-52.1-40.4-78.1-60.7c-4.8,11.9-9.5,23.5-14.4,35.5
		c-10.2-4.8-19.9-9.8-30-14c-5.1-2.1-6.8-4.8-7-10.4c-0.7-22.3-2.1-44.5-3.1-66.7c-0.2-4.6-1.4-8.5-4-12.4
		c-10.2-14.8-20-29.8-30-44.7C338.9,240.1,338.2,238.9,337.2,237.2z"/>
	<path class="st1" d="M226,255c13.6-9.1,26.5-17.8,39.7-26.6c8.7,9.2,17.3,18.2,26.1,27.4c-5.8,5.1-12.2,10.9-18.7,16.5
		c-0.7,0.6-2.4,0.8-3.3,0.4C255.3,266.9,241.1,261.1,226,255z"/>
	<path class="st1" d="M316.8,475.7c-8-22.4-15.6-43.8-23.4-65.9c16.2,4.2,31.9,8.3,48.1,12.5C333.4,440,325.3,457.4,316.8,475.7z"/>
</g>
<path class="st0" d="M293.6,79.8c-49.6,6.8-90.8,26-119.6,67.1c-3.3,4.8-10.2,9.9-2.6,16.9c6.1,5.6,9.2,13.2,21.6,9.4
	c126.1-39.4,252.1,32.5,282.9,160.5c29.7,123.3-58.1,250.9-183.4,266.6c-126,15.7-235.3-66.8-250-192.7
	C32.8,324,64.3,255.4,131.7,204c4.5-3.4,9.2-6.5,13.8-9.7c0.4-0.3,0.6-0.7,5.1-5.2c-7.1-5.3-14.6-10.2-21.3-16
	c-8.8-7.6-17-16.3-8.7-28.8c8.4-12.7,19.5-9.8,30.2-3.2C198,67.8,293.7,43.4,364,65c4,1.2,8,4,11.9,3.8c5.6-0.3,11.1-2.6,16.7-4.1
	c-2.9-5.1-4.9-13.5-8.9-14.7c-19.2-5.4-39-9-58.6-12.8c-4.9-0.9-10.1-0.1-18-0.1c12.2-17.3,27.6-24.7,45.1-28
	c24.4-4.6,47.6,0.4,69.1,12.2c16.4,9,32.3,19,48.5,28.3c27.7,16,56.5,24.9,91,11.5c-12.6,35.2-31,62.9-59.6,83.2
	c-59.3,42.3-137.9,24-181.3-13.2C304.9,118.2,296.2,101.4,293.6,79.8z M159.8,294.8c0.2-13-9.5-23.6-22.3-24.1
	c-13.2-0.5-24.4,10.3-24.5,23.6c-0.1,12.3,10.8,23.3,23.3,23.6C148.6,318.1,159.5,307.4,159.8,294.8z"/>
<g class="st0">
	<path class="st1" d="M69.5,363.9c5.8,0,11.5,0,17.4,0c0-0.9,0.1-1.6,0.1-2.3c0-72.4,0-144.9,0-217.3c0-1.5-0.4-2.4-1.8-3.2
		c-20.2-11.9-30.9-29.6-31.9-53c0-1,0.2-2.1,0.4-3.2c6.6-24.5,13.2-49,19.8-73.5c0.2-0.6,0.4-1.1,0.6-1.8c0.8,0,1.5,0,2.2,0
		c150.9,0,301.8,0,452.7,0c1.7,0,2.4,0.4,2.9,2.1c6.5,24.6,13.3,49.1,19.7,73.7c0.9,3.5,0.3,7.5-0.3,11.2
		c-3.6,20.6-14.8,35.9-33.4,45.7c-1,0.5-1.6,1.2-1.4,2.4c0.1,0.4,0,0.8,0,1.2c0,71.6,0,143.3,0,214.9c0,0.9,0,1.9,0,3
		c6.3,0,12.5,0,18.8,0c0,74.6,0,149,0,223.6c-6.3,0-12.4,0-18.8,0c0,7,0,13.8,0,20.6c-9.6,0-18.9,0-28.4,0c0-6.8,0-13.6,0-20.5
		c-124.2,0-248.1,0-372.3,0c0,6.7,0,13.5,0,20.4c-9.6,0-19,0-28.6,0c0-6.8,0-13.5,0-20.5c-6,0-11.7,0-17.6,0
		C69.5,512.8,69.5,438.4,69.5,363.9z M302.6,91.5c-2.7,31.9-28.4,56-59.2,57.5c-16.9,0.8-31.9-4.4-44.5-15.7
		c-12.6-11.2-19.4-25.5-20.8-41.4c-5.7,34.8-26.5,54.2-62.5,57.6c0,71.2,0,142.6,0,214.2c124.1,0,248.1,0,372.1,0
		c0-71.6,0-143.1,0-214.5c-31.1-0.8-57.7-25.6-60.5-57.5c-1.7,16.5-8.5,30.5-20.9,41.5c-12.5,11.1-27.2,16.3-43.9,15.7
		c-13.8-0.5-26.2-5.2-36.9-14C311.9,123.8,304.5,109.1,302.6,91.5z"/>
</g>
<path d="M302,610c-48.9-1.5-98.8-9.7-148.1-21.9c-33-8.1-65.5-17.9-95.7-34.1c-8.8-4.7-17-10.8-24.9-16.9
	c-9.4-7.4-13.1-17.2-12.4-29.5c2.1-38,8.5-75.3,17.2-112.3c17.5-74.2,42.4-145.9,76.5-214.2c21.8-43.7,47.1-85.2,80.5-121.2
	c17.4-18.8,36.7-35.2,60-46.5C295-5.9,333-0.9,369.4,22.6c31.7,20.5,55.9,48.5,77.3,79c39.2,56.1,67.4,117.8,90.4,181.9
	c19.7,55,35.3,111.1,44.2,168.9c3,19.2,4,38.8,6,58.2c1,9.7-3,17.5-9.7,24.1c-12.8,12.8-28.7,20.8-45,27.8
	c-41.9,18.1-85.9,28.6-130.6,36.7C369.5,605.1,336.9,609.3,302,610z M479.7,230.9c-4.9-6.6-9.5-12.6-14.2-19
	c-22.6,16.9-44.9,33.2-66.8,50.2c-22.8,17.7-48.9,28.8-75.6,38.8c-10.3,3.8-21.1,5-31.7,1.8c-25.3-7.5-49.5-18-71.2-33
	c-24.9-17.2-48.6-36.1-72.8-54.2c-1.5-1.1-3.1-2.1-5-3.3c-4.7,6.4-9.3,12.5-13.9,18.8c15.3,11.5,29.6,23.3,44.9,33.4
	c11.1,7.4,16.8,16.6,20.4,29.4c8.8,31.1,21.8,60.2,48.4,81.6c-5.4,13.5-10.8,27.3-16.7,42.2c16.3,6.8,31.9,13.6,47.7,20
	c20.7,8.4,41.5,8.2,62.1-0.2c15.7-6.4,31.2-13.2,47.2-20c-6-15.1-11.4-28.6-16.4-41.4c6.1-6.4,12.2-11.9,17.2-18.2
	c17.2-21.7,27-47,33.8-73.5c1.5-5.9,4.3-10,9.2-13.5C444,257.9,461.4,244.6,479.7,230.9z M461.6,406.3c-3.7,1.7-6,2.7-8.3,3.9
	c-36.7,18.3-73.3,36.7-110,54.8c-3,1.5-7.2,1.9-10.4,1.1c-19.1-4.8-38.1-4.9-57.2,0c-3.2,0.8-7.4,0.3-10.4-1.1
	c-37.1-18.3-74.1-36.9-111.2-55.4c-2-1-4.1-1.9-7.6-3.5c1.9,4,3,6.4,4.2,8.7c15.8,31.6,31.4,63.2,47.5,94.6
	c2.2,4.3,1.5,6.8-1.5,10.2c-9.2,9.9-17.9,20.2-26,29.4c5.6,6,10.8,11.6,16.2,17.3c4.2-4.6,8.1-9.4,12.5-13.6
	c15.7-15.3,30.2-32,47.5-45.3c37.5-28.8,76.5-28.5,114.5-0.4c11.6,8.5,22,18.7,32.3,28.9c9.9,9.8,18.9,20.4,27.2,29.6
	c6.2-5.6,11.9-10.7,17.6-15.8c-9.2-10.4-18.1-20.7-27.3-30.7c-2.9-3.1-3-5.5-1.1-9.1c16-31.7,31.9-63.5,47.7-95.2
	C458.8,412.3,459.8,410,461.6,406.3z M405.7,189.3c-34,9.6-67.1,20.1-101.8,20c-34.7-0.1-67.7-10.6-101.4-20
	c-2.5,7.5-4.9,14.7-7.1,21.3c72.7,29,144.9,29,217.4,0C410.5,203.9,408.2,196.9,405.7,189.3z M204.2,335.9
	c-13.5-3.9-26-8.6-38.9-11.1c-32.6-6.4-61.2,6-77,32.5c-13.3,22.4-17.3,46.7-13.8,72.2c1.3,9.8,4.7,19.2,7.4,29.4
	c8.5-4.3,15.3-7.7,22-11.1c-6.7-16.7-7.1-33.3-4.8-49.9c5.7-41.5,32.4-58.8,72.6-47.5c7.5,2.1,14.7,5,22.3,7.6
	C197.3,351,200.3,344.3,204.2,335.9z M525.3,458.4c1.1-2.5,2.1-4.5,2.8-6.5c7.5-19.1,8.5-38.9,4.9-58.9c-7.8-43.4-37-75.7-86.7-68.9
	c-14.5,2-28.3,6.4-41.8,13.1c3.4,7.4,6.5,14.1,9.5,20.4c10.6-3.2,20.4-6.9,30.6-9.2c31-6.9,54.4,7.7,62.2,38.3
	c5.2,20.4,5,40.7-2.3,61.2C511.3,451.3,517.9,454.7,525.3,458.4z M584.6,344.3c0.9-37,1.6-74,2.8-110.9c0.2-6.9-3.2-8.6-8.5-8.3
	c-12.2,0.5-20,7.7-26,17.6c-2.6,4.2-2.8,8.3-1,13c6.2,16.4,12.1,32.8,17.7,49.4c4.4,13,8.2,26.2,12.3,39.3
	C582.8,344.3,583.7,344.3,584.6,344.3z M26.2,344.4c0.4-0.9,1-1.9,1.3-2.8c9.8-29.2,19.6-58.5,29.4-87.8c0.5-1.4,1.3-3,1.1-4.4
	c-2.2-11.7-17.3-27.4-32.2-23.8c-1.9,0.5-4.5,3.7-4.5,5.6c0.6,37.7,1.5,75.3,2.3,113C24.4,344.3,25.3,344.4,26.2,344.4z
	 M321.7,329.5c-0.6-1.5-4-2.4-6.2-2.4c-7.6-0.3-15.2,0.3-22.8-0.3c-3.9-0.3-5.8,0.6-7.2,4.4c-9.2,23.4-18.6,46.7-27.9,70.1
	c-0.5,1.1-0.6,2.4-0.8,3.1c31.6,19.5,63,19.6,95-0.2C341.9,379.4,332,354.4,321.7,329.5z M220,298.3c8,20.5,15.7,38.8,31.9,53.1
	c4.5-11.1,8.6-21.3,12.8-31.9C250,312.5,235.8,305.8,220,298.3z M388.2,298.1c-16,7.7-30.3,14.5-44.7,21.4
	c4.2,10.5,8.3,20.6,12.8,32C372.5,336.8,380.6,318.6,388.2,298.1z M200.1,460.8c5.8,11.6,11.7,23.2,17.1,34.1
	c6.3-6.1,12.4-11.9,18.6-17.9c-11.5-5.8-23.2-11.6-34.8-17.4C200.7,460,200.4,460.4,200.1,460.8z M390.7,495.5
	c5.8-11.7,11.7-23.4,17.5-35.1c-0.4-0.3-0.7-0.5-1.1-0.8c-11.7,5.8-23.4,11.7-34.7,17.4C378.5,483.1,384.5,489.2,390.7,495.5z"/>
</svg>
