<?xml version="1.0" encoding="utf-8"?>
<!-- Generator: Adobe Illustrator 21.1.0, SVG Export Plug-In . SVG Version: 6.00 Build 0)  -->
<svg version="1.1" id="Layer_1" xmlns="http://www.w3.org/2000/svg" xmlns:xlink="http://www.w3.org/1999/xlink" x="0px" y="0px"
	 viewBox="0 0 612 612" style="enable-background:new 0 0 612 612;" xml:space="preserve">
<style type="text/css">
	.st0{display:none;}
	.st1{display:inline;}
</style>
<g id="REF" class="st0">
</g>
<g class="st0">
	<path class="st1" d="M600.9,303.6C600.8,466.4,469,598.2,306.4,598.2c-163,0-294.9-132-294.6-294.8C12.1,140.5,144,8.8,306.6,9.1
		C469.1,9.3,601,141.3,600.9,303.6z M569.9,365.9c13.2-50.7,11.2-122-22.8-186.9c-22.9-43.7-55.1-78.6-96.9-105.2
		c0,9.9,0,19.2,0,28.6c-17.1-5.2-34-10.3-51.4-15.6c1.5,14.6,2.9,28.7,4.3,43.1c-29.3-4.1-57.9-8-86.5-12.1
		c-1.7-0.2-3.5-1.5-4.8-2.8c-8.1-8.4-16.1-17-24.1-25.5c-7.2-7.6-7.2-7.6-16.4-2.7c-8.2,4.3-16.4,8.7-25,13.2
		c9.3,11.3,18.2,22.3,27.9,34.1c-2.3-0.7-3.4-1-4.4-1.3c-27.4-8.4-54.7-16.8-82.1-25.4c-2.5-0.8-4.3-0.5-6.4,1.2
		c-15.3,12.2-30.8,24.3-46.2,36.5c-1.5,1.2-3,2.3-5.2,3.9c1.6-18.7,3-36.5,4.6-55.3c-34.3,28.5-59.9,62.4-77.5,102.8
		c19.7,6.1,39,12,58.2,18c2.8,0.9,4.9,0.5,7.4-1c25.5-15.4,51-30.7,76.4-46.2c2.7-1.6,4.5-1.5,7,0.2c16.5,10.9,33,21.7,49.6,32.5
		c1.1,0.7,2.2,1.5,3.6,2.5c-28.1,16.1-55.8,32.1-84.1,48.3c10.7,6.6,20.8,13,31.4,19.6c-11.3,9.3-21.9,18.3-32.8,26.9
		c-4.1,3.3-6.9,6.9-7.9,12.1c-0.9,5-2.5,9.8-3.9,15c15.8,0.7,30.9,1.5,46.2,2.2c0.1,0.8,0.3,1.3,0.3,1.9
		c-1.1,15.7-2.1,31.4-3.4,47.1c-0.1,1-1.9,2.5-3,2.7c-21.2,3.7-42.5,7.1-63.7,10.9c-5.5,1-9.9,0-14.6-2.6
		c-10.9-6.1-22-11.8-33.3-17.8c-10.4,14.8-20.7,29.4-30.7,44c-0.7,1-0.2,3.1,0.4,4.5c18,39,43.9,71.8,77.4,98.6
		c0.9,0.7,1.8,1.2,3.6,2.4c-3.9-15.5-7.5-30-11.2-44.9c1.6,0.3,2.5,0.5,3.4,0.8c26,7.2,52,14.4,77.9,21.7c2.7,0.8,4.9,0.5,7.4-0.9
		c18.2-10,36.4-19.8,54.7-29.6c1.3-0.7,2.6-1.3,4.1-2c5.4,16.4,10.9,32.3,16,48.3c1,3.2,2.5,3.9,5.7,3.5c22-2.6,44-5.1,65.9-7.5
		c4.7-0.5,8.6-1.9,12.5-4.8c24-17.9,48.1-35.6,72.1-53.5c2.5-1.9,4.2-2.1,6.8-0.1c15.5,11.3,31.2,22.4,46.8,33.6
		c1.2,0.9,2.5,1.7,3.8,2.6c0.6-0.5,1.1-0.8,1.4-1.2c18.6-20.8,33.7-43.9,45-69.4c0.8-1.7,0.5-4.4-0.2-6.2
		c-7.8-19.9-15.8-39.8-23.8-59.6c-0.6-1.5-1.1-3-1.9-5.3C542.1,351.3,555.9,358.5,569.9,365.9z"/>
	<path class="st1" d="M337.2,237.2c38.1-4.5,75.5-8.8,113.8-13.3c-4.5,14.5-8.8,28.5-13.1,42.7c4.6,2.4,9,4.7,13.4,7
		c12.7,6.6,25.4,13.3,38.2,19.7c2.6,1.3,3.2,2.8,2.8,5.5c-2.5,17.8-4.9,35.6-7.1,53.4c-0.3,2.2,0.1,4.8,0.8,6.9
		c6.1,16.8,12.4,33.6,18.7,50.4c0.5,1.3,0.8,2.6,1.6,5.1c-26.5-20.6-52.1-40.4-78.1-60.7c-4.8,11.9-9.5,23.5-14.4,35.5
		c-10.2-4.8-19.9-9.8-30-14c-5.1-2.1-6.8-4.8-7-10.4c-0.7-22.3-2.1-44.5-3.1-66.7c-0.2-4.6-1.4-8.5-4-12.4
		c-10.2-14.8-20-29.8-30-44.7C338.9,240.1,338.2,238.9,337.2,237.2z"/>
	<path class="st1" d="M226,255c13.6-9.1,26.5-17.8,39.7-26.6c8.7,9.2,17.3,18.2,26.1,27.4c-5.8,5.1-12.2,10.9-18.7,16.5
		c-0.7,0.6-2.4,0.8-3.3,0.4C255.3,266.9,241.1,261.1,226,255z"/>
	<path class="st1" d="M316.8,475.7c-8-22.4-15.6-43.8-23.4-65.9c16.2,4.2,31.9,8.3,48.1,12.5C333.4,440,325.3,457.4,316.8,475.7z"/>
</g>
<path class="st0" d="M293.6,79.8c-49.6,6.8-90.8,26-119.6,67.1c-3.3,4.8-10.2,9.9-2.6,16.9c6.1,5.6,9.2,13.2,21.6,9.4
	c126.1-39.4,252.1,32.5,282.9,160.5c29.7,123.3-58.1,250.9-183.4,266.6c-126,15.7-235.3-66.8-250-192.7
	C32.8,324,64.3,255.4,131.7,204c4.5-3.4,9.2-6.5,13.8-9.7c0.4-0.3,0.6-0.7,5.1-5.2c-7.1-5.3-14.6-10.2-21.3-16
	c-8.8-7.6-17-16.3-8.7-28.8c8.4-12.7,19.5-9.8,30.2-3.2C198,67.8,293.7,43.4,364,65c4,1.2,8,4,11.9,3.8c5.6-0.3,11.1-2.6,16.7-4.1
	c-2.9-5.1-4.9-13.5-8.9-14.7c-19.2-5.4-39-9-58.6-12.8c-4.9-0.9-10.1-0.1-18-0.1c12.2-17.3,27.6-24.7,45.1-28
	c24.4-4.6,47.6,0.4,69.1,12.2c16.4,9,32.3,19,48.5,28.3c27.7,16,56.5,24.9,91,11.5c-12.6,35.2-31,62.9-59.6,83.2
	c-59.3,42.3-137.9,24-181.3-13.2C304.9,118.2,296.2,101.4,293.6,79.8z M159.8,294.8c0.2-13-9.5-23.6-22.3-24.1
	c-13.2-0.5-24.4,10.3-24.5,23.6c-0.1,12.3,10.8,23.3,23.3,23.6C148.6,318.1,159.5,307.4,159.8,294.8z"/>
<g class="st0">
	<path class="st1" d="M69.5,363.9c5.8,0,11.5,0,17.4,0c0-0.9,0.1-1.6,0.1-2.3c0-72.4,0-144.9,0-217.3c0-1.5-0.4-2.4-1.8-3.2
		c-20.2-11.9-30.9-29.6-31.9-53c0-1,0.2-2.1,0.4-3.2c6.6-24.5,13.2-49,19.8-73.5c0.2-0.6,0.4-1.1,0.6-1.8c0.8,0,1.5,0,2.2,0
		c150.9,0,301.8,0,452.7,0c1.7,0,2.4,0.4,2.9,2.1c6.5,24.6,13.3,49.1,19.7,73.7c0.9,3.5,0.3,7.5-0.3,11.2
		c-3.6,20.6-14.8,35.9-33.4,45.7c-1,0.5-1.6,1.2-1.4,2.4c0.1,0.4,0,0.8,0,1.2c0,71.6,0,143.3,0,214.9c0,0.9,0,1.9,0,3
		c6.3,0,12.5,0,18.8,0c0,74.6,0,149,0,223.6c-6.3,0-12.4,0-18.8,0c0,7,0,13.8,0,20.6c-9.6,0-18.9,0-28.4,0c0-6.8,0-13.6,0-20.5
		c-124.2,0-248.1,0-372.3,0c0,6.7,0,13.5,0,20.4c-9.6,0-19,0-28.6,0c0-6.8,0-13.5,0-20.5c-6,0-11.7,0-17.6,0
		C69.5,512.8,69.5,438.4,69.5,363.9z M302.6,91.5c-2.7,31.9-28.4,56-59.2,57.5c-16.9,0.8-31.9-4.4-44.5-15.7
		c-12.6-11.2-19.4-25.5-20.8-41.4c-5.7,34.8-26.5,54.2-62.5,57.6c0,71.2,0,142.6,0,214.2c124.1,0,248.1,0,372.1,0
		c0-71.6,0-143.1,0-214.5c-31.1-0.8-57.7-25.6-60.5-57.5c-1.7,16.5-8.5,30.5-20.9,41.5c-12.5,11.1-27.2,16.3-43.9,15.7
		c-13.8-0.5-26.2-5.2-36.9-14C311.9,123.8,304.5,109.1,302.6,91.5z"/>
</g>
<path d="M135.5,325.4c15,41.1,21.3,85,42.1,123.5c-11.9,6.6-23.8,13.3-35.3,19.8c3.1,8.6,5.9,16.1,8.7,23.7c-0.5,0.4-1,0.8-1.5,1.2
	c-7.1-2.4-14.4-4.5-21.3-7.3c-1.5-0.6-2.5-3.6-2.8-5.7c-5.6-31.7-7.8-63.8-6.3-95.8c1.6-34.5,3.9-69.2,8.4-103.4
	c5-38.9,12.7-77.5,19.4-116.2c0.4-2.2,1.9-4.8,3.7-6.2c29-22.4,60.9-39.3,96.5-48.9c1.4-0.4,2.9-0.6,5-1c-1.5,8.8,5,12.5,10.4,16.6
	c27.2,20.6,71.4,18,95.7-6c2.4-2.4,3.1-6.4,5.4-11.2c12.6,4.6,26.2,8.9,39.4,14.4c21.2,9,40.8,20.9,59,35.1c2.4,1.9,4.7,5.1,5.2,8
	c12.6,64,23.5,128.2,26.9,193.5c2.1,40.6,1.4,81.1-5.5,121.3c-0.6,3.6-1.8,5.5-5.4,6.6c-6.3,1.7-12.4,4.1-20.8,6.9
	c3.2-9.2,5.9-16.8,9-25.7c-11-6.2-23-13-35.1-19.8c20.7-38.2,27-82.1,42-123.4c-2.3,1.8-4.7,3.6-7,5.5c-2.5,2-5,3.9-7.5,6
	c-32.8,28-70,49.6-105.6,73.5c-8.3,5.6-16.4,11.5-24.7,16.8c-2.3,1.5-5.4,2.4-8.2,2.4c-12.3,0.3-24.6,0.2-37,0
	c-2.4,0-5.1-0.6-7.1-1.9c-29.3-19.3-58.7-38.3-87.5-58.3c-18-12.5-34.9-26.4-52.3-39.6C139.4,328.5,137.4,326.9,135.5,325.4z
	 M307,260.8c-4.6,6.6-9.6,12.1-12.6,18.5c-5.5,11.6-14.2,12.6-25.4,11c-32.8-4.8-59.9-20.4-84.2-41.9c-6.2-5.5-12.1-11.2-18.2-16.8
	c-5.6,5.8-10.9,11.2-17.2,17.7c15.9,13.4,31.9,26.9,48.2,40.6c-9.9,12-12.9,26-3.7,40.7c7.6,12.1,19.4,17.4,33.4,14.9
	c17.7-3.2,26.4-15.4,28.2-33.1c4.7,0.8,9,1.5,13.9,2.4c-1.6,2.5-2.7,4.3-3.9,6c-9.9,14.3-19.9,28.6-29.6,43c-1,1.5-1.7,4.7-0.8,5.9
	c9.6,14.2,22.4,24.4,39.5,28c18.3,3.9,36.7,3.4,55.2,1.6c18-1.8,32.5-9.9,43.9-24.1c4.6-5.7,5.3-9.9,0.3-15.8
	c-5.1-6-9-12.9-13.4-19.4c-5.5-8.2-11.1-16.4-17.1-25.4c5.6-0.8,10.2-1.5,14.9-2.1c2.6,18.2,10.8,28.6,25.2,32.5
	c12.6,3.4,26.7-1.1,34.6-12c11.1-15.2,8.7-30.1-1.9-43.2c16.3-13.8,32.3-27.3,47.8-40.3c-6.3-6.6-11.5-12.1-17-17.8
	c-6.2,5.8-12.1,11.5-18.3,17c-27.8,24.4-58.8,41.7-97,42.3c-2.2,0-5.2-1.4-6.5-3.2C319.2,279.1,313.5,270.4,307,260.8z M336.5,268.5
	c35.3-28.9,72.6-53.6,119-60.5c0-7.7,0-15.2,0-23.9c-53.9,6.2-95.9,34.5-135.9,67.3C325.8,257.8,331.2,263.2,336.5,268.5z
	 M293.7,251.4c-32-27.8-67.2-50.1-108.1-62.4c-8.7-2.6-18-3.3-27.3-4.9c0,9.1,0,16.7,0,23.9c46.7,7,83.8,31.6,118.4,59.9
	C282.2,262.6,287.8,257.2,293.7,251.4z M263.3,180c-5.5,6.2-10.5,11.9-15.5,17.5c41.9,43.4,83.6,41.6,116.6,0.2
	c-5-5.9-9.9-11.7-15-17.7c-12.5,12-23.2,26.1-42.2,25.3C288.7,204.4,276.7,191.5,263.3,180z M441.9,479.4
	c-5.5,21.9-10.8,43.5-16.5,65c-0.5,1.9-2.9,4.3-4.8,4.7C368.3,561,315.4,565.7,262,560c-22.5-2.4-44.8-6.9-67.2-10.3
	c-4.1-0.6-6.1-2.3-7.1-6.5c-5.1-21.2-10.5-42.4-15.8-63.4C228.8,446.4,376.1,443.7,441.9,479.4z M407.1,488.2
	c-63.4-28.6-136.1-28-200.5-0.1c2.6,7.2,5.3,14.4,8.1,22.1c61.8-25.4,122.9-26.3,184,0.1C401.8,502.4,404.5,495.3,407.1,488.2z
	 M94.2,391.7c0.7-15.2,1.3-30.4,2.3-45.6c0.3-4.7-1-7.9-4.7-10.9c-9-7.4-17.6-15.1-26.7-23c5.4-6.3,10.3-12,15.6-18.1
	c6.1,5.2,11.9,10.2,18.6,15.9c1.2-9.5,1.8-17.7,3.4-25.8c1.3-6.7-0.9-10.4-6.7-13.7c-21.9-12.3-45.8-16.3-70.2-18.2
	c-7.2-0.5-14.5-0.7-23.1-1.1c4.1,7.1,7,13.2,10.8,18.8c25.1,37.1,51.1,73.6,71.1,113.9c1.7,3.4,5.5,5.8,8.4,8.7
	C93.2,392.3,93.7,392,94.2,391.7z M548.6,312.3c-7.1,6.1-13,12.3-20,17c-9.8,6.6-12.6,14.7-10.9,26.3c1.7,11.8,1.2,24,1.7,36.4
	c6.6-1.8,9.2-6.6,12-11.4c10.6-18.6,20.8-37.5,32.1-55.6c12.7-20.3,26.7-39.8,39.9-59.8c2.7-4.1,4.7-8.8,7.1-13.2
	c-0.3-0.7-0.6-1.3-1-2c-19.1,2.5-38.4,3.8-57.2,7.9c-12.8,2.8-24.8,9.4-37,14.6c-1.9,0.8-4.5,3.2-4.4,4.7
	c0.8,10.6,2.2,21.2,3.6,32.9c6.8-5.8,12.6-10.8,18.7-15.9C538.4,300.4,543.4,306.2,548.6,312.3z M303.9,42.9
	c-9.1,16.5-18.6,32.8-27,49.6c-4.2,8.4-0.6,14.8,8.1,18.5c13.9,6.1,28,6.2,42.1,0.7c10.1-4,11.2-5.9,10.3-16.5
	c-0.2-1.8-0.8-3.7-1.7-5.4c-6.3-12.2-12.6-24.5-19.2-36.6c-2.5-4.6-5.8-8.8-9.9-15.1C305.2,40.7,304.5,41.8,303.9,42.9z
	 M179.3,391.7c5.4,12.5,10.2,25.3,16.4,37.5c5.1,10.3,5.8,9.9,16.4,6.4c8-2.7,16.1-5.4,25.2-8.5c-19.5-12.8-37.7-24.7-56-36.6
	C180.7,390.9,180,391.3,179.3,391.7z M409.3,438c1.2,0.4,3.5-1,4.5-2.3c10.2-13.4,15.1-29,19.8-46c-19.4,12.7-37.7,24.7-57.1,37.4
	C388.2,431.1,398.7,434.7,409.3,438z M349.1,365.5c-13.9-20.5-27.9-41.1-42.4-62.4c-14.8,21.4-29,41.9-43.2,62.4
	C279.4,380.7,335.5,380.8,349.1,365.5z M212.5,312.8c0.1,5.2,4,9,9.3,9c5.3,0,9.2-4,9.1-9.3c-0.1-5.2-4.1-9.2-9.3-9.2
	C216.6,303.5,212.4,307.8,212.5,312.8z M392.2,303.4c-5.1-0.1-9.2,3.9-9.4,9.1c-0.1,5.3,3.7,9.3,9,9.3c5.4,0.1,9.3-3.7,9.4-8.9
	C401.3,307.9,397.2,303.5,392.2,303.4z"/>
</svg>
