<?xml version="1.0" encoding="utf-8"?>
<!-- Generator: Adobe Illustrator 21.0.0, SVG Export Plug-In . SVG Version: 6.00 Build 0)  -->
<svg version="1.1" id="Layer_1" xmlns="http://www.w3.org/2000/svg" xmlns:xlink="http://www.w3.org/1999/xlink" x="0px" y="0px"
	 viewBox="0 0 612 612" style="enable-background:new 0 0 612 612;" xml:space="preserve">
<style type="text/css">
	.st0{display:none;}
	.st1{display:inline;}
</style>
<g id="REF" class="st0">
</g>
<g class="st0">
	<path class="st1" d="M600.9,303.6C600.8,466.4,469,598.2,306.4,598.2c-163,0-294.9-132-294.6-294.8C12.1,140.5,144,8.8,306.6,9.1
		C469.1,9.3,601,141.3,600.9,303.6z M569.9,365.9c13.2-50.7,11.2-122-22.8-186.9c-22.9-43.7-55.1-78.6-96.9-105.2
		c0,9.9,0,19.2,0,28.6c-17.1-5.2-34-10.3-51.4-15.6c1.5,14.6,2.9,28.7,4.3,43.1c-29.3-4.1-57.9-8-86.5-12.1
		c-1.7-0.2-3.5-1.5-4.8-2.8c-8.1-8.4-16.1-17-24.1-25.5c-7.2-7.6-7.2-7.6-16.4-2.7c-8.2,4.3-16.4,8.7-25,13.2
		c9.3,11.3,18.2,22.3,27.9,34.1c-2.3-0.7-3.4-1-4.4-1.3c-27.4-8.4-54.7-16.8-82.1-25.4c-2.5-0.8-4.3-0.5-6.4,1.2
		c-15.3,12.2-30.8,24.3-46.2,36.5c-1.5,1.2-3,2.3-5.2,3.9c1.6-18.7,3-36.5,4.6-55.3c-34.3,28.5-59.9,62.4-77.5,102.8
		c19.7,6.1,39,12,58.2,18c2.8,0.9,4.9,0.5,7.4-1c25.5-15.4,51-30.7,76.4-46.2c2.7-1.6,4.5-1.5,7,0.2c16.5,10.9,33,21.7,49.6,32.5
		c1.1,0.7,2.2,1.5,3.6,2.5c-28.1,16.1-55.8,32.1-84.1,48.3c10.7,6.6,20.8,13,31.4,19.6c-11.3,9.3-21.9,18.3-32.8,26.9
		c-4.1,3.3-6.9,6.9-7.9,12.1c-0.9,5-2.5,9.8-3.9,15c15.8,0.7,30.9,1.5,46.2,2.2c0.1,0.8,0.3,1.3,0.3,1.9
		c-1.1,15.7-2.1,31.4-3.4,47.1c-0.1,1-1.9,2.5-3,2.7c-21.2,3.7-42.5,7.1-63.7,10.9c-5.5,1-9.9,0-14.6-2.6
		c-10.9-6.1-22-11.8-33.3-17.8c-10.4,14.8-20.7,29.4-30.7,44c-0.7,1-0.2,3.1,0.4,4.5c18,39,43.9,71.8,77.4,98.6
		c0.9,0.7,1.8,1.2,3.6,2.4c-3.9-15.5-7.5-30-11.2-44.9c1.6,0.3,2.5,0.5,3.4,0.8c26,7.2,52,14.4,77.9,21.7c2.7,0.8,4.9,0.5,7.4-0.9
		c18.2-10,36.4-19.8,54.7-29.6c1.3-0.7,2.6-1.3,4.1-2c5.4,16.4,10.9,32.3,16,48.3c1,3.2,2.5,3.9,5.7,3.5c22-2.6,44-5.1,65.9-7.5
		c4.7-0.5,8.6-1.9,12.5-4.8c24-17.9,48.1-35.6,72.1-53.5c2.5-1.9,4.2-2.1,6.8-0.1c15.5,11.3,31.2,22.4,46.8,33.6
		c1.2,0.9,2.5,1.7,3.8,2.6c0.6-0.5,1.1-0.8,1.4-1.2c18.6-20.8,33.7-43.9,45-69.4c0.8-1.7,0.5-4.4-0.2-6.2
		c-7.8-19.9-15.8-39.8-23.8-59.6c-0.6-1.5-1.1-3-1.9-5.3C542.1,351.3,555.9,358.5,569.9,365.9z"/>
	<path class="st1" d="M337.2,237.2c38.1-4.5,75.5-8.8,113.8-13.3c-4.5,14.5-8.8,28.5-13.1,42.7c4.6,2.4,9,4.7,13.4,7
		c12.7,6.6,25.4,13.3,38.2,19.7c2.6,1.3,3.2,2.8,2.8,5.5c-2.5,17.8-4.9,35.6-7.1,53.4c-0.3,2.2,0.1,4.8,0.8,6.9
		c6.1,16.8,12.4,33.6,18.7,50.4c0.5,1.3,0.8,2.6,1.6,5.1c-26.5-20.6-52.1-40.4-78.1-60.7c-4.8,11.9-9.5,23.5-14.4,35.5
		c-10.2-4.8-19.9-9.8-30-14c-5.1-2.1-6.8-4.8-7-10.4c-0.7-22.3-2.1-44.5-3.1-66.7c-0.2-4.6-1.4-8.5-4-12.4
		c-10.2-14.8-20-29.8-30-44.7C338.9,240.1,338.2,238.9,337.2,237.2z"/>
	<path class="st1" d="M226,255c13.6-9.1,26.5-17.8,39.7-26.6c8.7,9.2,17.3,18.2,26.1,27.4c-5.8,5.1-12.2,10.9-18.7,16.5
		c-0.7,0.6-2.4,0.8-3.3,0.4C255.3,266.9,241.1,261.1,226,255z"/>
	<path class="st1" d="M316.8,475.7c-8-22.4-15.6-43.8-23.4-65.9c16.2,4.2,31.9,8.3,48.1,12.5C333.4,440,325.3,457.4,316.8,475.7z"/>
</g>
<path class="st0" d="M293.6,79.8c-49.6,6.8-90.8,26-119.6,67.1c-3.3,4.8-10.2,9.9-2.6,16.9c6.1,5.6,9.2,13.2,21.6,9.4
	c126.1-39.4,252.1,32.5,282.9,160.5c29.7,123.3-58.1,250.9-183.4,266.6c-126,15.7-235.3-66.8-250-192.7
	c-9.7-83.6,21.8-152.2,89.2-203.6c4.5-3.4,9.2-6.5,13.8-9.7c0.4-0.3,0.6-0.7,5.1-5.2c-7.1-5.3-14.6-10.2-21.3-16
	c-8.8-7.6-17-16.3-8.7-28.8c8.4-12.7,19.5-9.8,30.2-3.2C198,67.8,293.7,43.4,364,65c4,1.2,8,4,11.9,3.8c5.6-0.3,11.1-2.6,16.7-4.1
	c-2.9-5.1-4.9-13.5-8.9-14.7c-19.2-5.4-39-9-58.6-12.8c-4.9-0.9-10.1-0.1-18-0.1c12.2-17.3,27.6-24.7,45.1-28
	c24.4-4.6,47.6,0.4,69.1,12.2c16.4,9,32.3,19,48.5,28.3c27.7,16,56.5,24.9,91,11.5c-12.6,35.2-31,62.9-59.6,83.2
	c-59.3,42.3-137.9,24-181.3-13.2C304.9,118.2,296.2,101.4,293.6,79.8z M159.8,294.8c0.2-13-9.5-23.6-22.3-24.1
	c-13.2-0.5-24.4,10.3-24.5,23.6c-0.1,12.3,10.8,23.3,23.3,23.6C148.6,318.1,159.5,307.4,159.8,294.8z"/>
<g class="st0">
	<path class="st1" d="M69.5,363.9c5.8,0,11.5,0,17.4,0c0-0.9,0.1-1.6,0.1-2.3c0-72.4,0-144.9,0-217.3c0-1.5-0.4-2.4-1.8-3.2
		c-20.2-11.9-30.9-29.6-31.9-53c0-1,0.2-2.1,0.4-3.2c6.6-24.5,13.2-49,19.8-73.5c0.2-0.6,0.4-1.1,0.6-1.8c0.8,0,1.5,0,2.2,0
		c150.9,0,301.8,0,452.7,0c1.7,0,2.4,0.4,2.9,2.1c6.5,24.6,13.3,49.1,19.7,73.7c0.9,3.5,0.3,7.5-0.3,11.2
		c-3.6,20.6-14.8,35.9-33.4,45.7c-1,0.5-1.6,1.2-1.4,2.4c0.1,0.4,0,0.8,0,1.2c0,71.6,0,143.3,0,214.9c0,0.9,0,1.9,0,3
		c6.3,0,12.5,0,18.8,0c0,74.6,0,149,0,223.6c-6.3,0-12.4,0-18.8,0c0,7,0,13.8,0,20.6c-9.6,0-18.9,0-28.4,0c0-6.8,0-13.6,0-20.5
		c-124.2,0-248.1,0-372.3,0c0,6.7,0,13.5,0,20.4c-9.6,0-19,0-28.6,0c0-6.8,0-13.5,0-20.5c-6,0-11.7,0-17.6,0
		C69.5,512.8,69.5,438.4,69.5,363.9z M302.6,91.5c-2.7,31.9-28.4,56-59.2,57.5c-16.9,0.8-31.9-4.4-44.5-15.7
		c-12.6-11.2-19.4-25.5-20.8-41.4c-5.7,34.8-26.5,54.2-62.5,57.6c0,71.2,0,142.6,0,214.2c124.1,0,248.1,0,372.1,0
		c0-71.6,0-143.1,0-214.5c-31.1-0.8-57.7-25.6-60.5-57.5c-1.7,16.5-8.5,30.5-20.9,41.5c-12.5,11.1-27.2,16.3-43.9,15.7
		c-13.8-0.5-26.2-5.2-36.9-14C311.9,123.8,304.5,109.1,302.6,91.5z"/>
</g>
<g>
	<path d="M427.1,302c3.8,2.8,12.4,6.4,18.1,3.2c1.8,7.8,1.9,15.6,6.8,23.3c-0.1,0-0.2,0.1-0.3,0.1c-2.4-0.3-6.9-1.4-9.3,0.7
		c-2,2.1-0.8,3.8-0.9,6.9c-1.4-0.2-3.4-0.4-4.8,1c-1.5,1.4-1.7,2.7-2,4.8c-0.9-0.4-1.7-0.9-2.7-1.3c-0.3-9.7-1-17.5-1.9-27.9
		C429.9,309.5,424.9,304.7,427.1,302 M407.5,243.9c5.4,1.9,9.3,7,14.2,10c2.6,1.5,3.3,0.2,6.8,0.5c3.1,1.7,6.1,3.3,9.1,4.9
		c3,1.9,6,3.8,8.9,5.7c-0.9,1.9-1.8,3.8-2.7,5.7c-0.8,3.9-1.6,7.7-2.5,11.6c-6.8-1-15.4-2.3-22.9-1.4c-2.7,0.3-3.1,2.1-4.1,2.9
		c-2.7,2.1-7.1,1.4-9.3,1.8c-4.1,7.9-0.3,17.1,4.2,29.3c-2.5-0.6-5-1.2-7.6-1.7c0.5-11.6-9.7-11.3-10.1-17c-0.1-2,1.6-2.7,1.3-4.5
		c-0.6-4.4-16.2-33-18.9-35.5c-0.1-0.2-0.1-0.3-0.2-0.4c6.2-1.1,14.8,0.9,21.3-3.1C398.7,250.5,403.3,246,407.5,243.9 M306,220.1
		c5.1,2.1,10.2,5.9,15.5,7.4c9.9,2.7,26.4,1.2,32.9,9.7c0.2-0.2,0.3-0.4,0.6-0.6c0.1-0.5,0.3-1.1,0.5-1.6c1.7,0.5,2.8,1.1,3.9,2.7
		c-3.8,1.9-2,4.6-4.5,6.7c-1.9,1.7-4.1,0.6-5.2,3c0,0.3-0.1,0.5-0.1,0.7c-1.8,5.7,4.2,9.5,6.7,13.8c5.4,8.3,10.9,16.7,16.3,25.1
		c4.2,6.9,4.3,14.2,7.8,17.8c-0.3,1.4-0.7,2.9-1,4.4c-5.8-0.9-14.8-1.3-19.2-5.3c4.1-9.1-7.6-36.4-19.3-32.5
		c-10.3-19.5-32.3-24.1-46-39.2c0-0.1-0.1-0.2-0.1-0.3C303,230.4,303.1,225.2,306,220.1 M191.2,249.7c18.6,3.5,50.3,1.2,62.2,16.6
		c-3.9-0.9-7.7-1.7-11.6-2.5c-2.6,0.2-5.3,0.3-7.9,0.6c-1.3-1.1-2.7-2.2-4.1-3.4c-5.9-3.7-14.4-6.4-21.7-7
		C204.5,253.7,188.2,254,191.2,249.7 M5.1,177.2c-2.5,0.9-2.6,1.3-3.5,2.8c2.3,27.4,22.6,49.5,37.5,59.8c0.7,12.1,20.9,30,30,34.8
		c4.5,2.4,9.9,2.6,14.6,4.8c1,2,1.9,4,2.9,6c-1.2,0.4-2.4,0.9-3.6,1.3c-0.8,9.4,22.1,27.6,28.2,30.7c-8.5,25.8-5,62.2-7.5,92.6
		c-7.3,0.1-24.7,10.5-24,16.2c2.1,0.9,1.4,1.9,2.6,4.2c1.5-0.1,3-0.3,4.6-0.5c0.3,0.7,0.5,1.5,0.9,2.3c0.6-0.7,1.3-1.2,1.9-1.8
		c1,0.8,2,1.5,3,2.2c0.3-0.7,0.7-1.4,1.1-2.1c1.8-2,3.6-4,5.5-6.1c1.2-0.2,2.3-0.5,3.4-0.8c0.2-1,0.3-1.8,0.5-2.7
		c0.7,0,1.4,0,2.2-0.1c1.5-1.4,1.4-3.5,4.1-5.1c0.3,1.4,0.7,2.7,1.1,4c0.4-0.6,0.8-1.2,1.1-1.8c0.1-1.1,0.2-2.3,0.3-3.4
		c0.4,0.1,0.8,0.2,1.2,0.3c0.8,1,1.6,1.9,2.5,2.8c0.5-4.1,1-8.2,1.5-12.3c0.5,0.2,0.9,0.4,1.4,0.6c-3-8.3,0.2-12.9,0.6-18.9
		c-0.2-5.3-0.4-10.7-0.6-16c0.8-2.3,1.5-4.7,2.3-7c0.8-7.6-2.7-16.4-1-23.5c2.9-1.9,7.5-4.4,10.7-6c3.8,2.5,14.6,4.6,16.6,6.2
		c2.7,2.2,3.6,6,6.1,8.1c7.4,6,17.6,9.4,27.3,10.5c2.2,4.2,4.9,6.5,7.4,9.5c-3.2-0.4-11.1-2.4-14.6,1.2c-1.5,1.7-2.9,3.5-4.4,5.2
		c-1.5,1.1-3.7-0.6-5.9,1c-10.8,7.6-17,21.5-22.8,32c-2.6,4.6-7.6,13-7.3,18.7c0.2,3.3,2.8,3.4,2.9,5.2c-4.4,4-2.1,10.8-2.1,16.9
		c0,7.5,1.8,14,3.1,23.2c1.5,10.6,1.2,23.1,1.9,33.1c-5.8,4.4-15.1,6.8-18,12.6c-0.3,1.9-0.5,3.9-0.8,5.8c-1,2.6-3.2,3.3-3.6,6.5
		c0.3,0.3,0.7,0.7,1.1,1.1c0-2.4,0.8-4.5,3.5-5.7c0.1,0.2,0.1,0.2,0.1,0.3c-0.2,2.1-0.8,6.2,1.7,7.9c-1.3-3-1.3-4.8,0.2-6.4
		c1.4-0.5,2.9-1,4.3-1.5c1,1,3.5,2.9,5.1,1.9c0.8-1.7,1.5-3.5,2.2-5.2c1.9-2.6,9.3-9.4,13.3-11.3c0.8,1,0.6,0.7,1,1.8
		c0.3-0.3,0.5-0.7,0.7-0.9c0.6-1.8,1.1-0.9,2.1-1.4c0.3-9.3,1-21.7,0.4-31c-0.4-4.1-1.5-7-1.2-10.6c0.1-2.2,2.1-3.9,2.4-5.6
		c-1.6-7.2-3.2-14.5-4.8-21.8c8.7-6.5,21.9-17.8,25-26.8c2.1-6.1,0.6-18.4,6.3-22.5c4.4,0.2,8.7,0.3,13.1,0.5
		c3.2,2.8,6.4,5.6,9.6,8.4c7.8,5.2,28.9,13.3,38.7,13.5c3.2-0.8,6.5-1.6,9.8-2.4c0.2,0.1,0.3,0.1,0.4,0.2c0.3,1.5,0.6,3,0.9,4.5
		c-4.5,1.7-9,4.3-9.7,7.8c0.2,1.4,0.5,2.8,0.7,4.2c-7.9,4.7-11.7,43.6,0.1,53.2c0.9,0,1.8,0.1,2.6,0.2c2.3,10.2,12.6,14.1,12.4,21.3
		c1-1,0.9-1.1,2.1-1.5c2.1,2,4.1,3.9,6.1,5.9c1.9-0.9,2-0.7,3.6-0.2c1.9,1.4,3.7,2.9,5.5,4.3c0.9,2.3,1.9,4.5,2.8,6.7
		c-0.1-0.2-0.2-0.5-0.3-0.7c0.2-0.8,0.4-1.6,0.6-2.4c0.2,0.1,0.5,0.1,0.7,0.1c4.1,3.5,8.2,7.1,12.2,10.7c3.9,5.7-1.1,20,5.7,19.2
		c0.4,2.6,0.9,5.1,1.3,7.6c0.4,0.1,0.8,0.3,1.2,0.4c-1-3.2-0.8-5.7-0.2-8c3.9-0.6,5.6,3.8,8.8,5c-1.7-2.2-3.4-3-4.7-6.1
		c0.7,0,1.4,0,2.2,0c-2.9-8-4.1-14.6-4.1-21c0.2,0,0.5,0.1,0.7,0.1c1,1,2,2.1,3,3.1c0.1,0,0.2-0.1,0.3-0.1
		c-4.5-12.5-12-16-19.3-22.2c-4.4-3.7-7.2-10-11.9-13.8c-4.2-3.5-9.1-5.5-13.3-9.6c-1-7.9,4.7-14.6,4.6-22.2
		c-0.2-7.7-6-12.9-7.2-20.2c7.4-6.1,15.8-1.3,22-1.1c8.4-1,16.7-2,25-3c1,5.7-0.6,9.7-0.5,15.2c1.4,4.4,2.6,8.8,4,13.3
		c5.2,24.4,18.4,47.8,40.1,44.5c-1.7,20.2,21.8,25.2,34,28.4c27.2,7,56,14.9,87.7,11.8c3.6-0.4,6.3-3.4,9-3.6
		c1.1,0.4,2.2,0.7,3.3,1.1c5.2-1.3,10.5-2.8,15.8-4.1c19.5-3.6,34.8-15.9,43.5-25.3c2.6-2.9,10.4-11.4,3.6-14.9
		c-6.3,7.6-16.5,14-26.3,11.9c-3.4,2.9-11,9.5-17,9c-0.1-0.7-0.3-1.4-0.3-2.1c-4.8,2.7-8.4-3.2-12.3-4.5c-4.6,2.4-4,5.9-6.4,8.9
		c-4,5-12.6-1.7-15.2-4.5c-4,2.9-6.4,0.2-9-1.6c0.8-2.6,2.4-4.2,4.8-6.1c3.4,0.5,11,6.8,14,3.1c3.5-3.6,3.2-8.5,10.3-9.2
		c10.7,10.7,15.5,2.3,26-4.4c3.9-2.5,8.2-1.1,11.3-1.1c5.3-4.3,10.4-8.6,15.6-12.9c0.6,0.6,1.2,1.1,1.7,1.6c0.2-0.3,0.3-0.6,0.5-0.9
		c4.6-5-3.6-9.2-7.1-9.6c-8.6-0.9-40.1,4.2-44.7,0.4c-0.4-0.7-0.7-1.4-1.1-2.1c-0.9,0.7-1.7,1.4-2.6,2c-0.7-0.5-1.3-1-2-1.5
		c-0.5,0.4-1,0.9-1.5,1.2c-0.2-0.9-0.4-1.8-0.6-2.7c-2.2,0.7-2.3,1-3.3-1.1c0.1-1,0-1.9,0.1-2.9c-0.7,0.1-1.4,0.3-2.1,0.4
		c-0.1-1.1-0.1-2.2-0.1-3.3c-0.8,0-1.4,0-2.2,0.1c-0.2-0.4-0.3-0.9-0.5-1.4c0.6-1.4,1.2-2.8,1.8-4.3c-1.2,0-2.4,0.1-3.6,0.2
		c0.4-0.9,0.8-1.8,1.2-2.7c-1-0.3-1.9-0.6-2.8-0.8c0.1-0.7,0.3-1.4,0.4-2c-1-0.3-1.9-0.6-2.9-0.8c0.1-0.4,0.2-0.8,0.2-1.3
		c0.6-0.4,1.2-0.9,1.8-1.3c-1.9-0.6-3,0.3-4.4-1.8c0.3-1.2,0.6-2.4,0.9-3.6c0-0.1-0.1-0.2-0.1-0.3c-2.3,0.7-3.1,0.6-4.5-0.3
		c0.2-0.9,0.3-1.8,0.5-2.7c-1.1,0.1-2.1,0.3-3.2,0.4c0-2,1.1-2.2,2-3.6c-1-0.2-2.1-0.3-3.1-0.4c0.2-1.1,0.3-2,0.4-3.1
		c-2.2,0.3-3.9,0.9-5.2-1.1c0.6-1,1.3-1.9,1.9-2.9c-2.5,0.3-5.2,0.1-6.8-1.6c-1-1.5-0.4-3.5-0.1-5.2c-3.3,0.7-4.9,1-7-1.2
		c0.2-1.2,0.4-2.3,0.6-3.5c-4,1.6-6.1-0.1-5.8-3.8c0-0.1,0-0.2-0.1-0.3c-2.8,1.1-4.2,1.2-6,0.7c-0.5-1.5-0.4-1.9-0.3-2.9
		c-2.2,0.4-4.6-0.7-6.2-1.8c0.1-0.8,0.2-1.5,0.3-2.3c-4.8,1.7-6.9-0.8-9.6-3.2c9.1-3.1,13.8-7.4,18.5-12.4c-1-1.6-1.9-3.2-2.9-4.8
		c14.8-0.2,9.5-13.1,8.9-22.7c2.9-1,3.9-0.2,6.4-0.4c3.8,8.1,16,8,21.4,4.5c0.7-0.5,6.5-9.2,7.6-10.8c0.1,0,0.2-0.1,0.3-0.1
		c1.1,2.4,2.5,3.5,4,4.8c1.7-1.2,2.9-0.9,4.5-0.6c-0.3-1.7-0.3-1.6,0.5-2.7c1.2,0.1,1.2,0,2.1,0.7c1.4,1.2,2.2,4,2.5,6.1
		c0.1,0,0.2,0,0.3-0.1c-0.1-0.2-0.1-0.4-0.2-0.6c-0.1-2.2-0.1-4.3-0.1-6.5c0.2,0.2,0.4,0.3,0.6,0.5c1.4,1.4,2.7,2.8,4,4.1
		c0.1,0,0.3-0.1,0.4-0.1c0.1-0.1,0.1-0.2,0.2-0.4c-1.8-8.7-8.6-11.5-12.1-16.3c-0.7-2.2-1.4-4.4-2-6.6c-2.4-4-5.5-7.4-8.4-10.3
		c2.5-0.3,8-3.2,7.2-5.5c0-0.8,0.2-1.5,0.3-2.3c1-0.8,1.9-1.5,2.9-2.2c-1.3-1-1.9-1.5-2.2-3.2c1.1-1.2,2.1-3.2,2.2-5.2
		c0.2,0.1,0.4,0.3,0.5,0.5c2.8,2.8,6.3,4.7,8.4,6.9c0.7,1.9,1.4,3.7,2,5.5c2.7,3,8.6,5.5,11.1,8.6c1.5,1.7,6.2,8.5,6.8,8.7
		c7.7,2,2.9,4,6.9,7.1c2.1-0.5,2.9-1,4.9-0.7c0.7,1.1,1.3,2.3,2,3.4c0.9-0.2,1.8-0.4,2.7-0.6c2.6,0.8,2.4,2.6,4.4,5
		c1.7-1.3,3.5-1.4,5.1-1c1.5,1.7,3.7,1.5,5,2.6c1.4,1.3,1,2.7,2.4,3.5c1-0.8,2.5-1.5,3.7-0.9c1,1.6,0.7,4.7,3,2.2
		c0.4,0,0.7,0,1.1,0.1c1.1,0.9,2.2,1.9,3.3,2.8c0.5-0.4,1.1-0.9,1.7-1.3c3.8,10.1,12.1,9.7,14.5,24.3c1,6.2,1.9,34,3.7,36.1
		c0.9,0.5,1.9,1.1,2.7,1.6c6.2-2.2,12.3-10,12.6-14.3c-0.7-2.3-1.4-4.4-2-6.6c1.8-3.8,3.7-7.4,5.6-11.2c6.8,18.6,2.7,34.3-4.5,46.4
		c2.1,13.6,15.4-6.2,16.3-8.8c4.6-13.3,6.7-42.9-1.1-58c0.8-1,1.4-2,2.2-3c0.6-3.8-3.2-5.3-3.9-8.9c-0.3-3.3-0.6-6.6-0.9-9.9
		c-0.9-1.9-1.8-3.7-2.7-5.7c-6.3-23.9-26.8-53.1-47.5-62.8c-0.9,0.1-1.9,0.2-2.8,0.3c-1.9-1.3-3.9-2.6-5.7-3.8
		c-1.6,0-3.2,0.1-4.7,0.2c-4.3-1.9,1.5-11.2-11.9-11.6c-5.9-16.1-36.8-20.1-51-20.5c-7.8-0.1-16.4,3.1-23.2,4.2
		c-1.8-2.4-3.4-1.9-5.2-3.3c-10.2-7.9-20.2-13.9-32-18.4c-4.8-1.8-8.9-6.2-15.4-3c-1.2-1.5-2.3-2.9-3.4-4.3
		c-9.9,1.9-18.6,1.5-30.3,5.6c-1.1-1-2.1-2-3.3-2.9c0-0.2-0.1-0.2-0.1-0.3c1.5,0,3,0,4.4,0c-0.2-4.1,3.7-3.5,6.7-5
		c0-0.1-0.1-0.2-0.1-0.3c-0.4-0.7-1-1.4-1.4-2c0.9-0.6,1.8-1.2,2.7-1.7c-1.3-1.2-2.5-4.7-1.3-6.9c1.5-0.5,2.2-0.1,3.8,0.5
		c-2.1-3.1-5-1.9-7.9-0.5c-0.4-0.6-0.7-1.3-1-1.8c-0.4-0.2-0.7-0.6-1-0.8c-6.8,2.3-9.4,7.8-10.5,12.9c-0.4,0.2-0.9,0.3-1.3,0.5
		c-7-5.2-17-5.3-25.3-8c-20.4-6.9-47.5-26.1-68,3.2c-2.3,3.3-1.4,9.8-2.5,13.7c1.8,3.1,6.5,7.3,9.5,8c1.8,0.2,3.6,0.4,5.4,0.7
		c14,9,30.8,13,43.5,25c3.3,3.1,15.4,18.2,8.9,21.9c-5.3-6.4-14.8-6.2-21-10.5c-10.5-7.4-19.4-15.1-30.4-21.2
		c-0.9,0.9-1.2,1.5-2.4,1.6c-5.5-1.9-10.9-3.7-16.3-5.6c-14.4-4.5-28.5-9.1-42.3-14.7c-8.9-3.6-18.9-10.6-29.6-9.7
		c-2.1-6.3-5.5-8.7-9.3-11.4c0-0.2-0.1-0.3-0.1-0.4c4-1.5,8-3.3,10.5-1.6c1-1.4,1.9-2.4,4.2-2.5c-0.2-2,0.2-2,1.1-3.4
		c-2.3-1.6-3-2.7-2.3-5.4c-2.3-0.3-4.6-0.6-6.9-0.8c-2.3-1.3-8.7-10.5-8.1-11.5c-1-1.6-1.6-1.8-3-2.3c-1,1.4-1.1,2.7-1.3,4.5
		c-0.9-0.6-1.7-1.1-2.4-1.7c0-0.3,0-0.6,0.1-0.8c-1.3,0.9-1.4,1.1-1.7,2.4c-0.1,1.8,1.2,3,2.2,4c-1.2,0.3-2.3,0.6-3.4,0.9
		c3.4,2.3,6.8,4.6,10.2,7c-0.1,0-0.2,0.1-0.3,0.1c-7.3,0.4-26.6,3.7-27.7,10.1c-2.1,13.8,21.1,23.5,27.3,28.1
		c-4.1-0.2-8.2-0.4-12.4-0.6c-2.5,0.8-5,1.7-7.5,2.6c-2.2-0.7-4.4-1.4-6.6-2.1c-4.7-0.4-9.4-0.8-14.1-1.2
		c-5.4-1.4-11.3-4.4-16.6-5.5c-4-0.8-7.1,3.5-11.5,2.6c-2-2.5-4.4-2.2-6.3-4.1c-1.1-1.9-2.3-3.8-3.5-5.7c-4.4-4.3-9.2-9.5-13.8-13.1
		c-1.1-1.5-2.3-2.9-3.4-4.3c-2.6-1.5-6.3-1.8-8.8-3.8c-1,1.4-1.2,2-3.3,3c-2.5-0.4-4.9-0.7-7.4-1.1c-3.6-7.8-3.2-16.2-4.6-24.4
		c-0.8-1.2-1.6-2.4-2.4-3.5c-0.1-1.7-0.3-3.4-0.3-5.1c-2.1-3.8-4-6.9-5.7-11.9c0.1-0.2,0.1-0.5,0.1-0.7c-1.2-1.2-2.1-0.5-3.2-2.9
		c-5.3,2.8-8.2,0.3-11.3-3c-1.5,0.8-2.9,1.5-4.4,2.3c0-0.3,0-0.7,0-1.1c0.4-2.3,0.8-4.7,1.2-7c3.2-1.4,6.6-2.8,9.9-4.3
		c-0.9-0.3-0.2,0.1-1-0.7c5.7-4.2,11.6-16.6,13.2-23c0.5-2.4-0.8-3.1,1.7-5.4c-0.6-0.8-1.3-1.5-1.9-2.3c0.7-1.8,1.4-3.6,2.1-5.5
		c4.8,1.1,19.1-4.5,20.3-3.9c1.2-1.5,1.9-3,3.9-4.4c1.4-0.5,2.8-1,4.2-1.5c3-2.7,5.5-12.2,12.5-11.4c0.8,0.2,0.7,0.2,1.3,0.6
		c-0.8,4.7-2.1,9.8-2.9,14.7c2.1,3.3,2.5,12.2,4,14.4c0.3,0.2,1.9,0.6,2.3,1c1.1,1.5,0.4,4.9,1.3,5.8c3.1,3.5,6.4,8.8,9.1,12.1
		c0.4,1.3,0.7,2.7,1.1,4.1c0.3,0.2,1.5-0.2,2,0.3c0.3,1,0.4,2,0.7,3.1c1.2,0.9,2.6,0.7,4.1,2.2c-19.3,2.5-34-25.1-52.5-2.7
		c0.2,0.1,0.4,0.3,0.5,0.5c9.9-10.2,19.2-6.5,26.8,1.9c1.8,2,5.3,5.7,5.6,8.6c0.8,5.9-2.8,16.4,1,22.4c4.7,7.5,13,12.2,16.7,18
		c5.1-1.2,12.5,1.5,17.7,1.1c7.1-0.5,19.9-17.4,24.8-20.2c-0.8-1.6-1.6-3.1-2.4-4.7c3.4-3.9,0-11.5,3.1-15.1
		c2.7-0.9,5.6-1.7,8.2-2.5c-0.2,0-0.5-0.1-0.8-0.1c-0.5-0.3-1-0.7-1.4-1c0-0.1-0.1-0.2-0.1-0.3c0.8-0.5,1.6-1.1,2.4-1.6
		c-1.1-0.5-2.4-1.1-3.6-1.7c-2.4-1.9-4.7-3.6-7.1-5.5c-1.6-1.9-1.3-4.9-2.2-6.2c-1.6-2.4-3.4-4.8-5.4-8c0.7-0.9,1.4-1.7,2-2.6
		c-1.9-1.2-3.1-1.3-4.4-4c0-0.2,0-0.5,0.1-0.7c0.6-0.3,1.1-0.6,1.5-0.9c-3.1-2.9-3.9-5.8-5.9-7.5c0.6-0.7,1.2-1.4,1.8-2.1
		c-3.2-2.6-7.5-7.8-6.9-12.2c-2-2.1-4-4.2-6-6.3c-0.2-1.4-0.3-2.9-0.5-4.3c-1.5-2.5-11.7-14.6-13.9-16.3c-1.7-0.9-3.3-1.8-5-2.7
		c-1.1-2.1-2.3-4.1-3.3-6.2c-2.2-2.5-13.6-8.8-17-9.4c-9.1-1.8-38.4,9.7-47.2,14.9c-9.8,5.8-16.3,9.7-23.4,16c-1.4,2-2.7,4-4.1,5.9
		c-2.1,1.8-5,1.6-6.5,3.4C0.5,111.6-4.5,155.2,5.1,177.2"/>
</g>
</svg>
