<?xml version="1.0" encoding="utf-8"?>
<!-- Generator: Adobe Illustrator 17.1.0, SVG Export Plug-In . SVG Version: 6.00 Build 0)  -->
<!DOCTYPE svg PUBLIC "-//W3C//DTD SVG 1.1//EN" "http://www.w3.org/Graphics/SVG/1.1/DTD/svg11.dtd">
<svg version="1.1" id="Layer_1" xmlns="http://www.w3.org/2000/svg" xmlns:xlink="http://www.w3.org/1999/xlink" x="0px" y="0px"
	 viewBox="0 0 612 612" enable-background="new 0 0 612 612" xml:space="preserve">
<g>
	<path d="M581.9,82.4c0,11.2-0.1,21.9,0,32.6c0.2,15.5,0.5,31.1,1,46.6c0.1,2.6-0.5,3.6-3.2,3.7c-45.1,2.9-90.2,5.8-135.2,8.8
		c-16.8,1.1-33.6,2.3-50.4,3.9c57.6,1.5,115.2,3,173.1,4.5c3.8,42.8,7.6,85.3,11.5,128.3c-58.3,3.9-116.3,7.7-174.2,11.5
		c0,0.2,0,0.3,0,0.5c58.5,1.5,116.9,3.1,175.7,4.6c2.4,27,4.8,53.7,7.2,80.9c-185.1,4-369.5,8-554.7,12c3.3-32.7,6.6-65,9.9-97.6
		c-4.1-1-7.9-2-12.2-3c1.2-42.4,2.5-84.8,3.7-127.5c61.8-4.1,123.4-8.1,184.9-12.2c0-0.2,0-0.4,0-0.6c-64.3-1.7-128.5-3.4-193.2-5.1
		c-0.6-26.8-1.2-53-1.8-80.1C209.8,90.5,395.3,86.5,581.9,82.4z"/>
	<path d="M260.2,439.8c26-0.5,51.3-1.1,77.3-1.6c1.5,54.8,3.1,109.2,4.6,164c-25.7,0-51,0-77.3,0
		C263.3,548.3,261.8,494.3,260.2,439.8z"/>
	<path d="M326,63.8c-24.9,0.5-50.4,1-77,1.6c0-8.6,0-16.7,0-24.8c0-3.3,0-6.7-0.3-10c-0.6-6.3,2.3-11.1,7.6-13.5
		c7-3.1,14.2-5.9,21.7-7.4c11.8-2.5,23.7-1.9,35.3,2c2.7,0.9,5.7,1.9,7.8,3.6c2.1,1.7,4.7,4.4,4.7,6.8C326.2,35.8,326,49.4,326,63.8
		z"/>
</g>
</svg>
