<?xml version="1.0" encoding="utf-8"?>
<!-- Generator: Adobe Illustrator 17.1.0, SVG Export Plug-In . SVG Version: 6.00 Build 0)  -->
<!DOCTYPE svg PUBLIC "-//W3C//DTD SVG 1.1//EN" "http://www.w3.org/Graphics/SVG/1.1/DTD/svg11.dtd">
<svg version="1.1" id="Layer_1" xmlns="http://www.w3.org/2000/svg" xmlns:xlink="http://www.w3.org/1999/xlink" x="0px" y="0px"
	 viewBox="77 0 612 612" enable-background="new 77 0 612 612" xml:space="preserve">
<g id="REF" display="none">
</g>
<path display="none" d="M577.3,283.1c4.2,12.9,8.9,25.2,12.5,38c7.1,25.4,10,51.4,11,77.6c0.1,2.9-1.3,3.8-3.4,4.9
	c-22.1,11.2-42.9,24.3-61,41.4c-22.1,20.8-37.9,45.3-43.5,75.6c-3.2,16.9-2.8,33.8,1,50.6c0.8,3.7,0.1,5.7-3.2,7.3
	c-8.6,4.4-17.2,9.1-26.6,14.2c-2.4-20.7-4.7-40.2-7-60.2c-8,0.9-15.5,1.8-23.4,2.8c2.4,21.5,4.9,42.6,7.5,64.6
	c-12.3,1.9-24.3,3.8-36.9,5.8c0-23.9,0-46.7,0-69.6c-8,0-15.5,0-23.5,0c0,23,0,45.9,0,69.8c-12.8-1.8-24.9-3.4-37.2-5.2
	c2.6-22.3,5-43.5,7.6-65.4c-7.7-0.9-15.2-1.8-23.4-2.8c-2.4,20.2-4.7,40.2-7.1,61c-5.4-2.4-10.7-4.6-15.8-7c-4.1-2-8-4.6-12.2-6.6
	c-2.9-1.5-3.3-3.4-2.8-6.4c5-26.4,2.8-52.2-7.6-77.1c-11.4-27.5-30.5-48.7-54-66.4c-13.7-10.3-28.5-18.9-44-26.2
	c-1.9-0.9-3.5-1.6-3.4-4.4c1.1-38.6,8.1-76,23.3-111.7c0.3-0.8,0.7-1.5,1.1-2.3c0.2-0.2,0.4-0.4,0.7-0.7c12,3.4,24,7,36.2,10.2
	c42.5,11.2,85.8,18.1,129.8,20.1c1.8,0.1,4,1.3,5,2.8c5.6,7.3,10.9,14.9,16.6,22.9c5.5-7.7,10.8-14.8,15.8-22.2
	c1.6-2.3,3.4-3.3,6.2-3.4c54.8-1.7,107.9-12,159.4-30.9C575.2,283.7,575.6,283.7,577.3,283.1z M418.4,389.2
	c13.3,9.4,27.4,16.1,42.5,20.9c20,6.2,40.2,9.3,60.9,4.7c17.2-3.7,30.5-12.6,35.7-30.6c3.8-13.3,1.8-26.4-2-39.3
	c-0.3-1-2.4-2.1-3.7-2.1c-8.6,0.2-17.4,0.4-26,1.3C485.7,348.4,450.9,365.1,418.4,389.2z M367.6,389.2
	c-14.3-10.8-28.9-19.7-44.5-27.1c-27.7-13.1-56.8-19.7-87.4-19.6c-3.5,0-5.4,0.9-6,4.6c-0.8,5.4-2.1,10.7-2.8,16.1
	c-3.1,25.2,9.8,44.3,34.3,50.8c19.4,5.1,38.6,3,57.7-2.1C336.2,407.2,352.4,399.9,367.6,389.2z M423.1,487.8
	c-8-28.5-17.6-55.8-32-82.1c-14.1,26.5-25.8,53-32,82.1C380.6,487.8,401.5,487.8,423.1,487.8z M457.4,2.8
	c-22.7,43.9-45.1,87.1-67.9,131c-22.8-44-45.1-87.1-67.9-131c-15,40.5-29.8,80.2-44.8,120.6c-30.4-40.3-60.4-79.9-90.3-119.3
	c-0.3,0.1-0.5,0.2-0.8,0.3c0,65.1,0,130.3,0,195.5c4.1,1.4,8.5,2.5,12.6,4.1c43.7,16.9,88.9,27,135.5,31.4c3.6,0.3,5.7-0.5,8-3.6
	c16.1-22.6,32.3-45.1,48.5-67.7c0.9-1.2,1.8-2.4,3-4c1.1,1.5,2.1,2.7,2.9,3.9c16.1,22.3,32.1,44.6,48,67c1.5,2.1,2.8,3,5.4,2.7
	c28.2-3.5,56-8.5,83.3-15.9c20.3-5.6,40.5-11.9,61.1-18.1c0.6-64.9,1.2-130.1,1.9-195.3c-0.4-0.1-0.7-0.1-1.1-0.2
	c-31.4,39.6-62.7,79-94.6,119.3C486,82.9,471.9,43.2,457.4,2.8z M430.5,290.7c9.5-1,18.9-1.8,28.4-3c41.8-5,82.2-15.5,121.3-31.2
	c8.3-3.4,15.9-7.9,21.3-15.1c2.4-3.2,4.2-7,5.3-10.8c1.3-4.7-0.7-7.2-5.6-7c-4.5,0.2-9.3,1-13.5,2.4c-42.8,14.5-86.6,25-131.6,30.6
	c-1.3,0.2-2.9,0.8-3.6,1.7c-7.6,10.3-15.1,20.8-22.6,31.3C430.1,289.9,430.2,290.3,430.5,290.7z M356.7,289.4
	c-6.9-9.6-13.6-19.1-20.7-28.6c-0.8-1.1-2.8-1.7-4.3-1.9c-23.6-3.8-47.4-6.9-70.9-11.5c-24.9-4.8-48.9-13.2-72.8-22
	c-4.5-1.7-9.9-2-14.7-1.6c-4.6,0.4-7.3,4.7-5.4,9c2.1,4.6,4.7,9.6,8.7,12.4c7,4.9,14.9,9,22.9,11.9c37.6,13.3,76.2,22.8,115.7,28.5
	c13.5,2,27.2,3.3,40.9,4.8C356.5,290.2,356.6,289.8,356.7,289.4z M394.8,298.9c11.1-15.5,22.2-31,33.4-46.4c1.7-2.3,0.8-3.7-0.5-5.4
	c-10.7-14.8-21.4-29.8-32.1-44.7c-0.7-0.9-1.5-1.8-2.4-3c-12.3,17.1-24.3,33.9-36.4,50.6c12.2,17.1,24.3,33.7,36.4,50.6
	C394,300,394.4,299.5,394.8,298.9z"/>
<g display="none">
	<path display="inline" d="M237.8,395.7l128.6-181.5c0,0,99.3-12.2,104.2-13c0,0,0.8,90.3,0.8,102.5L307,453.5L237.8,395.7z"/>
	<path display="inline" d="M233,327.4l114.8-162.7l172.5-17.1l4.1,175l-162,143.9l36.6,35.8l-21.2,21.2c0,0,32.5,27.7,62.7,27.7
		S637.6,444,652,289.9c13-139.2,4.3-178.2,4.3-178.2s-87.1,0-115.1-99.3H338.7c0,0-46,99.3-118.8,99.3c0,0-14.6,161.1,13,212.4"/>
	<polygon display="inline" points="197.9,450.3 154.8,404.7 180.9,380.3 330.6,509.6 304.6,535.7 262.3,501.5 193.9,567.4 
		199.6,576.4 176.8,603.2 105.2,538.9 128.8,517.8 138.6,522.6 	"/>
</g>
<path display="none" d="M292.4,426c7-2.1,13.4-3.6,19.4-6c6-2.4,11.9-5.4,17.1-9.2c6.9-4.9,7.8-12.2,3.3-19.4
	c-3.6-5.7-8.2-10.4-14.4-13.4c-18.3-8.8-34.5-20.5-49.3-34.3c-1-0.9-2-1.8-3.7-3.4c-8,7-16.1,13.9-24.6,21.3
	c4.7,4.2,8.9,8.1,13.2,11.6c2.3,1.8,2.4,3.2,1,5.7c-6.1,11.2-11.9,22.5-18.2,34.3c-44.5-43.1-79.1-92.6-103.7-148.9
	c-29.8-68.1-42-139.3-36.4-214.1c11.7,2.8,22.9,5.4,34,8c0,10.3,0,20.3,0,30.4c10.9,0,21.5,0,32.7,0c-0.3-6.7-0.7-13.5-0.9-20.1
	c-0.2-4.5-0.4-8.6-3.5-12.5c-2.8-3.3-2-8.3,2-11.3c5.4-4.2,11.2-8.3,17.4-10.9C194,27,211.2,24,228.4,21.4c45.1-7,90.4-9.3,135.9-10
	c39.9-0.6,79.6,0.4,119.3,3.6c32.5,2.7,64.9,6,96.3,15.5c7,2.1,13.5,5.4,20.1,8.6c2.8,1.3,5.1,3.6,7.3,5.8c4,4.2,3.8,8.5,0.5,13.2
	c-1.2,1.8-2.1,4.3-2.2,6.5c-0.3,7.9-0.1,15.7-0.1,23.9c9.8,0,20.3,0,31.3,0c0-9.6,0-19.1,0-29c11.2-3.3,22.6-6.6,34.6-10
	c3.7,68.7-5.7,134.9-29.8,198.9c-23.9,63.6-60.3,118.8-110.7,165.2c-7-12.8-13.8-25.1-20.4-37.3c5.4-5.5,10.5-10.8,16.1-16.5
	c-7.8-6.7-15.4-13.2-23.3-19.8c-2.6,2.4-4.9,4.4-7.2,6.5c-13.9,12.7-29.2,23.4-46.2,31.7c-6.5,3.1-11.2,8-14.8,14.1
	c-3.9,6.6-3.4,13.4,2.8,17.8c6,4.4,13,7.7,19.9,10.7c5.4,2.4,11.3,3.5,16.9,5.1c-6.1,2-12.3,3.5-18.1,6c-24.2,10.1-32,30.2-21,54.1
	c7.7,17,20.1,30.4,34.7,41.4c9.6,7.3,19.8,13.8,30.4,19.5c5.4,2.9,12.2,2.9,18.4,4.5c11.2,2.8,22.6,5.6,33.7,9c4,1.2,7.7,4,11,6.7
	c5,4.3,5.2,9.3-0.3,12.9c-5.9,3.9-12.4,7.4-19.1,9.6c-19.5,6.2-39.8,8.6-60.1,10.6c-38.4,3.9-77,5-115.6,4.5
	c-40.5-0.6-80.9-2.4-120.9-9.4c-10-1.8-19.9-4.4-29.5-7.4c-5.2-1.7-10.1-4.7-14.5-8c-5.1-3.9-5.3-8.8-0.2-12.5
	c5.1-3.8,10.9-7.4,17.1-9.1c12.4-3.5,25.1-5.7,37.7-8.4c2.1-0.5,4.4-0.5,6.3-1.5c23.3-11.7,43.8-26.8,59.2-48
	c5.7-7.7,9.9-16.2,12.1-25.6c3.9-17.5-3.6-32.3-20.7-40.8c-3.5-1.8-7.2-3.2-10.9-4.5C300.7,428,296.8,427.2,292.4,426z M389.6,77
	c0-0.3,0-0.7,0.1-1c44-0.2,87.9-2.1,131.6-8.3c16-2.3,32-4.9,47.1-10.7c2.8-1.1,7.2-1.6,6.6-5.4c-0.3-2-4-4-6.6-5
	c-16.3-6.4-33.5-9-50.7-11.3c-41.4-5.7-83-7.6-124.7-7.8c-20.1-0.1-40.2,0.5-60.3,1.1c-34.5,1.1-68.9,3.7-102.8,10
	c-11.6,2.1-22.7,6-34,9.5c-1.5,0.5-3.2,2.4-3.4,3.9c-0.2,1,1.9,2.9,3.4,3.5c4.5,1.9,9.1,3.7,13.8,5c26.5,7.1,53.6,10.3,80.8,12.1
	C323.4,74.5,356.4,75.5,389.6,77z M131.7,123.3c7.6,78.2,32.1,149.1,81.9,210.1c8.1-8.6,15.8-16.8,23.6-25.1
	c-39.6-54.6-60.6-117.7-70.6-185.1C154.9,123.3,143.5,123.3,131.7,123.3z M600.8,123.2c-10,67.5-31.1,130.4-71.1,185.7
	c7.7,7.2,15.1,14.2,22.8,21.6c48-61,75-130.1,82.8-207.4C623.5,123.2,612.3,123.2,600.8,123.2z"/>
<path display="none" d="M343.1,277.2h304.7c0,149-20.4,300.2-152.4,326.9C375.5,572.8,343.1,425.8,343.1,277.2L343.1,277.2z
	 M332.1,462.1V426c-23.4,6.3-47.2,10.9-71.1,13.2c0.1-145.7,3.1-282.6-31.3-418.5C196.9,160.6,195.1,293.5,195,440
	c-23.9-1.9-47.6-6.5-71-14.1v36.2h87.5c11,44.4,8.2,88.7-1.3,133.1h35.6c-9.1-44.4-10.4-88.7-1.1-133.1L332.1,462.1L332.1,462.1z
	 M486.4,80.7c-21.5-35.5-60.1-59.1-92.4-70.4c-34.5,11.2-68.5,35.5-91.7,70.4l0,0c22.3,60.7,22.3,72.5,0,133.3
	c25.2,19.6,51,31.4,77,34.8c-2.6-32.4-4.6-64.8,1.5-97.2c-17.3-1.9-29.6-7.6-46.9-17.6V93.2l0,0c45.4,24.2,78.3,23.8,125.2,0V134
	c-16.9,8.3-27.7,14.2-44.7,16.8c4.6,32.4,4.4,64.8,1.8,97.2c23.6-4.1,47.2-15.4,70.3-34C468.2,153.3,468.2,141.4,486.4,80.7z"/>
<path display="none" d="M351,598.3c-40.5-0.9-80.4-5-119.3-16.8c-5.2-1.5-10.3-3.5-15.3-5.4c-24.8-8.6-38.7-26.9-45.1-51.6
	c-5.4-21.2-5.6-42.8-2.1-64.1c12-75.5,45.4-140.2,100.4-193.4c23.7-22.9,51.2-39.9,83.6-48c29.8-7.4,59.1-5,87.4,6.5
	c15.8,6.3,27.5,18.1,38.1,31c21.8,26.5,36.8,56.8,48.3,88.8c13.9,38.7,22.3,78.5,21.6,119.8c-0.3,19-2.8,37.6-9.2,55.6
	c-9.4,26.3-26.5,45-53.2,54.8c-27.4,10-55.6,16.4-84.6,19.2C384.9,596.5,367.9,597.2,351,598.3z M524.9,127.7
	c21-15.4,42.8-29.8,64.1-44.9c14.4-10.2,16.6-22.3,5.6-35.9c-17.3-21.2-40.1-32.1-67.5-32.1c-9.3,0-17.8,3.1-22.7,11.6
	c-15.1,26.3-30.4,52.6-44.7,79.5c-7,13.2-11.5,27.5-16.8,40.6c12.9,6.1,24.6,11.7,36.3,17.3C494.2,151.9,509.2,139.2,524.9,127.7z
	 M475,30.1c-7.1-5.7-14.3-10.6-22.8-13.2c-10.6-3.3-19.7-0.8-27.4,7.1c-6.4,6.6-10.5,14.7-13.3,23.3c-9.7,29.7-8.6,59.6-1.5,89.6
	c1.8,7.5,1.8,7.5,10.5,6.7C431.7,102.4,453.4,66.3,475,30.1z M573.9,121.4c-25.6,17.5-50.9,35.3-74,56.1c-1.3,1.1-2.1,2.9-3.1,4.4
	c1.8-0.1,3.6,0.3,5.2-0.2c16.3-4.7,32.4-9.9,48.7-14.2c14.2-3.7,28.8-6.2,43.1-9.6c12.2-3,18.7-11.2,18.4-23.3
	c-0.2-11.6-4.8-21.7-11.5-31.6C591.6,109.3,582.7,115.4,573.9,121.4z M474.8,219.7c9.3-7,10.6-13.9,4-23c-2.4-3.4-5.4-6.4-8.5-9.1
	c-10.6-9-22.8-14.7-36.2-18.1c-9.1-2.3-18.3-3.3-27.6-1.5c-12.5,2.4-21.5,12.2-21.4,23.7C417.8,192.7,448.7,198.7,474.8,219.7z
	 M280.2,198.1c12.5-7.2,25.5-11.9,39.8-12.9c14.2-0.9,27.8,2.1,40.5,7c2.1-7.6,4.1-14.8,6.1-22.3c-33.7-12.9-66.3-10.5-98.3,8.3
	C272.4,185,276.2,191.4,280.2,198.1z M384.1,152.3c6-4.1,6.3-4.7,2-10.6c-0.5-0.7-1-1.3-1.5-2c-16.6-21.5-38.6-36.6-60.8-51.4
	c-0.2-0.2-0.5,0-1,0c-4.1,6-8.3,12.2-12.6,18.7c23.1,16.1,46.7,30.9,61.7,55.2C376.1,158.6,379.9,155.1,384.1,152.3z"/>
<path id="YOneTV.tif" display="none" d="M227.3,279.4c0-60.1,0-119.9,0-180.1c116.1,0,232.1,0,348.6,0c0,59.9,0,119.8,0,180.1
	C459.9,279.4,343.9,279.4,227.3,279.4z M564.2,424.2c-1.9-2.1-3.1-3.4-4.4-4.7c-31.9-32.7-56.5-70.1-70.5-113.9
	c-1.2-3.9-3.5-4.2-6.8-4.2c-51.6,0.1-103.3,0.1-154.9,0c-3.8,0-5.7,1.1-7,4.9c-14.1,41.4-37.3,77.3-66.2,109.8
	c-2.2,2.5-4.4,5-7.3,8.3C353.3,424.2,458.4,424.2,564.2,424.2z M193.9,448.1c0,17.7,0,35.2,0,52.7c138,0,275.6,0,413.5,0
	c0-17.7,0-35,0-52.7C469.2,448.1,331.7,448.1,193.9,448.1z M205.1,120.9c-37.9,0-75.3,0-113.6,0c21.9,54.4,58.6,92.6,113.6,113.8
	C205.1,196.1,205.1,158.5,205.1,120.9z M678,186.1c-22.7-23.4-47.9-42.2-80-50.7c0,36.7,0,72.5,0,109.2
	C629.7,231.2,654.6,210,678,186.1z"/>
<g display="none">
	<path display="inline" d="M392.1,512.5c25.3-14.8,50-31.1,74.4-50.3c-1.8-1.2-3.4-2-4.5-3.1c-50.3-50.9-101-101.5-150.8-153
		c-63-65-121.3-133.9-170.7-209.8C123.8,70.5,109,43.7,93.3,17.4c-0.5-0.9-0.9-1.9-1.8-3.8c6.9,3.9,12.9,7.3,18.8,10.7
		c82,47.5,157.7,103.8,229.4,165.5c47,40.4,91.3,83.5,136.1,126.2c22.4,21.3,44.1,43.4,66.1,65.2c1.1,1.1,2,2.3,3.7,4.4
		c9.1-12.8,18.1-24.6,26.1-36.9c8.1-12.4,15.3-25.4,22.7-37.7c11.2,11.4,22.7,23,34.3,34.7c-27.6,27.6-56,56-84.4,84.4
		c32.9,54.5,78.9,94.9,130.8,128.7c-11.6,11.6-22.9,23-34.5,34.5c-1.6-2.4-3.4-4.9-5.1-7.5c-32.1-47-70.8-87.4-118.1-119.4
		c-5.3-3.5-5.2-3.6-9.6,0.8c-25.8,25.8-51.6,51.6-77.4,77.4c-1.1,1.1-1.8,2.5-2.5,3.6C415.3,535.9,403.9,524.3,392.1,512.5z
		 M252.3,185.3c82.5,82.5,165.2,165.1,248.2,248.1c4.7-5,9.8-10.3,14.5-15.3c-82.5-82.5-165.2-165.2-247.7-247.8
		C262.2,175.3,256.9,180.5,252.3,185.3z"/>
	<path display="inline" d="M126,593.4c-11.5-11.5-22.8-22.7-34.4-34.4c52-33.7,98-74.1,130.6-128.1c-28.5-28.5-56.8-56.8-84.7-84.7
		c12-12.1,23.6-23.7,35-35.2c7.3,12.2,14.5,25.1,22.5,37.4c8.1,12.4,17.1,24.2,26.2,37.2c22.8-23.6,44.8-46.4,67.3-69.6
		c11.2,11.6,21.2,21.9,31.2,32.2c-23.1,23.1-46,46-68.4,68.4c5.7,6.1,10.7,11.6,16.1,17.5c23-23,45.7-45.7,68.8-68.8
		c10.3,10.6,20.3,21,30.4,31.4c-21.9,22-43.5,43.9-65.4,66c23.3,18.4,48,34.7,73.4,49.5c-11.7,11.7-23.3,23.3-35.1,35.1
		c-0.8-0.8-2-1.8-3.1-3c-26.1-26.1-52.2-52.2-78.3-78.3c-2.8-2.8-4.4-2.8-7.5-0.6c-47.7,32.3-86.9,73.1-119.3,120.5
		c-1.5,2.3-3.1,4.6-4.7,6.9C126.5,593.1,126.2,593.3,126,593.4z"/>
	<path display="inline" d="M429.4,240.2c-9.9-9.4-19.1-18.1-28.8-27.1c84.8-75.7,174.6-143.7,274.1-198.7
		c-25.9,49.6-56.4,96.3-89.9,141.1c-33.7,44.9-70.2,87.4-108.5,128.9c-10.1-9.6-20-18.9-30.1-28.4c23.3-23.3,46.5-46.5,69.5-69.5
		c-5.9-5.9-11.2-11.1-16.3-16.3C476.4,193.2,453.1,216.6,429.4,240.2z"/>
</g>
<g display="none">
	<path display="inline" d="M677.9,304.6C677.8,467.4,546,599.2,383.3,599.2c-163,0-294.9-132-294.6-294.8
		C89.1,141.5,221,9.8,383.6,10.1C546.1,10.3,678,142.3,677.9,304.6z M646.9,366.9c13.2-50.7,11.2-122-22.8-186.9
		c-22.9-43.7-55.1-78.6-96.9-105.2c0,9.9,0,19.2,0,28.6c-17.1-5.2-34-10.3-51.4-15.6c1.5,14.6,2.9,28.7,4.3,43.1
		c-29.3-4.1-57.9-8-86.5-12.1c-1.7-0.2-3.5-1.5-4.8-2.8c-8.1-8.4-16.1-17-24.1-25.5c-7.2-7.6-7.2-7.6-16.4-2.7
		c-8.2,4.3-16.4,8.7-25,13.2c9.3,11.3,18.2,22.3,27.9,34.1c-2.3-0.7-3.4-1-4.4-1.3c-27.4-8.4-54.7-16.8-82.1-25.4
		c-2.5-0.8-4.3-0.5-6.4,1.2c-15.3,12.2-30.8,24.3-46.2,36.5c-1.5,1.2-3,2.3-5.2,3.9c1.6-18.7,3-36.5,4.6-55.3
		c-34.3,28.5-59.9,62.4-77.5,102.8c19.7,6.1,39,12,58.2,18c2.8,0.9,4.9,0.5,7.4-1c25.5-15.4,51-30.7,76.4-46.2
		c2.7-1.6,4.5-1.5,7,0.2c16.5,10.9,33,21.7,49.6,32.5c1.1,0.7,2.2,1.5,3.6,2.5c-28.1,16.1-55.8,32.1-84.1,48.3
		c10.7,6.6,20.8,13,31.4,19.6c-11.3,9.3-21.9,18.3-32.8,26.9c-4.1,3.3-6.9,6.9-7.9,12.1c-0.9,5-2.5,9.8-3.9,15
		c15.8,0.7,30.9,1.5,46.2,2.2c0.1,0.8,0.3,1.3,0.3,1.9c-1.1,15.7-2.1,31.4-3.4,47.1c-0.1,1-1.9,2.5-3,2.7
		c-21.2,3.7-42.5,7.1-63.7,10.9c-5.5,1-9.9,0-14.6-2.6c-10.9-6.1-22-11.8-33.3-17.8c-10.4,14.8-20.7,29.4-30.7,44
		c-0.7,1-0.2,3.1,0.4,4.5c18,39,43.9,71.8,77.4,98.6c0.9,0.7,1.8,1.2,3.6,2.4c-3.9-15.5-7.5-30-11.2-44.9c1.6,0.3,2.5,0.5,3.4,0.8
		c26,7.2,52,14.4,77.9,21.7c2.7,0.8,4.9,0.5,7.4-0.9c18.2-10,36.4-19.8,54.7-29.6c1.3-0.7,2.6-1.3,4.1-2c5.4,16.4,10.9,32.3,16,48.3
		c1,3.2,2.5,3.9,5.7,3.5c22-2.6,44-5.1,65.9-7.5c4.7-0.5,8.6-1.9,12.5-4.8c24-17.9,48.1-35.6,72.1-53.5c2.5-1.9,4.2-2.1,6.8-0.1
		c15.5,11.3,31.2,22.4,46.8,33.6c1.2,0.9,2.5,1.7,3.8,2.6c0.6-0.5,1.1-0.8,1.4-1.2c18.6-20.8,33.7-43.9,45-69.4
		c0.8-1.7,0.5-4.4-0.2-6.2c-7.8-19.9-15.8-39.8-23.8-59.6c-0.6-1.5-1.1-3-1.9-5.3C619.1,352.3,632.8,359.5,646.9,366.9z"/>
	<path display="inline" d="M414.2,238.2c38.1-4.5,75.5-8.8,113.8-13.3c-4.5,14.5-8.8,28.5-13.1,42.7c4.6,2.4,9,4.7,13.4,7
		c12.7,6.6,25.4,13.3,38.2,19.7c2.6,1.3,3.2,2.8,2.8,5.5c-2.5,17.8-4.9,35.6-7.1,53.4c-0.3,2.2,0.1,4.8,0.8,6.9
		c6.1,16.8,12.4,33.6,18.7,50.4c0.5,1.3,0.8,2.6,1.6,5.1c-26.5-20.6-52.1-40.4-78.1-60.7c-4.8,11.9-9.5,23.5-14.4,35.5
		c-10.2-4.8-19.9-9.8-30-14c-5.1-2.1-6.8-4.8-7-10.4c-0.7-22.3-2.1-44.5-3.1-66.7c-0.2-4.6-1.4-8.5-4-12.4
		c-10.2-14.8-20-29.8-30-44.7C415.9,241.1,415.2,239.9,414.2,238.2z"/>
	<path display="inline" d="M303,256c13.6-9.1,26.5-17.8,39.7-26.6c8.7,9.2,17.3,18.2,26.1,27.4c-5.8,5.1-12.2,10.9-18.7,16.5
		c-0.7,0.6-2.4,0.8-3.3,0.4C332.3,267.9,318.1,262.1,303,256z"/>
	<path display="inline" d="M393.8,476.7c-8-22.4-15.6-43.8-23.4-65.9c16.2,4.2,31.9,8.3,48.1,12.5
		C410.3,441,402.3,458.4,393.8,476.7z"/>
</g>
<g display="none">
	<path display="inline" d="M251.2,270.9c-0.4,5.1-0.8,9.8-1.4,14.6c-0.1,0.7-1.3,1.6-2.2,1.8c-14.8,3.1-29.4,6.6-43.6,11.7
		c-11,4-21.8,8.6-30.7,16.6c-4.3,3.9-7.5,8.4-7.5,14.5c0.1,4.8,2.3,8.6,5.4,12c5.8,6.3,13.2,10.4,20.9,13.9
		c18.3,8.4,37.7,13.2,57.4,17.2c23.4,4.7,47.1,7.5,70.9,9.4c0.7,0.1,1.4,0,2.5,0c-0.9-12.6-1.9-24.9-2.8-37.5c-16,0-31.7,0-47.8,0
		c0.7-40.7,2.2-81,11.7-121.1c-2.5-0.3-5-0.6-7.4-0.8c-26-2.4-51.9-5.8-77.5-10.8c-27.8-5.4-55.2-12.1-81.1-23.7
		c-11.7-5.2-22.8-11.3-31.5-21.1c-8.9-10.1-9.1-21.5-0.5-31.7c2.7-3.2,5.8-6.1,9.2-8.6c11.4-8.7,24.5-14.4,37.9-19.3
		c25.2-9.2,51.3-15,77.7-19.7c28.8-5.1,57.8-8.3,86.9-10.5c1.2-0.1,2.4,0,4,0c0,4.3,0,8.7,0,13.2c-8,1-16.2,1.9-24.3,3
		c-26.7,3.8-53.2,8.7-78.5,18.6c-9.4,3.6-18.4,8-25.9,14.9c-9.2,8.4-9.6,17.8-1.1,26.9c1.5,1.6,3.1,3,4.8,4.3
		c9.9,7.4,21.3,12,33,15.9c23.6,7.8,48,12.3,72.6,15.6c3.4,0.5,6.9,0.7,10.3,1.4c2.4,0.5,3.4-0.4,4.4-2.4
		c6-11.8,14.1-21.8,25.8-28.6c7.3-4.3,15.5-5.4,23.5-7c3.9-0.7,7.8-1.5,12.1-2.3c-4.9-6-9.6-11.7-14.2-17.5
		c-9.9-12.5-15.3-26.7-16.9-42.6c-1.6-15.9,0.1-31.4,6.4-46.1c5.4-12.6,13-23.7,25.1-31.2c15.7-9.8,34.8-7.2,48.2,2.6
		c13.5,9.9,21.4,23.8,25.6,39.7c5.7,21.5,4.3,42.6-5,62.9c-4.6,10-11.8,18.1-18.6,26.6c-1.2,1.5-2.4,3.1-4,5.1
		c4.5,0.7,8.6,1.4,12.7,2.1c4.9,0.8,9.8,1.4,14.6,2.6c15,3.8,25.6,13.5,33.6,26.3c1.6,2.6,2.9,5.4,4.6,8.1c0.5,0.7,1.7,1.5,2.4,1.4
		c27.6-3.2,55-7.8,81.5-16.5c11.8-3.8,23.2-8.4,33.3-15.9c2.4-1.8,4.6-3.8,6.6-6.1c6.3-7.2,6.3-15.6,0.1-22.8
		c-6-6.9-13.8-11.2-21.9-14.8c-17.2-7.8-35.4-12.8-53.9-16c-18.4-3.3-37-5.5-55.5-8.1c-2.1-0.3-2.8-0.9-2.6-3.1
		c0.3-3.4,0.1-6.9,0.1-10.6c7.5,0.6,14.6,0.9,21.7,1.7c19.7,2.3,39.5,4.3,59.1,7.2c33.7,5,67,12.1,98.9,24.7
		c10.3,4.1,20.2,8.9,29.2,15.5c5.4,3.9,10.3,8.4,13.7,14.3c4.6,8.2,3.8,16.1-1.4,23.8c-4.6,6.7-10.9,11.6-17.7,15.8
		c-15.1,9.3-31.6,15.3-48.5,20.4c-27.2,8.2-55,13.7-83.1,17.5c-16.3,2.2-32.7,3.8-49.1,5.7c-0.4,0-0.7,0.2-1.4,0.3
		c8.1,39.9,8.6,80.2,8.7,120.9c-15.1,0-30.1,0-45.4,0c-0.8,12.6-1.7,25-2.5,37.8c5.3-0.4,10.4-0.6,15.4-1.3
		c20.2-2.8,40.4-5.3,60.5-8.9c20.1-3.6,39.8-9.1,58.1-18.3c6.3-3.2,12.2-6.9,17-12.2c7.1-7.8,7.1-16.6,0-24.3
		c-6-6.6-13.7-10.7-21.7-14.2c-17.6-7.9-36.2-12.5-55-16.2c-2.1-0.4-3-1.1-3-3.4c0-4.3-0.4-8.5-0.7-13.2c5.3,0.7,10.3,1.3,15.3,2
		c26.4,3.7,52.6,8.5,78.4,15.7c18.8,5.2,37.2,11.4,54.2,21.2c6.8,4,13.3,8.5,18.3,14.6c8.7,10.6,8.6,21.6-0.4,32
		c-6.7,7.8-15.3,13.1-24.4,17.7c-19.3,9.8-39.9,16-60.8,21.1c-26.7,6.6-53.7,11.3-80.9,14.1c-23.6,2.4-47.4,4.1-71,6.1
		c-0.4,0-0.7,0.1-1.4,0.2c-0.4,6-0.9,12.1-1.3,18.1c-1.4,21.9-2.9,43.7-4.3,65.6c-0.4,6.6-1,13.3-1.2,19.9c-0.1,2.1-0.8,2.8-2.7,3.1
		c-10.8,1.4-21.5,3.2-32.3,4c-20,1.4-39.9,0.5-59.5-3.4c-7.2-1.4-5.7,0-6.3-7c-1.8-23.9-3.6-47.8-5.4-71.7
		c-0.6-8.6-1.2-17.2-1.9-25.8c-0.1-0.8-0.2-1.7-0.3-2.8c-5.5-0.4-10.8-0.7-16.2-1.1c-27.1-1.6-54.1-4.4-81-8.4
		c-26.6-4-52.9-9.2-78.6-17c-17.8-5.4-35.4-11.7-50.9-22.4c-4.4-3-8.5-6.5-12-10.5c-9.5-10.8-9.1-22.4,0.5-33
		c6.6-7.3,14.7-12.4,23.4-16.8c19-9.7,39.3-15.9,60-21.1c26.1-6.5,52.6-10.9,79.2-14.3C250.1,270.9,250.4,270.9,251.2,270.9z"/>
	<path display="inline" d="M462.3,462.1c0.2-3.6,0.5-7.8,0.8-12.3c5.1,0.4,10,0.5,14.9,1.1c20.3,2.3,40.6,4.2,60.8,7.2
		c34.1,5,67.8,12,100,24.7c12.3,4.8,24.2,10.5,34.4,19.2c2.6,2.2,5.1,4.8,7.1,7.5c7.2,9.5,7,19.8-0.4,29.1
		c-6.8,8.5-15.7,14-25.2,18.9c-19.4,9.9-40,16.1-61,21.3c-28,6.9-56.5,11.4-85.1,14.7c-37.3,4.3-74.8,6.4-112.3,6.8
		c-34.9,0.4-69.8-0.7-104.6-3.4c-36.3-2.9-72.4-7.5-108-15.3c-24.1-5.3-47.9-11.9-70.3-22.6c-9.6-4.6-18.9-10-26.2-18.1
		c-5.8-6.4-9.3-13.7-6.9-22.6c1.6-5.9,5.2-10.5,9.6-14.6c8.8-8.1,19.2-13.6,30.1-18.3c22.1-9.6,45.2-15.7,68.6-20.6
		c27.8-5.9,55.8-9.9,84.1-12.5c10.1-0.9,20.1-1.8,30.5-2.7c0.3,4.2,0.7,8.2,0.8,12.1c0,0.4-1.2,1.2-1.9,1.3c-16,2.3-32.1,4.1-48,6.9
		c-22.5,4-44.7,9.4-65.3,19.6c-6.5,3.2-12.6,7-17.5,12.5c-6.8,7.6-6.8,16.3,0.1,23.9c7.5,8.1,17.2,12.8,27.2,16.8
		c19.8,8,40.5,12.7,61.4,16.3c32,5.5,64.2,8.2,96.6,9.2c29.3,0.9,58.6,0.3,87.8-1.9c33.9-2.6,67.6-7,100.4-16.3
		c14-4,27.7-8.6,39.9-16.7c3.4-2.3,6.6-5,9.4-8c6.6-7.1,6.5-15.6,0.1-23c-6.1-7-14.1-11.3-22.4-15.1c-15.8-7.2-32.5-11.9-49.5-15.2
		C502.6,468.5,482.7,465.5,462.3,462.1z"/>
</g>
<g display="none">
	<path display="inline" d="M152.5,336.3c5.4,7.7,10.3,15.3,15.8,22.3c16.2,20.9,35.4,38.4,58.9,50.9c10.5,5.6,21.5,9.9,33.6,10.5
		c17.3,0.8,27.7-9,27.9-26.4c0.2-21-7.4-39.2-20.5-55.3c-11-13.6-24.2-24.7-38.3-34.8c-17.7-12.7-35.7-24.9-53.4-37.6
		c-15.4-11.1-29.7-23.4-41.2-38.6c-19.1-25.2-23.6-53.2-16.3-83.6c2.8-11.8,7-23.2,12.1-34.2c0.3-0.7,0.7-1.3,1.4-2.6
		c0.7,3.2,1.1,5.8,1.8,8.4c7.6,31.2,24,56.5,50.7,74.7c9.2,6.3,19.3,10.8,30.7,11.1c14.1,0.4,23.6-6.8,27.3-20.4
		c2.7-10.1,2.2-20.3,0.8-30.5c-0.2-1.2-0.3-2.3,0-3.7c1.1,2,2.2,4.1,3.3,6.1c11.1,20.7,24.7,39.4,43.4,54
		c12.7,9.9,26.7,17,42.9,18.6c17,1.7,32.1-2.4,43-16.6c7.3-9.6,9.4-20.7,8.3-32.5c-1.9-20-11.3-36.8-23.1-52.5
		c-10.7-14.2-23.4-26.5-37-37.9c-0.7-0.6-1.3-1.2-2-1.8c-0.2-0.2-0.2-0.5-0.4-1.2c1.3,0.3,2.5,0.6,3.6,0.9
		c45.7,14.3,90.3,31.2,133.1,52.6c40.9,20.4,79.6,44.2,114.3,74.1c28.8,24.7,53.9,52.7,72.9,85.7c14.7,25.6,25,52.8,28.8,82.2
		c7,53.7-5.7,102.4-39,145.1c-32.7,42-76.1,66.8-128.4,75.8c-41.8,7.2-82.4,1.7-121.8-13.2c-32.7-12.4-61.9-30.6-88.8-52.8
		c-35.1-29-64.2-63.3-89.8-100.8c-20.4-29.9-38-61.3-53.7-93.8C153.1,337.9,152.9,337.2,152.5,336.3z M534.9,305.5
		c3,5.1,5.4,10.7,9,15.3c15.6,19.5,35.8,32.4,59.3,40.3c6.6,2.2,13.4,3.7,20.5,2.4c7.2-1.3,11.2-5.8,11.3-13.1c0-1.8,0-3.6-0.3-5.4
		c-2.1-11.4-6.8-21.9-13.3-31.3c-10-14.6-22.8-26.6-37.8-36c-45-28.1-93.2-34.6-144.2-20.3c-6.8,1.9-13.3,4.8-20.5,7.5
		c2.4,1.9,3.9,3.6,5.7,4.7c10.9,6.5,21.7,13.2,32.8,19.3c13.5,7.5,26.9,15,37.8,26.3c14.3,14.9,21.7,33,25.5,52.3
		c-6.3-2.7-12.6-6-19.2-8.2c-15.8-5.3-32.5-6.6-48.9-9c-13.5-2-26.9-4.1-39.7-8.9c-17.4-6.6-29.5-18.1-33.2-37
		c-0.8-3.8-1.1-7.7-1.7-11.7c-46.2,40.4-69.7,113.2-41.5,182.3c10.2,25,26,46.1,46.8,63.5c19.4,16.2,59.7,35.3,71,33.6
		c-25.5-17.6-31.6-56.7-31-76.6c3.7,5.7,7.2,11.6,11.1,17.2c8.4,12,17.9,22.9,31,30c19,10.3,37.7,5.1,48.5-13.6
		c6.4-11,8.6-23,8.5-35.5c-0.2-19.9-6-38.1-15.9-55.2c-13.7-23.8-33.2-42-56-56.9c-0.9-0.6-1.7-1.1-3.3-2.2c1.6-0.1,2.2-0.2,2.9-0.3
		c14.8-0.4,29.4,0.8,43.7,4.8c25.5,7.1,46.3,20.9,60.2,43.8c12.4,20.5,16.7,42.6,10.5,66.1c-1.7,6.5-5.1,12.6-7.6,18.5
		c6.6-4.3,13.3-9.5,19.2-15.6c15.7-16.1,20.7-34.8,13.6-56.4c-3.4-10.3-8.3-19.8-14-28.9c-9-14.3-18.4-28.3-27.3-42.7
		c-7.8-12.7-14.2-26-15.8-41.1C531.8,319.8,532.4,312.4,534.9,305.5z"/>
	<path display="inline" d="M202.4,11.9c2.9,0.9,5.9,1.6,8.7,2.6c17.4,6.6,32.2,17.3,45.7,29.7c8.8,8.1,16.9,16.9,22.4,27.7
		c1.8,3.6,3.3,7.5,4.2,11.4c2,9.2-1.5,16.1-9.7,20.6c-11.8,6.5-24.5,8.6-37.7,8.2c-26.3-0.8-50.4-9.5-73.4-21.6
		c-18.9-10-36.2-22.3-50.7-38.2c-8.2-9.1-15.3-18.9-18-31.1c-0.4-1.8-0.6-3.7-0.9-5.7c4.7,3.2,8.9,6.6,13.4,9.3
		c23.2,13.7,48,22.9,74.7,26.8c6.6,1,13.3,1.2,19.9-0.4c9.6-2.2,14-8.7,11-18.1c-1.9-6.2-5.4-11.8-8.3-17.7
		c-0.5-0.9-1.1-1.8-1.7-2.7C202.1,12.4,202.3,12.2,202.4,11.9z"/>
	<path display="inline" d="M353.7,370.1c11.2-0.8,21.5,1,31.5,4.7c31.1,11.5,56.7,30.2,75.3,57.8c4.5,6.6,7.8,13.9,8.7,22
		c1.9,17.6-10.4,29.5-27.8,26.2c-17.9-3.3-32.2-13-43.3-27.4c-1.5-1.9-2.4-4.2-3.9-7c3.9,1.5,6.9,2.8,9.9,3.8
		c1.4,0.5,2.9,0.7,4.4,0.7c3.4,0,5.4-1.7,5.1-5.1c-0.4-3.9-1-8-2.6-11.5c-10.4-22.6-25.3-41.7-44.9-57.1c-1.8-1.4-3.8-2.6-5.7-3.7
		C358.4,372.2,356.3,371.3,353.7,370.1z"/>
</g>
<g display="none">
	<path display="inline" d="M185,8.3c18.9,1.5,37.1,3,55.4,4.4c22.3,1.8,44.6,3.6,66.9,5.4c22,1.8,44,3.6,66,5.4
		c21.6,1.7,43.2,3.5,64.7,5.2c21.9,1.8,43.8,3.5,65.7,5.3c16,1.3,32,2.7,48,3.8c2.2,0.2,2.9,1.1,3.4,3c11.5,44.3,23,88.5,34.6,132.8
		c17.9,68.8,35.8,137.6,53.7,206.4c8.6,32.8,17.1,65.7,25.7,98.5c0.2,0.9,0.4,1.8,0.7,3.1c-6.7-0.5-13.3-1-19.9-1.5
		c-19.5-1.6-39-3.2-58.5-4.7c-22.3-1.8-44.6-3.6-66.9-5.4c-24.5-2-48.9-3.9-73.4-5.9c-21.9-1.8-43.8-3.6-65.7-5.3
		c-19.1-1.5-38.2-3.1-57.3-4.6c-7.8-0.6-15.7-1.2-23.5-1.9c-2.6-0.2-4.4-1.2-5.3-4.4c-22.1-85.3-44.4-170.6-66.6-256
		c-15.6-60.1-31.3-120.2-46.9-180.3C185.6,10.6,185.4,9.7,185,8.3z M217.8,34.7c0.3,1.3,0.4,2.1,0.6,2.9
		c8.6,33.1,17.1,66.1,25.7,99.2c14.7,56.7,29.3,113.4,44,170.1c10.2,39.4,20.4,78.7,30.5,118.1c0.6,2.4,1.6,3,4,3.1
		c8.6,0.5,17.1,1.3,25.7,2c24.5,2,48.9,4,73.4,5.9c21.9,1.8,43.8,3.5,65.7,5.2c22,1.8,44,3.6,66,5.4c22.3,1.8,44.6,3.6,66.9,5.4
		c6.1,0.5,12.3,1,18.7,1.5c-0.2-1.1-0.4-1.8-0.6-2.5c-3.9-14.8-7.8-29.6-11.8-44.4c-21.5-81-42.9-162-64.4-243
		c-8.7-32.8-17.4-65.6-26.1-98.4c-0.6-2.1-1.5-2.9-3.8-3c-8.2-0.5-16.3-1.4-24.5-2.1c-22.3-2-44.6-3.9-66.9-5.8
		c-22.8-2-45.6-3.9-68.4-5.9c-20-1.7-40-3.5-60.1-5.3c-22.8-2-45.6-4-68.4-5.9C235.6,36.3,226.9,35.5,217.8,34.7z"/>
	<path display="inline" d="M654.7,504c-11.6,5.9-22.2,12.6-30.6,23c5.7,5.5,11.3,10.8,17.3,16.6c-19.8,3.1-39,6.1-59.1,9.3
		c1.3,0.7,2,1.1,2.6,1.4c7.8,3.1,15.5,6.3,23.3,9.4c1.4,0.6,2.5,1,2.5,3c0.2,11.9,3.6,22.8,9.9,32.9c0.2,0.3,0.3,0.7,0.6,1.4
		c-5.6-0.4-10.9-0.8-16.2-1.3c-29.2-2.5-58.4-4.9-87.6-7.4c-33-2.8-66-5.7-99.1-8.5c-30.8-2.6-61.5-5.1-92.3-7.7
		c-24.4-2-48.7-4.2-73.1-6.2c-2.1-0.2-2.7-1.1-3.1-3c-2.6-12.9-0.4-25.1,4.4-37.1c9.1-22.8,24.2-40.3,45.5-52.4
		c1.7-0.9,3.9-1.5,5.8-1.4c19,1.4,38,3,57,4.5c19.5,1.6,39,3.2,58.5,4.7c22.1,1.8,44.2,3.6,66.3,5.3c22,1.8,44,3.5,66,5.3
		c22,1.8,44,3.6,66,5.4C631.2,502.1,643,503.1,654.7,504z"/>
	<path display="inline" d="M197.2,473.1c-2.4-8.6-4.6-16.6-6.8-24.5c-25.2-91.7-50.6-183.3-75.6-275c-1.2-4.5-0.5-9.9,0.4-14.7
		c5-28.3,16.4-53.8,34.9-75.8c6.5-7.7,14.1-14.3,23.1-19.5c2.6,9.9,5.1,19.6,7.7,29.3c20.6,79.2,41.2,158.4,61.9,237.6
		c6.6,25.5,13.3,51.1,20,76.6c0.4,1.6,0.7,2.7-1.3,3.7c-26.8,13.6-47.4,33.7-62.6,59.6C198.5,471,198.1,471.7,197.2,473.1z"/>
	<path display="inline" d="M269.3,432.3c1.9,7.1,3.7,14.1,5.6,21.2c0.9,3.6,3.1,7.6,2.2,10.7c-0.9,2.9-5.1,4.7-7.8,7.1
		c-19.7,16.9-34.4,37.1-41.2,62.5c-2.7,10.3-4.1,20.7-3.2,31.4c0,0.6,0,1.2-0.6,2.2c-0.5-0.6-1.3-1.2-1.5-1.9
		c-4.9-17.5-9.7-35.1-14.5-52.7c-0.3-1.2-0.1-2.7,0.2-3.9c9.6-33.1,28.4-59,58.8-76c0.4-0.2,0.7-0.4,1.1-0.5
		C268.6,432.4,268.8,432.4,269.3,432.3z"/>
	<path display="inline" d="M159.5,10.7c2.6,10.1,5.2,19.8,7.8,29.8c-32.5,18.5-52.9,47-66.5,80.8c-7.3-16.3-7.1-32.5,0-48.7
		c11.4-25.9,28.5-46.6,54-59.9C156.3,12.1,157.8,11.5,159.5,10.7z"/>
</g>
<g id="J3RTnl.tif" display="none">
	<g display="inline">
		<path d="M219,560.9c4-8.3,7.5-16.9,12.2-24.8c14.7-25.3,29.6-50.5,45-75.4c6.8-11,11.3-22.4,14.1-34.9c15.3-69.1,31-138,46.6-207
			c0.2-1.1,0.3-2.2,0.6-4.1c-1.7,1.2-2.9,1.9-4,2.8c-8.8,7-17.6,14-26.2,21.3c-2,1.7-3.8,4.5-4.4,7.1c-5.7,25-11.2,50.1-16.7,75.2
			c-2.1,9.8-7.1,17.3-17.2,19.9c-15.5,4-29.5-9.8-26-25.8c6.3-29.3,13.2-58.4,19.3-87.6c2.1-9.8,6.7-17.1,14.5-23.3
			c29.7-23.6,59.1-47.6,88.5-71.5c26.5-21.5,62.4-13.8,77.8,16.8c14.7,29.2,29.4,58.4,44.2,87.5c1.4,2.7,3.7,5.4,6.2,7.1
			c18.1,12.7,36.3,25.3,54.7,37.7c7.1,4.8,13.6,9.9,16.5,18.3c0,2.6,0,5.2,0,7.8c-4.8,18.7-23.1,23.4-38.7,11.7
			c-16.8-12.6-34.1-24.6-51.9-35.7c-13.6-8.5-23.9-19.1-29.7-34.2c-2.4-6.3-6-12.1-9.4-18.9c-0.7,1.7-1,2.4-1.2,3.1
			c-6.8,29.8-13.6,59.6-20.2,89.5c-0.5,2.1,0.6,5.1,2.1,6.8c26.4,31.4,53.1,62.6,79.3,94.2c3.8,4.5,6.7,10.6,7.9,16.4
			c7.8,39.1,15.2,78.2,22.4,117.4c2.2,11.7-0.3,22.8-9.7,30.7c-4.9,4.1-11.5,6.3-17.3,9.3c-3.3,0-6.5,0-9.8,0
			c-0.2-0.2-0.4-0.6-0.7-0.6c-15.7-3.5-24.2-13.8-27.2-29c-6.7-34.8-13.3-69.6-19.9-104.5c-0.8-4.3-2.2-7.8-5.3-11.1
			c-21-22.7-41.8-45.6-62.7-68.5c-0.9-1-2-1.9-3.4-3.3c-3.7,17.2-7.9,33.6-10.8,50.3c-3.3,18.7-10,35.7-20.1,51.8
			c-18.6,30-36.5,60.5-54.1,91.1c-6.7,11.7-14.8,20.8-28.5,23.9c-2.6,0-5.2,0-7.8,0c-6.7-1.8-13.2-3.8-18.6-8.7
			c-5.9-5.4-8.6-12.3-10.8-19.6C219,566.7,219,563.8,219,560.9z"/>
		<path d="M419.4,13.5c6.4,2.6,13.4,4.3,19.2,7.9c16.9,10.5,24.6,26.4,22.5,46c-2.2,19.6-13.3,33.5-32,40
			c-19.5,6.8-37.3,2.2-51.2-12.9c-13.1-14.2-16.5-31.1-9.6-49.4c6.1-16.1,17.8-26,34.5-30.1c1.4-0.3,2.7-1,4-1.5
			C410.9,13.5,415.1,13.5,419.4,13.5z"/>
	</g>
</g>
<g id="d238As.tif" display="none">
	<g display="inline">
		<path d="M81,389.5c1.3-3.8,2.1-7.8,3.9-11.3c5.9-11.6,15.6-17.7,28.7-17.8c38.1-0.1,76.1,0,114.2,0.2c3.5,0,5.9-0.9,8.2-3.6
			c56-65.1,112.1-130.1,168.1-195.1c0.9-1,1.6-2.1,2.5-3.2c-0.6-0.4-1-0.8-1.3-0.8c-13.9-0.1-27.8-0.4-41.8-0.1
			c-1.9,0-4.1,2-5.5,3.6c-24.9,28.6-49.6,57.3-74.5,85.9c-9.7,11.2-21.8,14-33.1,7.9c-14-7.6-17.6-26.3-7.2-38.4
			c28.7-33.1,57.5-66,86.1-99.1c6.5-7.5,14.2-11.1,24.2-11c39.2,0.2,78.5,0.2,117.7-0.1c11.5-0.1,20.7,3.9,28.7,12
			c23.7,24,47.6,47.7,71.4,71.6c1.4,1.4,2.5,3.2,4.1,5.2c2.1-1.9,3.4-3,4.7-4.3c19.4-19.3,39.2-38.1,57.9-58.1
			c16.1-17.2,43-8.9,46.1,12.3c0.1,0.6,0.5,1.2,0.8,1.8c0,2,0,4,0,6c-3.2,5.5-5.7,11.8-9.9,16.4c-9.6,10.7-20.1,20.6-30.3,30.9
			c-15.6,15.7-31,31.6-47,46.9c-14,13.4-29.5,12.7-43-0.9c-14-14-27.9-28.1-41.9-42.1c-1.3-1.3-2.6-2.4-4.2-4
			c-25.4,29.4-50.5,58.4-76.6,88.8c1.9,1.2,3.7,2,5,3.2c20.8,20.7,41.4,41.6,62.3,62.1c10.5,10.3,13.4,22.7,10.4,36.4
			c-13,59.1-26.4,118.2-39.5,177.3c-2.7,12-8.7,21.3-20.4,26.1c-2.7,1.1-5.7,1.9-8.5,2.8c-2,0-4,0-6,0c-0.8-0.3-1.5-0.7-2.3-0.9
			c-19.6-3.8-31-20.1-26.8-39.5c10.1-45.9,20.5-91.8,30.9-137.6c0.8-3.6,0.3-6.1-2.5-8.8c-24.1-23.1-47.9-46.5-71.9-69.7
			c-1.1-1-2.2-2-3.6-3.2c-1.7,1.9-3.4,3.6-4.9,5.3c-19.5,21.7-39.3,43.2-58.3,65.3c-10.1,11.8-22.8,16.8-37.6,16.9
			c-47.1,0.3-94.3,0.4-141.4,0.5c-2,0-4-0.2-6-0.4c-11.6-1.1-20.2-6.8-25.6-17c-2-3.8-2.9-8.1-4.3-12.1C81,393.5,81,391.5,81,389.5z
			"/>
		<path d="M542.1,18c2.7,0.8,5.4,1.5,8.1,2.3c20.7,6.4,33.3,20.5,36.4,41.7c3,19.9-4.8,36.1-20.8,48.1
			c-26.2,19.7-66.7,6.6-76.6-24.6c-9.8-30.8,7.7-60.1,39.7-66.5c0.8-0.2,1.4-0.7,2.2-1.1C534.7,18,538.4,18,542.1,18z"/>
	</g>
</g>
<g id="LChbv6.tif">
	<g>
		<path d="M339.8,246.5c-9.1-26.9-44.5-37.3-69.1-21.4c-9.7,6.3-16.6,14.8-20.1,25.8c-11,34.6-17.7,70.1-21.1,106.2
			c-2.8,29.3-3,58.5,0,87.8c2.3,23.1,6.3,45.9,13.3,68.2c7.9,25.6,32.1,41.9,59.2,40.6c25.4-1.2,47.7-20.2,53.5-45.3
			c0.7-3.2,2-6.4,3.9-9c19.7-27.6,39.6-55.1,59.5-82.6c1.7-2.4,3.9-4.4,6.5-7.3c6.7,7.1,13.5,13.7,19.5,20.9
			c23.4,28.2,41.6,59,50.2,95.1c4.9,20.9,26.9,33.3,47.6,27.9c21.3-5.5,34.2-26.9,28.3-48.3c-9.3-33.6-24.9-64.4-44.8-92.8
			c-11.5-16.4-24.7-31.5-37.3-47.1c-1.1-1.4-3.2-2.7-4.9-2.8c-32.8-1.3-64.3-8.7-95-19.6c-4.2-1.5-6.9-0.9-9.7,2.1
			c-13.2,14.3-26.5,28.5-39.8,42.8c-1,1.1-2,2.1-3,3.2c-0.6,0-1.2-0.1-1.8-0.1c0-10.4-0.3-20.9,0.1-31.3c0.4-12,1.4-24.1,1.8-36.1
			c0-1.5-1.9-3.6-3.4-4.6c-18-11.5-36.4-22.2-54-34.3c-13.9-9.6-17-28.6-8.5-42.8c10-16.7,31.8-21.1,48-9.7
			C325.9,236.8,332.9,241.7,339.8,246.5z"/>
		<path d="M269.7,144.2c0,42,34.1,76.3,76,76.4c42,0.2,76.5-34.4,76.5-76.5c0-41.8-34.6-76.2-76.3-76.1
			C303.9,68.1,269.7,102.4,269.7,144.2z"/>
		<path d="M480.1,358.8c17.2,0.4,30.4-11.2,31.5-26.8c1.2-16.4-9.6-30-26.3-31.4c-62.8-5.4-118.1-29.6-168.8-65.8
			c-13.2-9.4-31.1-6.7-40.7,6.1c-9.6,12.7-7.4,31.1,5.6,40.7c51.5,37.6,108.2,63.5,171.4,74c4.9,0.8,9.9,1.5,14.9,2.1
			C472.1,358.2,476.6,358.5,480.1,358.8z"/>
	</g>
</g>
<g display="none">
	<path display="inline" d="M316,11.8c50.1,0,100,0,150.2,0c0,82.9,0,165.7,0,248.7c-50,0-99.9,0-150.2,0
		C316,177.7,316,94.9,316,11.8z"/>
	<path display="inline" d="M393.9,508c-20.8,15.1-41.5,30-62.2,45c-0.2-0.1-0.4-0.2-0.6-0.3c7.8-24.3,15.7-48.7,23.6-73.2
		c-8.7-6.3-17.3-12.6-25.9-18.9c-19.6-14.3-39.1-28.6-58.8-42.8c-2-1.5-2.4-2.6-1.4-4.8c19.9-44.2,52.9-72.3,101-81.7
		c3-0.6,6-0.9,9.6-1.4c-9.7,29.7-19.2,58.9-28.9,88.4c7.3,2.4,14.5,4.8,21.9,7.2c2.9-8.9,5.8-17.6,8.6-26.3
		c7.3-22.4,14.7-44.9,21.9-67.4c0.6-1.8,1.3-2.3,3.1-2.2c30.4,2.9,56.7,14.6,79,35.4c14.7,13.7,26.1,29.8,33.7,48.5
		c0.9,2.2,0.4,3.3-1.4,4.6c-25,18.2-50,36.4-75,54.7c-0.7,0.5-1.4,1.1-2.5,1.8c4.5,6.2,8.9,12.2,13.6,18.6
		c24.2-17.6,48.2-35.2,72.7-53.1c3.4,21.7,2.5,42.7-3.8,63.4c-8,26.3-23.3,47.6-44.5,65.2C449.8,548.5,421.9,528.3,393.9,508z"/>
	<path display="inline" d="M292.4,260.6c-6,0-11.8,0.1-17.6-0.1c-0.8,0-1.9-0.6-2.4-1.3c-8.3-10.7-16.6-21.5-24.7-32.4
		c-0.9-1.2-1.2-3.1-1.2-4.7c-0.1-33.5,0-67.1,0-100.6c0-35.1,0-70.3,0-105.4c0-1.3,0-2.6,0-4.1c15.3,0,30.5,0,45.8,0
		C292.4,94.7,292.4,177.5,292.4,260.6z"/>
	<path display="inline" d="M489.6,260.6c0-83.2,0-165.9,0-248.8c14.1,0,28,0,42.4,0c0,1.1,0,2.1,0,3.2c0,69.2,0,138.3-0.1,207.5
		c0,1.6-0.6,3.5-1.6,4.8c-8,10.6-16.1,21.1-24.4,31.5c-0.7,0.9-2.2,1.6-3.4,1.7C498.3,260.8,494.1,260.6,489.6,260.6z"/>
	<path display="inline" d="M303.3,563.5c-18.6-17.1-31.8-37.2-38.8-61.1c-6-20.4-6.8-41.1-3.4-62.7c4.1,3,7.7,5.6,11.3,8.2
		c17.7,12.9,35.5,25.9,53.2,38.8c1.2,0.9,2.3,1.6,1.6,3.5c-7.8,23.9-15.5,47.7-23.2,71.6C303.8,562.3,303.6,562.6,303.3,563.5z"/>
	<path display="inline" d="M288.1,305.9c0-7.3,0-14.5,0-21.9c67.3,0,134.6,0,202.1,0c0,7.3,0,14.5,0,21.9
		C422.7,305.9,355.5,305.9,288.1,305.9z"/>
	<path display="inline" d="M457.6,582.7c-42.7,20.7-84.7,20.8-127.5,0.2c1.3-1,2-1.6,2.7-2.1c19.5-14.2,39.1-28.3,58.6-42.5
		c1.9-1.4,3.1-1.6,5.1-0.1c19.2,14.1,38.6,28,57.9,42C455.2,580.9,456,581.6,457.6,582.7z"/>
</g>
<g display="none">
	<path display="inline" d="M332.1,454.8c-0.6-0.4-1.4-0.9-2-1.5c-17.5-17.6-35-35.1-52.6-52.7c-20.1-20.2-40.2-40.4-60.5-60.3
		c-3.6-3.5-4.5-6.5-3.1-11.5c14-51.4,27.7-102.9,41.5-154.4c0.5-1.7,1-2.8,3.1-3.4c52.8-14.1,105.6-28.4,158.4-42.7
		c1.8-0.5,3-0.3,4.4,1.1c26.4,26.6,53,53.1,79.5,79.7c12.1,12.1,24.1,24.2,36.2,36.3c1.5,1.4,1.8,2.7,1.3,4.6
		c-14.2,52.6-28.3,105.2-42.3,157.9c-0.6,2.3-1.7,3.3-4,3.9c-52.4,14-104.9,28.1-157.3,42.3C333.8,454.2,333.2,454.4,332.1,454.8z
		 M260.5,236c3.8-3.4,6.8-6.3,10.1-9.1c22.8-19.4,48.9-31.4,79.1-32.5c39.3-1.4,72.7,12.4,98.6,42c25.1,28.7,32.8,62,22.7,99
		c-6.3,23-19,42.3-35.1,59.7c-4.2,4.5-8.8,8.8-13.6,13.5c1.1-0.1,1.5-0.1,1.8-0.2c16.8-4.5,33.7-9.1,50.5-13.5
		c1.9-0.5,2.3-1.6,2.6-3.1C489.2,347,501,302.1,513,257.2c0.5-1.9,0.1-3.1-1.3-4.4c-4.8-4.6-9.4-9.4-14.1-14.1
		c-27.8-28-55.7-56-83.5-84c-1.5-1.5-2.7-1.8-4.7-1.2c-19.6,5.3-39.2,10.6-58.8,15.9c-25.1,6.7-50.1,13.5-75.2,20.3
		c-1.3,0.3-3,1.3-3.3,2.3C268.2,206.3,264.5,220.8,260.5,236z"/>
	<path display="inline" d="M590.6,524.2c-90.6,24.2-180.9,48.3-271.8,72.6c0.8-4.4,1.4-8.5,2.2-12.5c6.3-35,12.6-70,18.8-105.1
		c0.4-2.4,1.5-3.2,3.7-3.8c51.5-13.8,102.9-27.7,154.4-41.5c1.9-0.5,3.2-0.3,4.7,1.2c7.7,8,15.6,15.9,23.4,23.7
		c21,21.1,41.9,42.2,62.9,63.4C589.3,522.7,589.8,523.3,590.6,524.2z M523.9,485.8c-2.9,4.5-5.4,9.1-8.6,13.2
		c-6.7,8.5-15.5,14.4-24.7,19.7c-21.6,12.6-44.6,22.3-67.5,32.3c-2.7,1.2-5.4,2.4-8,3.6c0.1,0.1,0.1,0.2,0.2,0.4
		c45.8-13,91.7-26,137.9-39.2C543,505.4,533.3,495.5,523.9,485.8z"/>
	<path display="inline" d="M675,242.1c-23.5,87.8-47,175.2-70.5,263.3c-2.3-2.3-4.3-4.2-6.3-6.2c-14.4-14.6-28.9-29.2-43.3-43.8
		c-11.9-12-23.9-24.1-35.9-36c-1.6-1.5-1.8-2.9-1.3-5c14.2-53,28.4-106,42.6-159c0.6-2.2,1.6-2.9,3.8-3.1c16-1.4,32-2.9,48-4.4
		c18.4-1.7,36.7-3.4,55.1-5.1C669.5,242.6,671.9,242.4,675,242.1z M580.4,264.8c2.3,1.7,3.9,2.8,5.5,4
		c15.8,11.4,26.8,26.2,31.3,45.5c2.5,11,3.8,22.1,3.6,33.3c-0.3,17-1.2,34-1.9,50.3c11.5-45.6,23.2-92,35-138.8
		C629.3,261,605.3,262.8,580.4,264.8z"/>
	<path display="inline" d="M99.1,393.3c32.5-13,65.8-26.2,99.6-39.7c0.5,0.7,1.1,1.6,1.8,2.2c38.3,38.3,76.5,76.7,114.9,115
		c1.7,1.7,2.2,3.2,1.8,5.5c-6.7,37.4-13.4,74.9-20.1,112.3c-0.2,0.9-0.4,1.7-0.6,2.9C230.4,525.4,164.8,459.3,99.1,393.3z
		 M201.3,381.3c-0.1,0.1-0.3,0.2-0.4,0.4c0.7,1,1.5,2.1,2.2,3.1c18.4,25.5,36.2,51.4,51.1,79.1c13.1,24.2,23.5,49.3,28.7,76.5
		c0.8,4.1,1.4,8.2,2.1,12.3c0.5-1,0.5-1.8,0.7-2.7c2.7-21.9,5.3-43.9,8.1-65.8c0.4-3.2-0.1-5.5-2.5-7.9
		c-21.2-22.1-42.2-44.4-63.3-66.6C219.2,400.2,210.3,390.8,201.3,381.3z"/>
	<path display="inline" d="M164.8,100.6c13.3,11.7,26.2,23,39.1,34.3c9.6,8.4,19.2,16.9,28.9,25.3c1.5,1.3,2,2.5,1.5,4.6
		c-14.9,55.2-29.6,110.4-44.5,165.5c-0.3,1.2-1.4,2.7-2.5,3.2c-31.2,12.6-62.5,25-93.8,37.4c-0.2,0.1-0.4,0.1-1.1,0.1
		C116.5,280.9,140.6,191,164.8,100.6z M130,336.6c-0.1-0.1-0.3-0.2-0.4-0.3c0.4-0.1,0.9-0.2,1.3-0.4c14.1-5.7,28.3-11.4,42.4-17.3
		c1.1-0.4,2.1-2,2.4-3.2c12-46.9,23.8-93.9,35.8-140.8c0.5-1.9,0.1-3.1-1.3-4.4c-5.9-5.3-11.6-10.8-17.5-16.2
		c-6.2-5.7-12.4-11.5-18.8-17.4c2.5,4.8,5.2,9.2,7.2,13.9c6.5,15,8.6,30.9,8.8,47c0.3,21.5-2.9,42.5-9.3,63
		c-6.7,21.4-16.2,41.4-31.5,58.1C143.4,325.1,136.5,330.6,130,336.6z"/>
	<path display="inline" d="M182.9,85.9c90.4-24.1,180.4-48.2,271-72.4c-2.5,7.2-4.8,13.8-7.2,20.3c-7.8,22.1-15.7,44.3-23.4,66.4
		c-0.8,2.2-1.9,3-4,3.6c-54.1,14.5-108.1,29.1-162.1,43.7c-2.2,0.6-3.7,0.3-5.5-1.2c-21.7-19.1-43.4-38.1-65.1-57.1
		C185.4,88.3,184.4,87.2,182.9,85.9z M287.4,72.3c17.3-2.3,34.6-4.9,52-6.9c16.5-1.9,33-3,49.5-0.9c9.5,1.2,19.5,2.2,24.5,13.2
		c3.4-13.4,6.7-26.4,10.1-39.8C377.6,49.5,332.4,60.9,287.4,72.3z"/>
	<path display="inline" d="M474.8,23.3c65.3,65.6,130.3,130.8,195.2,196c-0.7,0.1-2.2,0.4-3.7,0.5c-23,2.1-46,4.2-69,6.4
		c-13.5,1.2-27,2.5-40.6,3.8c-1.9,0.2-3.3-0.3-4.7-1.7c-32.8-32.9-65.6-65.7-98.4-98.6c-3.4-3.4-6.6-6.9-10.1-10.1
		c-1.6-1.5-1.9-2.8-1.2-4.9c9.8-27.6,19.6-55.2,29.4-82.9C472.7,29.1,473.7,26.4,474.8,23.3z M489,59.2c0.4,0.6,0.7,1,1,1.5
		c15.5,19.4,30.2,39.3,43.6,60.2c11.4,17.7,22.3,35.7,29.7,55.4c4.9,12.9,9.4,26,2.7,40.2c23.9-3.1,47.5-6.1,71.1-9.1
		C587.7,157.9,538.4,108.6,489,59.2z"/>
</g>
<g display="none">
	<path display="inline" d="M681.7,266.3c0.1,1.7,0.2,3,0.2,4.3c0,76.9,0,153.9,0.1,230.8c0,3.3-1.1,4.7-3.9,5.9
		C607.3,537,536.5,567,465.8,596.8c-1.2,0.5-2.5,0.9-4.1,1.6c-0.1-1.6-0.2-2.9-0.2-4.2c0-77.1,0-154.1-0.1-231.2
		c0-3,0.8-4.5,3.7-5.6c71-29.9,142-59.9,212.9-89.9C679.1,267.1,680.2,266.8,681.7,266.3z"/>
	<path display="inline" d="M157.3,236.3c0.5-14.3,2.6-28.2,6.5-41.6c14.9-50.9,42.1-93.8,84.2-126.6c17.1-13.4,36.2-23.3,57.8-27.5
		c10.2-2,20.2-1.4,30.2,2C389,60.5,442,78.2,495.1,95.9c1.5,0.5,3,1.1,3.5,1.2c-12,6.9-24.9,13.1-36.4,21.2
		c-40.9,28.9-69.7,67.6-89,113.5c-9.1,21.7-15.2,44.2-17.3,67.8c-0.1,1.2-0.4,2.4-0.6,4C289.3,281.2,223.5,258.8,157.3,236.3z"/>
	<path display="inline" d="M318.3,467c0-50.3,0-100.2,0-150.6c1.7,0.4,3,0.7,4.2,1.1c9.8,3.3,19.6,6.7,29.4,9.9
		c2.4,0.8,3.4,1.8,3.4,4.5c-0.1,77.9-0.1,155.7-0.1,233.6c0,0.7-0.1,1.3-0.1,2.5c-8.3-2.9-16.4-5.6-24.5-8.4
		c-56.4-19.6-112.8-39.3-169.2-58.8c-3.2-1.1-4.2-2.6-4.2-5.9c0.1-76.3,0.1-152.5,0.1-228.8c0-1.4,0-2.9,0-4.9
		c10.9,3.7,21.3,7.2,31.6,10.9c0.8,0.3,1.4,2.3,1.4,3.6c0.1,11.9,0.1,23.7,0.1,35.6c0,36.4,0,72.8,0,109.1c0,2.3,0.2,3.8,3,4.7
		c41.1,13.7,82.1,27.6,123.1,41.5C316.8,466.8,317.2,466.8,318.3,467z"/>
	<path display="inline" d="M460.7,333.6c1.1-8.3,1.6-15.6,3.2-22.8c12.9-57.8,42-105.6,89-141.9c16.3-12.6,34.5-22,54.9-26.2
		c29.5-6,51.9,6.2,63.4,34c8,19.5,10.3,40,10.9,60.8c0.1,2.5-1.2,3.2-3,3.9c-65.1,27.5-130.3,55-195.4,82.5
		C476.3,327,469.1,330.1,460.7,333.6z"/>
	<path display="inline" d="M583.3,125.4c-18.5,7-34.4,16.2-48.8,27.9c-43.2,34.9-72.5,79.2-88.3,132.2c-4.2,14.1-5.7,29-8.5,43.5
		c-0.1,0.6-0.3,1.3-0.5,2.6c-19.5-6.6-38.8-13.2-59.1-20.1c1.7-11.5,2.7-23.1,5.3-34.4c10.2-43.9,31.9-81.7,62.8-114.3
		c18.4-19.4,39.9-34.5,65.1-43.8c11.1-4.1,22.5-6.4,34.4-5.2c1.1,0.1,2.2,0.2,3.2,0.5C560,117.7,571.1,121.4,583.3,125.4z"/>
	<path display="inline" d="M437.5,596.8c-13.2-4.6-26.1-9-39.1-13.5c-5.2-1.8-10.3-3.9-15.6-5.4c-3.2-0.9-4.1-2.3-4.1-5.6
		c0.1-51.8,0.1-103.7,0.1-155.5c0-25,0-50.1,0-75.1c0-1.5,0-2.9,0-4.9c6.6,2.2,12.8,4.4,19,6.5c12.3,4.2,24.7,8.4,37,12.5
		c1.9,0.7,3.1,1.3,3.1,3.8c-0.1,78.6-0.1,157.3-0.1,235.9C437.8,595.7,437.7,596,437.5,596.8z"/>
	<path display="inline" d="M277.9,23.2c-10.7,5.9-21.9,11.1-32,17.7c-36,23.6-62.8,55.7-83.1,93.5c-14.2,26.4-23.7,54.4-27.7,84.2
		c-0.2,1.6-0.3,3.2-0.5,4.8c-0.2,1.5-0.4,2.9-0.7,4.7c-1.5-0.5-2.7-0.8-3.9-1.2c-15.1-5.1-30.3-10.3-45.5-15.3
		c-2.7-0.9-3.5-2.1-3.3-4.9c1.5-25.3,8.2-49.3,18.7-72.2C115.6,100.2,137,70,166.5,46c17.8-14.5,37.3-26,60.3-30.4
		c11.9-2.2,23.7-2.8,35.2,2.2C267.3,20,272.9,21.5,277.9,23.2z"/>
	<path display="inline" d="M133.3,491c-9.1-3.2-17.8-6.3-26.6-9.3c-7.5-2.6-15-5.3-22.5-7.7c-2.6-0.8-3.8-2.2-3.4-4.9
		c0.2-1.6,0-3.2,0-4.8c0-74.3,0-148.7,0-223c0-1.7,0-3.4,0-5.9c4.7,1.6,8.7,3,12.7,4.3c12.3,4.2,24.7,8.4,37.1,12.5
		c1.9,0.7,3.1,1.4,3.1,3.8c-0.1,77.7-0.1,155.4-0.1,233.1C133.7,489.6,133.5,490,133.3,491z"/>
	<path display="inline" d="M294.6,308c0,42.2,0,84,0,126.3c-4.6-1.5-8.9-2.9-13.2-4.4c-21.4-7.2-42.8-14.5-64.2-21.6
		c-2.2-0.7-3.2-1.6-3.2-4.1c0.1-40.3,0.1-80.5,0.1-120.8c0-0.7,0.1-1.3,0.2-2.6C241.2,289.9,267.8,298.9,294.6,308z M265.2,394.2
		c0-11.1-0.1-21.7,0.1-32.3c0-1.8,1.1-4.1,2.5-5.3c7.3-6.6,10-16,6.7-24.9c-3.2-8.8-11.5-14.6-20.7-14.7
		c-8.9-0.1-17.2,5.4-20.6,13.7c-3.6,8.7-1.6,18.4,5.4,24.7c2.2,2,3,4,3,6.9c-0.2,7.3-0.1,14.5-0.1,21.8c0,3.3,0,6.6,0,10
		C249.6,394.2,257.1,394.2,265.2,394.2z"/>
</g>
<g display="none">
	<path display="inline" d="M250.7,603.8c-20.2-0.1-39.6-4.5-58.2-12.1c-2.3-1-4-0.9-6.3,0.4c-18.8,10.4-37.6,9.9-55.5-1.7
		c-17.4-11.3-24.7-28.2-23.8-48.8c0.2-3.7,1.2-7.4,2.3-10.9c0.9-2.6,0.4-4.5-1-6.6c-11-16.3-18.8-33.9-21.8-53.5
		c-6.7-44.4,17.8-79.8,61.9-89.1c25.9-5.5,51.2-2.1,75.7,7c5.1,1.9,9.5,5.9,14.1,9.1c20.8,14.4,41.5,29,62.3,43.4
		c7.9,5.4,12.7,13.4,17.6,21.1c13.3,20.9,21.3,43.4,20.4,68.5c-1.3,32.3-23,59.7-55.3,68.5c-10.5,2.9-21.5,3.9-32.2,5.8
		C250.8,604.6,250.8,604.2,250.7,603.8z M160,516.5c-16.8,0-29.8,12.9-29.8,29.7c0,16.7,13.2,29.8,29.9,29.7
		c16.5,0,29.5-13.1,29.6-29.6C189.7,529.5,176.8,516.6,160,516.5z"/>
	<path display="inline" d="M554.5,33.7c-73,107.9-145.7,215.4-218.6,323.1c-14.5-10.1-28.5-19.9-42.6-29.7
		C366.7,220,440,113,513.6,5.7C527.1,15,540.5,24.1,554.5,33.7z"/>
	<path display="inline" d="M540.7,95.8c8.7,3.8,16.7,8,25.1,11c22.7,7.9,41.5,2.2,56.5-16.5c1.6-2,3.1-4,4.9-6.2
		c18,12.3,35.9,24.6,54,37c-7.2,10.6-14.3,20.9-21.5,31.4c-10.2-6.4-20.2-12.6-30.5-18.9c-4.3,6.9-8.5,13.5-12.8,20.3
		c-6.3-3.9-12.4-7.7-18.8-11.6c-4.6,7.5-9.2,14.7-13.9,22.3c15.9,9.9,31.5,19.6,47.5,29.6c-7.6,11.1-15,21.9-22.6,33
		c-6.3-3.9-12.4-7.6-18.3-11.5c-1-0.6-1.7-2.3-1.8-3.6c-1.2-12.1-9.2-21.7-20.6-24.3c-11.6-2.7-23.5,2.2-29.4,12.3
		c-6.1,10.3-5,22.9,2.8,31.8c7.8,8.9,20,11.5,31.2,7c1.5-0.6,3.9-0.4,5.3,0.4c5.2,2.9,10.3,6.2,15.9,9.7
		c-12.1,17.7-24.1,35.2-36.4,53.1c-18.1-12.4-36-24.7-53.4-36.6c2.8-6.6,6.1-12.7,7.9-19.2c3.6-13.2,0.1-25.4-8.4-35.8
		c-6.9-8.4-15-15.9-23-24.3C500.2,156.5,520.5,126,540.7,95.8z"/>
	<path display="inline" d="M353.1,405.2c0,9.4-9.8,22.3-18.9,24.8c-3.8,1-7.3,0.8-10.7-1.6c-32.4-22.6-64.7-45.2-97.2-67.8
		c-5.3-3.7-7-8.9-6-14.7c1.5-9.1,6.5-16.1,14.6-20.5c5.9-3.2,11.6-2.4,17.3,1.7c26.2,18.5,52.6,36.8,79,55.2
		c5.3,3.7,10.4,7.5,15.8,11C351.5,396.1,353.2,400.2,353.1,405.2z"/>
</g>
<g id="Hr2qo7_1_" display="none">
	<g display="inline">
		<path d="M599.3,602c-12.1-4.5-20.6-12.1-21-25.9c-0.3-10.7,6.3-19.5,15.8-21.7c9.1-2.1,17,2.6,21.9,12.9c1.3-5.7,0.5-8.7-4.1-14.9
			c-8.3-11.1-19.9-17.8-32.2-23.5c-22.1-10.3-45.6-16-69.6-18.4c-45-4.4-90.1-7.4-135.1-11.6c-35.5-3.3-71.1-6.7-105.7-16
			c-11.2-3-21.1-8.3-26-17.8c4.1-7.4,10.6-13.9,10.7-20.5c0.1-6.5-6.3-13.1-10.2-20.4c7.4-6.2,15.6-13.1,24-20.2
			c6.4,5.7,12.5,11.2,18.7,16.5c16.2,13.8,36,19.1,56.2,22.3c36.1,5.6,72.3,9.8,108.4,15.2c47.2,7,93.1,18,134.6,42.8
			c6,3.6,11.5,7.8,18.4,12.4c-2-12.1-3.8-23.1-5.6-34.1c-6.8-41.7-13.7-83.4-20.5-125.1c-7.7-46.8-15.4-93.6-23.1-140.4
			c-2.1-12.6-3.8-25.3-6.3-37.8c-1.1-5.8,0.9-8.9,6.4-11.4c2,11.5,3.9,22.6,5.7,33.7c8.3,50.3,16.5,100.5,24.7,150.8
			c9.1,55.5,18.2,111.1,27.5,166.6c0.5,3.2,3.1,6.6,5.6,8.8c18.1,15.6,23.1,34.9,17.4,57.5c-3,12.2-11.9,17.7-23.2,20.3
			C608.4,602,603.9,602,599.3,602z"/>
		<path d="M97,35.2c5.4-16.7,18.7-21.9,34.3-23.7c18.9-2.2,35.3,4,50.3,15.2c2.6,1.9,5.5,3.8,8.5,4.7
			c103,29.8,206.1,59.5,309.2,89.2c5.9,1.7,11.8,3.5,18.2,5.3c-3.1,4.9-6.3,6.9-12.3,5.1c-87.8-25.6-175.6-50.9-263.5-76.2
			c-14.2-4.1-28.4-8-42.6-12c20,41.3,22.1,85.2,19.2,129.4c-1.5,21.9-6.1,43.7-11.2,65.1c-10.6,43.8-1.9,83.5,23.3,120
			c3.9,5.6,3.2,8.5-2.1,12.2c-6.2,4.4-11.7,9.9-17.7,14.5c-1.4,1.1-4.4,1.5-5.8,0.8c-6.2-3.2-11.9-2.1-17.7,0.8
			c-8.7,4.3-12.9,3.2-18-5c-11-17.7-14.3-37.3-12.8-57.6c3.2-45.2,11.3-89.5,21.7-133.6c7.4-31.5,10.6-63.4,7-95.8
			c-2.8-25.1-14.8-43.8-37-55.8c-3.8-2.1-8.5-2.9-12.9-3.4c-2.5-0.2-5.1,1.6-8.6,2.8c5,1.7,9.5,2,12,4.5c2.5,2.4,3.7,6.8,4.2,10.6
			c1.3,10.1-3.3,17.3-12.3,20.3c-10.5,3.5-22.5,0.1-26.8-8.2c-2.7-5.2-4.4-11.1-6.5-16.6C97,43.4,97,39.3,97,35.2z"/>
		<path d="M675,68.7c-27.6,21.4-55.2,42.7-82.7,64.2c-3.3,2.6-6.3,4.1-9.9,1.5c-10.8-7.7-18.5-4-28.1,4.1
			c-101,85.3-202.5,170-303.8,254.9c-16.8,14-33.6,28.1-50.9,42.5c5.6,6.3,11,12.4,17.3,19.5c-24.1,5.4-47.1,10.6-72,16.1
			c10.7-22.3,20.7-43.1,31.1-65c5.3,6.6,10,12.5,15.2,19c5.5-4.5,10.8-8.9,16.2-13.3c83.9-70.3,167.8-140.6,251.8-210.9
			c31.3-26.3,62.6-52.6,94.1-78.7c3.6-3,4.8-6.1,3.1-10.1c-5.6-13.6-1.2-23.2,9.2-33.3c21.2-20.6,40.8-42.7,61-64.2
			c0.6-0.7,1.5-1.2,3.2-2.5c-1.2,17.9-2.3,34.7-3.5,52.1c16.5,0.6,32.5,1.1,48.5,1.7C675,67,675,67.8,675,68.7z"/>
	</g>
</g>
<g id="IDZXXl_1_" display="none">
	<g display="inline">
		<path d="M97.6,9.8c12,3.7,18.9,5.7,28.5,9.1c99.2,34.6,97.7,36.7,169.4,112.9c66,70.1,132.5,139.7,198.8,209.5
			c3.6,3.8,7,7.6,9.8,10.6c-24.7,24.7-48.9,48.9-74.3,74.3c-17.3-16.3-36.3-34-55.1-51.9C299.4,302.8,224,231.4,149,159.6
			c-7.2-6.9-13.1-16.2-16.8-25.5c-16.9-41.9-32.8-84.2-49-126.3C87.9,7.7,92.2,8.5,97.6,9.8z"/>
		<path d="M399,505.9c46.1-76.8,107.7-138.5,186.8-186c7.3,8.6,16.1,18.9,26,30.5c-20.9,19.9-43.5,41.5-67.4,64.2
			c27.1,27.2,52.2,52.6,77.7,77.5c2.9,2.8,8.2,3.4,12.6,4.3c30.2,6,48.7,27.4,47.3,55.1c-1.4,27.9-23.7,50.2-51.6,51.6
			c-27.9,1.5-50.1-17.1-56-46.5c-0.9-4.4-1.7-9.6-4.6-12.6c-24.6-25.3-49.6-50.1-75.5-76.1c-22.7,23.6-44.2,46-67.2,69.9
			C416.3,525.5,407.6,515.6,399,505.9z"/>
	</g>
</g>
<path display="none" d="M286.2,500.1c9.5-5,19.1-10,29.1-15.3c-21.1-26.3-39.9-53.8-56.4-83.3c-6.5,7.5-13.6,13.5-22.2,17.4
	c-15.4,7-31.4,7.4-47.6,3.4c-16-4-35.5-14-45.5-23.6c18.7,2.4,35.7-0.6,50.6-11.7c14.9-11.1,23-26.5,27.4-44.5
	c-6.6,0.4-12.9,1-19.1,1c-28.6,0-52.9-11.2-73.8-30.1c-25.9-23.6-40.6-53.6-48.6-87.3c-0.1-0.4-0.1-0.8-0.1-1.2
	c0-0.2,0.1-0.5,0.4-1.2c20.7,24,45.8,40.1,77.7,43.9c13,1.5,25.9,0.6,39-3.2c-53.9-27.9-88.5-70.7-102.8-129.1
	c-8.5-34.8-6.6-69.4,4.7-104.4c14.3,55.2,45.6,96.4,94.5,125.3c-16.7-51.8-7.1-97,29.6-137.1c-1,9.3-2.4,17.8-2.8,26.4
	c-1.2,27.5,6.1,52.8,21.1,75.7c15,22.9,35.1,39.8,60.8,49.2c7,2.6,15.1,2.5,22.8,2.9c42.1,2.2,84.1,2,126.2-0.7
	c6-0.4,11.7-1.7,17.2-4.3c45.2-21.9,70.5-57.9,76-107.8c1.4-12.5,0.2-24.9-2.3-37.1c-0.2-1-0.3-2.1-0.5-4.2
	c18.3,18.6,29.9,39.7,35.2,64.2c5.2,24.4,3.3,48.3-4.9,72c48.5-28.1,79.8-69.1,93.9-123.2c6.4,12.3,14,52.7,7.7,89.9
	c-5.2,30.7-16.8,58.7-35.2,83.7c-18.5,25.1-41.9,44.3-69.6,58.6c47.1,11.1,84.7-5.5,116.7-40c-1.5,5.5-2.8,11.1-4.5,16.6
	c-9.4,29.9-24.7,56.2-49.2,76.4c-22.5,18.6-48.3,27.9-77.7,25.9c-1.8-0.1-3.5-0.5-5.2-0.7c-1.6-0.2-3.2-0.3-5.4-0.5
	c4.3,18,12.3,33.3,27.1,44.5c14.9,11.3,32,14.5,51.2,11.9c-1.3,1.2-2,1.9-2.8,2.5c-14.9,11.2-31.1,19.7-49.7,22.6
	c-24.9,3.9-46.4-2.5-63.4-22.6c-17.4,31-37.4,60-59.9,87.7c9.7,5.1,19.2,10,29.3,15.3c-6.1,8.3-11.8,16.5-18,24.2
	c-20.8,25.9-44.9,48.4-71.6,68.1c-1.6,1.2-2.8,2.2-4.9,0.6c-33.3-24.6-63.6-52.2-87.6-86.3c-2.1-3-4.1-6.1-6.1-9.1
	C286.5,501.2,286.5,500.8,286.2,500.1z M381.8,524c9.6-10.2,18.5-19.5,27.1-29c37-41.1,68.3-86,92.1-136
	c23.4-49.1,38-100.6,42.9-154.8c0.6-6.4,0.8-12.8,1.2-19c-108.8,17.8-216.9,18-325.2,0c0,1-0.1,2,0,2.9c2.1,18.7,3.4,37.5,6.6,56
	c7.6,44.9,22.7,87.3,43.3,127.8c19.3,38.1,43,73.3,70.6,105.8C353.5,493.3,367.6,508.2,381.8,524z M467.7,327.9
	c0,6.4-5.2,11.6-11.6,11.6h-50.3v50.3c0,6.4-5.2,11.6-11.6,11.6H371c-6.4,0-11.6-5.2-11.6-11.6v-50.3h-50.3
	c-6.4,0-11.6-5.2-11.6-11.6v-23.2c0-6.4,5.2-11.6,11.6-11.6h50.3v-50.3c0-6.4,5.2-11.6,11.6-11.6h23.2c6.4,0,11.6,5.2,11.6,11.6
	v50.3h50.3c6.4,0,11.6,5.2,11.6,11.6V327.9z"/>
<path display="none" d="M583.2,431.5c-0.2,1.7-0.2,2.2-3.3,5.3c-3.1,3.1-4.7,8-4.7,8s-1.2-5.2,0.7-7.2c1.9-2.1,4.4-5.2,4.7-7.4
	c0.2-2.2,0.4-3.9-1-6.9c-1.4-2.9-2.4-4.7-4.9-7.2c-2.6-2.5-4.1-3.8-5.7-5.1c-1.6-1.3-4.3-1.6-9.3-2.6c-5-1.1-7.4,0.4-10.1-1
	c-2.7-1.4-7.4-5.2-7.4-5.2s2.7,1.4,5,1.1c0,0,7.2,1.2,10.6,1.6c3.3,0.4,7.2,1.3,10,1.6c2.8,0.2,7.9-0.4,7.9-0.4s-5.4,3.9-1.2,7.2
	c4.2,3.2,4.1,3.8,6.4,4c2.2,0.2,3.7,2.6,3.7,2.6l0,6.2l-2.5-3.6C581.9,422.3,583.4,429.8,583.2,431.5 M526.2,385.8
	c-6.7-0.6-9.5-0.9-13.4-1.3c-3.9-0.4-6.1-1.2-10-1.6c-3.9-0.4-23.3-3.9-29.1-7.4c-5.9-3.4-7.4-5.2-12.4-5.7c-5-0.5-2.8-0.8-12.4-17
	c-9.7-16.2-3.9-29.7-3.9-29.7s-1.4,3.2-2.7,4.8c-1.3,1.5-0.3,14.6,0.9,19.8c1.2,5.2,7.8,12.6,7.8,12.6s-6.5-2.3-9-6.5
	c-2.4-4.2-3.3-6-2.9-10.4c0.5-4.5-1-12.5-0.6-17c0.4-4.5,0.6-11.8,0.6-11.8s-2.3,0.3-2.1-1.4c0.2-1.7-3.5-4.3-6.8-5.2
	c-3.3-0.9-5.2,1.7-5.2,1.7s0.2,3.4,3.1,8.2c1.5,2.5,2.9,6.9,4,10.8c1.2,3.3,1.6,6.7,1.6,6.7s-0.6-3.1-1.6-6.7
	c-0.6-1.6-1.4-3.2-2.3-4.4c-3-3.7-5.4-7.9-6.3-10.8c-0.8-2.9,0.9-3.3-1.4-3.5c-2.2-0.2-5.7,1.1-5.7,1.1s-2.2,4.9-2.4,7.1
	c-0.2,2.2-1.6,5.5-2.4,13.3c-0.8,7.8-2.2,22.4-2.2,22.4s-0.2-3.4-0.6-5.7c-0.4-2.3,0.1-7.3,0.6-12.3c0.5-5,0.8-7.8,1.2-12.3
	c0.4-4.5,0.8-8.4,1.1-11.7c0.3-3.4,1.8-6.6,4.4-4.7c2.6,2,7.2,1.3,7.4-0.9c0.2-2.2-1.6-0.7-3.3-0.9c-1.7-0.1-3-4.2-3-4.2
	s-4.8-2.7-7.1-1.8c-2.3,0.9-1.8,1-6.3,1.1c-4.5,0.1-3.9-0.4-8.4,0.9c-1.7,1.1-3.5,2.2-5.3,3.2c-1.8,1.7-2.8,3.4-2.8,3.4
	s3.6,4.3,6,7.4c2.5,3.1,2.6,2.5,3.2,8.2c0.5,5.7-0.5,5-0.9,8.4c-0.3,3.4,1.4,3.5,1,7.4c-0.4,3.9-7.1,14.5-7.5,19
	c-0.4,4.4-3.4,11.5-3.4,11.5s0.9-9,2-15c1.1-5.6,2.1-5.9,3.8-8.4c0.2-0.2,0.4-0.5,0.5-0.7c2-3.2,0.2-19.2-0.2-20.9
	c-0.4-1.7-1.4,7.8-2.2,10.5c-0.8,2.7-3.7,3.6-8.1,8.2c-4.4,4.7-4.2,3-5,5.7c-0.9,2.7-8.6,7-8.6,7s-0.2,7.3-0.5,10.7
	c-0.3,3.3-0.6,6.7-2,9.4c-1.4,2.7-7,7.7-8.8,9.3c-1.8,1.5-6,3.3-7.9,5.4c-1.9,2.1-8.1,2-12,1.6s-10.8,0.6-13.7,1.5
	c-2.9,0.9-7.5,1.6-9.8,1.9c-2.3,0.4-14.9,2.5-18.9,3.2c-4,0.7-9.2,1.9-11.8,5s-4.2,3-7.7,3.8c-3.4,0.8-7.3-0.1-10.3,1.2
	c-2.9,1.4-10.1-1-12.9-0.1c-2.1,0.6-6.5-0.2-10.3-0.8c-0.6,1.5-2.2,4.9-4.9,5.5c-3.4,0.8-6-2.3-8.1,2c-2.1,4.3-0.7,6.7-6.3,6.7
	c-5.6,0-5.7,1.1-5.7,1.1l-0.5,4.6c0.1,1.5-0.1,3.2-0.3,4.4c-0.1,0.7-0.2,1.1-0.2,1.1l0.5-5.5c-0.1-1.2-0.5-2.2-1.5-2.5
	c-2.7-0.8-5.4-2.8-5.4-2.8s1.9-2.1,5.4-2.8c3.4-0.8,10,1.5,10.4-2.4s2.7-10.4,2.7-10.4s-1.4,8.3,1.7,5.8c3.1-2.5,7.3,0.1,8.7-2.5
	c0.7-1.3,1.6-2.1,2.3-2.5c-1-0.1-1.8-0.3-2.6-0.4c-3.9-0.4-15.1-13.3-15.1-13.3s6.7,6.9,10,7.7c3.3,0.9,5.9,3.4,8.6,4.2
	c2.8,0.8,9,0.9,13.6-0.9c4.7-1.8-1.3,1.6,9.6,0.4c10.8-1.2,7.2,0.7,10.8-1.2c3.6-1.9,7.4-6.6,7.4-6.6s12.7-2.7,14.4-3.1
	c1.7-0.4,13.1-1,15.4-1.8c2.4-0.9,17.4-5.1,19.7-4.8c2.3,0.2,2.1,1.3,4.3,2.1c2.2,0.7,6.7,0.6,9.2-1.9c2.5-2.6,2.1-4.3,5.5-5.1
	c3.5-0.8,4.7-1.8,8.4-5.4s2.4-7.1,3.9-10.9c1.5-3.8,1.5-9.5,1.3-7.8c-0.1,1.7-5.5,4.5-8,7.1c-2.5,2.6-7,2.1-7,2.1l-1,3.9
	c0,0-5.1,0-7.4,0.4c-2.3,0.4-3.6,2.5-5.4,2.8c-1.7,0.4-3.7,3.6-6.6,4.4c-2.9,0.9-4.5,0.1-8.1,1.5c-3.5,1.4-6.4,2.2-10.5,4.1
	c-4.1,1.9-9.7,0.7-15.4,1.3l-4.6,0.7c0,0-6.1-0.6-9-0.4c-2.8,0.3-8.4-0.8-8.4-0.8s-5.5-1.6-7.7-1.8s-3.9-0.4-7.2-0.7
	c-3.3-0.3-4.5-0.4-9.3-2.6c-4.8-2.2-3.6-3.2-6.4-9.1c-2.8-5.9-6.2-11.3-9.2-15c-3-3.7-2.6-7.6-5.4-13.5c-2.8-5.9-0.7-15.9-0.7-15.9
	c0.4,7.9,3.6,3.8,5.1,0c1.5-3.8,2.4-7.1,0.5-11.2c-1.8-4.2-6.9-4.1-6.9-4.1l-3-3.7l1.4-2.7c0,0,2.7-4.8,1.2-6.1
	c-1.6-1.3-2-2.5-2.8-5.9s-1.1-5.8,0.3-9c1.5-3.2-1.7-5.8,0-11.3c1.6-5.5,18.9-9.4,18.9-9.4s-5.8,1.7-6.6,3.9
	c-0.8,2.2-6.4,2.2-8.2,3.7c-1.8,1.5-1.3,7.2-2.2,10.5c-0.9,3.3-1.9,7.7,0.6,11.3c2.5,3.6,3.7,2.1,3.7,2.1s4.3-3.6,5.2-6.9
	c0.9-3.3,6.4-7.2,9.6-11.4c3.2-4.2,8.3-8.2,12.3-8.4c4-0.2,12.9,2.1,17.6-0.2c4.8-2.4,7.6-2.7,12.6-2.2c5,0.5,13.5,0.2,13.5,0.2
	s-5.8-4.5-13-5.8c-7.2-1.3-19.1-0.7-19.1-0.7s11.6-2.8,16.6-2.3c5,0.5,11.1,1.6,15.4,4.3c4.3,2.7,10.7,6.1,15.5,8.8
	c4.8,2.7,11,4.5,15.2,7.2c4.3,2.7,15,7,18.8,9.1c3.7,2.1,11.4,5.9,11.4,5.9s0.3-2.8,0.4-4.4c0.2-1.7-2.6-7.6-4.9-12.9
	c-1.6-3.6-3-5.9-4.7-8.1c-6.9-2.9-14.3-6.1-16-6.8c-3.3-1.2-15.5-5.6-15.5-5.6s0-1.1-2.1-2.3c-2.2-1.2-16-8.5-18.8-9.7
	c-2.8-1.2-13.7-10.6-23.1-14.9c-9.4-4.2-25.8-1.4-25.8-1.4s12.5-3.5,20.3-2.7c7.8,0.8,15,5,17.2,6.8c2.2,1.7,10.4,6.5,15.9,10.6
	c5.5,4.1,12.2,4.9,16.5,9.6c4.3,4.7,12.8,3.8,19.9,8c2.3,1.4,5.5,3.2,8.9,5.1c0,0-0.1-0.1-0.1-0.2c-3-3.7-11.9-17-14.3-21.7
	c-2.3-4.7-13.7-4.2-18.7-5.2c-4.9-1-18.1-5.7-18.1-5.7s9.3,2.6,16.6,3.3c7.3,0.7,13.9,2.5,19.4,3.6c5.5,1.1,16.3,23.6,18.7,27.8
	c0.1,0.1,0.1,0.2,0.2,0.2c6,3.4,11.6,6.5,11.6,6.5s-4.7-2-10.3-4.4c2.7,4.2,6.8,9.7,8.4,12.7c1.9,3.6,2.7,18.8,3,21.1
	c0.4,2.3,0.5,11.9,0.1,16.3c-0.4,4.5,2.9,5.4,4.3,8.3c1.4,2.9,2.9,5.4,2.9,5.4c2.1-3.7,1.6-11.1,1.6-11.1s2.1,7,1.7,11.4
	s-1.1,5.5-3.6,8.1c-2.5,2.6-5.1,11.9-5.1,11.9s2.9-1.4,4.3-4.1c1.4-2.7,4.4-4.7,6.3-6.7c1.9-2.1,3.3-4.7,7.4-6.6
	c4.2-1.8,1.6-4.3,2-8.8c0.4-4.5,3.4-5.9,4.2-8.1c0.8-2.2-3.8-7.1-6.6-8c-2.4-0.7-4,8.3-4.3,10.4c0,0.1,0,0.3-0.1,0.4
	c0,0,0-0.1,0.1-0.4c1-5.9,0.4-10.8-2.2-12.2c-2.7-1.4-2.5,2.6-3.8,4.7c-1.4,2.1-0.2-4,0.2-8.5c0.4-4.4,4.1-1.3,4.1-1.3
	s-1.6,4.9,5.4,2.8c1.7-0.5,3.6-1.4,5.5-2.5c1.3-1.3,3.1-2.7,5.2-3.2c0.1,0,0.1,0,0.1,0c4-2.6,7.6-4.9,9.3-4.7
	c3.4,0.3,4.8-3.5,8.2-3.2c3.3,0.4,2.5-2,2.8-5.4c0.3-3.3,0.6-6.1,3.3-10.4c2.7-4.2,13.1-13.3,13.1-13.3s-5,5.1-5.2,7.4
	c-0.2,2.2-4.3,4.1-6.5,9c-2.2,4.9-2.3,6.5,0.1,10.7c2.4,4.2-0.4,3.9-0.6,6.1c-0.2,2.2,3.8,1.5,3.8,1.5s1.4,3.5,4.7,3.8
	c3.4,0.3,4-0.7,4-0.7s3.3,0.9,3.7-3s-4.5-11.7-1.4-14.8c3-2.9,7.5-5.7,10.3-6.2c-4.2-1.6-8.5-3.8-8.5-3.8s7.8,0.9,9.5,0.9
	c1.7,0.1,0.4,5.6,7.4-0.9c7-6.5,5.2-4.9,7-6.5c1.7-1.6,9.2-5.9,9.8-7.5c0.6-1.6,7.1-8.7,9.4-10.9c2.3-2.2,6.4-7.6,7.6-9.9
	c1.2-2.2,10.9-5.8,11.5-8c0.6-2.2,3.6-4.9,5.3-5.4c1.7-0.5,1.8-2.7,4.6-3.8c2.8-1,4.6-3.2,6.3-3.2c1.7,0.1,9.6-3,9.6-3
	s-11.4,6.3-13.8,8.5c-2.3,2.1-5.8,5.9-8.7,9.2c-2.9,3.3-8.7,6.4-12.1,9.1c-3.5,2.7-11.1,10.3-13.4,13.6c-2.3,3.3-9.2,7.5-11.6,11.9
	c-0.4,0.7-1,1.5-1.6,2.2c0.3-0.2,0.6-0.4,1-0.5c3.5-1.4,8.8-9.3,11.3-11.9c2.5-2.6,9.5-4.7,14.2-7.1c4.8-2.3,14.5-4.2,23-3.9
	c8.4,0.3,26,5.4,26,5.4s-6.6-1.2-13.4-1.9c-6.7-0.6-30,1.6-37.1,4.3c-7,2.7-11.4,7.4-12.8,9.5c-1.4,2.1-9,5.9-11,8.5
	c-2,2.6-4,6.4-6.1,10.1c-2.1,3.7-4.9-1.6-7.9,0.4c-3,2-13,6-12.3,10.6c0.7,4.6,2.9,11,3.8,13.3c0.9,2.4,4.6,4.4,4.9,1.6
	c0.3-2.8,0.8-7.8,0.8-7.8s6.3-7.3,10.5-9.7c4.2-2.4,12.7-7.4,15.6-8.8c2.9-1.4,10.7-7.7,15-10.7c4.2-3,11.1-0.4,14.1-1.8
	c2.9-1.4,6.9-3.3,10.8-3c3.9,0.4,13.7-3.4,12.4-1.8c-1.3,1.6,8.5-0.5,12.9,0.5c4.4,1,8.3,2.1,10.8,5.2c2.5,3.1,12.8,7.5,15.2,11.1
	c2.5,3.6,7.5,9.8,8.3,13.2c0.8,3.4,2.3,5.3,2.3,5.3l2.8,0.3c2.8,0.3,4.2,8.8,4.2,8.8s-2.4-4.2-5.2-3.9c-2.9,0.2-4,0.2-2.6,3.7
	c1.4,3.5,1.8,4.1,1.5,8.1c-0.4,3.9-2.8,5.9-5.3,8.5c-2.5,2.6-0.9,3.8-0.1,6.8c0.8,2.9-0.2,7.9,1.9,3.6c2.1-4.3,3.3-10.9,3.3-10.9
	s-0.8,8.4-1.1,11.2c-0.3,2.8-0.8,7.9-0.5,10.7c0.3,2.9-0.6,6.2-2.5,7.7c-1.8,1.5-5.2,7.4-5.6,11.3c-0.4,3.9-4.9,4-5.7,6.8
	c-0.8,2.7-5.6,5.1-8.2,8.8c-2.6,3.7-5.4,3.4-10.6,4.1C536.9,386.9,532.9,386.5,526.2,385.8 M499.1,530.4c-1.5,2.4-1.8,5.3-2.5,7.8
	c-0.6,2.5-0.8,8.4-0.8,8.4s-0.8-9-2.3-11.7c-1.4-2.7-2.6-4-3.3-0.7c-0.7,3.3-2.6,9-2.6,9s0-4.6-0.1-8c-0.1-3.4,0.7-7.5-2-6.1
	c-2.7,1.4-2.7,1.4-4.1,2.5c-1.4,1.1-4.1,19.9-4.3,22c0,0,1-22.8,0.3-24.9c-0.6-2.2,0-4.2-2.9-4.5c-2.9-0.3-4.5-1.3-4.5-1.3
	s1.4-1.6,3.6-1.8c2.1-0.2,4.7-0.4,6.1,1.9c1.5,2.2,1.1,6,3.4,4.1s4.1-3,5.7-2.4c1.7,0.6,0.9-0.8,2.7,2.4c1.8,3.1,0.7,5.5,3.6,2
	c2.9-3.5,5-3.3,5.6-5.4c0.6-2.1,4.9-2.1,4.9-2.1S500.6,528,499.1,530.4 M461.3,506c-0.3,2.9-2.9,12.4-3.5,14.5
	c0,0-3.2-10.4-4.2-13.1c-1-2.6-6.6-14.2-7.2-16.8C445.8,488,448,478,448,478s1.5,1.8,2.3,6.1c0.9,4.3,1.7,4,3.5,7.5
	C455.6,495.3,461.6,503.1,461.3,506 M475.4,461.1c-3.3-5.2-9-14.2-9.4-17.7c-0.7-5.1-3.8-9-6.2-16.2c-2.3-6.8-7.4-28.9-7.4-28.9
	s12.4,30.7,13.9,36.7c1.5,6,5.5,11.2,5.4,16.2C471.5,454.1,473.6,458.2,475.4,461.1c1.5,2.2,2.5,3.7,2.5,3.7
	S476.7,463.3,475.4,461.1 M490.2,513.9c0,0-1-3.1-2-5.7c-1-2.6-1.8-2.7-2.8-5.8c-1-3.1-0.8-0.5-2.9-4.5c-2.2-4-1.7-4-2.5-5.3
	c-0.7-1.4-0.4,0-1.8-2.7c-1.4-2.7-0.7-1.8-2.9-4.5l-2.3-2.7l-5.3-6.4l13.4,14.4l6.9,7c0,0,2.1,4.9,1.9,6.5
	C489.7,505.8,490.2,513.9,490.2,513.9 M442.6,364.2l5.8,3.6c0,0-0.1,2.6,2.5,2.6c2.5,0.1,6.6,3.6,6.6,3.6l6.7,1.9
	c0,0-4.3,2.4-8.5,1.4C451.5,376.3,442.6,364.2,442.6,364.2 M454.7,385.1c11.6,8.4,20.6,13.8,20.6,13.8s-17.8-8.5-28.8-17.4
	c-10.9-9-19.7-23.4-19.7-23.4S443.1,376.6,454.7,385.1 M379.4,396.5c3.3-3.5,6.6-11.2,6.6-11.2s-1.4,0.7-3.8,3.8
	c-2.4,3.2-7.5,7.7-7.5,7.7s3.2-6.5,4.2-8.1s5.3-6.3,7.5-7.3c2.2-1.1,4.7-0.4,7-1.9c2.2-1.5,2.2-1.5,2.5-3.6s4.2-3.4,5.9-4.5
	c1.8-1.1,5.9-3.6,5.9-3.6s-0.2,2.1-0.4,3.8c-0.2,1.7,2.1,4,2.3,6.6s-1.6,3.6-2,7c-0.3,3.3-1.7,4.9-1.1,7.5c0.6,2.6,0.8,4.3,0.5,7.2
	c-0.3,2.9,0,8.4,0,8.4s1.4-5.3,2.8-6.9s0.7-2.5,0.4-4.2c-0.2-1.7,0.6-6.7,2.1-8.7c1.5-2,0.3-11.4,0.1-13.5c-0.2-2.1,1.1-7.1,1.1-7.1
	l4.3-5.1c0,0,0.1,3,1.6,5.7c1.4,2.7,4.8,6.8,4.8,6.8s3.4,3.7,6,7.4c2.6,3.6,7.7,11.8,7.7,11.8c-2.6-4.1-7-6.6-7-6.6s-0.3,3.4-0.5,5
	c-0.2,1.7-0.1,5.5,2.5,9.1c2.6,3.7,1.9,6.5,1.3,8.6c-0.6,2,0.8,4.7,0.9,8.5c0,3.8,4.8,11.9,4.8,11.9c-0.2-1.7-1.8-7-1.8-7
	s4.4,6.4,6,7.8c1.6,1.4,1.5,2.2,2.1,4.8c0.6,2.6-0.6,6.3,0.8,9c1.4,2.7-1.8,4.9-2,7.4c-0.2,2.5-4.3,5.1-4.3,5.1
	c2.9-3.1-3.7-0.8-10.5,3.6c-6.8,4.4,4.8,2.6,4.8,2.6s-3.1,1.4-4.5,2.6c-1.4,1.1-6.1,1.9-7.9,2.6c-1.7,0.7-4.3,0.9-5.9-0.1
	c-1.6-1-5.3-2.6-5.3-2.6s-4.1-1.2-4.8-2.6c-0.7-1.3-1.8-2.7-4.2-4.2c-2.4-1.5-0.3-5.5-0.1-8c0.2-2.5,0.8-4.1,0.8-4.1s-2.6,0.1-3.8,0
	c-1.2-0.1,0-4.7,0.3-7.2c0.2-2.5,1.3-17.2,1.3-17.2s-3,8.6-2.9,12s-1.2,7.5-1.5,11.3c-0.4,3.8-0.2,6.8-3.8,4.7
	c-1.7-1-1.7-2.6-1.3-4.1c-0.7,1.4-1.5,3.1-2.2,5c-1.7,4.5-0.9,5,1.3,8.6c2.2,3.6,0,0,2.3,1.9c2.3,1.9,0,0,2.1,4
	c2.2,4-1.3,0.3-6.6,2.7c0,0-5.3,2-8.2,2.2c-2.9,0.1-4.2-0.4-5.4-0.5c-1.2-0.1-4.3-3.4-6-3.6c-1.7-0.2-4.4-2.9-4.4-2.9
	s-2.8-1.6-4.7-4.3c-1.8-2.7-1.9-6.1-1.9-6.1s0-4.2,1.7-8.3c1.2-2.9,1.9-7.5,2.1-9c-0.4,2.1-4.3,5.8-4.3,5.8s1.3-4.5,1.5-6.6
	c0.2-2.1,1.1-7.5,2.7-10.3c1.5-2.8,4.5-11.4,6.4-13.8c1.9-2.3,1.5-2.4,1.8-5.3c0.3-2.9,2.7-6.5,2.7-6.5l-0.4,4.2
	C371.9,404.6,376.1,400,379.4,396.5 M466.6,530.6c-0.2,2.6-2.8,2.3-3.9,5.2c-1.1,2.8-1.1,2.8-2.7,5.7c-1.5,2.8-3.2,6.9-3.2,6.9
	c-0.6-2.2-3.7-5.5-3.4-8c0.2-2.5-1.1-6-3.1-7.1c-2-1.1-5.9-0.6-7.6,0.5c-1.8,1.1-2.6,4.4-2.8,6.9c-0.2,2.5-3.5,1.4-6.2,3.2
	c-2.7,1.8-0.5,4.6,0.9,8.1c1.4,3.5,2.2,11.7,2.2,11.7s-0.1,1.3-0.2,2.1c0.2-2.1-1.7-8.6-2-9.9c-0.3-1.3-3.6-6.3-4.5-9.7
	c-0.9-3.5-1.7-7.8-1.6-9.9c0.2-2.1-4.2-4.2-6.6-5.8c-2.4-1.5-7.2,0.6-9.4,1.2c-2.2,0.6-3.1,5.6-3.3,7.3c-0.1,1.7,0.7,6,0.5,8.1
	c-0.2,2.1-3.9,5.5-4.3,8.9c-0.3,3.3-2.6,13.7-2.6,13.7s0.4-8.8-1.9-11.2s-2.8-5.4-2.9-8.8c-0.1-3.4-2-5.7-2.1-8.2
	c-0.2-2.5-3.6-7.1-5.2-7.2c-1.7-0.2-7.1-0.7-9.8,0.3c-2.6,1-6.9,6.1-7.2,8.6c-0.2,2.5,1.1,6.4,0.9,7.7c-0.1,1.3-1.7,4.9-2.3,6.1
	s-2,3.2-2.4,6.9c-0.4,3.8,1.8,16.2,1.8,16.2s-1.1-1.4-2.5-4.4c-1.4-3.1-0.6-11.1-1.2-13.7c-0.6-2.6-1.4-7.3-1.6-9
	c-0.3-1.7,1.4-6.2,2-7.9c0.6-1.6-3.9-3.7-5.3-6.4c-1.4-2.7-5.6-3.1-7.5-1.6c-1.8,1.5-1.7,4.9-2.8,6.9c-1.1,2-1.7,8.3-1.6,11.7
	c0.1,3.4-3,13.7-3,13.7s-0.7-6-1.4-7.7c-0.7-1.7-0.4-5.1-0.2-6.8c0.2-1.7-4.1-10.6-3.9-11.8c0.1-1.2-2.5-4.5-4.8-6.8
	s-9.5-2.2-9.5-2.2l-1.1,7.1c0,0,0,4.2,1.2,5.2c1.2,1,0.8,5.2,0.6,6.4c-0.1,1.2,2.6,12.5,2.6,12.5s-1.9-2.3-3.7-5.4
	c-1.8-3.1-3.1-3.3-2.8-5.8c0.2-2.5-2.5-12.9-3.2-14.7c-0.7-1.7-7.1-5.8-7.1-5.8s-0.6,2.5-0.8,3.7c-0.1,1.2,0.1,3-0.1,5
	c-0.2,2.1-0.9,4.6-1.1,7.5c-0.3,2.9,0.6,7.2,0.6,7.2s-3.2-6.6-3.4-7.9c-0.3-1.3,0.4-8.8,0.7-11.3c0.2-2.5-1.1-6-1.1-6
	s-1.9-2.3-1.8-3.6c0.1-1.3,1.9-1.9,3.9-1.3c2,0.6,2.6-0.6,2.6-0.6s2.5-3.6,3.1-5.6c0.6-2,3.2-7.3,3.4-9c0.1-1.7,3.3-7.7,5.1-9.2
	c1.8-1.5,11.3-15.8,12.8-18.2c1.5-2.4-2.1,8.3-4.8,10.5c-2.8,2.3-3.5,9.4-5.9,12.1c-2.4,2.7-1.6,12.1-1.8,13.8
	c-0.1,1.7,2.6,7.9,3.8,9.2c1.1,1.4,5.9-0.2,8.5-0.9c2.6-0.6,1.6-3.7,3.4,0.3c1.7,4,3.3,0.7,5.4,1c2.1,0.2,2-3.6,2.2-5.7
	c0.2-2.1,0.6-10.1,2.5-12.8c2-2.8,10.3-15.1,10.3-15.1s-1.3,8.7-2.9,12.4c-1.6,3.6-1.8,9.5-3.4,12.8c-1.6,3.2-3.7,11.9-3.7,11.9
	l4-1.7c0,0,5.5,0.1,8.2,2.5c2.7,2.4,4.2,0,6.3,0.2c2.1,0.2,4.2,0,5.3-2.1c1-2,5.3-1.6,7.7-1.3c2.5,0.2,4.3-0.9,5.4-2.9
	c1-2,5.2-0.8,7.8,2c2.7,2.8,6,4,6,4s1.4-1.6,1.1-2.8c-0.3-1.3-1-3.1-4.2-4.2s-2.9-4.9-4.2-8.5c-0.8-2-3.6-10.4-6-17.5
	c-2.3-5.1-4.2-11.2-3.6-10.1c0.3,0.6,1.8,4.9,3.6,10.1c0.5,1.1,1,2.2,1.5,3.1c2.8,5.4,4.8,6.8,7.2,12.1c2.5,5.3,2.7,7.5,5.3,10.2
	c2.7,2.8,4.9-2.5,4.9-2.5s5,0.5,7.5,1.6c2.4,1.1,3.3,1.2,6.2,1.5c2.9,0.3,5.2-1.2,7.4,2.4c2.2,3.6,3-0.6,4.3-0.4
	c1.2,0.1,1.2-3.3-2.1-4c-3.3-0.7-1.4-2.7-1.5-6.1c-0.1-3.4-1.7-4.4-1.5-10.3c0.1-3.3-0.5-7.9-1-11.3c-0.6-1.9-0.9-3.6-0.8-4.5
	c0,0,0.4,1.9,0.8,4.5c0.9,2.9,2.4,6.5,4.2,9.5c2.9,4.9,3.9,11.8,3.7,14.7c-0.3,2.9-1.5,6.2,0.6,6.4s4.9,2.2,5.5-0.3
	c0.7-2.5,5,0.9,7.5,1.1c2.5,0.2,5.4,0.5,8.4,0.4c3-0.1,5.3-2,7.4-2.2C467.3,527.3,466.8,528.1,466.6,530.6 M347,402.2
	c-4.4,4.9-18.8,6.1-28.2,11.7c-9.5,5.6-19.9,14.5-19.9,14.5s12.2-13,14.9-16.3c2.6-3.3,17.1-8.7,25.6-10.1c8.5-1.4,16.4-12,16.4-12
	S351.3,397.3,347,402.2 M317.3,431.5c0,0,3.3-2.6,7.3-5.8l0.9-2.1l1.5-3.7c0,0,1.5-2.1,3.3-4.1c1-1,1.9-1.9,2.8-2.5
	c2.6-1.6,6.9-3.2,6.9-3.2s-0.1,4.2-2.7,5.8c-1.5,0.9-7.5,5.6-12.6,9.6l-0.4,0.9L317.3,431.5z M311.9,466.7
	c16.9-26.4,39.8-55,39.8-55L311.9,466.7z M305.4,513.6c-0.7,2.9-0.1,1.2-0.6,5.9c-0.4,4.6,0,0-4.1,2.5l-3,0.1l2.1-4.4
	c0,0,0.9-5,1.1-6.7c0.2-1.7,2.9-3.9,3.5-5.2s2.4-7.4,2.6-8.6c0.1-1.2,4.4-6.3,5-8c0.6-1.6,8.8-7.6,8.8-7.6l-5.3,6.3
	c0,0-1.6,3.2-2.6,5.2c-1,2-0.8,4.2-1.5,6.2c-0.6,2-2.6,4.8-4.9,7.1C304.2,508.8,306.1,510.7,305.4,513.6 M304.4,561
	c-1.5-1.6-5.6-3.4-4.2-5.8c1.4-2.4,2.9,2.2,1.1-5c-1.8-7.2-0.6-6-2.6-8.5c-2-2.4-5.8-4.5-5.6-6.2c0.2-1.7-0.7-1.5-2-2.2
	c-1.4-0.7-0.9-2.9-2-3c0,0,8.8-0.3,11.2,1.4c2.4,1.6,6.5,2.3,6.3,4.6c-0.2,2.2,0.6,2.3,0.6,2.3l-0.6,6.4c0,0-0.1,3.4-0.3,5.6
	c-0.2,2.2-0.6,6.4-0.6,6.4s1.2,5.2,1.4,6.3C307.2,564.6,306,562.5,304.4,561 M256.5,163.3c6.3,1,7.1,0.4,7.2,0.2
	c0,0.1,0,0.4,0.6,1.1c2,2.5,8.2,8.1,8.2,8.1s-1.6,4.4,1.8,4.7c3.3,0.3,20.3-0.2,17.9,1.7c-2.5,2-10.3,7.5-10.8,13
	c-0.6,5.6-1.4,8.3-1.4,8.3l-5.5-0.5c-2.4,1.5-5.7,0-6.5,3.3c-0.9,3.3-3.8,4.2-3.8,4.2s0.4-4.5,0.9-9.5c0.5-5,0.5-5-3.1-9.3
	c-3.5-4.3-4.4-1-1.1-5.8c3.3-4.7,2.4-7.1,2.4-7.1s-2.3-4.7-7.9-5.3c-2.9-0.3-4.8,0.5-5.8,1.3c-0.5,0.9-1.2,1.4-1.2,1.4
	s0.3-0.7,1.2-1.4c0.9-1.4,1.4-3.7-1-7c-4-5.5-4.9-7.2-4.9-7.2S245.9,161.7,256.5,163.3 M327.9,223.3c2.6,2,17.9,1.7,20.5,4.3
	c2.6,2.5,6.4,4,9.9,7.7c3.6,3.7,15.2,10.3,11.6,8.5c-4.3-2.1-15.5-8.8-19.6-13.2c-4.1-4.3-14.9-3.1-18.3-3.4c-3.3-0.4-15-8.2-15-8.2
	S325.2,221.3,327.9,223.3 M601.9,396.7c-2.2-5.9-0.9-14.2,0.7-18.6c1.6-4.3-5.1-5-7.8-6.4c-1-0.5-1.7-0.9-2.3-1.2
	c-4.9,1.9-10.8,6.5-14.8,9.7l-4.3,3.7c0,0,1.7-1.6,4.3-3.7l8.8-7.6c0,0,1.2-1.1,2.2-2.6c-2.1,0.2-0.2-1.8,1.1-4.4
	c-0.4-1,0.4-3.1,1.5-5.4c1.2-5.5,2.6-13.5,2.8-16.2c0.4-3.9-0.8-20.4-0.6-22.6c0.2-2.2-1.2-17-0.7-22s-2.4-4.2-2-2.5
	c0.4,1.7-1.3,2.1-2.9,0.9c-1.6-1.3,0,0-0.6,6.1c-0.6,6.1-3.6,1.9-3.4,0.2c0.2-1.7-0.7-4-1.6-6.9c-0.9-2.9-5-1.1-5-1.1
	s-0.3-2.8,1.4-2.7c1.7,0.2,0.9-3.8,3.4-6.4c2.5-2.6-0.1-5.1-0.1-5.1s3.5-1.4,5.4-3.4c1.9-2.1,0.3-8.4-11.4-21.4
	c-11.7-13-36-23.8-36-23.8c23,6.8,33.3,17.3,33.3,17.3s-1.8-4.7-4.9-13.4c-3.1-8.8,4-23.3,5.4-31.6c1.4-8.3,7.5-30.8,7.5-30.8
	s-0.9,9-1.7,16.8c-0.7,7.8,0,11.8,0.2,15.8c0.1,3.4-2.7,12.2-3.5,14.7c0.4-1,1.7-3.2,5.5-6.6c5.6-5.1,7.2-16.2,7.2-16.2
	c-0.8,14-9.9,26.1-11.7,32.7c-1.8,6.6,0,11.3,2.1,19.4c2,8.1,4.8,8.4,7.9,17.1c3.1,8.7,6.4,27.1,6.8,22.7c0.4-4.5,0.6-29.3,1.7-40.4
	c1.1-11.2,4.3-49.8,3.2-73.6s-14.4-48.8-19.4-60.5c-5.1-11.8-41.3-44.6-54.8-56.6c-13.5-12-50.1-35.4-67.3-43.8
	c-17.2-8.5-68.1-12.3-87-9.6c-18.9,2.7-59.6,15.6-68,21c-8.4,5.4-49.1,34.7-55.9,41.3c-6.8,6.6-34.4,28.8-44.5,40.2
	c-10.2,11.4-23.9,42.8-26.3,49.9c-2.4,7.1-3.7,37.4-3.6,43.1c0,5.7,4.6,28.1,4.3,37.1c-0.3,9,1,18.7,2.4,27.3
	c1.4,8.6,5.8,33.3,5.8,33.3s2.8,5.4,4.8,8.9c1.9,3.6,6.1,12.5,6.1,12.5s3.1-2.6,4.1-6.9c1-4.4,3.8-21.6,5.7-24.3
	c2-2.6,3.1-13.8,3.5-18.3c0.5-4.5-2.2-11.5-2.2-11.5l3.1,3.1c3.1,3.1,6.3-1.1,6.6-3.9c0.3-2.8-2.3-5.3-4.9-7.8
	c-2.6-2.5-4.2,2.4-6.6,3.9c-2.4,1.5-7.3-12-7.3-12s3.1,2.6,5.7,5.1c2.6,2.5,5.6,0.5,5.6,0.5s-2.8-6.5-4.6-10.6
	c-1.8-4.1,3.2-3.6,7.9-5.4c4.7-1.8,10.2-5.8,10.2-5.8s-5.1-5.5-9.7-16.1c-4.6-10.6-1.6-18.2-0.4-24.8c1.2-6.6,2.2-16.2,2.4-18.9
	c0.3-2.8-9.6-17.3-11.3-23.1c-1.7-5.8,0.8-19.7,9.9-32.3C222.2,99,247.1,80,247.1,80s-6.2,5.6-12.4,11.8
	c-6.2,6.1-13.3,14.5-15.1,16.6c-1.9,2.1-8,12.2-9.6,17.7c-1.7,5.5-1.6,11.1-1.1,16.8c0.6,5.7,5.2,10.6,8.6,16.1
	c3.4,5.4,5.8,15.2,8.8,20c2.9,4.8,3.8,13.3,7.2,18.7c3.4,5.4,4.7,20.8,5.1,28.7c0.4,7.9-4.5,17-5.1,23.2c-0.6,6.1-11.5,14.1-15.1,16
	c-3.6,1.9-3.2,9.8-6.8,17.9c-3.6,8.1-6.5,20.2-5.8,24.8c0.7,4.6-4.5,28.9-5.4,37.8c-0.4,4.3-0.1,7.8-0.1,10.7
	c0.4,1.2,0.9,1.7,0.9,4.1c-0.2,4.2-0.1,3.3,4.8,6c4.9,2.7,3.3,2.7,4,6c0.7,3.4,1.6,3.4,5.7,6.1c4.1,2.7,2.5,2.6,2.3,5.1
	c-0.1,2.5-7.6-0.2-10-3.7c-2.4-3.4-1.6-2.6-2.3-6c-0.7-3.4-8.2-7-8.2-7s-3.9-1.1-7.6-1.4c-1,0.1-1.8,0.3-2.2,0.7
	c-1.3,1.6-5.1,5.7-8,7.1c-3,1.4-2.5,2-2.7,4.8c-0.3,2.8-2.3,6.5-3.7,20.5c-1.4,14,10.4,31.5,12.7,37.3c2.3,5.9,3.8,7.7,10.5,8.4
	c6.7,0.7,10.2,5.5,14.3,9.3c4.2,3.8,3.1,9.3,7,9.7c3.9,0.4,4.8-3.5,16.5-6.9s6.5,2.9,8.1,3.1c4.6,0.5,9.3,3.2,14.5,8.2
	c5.1,5,5.9,2.8,9.5,6.5c3.6,3.8,2.6,2.5,3.7,7.7c1.2,5.2,0.5,6.2,0.7,10.2c0.2,4,4.5,16.8,9.2,21.7c4.6,5,0.5,6.3,0.2,9
	c-0.2,2.8,2.3,5.3,2.3,5.3s2.8,6.5,2.6,8.1c-0.2,1.7-0.3,3.3,0,6.2c0.3,2.8,0.5,1.2,0.2,4c-0.3,2.8,1.8,4.7,3.7,8.2
	c1.9,3.6,3.1,8.2,6.6,13.6c2.3,3.6,2.6,6.5,2.6,8.1c0.1-1.2,0.3-3.2,0.5-4.9c0.3-2.8,5.6-5.1,5.6-5.1l0.9,2.9
	c0.9,2.9,7.1,2.4,7.1,2.4l2-2.6c0,0,0.5,1.2,0.7,4c0.3,2.8,9.5,26.7,13.9,30.5c2.7,2.3-0.6-19.3,1.8-20.7s2.2-9.7,2.2-9.7l1.2,4.7
	c0,0,2.4,4.2,5.5,6.8c3.2,2.5,3-2,3.8-4.2c0.8-2.2,4.9,1.6,5.3-1.7c0.3-3.3,2,2.5,2,2.5l1.9,3.6c0,0,3.3,0.3,5.4,2.8
	c2,2.5,5.4,2.8,8.7,3.1c3.3,0.3,3.2-4.2,3.2-4.2s0.4,1.7,2.4,4.2c2,2.5,4.3,2.1,8.2,2.5c3.9,0.4,18.1,0.1,21-1.4
	c2.9-1.4,3.3-5.3,3.3-5.3l0.9,2.9c0,0,3.1,3.1,8.6,3.7s18.6,0.1,20.4-0.8c1.8-1,3.9-5.3,3.9-5.3s1.5,2.4,3.1,3.7
	c1.5,1.3,3.3,0.9,6.1,1.2c2.8,0.3,4.5-5.8,8.1-7.7c3.6-1.9,3.9-5.8,3.9-5.8s0.6,6.7,3.8,8.7c3.2,2,4.5,13.6,4.5,13.6
	s0.5,1.6,3.3,1.3c2.8-0.3,3.9-21.8,4.8-25.1c0.9-3.3,1.2-6.3,1.2-6.3l2,2.4c2,2.5,1.3,4.1,2.9,5.4c1.6,1.3,2.1,1.3,4.4,1.5
	c2.2,0.2,0.9-3.3,2.9-6.5s4.2-2.9,5.1-5.7c0.8-2.7,0.7-7.8,0.7-7.8s1.4,2.9,2.9,5.3c1.5,2.4,2.5,3.1,2.5,3.1s1.6-4.3,4.2-8
	c2.6-3.7,3.7-14.3,5.1-17.5c1.5-3.3,1.6-16.2,0.9-20.2c-0.7-4,0.3-2.8,1.2-6.6l1.5-3.3c0,0,2.3-6,3.6-8.1c2-3.2,4.5-11.4,5.5-15.8
	c1-4.4,6.1-10.7,9.8-14.3c3.7-3.6,3.3-10.4,8.6-12.7c5.3-2.3,9.7-6.4,12.6-7.2c2.9-0.8-5.1-11.2-0.9-8c4.2,3.3,4,5.5,7.6,8.7
	c3.6,3.2,5-4.6,8.9-4.2c3.9,0.4,6.5-2.7,8.7-2.5c2.2,0.2,4.7-2.4,10.9-1.8c6.1,0.6,6.4-7.2,8.4-10.4c2-3.2,5.7-6.2,6.5-15.2
	C604.2,412.7,604.1,402.5,601.9,396.7 M297.8,577.2c0,0.7-0.1,1.2-0.1,1.2S297.8,577.9,297.8,577.2 M576.3,222
	c-0.2,0.5-0.2,0.7-0.2,0.7S576.1,222.4,576.3,222 M461.2,273.2c-1.7,1.7-3.7,3.3-5.5,4.5c0.9-0.1,1.7-0.3,2.3-0.6
	C459.6,276.4,460.3,274.7,461.2,273.2"/>
</svg>
