<?xml version="1.0" encoding="utf-8"?>
<!-- Generator: Adobe Illustrator 21.0.0, SVG Export Plug-In . SVG Version: 6.00 Build 0)  -->
<svg version="1.1" id="Layer_1" xmlns="http://www.w3.org/2000/svg" xmlns:xlink="http://www.w3.org/1999/xlink" x="0px" y="0px"
	 viewBox="0 0 612 612" style="enable-background:new 0 0 612 612;" xml:space="preserve">
<style type="text/css">
	.st0{display:none;}
	.st1{display:inline;}
</style>
<g id="REF" class="st0">
</g>
<g class="st0">
	<path class="st1" d="M600.9,303.6C600.8,466.4,469,598.2,306.4,598.2c-163,0-294.9-132-294.6-294.8C12.1,140.5,144,8.8,306.6,9.1
		C469.1,9.3,601,141.3,600.9,303.6z M569.9,365.9c13.2-50.7,11.2-122-22.8-186.9c-22.9-43.7-55.1-78.6-96.9-105.2
		c0,9.9,0,19.2,0,28.6c-17.1-5.2-34-10.3-51.4-15.6c1.5,14.6,2.9,28.7,4.3,43.1c-29.3-4.1-57.9-8-86.5-12.1
		c-1.7-0.2-3.5-1.5-4.8-2.8c-8.1-8.4-16.1-17-24.1-25.5c-7.2-7.6-7.2-7.6-16.4-2.7c-8.2,4.3-16.4,8.7-25,13.2
		c9.3,11.3,18.2,22.3,27.9,34.1c-2.3-0.7-3.4-1-4.4-1.3c-27.4-8.4-54.7-16.8-82.1-25.4c-2.5-0.8-4.3-0.5-6.4,1.2
		c-15.3,12.2-30.8,24.3-46.2,36.5c-1.5,1.2-3,2.3-5.2,3.9c1.6-18.7,3-36.5,4.6-55.3c-34.3,28.5-59.9,62.4-77.5,102.8
		c19.7,6.1,39,12,58.2,18c2.8,0.9,4.9,0.5,7.4-1c25.5-15.4,51-30.7,76.4-46.2c2.7-1.6,4.5-1.5,7,0.2c16.5,10.9,33,21.7,49.6,32.5
		c1.1,0.7,2.2,1.5,3.6,2.5c-28.1,16.1-55.8,32.1-84.1,48.3c10.7,6.6,20.8,13,31.4,19.6c-11.3,9.3-21.9,18.3-32.8,26.9
		c-4.1,3.3-6.9,6.9-7.9,12.1c-0.9,5-2.5,9.8-3.9,15c15.8,0.7,30.9,1.5,46.2,2.2c0.1,0.8,0.3,1.3,0.3,1.9
		c-1.1,15.7-2.1,31.4-3.4,47.1c-0.1,1-1.9,2.5-3,2.7c-21.2,3.7-42.5,7.1-63.7,10.9c-5.5,1-9.9,0-14.6-2.6
		c-10.9-6.1-22-11.8-33.3-17.8c-10.4,14.8-20.7,29.4-30.7,44c-0.7,1-0.2,3.1,0.4,4.5c18,39,43.9,71.8,77.4,98.6
		c0.9,0.7,1.8,1.2,3.6,2.4c-3.9-15.5-7.5-30-11.2-44.9c1.6,0.3,2.5,0.5,3.4,0.8c26,7.2,52,14.4,77.9,21.7c2.7,0.8,4.9,0.5,7.4-0.9
		c18.2-10,36.4-19.8,54.7-29.6c1.3-0.7,2.6-1.3,4.1-2c5.4,16.4,10.9,32.3,16,48.3c1,3.2,2.5,3.9,5.7,3.5c22-2.6,44-5.1,65.9-7.5
		c4.7-0.5,8.6-1.9,12.5-4.8c24-17.9,48.1-35.6,72.1-53.5c2.5-1.9,4.2-2.1,6.8-0.1c15.5,11.3,31.2,22.4,46.8,33.6
		c1.2,0.9,2.5,1.7,3.8,2.6c0.6-0.5,1.1-0.8,1.4-1.2c18.6-20.8,33.7-43.9,45-69.4c0.8-1.7,0.5-4.4-0.2-6.2
		c-7.8-19.9-15.8-39.8-23.8-59.6c-0.6-1.5-1.1-3-1.9-5.3C542.1,351.3,555.9,358.5,569.9,365.9z"/>
	<path class="st1" d="M337.2,237.2c38.1-4.5,75.5-8.8,113.8-13.3c-4.5,14.5-8.8,28.5-13.1,42.7c4.6,2.4,9,4.7,13.4,7
		c12.7,6.6,25.4,13.3,38.2,19.7c2.6,1.3,3.2,2.8,2.8,5.5c-2.5,17.8-4.9,35.6-7.1,53.4c-0.3,2.2,0.1,4.8,0.8,6.9
		c6.1,16.8,12.4,33.6,18.7,50.4c0.5,1.3,0.8,2.6,1.6,5.1c-26.5-20.6-52.1-40.4-78.1-60.7c-4.8,11.9-9.5,23.5-14.4,35.5
		c-10.2-4.8-19.9-9.8-30-14c-5.1-2.1-6.8-4.8-7-10.4c-0.7-22.3-2.1-44.5-3.1-66.7c-0.2-4.6-1.4-8.5-4-12.4
		c-10.2-14.8-20-29.8-30-44.7C338.9,240.1,338.2,238.9,337.2,237.2z"/>
	<path class="st1" d="M226,255c13.6-9.1,26.5-17.8,39.7-26.6c8.7,9.2,17.3,18.2,26.1,27.4c-5.8,5.1-12.2,10.9-18.7,16.5
		c-0.7,0.6-2.4,0.8-3.3,0.4C255.3,266.9,241.1,261.1,226,255z"/>
	<path class="st1" d="M316.8,475.7c-8-22.4-15.6-43.8-23.4-65.9c16.2,4.2,31.9,8.3,48.1,12.5C333.4,440,325.3,457.4,316.8,475.7z"/>
</g>
<path class="st0" d="M293.6,79.8c-49.6,6.8-90.8,26-119.6,67.1c-3.3,4.8-10.2,9.9-2.6,16.9c6.1,5.6,9.2,13.2,21.6,9.4
	c126.1-39.4,252.1,32.5,282.9,160.5c29.7,123.3-58.1,250.9-183.4,266.6c-126,15.7-235.3-66.8-250-192.7
	c-9.7-83.6,21.8-152.2,89.2-203.6c4.5-3.4,9.2-6.5,13.8-9.7c0.4-0.3,0.6-0.7,5.1-5.2c-7.1-5.3-14.6-10.2-21.3-16
	c-8.8-7.6-17-16.3-8.7-28.8c8.4-12.7,19.5-9.8,30.2-3.2C198,67.8,293.7,43.4,364,65c4,1.2,8,4,11.9,3.8c5.6-0.3,11.1-2.6,16.7-4.1
	c-2.9-5.1-4.9-13.5-8.9-14.7c-19.2-5.4-39-9-58.6-12.8c-4.9-0.9-10.1-0.1-18-0.1c12.2-17.3,27.6-24.7,45.1-28
	c24.4-4.6,47.6,0.4,69.1,12.2c16.4,9,32.3,19,48.5,28.3c27.7,16,56.5,24.9,91,11.5c-12.6,35.2-31,62.9-59.6,83.2
	c-59.3,42.3-137.9,24-181.3-13.2C304.9,118.2,296.2,101.4,293.6,79.8z M159.8,294.8c0.2-13-9.5-23.6-22.3-24.1
	c-13.2-0.5-24.4,10.3-24.5,23.6c-0.1,12.3,10.8,23.3,23.3,23.6C148.6,318.1,159.5,307.4,159.8,294.8z"/>
<g class="st0">
	<path class="st1" d="M69.5,363.9c5.8,0,11.5,0,17.4,0c0-0.9,0.1-1.6,0.1-2.3c0-72.4,0-144.9,0-217.3c0-1.5-0.4-2.4-1.8-3.2
		c-20.2-11.9-30.9-29.6-31.9-53c0-1,0.2-2.1,0.4-3.2c6.6-24.5,13.2-49,19.8-73.5c0.2-0.6,0.4-1.1,0.6-1.8c0.8,0,1.5,0,2.2,0
		c150.9,0,301.8,0,452.7,0c1.7,0,2.4,0.4,2.9,2.1c6.5,24.6,13.3,49.1,19.7,73.7c0.9,3.5,0.3,7.5-0.3,11.2
		c-3.6,20.6-14.8,35.9-33.4,45.7c-1,0.5-1.6,1.2-1.4,2.4c0.1,0.4,0,0.8,0,1.2c0,71.6,0,143.3,0,214.9c0,0.9,0,1.9,0,3
		c6.3,0,12.5,0,18.8,0c0,74.6,0,149,0,223.6c-6.3,0-12.4,0-18.8,0c0,7,0,13.8,0,20.6c-9.6,0-18.9,0-28.4,0c0-6.8,0-13.6,0-20.5
		c-124.2,0-248.1,0-372.3,0c0,6.7,0,13.5,0,20.4c-9.6,0-19,0-28.6,0c0-6.8,0-13.5,0-20.5c-6,0-11.7,0-17.6,0
		C69.5,512.8,69.5,438.4,69.5,363.9z M302.6,91.5c-2.7,31.9-28.4,56-59.2,57.5c-16.9,0.8-31.9-4.4-44.5-15.7
		c-12.6-11.2-19.4-25.5-20.8-41.4c-5.7,34.8-26.5,54.2-62.5,57.6c0,71.2,0,142.6,0,214.2c124.1,0,248.1,0,372.1,0
		c0-71.6,0-143.1,0-214.5c-31.1-0.8-57.7-25.6-60.5-57.5c-1.7,16.5-8.5,30.5-20.9,41.5c-12.5,11.1-27.2,16.3-43.9,15.7
		c-13.8-0.5-26.2-5.2-36.9-14C311.9,123.8,304.5,109.1,302.6,91.5z"/>
</g>
<g>
	<path d="M396.8,91.5c0.6,0.4,1.2-0.3,1.3-0.8c0.1-0.5,0.1-0.8,0.1-0.8l-0.8-1.5c0,0,0.6,1.2,1.1,1.2c0.6,0,0.5-0.7,0.5-0.7
		l-1.4-1.7c0,0,1.2,1,1.7,1.2c0.5,0.3,0.4-1.2,0.4-1.2l-1.5-3.2c0,0,0.8,1.4,1.6,1.7c0.8,0.3,1.3-0.1,1.2-0.6
		c-0.1-0.5-0.1-0.9-0.1-0.9l0.8,0.4c0,0,0.6,0.4,0.6-0.4v-0.9l0.6,0.6c0,0,0.6,0.8,0.7-0.1c0.1-1.4,0.2-1.4,0.2-1.4s0.2,0.4,0.5,0.7
		c0.3,0.4,1.4,0.3,2.1-0.6c0.7-0.9,0.6-0.7,1-0.5c0.4,0.1,0.3,0.1,0.9,0.2c0.6,0.1,0.4,0.1,1,0.6c0.6,0.6,0.6,0.3,1.1,0.7
		c0.4,0.4,0.6,0.7,0.6,1.3c0,0.6,0.1,0.9,0.6,1.1c0.5,0.2,0.6,0.3,0.8,1c0.2,0.7,0.1,0.6,0.2,1.1c0.1,0.5,0.1,0.5,0.1,1.2
		c-0.1,0.7,0,1.9,0.2,2.2c0.2,0.4-0.6,1.1-0.9,1.5c-0.1,0.2,0,0.3,0,0.9c0,0.8-0.4,2.6-1.1,3.1c-0.7,0.5-0.7,2.5-1.4,3.2
		c-0.7,0.7-0.6,2-0.6,2l3.5-0.8c0,0-2.5,1.1-3.1,1.3c-0.5,0.2-0.3,1.1-0.3,1.1l1.7,0.6l-1.9,0.3l-0.1,0.9l1.7,0.6l-2.7,0.1l-0.3,1.8
		c-0.1,0.4,0.8,1.2,0.3,1.1c-0.5-0.1-2.2-1.1-2.2-1.1l-0.6,0.7c0,0,1.5,1.9,1.2,1.8c-0.3-0.1-2.2-1-2.2-1l1.1,3l-1.9-1.4l-0.9,0.3
		c0,0,2.1,3.1,1.7,3c-0.4-0.2-1.7-1.7-1.7-1.7l-0.2,1.1c0,0,1.6,2.2,1.3,2c-0.4-0.2-2.4-2.7-3.3-3.2c-0.8-0.5-2.6-0.4-2.6-0.4
		l-0.3-1.2l-0.9-0.4l-0.2,1.3l-1.1-1.9l-0.7,0.2l1,2.7c0,0-1.5-3.3-1.5-3.1c0,0.3-0.4,1.5-0.4,1.5l-0.3-1.6l-1.3-0.1l-0.2,2.2
		l-1.8-3l-0.9-0.3l-0.3,4.6l-0.4-3.2c0,0-0.6,0.1-0.8-0.5c-0.2-0.6-0.2-0.9-0.2-0.9l-1.3-0.3l1.9,4.7l-1.7-3.1l-0.3,0.7l0.2,2.4
		l-0.6-3c0,0-1.7-0.1-1.9-0.2l0,2l-0.7-1.2c0,0-0.6,0.2-0.9,1c-0.2,0.8-0.5,1.1-1.3,0.9c-0.8-0.1-0.8-0.2-0.8,0.1
		c0.1,0.3,2.5,3,2.5,3l-2.8-2.2h-2.2l0.4,2.2l1.5,1.4c0,0-1.7-1.1-2.2-1.7c-0.6-0.6-1-0.4-1-0.4l-0.2,1.9l-1.6-2.5
		c0,0-0.8-0.3-1.2-0.2c-0.4,0.1,0.4,1.5,0.1,1.2c-0.3-0.2-0.7-1.1-0.9-1.4c-0.2-0.3-0.9-0.4-1.4-0.3c-0.4,0.1-0.1,0.9-0.8,0.9
		c-0.7,0-0.9,0.7-0.9,0.7l3.7,4l-3.5-3.4l2.2,2.9c0,0-2.4-2-3-2.3c-0.6-0.3-1.5,0.5-2.4,2c-0.9,1.4-0.1,2.1-0.5,4.7
		c-0.4,2.3-0.7,4.6-1.3,7.8c-0.6,3.3-0.9,7.1-1.1,7.9c-0.2,0.8-0.1,0.5-0.2,1.4c-0.1,1,0.1,0.7-0.4,1.4c-0.5,0.8-0.6,1.3-0.6,1.8
		c0,0.6-0.2,2-0.7,3c-0.5,1.1-0.5,2-0.9,2.6c-0.4,0.6-0.3,0.4-0.4,1c-0.1,0.7-0.7,1.4-0.7,1.4s-0.4,1.2-0.6,1.6
		c-0.2,0.4,0,0.9-0.5,2.1c-0.5,1.3-0.7,2.2-0.9,3.2c-0.3,1,0.3,1-0.2,1.6c-0.5,0.7-0.5,0.4-0.5,1.5c0,1.2,0.3,0.9-0.3,1.5
		c-0.6,0.6-0.4,0.9-0.4,1.6c0,0.8,0.3,0.9-0.2,1.6c-0.5,0.7-0.7,1-0.6,1.5c0.1,0.5-0.2,1-0.2,1s-0.7,0.6-0.4,1
		c0.3,0.4,0.2,0.4-0.1,0.8c-0.3,0.4-0.3,0.3,0.1,0.9c0.4,0.6-0.1,0.7-0.6,0.9c-0.5,0.2-0.6,1.2-0.6,2.3c0,1.1,0.5,1.1-0.2,1.1
		c-0.7,0-0.4,1-0.4,1.5c0,0.5,0.5,0.5-0.3,0.8c-0.8,0.3,0.1,1.5-0.2,2.4c-0.3,0.9-0.5,1.2-0.9,1.2c-0.4,0-0.7,0.1-0.3,0.6
		c0.4,0.5,0.3,0.2,0,0.9c-0.3,0.7-0.3,1.2-0.4,1.9c-0.1,0.7,0.5,0.5-0.1,0.8c-0.6,0.3-0.5,1.3-0.8,2.1c-0.4,0.8-0.2,1.4-0.2,1.4
		l3.8,0.3h-4.1l-0.4,1.8l1.9,0.9c0,0-1.6-0.8-2.2-0.4c-0.6,0.4-0.9,1.5-0.7,2.2c0.2,0.7,1,0.6,1,0.6l2.1-0.3c0,0-3.7,0.1-3.7,0.6
		c0,0.5,0,0.8-0.5,1.4c-0.5,0.7-0.6,0.4-0.3,0.9c0.3,0.5,0.8,0.7,0.2,1c-0.6,0.3-0.8,0-0.7,0.9c0.1,0.9,0.7,1-0.1,1.6
		c-0.8,0.7-1.1-0.1-0.8,0.8c0.3,0.9-1.1-0.2-1.3,0.4c-0.2,0.6-0.5,1.2-0.1,1.6c0.4,0.4,0.7,0.8,0.7,0.8s-0.4,0.4-0.4,0.8
		c0,0.4,0.3,1.3,0.9,1.3s0.4,0.4,0.9-0.2c0.5-0.6,0.2-0.5,1-0.4c0.7,0.1,1.1-0.3,1-0.9c-0.1-0.6,0-1,0-1l0.6,0.4v-2.1l0.9,0.6
		l1.1-0.7l-0.3-1.3l1.6-0.1v-1.2h0.9l0.6-1l1.3-0.1c0,0-0.6-1.1-0.1-1.3c0.5-0.3,0.9-0.2,0.9-0.7c0-0.5-0.5-0.3,0.4-0.6
		c0.9-0.3,1.2,0.1,1.2-0.6v-0.9l1,0.3c0,0,0.2-0.5,0.2-1.1c0-0.6,0.6-1.2,0.6-1.2s1.3,0,1.3-0.9v-0.9l0.9-0.1c0,0,0.3-0.7,0.4-1.3
		c0.1-0.7,0.2-0.7,0.2-0.7l0.7,0.1c0,0-0.3,0.1-0.3-0.7v-0.8l0.8-0.1c0,0,0.2-0.1,0.2-0.8c0-0.7,0.1-0.8,0.1-0.8l1.1-0.8
		c0,0,0.9-0.1,0.9-0.5c0-0.4,0.3-0.4-0.1-1c-0.4-0.6,0-1,0-1l1.4,0.1c0,0,0-0.2,0.3-1c0.3-0.8,0.5-0.9,0.5-0.9s0.4-0.1,0.5-0.7
		l0.1-0.6l0.7-0.4c0,0,0.1,0.1,0.1-0.8c0-0.9-0.1-1.2-0.1-1.2h1.1c0,0,0.5-0.1,0.2-0.7c-0.3-0.6,0-0.9,0-0.9s0.7,0,1-0.7
		c0.3-0.7,0.1-1,0.1-1s0.7-0.4,1.1-0.5v-1.5c0,0,0.8,0.2,1.2-0.5c0.4-0.7,0.4-0.8,0.8-1.2c0.4-0.4,0.2-0.5,0.7-0.7
		c0.5-0.2,0.3-0.9,0.7-1.5c0.4-0.7,0.6-1.1,1-1.2c0.4-0.1,0.4,0.2,0.6-0.6c0.2-0.8,0.2-1.6,0.2-1.6s0.5-0.1,1.1-0.4
		c0.7-0.3,0.3-0.5,0.5-1.2c0.2-0.7,0.3-0.8,0.3-0.8s0.3,0.5,0.7-0.3c0.4-0.8,0.4-1.3,0.6-1.7c0.2-0.4,0.4,0.2,0.6-0.3
		s0.3-0.6,0.3-0.6l1,0.2l-0.1-1.6l0.7,0.3c0,0,0.6-0.7,0.4-1.1l0.4-0.6l0.2-0.9h0.8c0,0,0.3,0.1,0.3-0.6c0-0.7,0.1-0.7,0.1-0.7h1
		c0,0,1.6-2,4.5-4.3c2.9-2.3,2-1.9,3.3-2.5c1.4-0.6,0.8-0.7,1.9-1c1.1-0.3,1.6-0.4,1.6-0.4s0.5-0.5,1-0.6c0.2-0.1,0.8-1.2,2.2-2.4
		c1.1-0.9,3-1.9,4.5-2.5c3.4-1.4,4.4-1.3,5.5-2c1.2-0.6,2.7-1.1,2.7-1.1l0.6-1.8c0,0-0.1,0.5,0.1,1.2c0.2,0.7-0.1,1,0.7,0.9
		c0.7-0.1,1.9-0.2,3.3-0.2s2.4,0,3,0.4c0.6,0.4,0.7,0.5,1.1,0.5c0.5,0,0.7,0.5,1.3,0.8c0.6,0.3,0.6,0.9,1,0.4
		c0.3-0.5,0.5-0.7,0.5-0.7s0.2,0.5,0.5,0.9c0.2,0.4,0.2,1.4,0.6,0.9l0.5-0.6c0,0-0.3,0.7-0.2,1.2c0.1,0.5,0.6,0.9,1.1,0.7
		c0.4-0.2,0.9-0.2,0.9-0.9c-0.1-0.7,0.3-2,0.3-2s-0.3,1.6,0.4,1.7c0.6,0.2,1.3-0.9,1.3-0.9l1.5-0.9c0,0-0.1,1-0.8,1.1
		c-0.7,0.1-2.2,1-2.3,1.8c-0.1,0.8-0.1,1.1-0.1,1.1s0.6,0.4,1.4,0.1c0.8-0.2,1.1-0.5,1.4-0.6c0.3-0.2,2.7-1.1,2.7-1.1
		s-1.1,0.7-1.7,1c-0.6,0.3-1.1,0.3-1.4,0.7c-0.3,0.4,0.2,0.8,0.7,0.8c0.5,0,1.8-0.4,2.1-0.5c0.4-0.1,4.5-0.6,4.5-0.6s-3.7,0.9-4,1.2
		c-0.2,0.3,0.6,0.6,0.9,0.9c0.3,0.3,0.4,0.3,1,0.9c0.6,0.6,0.5,0.9,1.1,0.6c0.6-0.3,1.1-0.4,1.1-0.4l1.5-0.9c0,0-1.4,0.6-1.1,1.2
		c0.2,0.6,0,0.8,1,0.6c1-0.2,1.6-0.6,1.6-0.6s-0.8,0.3-0.8,0.9c0,0.7,1.3,0.8,1.6,0.8c0.3,0,1,1,1,1s0.1,0.4,1.1,0.4
		c0.9,0,1.6-0.2,1.6-0.2s-1,0.1-0.6,0.9c0.4,0.8,0.4,1.2,0.9,1.3c0.6,0.1,0.2-0.2,0.7,0.2c0.4,0.4,1.1,0.6,1,0.2
		c-0.1-0.5,0.1-1.4,0.1-1.4l0.5,1.6l1.5,0.3c0,0,0.1-0.9,0.6-1.3c0.6-0.4,1.1-1,1.1-1s-1.6,1.2-1,1.9c0.6,0.7,1.4,0.6,1.4,0.6
		s-0.2-0.7,0.3-1.6c0.5-0.9,0.8-1.2,0.8-1.2s-0.7,1.2-0.6,2.2c0.1,1,1.3,0.9,1.6,0.9c0.3,0-0.1,0.1,0.9,0c0.9-0.2,1.2,0.2,1.5,0.3
		c0.3,0.1,2,0.3,2.7,0.3h0.9c0,0,0.9-1.5,1.3-1.5c0.4-0.1,0.6-0.1,0.6-0.1s-1.1,0.5-1.2,1.5c-0.1,1,1.6,1.2,1.9,1
		c0.3-0.2,1.3-2.3,1.6-3c0.3-0.6,2.8-4.2,2.8-4.2s-0.8,1.6-1.7,3.3c-0.9,1.6-1.5,2.7-1.8,3.2c-0.3,0.5-0.3,0.9-0.3,0.9
		s1.4,0.1,2.4-0.3c0.9-0.4,1.2-0.5,1.6-0.6c0.4-0.2,3.8-1.8,3.8-1.8s-3.4,2.1-3.9,2.5c-0.5,0.5-0.3,0.9,0.3,1
		c0.6,0.1,0.7,0.2,1.1-0.1c0.4-0.3,0.3-0.5,1.2-0.4c0.8,0.1,0.6,0.6,1.1,0.1l1.4-1.2c0,0-0.9,0.5-0.6,1.4c0.3,0.9,0.7,0.8,1.4,0.5
		c0.7-0.3,1.3-2.8,1.3-2.8s-0.3,2,0.1,2.2c0.4,0.3,0.8,0.5,0.9,0.1c1.2-0.4,1.2-0.7,1.2-0.7s0.3-0.1,0.7-0.6
		c0.3-0.6,0.8-1.4,0.8-1.4s-1.2,2.5-0.7,3.1c0.5,0.6,1.6,0.1,2.1-0.3c0.5-0.4,0.6-1.2,0.4-1.6c-0.2-0.4-0.5-1.3-0.5-1.3
		s0.6,0.7,1.2,1.9c0.6,1.2,1.2-0.3,1.2-0.3l-0.5-2.7c0,0-0.2,2.1,0.8,2.4c0.9,0.3,0.6-0.4,1.2-0.5c0.7-0.1,0.4,0.2,0.5-0.6
		c0.1-0.8,0.2-1,0.7-1.2c0.5-1,0.7-1.5,0.7-1.5l0.6,0.8c0,0,0.5-0.6,0.6-1.3l0.1-0.7l0.9,0.4c0,0,0.5,0.3,0.4-0.8l-0.1-1.2l0.9-0.4
		c0,0,0.4,0.1,0.6-0.3c0.2-0.4-0.2-0.5,0.4-0.6c0.7-0.1,0.9,0.3,1.3-0.5c0.4-0.8,0.1-1.1,0.8-1.1c0.6,0,2.3-0.6,3.1-0.6
		c0.8,0,0.6,0.5,1.1-0.3c0.5-0.8,0.6-0.9,1.6-1c1-0.1,1.2-0.3,3-0.4c1.8-0.1,1.7-0.7,3,0.1c1.2,0.8,1.8,2,1,1.7
		c-0.8-0.3-1.1,0.7-1.1,2.3c0,1.6-0.1,4-2.9,7.6c-2.9,3.6-4.7,5.4-5.3,5.9c-0.6,0.6-1.1,0.5-1.3,1.1c-0.2,0.6-0.2,0.7-0.7,0.9
		c-0.6,0.3-0.5-0.2-0.9,0.5c-0.4,0.7-0.4,0.8-0.7,1c-0.3,0.2-0.6,0.1-0.8,0.9c-0.2,0.7,0.3,1.4-0.5,1.2c-0.8-0.2-1.5-0.4-1.5,0.2
		c0.1,0.7,0.3,1.1-0.3,1.2c-0.6,0.1-1.2-0.2-1.2,0.3c0,0.5,0.4,1,0.7,1.4c0.3,0.5,0.4,0.9,0.4,0.9s-0.7-0.6-1.4-1.1
		c-0.7-0.4-1.1-0.6-1.1-0.6s-0.2,0.5,0.1,1.5c0.3,1-0.5,1.7-1.3,1.4c-0.9-0.2-0.9-0.1-0.9-0.1s0.3,0.8,0,0.6
		c-0.2-0.1-0.8-0.4-1.2-0.4c-0.3-0.1-1.1-0.4-1.5,0.2c-0.8,1.2-0.5,1.4-1.3,1c-0.8-0.5-1.5,0.6-2.3,0.5c-0.8-0.1-1.6-0.4-1.6-0.1
		c-0.1,0.3,1.4,1.7,1.4,1.7s-1.4-1.4-2.1-1.5c-0.7-0.1-1.6,0.1-2.5-0.6c-0.9-0.6-0.9-1.3-1.1-1c-0.2,0.4,1.5,2.9,1.1,2.7
		c-0.3-0.1-1.2-1.1-1.3-1.4c-0.2-0.3-0.4-0.5-0.8-0.8c-0.4-0.3-1.1-0.4-1.6-0.4c-0.5-0.1-0.5,0.2-0.9-0.2c-0.4-0.4-0.6-0.3-1.1-1
		c-0.6-0.7-0.6-0.6-0.6-0.6l-0.7,1.5c0,0,0.4-1.3,0-1.8c-0.4-0.5-0.9-0.9-0.9-0.6l0.1,2c0,0-0.3-0.4-0.6-1c-0.3-0.6-0.2-0.8-0.8-0.8
		c-0.6,0-0.5,0-0.7-0.6c-0.1-0.6-0.5-1-0.5-1s-0.9-0.3-0.7,0.1c0.2,0.4,0.6,2.7,0.6,2.7s-0.9-2.5-1.4-2.7c-0.3,0.2-0.2,1.8-0.2,1.8
		s0.1-1.7-0.9-2c-0.9-0.3-1.7-0.2-1.7-0.2l-0.2,2.3l-0.2-2.5c0,0-1.4-0.1-1.9-0.1h-1.2c0,0-0.6,1.8-0.6,1.5l-0.1-1.8
		c0,0-1.2-0.5-1.2-0.2v2.9l-0.4-2.2l-0.6,0.7l-1.8,3c0,0,1.4-3.2,1.5-4.1c0.1-0.9-0.9-1.3-2.1-1.2c-1.1,0.1-2.4,0.8-3.2,0.9
		l-0.8,0.1c0,0-0.4,0.4,0.7,0.9c1.1,0.5,1.9,0.7,1.9,0.7s-1.9-0.3-3.1-0.7c-1.2-0.4-0.9-0.6-1.7-0.5c-0.8,0.1-0.9,0.4-0.9,0.4
		s0.6,1.2,1.2,2.2c0.6,0.9,0.7,1,0.7,1s-0.7-1-1.7-1.9c-0.9-0.9-0.8-1.2-0.8-1.2l-1.1,0.1c0,0,0.9,2.4,1.6,2.9
		c0.7,0.5-0.4-0.2-1.8-1.4c-1.4-1.2-1.9-1.5-2.3-1.7c-0.4-0.2-0.9-0.6-0.9-0.3c0,0.3,0.4,4.2,0.4,4.2s-0.2-2.9-1-3.5
		c-0.8-0.6-1.4-0.1-1.4-0.1l0.4,2c0,0-0.7-1.4-0.9-2.4c-0.2-1-1.3-1.7-1.8-2.1c-0.5-0.4-0.4-0.3-0.5-0.7c-0.6-0.4-0.6-0.1-0.8-0.6
		c-0.2-0.6-0.2-0.6-0.9-0.7c-0.7-0.1-1.1,0.3-1.4-0.2c-0.3-0.5-1.7-0.7-1.8-1c-0.1-0.3-0.4-0.6-0.7-0.6l0.3,3.5c0,0-1.2-1.6-1.5-2.6
		c-0.3-0.9-0.1-1.1-0.6-1.4c-0.6-0.2-0.3-0.2-0.7-0.4c-0.4-0.3-0.8-0.6-1.4-0.4c-0.6,0.1-0.9,0.4-0.9,0.4s0.2,1.4,0.2,2.1
		c0,0.6,1,3.5,1,3.5s-1.4-3.8-1.6-4.6c-0.2-0.9,0.2-1-0.2-1c-0.4,0-0.9,0.4-1.2,0.4l-1.4,0.4l0.5,4.3l-1.1-4.5c0,0-1.6,0.4-2.2,0.4
		c-0.6,0.1-0.9-0.5-0.6,0c0.2,0.5,0.5,1.7,0.5,1.7s-0.4-1.4-0.9-1.8c-0.5-0.4-1.2-0.3-1.2-0.3s-0.1,1.4-1.6,4
		c-1.4,2.7-3.3,5.9-3.6,6.5c-0.3,0.6-0.2,0.4-0.6,1.1c-0.4,0.7-0.2,0.9-0.8,1.3c-0.6,0.4-0.8,0.1-0.9,1.1c-0.1,0.9-0.9,1.8-1.4,2.3
		c-0.5,0.5-4.2,5.5-4.8,6.3c-0.6,0.8-0.6,1.1-1.2,1.9c-0.6,0.8-2.2,2.3-2.2,2.3s-0.6,0.9-1.3,1.5c-0.8,0.7-1.4,1.3-2.1,2.5
		c-0.8,1.3-0.5,1.2-1.1,1.9c-0.7,0.7-0.6,1.2-1.2,1.4c-0.7,0.2-1.1,0.9-1.3,1.5c-0.3,0.6,0.1,0.4-0.6,0.9c-0.7,0.5,0,0.6-0.6,1.6
		c-0.6,1-0.4,1-1.1,1.2c-0.7,0.3-0.5-0.3-0.9,0.5c-0.4,0.8-0.4,0.7-1,1c-0.6,0.3-0.6-0.4-0.9,0.5c-0.3,0.9,0,0.9-0.5,1.1
		c-0.5,0.2-0.8-0.1-0.7,0.6c0.1,0.7,0.7,0.3,0,0.8c-0.6,0.5-0.6,0.2-0.8,0.7c-0.1,0.5-0.1,0.5-0.7,0.7c-0.6,0.2-1.7,1.1-1.9,1.7
		c-0.3,0.7-0.2,1-0.6,1.1c-0.4,0.2,6.5,0.1,6.5,0.1s-7.3,0.1-7.8,0.8c-0.5,0.7-0.6,0.9-1.4,1.4c-0.8,0.5-1,0.7-1.1,1.2l5,1.8
		c0,0-5.2-1.3-5.6-0.6c-0.4,0.7-0.7,1-0.7,1c0.6,0.4,3.2,2.6,3.2,2.6s-3-2-3.6-2c-0.6,0-0.9-0.1-0.7,0.4c0.2,0.5-0.7,0.5-0.7,0.5
		c-0.1,0.7-0.1,1.1-1,1.2c-0.9,0.1-1,0.9-1,0.9s4.3,3.3,6.3,3.8c1.1,0.3-0.6-0.2-2.6-1.2c-1.7-0.8-3.8-2.2-4.2-1.8
		c-0.9,0.8-1.1,1.2-1.3,1.7c-0.3,0.5-1.5-0.1-1.8,0.5c-0.3,0.6-0.3,1.2-0.3,1.2s0.1,1.6-0.8,2c-0.9,0.4-0.7,1.2-1.2,1.6
		c-0.6,0.4-1.1,1-1.1,1.4c0,0.5-0.8,1.5,1.6,1.7c2.4,0.2,3.6-0.6,4.9-0.8c1.3-0.2,1.2-0.3,1.1,0.4c-0.2,0.7-0.2,1.5,0.8,1.8
		c1.1,0.3,1.6,1,2.6-0.1c0.9-1.1,1.7-1.6,2.8-1.2c1.1,0.5,0.7,1,1.8,1.2c1.1,0.3,0.9,0.7,1.5,0.3c0.6-0.4,0.6-0.8,0.6-1.6
		c0-0.9,0.1-1.8,0.7-2.4c0.6-0.6,1.4,0,1.2-0.9c-0.1-0.9-0.7-0.6,0-0.9c0.7-0.3,0.7-0.1,0.9-0.7c0.2-0.6,0-0.6,0.7-0.8
		c0.7-0.2,1-0.4,1-0.9c0-0.5-0.6-0.8,0.2-0.7c0.7,0.1,1.1-0.2,1.1-0.9c0-0.7,0.2-0.8,0.7-0.8c0.5,0.1,0.6,1,0.9,0.1
		c0.3-0.9,0.1-1.3,0.5-0.9c0.4,0.4,0.7-0.2,0.9-1.5c0.2-1.4,1.2-1.7,1.7-1.6c0.5,0.1,1-0.1,1.1-1.2c0.1-1.1,0.3-1.6,0.7-1
		c0.4,0.7,1.6,0,1.4-0.8c-0.1-0.8,0.4-1.2,0.4-1.2s0.8,0,1.4-0.9c0.6-0.9,0.6-1,0.9-0.8c0.4,0.2,0.6,0.4,0.8-0.4
		c0.2-0.8-0.3-1,0.4-0.8c0.7,0.2,0.8-0.6,1.5-1.5c0.8-1,0.4-0.4,1.2-1.2c0.7-0.8,1.4-1.1,2-1.4c0.6-0.4,0.6-0.2,1.1-0.6
		c0.6-0.4,1-0.6,1.3-1.2c0.3-0.6-0.1-0.7,0.8-1.1c0.9-0.4,3.9-2.3,6.9-4.4c3-2.1,5.2-3.5,6.4-3.7c1.2-0.2,2.4-1.1,3.4-1.4
		c1.1-0.4,1.6-0.2,2.5-0.6c1-0.4,1.3-0.8,2.1-0.9c0.8-0.1,0.8,0.3,1.4-0.1c0.7-0.4,1.6-0.3,2.4-0.5c0.8-0.2,1.7-0.6,2.8-0.9
		c1.1-0.3,1.9-0.4,2.9-0.1c1,0.3,0.1,1.1,2,0.7c2-0.4,2.5-0.7,3.3-0.8c0.8-0.1,2.1,0.5,2.8,0.5c0.7,0,4.6,0.1,6,0.2
		c1.4,0.1,3.1,0,6,0.9c2.5,0.7,3.1,0.3,3.1,0.3s0.3-1,0.7-2.5c0.5-1.5,1.1-1.5,1.1-1.5s-1.2,1.9-1.1,3c0.1,1.1,0.1,1.7,0.1,1.7
		l1.9,0.4c0,0,0.5-0.5,1.6-1.1c1-0.6,3.2-1.2,3.2-1.2s-2.4,0.6-2.7,1.1c-0.3,0.4-2.4,1.2-1.6,1.5c1.1,0.3,1.3,0.5,1.5,0.7
		c1.3,0.7,0.8,0.7,1.4,0.7s0.6-0.4,0.6,0c0,0.4-0.4,0.7,0.5,0.7c0.9,0,2-0.1,2-0.1s3.2,0.4,4,0.7c0.9,0.3,1,0.4,1,0.4
		s-4.4-1.1-4.4-0.5c0.1,0.6,0.6,0.7,1,1c0.4,0.2,0.3,0.6,0.7,0.6c0.4-0.1,0.2-0.6,0.6,0.1c0.3,0.7-0.2,0.6,0.6,0.8
		c0.6,0.2,0.6,0.4,1.8,1.5c2.7,2.5,5.3,6,5.4,6.7c0,0.4,0.5,1.6,1,1.7c0.4,0.2,0,0.2,1.6,0.4c1.6,0.2,3.8,0.9,3.5,0.9
		c-0.3,0-3-0.3-3.3-0.4c-0.1,0.4,0.2,1.4,0.6,2l1.6,1.7c0.3,0.3,0.9,0.7,1.2,0.9c0.3,0.2,0.3,0.3,0.8,0.7c0.5,0.5,0.3,0.7,0.6,0.9
		c1.1,0.9,0.8,1,1.5,1.2c0.7,0.2,0.6,0.2,0.8,0.5c0.2,0.3,0.6,1.4,1.5,1.7c0.8,0.3,0.5,0.3,1,0.8c0.6,0.5,0.2,0.2,1,0.7
		c0.8,0.5,0.8,0.4,1.1,0.9c0.4,0.5,1,1.3,1.5,1.8c0.5,0.5,1,1.2,1.7,1.5c0.6,0.2,0.4-0.1,1,0.6c0.5,0.6,0.3,0.9,0.9,1.3
		c0.6,0.5,0.7,0.6,1.2,1c0.5,0.4,1.5,1.4,2,1.9c0.4,0.4,0.6,0.3,0.8,0.7c0.2,0.4-0.1,0.6,0.9,1.5c1.1,0.8,1.7,0.9,1.8,1.5
		c0.1,0.6,0.2,1,1.2,1.6c1,0.7,1.1,0.7,1.3,1c0.1,0.4,1.6,1.3,2.1,2c0.5,0.6,0.4,0,0.4,0.9c0,0.9,0.6,0.6,1.3,1
		c0.7,0.4,0.6,0.4,0.6,0.9c0,0.6,0.9,0.7,1.3,1.1c0.4,0.3,0.2,0.6,0.7,0.7c0.5,0.2,0.5,0.3,0.7,0.6c0.3,0.5,0.2,1.6,0.8,2.2
		c0.6,0.6,0.6,0.4,0.6,0.7s0.4,1.1,0.8,1.3c0.5,0.2,0.1-0.3,0.6,0.2c0.5,0.6,0.5,0.4,0.8,0.5c0.4,0.1,0.4,0.4,0.6,0.6
		c0.2,0.3,0.7,1.8,1.4,1.8c0.6,0,0.6-0.1,0.8,0.3l2.4-1.6c0,0-2.1,1-1.9,1.8c0.2,0.8,0.8,1.3,1.2,1.3c0.4,0,0.2-0.3,0.9,0l1.8,0.9
		c0,0,1.2,0.1,1.2-0.9c0-1-0.3-0.8,0.3-1.2c0.6-0.4,1.7-0.8,2.5-0.6c0.9,0.1,0.1,0.5,1.9,0.1l2.5-0.5c0,0-2,0.6-2.7,1
		c-0.8,0.4-0.4,0.6-1.3,0.3c-0.9-0.3-0.6-0.6-1.4-0.6c-0.7,0.1-1.1,0.9-1.3,1.4c-0.2,0.6-0.9,1.2-1.4,1.3l-0.7,0.2
		c0,0,0.9,1.2,1.6,1.3c0.6,0.1,0.4-0.6,1.1,0.4c0.4,0.6,0.4,0.7,0.5,0.7c0.5,0.2,0.5-0.2,0.7,0.4c0.1,0.6-0.1,0.7,0.4,0.7
		c0.4,0.1,0.7-0.1,0.8,0.3c0.7,0.6,0.8,0.6,0.8,0.7c0.3,0.5,0.4,0.9,0.9,1.1c0.5,0.2,0.8,0.3,1.5,1c0.7,0.7,1.3,1.2,1.7,1.4
		c0.4,0.3,7.2-1.3,6.9-1.2c-0.4,0.1-6.9,1.1-6.7,1.5c0.3,0.4,1.2,0.9,1.5,0.9c0.3,0,6.5-0.5,6-0.4c-0.5,0.1-6.3,0.4-5.4,1.1
		c0.9,0.6,0.9,0.6,1,1c1.3,0.8,1.8,0.9,2,1.4c0.1,0.2,0.1,0.9,0.3,1.1c0.3,0.4,0.9,0.3,1.3,0.4c0.7,0.2,0.4,0,0.8,0.6
		c0.4,0.7,1.4,0.9,1.9,1.4c0.4,0.5,0.9,0.3,1.2,0.1c0.3-0.1,6.8-0.7,6.8-0.7s-7.6,0.4-7.2,1.5c0.6,1.5,1.3,1.7,2.2,1.6
		c0.9-0.1,1,0,1.7,0.1c0.7,0.1,1.2,0.4,0.5,0.5c-0.7,0.1-1.2-0.2-0.8,0.8c0.4,0.9,0.4,0.9,1,0.5c0.7,0.9,0.8,0.9,2.3,0.3
		c1.4-0.6,2.8,0,2.8,0s-3.2,0.1-3.3,0.8c-0.1,0.7,0.4,0.1,0.4,0.5c0.1,0.4-0.3,0.6,0.4,1c0.7,0.3,1.3,0.6,1.3,0.6l1.9,0.2
		c0,0-1.7-0.3-1.4,0.4c0.3,0.6,0.9,0.5,1.1,0.9c0.2,0.4,0.1,0.3,0.9,0.4c0.8,0.1,2.4,0.4,3.1,0.4c0.7,0,1.9,0.2,1.9,0.2
		s-2.1,0.1-2.9,0.1c-0.7,0-1,0.1-0.7,0.3c0.3,0.3,0.2,0.3,0.8,0.4c0.6,0.1,1.9,1.2,1.4,1c-0.4-0.2-1.7-1-1.7-0.6
		c0,0.4,0.1,0.5,0.4,0.6c0.3,0.1,1.8,0.2,1.8,0.2s-1.5-0.1-1.7,0.5c-0.2,0.6,1.1,1.5,1.9,1.5c0.8,0,0.6,0,1.1,0.4
		c0.5,0.4,1.2,1,1.2,1l0.7-1.6c0,0-0.6,1.6,0,2.1c0.6,0.5,2.1,1.1,2.5,1.3c0.4,0.2,1.1,0,1.5,0.2c0.4,0.2,0.5,0.5,1.1,0.6
		c0.6,0.1,0.4,0,0.7,0.3c0.4,0.3,0,0.4,0.9,0.5c0.9,0.1,1.2,0.5,1.6,0.6c0.4,0.1,1.4,0.4,1.4,0.4c-0.1,0.4,0.8,1.2,1.4,0.9
		c0.6-0.3,1-0.3,1.1,0.2c0.1,0.4,0.1,0.8,1.1,0.7c1-0.1,1.4-0.1,1.4-0.1l4.9-2.7c0,0-4.7,2.5-4.6,3c0.1,0.6,0.6,0.7,1.1,0.6
		c0.5-0.1,1.1,0,1.1,0l4.8-2.2c0,0-3.9,1.8-3.8,2.3c0.1,0.5,0.4,0.9,1.2,0.9c0.8,0,0.8,0.5,0.8,0.5s0.5,0.5,1,0.5l0.9-0.2
		c0,0-1.5,1-0.9,1c0.5,0,2,0.8,2.7,0.7c0.7-0.1,1.7-0.1,1.7-0.1l-2.2,0.9c0,0,1.3,1,2,0.8c0.6-0.2,1.1-0.4,1.1-0.4s-1,0.8-0.6,0.9
		l0.6,0.2c0,0-0.4,0.7,0.2,0.8l0.6,0.1l0.2,0.8c0,0,0.9,0.8,2,1.2c1,0.4,1,0.4,1.9,0.9c0.8,0.5,1.3,1.1,1.6,1.4
		c-0.3,0.2-0.5-0.3-0.9,0.1c-0.4,0.3-0.5,0.2-0.1,1.3c0.4,1.1,0.5,1.5,0.4,2.4c-0.1,0.9,0.3,0.9-0.8,0.7c-1.1-0.2-0.6,1.3-3.3,1.9
		c-2.7,0.7-5.9,1.7-11.8-0.9c-6-2.7-10.7-6.2-11.5-6.1l-0.8,0.1v-0.6c0,0-2-1-3.2-1.5c-1.2-0.5-7.6-3-8.3-3.5
		c-1.1-0.5-0.7,4.6-0.7,4.6l-0.7-5.2l-0.6-0.2v3.6l-0.4-3.9l-0.6-0.3l-1,3.3l0.6-3.5l-0.6,0.2l-0.6,2.5l0.3-2.7l-0.6-0.1l-0.5,1.7
		l-0.3-2.8l-1.6-0.8l-0.5,2.8v-2.8l-0.6,1.9l-0.1-2.4c0,0-5.1-2.5-8.9-5.9c-2.4-2.2-4.4-4.1-6.3-5.8c-1.2-1.1-2.5-2.1-3.6-3.1
		c-2.8-2.5-6.3-5.9-6.8-6.4c-0.6-0.5-0.5-0.2-0.9-0.7c-0.4-0.4-1.1-1-1.1-1l-0.1,2c0,0-0.3-1.7-0.5-2.4c-0.2-0.6-2-3-2-3
		s-0.1,1.4,0,2.2c0.1,1,0.1,1.9,0.1,1.9s-0.3-3.3-0.4-4.7c-0.1-1.4-0.7-1.2-0.7-1.2s0.1-1.3,0-2.3c-0.2-0.9-0.5,0.4-0.5-0.5
		c0-0.9-1.1-2.7-1.9-2.8c-0.8-0.1-1.2-0.1-1.2-0.1s0.4,0.1-0.3-0.7c-0.7-0.7-1.3-1.1-1.8-1.2c-0.5-0.1-2.4-0.6-3.4-0.9
		c-1-0.2-1.2-0.1-1.8-0.4c-0.6-0.2-0.4-0.2-1-0.9c-0.6-0.6-0.8-0.6-1.2-0.9c-0.4-0.3-0.8-0.4-0.8-0.4c-0.6,0.6-0.2,1.3,0.5,2.2
		l1,1.2c0,0-2-2.5-2.4-2.7c-0.4-0.2-0.5-0.1-0.7-0.3c-0.3-0.2-0.6-0.1-1-0.5c-0.3-0.4-1.1-0.6-1.4-0.5l-0.5,2.7c0,0,0-2.7-0.3-2.7
		c-0.3,0-0.6,0.1-0.6-0.3c0-0.5-0.1-0.6-0.2-0.9c-0.1-0.3-0.7-0.4-0.7-0.4l0.2-1.2c0,0,0-0.6-0.4-0.4c-0.4-0.4-0.1-1-0.3-1h-1.1
		c0,0,0.3-0.1,0.6-0.8c0.2-0.7,0.1-0.9,0.1-0.9l-0.6-0.1c0,0-0.7-0.2-0.9,0.2c-0.2,0.4-0.5,0.7-0.5,0.7s0.4-1.1,0.5-1.6
		c0-0.5-0.8-1.4-0.8-1.4l-0.7,0.1l-0.2-0.7c0,0-0.1-0.5-0.6-0.6c-0.5-0.1-0.5,1.3-0.5,1.3l-0.2-1.8c-0.1-0.5-0.2-0.8-0.6-0.9
		c-0.4-0.1-0.7,0-0.7,0l0.2-0.9c0,0,0.1-0.2-0.6-0.2c-0.7,0-0.5-0.2-0.7-0.6c-0.2-0.5-0.6-1.2-0.8-1c-0.2,0.1-1.4,1.1-1.4,1.1
		s0.4-0.8,0.6-1.5c0.2-0.7,0-1.3-0.3-1c-0.3,0.3-0.6,0.9-0.6,0.9l-0.1-1.5c-0.7,0-1.1,0.8-1.1,0.8l-0.1-1.7c0-0.3-1-0.8-1.4-0.9
		c-0.5-0.1-1.3,1.2-1.3,1.2s0.8-1.2,0.4-2c-0.4-0.8-0.7-1.4-0.9-1.6c-0.2-0.2-0.5-0.3-0.6,0.1l-0.1,0.8l-0.5-1.1l-1.1,1.6
		c0,0,0.6-1.9,0.4-2.5c-0.2-0.6-1.6-1.2-1.6-1.2l-0.1,2.8c0,0,0-3.2-0.1-3.5c-0.1-0.2-0.8-0.8-1.4-1c-0.5-0.2-0.6-0.4-0.6-0.2
		l-0.3,1.5c0,0-0.1-1.4-0.2-2c-0.1-0.6-0.2-0.6-0.6-0.7c-0.4-0.1-1-0.4-1-0.4l0.1,1.5c0,0,0-1.7-0.3-2.1c-0.4-0.3-0.5-0.4-0.8-0.4
		c-0.3-0.1-0.4-0.7-0.4-0.7l-0.1,2.6c0,0,0.1-2.6-0.2-3c-0.2-0.3-0.5-0.7-0.6-0.3c-0.1,0.4-0.3,0.7-0.3,0.7s-0.6-0.4-0.6,0.1
		c-0.1,0.5-0.3,1.9-0.3,1.9s-0.2-1.8,0.1-2.1c0.2-0.3,0.6-0.6,0.4-1c-0.4-0.5-0.8-0.4-0.9-0.7c-0.1-0.3-0.4-0.6-0.6-0.7
		c-0.2-0.1-0.8,0.1-0.8,0.1s-0.7,2.3-0.7,2c0-0.3,0.6-2.1,0.6-2.6c-0.1-0.5-0.7-0.8-0.8-0.6c-0.1,0.2-0.4,3-0.5,2.7
		c-0.1-0.2,0-2.5,0-2.5s-0.3-0.4-0.9-0.8c-0.5-0.4-0.8-0.8-0.9-0.6c-0.1,0.2,0,1.6,0,1.6l-0.7-1.5l-0.9,2.9l0.1-2.9l-1,2l0.1-2
		c0,0-0.4-0.2-0.8-0.6c-0.3-0.5-1-0.3-1.2-0.6c-0.2-0.3-0.7-0.3-0.7-0.3s0.7,1.3,0.2,0.8c0.8,0.9,1,1.6,1,1.6l-1.7-1.9l-0.6-0.7
		c-1.1,0.3-1.5-0.3-1.6-0.7c-0.1-0.4-0.5-0.8-1-1c-0.5-0.2-0.8-0.5-1.1-1c-0.4-0.5-0.3-0.6-0.9-0.7c-0.9-0.3-1.2-0.1-1.3-0.2
		c0.3-0.6,0.7-1.1-0.6-1.1c-1.2,0-0.8-0.1-0.8-0.1l-0.4-0.6l-1.1-0.1l-0.2-0.6l-0.9-0.1c0.1-0.5-0.1-1.1-0.4-1.1l-0.7,1l0.1-1.2
		c0,0-0.6-0.4-0.9-0.1c-0.3,0.4-0.7,1-0.7,1s0.7-1.3,0.5-1.4c-0.3-0.1-0.9-0.7-1.3-0.6c-0.4,0.1-0.9,0.6-0.9,0.6s0.6-0.4,0.2-0.7
		c-0.3-0.3-0.7-0.4-0.7-0.4l-0.2-0.9c0,0-1.4,0-1.7,0.2c-0.2,0.2-0.5,0.5-0.7,0.7c-0.2,0.2-0.5,0.3-0.6,0.9c0,0.5-0.1,0.8-0.4,0.9
		c-0.4,0.1-1,1.3-2.2,1.7c-1.3,0.4-2.3,0.4-2.5,1c-0.2,0.6-0.3,1-0.8,1.4c-0.5,0.3-0.6,0-0.7,0.6c-0.2,0.6-0.5,0.9-0.8,1
		c-0.2,0.1-0.6,0.6-0.6,0.6s-0.1,0.5-0.4,0.6c-0.4,0.1,0,0.6-0.6,0.9c-0.6,0.3-0.3-0.5-0.7,0.3c-0.3,0.9-0.2,1.2-0.8,1.3
		c-0.6,0.1-0.8,0.9-0.8,0.9s0.2,0.3-0.4,0.6c-0.6,0.4-0.7,0.7-1.1,0.7c-0.7,0.7-0.9,0.9-1.1,1c-0.2,0.1-0.1,0.4-0.6,0.7
		c-0.5,0.4-0.3,0-0.6,0.4c-0.3,0.4-0.4,0.5-0.9,0.8c-0.5,0.2-0.5-0.1-0.7,0.4c-0.2,0.5-0.1,0.4-0.6,0.7c-0.6,0.3-0.9,0.5-1.3,1
		c-0.4,0.5-0.4,0.4-0.7,0.6c-0.6,0.8-0.5,0.9-1.1,1.1c-0.5,0.2-0.5,0.5-0.7,1c-0.2,0.5-0.2,0.7-0.8,0.9c-0.6,0.2-1-0.2-1,0.2
		c0,0.4,0.4,0.7,0.4,0.7l-1.3,0.1c-0.5,0.3-0.7,0.7-0.7,0.7c-0.5,0.7-0.6,0.8-0.6,0.8l2,1.5l-2.3-1.3l-0.9,0.5c0,0,1,1.1,1.2,1.6
		c0.2,0.5,0.2,0.6,0.2,0.6s-1-1.2-1.2-1.6c-0.2-0.4-0.4-0.5-0.4-0.5s-0.8,0.2-1.1,0.6c-0.2,0.4,0.1,0.5-0.2,0.6
		c-0.4,0.1-0.4,0.1-0.9,0.2c-0.5,0-0.6,0.2-0.9,0.2c-0.5,0.5-0.8,1.4-0.8,1.4l4.3,4.7l-4-3.9c0,0-0.4-0.6-0.7-0.5
		c-0.3,0.1-0.5,0.3-0.7,0.5c-0.2,0.2-0.9,1-0.9,1l0.7,1.9l3.2,1l-2.8-0.7l1,1.3c0,0,1.1,1,1.7,1.3c0.6,0.3,2.7,2.3,2.7,2.3
		s-2.5-1.6-2.9-2c-0.4-0.4-1.2-1-1.2-1v2.4l-0.7-1.6c0,0-0.7-1.7-0.9-1.9c-0.2-0.3-0.7-1.9-0.9-2.3c-0.2-0.4-0.4-0.9-0.8-1
		c-0.4-0.2-0.1,0.7-0.1,0.7l0.9,1.8l-1.3-1.4l-1.2,0.3l-1.2,0.3c0,0,0.4,0.8,1,1c0.6,0.2,1.4,0.5,1.4,0.5l1.9,2.5c0,0-1.4-1-2.4-1.7
		c-0.9-0.8-1.5-1.3-1.7-1.3c-0.2,0-0.7,0.3-0.7,0.3l0.2,0.9l1.4,2.5c0,0-1.8-3-2.1-3.1c-0.3-0.1-0.6,0.2-0.8,0.2l1.3,4.1
		c0,0-1.4-3.4-2-3.6c-0.6-0.2-1.1,0-1.1,0l0.4,1.5l-0.9-0.8l1,1.8c0,0-1.4-1.3-1.7-1.1l1.1,2.7l-1.5-1.6l-1.8,0.2
		c0,0-0.1,1.3,0.2,1.7l-1.1-0.3l0.3,1.1l-1.2-0.8l-0.1,1.3l-0.4-0.8c0,0-0.5,0.5-1,0.7l-0.3,1.2c0,0-0.2-0.5-0.6-0.5
		c-0.5,0-0.9,0.1-0.9,0.1l0.2,1.1c0,0-0.6-0.4-1.1-0.5c-0.5-0.1-1,0-1,0s-0.4,0.3-0.7,0.5c-0.4,0.2-1.8,1.5-1.8,1.5l0.3-1.4
		c0.1-0.6-0.5-0.6-1.1-0.3c-0.5,0.3-0.9,0.5-1.1,0.2c-0.2-0.3-0.6-0.3-1-0.3c-0.4,0-0.9,0.1-1.3-0.2c-0.3-0.3-1.1-0.1-1.1-0.1
		s-1,0.8-0.8,1.1c0.2,0.4,1.2,0.5,1.2,0.5c-0.1,0.4,0.4,0.9,0.8,1.2c0.7,0.5,1.5,0.9,0.2,0.3c-1.3-0.6-1.2-0.4-1.7-0.6
		c-0.5-0.1-0.9-0.1-0.9-0.1L384,254c0,0,0.6-0.1,1.1,0.2c0.4,0.3,0.8,0.8,1.6,1.1c0.7,0.2,0.4-0.1,1.2-0.1c0.7-0.1,0.7,0.1,1-0.1
		c0.3-0.2,0.1-0.8,0.4-1.1c0.3-0.3,0.9-0.9,0.9-0.9s-0.3,0.7-0.6,1.1c-0.3,0.4-0.5,1.2-0.5,1.2s0.6,0.1,1.1,0l0.5-1.3
		c0.5-1.2,0.8-1.5,0.8-1.5s0.4-0.2,0.7-0.4c0.3-0.5,0,0.6,0.4,0.6c0.4-0.1,0.7,0.4,1.2-0.1c0.5-0.5,0.6-0.4,1.1-0.6
		c0.5-0.8,0.4-0.6,0.6-0.4c0.2,0.2,0.5-0.1,1.1-0.1c0.6-0.1,0.8,0,1.2-0.4c0.4-0.4,0.6-0.2,1-0.4c0.3-0.3,0.7-0.4,1.1-0.4
		c0.4,0,1.4-0.2,2-0.4c0.6-0.1,0-1.3,0-1.3l0.8,0.9c0.3,0.3,0.5,0.2,1.2,0.2c0.7,0,1.2,0.5,1.7,0c0.5-0.5,0.7-0.7,1.1-0.7
		c0.5,0,2.1,0.3,3.1,0.3c1,0,1.2,0.2,1.4,0c0.3-0.2,0.6-0.7,0.6-0.7s-0.5,0.6-0.2,0.7c0.3,0.1,0.7,0.3,1,0c0.3-0.3,0.5-0.3,0.6,0.1
		c0.1,0.3,0.5,0.6,0.9,0.6c0.3,0,0.7,0,1.1-0.2c0.4-0.2,0.8-0.3,0.8-0.3l0.3,0.9c0,0,0.3,0.1,0.6,0.1l1.2,0l0.1,0.6
		c0,0,1.4,0.3,1.9,0.3c0.5,0.1,1.2,0.3,1.6,0.3c0.4,0,1.1,0.2,1.7,0.4c0.6,0.1,0.9,0.2,1.6,0.7c0.7,0.4,0.9,0.5,1.6,0.6
		c0.7,0.1,0.6,0.3,1.1,0.6c0.5,0.3,0.8-0.1,1,0.3c0.2,0.3,1.2,0.7,2,0.8c0.8,0.1,1.1,0.2,1.4,0.5c0.4,0.2,0.4,0.1,0.8,0.3
		c0.4,0.1,0.3,0.2,0.9,0.4c0.6,0.2,0.5,0.2,0.7,0.5c0.2,0.3,0.3,0.4,0.7,0.5c0.4,0.1,1.1,0.5,1,0.9c0.7,0.8,0.6,1.2,1,1.3
		c0.6,0.6,0.6,0.6,0.8,0.7c0.4,0.6,1.5,1.1,2,1.4c0.5,0.3,0.2,0.4,0.9,0.5c0.6,0.1,0.8,0.2,1.1,0.4c0.3,0.2,0.8,0.7,2,0.9
		c1.2,0.3,0.9,0.4,1.5,0.7c0.6,0.4,0.5,0.2,1.3,0.6c0.8,0.3,1.4,0.8,1.4,0.8s0.2,1,1.3,1.2c0.6,0.1,0.8,0.1,1,0.2
		c0.9,0.8,1.2,1.3,2.1,1.7c0.9,0.4,0.9,0.5,1.5,0.9c0.7,0.4,1.4,1,1.9,1.3c0.5,0.3,2.4,2.1,3.2,2.6c0.8,0.5,0.7,0.3,1.4,0.9
		c0.7,0.6,0.8,0.6,1.3,1c0.6,0.5,1,1,1.7,1.4c0.7,0.4,0.8,0.9,1.6,1.4c0.7,0.5,0.9,0.5,1.3,0.9c0.4,0.4,0.4,0.2,1.5,1.2
		c0.5,0.5,0.6,0.5,0.7,0.6c0.1,0,0.1,0.1,0.6,0.7c0.9,1.1,0.9,1.8,1.7,2.6c0.8,0.8,0.8,2.8,1.8,3.3c1.1,0.5,1.6,0.5,1.8,1.1
		c0.2,0.6,1.1,1.8,1.1,1.8s1.9-0.2,2.9,0.1c1,0.3,4.1,1.5,4.1,1.5s-3.7-1.2-5.2-1.3c-1.5-0.1-1.9,0.4-1.2,0.6
		c0.7,0.3,0.7,0.2,0.9,0.5c0.2,0.3,0.5,0.8,0.7,1.2c0.2,0.4,0.3,1,0.8,1.1c0.5,0.1,1.9,0.1,1.9,0.1l-0.6,0.5c0,0,0.5,0.5,0.7,0.4
		c0.2-0.1,5.2-0.1,5.2-0.1s-5.7,0.1-5.4,0.6c0.3,0.5,0.8,1.2,1.2,1.4c0.4,0.2,0.4,0.3,0.6,0.6c0.6,0.3,0.7-0.1,0.9,0.3
		c0.1,0.3,5.5-0.2,5.5-0.2l-5.8,0.6c0,0,0.4,0.7,0.9,0.9c0.4,0.2,6.8,0.2,6.8,0.2s-6.2-0.2-6,0.5c0.2,0.6,1.1,1.2,1.4,1.5
		c0.2,0.3-0.2,0.4,0.7,1c0.9,0.6,1.5,0.7,1.7,1.1c0.2,0.4,7.6,0.8,7.6,0.8s-7.6-0.9-7.1-0.1c0.5,0.8,1.4,1.7,1.4,1.9
		c0.1,0.2,0.2,0.5,0.8,0.7c0.6,0.2,0.6,0.4,0.9,0.6c0.2,0.2,0.9,0.8,1.2,1.1c0.3,0.3,1.2,0.5,1.4,0.9c0.2,0.4,0.8,1.3,1.1,1.7
		c0.3,0.4,0.6,0.9,1,0.9c0.3,0.1,3.5,0.1,3.5,0.1s-2.7,0.1-2.8,0.5c-0.1,0.4,1.7,2.1,2.2,2.5c0.5,0.4,0.8,0.4,0.8,0.7
		c0,0.3,0.6,1.1,1.1,1.5c0.6,0.4,1.3,0.7,1.6,1.2c0.2,0.5,0.2,1,1,1.2c0.9,0.2,0.9,0.1,0.9,0.6c0,0.5,0.5,1.2,1.1,1.6
		c0.6,0.3,1,0.8,1.7,0.9c0.8,0.1,5,2.5,5,2.5s-4.8-2.6-5.2-2.1c-0.3,0.5,0.4,1.4,1,1.6c0.6,0.2,0.9,0.3,1,0.6c0,0.3-0.6,0.7,0.3,1.4
		c0.9,0.7,0.8,0.6,1.5,1c0.7,0.4,0.9,1.2,1,1.6c0.2,0.5,1,0.9,1,0.9l0.5-0.9c0,0-0.2,0.8-0.2,1.3c-0.1,0.5,0.7,1.1,1.1,1.8
		c0.3,0.7,0.8,0.4,1.1,0.3c0.3-0.2,0.3-0.6,0.1-1.3c-0.2-0.8,0-0.3,0-0.3s0.6,1.2,0.6,1.6c0,0.4-0.6,0.9-0.6,0.9s0.1,1,0.6,1.5
		c0.5,0.5,0.3,0.7,0.8,1.2c0.5,0.4,1.1,1.2,1.6,1.7c0.5,0.5,0.5,0.4,0.7,1.3c0.3,0.9,0.2,1.6,0.5,2.1c0.2,0.5,0.5,0.5,0.6,0.9
		c0.1,0.5,0.6,0.5,1.4,1.3c0.8,0.9,2.7,3,4.3,4.2c1.6,1.3,2.1,2,4.2,3.9c2.1,1.8,4.2,3.8,5,4.4c0.8,0.7,1.1,0.7,1.3,0.3
		c0.2-0.4-0.4-1.4-0.9-1.8c-0.5-0.5-1-0.9-1-0.9l2,1.8c1,0.9,1.3,1.2,2.3,1.6c1,0.5,2.1,1,2.8,1.1c0.6,0,0.5,0,1,0
		c-0.5,0,0.4,0.6,1.6,1c0.6,0.2,0.8,0.4,0.8,0.4s0.9,0.3,1.4,0.3c0.5,0.1,0.8,0.7-1,0c-1.8-0.6-3.2-1.7-4.4-1.8
		c-1.2-0.1-1.5,0.1-1.3,0.6c0.2,0.5,0.2,1,0.7,1l1.4,0.1l0.8,1c0,0,0.7-0.5,0.7-0.3c0,0.2-0.7,1.7-0.7,1.7l2.2,0.1l0.3,0.7l2.5,0.3
		l1.5,0.2l3.3,0.4l-3,0.5c0,0,0.9,0.3,0.3,0.4c-0.6,0.1-0.4,0.7,0.1,0.7c0.5,0,4.1-0.4,3.8-0.2c-0.3,0.1-3.5,0.2-3.3,0.6
		c0.2,0.5,0.6,1.2,1.1,1.2c0.6,0,3.6-0.4,3.6-0.4s-3.3,0.3-3,0.9c0.3,0.5,0.2,1,1.1,1c0.9-0.1,4.5,0.3,4.5,0.3s-3.7-0.2-3.3,0.6
		c0.4,0.9,1.2,0.8,1.7,0.9c0.6,0.1,3.5,0.2,3.5,0.2s-1,0.3-1.8,0.3s-1.2,0.2-0.6,0.6c0.6,0.4,1.3,0.3,1.3,0.3l0.5,1.4
		c0,0,1.5,0.6,1.9,0.5c0.4-0.1,2.2-0.1,2.2-0.1s-2.6,0-2.3,0.4c0.4,0.4,0.7,0.6,1.3,0.8c1.5,0.2,3,0.8,2.7,0.9
		c-0.3,0.1-2.6-0.8-2.3-0.4c0.3,0.4,0.4,1.3,1.1,1.4c0.6,0.1,2.1,0.6,2.8,0.8c0.6,0.2,0.8,0.3,0.8,0.3s-2.6-0.8-2.3-0.1
		c0.3,0.7,0.6,1.1,1.1,1.7c0.5,0.6,0.7,1.1,0.7,2c0,0.9,0.3,1.7,0.5,2.2c0.3,0.5,0.8,1.1,1.5,1.2c0.7,0.2,0.6,0,1.3-0.2
		c0.7-0.2,1.1-0.4,1.1-0.4s-0.9,0.4-0.6,0.8c0.2,0.5,0.5,1.2,0.7,1.2c0.3,0.7,1,0.3,1.1,0.8c0.1,0.5-0.2,0.6,0.7,0.5l4.6-0.2
		c0,0-2.9,0.3-3.1,0.6c-0.2,0.3,0.9,1.1,1.2,1.1c0.2,0,1.9,0,2.4-0.1c0.5-0.1,4-0.5,3.6-0.4c-0.4,0.2-2.4,0.7-3.3,0.8
		c-0.9,0.1-1.1,0.3-1.1,0.3s0.5,0.9,1.1,1c0.5,0.1,1.1,0.6,1.1,0.6l0.4-0.9l0.6,1.2l3.6-0.2l-1.7,0.5c0,0,1,0.5,0.8,0.6
		c-0.3,0.1-0.7,0.3-0.7,0.3s0.4,1.2,0.8,1.3c1.2,0.4,2.1,0.3,2.1,0.3s0.2-0.9,0.5-0.4c0.3,0.5,0.7,1.1,1,1.7
		c0.3,0.6,1.5,0.6,1.5,0.6s0.6,0.6,0.8,1c0.2,0.3,0.4,0.6,0.9,1c0.6,0.4,1.2,0.9,2.1,1.5c0.9,0.6,1.4,0.8,1.9,0.9
		c0.5,0.1,0.9,0.2,0.9,0.2l-0.3,0.7c0,0-0.5,0.6,0.1,0.6c0.6,0,1.1,0.2,1.1,0.2l-1.2,0.3c0,0,0.9,1.3,1.7,1.4
		c0.7,0.1,2.6,0.2,2.6,0.2l-1.4,0.4c1,0.8,0.9,0.9,0.9,0.9s-0.2,1.1,0,1.8c0.2,0.7,0.5,0.5,0.4,1.1c-0.1,0.5-0.4,1.2,0.1,2
		c0.5,0.8,0.8,1.5,0.8,1.5s0.9,0.5,1,0.9c0.1,0.3,0.3,0.9,0.1,1.2c-0.2,0.3-0.5,0.5-0.9,0.5l-1,2.1c0,0,0,0-0.7,0
		c-0.7,0.1-1.1,0.1-1.5,0.7c-0.4,0.6-0.6,0.4-1.7,0.3c-2.8-0.2-4.7-0.3-8.1-1.2c-2-0.6-5.1-2-7.7-3.5c-2.9-1.7-5.3-3.7-7.8-5.5
		c-4.8-3.5-9.3-7-11.1-8.4l-2.6-2.1l-0.2,1.4l-0.6-1.7l-0.5-1.7c-0.3-1,0.3-1.4-0.9-2c-1.2-0.6-1.4-0.5-1.4-0.5l1.7,3.7
		c0,0-1.4-3.3-2-3.5c-0.6-0.2-2.9-0.3-4.9-1.4c-2.8-1.5-4.1-2.7-4.1-2.7l-0.1,2.8c0,0,0.2-2.5-0.3-3.3c-0.5-0.8-3.8-3.2-3.8-3.2
		l0,4.5l-0.4-4.9c0,0-3.1-2.8-4.2-3.9c-1.1-1.2-1.4-0.9-1.4-0.9l0.7,3.8c0,0-0.8-3.7-1.2-4.5c-0.4-0.8-6.5-5.9-6.5-5.9
		s-0.2,0.8-0.2,1.4c0,0.2,0.9,1.4,0.4,0.8c-0.1-0.1,1.2,1.5,1.3,2.2l0.2,1.2c0,0-0.8-1.6-1.6-2.8c-0.8-1.2-0.1-2.2-0.6-3
		c-0.4-0.8-1-0.8-1-0.8s-0.4,1.1,0.2,3c0.7,1.9,1.1,2.4,1.1,2.4s-1.4-3.3-1.6-4.1c-0.2-0.9,0.3-1.8,0.3-1.8l-3.4-3.1
		c-1.8-1.6-5-4.6-5.8-5.4c-0.7-0.8-0.7-1.9-1-2c-0.3-0.1-0.7,0.1-0.7,0.1s0.5-0.2,0.6-0.9c0.1-0.6-0.1-1-0.1-1.9
		c-0.1-0.9-0.3-1-0.5-1.1c-0.3-0.1-0.8-0.2-1,0.1c-0.3,0.3-0.9,3.5-0.9,3.5s0.4-3.2,0.6-3.9c0.2-0.7,0.7-0.7,0.4-1.2
		c-0.4-0.5-2.3-2.8-3.1-3.4c-0.7-0.5-1-0.6-1.2-0.9c-0.2-0.3-0.2-0.5-0.9-0.5c-0.7,0.1-0.5,0.1-1-0.5c-0.5-0.5-0.6-0.8-1.3-0.8
		c-0.7,0-0.5,0.2-1-0.1c-0.5-0.3-0.7-0.5-0.8-0.2c-0.1,0.3,0.3,1.1,0.5,1.5l0.3,0.6l-1.1-1.7c-0.5-0.7-1.6-1.7-1.8-1.9
		c-0.3-0.2-0.6-0.4-0.5-0.1c0,0.3,0.2,4.1,0.6,5.5l0.6,1.9c0,0-1.3-4.4-1.6-6.2c-0.2-1.8-0.6-1.5-0.9-1.5c-0.4,0.4,0.2,2.5,0.2,2.5
		l-1.4-2.6l-1,0.5l0.4-1.5l-1-0.6c0,0-0.4,1.2,0.1,3.2c0.5,2,0.6,2.4,0.6,2.4s-1-3.9-1.1-5.3c-0.1-1.4-1.1-1.4-1.5-1.4
		c-0.5,0-0.5-0.3-0.4-1c0.1-0.8-0.6-0.6-0.6-1.2c0-0.6-0.3-0.4-0.7-1c-0.5-0.7-1-1.1-1-0.6c0,0.4-0.3,2.5-0.3,2.5v-4
		c0,0-1.2-0.6-1.6-1.2c-0.3-0.6-0.6-0.6-1-1c-0.4-0.3-0.7-1-0.7-1l-0.2,1.6l-0.2-2c0,0-0.3-0.5-0.9-1.4c-0.6-0.8-0.9-1.1-0.9-1.1
		l-0.2,1.1l-0.3-1.3c-0.5-0.1-0.3-0.8-0.9-1.3c-0.5-0.6-0.6-0.4-1.1-1c-0.5-0.6-0.5-0.4-0.5-0.4v2.5c0,0,0.1-2.5-0.3-3.2
		c-0.4-0.8-0.6-0.9-0.6-0.9s-0.5,0.3-0.6-0.1c-0.1-0.4-0.5-1.3-0.5-0.9c0,0.4-0.2,3.7-0.2,3.7s0.1-3.5-0.2-4.2
		c-0.3-0.6-1.3-2.7-2.1-2.9c-0.8-0.3-0.8-0.3-0.9-0.8c-0.1-0.5-0.4-0.9-0.7-1.1c-0.4-0.2-0.5,0.1-0.6-0.3c-0.2-0.4-0.2-0.6-0.5-0.7
		c-0.3-0.1-0.9-1.4-1.5-1.9c-0.6-0.5-0.5-0.3-1.1-0.6c-0.6-0.4-0.8-1.7-1.5-2.3c-0.7-0.7-2.9-2.8-3.4-3.4c-0.5-0.6-1.6-1.1-2.5-2.3
		c-0.9-1.1-0.9-0.7-1.4-1c-0.6-0.3-1.3-1.1-2.1-1.9c-0.9-0.8-0.7-0.5-1.1-0.9c-0.4-0.3-3.2-2.1-4.2-2.7c-0.9-0.6-0.8-0.6-1.6-1
		c-0.9-0.4-1-0.1-1.9-0.5c-0.9-0.4-2.5-1.5-3.4-2.5c-1-1-4.9-4.5-7.1-6.3c-2.2-1.8-3.4-2.7-5-4c-1.6-1.4-5.9-4.5-7.2-5.5
		c-1.3-1-2-1.4-3.7-1.5c-1.6-0.1-1.4-0.1-2.1-0.4c-0.7-0.3-1.1-0.5-1.5-0.5c-0.5,0-0.6-0.5-0.9,0.3c-0.3,0.8,0,1.7-1.4,1.6
		c-1.3-0.1-2.4,0.2-4.1-0.2c-0.9-0.2-1.8-0.6-2.5-0.7c-0.8-0.1-1.4,0.1-1.4,0.1s-0.5,0,1,1.4c1.5,1.4,2.9,3.2,2.9,3.2
		s-3.8-4.4-4.7-4.5c-0.9-0.1-1.2,0-1.2,0s0.4,0.7,0.8,1.6c0.1,0.3,0,0.8,0.3,1.1c0.8,1.1,0.9,1.2,0.9,1.2s-0.8-1.9-1.6-3
		c-0.3-0.5-0.9-0.8-1-0.8c-0.3-0.1-1.1-0.5-1.2-0.1c-0.1,0.3,0.3,1.1,0.6,1.4c0.3,0.2,0.9,1.9,1.6,3.3c0.1,0.2-1.9-4.3-2.8-4.5
		c-0.9-0.2-0.6,0.6-0.4,1.2c0.1,0.5-0.3-0.8-0.6-1c-0.3-0.2-1.4,0.2-1.4,0.2s0.5,1.2,0.9,1.8c0.4,0.6,1.3,1.4,1.6,1.8
		c0.7,0.9,3,7.4,3,7.4s-2.9-7.5-3.5-7.8l1.2,4.4c0,0-1.7-3.1-2-4c-0.3-0.9-0.6-1.4-1-2.3c-0.4-0.9-0.5-0.9-0.8-1.1
		c-0.3-0.2-0.4-0.3-0.6-0.1c-0.1,0.2,0.7,1.7,0.7,1.7s-0.6-0.1-0.7-0.6c-0.2-0.5-0.2-0.6-0.5-0.9c-0.3-0.3-0.7-0.6-1-0.6
		c-0.2,0-0.1,0.3-0.1,0.9c0,0.6-0.1,0.7,0.3,1.1c0.4,0.3,1.9,1.9,1.9,1.9s-2.2-2.3-2.6-2.5c-0.3-0.3-1-0.8-1-0.8s-0.6-0.4-0.7,0
		c-0.1,0.4-0.1,0.2-0.1,0.6c0,0.4,0.3,2.4,0.3,2.7c0,0.3-0.3-3.1-0.8-3.3c-0.5-0.2-0.8-0.1-0.8-0.1s0.4,1.5,0.2,1.5
		c-0.2-0.1-0.8-1-0.9-1.2c-0.2-0.2-0.6,0-0.6,0l0.1,2.7l-0.6-2.1c0,0-0.7,0.2-1,0.2c-0.3-0.1,1,2.4,0.8,2.2
		c-0.3-0.2-1.2-1.4-1.7-1.7c-0.5-0.4-0.8-0.4-0.8-0.4s0,1.3,0.1,1.9c0.1,0.6,0.2,1,0.5,1.1c0.2,0.1,3.6,3.6,3.6,3.6
		s-3.4-3.1-4.1-3.2c-0.7-0.1-1.1,0.4-0.4,1c0.7,0.7,1.2,2,2.3,2.5c1.1,0.5,4.2,2.1,4.2,2.1s-3.2-1.2-3.9-1.3c-0.6,0,0.7,1.3,1.5,2.6
		c0.8,1.3,1.1,1.5,1.2,2.1c0,0.6,1,1.9,1.4,2.5c0.4,0.6,0.2,1.3,0.7,2.1c0.6,0.9,1.4,1.6,1.6,2.3c0.4,1.8,1.3,2.9,1.3,2.7
		c0.1,1.2-0.2,4.2,0.2,4.9c0.3,0.6,0.7,1.1,1.1,1.4c0.5,0.2,0.7,1.1,1.8,2c1.1,0.9,2.1,2.1,2.1,2.1s-1-0.5-2.1-1.9
		c-1.1-1.4-2-2-2-1.4c0,0.3,0.2,0.7,0.2,1.3c0.1,0.6,0.3,1.4,0.6,1.6c0.4,0.4,1.5,0.9,2.8,1.8c1.3,1,3,3.7,3,3.7s-2-1.8-2.6-2.5
		c-0.6-0.8-2.1-1.9-2.6-1.9c-0.5-0.1,0.1,1.4,0.4,2.2c0.3,0.8,2,1.3,3.2,1.8c1.2,0.5,3.6,2.3,4.7,3.3c1.1,1,1.3,1.3,1.3,1.3
		s-2.7-1.7-3.6-2.5c-0.9-0.8-1.4-1-2.1-1.4c-0.6-0.3-0.6-0.2-0.6-0.2s2.9,3,3.3,3.5c0.4,0.5-2.1-1.7-2.9-2.6
		c-0.7-0.9-1.8-1.7-2.5-2.2c-0.4-0.3-0.5,0.8,0.1,1.3c0.6,0.5,0.6,0.2,0.6,0.8c0,0.6-0.4,1,0.1,1.3c0.5,0.3,3.1,1.5,3.9,1.9
		c0.8,0.4,3.8,2.4,3.5,2.3c-0.3-0.1-4.7-2.6-6-3c-1.3-0.3-0.7,0.8-0.2,1c0.4,0.3,5.5,2.4,5.5,2.4l-5.3-2c0,0,0.4,1.5,0.7,1.9
		c0.2,0.4,1.3,0.5,2.1,1.5c0.9,1,1.9,2,1.9,2l-2.8-1.9c-0.5-0.4-0.6,0.4-0.3,0.9c0.4,0.6,1.2,1,1.3,1.2c0.2,0.2,0,0.3,0.2,1.1
		c0.2,0.8,0.6,1.2,1.3,1.6c1.5,1.1,2.9,2.5,2.9,2.5l-2.5-1.7l0.8,1.4l-1.5-1.4c-0.6-0.6-1.2-1.1-1.1-0.4c0.2,0.8,0.7,1.4,1.1,1.9
		c0.4,0.5,0.4,0.4,1.1,0.9c0.7,0.5,1.6,1.6,1.6,1.6s-1.6-0.9-2.1-1.2c-0.5-0.2-1.4-0.4-1.2,0.2c0.2,0.6,0.2,1,0.8,1
		c0.6,0.1,0.8,0.9,1,1.3c0.2,0.4,0.1,0.5,0.5,0.9c0.4,0.3,0.6,0.6,0.8,0.9c0.1,0.3,0.3,0.9,0.1,1.3c-0.1,0.4,2.9,0.8,2.9,0.8
		l-1.4,0.4c0,0-0.2,0,0.2,0.6c0.4,0.6,0.8,1.1,0.8,1.1h-1.8l0.4,0.8l3.4,2.8l-3.9-2.7l-0.1,1l3.2,4c0,0-1.3-1.1-2-1.5
		c-0.6-0.3-0.5,0.2-0.5,0.2s-0.3,1.5,0.1,2c0.4,0.5-0.2,0.6,0.8,0.9c1,0.3,1.3,0.4,1.2,1.1c-0.1,0.7-0.2,0.8-0.4,1.2
		c-0.2,0.3,0,1.9,0,1.9l-1.2,0.1l-0.2-0.9l-1.1,0.1c0,0-0.1,0.6,0.3,1.4c0.3,0.8,0.7,1.1,0.7,1.4c0,0.3,0.7,0.8,0.7,0.8l4.5,0.4
		c0,0-4.8-0.4-4.7-0.1c0.1,0.4-0.3,1.3,0,1.5c0.2,0.2,3.2,1.8,2.9,1.7c-0.3-0.1-2.8-1.7-2.8-1.2c0.1,0.6,0.3,1.6,0.6,2
		c0.3,0.4,0.7,0.1,0.5,0.6c-0.2,0.6-0.4,0.6,0,0.9l1.5,1c0,0-1.3-0.2-1.5-0.5c-0.2-0.3-0.4-0.9-0.6-0.5c-0.2,0.4-0.3,1.4-0.1,1.7
		c0.3,0.3,0.5,0.1,0.7,0.5c0.2,0.4,0,0.6,0.6,1.2c0.7,0.5,0.6,1.1,0.6,1.5c0,0.4,0.1,0.9,0.1,0.9s1.9,1.1,2.3,1.7
		c0.3,0.6,0.6,0.9,0.6,0.9s-2.1-2.9-2.8-2c-0.6,0.9-0.2,4.2-0.2,4.2s0.8,0.4,1,0.9c0.2,0.5,0.5,0.9-0.3,0.9c-0.9,0-1.3,0.4-0.6,0.9
		c0.7,0.6,0.8,0.8,1.1,1.4c0.3,0.6,0.1,0.6,0.1,0.6s-0.7-1.3-1.2-1.2c-0.5,0.1-0.6,0.1-0.6,0.7c0.1,0.6,0.3,0.7,0.7,1.9
		c0.4,1.2,0.3,1.7,0.5,3c0.2,1.3,0.3,1.3,0.3,1.3l-0.7,0.1c0,0,0,0.5-0.1,0.9l-1.4,0.7l0.1,1l-0.6,2.9l-0.7-0.6l-0.6,1.1l-0.9,0.8
		c0,0-0.3,0.6-0.9,1.3c-0.6,0.7-0.3,0.7-1,0.7c-0.7,0.1-1.1,0.1-1.6,0.6c-0.5,0.5-1.3,0.4-2-0.5c-0.7-0.9-1.1-1.3-1.4-1.2l-0.5-0.9
		l-0.8-0.1l-0.1-1.3c0,0-0.2-1.5-1.1-0.8c-0.9,0.8-1.1,0.5-1.1,0.5s-0.4-0.2-0.8-1.7c-0.4-1.5-0.5-2.5-0.3-3.2
		c0.1-0.7,0.3-0.5,0.5-1.4c0.2-1,0.2-1.7-0.8-0.9c-0.4,0.3-1.1,0.1-1.1,0.1s-0.1-2.7-0.3-3c-0.2-0.3-0.4,0.2-0.4-0.9
		c0-1.2-0.2-4.4-0.5-5c-0.3-0.6-0.6-0.9-0.6-0.9s0.5-0.3,0.7-1.1c0.2-0.8,0.3-2.1,0.3-2.1l0.9-0.4c0,0,0.6-1.4,0-1.2
		c-0.6,0.2-1.7,0-1.7,0s0.2-2.3,0.3-3c0.1-0.7,0.2-2,0.2-2s1.4-1.3,1.7-1.8c0.3-0.6,0.4-1.2,0.4-1.2l-0.4-0.8l-0.7,1
		c0,0-0.8,0-1.4,0.1c-0.6,0.1-0.8-0.1-1.1,0.4c-0.3,0.2,0.2-0.9,0.5-1.3c0.3-0.4-0.3-0.6,0.2-1.1c0.5-0.4,0.7-0.8,0.7-0.8
		s1.1-0.6,1.6-1c0.5-0.4,0.2,0,0.5-0.6c0.3-0.6,0-0.6-0.6-0.7c-0.5-0.1-0.3-0.4-0.6,0.2c-0.2,0.6-0.7,1.3-0.7,1.3s-0.2,0.6-0.5-0.2
		c-0.3-0.8-0.5-0.5-0.9-1c-0.4-0.5-0.3-0.8-0.6-0.6c-0.3,0.2-0.6,1.5-0.8,1.8c-0.2,0.3-0.7,0-0.5-1.6c0.2-1.6-0.1-3.4-0.1-4.5
		c0.1-1.2-0.2-2-0.2-2s-0.5,0.1-0.9,1l-0.8,1.5c0,0,0-1.1,0.4-1.7c0.4-0.6,0.9-1,1.2-1.6c0.3-0.6,0.4-0.3,0.4-1.5
		c-0.1-1.2-0.3-1.3-0.3-1.3s-0.7,0.4-1.1,1.6c-0.4,1.2-0.7,1.7-0.7,1.7s1-2.9,1.1-3.6c0.2-0.7,0.2-1.2,0.2-1.2s-0.2-1.1-0.6-0.5
		c-0.4,0.6-1.1,0.9-1.1,0.9s0.3-2,0.5-2.4c0.1-0.4,0.6,0.3,0.8-0.6c0.2-0.9,0-1.5-0.6-1.3c-0.3,0.1-0.9,0.6-0.8,0.2
		c0.3-1,0-1.7,0-2.2c0-1,0.3-2.1-0.1-2.1l-1.6,2.5c0,0,1.5-2.6,1.3-3.2c-0.2-0.6-0.1-0.8-0.2-0.6l-1.7,2.3c0,0,0.8-1.7,1-3
		c0.2-1.2-0.2-2.4-0.2-3c0-0.6-0.1-1-0.1-0.6c-0.1,0.3-1.1,2.9-1.1,2.9s0.5-1.6,0.5-3c0-1.5-0.3-2.5-0.3-2.5s-0.9,2.3-1.1,3
		c-0.2,0.7,1.6-2.8,1.1-3.9c-0.5-1-0.8-0.6-1.2,0.2c-0.4,0.8-0.9,2.3-0.9,2.3s1.6-2.8,1.4-3.9c-0.1-1.1-0.7-1.1-1.1-0.2
		c-0.5,0.9-1.1,2.6-1.6,3.8c-0.4,1.2-0.1-0.2,0.8-2.4c0.8-2.2,1.4-1.7,1.1-3.4c-0.2-1.4-0.5-2-0.9-1.5c0,0-0.4,0.5-0.3-0.9
		c0.1-0.8-0.5-1.4-0.6-1.1c-0.1,0.3,0.7-1-1.2,2.1c-1.2,2-1.7,3-1.7,3s0.2-0.4,0.6-1.4c0.9-2.3,2.1-3.1,2.3-4.8
		c0.1-1.7-0.6-1.9-0.6-1.9l-2.3,3.7c0,0,2.2-3.7,2.1-4.9c-0.1-1.2-0.6-1.3-0.7-1c-0.1,0.3-2.7,4.9-2.7,4.9l1.1-3.9
		c0,0-0.5-1.3-0.4-2.3c0-1,0.2-1.5,0-1.3c-0.3,0.2-1.3,0.2-1.3,0.2v-2c-0.4,0-1,2.4-1,3c0.1,0.6,0.2-1.9,0.3-3.3
		c0.1-1.4-0.8-2.3-0.9-2.5c-0.2-0.2-0.3-1.1-0.3-1.1c-0.4,0.3-1.4,1.1-2.8,3.5c-1.4,2.5-1.4,2.2-1.4,2.2s1.3-2.9,2.5-4.3
		c1.2-1.4,1.4-1.8,1.6-2.2c0.2-0.4,0.1-1.2-0.5-1.3c-0.6-0.1-0.6-0.2-0.6-0.8c0-0.6-0.3-1-0.5-1.3c-0.5-0.8-1.4-2.1-1.4-2.1
		s-1.2,1.7-1.6,2.3c-0.5,0.6,1.4-1.4,1.2-2.6c-0.1-1.2-1-1.3-1-1.3s-0.5,1.9-0.6,2.5c-0.2,0.6,0.1-1.8,0.1-2.3c0-0.5-0.7-1-0.7-1
		l-0.1,3.5c0,0-0.5-2.6-0.6-3.1c-0.1-0.5-0.7-0.7-0.7-0.7l-0.9,3.1l0.2-3.9l-1.2,2.2l0.5-3.7c0,0-0.7,0-1,0.5
		c-0.3,0.5-0.7-1.3-0.7-1.3h-0.9v1.6l-0.3-2l-0.5,1.8l-0.2-3.4c0,0,0.1-0.5-1-1.1c-1.1-0.6-1.1-0.7-1.1-0.5c0,0.2,0.8,3.2,0.8,3.9
		c0,0.7-0.6-2.9-1.1-3.7c-0.6-0.7-0.9,0.2-1.2-0.2c-0.3-0.5-0.3-0.6-0.8-0.7c-0.5-0.1-0.9-0.5-1.1-0.7c-0.2-0.2-0.6-0.6-1-1.1
		c-0.5-0.5-0.8-0.5-1-0.6c-0.3-0.1-0.2-0.2-0.9-0.2c-0.7-0.1-0.6,0.2-0.3,1c0.3,0.8,0.5,2.1,0.5,2.1s-0.5-0.8-1.1-1.2
		c-0.6-0.3-1.2-0.6-1.2-0.6s-0.2,1.1-0.1,1.7c0.2,0.8,0.8,1.1,1.1,1.7c0.4,1-0.6-0.1-0.9-0.6l0.5,2.2c0,0-1-1.1-1.3-2.3
		c-0.3-1.2-0.5-2.6-0.5-2.6s-0.7-0.4-0.8-0.2c-0.1,0.2,0.2,3.7,0.2,3.7s-0.4-2.9-0.8-3.6c-0.5-0.6-1.2-1.4-1.7-1.6
		c-0.4-0.2-0.7-0.2-0.7-0.2l0.2,3.2c0,0,2.7,2.8,4.2,3.9c1.5,1.1,3.8,2.2,6.8,2.5c3.1,0.3,4.1,0.3,3.9,0.4c-0.2,0.1-4.9,0.6-8.1-1.1
		c-3.2-1.7-6.9-5.8-7-4.9c0,0.9,0.1,5.5-0.2,8.3c-0.3,2.8-0.7,6-0.9,7.8c-0.2,1.8-0.5,2.7-0.5,2.7l0.9,3.7l-1.3-2.9l-0.1,0.8
		l0.6,2.8l-1.1-1.6l-0.2,0.9l1,3.6c0,0-1-2.9-1.6-3.2c-0.5-0.3-0.7,0.1-0.7,0.5c0,0.3,0.5,4,0.5,4l-0.9-3.4c0,0-0.2,0.2-0.5,0.6
		l0.5,5l-1.3-4.3l-0.6,0.1l0.2,2.2l-0.9-1.6l-0.3,0.6l0.4,1.6l-1-1.6l-0.1,2.8l-1-2.6l-0.7,0.1l0,2.8l-0.2-2.3l-0.7,0.2l0.2,9
		l-0.6-9.3l-0.9,0.2l-0.3,1.6c-0.7,1.2-0.9,2.9-0.9,2.9l0.2-3.2l-0.4-1.2c0,0-0.5-0.1-0.6,0.5c-0.2,0.5,0.2,0.5-0.3,0.6
		c-0.5,0.1-0.8,0.5-0.8,0.5s-0.7,4-1.2,4.5c-0.5,0.5,1.6-4.2,0.9-4.7c-0.7-0.5-0.9,0.7-0.9,0.9c0,0.2-0.3,3-1.4,4.1
		c-1.1,1.1,1-1.6,1.1-3.2c0.5-4.4-1.5,0.5-1-0.5c-0.4,0.7-1.9,0-1.9,0l-0.5,3.8l-0.1-4c0,0-0.4,0.3-0.9,0.2c-0.5,0-0.8,0.9-0.8,0.9
		s-0.4-0.6-0.4-1c0-0.4-0.4-0.2-1-0.3c-0.6-0.1-0.7,0-1.2,0c-0.6,0-0.8-0.8-1.4-0.9c-0.5-0.1-1.3-0.4-1.3-0.4s-0.4-0.7-0.8-0.3
		c-0.3,0.4-0.6,1.5-1.2,1.7c-0.6,0.2-1,0.4-1,0.9c0,0.5-0.5,2-0.5,2s-0.4,2.5,0,3.4l0.5,0.9c0,0-0.6-0.4-1-1.3
		c-0.2-0.5-0.2-1.5-0.2-2.2c0-1.6-1.5-0.5-1.5-0.5v3.9l-0.3-4.3l-1.9,0.3l1.4,4.9l-1.8-4.9l1.1,5l-1.7-3.9l-0.7,2.3l1.8,3.8
		l-2.2-3.8v-1.7l-0.1-0.6l-1-1.5c0,0-0.4,0.6-0.4,0.8c0,0.2-0.6,4.6-0.6,4.6l-0.6-2l-0.9-0.5l0.1,3.8l-0.7-1.7c0,0-0.1-0.1-0.4,1.6
		c-0.3,1.7-0.5,5.7-0.4,6c0.1,0.3,0.2,1,0.6,1.2c0.4,0.2,2.1,1.9,2.1,1.9s-1.4-1-1.9-1c-0.5,0-0.4,0.7-0.4,0.7s3.5,1.9,4.3,2.5
		l0.8,0.6c1.6,1,4.7,3,6.4,4.9c2,2.4,2.8,5,2.8,5s-1.5-3.6-4.4-6c-2.9-2.4-5.1-4-5.1-4s2.6,3,4.1,5.2c1.5,2.2,2.1,3.6,2.1,3.6
		s-2.4-3.6-4.6-6.2c-2.2-2.5-4-4.2-4.9-4.5c-0.9-0.3-1.5,0.2-1.5,0.2s0,1.3,0.7,1.8c0.4,0.3,1,0.5,1.5,0.6c0.7,0.2,1.5,0.4,2.2,0.9
		c1.3,1,1.3,1.1,1.3,1.1s-1.5-1.3-3-1.6c-1.6-0.3-1.7-0.3-1.7-0.3s0.2,1.2,0.6,2.2c0.4,1.2,0.9,2.3,0.9,2.3s6.3,2.8,8.4,4.8l3.1,2.9
		c0,0-3.9-3.5-7.3-5.3c-3.4-1.8-4.1-2-4.1-2l0.9,3.1c0,0,3.8,1.5,6.2,3.3c2.4,1.9,2.7,2.2,2.7,2.2s-2.8-2-5.1-3.4
		c-0.8-0.5-2-1-2.4-1.2c-1.7-0.8-1.2-0.6-1.2-0.6l0.2,1.4l3.1,2.4c0.5,0.4-2.2-1.3-2.5-1.5c-0.4-0.2,0.5,1.8,0.5,1.8
		s3.7,2.8,4.6,3.8l0.9,1l-5.4-4.2l1.7,1.7l-1.6-0.6c0,0,0.4,2,1.5,2.5c1,0.5,1.1,0.8,1.1,0.8l-1.8-0.4l0.3,1.3c0,0,1.6,0.4,2.9,1.1
		c1.8,1.1,3.7,2.7,3.7,2.7s-6.1-3.8-6.1-3.2c0,0.6,1,3.3,1,3.3s2.7,0.8,4.6,2c1.9,1.2,2.1,1.6,2.1,1.6s-2.5-1.6-4.3-2.2l-2.3-0.9
		c0,0,0,1.4,0.6,2.7c0.5,0.9,2.1,1.5,3.8,3.4c1.7,1.8,1.7,1.8,1.7,1.8s-5.6-5.3-5.5-4.3c0.2,1,0.5,2.2,0.9,2.6
		c0.4,0.4,2.4,1.5,4.1,5.6c1.3,3.1,1.4,4.5,1.4,4.5s-1.4-4.6-3-7c-1.4-2-2.4-2.9-2.3-2.1c0.1,0.8,0.2,0.8-0.2,1
		c-0.3,0.2-0.1,0.6-0.1,0.6s0.3,2,0.3,2.5c0.1,0.5,0.6,0.6,1.2,1.7c0.6,1.1,0.7,1.5,0.7,2.4c0.1,0.9,0.1,1,0.5,1.2l2.1,1
		c0.5,0.4-0.6,0.1-1.1-0.1l-0.2,1.1l1.7,0.7c0,0-0.9-0.3-1.5-0.3c-0.6,0-0.4,0.3-0.4,0.3s-0.4,0.2,0.5,1.6c0.8,1.3,1.8,3.2,2.6,6.7
		c0.2,0.8,0.3,1.3,0.5,2c0.4,2.1,0.4,3.6,0.5,4.1c0.2,0.7,0.1,0.3,0.6,1.8c0.5,1.5,0.5,2.9,0.4,3.5c0,0.5,0,1-0.5,0.8
		c-0.5-0.3-1.2-0.5-0.9,0.4c0.4,0.9,0.6,1,1,1.5c0.5,0.5,0.4,0.7-0.1,1.1c-0.4,0.4-0.9,0.3,0.1,1.9c0.4,0.6,0.9,1.9,0.2,1.8
		c-0.7-0.1-1.2-0.3-0.9,0.5c0.2,0.5,0.1,0.6,0.2,0.7c0.6,0.4,1,1,0.3,1.4c-0.4,0.3,0.2,0.8-0.3,2.1c-0.5,1.4-0.8,2.5-1.6,3.1
		c-0.8,0.6-1.6,0.3-1.6,0.8c0,0.5-0.1,0.7-0.5,0.9c-0.3,0.2,0.5,1.2,0.4,1.6c-0.1,0.5-0.6,0.3-0.9,0.7c-0.3,0.3,0,0.6-0.7,1
		c-0.7,0.4-0.8,0.5-1.2,0.5c-0.4,0-0.5,0-1.1,0.1c-0.6,0.1-0.9,0-1.6-0.5c-0.7-0.4-0.9-1-1.6-1.2c-0.7-0.2-0.3-0.1-1.1-0.1
		c-0.8,0-2.4-0.5-2.4-0.5l-0.4,1.1l-0.2-1.8l-0.9-1c-0.5-0.6-1-0.9-1.6-2.2c-0.6-1.3-1.1-2.4-1.5-2.8c-0.4-0.4-0.5-0.4-0.7-1.1
		c-0.1-0.7,0.3-0.6-0.2-1c-0.5-0.4-0.6-0.5-0.6-1c0-0.5-0.4-1.5-0.6-1.8c-0.2-0.3-0.3-0.4-0.4-1.4c-0.1-1-0.5-2.3-0.5-3.4
		c0-1.1,0.1-1.3-0.3-1.8c-0.4-0.5-0.9-3.8-0.9-4.3c0-0.5-0.6-1.9-0.6-1.9l-2,1.2c0,0,1.8-1.3,1.9-1.7c0.1-0.4,0.1-2,0.1-2
		s-0.9,0.6-1.4,1.5l-0.5,0.9c0,0,1.3-2.3,1.7-2.7c0.3-0.4,0.3-2.3,0.3-2.3s-2.4,1.9-2.8,2.3c-0.3,0.5,0.5-1,1.6-1.8
		c1.2-0.9,1-1.1,1-1.1l0.3-3.3c0,0-0.8,0.7-1.7,2.2c-1,1.5-1.1,1.3-1.1,1.3l2.8-4.1c-0.6-0.1-2.2,1.2-2.2,1.2s1.1-1.3,1.7-2
		c0.6-0.7,0.7-0.9,0.7-0.9s0.1-0.8-0.6-0.4c-0.6,0.3-0.9,0.4-1.1,0.6c-0.2,0.2,1-1,1.1-1.2c0.1-0.2-0.2-0.7-0.2-0.7l-1.8,1.2
		c0,0,1.1-1.1,1.8-1.9c0.6-0.8,1.1-1.8,1.1-2.5c0-0.7-0.5-0.5-0.5-0.5l-1.4,1.6c0,0,1-1.5,1-2c0-0.5-0.4-0.6-0.4-0.6l-1.6,1.9
		c0,0,0.4-1.3,0.6-2.3c0.2-1,0-1.6,0-2.7c0.1-1.1,0-1.2,0-1.2l-1.7,1.7c0,0-0.2-0.6,0-1.6c0.2-0.9,0.5-1.3,0.6-2.1
		c0.1-0.7-0.6-1.7-0.6-1.7l-1.2,3.3l0.6-3c0,0-1.8,2.3-1.9,3c-0.2,1-0.4,1.1-0.4,1.1s1.6-3.4,1.6-4.5c0-1.1,0-1.3,0.2-2.3
		c0.2-1,0.1-1.4,0.1-1.4s-1.1-1-1.9,1.1c-0.7,2.1-1.3,3.4-1.5,3.7c-0.2,0.2,0.1-0.2,0.7-2.3c0.6-2.1,1.3-2.9,1.6-3.6
		c0.3-0.8,0.5-2.5,0.7-3.4c0.3-0.9-0.3-2.6-0.6-2.1c-0.4,0.5-1.7,3.3-1.9,4.5c-0.2,1.2-0.2,1.7-0.2,1.7s0.8-4,1-5.8
		c0.3-1.7,0.8-2.3,0.9-3.1c0.1-0.8-0.2-1-0.2-1s-0.8-0.1-1,1c-0.2,1-0.2,2.3-0.9,4.1c-0.4,1.1-1,3.4-1,3.4s1.2-5.7,1.8-8
		c0.7-2.3-0.1-2.1,0-2.9c0.1-0.8,0.2-1.3,0.1-1.7c-0.1-0.3-0.7,0.2-0.8,0.8l-0.5,2.3l0.4-3.3c0.2-1.2,0.4-2-0.2-1.5
		c-0.6,0.5-0.6,1.8-1.1,2.3c-0.5,0.5,0.3-1.3,0.8-2.3c0.5-0.9,0.2-1.7,0.2-1.7s-1.2,1.4-1.8,2.4c-0.6,1,0.8-1.7,1-2.2
		c0.2-0.5,0.1-1.9,0.2-3c0-1.1,0.3-1.2,0-1.7c-0.2-0.5-0.8-0.3-1.4,0.2c-0.6,0.4,0-0.9-1.5,1.6c-1.5,2.5-2,3.3-2,3.3
		s1.8-4.6,2.7-5.9c0.9-1.3,1-1.2,1.1-1.6c0.1-0.3-0.5-0.7-0.9-0.7c-0.3,0.1-0.6-0.5-1.4,0.9c-0.8,1.4-1.9,3.7-1.9,3.7
		s1.8-4.3,2.7-5.3c0.9-1,1-1.2,0.4-1.6c-0.6-0.4-1.4,0-1.6,0.3c-0.2,0.3-1.4,2.4-2.1,3.8c-0.7,1.3-1.5,2.1-1.5,2.1s1.7-3.4,2.8-5
		c1-1.6,1.1-2.2,1.1-2.2l-0.3-0.7c0,0-2.5,3-3.3,4.2c-0.4,0.6,0-0.5,1-1.9c0.8-1.3,2.1-2.9,2.3-3.1c0.3-0.5,0.2-0.9,0.1-2.3
		l-0.1-1.4l-3,2.9c0,0,2.3-2.4,2.6-3.1c0.3-0.7,0.5-1.4-0.2-1.6c-0.7-0.2-0.2,0-1.4,0.4c-1.1,0.4-1.3,0.4-1.3,0.4s1.3-0.7,2-1.3
		c0.7-0.6,0-1.7,0-1.7l-2.2,1.6c0,0,1-3.5,1.2-4.1c0.2-0.6,0.2-2.3-0.1-2.8c-0.3-0.5-0.4,0.1-0.6-0.9c-0.2-1-0.5-1.4-1.1-1.7
		c-0.6-0.2-1.4-1.4-1.9-0.6c-0.8,1.3-0.9,1.2-0.9,1.2l-1.1-2.3c0,0-1,0.2-0.8,0.5c0.1,0.2,1.5,5,1.5,5l-2.1-4.2l0.2,2.3l3.6,6.1
		c0,0-3.7-6.1-3.6-5.4c0.1,0.8-0.1,1.1-0.1,1.4l0.1,4.4l-0.9-6.7c0,0-0.9-1.7-0.9-1.4c0,0.3,0.6,6.6,0.6,6.6l-1-4.5l-0.9,3.3
		c0,0,0.3-1.8,0.4-3.1l0.3-3.5l-1-0.4l-0.1,7l-0.8-3.9l-0.3,10.5l-0.2-11.3l-0.7,0.8l-0.3,6.3c0,0,0-4.7-0.2-4.4
		c-0.1,0.3-0.6,1.2-0.6,1.5l-0.3,7.2v-8.3l-0.1-3.7l-0.9,1.9l-0.4,3.2l-0.2-4.9l-1,2.3l-0.1-1.7l0.6-3.4l-1,0.5l-0.4,2.9l-0.3-1.4
		l-0.7-0.2v1.2c0,0,0.8,1.2,0.9,2l0.2,1.3c0,0-0.6,0.5-0.1,2.1l0.7,2.6c0,0-1.3-3.1-1.6-4.3c-0.3-1.2-0.6-2-0.9-2.5l-0.5,7.4
		c0,0-0.3-8.2-0.3-8.9c-0.1-0.7-0.9-3.6-0.9-3.6l-0.3,5.6L276,327c0,0-0.4,0.2-0.4,1.3v1.2c0,0-0.2,1.1,0.2,2
		c0.4,0.9,0.5,0.9,0.5,0.9l-1.4-2.7c0,0-0.3-1.8-0.3-2.6c0-0.8-0.1-2.3-0.1-2.3s-1.2,0.8-1.4,2.5c-0.2,1.7-0.5,4.5-0.5,5.6
		c-0.1,1.2,0,1-0.2,1.9c-0.2,0.9-0.3,2.3-0.2,3.3c0,1.1,0.2,1.1,0.2,1.1s1.7-0.2,3,1.2c1.2,1.4,1,1.7,1,1.7s-1.5-1.9-2.7-2.3
		c-1.2-0.4-0.9,0.2-0.7,1c0.2,0.8,0.9,1.2,1,2.3c0.1,1,0.9,1.4,1.4,1.8c0.5,0.5-0.5,0.1-1.4-0.8c-0.9-0.9-0.3-1.1-0.7-1.8
		c-0.3-0.7-0.7-0.7-0.7-0.7s-0.1,2.2,0.1,2.6c0.2,0.4,0.5,1,0.1,1.2c-0.4,0.2-0.6,0.6-0.4,1.4c0.2,0.8,0.4,3.8-0.5,2.5
		c-0.5-0.7-1.6-0.3-1.6,0.8v2.6c0,0,2.9,2.9,3.6,4.2l0.7,1.3c0,0-2.6-3.7-3.6-4.3l-1-0.6c0,0,0.6,1,0.2,1c-0.5,0.2,0,1.2,0.1,1.8
		l0.1,0.6c0,0-0.8-1.3-1-0.9c-0.2,0.4-0.1,0.7-0.1,0.7s1.4,2.2,1.6,2.6c0.2,0.4,0.7,0.7,0.8,1c0.1,0.4,0.3,1.2,0.3,1.2
		s-2.3-4.1-2.7-4c-0.3,0.1,1.6,3.2,1.6,3.2s-1.9-2.8-2.3-2.8c-0.4,0.2-1.1,0.7,0.2,2l0.9,0.9c1.1,1.2,2.2,2.5,2.6,3.2
		c0.5,0.8,0.8,0.9,0.8,0.9s-3.1-3.1-3.6-3.6c-0.5-0.5,1.9,5.3,2,8.6c0.1,3.3-0.1,3.3-0.1,3.3s-0.1-4.2-0.8-7.5
		c-0.5-2.2-1.6-4-1.7-4.1c-0.3-0.2,0,2.9,0,4.9v3.4l-0.3-2.9l-0.1,5.2l-0.7-6.4c0,0,0.1-2.8,0-3.9l-0.1-1.2c0,0-1,0.7-1,0.9
		c0,0.2-0.1,2.3,0,2.5c0.1,0.2,0.9,3.5,0.9,3.5s-1.1-3.2-1.3-3.3c-0.2-0.1-1,2.6-1,2.6s1.3,4.5,1.4,6.7c0.1,2.2,0.1,2.2,0.1,2.2
		s-0.5-3.8-1.1-6.3c-0.3-1.2-1-2-1-2s-0.2,1.6-0.6,2.3c-0.3,0.7-0.5,0.6-0.5,1.3c0,0.7,0,0.9-0.2,1.5c-0.2,0.7,0,0.9-0.3,1.6
		c-0.3,0.6-0.3,0.8-0.3,0.8s1.4,2.1,1.9,6c0.4,3.9,0.4,3.9,0.4,3.9s-0.6-4.5-1.4-7.3c-0.5-1.6-1.1-2.4-1.1-2.4l-0.4,2.1l1.8,4.3
		c0,0-1.8-4.3-1.9-3.8l-0.6,2.3l2.4,4.4c0,0-2.3-4.3-2.6-3.9c-0.3,0.4,0.1,0.9-0.3,1.1c-0.5,0.1-0.2,0.8-0.2,0.8l0.1,1.1l3.5,5.4
		c0,0-2.6-3.5-3.5-5c-0.9,0.6-0.8,2.4-1,2.8l1.5,5c0,0-1.7-4.5-1.8-4.1c-0.1,0.4-0.7,2.3-0.7,2.3s2.3,3.1,3.2,5.2
		c0.7,1.6,1.1,2,1.4,3.1c0.3,1.1-2.7-5-3.6-6.2c-1-1.3-1.1-1.1-1.1-1.1s-0.4,0.3-0.6,1c-0.2,0.6-0.1,1.4-0.1,1.6
		c0,0.4,2.8,5.2,2.8,5.2s-2.7-4.6-3-4.4c-0.3,0.2-0.2,1-0.4,1.3c-0.2,0.3-0.2,2-0.2,2s0.6,0.2,0.8,2.5c0,0.3,0.1,1.4,0.1,1
		c0-0.4,0.1,2.6,0.1,2.6s-0.3-2.5-0.4-3.4c-0.1-0.9-0.4-3-0.7-2.2c-0.3,0.8-0.2,1.4-0.4,2.3c-0.2,0.8-0.4,1.4-0.4,1.4l0.6,7.2
		l-0.9-6.1c0,0-0.2,0.7-0.5,1.5c-0.3,0.8,0,1.3-0.3,2c-0.3,0.8-0.6,1.1-0.6,1.7c0,0.7,0.1,0.9-0.2,1.5c-0.3,0.6-0.2,1.8-0.2,1.8
		l0.6,4.5c0,0-0.4-3.6-1-3.9c-0.6-0.3-0.7,1.4-0.9,1.6c-0.2,0.1-0.4,1.2-0.7,1.5c-0.4,0.3-0.5,0.1-0.5,1c0,0.8,0.2,4.7,0.2,4.7
		s-0.1-2.4-0.5-2.7c-0.4-0.3-0.7-0.3-0.7-0.3l-0.4,2.1c-0.2,0.8-0.3,1.3-0.3,1.3l-0.8-0.7l-1.2,0l-0.3,1.3l-0.7,0.8v1.8l2.3,2
		c0,0-2.4-1.9-2.5-1.1c-0.1,0.8-0.2,1.1-0.3,1.7c-0.1,0.7-0.1,1.8-0.1,1.8c-0.3,0.1-0.4,1.1-0.3,1.7c0,0.6-0.2,0.7,0.4,1.1
		c0.6,0.3,0.7,0.4,0.7,1.7c0.1,1.2-0.4,8-1,11.7c-0.5,3.7-0.7,5.3-0.9,5.9c-0.1,0.6-0.2,0.8-0.4,0.9c-0.2,0.2-0.2-0.4-0.4,0.5
		c-0.2,1-0.4,2.3-0.5,3.2c-0.2,0.9-0.2,1.4-0.4,2.1c-0.1,0.7-0.6,0.8-0.7,2.2c-0.1,1.3-0.1,1.9-0.3,2.3c-0.3,0.3-1.1,2.4-1.4,3.2
		c-0.3,0.7-0.3,1-0.5,1.9c-0.2,0.9-0.4,2.4-0.1,3.7c0.3,1.3,0.3,1.7-0.2,3.1c-0.5,1.5-2.6,5.8-3.5,7c-1,1.2-1.7,1.4-2.1,1.8
		c-0.5,0.4-0.9,1.1-1.4,0.6c-0.6-0.5-1-0.5-1.3-0.1c-0.3,0.4-0.6,0.6-0.4,1.3c0.2,0.7,1.4,1.6,2.2,2.7c0.8,1.2,1.2,1.5,1.2,5.4
		c0,3.9,0.5,9.2-0.2,15.6c-0.6,6.4-1.1,8.2-2.5,11.3c-1.4,3.1-2.5,3.4-3.1,3.6c-0.6,0.2-0.7-0.2-1.1,0.7c-0.4,0.8-0.6,2.1-1.6,3.3
		c-0.9,1.2-1.1,1.3-2.1,1.9c-1,0.6-1,1.6-1,1.6s0.1-0.5-0.4-0.6c-0.5-0.1-1.7-0.1-2.4-0.1c-0.7-0.1-1.3-0.7-1.3-0.7l-0.8,1
		c0,0,0.6-0.6,0.2-1c-0.4-0.3-1.6-1.4-1.8-2.7c-0.2-1.3-1-2.2-1.6-2.7c-0.6-0.5-3.1-4-3.8-8.7c-0.5-3.3-1-5.6-0.6-10.1
		c0.2-1.8,1.1-4.8,1.3-7.2c0.9-8.4,2-10,2.5-11.4c0.5-1.4,0.3-1.9,1.4-2.7c1-0.8,1.6-1.1,2.1-1.2c0.5-0.1,0.6-2.2-0.8-2.3
		c-1.3-0.1-3.1-0.9-3.6-4.1c-0.5-3.2-0.2-5-0.2-5.8c0.1-0.7,0-0.4,0.2-0.9c0.3-0.5,0.8-1.4,1.1-2.3c0.2-0.9,0.2-1.1,0.2-1.6
		c0-0.6-0.4-0.3-0.4-0.3l-2.2,2.7c0,0,2-2.5,2.5-3.4c0.4-0.9,0.3-1.6,1-2.7c0.7-1.1,0.8-0.6,1.1-1.6c0.3-1.1,0.3-1.6,0.3-1.6
		l-2.3,0.3c0,0,1.9-0.3,2.2-1c0.3-0.7,1.6-3.5,1.7-3.7c0.1-0.2-1.1-0.4-2.2,0.5c-1.1,0.9-1.1,0.8-1.1,0.8s0.7-0.8,1.7-1.3
		c0.5-0.3,1.3-0.4,1.6-0.4c1-0.1,1.5-2.1,1.6-2.8l0.1-0.6c0,0-0.9,0-2.8,1.1c-1.9,1.1-2.6,1.6-2.6,1.6s1-1,2.3-1.7
		c1.3-0.8,3.4-1.3,3.4-1.3l0.6-1.5c0,0-0.8-0.2-1.6,0.2c-0.8,0.5-0.9,0.5-0.9,0.5s1.6-1.1,2.2-1.3c0.7-0.2,1-1.2,1.2-1.9
		c0.1-0.7-0.2-0.6,0.3-1c0.5-0.4,1.9-2.5,3-3.9c1.1-1.4,1.5-2.5,2.3-3.9c0.8-1.4,0.4-1.7,0.4-1.7s-0.7-0.1-2.4,1
		c-1.6,1-2,1.5-2.6,1.6l-0.9,0.2c0,0,1.7-0.6,2.4-1.6c0.7-0.9,3.9-1.6,3.9-1.6s0.5-0.7,0.6-1.6l0.2-1.3c0,0-1.1-0.1-3,1.3
		c-1.9,1.4-2.2,1.4-2.2,1.4s1.3-1,2.6-1.8c1.3-0.8,2.7-1.4,2.7-1.4l0.6-3.1c0.1-0.6,0.1-0.7,0.1-0.7s-1.2,0.5-2.7,1.3
		c-1.5,0.8-2.6,0.8-2.6,0.8s3.1-0.9,3.8-1.5c0.7-0.5,1.7-0.7,1.8-1.3c0.2-1.2,0.5-4.3,0.5-4.3s-1.3-0.8-3.5-0.6
		c-2.3,0.2-5.4,0.5-5.4,0.5s5.9-0.7,6.9-0.6c0.9,0.1,2.4,0.4,2.4,0.4l0.1-1.4c0,0-2.8-0.8-4.2-0.5l-1.4,0.2c0,0,1.1-0.3,2-0.3
		c1.1-0.1,2.2,0,2.8,0.1c1.3,0.2,1.5,0.4,1.5-0.7c0-1.1,0-1,0.3-1.6c0.3-0.5,0.1-2.2-0.5-2.2c-0.6,0-2.2,0.4-2.4,0.1
		c-0.2-0.3-0.6-0.5-0.8-0.2c-0.2,0.3-0.8,1-0.8,1s0.3-1.2,0.9-1.5c0.6-0.3,1,0.6,1.5,0.2c0.5-0.5,0.4-0.8,0.2-1
		c-0.1-0.2-0.5-0.3-0.1-0.6c0.5-0.3,0.5-1.5,0.9-1.9c0.4-0.5,0.3-0.3,0.2-1.1c-0.2-0.8,0-1.4-0.1-1.7c-0.1-0.3-0.6-0.1-0.6-0.1
		l-1.6,1.7l2-2.4c0.4-0.5,0.6-0.7,0.6-2.1c0-0.9,0.6-1.3,0.6-1.4c0,0-0.2,0-0.6,0c-1.2,0.1-2.7,1.2-3.6,2.3l-1,1.2
		c0,0,0.6-1.2,1.8-2.2c0.8-0.7,2.1-1.4,2.6-1.6c1.1-0.5,1.1,0.2,1.2-1.3c0.1-1.5,0.2-1.9,0.2-1.9s-2,0.8-2.9,1.4
		c-0.9,0.6-1.2,0.5-1.5,0.9c-0.4,0.5-0.2-0.6,1.2-1.3c1.4-0.7,3.4-1.5,3.5-1.7c0.1-0.3,0.1-0.9-0.1-1.1c-0.2-0.1-1.1,0.3-1.9,1.2
		l-0.8,0.9c0,0,0.9-1.4,1.6-1.9c0.7-0.5,0.5-0.5,1-0.8c0.5-0.3,0.8-0.6,0.8-1.1c0-0.5-2.5,0.8-3.2,1.6c-0.8,0.8-0.5,0.2-0.5,0.2
		s1.4-1.2,2.4-2c1-0.8,1.5-1,1.5-1s0.4-0.4,0.4-1.4v-1.3c0,0-1.8,0.1-2.2,0.9c-0.4,0.9,0.1,1.3-1,2.4c-1,1.2-1.7,1.4-3,1.7
		c-0.6,0.2-0.9,0.4-0.9,0.4c0.3-0.2,0.8-0.7,1.2-0.8c1.3-0.2,2.9-1.1,3.1-2.3c0.2-1.2,0.5-2,1.3-2.4c0.9-0.4,1.3-0.2,1.9-0.7
		c0.6-0.5,1-3.5,0.7-3.2c-0.2,0.2-0.5,0.1-2.7,1c-2.2,1-2.5,1.3-4.4,1.5c-1.9,0.2-0.9,0-0.9,0s1.9-0.6,3.2-1
		c1.3-0.4,1.7-0.4,2.7-0.9c1.1-0.6,1.4-0.6,1.8-1.1c0.4-0.5,0.5-1.2,0.5-1.2s-1.3,0.1-2,1c-0.8,0.9-1,1.2-0.9,0.9
		c0.1-0.3,1.1-1.6,2.1-2.1c1-0.4,1.1-0.5,1.1-0.5s0.1-0.6,0.5-1.3c0.4-0.6,0.4-1,0.4-1s-1.7,0-3.2,0.6c-1.4,0.7-1.9,0.8-2.2,0.7
		c-0.4-0.1-0.7,0.3-1.1,0.6c-0.4,0.3-1.2,0.5-1.2,0.5s2.8-1.5,3.5-1.7c0.7-0.2,1.5-0.7,2.8-1c1.3-0.2,1.3-0.3,1.3-0.3
		s0.2-0.6,0.5-1.7l0.3-1.3c0,0-0.9-0.1-1.7,0.6c-0.8,0.7-0.9,0.7-1.3,1l3.3-2.3c0,0,0.1,0.5,0.4-0.8c0.2-1.3,0.3-1.5,0.3-1.5
		s-1.3,0.2-2.3,1.1c-0.3,0.3-1,1.4-1.3,1.7c-1.3,1.3-1.7,1.5-1.7,1.5s2.7-3.4,2.9-3.6c0.2-0.3-1.3,0.1-2.5,0c-1.2,0-1.5,0.1-2.1,0.9
		c-0.6,0.8-1,1-1,1l1.2-1.6c0.2-0.2,2.1-0.5,2.9-0.8c0.8-0.3,2,0.1,2.6-0.3c0.6-0.3,1.2-0.2,1.7-0.6c0.5-0.3,0.7-0.7,0.5-0.8
		c-0.3-0.1,0.5-0.2-2.3,0c-1.9,0.1-2.3-0.3-3.6,0.3c-0.7,0.4-1.4,0.8-1.8,0.9c-1.3,0.1-1.5,0.2-1.5,0.2s2.7-1.3,3.9-1.5
		c1.1-0.2,1.9-0.2,2.8-0.5c0.9-0.2,2.1,0,2.6-0.2c0.5-0.2,0.5,0.1,0.6-0.4c0.1-0.5,0.2-0.4,0-0.8c-0.2-0.4-0.9-0.5-0.3-0.6
		c0.6-0.1,0.9-1.4,1.3-2.6l0.4-1.2c0,0-2.4,0.6-3.4,1.7c-1,1.1-1.1,1.1-1.1,1.1s0.5-0.9,1.3-1.6c0.8-0.7,1.8-1.2,2.4-1.4
		c0.7-0.3,0.8,0.1,0.9,0.1c0.3-1.5,0.3-1.3,0.6-1.9c0.4-0.6,0.3-0.3,0.4-0.7c0.1-0.5,0-0.3,0.3-0.9c0.3-0.5,0.4-1.6,0.3-2.6
		c-0.1-1,0.5-1.5,0.8-1.9c0.3-0.5,0.7-2.6,0.9-3.4c0.1-0.8,0.3-0.8,0.7-1.8c0.4-1,0.7-0.7,0.4-1.1c-0.2-0.4-1-1.4-2-0.8
		c-0.9,0.6-1.1,1.1-2.1,1.5c-0.9,0.3-0.5-0.3-1.6,0.6l-1.8,1.4c0,0,1.7-1.9,2.9-2.7c1.1-0.8,1.7-1.1,2.4-1.4c0.7-0.2,1-0.8,1.4-0.6
		c0.4,0.1,0.6,0.7,1,0.4c0.4-0.3,0.7-1.9,0.6-2.4c-0.1-0.5-0.6-0.6-1-0.6c-0.4,0.1-1.5-0.2-2.1,0.2c-0.6,0.3-1.1,0.6-1.5,0.6
		c-0.3-0.1,0-0.2,0.7-0.6c0.7-0.3,2.6-0.5,3-0.7c0.4-0.2,0.7-0.2,0.6-0.7c-0.1-0.4-0.2-0.6-1-0.3c-0.8,0.3-0.8,0.2-1.3,0.3
		c-0.5,0.1-1.1,0,0.4-0.6c1.4-0.6,1.5-0.5,1.7-0.8c0.2-0.3,0.8-1.5-0.2-1.1c-0.5,0.2-0.7,0.2-0.8,0.2c-0.1,0.1-0.1,0.1-0.6,0.5
		l-2.3,2c-0.4,0.3,0.3-0.6,1.2-1.4c0.8-0.8,1.5-1.5,2.2-2c0.6-0.5,0.9-0.8,0.9-0.8s0.3-0.7-0.4-1.1c-0.6-0.3-0.4-1.1-0.4-1.6
		c0-0.5-0.1-1.6,0-3.1c0.1-1.4-0.6-0.9-0.6-0.9l-0.9,2.2c-0.3,0.6-1,0-1.3,0.7c-0.3,0.8-0.3,0.7-0.4,2.4c-0.1,1.8,0,2-0.1,2.3
		c-0.1,0.3-0.2-1.3,0-3.1c0.1-0.5,0-1.1,0.2-1.5c0.4-0.9,1.2-1.1,1.4-1.7c0.2-0.8,1.2-1.9,1.3-2.7c0.1-0.8,0.1-0.7,0.1-1
		c0-0.3-0.2-1.6-0.2-1.6s-0.9,1.6-1.2,2.9c-0.3,1.3-0.6,2.1-0.7,2.5c-0.1,0.4-0.1-0.5,0.2-1.8c0.3-1.3-0.5-1-0.5-1s-0.7,0.9-1,2.1
		c-0.3,1.2-0.4,0.3-0.2-0.5c0.3-0.8-0.5,0.2-0.5,0.2s-0.2,0.2-0.3,1.6c-0.1,1.4-0.1,2-0.1,2.2c0,0.2-0.6-0.5-0.6-1.8v-1.4
		c0,0,1.1-2.1,1.4-2.8c0.3-0.8-0.3-0.8-0.7,0.1c-0.4,0.9-0.6,0.9-1,2.3c-0.1,0.3,1-3.2,1.6-4.4c0.7-1.3,1.4-0.1,1.6-3.2
		c0.2-3.2,0.2-4,0.2-4s-0.3-1.8-0.4-1.5c-0.1,0.3-1.8,6.4-3.1,8.4c-1.3,2-1.7,2.1-1.7,2.1s2.6-4,3.3-6.9c0.7-2.9,1.3-4.3,1.6-5.2
		c0.3-0.9,0.6-0.9,0.3-2.2c-0.3-1.3-0.7-0.2-1.1,0.8c-0.5,1.1-1.6,3.8-2.5,6.1c-0.9,2.4-1.5,5.5-1.6,6.2c-0.2,0.8,0-0.2,0.3-2.6
		c0.4-2.4,2.1-7,2.9-8.9c0.9-1.8,0.9-2.5,0.9-2.5s-1.7,3.7-3.2,6.9c-1.5,3.2-1.6,3.3-1.6,3.3s2.1-5,2.5-6.2l0.4-1.1
		c0,0-0.3-0.6-2,1.8c-1.6,2.5-2.3,3.9-2.9,4.8l-0.6,0.9l1.1-2.8l5.5-8.7l-4.3,6.2l4.1-6.4l-2.5,3.6l1.8-4.5l-1.7,2.4l1.3-2.8
		l-1.5,2.2c0,0-2.1,3-3.1,6c-1,3-1.3,3.8-1.3,3.8s1.8-5.2,2.9-7.7c1.1-2.5,1.2-1.7,2.1-3.3c0.9-1.6,0.5-1.5,0.5-1.5
		s-1.9,0.9-3.1,2.9c-1.2,2-1.7,2.8-2.1,3.8c-0.4,1-0.4,1-0.4,1l1.4-3.8c0,0-0.8,0.9-2.5,2.5c-1.1,1-1.7,1.6-1.7,1.6
		c0,0,0.3-0.5,1.2-1.5c1.8-2.3,4.8-5.4,6.2-6.3c1.4-0.9,1.4-1,1.4-1s0.1-0.9-0.2-1.1c-0.2-0.3-1.6,0.6-2.3,1.1l-3.1,2.4
		c0,0-0.1-0.1,1.6-1.8c1.7-1.6,3.6-2.6,3.6-2.6s-1.3-0.5-3.5,1.1c-2.4,1.8-2.7,1.9-4,3.4c-1.3,1.5,0.4-1.5,1.9-2.6
		c1.5-1.1,5.5-2.7,5.5-2.7s-0.5-3.2-0.3-3.8c0.2-0.6,0.2-0.6,0.4-1.5c0.2-0.9,0.2-1.2,0.4-2.2c0.1-0.4-0.1-1.7,0-2.6
		c0.2-1.1,0.7-1.8,0.5-2.4c-0.3-1-0.3-2.3-0.7-3.5c-0.4-1.2-1.3-1.3-1.3-1.3s-0.6,0-0.3,0.6c0.2,0.6,1,5.1,1,5.1l-1.3-4.3l-0.7,3.8
		c0,0,0.4-3.4,0.4-4.4c-0.1-1,0.2-1.1-0.3-1.2c-0.5-0.1-1.2,0.4-1.2,0.4s-0.7,2.2,0.1,4.3c0.7,2,1.8,6.3,1.8,6.3l-2.5-7.9
		c0,0-0.5,1-0.7,4.7l-0.3,4.3c0,0-0.1-4.1,0.1-5.7c0.2-1.6,1.1-4.7,0.6-5.6l-0.9-0.1c0,0,0.3,1.1-0.2,2.2c-0.2,0.6-0.1,0.4-0.6,1.7
		c-0.5,1.3-0.1-0.5,0-1.7c0.2-1.1,0.4-2.4,0.4-2.4l-0.9-0.1c0,0-2.2,6.1-2.1,5.6c0.1-0.5,1.6-5.6,1.6-5.6l-0.7,0.1l-1.5,5
		c0,0,1.6-5.2,0.9-5c-0.7,0.1,0,0.8,0,0.8l-2.7,6.6l0.7-1.9c0.7-1.8,1.7-5.9,1.7-5.9l-1.3-0.1c0,0-0.4,0.6-1.2,3.4
		c0.2-0.5,0.2-3.7,0.2-3.7h-0.6l-0.5,3.4l-0.4-3.2l-0.3,3.5l-0.2-3.5l-0.8,5l0-4.9l-0.9,7.5l0.6-7.7c-0.5-0.1-0.8,7.2-0.9,6.3
		c-0.1-0.9,0-6.3,0-6.3l-0.6,0.1c0,0,0,0.3-0.5,1.4l-3,6.3c0,0,0.1,0,1.1-2.7c1.1-2.7,1.8-5.3,1.8-5.3s-0.6-0.4-0.9-0.2
		c-0.4,0.2-2.9,5.3-2.9,5.3l2.5-5.4c-0.5-0.1-3.1,6.4-2.6,4.9c0.4-1.3,1.8-5.1,1.8-5.1l-1.1-0.2c0,0-0.7,3-0.7,2.6
		c0.1-0.4,0.3-2.6,0.2-2.9c0-0.4-0.1,0.1-0.5,0.9c-0.3,0.9-2,4-2,4s0.4-0.8,1-2c0.6-1.2,0.8-3,0.8-3c-0.7,0-0.9-0.2-1.4,0.5
		c-0.5,0.7-0.6,1.7-1.2,2.7c-0.6,1-1.7,4.3-1.7,3.6c0.1-0.7,0.9-2.8,2-4.9c1-2.1,0.2-2.6,0.2-2.6s-1.4-0.4-1.4,0
		c0,0.2-0.5,1.7-1.1,3c-0.8,1.7-1.8,3.2-1.4,2.7c0.7-0.9,2-6,2-6l-0.5,0.7c-0.4,0.5-4.7,8.1-2.6,3.5c0.5-1.2,2.7-4.4,2.7-4.4
		s-0.2-0.4-0.6-0.5c-0.5-0.1-0.8,0-0.8,0l-3.7,6.3l3.2-6.6l-4.6,6.1l4.3-6.4l-8.1,12.3l7.1-12.6c0,0-0.1-0.6-0.6-0.4
		c-0.5,0.2-2.2,3-2.2,3l1.6-3.2l-5.2,5.6l3.9-4.8l0.6-1l-3.1,1.4l2.5-1.7l-1.2-0.6l-1.8,1.2l1.3-1.4l-1.1-0.4l-1.8,3.9l1.5-4.2
		l-1.9-0.4c0,0-0.3,0-0.4,1.2c0,1.3-0.2,4-0.2,4l0-0.8c0-0.7-0.1-1.9-0.1-1.9l-1.5,2.8c0,0,0.1-0.1,0.7-1.3c0.5-1.2,1.1-4.7,1.1-4.7
		s-0.8-0.4-1.6-0.1c-0.8,0.3-0.3,0.2-0.8,1.6c-0.3,0.7-0.4,2-0.7,2.8c-0.3,0.8-0.8,1.3-0.8,1.3s0.3-0.4,0.9-2
		c0.6-1.6,0.4-3.6,0.4-3.6s-1.3-0.1-1.6,0.8c-0.4,0.9-0.6,1.4-0.6,2c0,0.6-0.2,0.5-0.4,1.1c-0.2,0.6-2.3,6-2.3,6l0.6-1.3
		c0.3-0.9,0.8-2.8,1.1-4.1c0.1-0.6,0.3-1.4,0.3-1.4l-0.6,0.3l-0.3,1l-0.5,0.7l-0.5,0.5l-0.1,1l-0.6-0.1v4l-0.3-2.8
		c0,0-0.2,0.1-0.5,0.5c-0.3,0.4-0.5,0.6-0.5,0.6l0.5,4c0,0-0.6-3.1-0.6-2.8c0,0.3-0.5,0.4-1,0.9c-0.5,0.5-0.2,1-0.2,1l1.1,4.2
		l-1.3-3.2c0,0-0.5,0.1-1,0.1c-0.5,0-0.6,0.3-0.7,0.8c-0.1,0.5,0.2,0.4,0.2,1c0,0.5-0.2,0.6-0.5,1.1c-0.3,0.5-0.3,0.7-0.4,1.1
		c-0.2,0.4-0.6,0.3-0.8,0.5c-0.2,0.2,0,1.4,0,1.4l-0.5,4.3l0.1-4.3c0,0-0.3-0.8-0.5,0.1c-0.2,0.9-0.6,1.5-0.6,1.5l-0.6,0.6
		c-0.4,0.4-0.1,0.1-0.6,0.2c-0.5,0.1-0.5-0.1-0.6,0.5c-0.2,0.6,0.7,2.7,0.7,2.7l-0.9-2.3c-0.5,0.1-0.7,0.1-0.9,0.3
		c-0.1,0.3,0.4,3,0.4,3l-0.6-2.6l-0.7,0.3c-0.5,0.3-0.3,0.1-0.5,0.4c-0.2,0.3,0.5,2.3,0.5,2.3l-0.6-1.7c0,0,0-0.1-0.5-0.2
		c-0.5-0.1-1.2,0.8-1.3,1.2c-0.1,0.4,0.5,4.5,0.5,4.5l-0.6-3.6l-0.6-0.1l0,3.5l-0.4-3.1l-0.7,0.3l-0.1,5.5l-0.3-4.8
		c0,0-0.6,0-0.8,0.7c-0.2,0.7,0.3,4.5,0.3,4.5l-0.7-4.2c0,0-0.2,0-0.5,0.6c-0.3,0.6-0.4,0.5-0.6,0.8c-0.2,0.2-0.4,0.3-0.7,0.7
		c-0.3,0.4-0.6,0.5-0.7,1c-0.1,0.5,0.9,1.9,1.1,2.6c0.2,0.6,0.5,1.6,0.1,1.9c-0.4,0.3-0.6,2.7-0.6,2.7l0-0.8c0.1-0.7,0.1-1.3,0.3-2
		c0.2-0.7-0.2-0.8-0.4-1.7l-0.5-2.2c-0.6,0.5-0.7,0.5-1.1,0.8c-0.5,0.3-0.2,0.5-0.3,0.8c-0.2,0.4-0.3,0.5-0.5,0.6
		c-0.4,0.7-0.9,1-0.9,1l-0.1,0.8c-0.1,0.7-0.3,3-0.6,3.7l-1.2,3.3c0,0,0.1-0.1,0.9-3.2c0.3-1,0.4-1.6,0.5-2.2c0.2-1.2,0-1.8,0-1.8
		s-0.2,0.3-0.6,1c-0.4,0.7-0.4,1-1.1,1.6c-0.7,0.6-0.3,0.4-0.5,0.8c-0.2,0.4-0.4,0.7-0.8,1.3c-0.4,0.6-1.4,1.8-2.1,2.8
		c-0.7,1-1.2,2-1.2,2s-0.2,0.7-0.3,1.4c-0.1,0.8,1.4,3.3,1.4,3.3l-1.7-3.3l-0.7,0.2l0.1,1.2l-0.4,0.6l-0.2,3.7l0.1-3.8
		c-0.9,0.2-0.7,0.7-0.7,0.7l-0.4,4.8c0,0,0.4-1.2,0.4-2.3c0.1-1-0.1-2.1-0.1-2.1l-0.7,0.1l-0.3,2.4l-1.4,0.6l0,1.1
		c0,0.7,0.5,4,0.5,4l-0.8-3.2l-0.2,2.1l-0.6-1.7c0,0-0.3,0.6-0.6,0.9c-0.2,0.2-0.1,0.4-0.3,0.8l-1.4,3.1l0.5,2.4l-0.7-2
		c0,0-0.4,0.5-0.8,1c-0.4,0.5-0.1,0.1-0.6,0.4c-0.5,0.3-0.1,0.4,0.3,1.3c0.3,0.9-0.1,2.6-0.1,2.6s-0.1,0.1,0-1.1
		c0.1-1.2-0.6-1.6-0.6-1.6s-0.4,2.3-0.4,2.5v1.1l0,4.3c0,0-0.3-4-0.4-4.6c-0.1-0.8-0.5-0.8-0.5-0.8s-0.8,1.3-1.1,2.6
		c-0.3,1.3-0.7,1.9-0.7,2.1c0,0.2-1,1.5-1,1.5l0-1c0,0-0.4-0.6-0.8-0.1c-0.4,0.5-0.7,0.6-0.7,0.6l-0.1-1.3l-0.7,0.3l-0.5,0.9
		c-0.5,0.9-0.9,2-0.9,2l0.2-2.2l-0.5,0.2l-0.3,2.9l-0.3-2.8c-0.6,0.1-0.9,0.1-1.6,0.7c-0.8,0.6-1,0.9-1.4,1.3
		c-0.4,0.4-0.3,0.4-0.6,0.8c-0.2,0.4-0.2,0.3-0.7,0.5c-0.5,0.2-0.4,0.8-0.3,1.2c0.1,0.5,0.7,2,0.7,2l-1-1.8c0,0-0.4,0.5-0.2,1
		c0.2,0.5,1,1.6,1,1.6l-1.5-1.6c0,0-0.3,0.7-0.4,1.1c-0.1,0.4,0,0.7,0.1,1c0.1,0.2,0.4,0.5,0.6,0.9c0.6,1,1,3.4,1,3.4
		s-0.5-1.5-0.7-2.1c-0.1-0.6-1-0.9-1-0.9l0.4,1.6l-0.7-1.4l0.6,3.1c0,0-0.4-0.8-0.4-1.2c0-0.5-0.3-0.4-0.5-0.8l-0.6-1.1
		c0,0,0,0.8,0.1,1.3c0.1,0.5,0.4,1.8,0.4,2l0.1,2.6c0,0,0-0.7-0.1-1.2c-0.1-0.5-0.4-2.4-0.5-2.8c-0.1-0.4-0.3-1.2-0.3-1.2L141,372
		c-0.6,0.3-0.3,0.4-0.3,1.3c0,0.9,0.2,1.7-0.4,2.2c-0.7,0.5,0,0.2-0.1,1.1c-0.1,0.9-0.1,0.4-0.7,0.5c-0.6,0.1-0.5,0-0.8,0.8
		c-0.3,0.8-3.7,5.9-6.3,9.3c-1.1,1.4-3.7,4.9-6.4,7.9c-4,4.5-8.2,8.8-9.2,9.9c-1.6,2-5.9,4.3-6.8,5.5c-0.9,1.2-0.7,1.1-0.7,1.1
		l-0.1,2c0,0-0.2-2.2-0.3-3c-0.1-0.7-0.2-0.3-0.7,0.1c-0.4,0.4-0.4,0.6-0.4-0.1c0-0.7,0-0.7-0.8-0.3c-0.7,0.4-0.9,1.1-0.6,1.6
		c0.3,0.5,1.3,2.4,1.4,3.2c0,0.8,0.3,1.4,0.3,1.4s-0.8-1-1.3-2.2c-0.5-1.2-0.9-0.7-0.9-0.7s-0.2,1.1-0.2,1.3c0,0.2,0.1,0.3,0.6,1.7
		c0.6,1.5,0.8,4.6,0.8,4.6l-0.2-1.5c-0.2-1.5-0.7-2.3-1.3-3.7c-0.6-1.4-1.1-1.1-1.1-1.1c-0.2,0.9-0.2,1.6-0.5,1.4
		c-0.3-0.2,0.5,2.5,1.1,4.9c0.6,2.4,2.2,4.2,2.2,4.2l-1.9-3l0.2,2.2c0,0-1.4-4.5-1.6-6.2c-0.2-1.7-0.3-2.3-0.3-2.3s-0.4,0.2-0.5,0.8
		c-0.2,0.6-0.7,0.6-1.1,1.2c-0.3,0.6-0.2,0.5-0.8,0.6c-0.6,0.1-0.6,0.1-0.6,0.9c0,0.4-0.1,1.8-0.3,2.8c-0.1,0.8-0.4,1.3-0.3,1
		c0.1-0.2,0.3-1.3,0.3-1.9c0.1-0.9,0-1.5,0-1.5c-0.7,0.4-2.3,2.1-2.3,2.1l-0.1,2.8l-0.7-2.1c0,0-2.3,2-3.1,2.7
		c-0.8,0.8-1.3,1-2.4,1.6c-1.1,0.6-2.1,1.3-2.6,1.7c-0.5,0.3-0.4,0.5-0.8,0.9c-0.5,0.3-0.1,0.2-0.8,1.2s-3.6,2.5-4,3
		c-0.4,0.5-2.4,2.3-2.4,2.3c0.6-0.6,1.5-2,1.5-2s-0.6,0.2-1.4,0.6c0.1,0-1.5,1.5-4.8,1.8c-1.8,0.2-6.1-0.1-6.6-0.1
		c-0.5,0-1-0.4-1-0.4l-0.3-1.4c-0.2-1.1-0.7-0.7-0.7-0.7c-0.5-0.2-0.4-0.3-0.2-1.3c0.2-0.9,0.1-0.9,0-2c0-1.1,0.6-1.7,0.8-2.5
		c0.1-0.7-0.1-1.2-0.1-1.8c0-0.6,0.1-0.5,0.2-1c0.1-0.6,0.9-0.2,1-0.7c0-0.3,0.6-0.8,1.1-1c0.4-0.2,0.5-0.6,0.6-0.9
		c0.1-0.6,0.3-0.6,0.7-1.3c0.4-0.8,0.4-1.1,0.7-1.6c0.9-0.8,1.6-0.9,2.2-1.4c0.6-0.5,0.6-0.6,1.6-0.8c1-0.2,1.4-0.6,1.4-1.1
		c0.1-0.5,0.1-0.4,1-0.7c0.9-0.3,1-0.6,0.4-1.1c-0.7-0.5,0.4-0.5-0.2-1.1c-0.4-0.4-1.7-1.6-2.9-2.3c-0.8-0.4-1.6-0.6-2.1-0.7
		c-1.4-0.2-1.3,0.2,0.1,0.1c1.1-0.1,2,0.2,2.6,0.8c0.8,0.6,1.7,1.2,2,1.5c0.4,0.3,0.5,0.3,1,0.2C80.4,413,81,413,81,413
		s-0.1-0.4,0.6-0.3c0.8,0.1,1-0.1,1.3-0.6c0.3-0.5,0.2-0.2,0.9-0.2c0.6-0.1,1.4-0.3,2-0.7c0.5-0.3,0.7-0.9,0.7-0.9s-0.1-0.1-1.1-0.1
		c-1.1,0-2.7-0.6-4-0.7l-4.4-0.3c0,0,1-0.3,4.5,0c1,0.1,2.5,0.3,3.2,0.4c1.7,0.2,1.9,0.2,2.4,0.1c0.7-0.2,2.2-1,2.2-1.4
		c-0.1-0.4-0.8-0.7-1.4-0.9c-0.6-0.1-1.4-0.5-1.4-0.5s0.6,0,1.3,0.2c0.4,0.1,1.3,0.2,1.6,0.4c0.4,0.2,0.2,0.4,0.5,0.5
		c0.8,0.3,0.5-0.7,0.9-0.8c0.4-0.1,0.6,0,1.1-0.4c0.5-0.4,1.4-0.2,1.7-0.4c0.3-0.2,0.1-1,0.5-0.7c0.6,0.4,0.4,0.1,0.6-0.1
		c0.2-0.2,0.4-0.7,0.1-1c-0.3-0.2-0.4-0.2-0.8-0.6c-0.4-0.4-0.9-0.5-1.8-0.9c-1-0.4-4-2.5-4-2.5s1.3,0.8,2.4,1.4
		c1.8,0.9,3.8,1.9,3.8,1.7c0.1-0.8-4.2-5-4.2-5c0.3,0.3,2.1,1.6,3.3,2.7c0.6,0.6,1.8,2.3,1.6,1.7c0.3,0.4,0.6,0.6,1.1,0.7
		c0.5,0.1,1.1-0.1,1.1-0.5c-0.1-1,0.6-0.5,0.6-1.2c0-0.7,0.1-1-0.4-1h-1.1c0,0,0.7-0.2,1.2-0.3c0.5-0.1,0.3-0.2,0.2-1
		c-0.1-0.8,0.1-0.6,0.3-0.9c0.3-0.3,0.5-0.3,0.8-1.5c0.4-1.2,0.6-0.9-1.4-0.1c-2,0.8-3.3,2.1-3.3,2.1s0.1-0.2,1.1-1.2
		s3.8-1.8,3.8-1.8s0-0.1,0.7-0.2c0.7-0.1,0.1-0.1,0.3-0.7c0.2-0.6,0.8-0.6,1.3-1.1c0.4-0.5,0.2-1.1-2-0.4c-2.2,0.7-4.9,2.3-4.9,2.3
		s0.4-0.3,2.6-1.5c2.2-1.2,3.4-1.4,3.8-1.4c0.4-0.1,0.9,0,1.4-0.3c0.5-0.4,0.7-0.4,1.1-0.9c0.3-0.5,0.2-0.1,0.6-0.1
		c0.4-0.1,0.3-0.2,0.4-1c0.1-0.5,0.3-0.7,1-0.4c0.3,0.1,0.5-0.4,0.6-0.7c0.1-0.3-1.2-0.5-2.5-0.4c-2,0.1-4.4,0.5-4.4,0.5l2-0.2
		c0.7-0.1,1.2-0.3,2.1-0.4c1.3-0.1,2.8,0.1,2.8,0.1s1-0.6,1.9-1.1c0.9-0.5,0.7-0.8,0.6-1.2c-0.1-0.4-0.6-0.2-1.5-0.4l-2.4-0.5
		c0,0,0.3,0,1.3,0.1c1.1,0.1,2.6,0.5,2.6,0.1c0.1-0.3,1.3,0.1,1.1-0.3c-0.1-0.1-0.5-0.6-0.8-0.6c-0.6-0.1-1.3,0-2.1,0.1
		c-1.3,0.2-2.8,0.1-2.8,0.1s0.1-0.1,1.7-0.2l3.5-0.1c0,0,0.8,0.2,0.9-0.2c0.7-0.1,0.7-0.2,0.8-0.4c0.1-0.2,0.4-0.6,0.4-0.6
		s-1.6-0.2-3.6,0.1c-2,0.3-4.5,1.2-4.5,1.2l1.4-0.7c0.7-0.3,4.3-0.8,3.6-0.7c-0.7,0.1,3.6-0.3,4.2-0.3c1.1-0.1,0.9-0.9,1-1.4
		c0.1-0.5,1.1-0.4,1.3-0.7c0.2-0.4,0.9-0.6,0.7-1.1c-0.4-0.8-4.2-0.8-5.5-0.3c-1.4,0.5-1.7,1.1-2.7,0.9c-0.5-0.1-2.2,0-3.1,0.2
		c-1.1,0.2-1.5,0.4-2.3,0.5c-1.3,0.2-2.7,0.4-1.7,0.2c0.9-0.3,2.8-0.9,7.9-1.9c1.9-0.3,2.3-0.6,3.3-0.6c1.9-0.1,3,0.4,3.7,0.4
		c1.1,0,1.2,0.3,1.3-0.2c0.1-0.5,0.3-0.7,0.7-0.9c-0.9-0.5-2-0.8-3.7-1.2c-1.8-0.4-9.2-1.6-9.2-1.6l2.1,0.1c2.1,0.1,10.4,1.8,11,1.5
		c0.6-0.2,0.8-1,0.5-1.2c-0.3-0.2-4.3-1.5-5.2-1.7c-0.9-0.2-1.7-0.6-1.7-0.6s6.9,1.9,7.6,2.1c0.8,0.3,0.9,0.1,0.6-0.5
		c-0.3-0.6-7.3-3.7-7.8-4c-0.6-0.3-1-0.8-1-0.8s8.1,4.2,9,4.5c0.9,0.4,1.1-0.6,1.1-0.9c0-0.3-4-1.7-3.7-1.7c0.3-0.1,3.1,1.3,4.2,1.3
		c1.1,0.1,0.8-0.2,0.7-0.6c-0.1-0.4-1.5-0.6-1.9-0.8c-0.4-0.2-3.3-1.3-4.4-1.8c-1.1-0.6-1.6-1-1.6-1l0.8,0.4c-0.5-0.2,7.3,3.3,7.5,3
		l0.9-1c0,0-0.6-0.2-1.6-0.3c-1-0.2-1.9-1.6-1.9-1.6s0-0.3,0.8,0.5c0.9,0.9,1.6,0.8,1.6,0.8s1,0.2,1.7-0.3c0.7-0.5,3.2-3.4,3.6-4.2
		c0.5-0.8,0.9-0.9,0.7-1.2c-0.2-0.3-0.5-0.5-1.3-1c-0.9-0.5-1-0.3-2.4-0.4c-1.3-0.1-1.6-0.3-1.6-0.3s1.6-0.1,2.8-0.1
		c1.2,0.1,2.1,1,2.6,1.1c0.5,0.1,0.8-0.1,1-0.5c0.2-0.4,0.2-0.4,0.4-0.6c0.6-0.9,0.5-0.7,1-1.1c0.4-0.4,0.6-1.2,0.6-1.7
		c0-0.5,0.6-1.8,0.6-2.1c0.1-0.2,0.2,0.2,0.9-0.2c0.5-0.3,0.7-1.3,0.2-1.3c-0.4,0-0.6-0.2-2-0.4c-1.4-0.2-4.2-0.4-4.2-0.4
		s0.2-0.1,1.6,0c1.4,0.1,3.3-0.2,4.4-0.3c1,0,1.5,0.3,2.1-0.3c0.6-0.6,0-1,0.1-2.1c0.1-1.1,0.6-1.7,1-2.1c0.4-0.4,1.1-1,0.6-1.3
		c-0.5-0.3-2.2,1-2.2,1l1-0.8c0.8-0.7,0.8-0.5,1.3-0.8c0.5-0.3,0.9-1.1,1.1-1.4c0.3-0.4,0.7-1.2,0.5-1.5c-0.2-0.3-1,0.1-2.1,0.6
		c-1.1,0.5-2.9,1-1.5,0.2c1.3-0.8,3.6-1.2,3.9-1.4c0.3-0.1,1-1.2,1.4-1.4c0.4-0.2,0.9-0.8,0.4-1.4c-0.5-0.6-1.4,0.2-2.2,0.6
		c-0.8,0.4-3,1.7-3.7,2c-0.7,0.2,0.8-0.6,2.7-1.8c2-1.2,1-0.6,1.7-0.8c0.7-0.2,0.8-0.2,1.6-0.4c0.8-0.1,1.3-0.7,1.4-1.2
		c0.1-0.5,0.9-1.2,1.2-1.4c0.4-0.2,0-0.1,0-0.5c0.7-0.4,0.9-0.7,0.5-0.9c-0.4-0.3-0.7-0.1-0.9-0.4c-0.1-0.3-1.4-0.9-1.4-0.9
		s0.2,0.1,0.6,0.3c0.5,0.3,1,0.3,1.5,0.4c0.5,0.1,0.7,0.1,1.1-0.1c0.4-0.3,0.4-0.9,0.4-1.4c0-0.5,0.2-0.7,0.8-0.9
		c0.6-0.1,0.3-0.4,0.2-1.1c0-0.7-0.2-0.6,0.6-0.5c0.8,0.1,0.3-0.8,0.4-1.1c0.3-0.8,0.5-0.4,0.9-0.7c0.4-0.3,0.8-1.3,0.8-1.3
		s-0.9,0.2-1.3,0.1c-0.4,0-0.4,0-0.5,0.4c-0.9,0.5-0.9,0.5-1.1,0.9c-0.2,0.3-0.1,0.1-0.6,0.3c-0.6,0.1-1.5,0.8-2,0.8
		c-0.5,0.1-0.7,0.2-1,0.5c-0.3,0.3-1.2,1.1-2,1.9c-0.9,0.7-1.6,0.9-1.6,0.9s0,0,0.6-0.5c0.6-0.5,1.4-1.6,2.3-2.4
		c0.9-0.9,1.5-0.5,1.9-0.6c0.4-0.1,0.7-0.5,1.3-0.9c0.7-0.3,0.9-0.3,1.4-0.5c0.5-0.2,0.4-0.5,0.5-0.7c0.1-0.3,1.1-0.2,1.5-0.3
		c0.3-0.1,0.6-0.3,1.1-0.7c0.5-0.5,0.2-0.4,0.4-1c0.1-0.3,0.6-0.4,0.8-0.8c0.2-0.3,0.2-1,0.2-1c-0.5,0-0.7,0.3-1.6,0.7
		c-0.8,0.4-1.3,0.9-2,1.2c-0.7,0.3-1.5,0.4-1.3,0.2c0.3-0.2,0.5-0.4,1.6-1.1c1.1-0.7,0.4-0.3,1.5-0.6c-0.1,0,1.2-0.3,1.4-0.6
		c0.3-0.5,0.9,0,1.2-0.3c0.3-0.3,0.9-1.7,0.9-1.7s-0.7-0.3-1.4-0.3c-0.7,0-1.1,0.1-2.3,0.3c-1.1,0.2-1.7,0.1-1.7,0.1
		s1.2-0.6,2.3-0.8c1.1-0.2,2.3-0.1,2.6,0.1c0.4,0.1,0.7,0.2,1,0.1c0.2-0.2,0.3-0.4,0.4-0.6c0-0.2,0.3-0.4,0.5-0.7
		c0.3-0.3,0-1,0.8-1.3c0.8-0.3,1.3-1.2,1.2-1.7c-0.1-0.5-0.5-0.6-1-0.6c-0.5,0-0.1,0.1-1,0.2c-0.9,0.1-4.4,0.2-4.4,0.2
		c-0.2-0.5-0.1-0.4,1.2-0.4c1.3,0,2.9-0.2,3.7-0.4c0.8-0.2,1.9,0.7,2,0.6c0.2-0.1,0.3-0.4,0.4-0.7c0.8-0.2,1.1-0.7,1.1-0.7
		s-0.4-0.4-0.9-0.4c-0.5,0-1.2,0.1-1.6-0.2c-0.4-0.3-0.7-1.4-1.1-2.2c-0.3-0.9,0.4,0.2,1,1.4c0.6,1.2,1.3,0.8,1.5,0.6
		c0.3-0.2,0.7,0.1,1.1,0.2c0.4,0.2,0.3-0.6,0.4-1.1c0.1-0.4,0.3-0.2,0.7-0.3c0-1,0.1-0.6,0.5-0.9c0.4-0.2,1-1.3,1-1.3
		s-1.7,0-3.3,0.1c-1.6,0.1-3,0.1-3,0.1s1.7-0.5,3.6-0.8c2-0.3,3,0.1,3,0.1l0.7-0.9h-1c-0.1-0.4,0.9-0.5,1.3-0.6
		c0.4-0.1,0.8-0.8,0.9-1.2c0.1-0.4,0.3-0.2,0.8-0.5c0.5-0.2,0.5-1.1,0.5-1.1s-0.2,0-1.3-0.2c-1.1-0.2-0.9-0.4-0.9-0.4s2.6,0.2,2.7,0
		c0.1-0.2,0,0.1,0.5-0.2c0.6-0.3,0.3-0.3,0.2-0.7c0.7-0.3,0.6-0.8,0.6-1c0-0.2,0.3-0.4,0.5-0.9c0.2-0.5,0.6-0.9,0.4-0.9
		c-0.3-0.1-0.8-0.3-0.9,0c0,0.2,0,0.9-0.2,1.1c-0.2,0.1-1.1,0-1.1,0s0,0.5-0.9,0.7c-0.9,0.2-0.4,0.1-1-0.1c-0.5-0.2-0.9-0.2-0.9-0.4
		c0-0.3-1-0.5-1.8-0.5c-0.8,0-1.2-0.3-1.2-0.3s0.3,0.1,1.1,0.1c0.8,0,1.2,0,1.7,0.2c0.5,0.2,0.5,0.4,0.7,0.5
		c0.2,0.2,0.6,0.3,0.6,0.1c0-0.2,0.5-0.7,0.5-0.7s0.6,0,1.2-0.1c0.6-0.1,0.6-0.8,0.6-0.8l1.8-0.1c1.1-0.1,1.1-0.4,1.1-0.7
		c0-0.3,0.2-0.5,0-1.1c-0.1-0.7-0.3-1,0.1-1.2c0.3-0.2,0.2-0.9,0.2-0.9s-0.9,0.1-1.2,0.2c-0.4,0.1-0.9,0.2-1.3-0.3
		c-0.4-0.5-0.8-0.6-1.2-0.2c-0.4,0.4-0.9,0.9-0.9,0.9l0.7-1.6l0.7,0c0.5,0,1.1,1,1.1,1l1.4-0.2c0,0,0.2-1,0.2-1.2
		c0-0.2,0.1-0.4,0.5-0.4c0.4,0,0.7-0.2,0.8-0.7c0.1-0.4,0.1-0.9-0.8-0.4c-0.9,0.5-1.4,1.2-1.4,1.2s-0.3-0.9,0.9-1.4
		c0.8-0.3,1.8-0.9,1.8-0.9l0.2-1.5c0,0-0.4-0.2-1.4-0.1c-1,0.1-2.9-0.2-2.9-0.2s0.8,0,2.2-0.2c1.4-0.2,2.1,0.1,2.1,0.1
		c0.4-0.7,0-0.7-0.2-0.9c-0.2-0.1,0.4-0.4,0.8-0.6c0.3-0.2,0.3-0.8,0.3-0.8l0.8-0.3c0,0,0.2-1.2,0.2-1.6c-0.1-0.5,0.2-0.3,0.7-0.6
		c0.6-0.3,0.5-0.2,0.6-0.7c0.8-0.6,1.1-1.2,0.9-1.5c-0.2-0.3-0.2-0.2-0.7-0.3c-0.5-0.1-0.5-0.1-1,0.2c-0.5,0.3-1.2,0.8-1.2,0.8
		l0.6-0.4c0.5-0.3,0.5-1,0.8-1c0.4-0.1,0.9,0.1,1.7,0.1c0.8,0,0.7-0.2,0.7-0.6c0.5-0.7,1-1.5,1-1.9c0-0.4,0.2-0.2,0.7-0.5
		c0.6-0.3,0.6-0.9,0.6-1.2c0-0.3,0.2-0.2,0.7-0.4c0.5-0.2,0.1-0.1,0.3-0.5c0.1-0.5,0.4-0.4,0.6-0.5c0.2-0.1,0.6-0.6,0.7-1.2
		c0.1-0.6,0.2-0.4,0.7-0.4c0.5,0,0.8-1.2,0.8-1.4c0-0.2,0.1-0.1,0.9-0.5c0.8-0.4,0.9-0.8,1-1.1c0.1-0.3,0.1-0.3,0.5-0.4
		c0.4-0.1,0.5-0.4,0.5-0.7c0-0.4,0-0.3,0.8-0.3c0.8,0,0.7-0.9,0.3-1.2c-0.4-0.4-2.3,0.1-2.3,0.1s0-0.1,0.7-0.3c0.7-0.2,1.9,0,2.4,0
		c0.5,0.1,0.7-0.3,0.7-0.3l1.9-0.6c0,0,0.5-1.3-0.7-1.4c-1.2-0.1-3,0.3-4.2,0.9c-1.2,0.5-2.7,0.9-2.1,0.6c0.6-0.3,1.3-1,3.8-1.3
		c1.2-0.2,1.8-0.3,2.3-0.3c0.5,0,0.6,0,0.7,0c0.4,0,0.6,0.3,1,0.3c0.5,0,1-0.5,1.3-1.1c0.7-0.7,0.6-1.6,0.8-1.9
		c0.2-0.2,0.6,0.3,0.7,0.1c0.2-0.3,0.3-1,0.7-1.3c0.5-0.4,1.5-0.6,2.1-0.8c1.1-0.4,0.5-0.2,1.5-1c1-0.8,1.4-0.9,2.7-1.5
		c1.2-0.6,3.2-1.5,4-1.9c0.8-0.4,0.8-0.5,2-0.3c1.1,0.1,0.5-0.6,1.2-0.8c0.7-0.2,3.1-0.6,3.4-0.9c0.4-0.3,0.3,0.1,1,0.2
		c0.6,0.1,0.2-0.1,0.5-0.4c0.2-0.3,0.6,0.1,1.2,0.4c0.6,0.4,1.1,0,1.9,0.3c0.8,0.3,1.1,0.2,1.3-0.1c0.2-0.3,0.6-0.6,0.6-0.6
		s0.1,0.4,0.6,1c0.5,0.6,1.2,0.3,1.7,0.2c0.4-0.1,0.7-0.1,1.5,0.2c0.9,0.2,1.4,0.9,2.6,1c1.2,0.1,5.3,2.5,7.2,4
		c1.9,1.4,3.9,2.9,6.5,2.3c2.6-0.6,4.5-1.7,4.7-3.1c0.3-1.3-0.7-2.6-0.7-2.6s-2.2,0.1-2.3-0.4c-0.1-0.6-0.6-1.2-1.3-1.5
		c-0.7-0.3-2.7,0-3.9,0c-0.6,0-1.5,0.4-4,0.4c-2.3,0-6.3-0.4-6-0.4c0.5,0-0.9-0.3-0.9-0.3l-0.9-0.3l-1.4-0.9l-0.4,1
		c0,0-0.1-0.3-0.1-0.8c0-0.5-0.5-0.5-0.9-0.1c-0.5-0.6-1.5-0.8-1.9-0.9l-0.8-0.1l-1.3,0.8l0.4-1l-0.1-0.6l-0.9,1.2l0.2-1
		c0,0-0.5-0.7-1-0.5c-0.5,0.2-0.6,1.5-0.6,1.5s0.1-1.4,0.2-1.9c0.1-0.5-0.8-0.5-0.8-0.5s-1.2,2.7-1,1.9c0.2-0.8,0.5-2.1,0.5-2.1
		l-0.9-0.7c0,0-0.8,1.2-1.4,1.6c-0.6,0.4-0.7,0.4-1.3,0.9l-1.7,1.3c0,0,0-0.1,0.4-0.6c0.4-0.5,1.8-1.3,2.6-2
		c0.7-0.8,1.3-1.3,0.6-1.4c-0.8-0.1-1-0.9-1.4-0.6c-0.4,0.3-0.7,1.2-0.9,1.5c-0.2,0.3-3.4,3.2-3.4,3.2l0.8-0.9
		c0.9-0.9,2.6-2.8,2.6-2.8s-0.4,0.1-1.5,0.5c-1.1,0.4-1.5,0.4-1.5,0.4s0.2-0.1,1.6-0.8c1.4-0.7,1.7-1.3,1.7-1.3s-1.1-0.7-1.6-0.5
		c-0.4,0.2-2.6,1.8-2.6,1.8l2.2-2c0,0-0.2-0.5-0.9-0.6c-0.7-0.1-0.6-0.4-1-0.4c-0.3,0-0.5,0.1-1,0.5c-0.6,0.4-1.6,1.7-2.4,2.3
		c-0.8,0.6-2.2,0.6-2.2,0.6s1.1-0.2,2.8-1.5c0.8-0.6,2.1-2.2,1.6-1.6c-0.5,0.6,0.4-0.7,0.4-0.9c-0.6-0.4-1.3-0.7-2.1-0.4
		c-0.7,0.3-0.6,0.8-1.3,1.6c-0.7,0.8-3.7,2.5-3.7,2.5l2.5-1.7c1.2-0.9,1.3-1.6,1.5-1.9c0.1-0.3,0.6-0.9,0.6-0.9s-1.2,1-2,1.4
		c-0.7,0.4-2.4,1-2.4,1l0.7-0.5c0.7-0.5,2.2-0.9,2.7-1.6c0.5-0.7,0.2-0.9-0.1-0.9c-0.2,0-0.2,0-0.8-0.3c-0.7-0.3-0.4-0.2-0.4-0.2
		s-1.1,0.2-2.2,0.7c-1,0.5-2.7,1.7-2.7,1.7l1.2-1.1c1.1-1.1,3.1-1.3,3.3-1.5c-1-0.5-1.5-0.7-2-0.6c-0.1,0-0.7,0.3-1.1,0.6
		c-0.5,0.3-0.9,0.8-1.6,1c-1.1,0.5-2.4,0.6-2.4,0.6s0.2,0,1.8-0.5c0.6-0.2,0.6-0.4,1.1-0.7c0.9-0.6,2-1.2,2-1.2
		c-0.7-0.2-0.7-0.4-1-0.6c-0.2-0.3-0.3-0.3-1.8,0.2c-1.6,0.5-2.3,2.2-2.3,2.2s0.1-0.5,0.6-1.3c0.3-0.4,0.6-0.5,1.2-0.8
		c0.6-0.3,1.3-0.7,1.3-0.7s0.7-0.2,0.3-0.4c-0.3-0.2-0.5-0.3-1.1-0.3c-0.6,0-0.8-0.4-0.8-0.4s-1.7,1.6-2.8,2.8
		c-1.1,1.2-2,1.9-2.6,2.4c-0.3,0.3-1.3,1.7-2.3,2.4c-1.1,0.6-2.3,0.9-2.3,0.9s0.1,0,1.8-0.9c1.6-0.9,2-1.9,2.9-3
		c0.9-1.1,4.7-4.4,4.7-4.4c-0.1-0.7-0.7-1.4-1.3-1.3c-0.6,0.1-6.5,2.9-6.5,2.9s0.2-0.1,1.9-0.8c1.7-0.7,1.9-1,2.4-1.2
		c0.5-0.2,1.6-0.6,1.7-1.2c0-0.5-0.1-0.4-0.6-0.4c-0.5,0-0.3-0.1-1.1-0.3c-0.7-0.2-0.9,0.4-1.7,0.8c-0.7,0.4-5.3,1.7-5.3,1.7
		s0.2-0.1,1.1-0.5c0.9-0.5,2.1-0.7,2.1-0.7s4.3-1.5,3.5-1.6c-0.8-0.1-0.5-0.2-0.6-0.6c-0.1-0.5-0.7-0.1-0.7-0.1s-3.5,0.8-4.8,1
		c-1.3,0.2-1.8-0.1-1.8-0.1s0.1-0.1,2.8-0.2c2.7-0.2,2.5-0.5,3-0.5c0.5,0,0.8-0.4,0.5-0.4c-0.3,0,0.1-0.4-0.3-0.7
		c-0.3-0.3-0.5-0.2-1.2-0.3c-0.7-0.1-0.4-0.1-0.4-0.3c-0.1-0.2-0.2-0.4-0.9-0.6c-0.7-0.2-0.5-0.1-0.7-0.4c-0.2-0.3-0.6-0.4-1-0.2
		c-0.2,0.1-1.3,0.8-2.3,1c-0.7,0.2-1.5,0-1.5,0s0.3,0,1.8-0.4c1.5-0.4,1.6-1.2,1.6-1.2s-0.7-0.8-1.4-0.9c-0.7-0.1-1.1,0-1.8,0
		c-0.7,0-2.2-0.4-2.2-0.4l2.5,0.1c0,0,0.3-0.5,0.1-0.6c-0.2-0.2-1.1-0.6-1.8-0.7c-0.7-0.1-1.4-0.4-2.5-0.6c-1.1-0.2-1.3-0.6-1.3-0.6
		l1.3,0.3c0,0,0.4,0.2,1.4,0.5c0.9,0.3,0.9,0,1.1-0.1c-0.5-0.7-1.2-1.3-1.2-1.3s0.4,0.2,1.2,0.4c0.8,0.2,0.2-1.1-0.1-1.3
		c-0.3-0.2-0.2-0.1-0.6-0.2c-0.5,0-1.2-0.4-1.2-0.7c0-0.4-0.1-0.3-0.7-0.7c-0.6-0.3-0.7-0.4-1.8-0.5c-1.2-0.1-0.5-0.4-0.5-0.4
		s-0.2,0.3-0.8,1c-0.5,0.8-2.2,2.1-2.2,2.1s-0.1-0.1,0.8-0.9c0.9-0.8,1.3-2.2,1.3-2.2s0-0.1-0.7-0.1c-0.7,0.1-1.5-0.2-1.8,0.1
		c-0.4,0.3-0.2,2.2-0.2,2c-0.1-0.2-0.2-1.7-0.2-1.7s-0.6,0.3-0.7,0.8c-0.1,0.5,0,1.5,0,1.5s0-0.2-0.2-0.7c-0.2-0.6,0-0.5-0.4-0.1
		c-0.4,0.3-0.2,2.1-0.2,2.1l-0.1-2.2c0,0-0.1,0-0.8,0.6c-0.7,0.6-0.3,0.9-0.3,0.9l-0.2,2c0,0-0.2-2-0.4-1.7
		c-0.2,0.2-0.4,0.3-0.9,0.9c-0.5,0.6-1.2,0.5-1.2,0.5v-0.7c0-0.6-0.7-0.6-0.9-0.1c-0.2,0.5,0,3.4,0,3.4l-0.2-2.8c0,0-1,0.5-1.2,1.1
		c-0.2,0.6-0.5,0.8-0.5,0.8s-0.3-0.4-0.6-0.4c-0.4,0-0.2,0.1-0.3,0.7c-0.1,0.6,0.2,1.3,0.2,1.3c-0.3-0.5-0.8-0.3-0.8-0.3l-0.3,0.7
		l-0.1-1.8c0,0-0.5,0.2-0.9,0.9c-0.4,0.7-0.6,0.3-1.1,0.2c-0.5-0.4-1.1-0.3-1.3,0.2c-0.2,0.5,0.9,5.1,0.9,5.1l-1-4.5
		c-1,0.1-0.8,0-1-0.4c-0.2-0.3-0.8,0.3-0.8,0.3s-0.5,0.3-1,0.4c-0.5,0.1-1,0.2-1,0.2l-0.6,1.7c0,0,0.2-2.2,0-2.7
		c-0.1-0.5-0.7-0.2-1,0.1c-0.3,0.4-0.2,4.7-0.2,4.7l-0.2-4.1c0,0-0.2-0.5-0.7-0.5c-0.5-0.1-1-0.1-1.5,1.1c-0.4,1.2-0.3,5.7-0.3,5.7
		l-0.1-6.2c0-0.2-0.2-0.1-0.7,0.3c-0.7,0.2-1.5,0.1-1.9,0.4c-0.4,0.3-0.2,4-0.2,4l0-3.3c0,0-0.5,0.1-1.1,0.1c-0.6,0-1,0.3-1,0.3
		L139,251l0.1-5.6c0,0-0.6,0.5-1.1,0.8c-0.4,0.2-1.2-0.3-1.4,0.5c-0.2,0.7-0.3,4-0.3,4l0-4c0,0-0.1-0.3-0.6,0.7c-0.5,1-0.2,3-0.2,3
		l-0.2-3.1c0,0-0.8-0.3-0.9,0.6c-0.1,1-0.8,3.9-0.8,3.9l0.4-4.2l-1.4,0.6c-0.1,0.9,0.3,2.8,0.4,3.1c0.2,0.3-0.7-1.4-0.7-1.4
		l-1.1,3.5l0.3-1c0.3-1,0.6-3.4,0.6-3.4s-0.4-0.1-1,0.2c-0.7,0.3-0.8,0.3-1,1.1c-0.2,0.8-0.6,4.6-0.6,4.6l0.2-4.3l-0.6,0.1
		c-0.6,0-0.7-0.1-0.9,0.7c-0.2,0.8-0.6,4.6-0.6,4.6l0.1-4.3H127c0,0-0.2,0.2-0.3,0.9c-0.1,0.7,0,0.9-0.2,0.6
		c-0.2-0.4-0.4-0.2-1.2-0.5c-0.8-0.4-1,1-1.3,1.4c-0.3,0.5-0.5,3.2-0.5,3.2s0.1-1.4,0.2-1.8c0.1-0.4-0.2-0.8-0.6-0.8
		c-0.4,0-0.5,0.1-0.7,0.5c-0.2,0.4-0.7,0.5-0.7,1.1c0,0.6-0.7,4.4-0.7,4.4l0.3-1.9c0.2-1.2-0.1-1.9-0.5-2.5c-0.4-0.7-0.4,0-0.7,0.5
		c-0.4,0.5-0.3,0.6-0.6,2.5c-0.3,1.9-1.1,2.7-0.9,1.8c0.3-0.9,0.5-1.6,0.2-3.2c-0.1-0.9-0.7-0.2-0.7-0.2s-0.1,0.5-0.2,1.3
		c-0.1,0.9-1.1,1.9-0.9,1.4c0.2-0.5,0.5-1.8,0.5-1.8s-0.9,0.3-1.4,0.8c-0.6,0.5-0.3,0.2-0.5,0.4c-0.2,0.2-0.2,0.2-0.4,0.8
		c-0.3,0.8-0.9,1.9-0.9,1.9s0.1,0,0.4-1.2c0.3-1.2,0.2-1.5,0.2-1.5s-0.5-0.4-0.7-0.4c-0.2,0.1-0.9,0.3-1.1,0.6
		c-0.2,0.3-0.8,1.8-0.8,1.8s-0.1,0-0.2-0.6c-0.1-0.6,0.3-1.4,0.3-1.8c0-0.3-0.7-0.3-1.5-0.1c-0.8,0.2-2.1-0.1-2.1-0.1
		s-0.5-0.6-1.4-0.3c-0.9,0.3-1,0.3-2,0.3c-0.9,0-2.8,0-4,0.5c-1.1,0.5-1.8,0.8-2,1.1c-0.1,0.3-0.5,1.6-0.5,1.6l-0.2,1.2
		c0,0,0-0.6-0.5-0.7c-0.5-0.2-0.8,0.5-0.8,0.5s0.4,0.3-0.1,0.6c-0.5,0.4-0.6,2.3-0.6,3.8c0,1.4-0.2,2.1-0.2,2.1s-0.1-2.3-0.1-3
		c0-0.6,0.8-2.6,0.2-3c-0.5-0.5-0.7,0.3-0.7,0.3s-0.5,1.5-0.8,2c-0.3,0.5-0.6,0.6-0.6,0.6s1.2-1.5,1-2.3c-0.3-0.9-0.8-0.6-1-0.3
		c-0.3,0.3,0.1,0.2-0.5,0.5c-0.6,0.3-0.6,0.2-0.8,0.5c-0.1,0.3-0.7,0.6-0.9,0.2c-0.2-0.4-0.3,1.1-0.3,1.1s0.1-0.9-0.2-1.2
		c-0.3-0.3-0.7-0.2-1.1,0.1c-0.3,0.2-0.5,0.3-0.7,0.7c-0.1,0.3-0.4,0.4-0.4,0.9c0,0.5-0.4,0.7-0.6,1.3c-0.2,0.6-0.6,1.2-0.6,1.2
		s0-1.2,0.5-1.6c0.5-0.5,0.6-0.5,0.4-1.1c-0.2-0.6-0.4-1.2-0.7-0.8c-0.3,0.4-0.6,1.2-0.6,1.2l-0.2-0.5l-0.6,0.3l-0.4,1.2l0.1-1.3
		c0,0-0.6-1.1-1-0.3c-0.3,0.8-0.4,1.2-0.8,1.3c-0.4,0.1-1,0.9-1.1,1.2c-0.1,0.2-0.2,0.6-0.7,0.8c-0.5,0.1-1.7,2.6-1.7,2.6
		s0-0.6,0.2-1c0.2-0.4,0.7-0.9,0.9-1.5c0.2-0.5-0.2-1.4-0.2-1.4s-1,0.3-1,0.6c-0.8,0.6-0.4,0.9-0.9,1c-0.5,0-0.7,0.6-0.7,0.6
		l0.1,1.8c0,0-0.2-2-0.6-2c-0.4,0-0.3,0.1-0.6,0.2c-0.3,0.1-1-0.1-1.2,0.3c-0.3,0.4-0.2,1.3-0.2,1.7l-0.3,3c0,0,0.4-2.5-0.2-3
		c-0.6-0.4-1.2-0.1-1.2,0.5c-0.1,0.6,0.3,1-0.3,0.9c-0.6,0-0.6,0-0.8,0.3c-0.2,0.3-1,1.5-1,1.5l1.1,4.3c0,0-0.8-3.8-1.3-3.6
		c-0.9,0.2-0.2,0.7-0.7,0.7c-0.5,0.2-1.2,3.1-2,4.3c-0.8,1.2-1.1,1.4-1.1,1.4s1.3-1.7,1.6-3.1c0.3-1.4,0.6-2.1,0.5-2.3
		c-0.1-0.2-0.2-0.4-0.6-0.1c-0.5,0.3-0.3,0.3-0.7,0.4c-0.4,0.1-1.2-0.3-1.7,0.3c-0.5,0.5-0.7,0.7-1.2,0.8c-0.6,0.1-1.2,0.6-1.6,0.9
		c-0.4,0.3-1.8,1.7-1.8,1.7l1.3-2c0,0-1.6-0.2-2.1,0.3c-0.6,0.5-4.3,5.3-4.3,5.3s1.8-2.7,2.1-3.4c0.3-0.7-3.4-0.3-4.7-0.2
		c-1.2,0.1-2.5,0.9-3.1,1.3l-3,2.2l1-1.8l-1.6,0.2c0,0-0.6,2.1-1.1,2.7c-0.6,0.6-0.9,0.7-0.9,0.7s0.8-1,1.1-1.7
		c0.4-0.7,0.1-1.5,0.1-1.5s-2.8,0.4-3.3,0.3c-0.5-0.1-1.1,0.1-1.1,0.1l-0.9,1.5l0.4-1.9l-4.2,0.2l-1.9,2.7l1.3-2.8l-6.4,0.5
		l-4.4,2.4c0,0,3.8-2.4,2.4-2.5c-1.5,0-5.5-0.4-6.7,0.2c-1.2,0.5-1.4,0.6-1.4,0.6l0.3-0.8c0,0-2.9-0.1-3.7-0.1l-1.3-0.1l0.3-1.1
		l-2.6-0.2l-0.2-2.1c0,0-0.1-0.6-0.5-0.6l-0.9-1.3l-1,0l-0.2-0.7c0,0-0.1-0.2-0.6-0.3c-0.5-0.1-0.7-0.8-1-0.7c-0.3,0.1-1-0.1-1-0.1
		s0.4-0.3,0.5-0.6c0-0.3,0.2-1.1,0-1.5c-0.1-0.4-0.1-0.7,0.3-1c0.4-0.3,0.8-0.6,0.9-1l0.7-0.4c0,0,0.2-0.5,0.7-0.5
		c0.5,0,1.8-0.2,2.6-0.2c0.8,0,1.5-1,1.5-1.2c0.1-0.2-0.4-1.3-0.4-1.3s-1-0.4-1.1-0.1c-0.2,0.2-1.4,0.5-1.6,0.2
		c-0.3-0.2-0.8-0.9-1.1-0.9c-0.3-0.1-0.3-0.3,0.1-0.7c0.4-0.3,1-0.3,1-0.7c0-0.4-0.1-0.7,0.3-0.6c0.6-0.6,0.9-1,1.1-0.5
		c0.2,0.5,0.4,0.5,0.6,0.8c0.2,0.2,0.7,0.2,0.7-0.1c0.4,0.3,0.6,0.4,0.9,0.5c0.3,0.1,1.2-0.4,1.4,0c0.2,0.4,0.1,0.6,0.1,0.8
		c-0.1,0.2,0.1,0.9,0.1,0.9l1.5-0.4c0,0-0.4-0.9-0.7-1.2c-0.3-0.3-0.4-0.9-0.4-0.9l1.2,1.6l1.1,0.1l0.1-0.7l0.3,1.5l1.1-0.2
		c0,0,0.6-0.6,0.9-0.6c0.4,0,0.7,0.2,0.7,0.2s0.7,0,0.8-0.2c0.4-0.2,1.9,0.2,2.3,0.2c0.4,0,0.9-0.1,1-0.4c0.1-0.3-0.8-1.2-1.1-1.3
		c-0.3-0.1-2.4-1-3.4-1c-1-0.1-2.1-0.7-3.1-0.9c-1.1-0.1-2.2-0.6-2.9-0.7c-0.8-0.1-0.7-0.2-0.7-0.2l-0.8-0.5c0,0,2-0.1,2.2,0.1
		c0.2,0.2,1.2,0.7,2.4,0.9c1.2,0.2,4,0.9,4.6,1.3c0.7,0.4,2.7,1.1,3.2,2.1c0.5,1,1.4,0.3,1.8,0.3c0.4,0,0.9,0.3,0.9,0.3l1.4,0.2
		c0,0-0.1-0.8-1.4-1.6c-1.3-0.8-4.1-2.1-4.1-2.1s2.4,0.6,3.4,1.4c1,0.7,1.5,1.4,2.2,1.7c0.7,0.3,1.1,0.5,1.5,0.6
		c0.5,0.1,0.5-0.1,0.7,0.2c0.2,0.3,0.7,0.8,1,0.2c0.3-0.5,0.9-0.7,1.5-0.7c0.6,0,1.3,0.6,2.4,0.7c1.1,0.1,2.8,0.1,3,0.1
		c0.2,0.1,0.3,0.4,1,0.4c0.7,0,1-0.1,1.7-0.1c0.7,0,2.6,0,2.9-0.3c0.3-0.2,2.4-1,2.8-1.7c0.3-0.7,0.3-1.2,0.3-1.2s0.3-0.3,0.9-0.1
		c0.6,0.2,0.8-0.4,1.1-0.4c0.9-0.8,1-0.9,1.5-0.6c0.4,0.3,0.9,0.5,1.7,0.2c0.7-0.4,0.7-0.8,0.7-0.8l-1.1-0.6
		c0.4,0.2-1.1-0.6-1.3-0.7c-0.5-0.2-0.7-0.3-1-0.6c-0.4-0.2-0.8-0.6-1.4-0.8c-0.6-0.2-1.9-0.5-1.7-0.5c0.2,0,2.7,0.7,2.7,0.7
		s2.1,1.2,3,1.8c0.9,0.6,1.3,0.5,1.9,0.5c0.6,0,1.1-0.3,1.1-0.3s-0.6-1.1-1.1-1.2c-0.5-0.2-1.3-0.4-2.2-0.8
		c-0.9-0.3-1.9-0.7-1.9-0.7s1.4,0.2,1.9,0.4l2.6,0.9c0,0,0.9,0.9,1.1,1.2c0.2,0.3,1.1,0.2,0.6-0.5c-0.4-0.6-0.3-0.8-0.3-0.8l1.3,0.6
		c0.6,0.3,1.3-0.2,1.3-0.5l-4.2-2.4l2.3,0.6c0,0,2.2,1.5,3,1.7c0.3,0.1,1.1,0.2,1.4,0.3c0.2,0.1,0.5-0.8-0.1-1c-0.6-0.2-2-1-2-1
		s0.6-0.1,1.6,0.6c1,0.7,1.6,0.5,2,0.5c0.2,0,0.2-0.8,0.3-0.5c0.1,0.2,0-0.6-0.2-0.7c-0.4-0.3-1.7-1.6-1.7-1.6s0.6,0.2,1.3,0.8
		c0.7,0.6,0.9,1.8,0.9,1.8s0.5,0.1,0.5-0.6c0-0.7,0.1-1.2,0.1-1.2l0.8,1.1c0,0,2.4,0.2,1.8-0.6c-0.6-0.9-2.5-2.1-2.5-2.1
		s1.8,0.9,2.5,1.5c0.7,0.6,1.3,0.2,1.1,0c-0.2-0.2-1.4-1-1.4-1s1.5,0.6,2.1,0.6c0.6,0,2.1,0.1,2.1,0.1s-0.5-0.7,0.2-0.6
		c0.7,0,0.9-0.2,0.6-0.3c-0.3-0.1-1.6-0.8-2.2-1.2c-0.6-0.4-1.6-1.5-1.6-1.5s0.8,0.6,1.6,1.1c0.8,0.5,2.6,1.3,2.9,1.5
		c0.2,0.1,1.4-0.6,1.1-0.8c-0.3-0.1-1.5-0.8-1.5-0.8s1.6,0.5,2,0.5c0.4,0,0.9,0,1.4-0.2c0.5-0.2,0.3-0.3,0.8-0.3
		c0.5-0.1,1-0.3,1-0.3s-0.9-0.9-1.2-1.1l-7.9-5.9c0,0,3.5,2.4,4.5,2.8c1,0.4,1.1,0.2,1.5,0.6c0.3,0.4,0.7,0.9,0.9,1.2
		c0.2,0.2,1,1.5,1.9,1.8c0.9,0.4,1.5,0.8,1.5,0.8l0.4-1.2c0.5,0,2-0.1,1.9-0.6c-0.1-0.5-0.8-1.6-1.6-1.9c-0.8-0.2-4.7-1-4.7-1
		s1-0.1,1.7,0c0.8,0.1,2.7,0.4,3.2,0.7c0.5,0.3,1.7,1.7,1.7,1.7s1.8,0.3,1.7-0.7c-0.2-1-0.1-1.5-0.1-1.5s1.6,1.2,1.3,1.2
		c-0.2-0.1,1.8-0.4,1.9-0.9c0-0.5-3.2-1.6-3.2-1.6s2.4,0.3,3.5,1c0.7,0.5,1.3-0.5,1.3-0.5s0-0.6-1.8-1.4l-4.1-1.7
		c0,0,3.8,1.2,4.6,1.6c0.8,0.4,1.9,1.7,1.9,1.7s0.7-0.2,1-0.2c0.3,0,1.2-0.7,1.2-0.7s-0.5-0.6-2.2-1.2c-1.7-0.5-4-2-4-2
		s3.2,1.5,4.8,1.8c1.6,0.3,2.1,0.3,2.8,0.3c0.7,0,1-0.3,1-0.3l0-1.3c0,0-1.3-0.9-2.8-1.7c-1.5-0.8-3.3-1.4-3.3-1.4s2.5,0.6,4.1,1.4
		c1.5,0.8,2,1.8,2.7,1.8c0.7,0,0.9-0.7,1-1.3c0.1-0.5-0.4-0.8-1.2-1.3c-0.7-0.5-6.5-2.8-6.5-2.8s4.5,1.6,5.9,2.3
		c1.3,0.7,1.7,1.4,2.4,1.5c0.7,0.1,0.9,0.1,1-0.4c0.1-0.5,1.1-0.9,1.9-1.3c0.7-0.3,1-0.5,1.6-0.6c0.6-0.1,0.7-0.1,0.9-0.4
		c0.9-0.4,1.1-0.6,1.1-0.9c0.1-0.3,0.7-0.3,0.9-0.3s1.5-0.7,1.5-1.2c0-1.3,0-0.9,0.6-0.2c0.6,0.6,1.1-0.2,1.7-0.1
		c0.5,0.1,0.9,0.2,1-0.3c0.1-0.6-0.2-1-0.2-1l-2-0.2c0,0,0.3-0.3,1.1-0.2c0.8,0.1,1.7,0.5,2.1,0.5c0.5-0.5-0.1-1-1.5-1.6
		c-1.5-0.6-1.8-0.6-1.8-0.6s2,0.8,3.4,1c1.3,0.3,3,0.1,3.3,0.1c0.3-0.1-0.2-1.4-0.2-1.4s-0.7-0.4-2.1-0.8c-1.4-0.4-1.6-0.4-1.6-0.4
		s2.5,0.4,2.8,0.4c0.3,0,0.6,0.8,1.4,1.2c0.8,0.4,1.6-0.9,1.6-0.9s-1.3-0.5-2-0.6c-0.7-0.1-1-0.2-1-0.2s2.4,0.2,3.3,0.5
		c0.9,0.2,1,0.1,1.5-0.2c0.5-0.3,0.5-0.3,0.9-0.3c0.4,0,0.6-0.2,0.9-0.6c0.3-0.5,0.7-0.7,0.7-0.7l-1.9-0.2l-1.1-0.1
		c0,0,1.1-0.2,1.4-0.2c0.3,0.1,2.2,0.9,2.4,0.9c0.5-0.8,0.5-0.7,0.8-0.8c0.4-0.1,0.6-0.7,0.1-0.8c-0.5-0.1-1.3-0.9-1.7-0.9
		c-0.5,0,0.8-0.1,1.7,0.4c0.9,0.5,3.2-0.1,3.2-0.1s0.1-0.9-0.8-1l-2-0.3l2.4-0.1c0,0,0.2,0.6,0.5,0.7c0.3,0.2,0.3-0.9,0.3-0.9
		l0.4,1.2c0,0,1.2-0.1,1.4-0.1c0.2,0,0.5-0.3,0.5-0.6c0-0.2,0.3-0.6-0.5-0.5c-0.8,0-1.6-0.4-1.6-0.4s2.2,0.1,2.9,0
		c0.7-0.1,2.4-0.1,2.4-0.1l0.2-0.6c0,0-0.2-0.5-1-0.6c-0.1,0-1.1-0.5-0.7-0.3c0.4,0.1-1.8-0.4-1.8-0.4s1.4-0.2,2,0
		c0.6,0.2,1.3,1,1.7,1c0.5,0,0.9-0.5,0.9-0.5s0.1-0.8-0.4-1.4c-0.5-0.7-2.9-2.2-2.9-2.2s2.4,1.2,3.3,1.5c0.8,0.3,1.8,0.3,2.2,0.1
		c0.4-0.3,0.5-0.1,0.6-0.5c0.1-0.5,0.2-0.6,0.2-0.6s0.6,0.1,0.9-0.3c0.2-0.4,0.2-0.5,0.9-0.6c0.8-0.1,1.3,0.1,1.4-0.5
		c0.1-0.6,0.3-0.7,0.1-0.8c-0.2-0.1-5.5-0.5-5.5-0.5s5.5-0.2,6-0.2c0.6,0,1.6-0.2,1.6-0.2s2.1-0.4,2.6-0.9c0.4-0.5,0.3-0.6,1-0.7
		c0.7-0.1,0.7-0.5,0.7-0.9c0-0.4-3.5-0.3-3.5-0.3l2.8-0.2c0.7-0.1,1.4,0,1.8-0.1c0.3-0.1-0.1-0.6,0.6-0.6c0.6,0,1.5,0.1,1.7-0.4
		c0.2-0.5,0.1-1-0.7-1.4c-0.8-0.4-1.8-0.5-2.6-0.2l-2.7,0.9c0,0,1.5-0.9,2.3-1.2c0.8-0.3,1.8-0.4,3.2,0.1c1.4,0.4,0.9,1.2,1.7,1.2
		c0.9,0,1-0.3,1.8,0c0.8,0.3,1.6,0.2,1.6-0.2c0.1-0.4,0-0.4,0.6-0.3c0.6,0.1,0.5,0.1,0.8-0.4c0.3-0.5,0-0.8,0.8-0.5
		c0.8,0.2,2.3,0.4,2.7-0.1c0.3-0.5,0.5-0.4,1.1-0.4c0.6,0,1.5-0.4,2.6-0.4c1.1,0,1.1,0.2,1.6-0.1c0.5-0.2,0.3-0.4,1.3-0.3
		c1,0.1,1.6,0.1,1.6,0.1s0-1.2-0.9-1.7c-0.9-0.5-1.9-1-3.6-1.2c-1.7-0.2-3,0-3.8,0.2l-1.5,0.3c0,0,1.9-0.8,3.2-0.9
		c1.3-0.1,2.1-0.3,3.3,0.1c1.3,0.4,2.5,1.1,3.3,1.9c0.8,0.7,0.7,1.3,0.7,1.3h2.1l-0.9-1.6l1.4,1.2l1.9,0.7c0,0-0.2-1.2-0.9-1.7
		c-0.8-0.5-0.8-0.5-0.8-0.5s1.6,0.9,2,1.7c0.4,0.9,0.6-0.1,1.4-0.1c0.9,0,0.9,0.2,1.2-0.3c0.2-0.4,0-0.4,1.1-0.4
		c1.1,0,1.9,0.5,2.3,0.7c0.4,0.3,1.1,0.3,1.6,0.1c0.6-0.2,0.5-0.5,0.6-0.1c0.1,0.4,1.8,1,2.2,0.5c0.3-0.5,0.4-0.6,0.5,0
		c0.1,0.5,0.9,0.5,1.3,0.5c0.4,0,0.4-0.1,0.8,0.2c0.3,0.3,0.9,0.7,0.9,0.4v-0.6c0,0,0.1-0.1,0.6,0.4c0.5,0.5,0.9,0.7,0.9,0.1
		c-0.1-0.6,0-0.4,0-0.4l0.8,0c0,0,4.2-3.2,3.7-2.8l1.9-1.3c0,0-0.8,0.9-1.1,1.1c-0.4,0.2-4.3,3.3-4.3,3.3l0.2,0.7l1.3-0.1l0.2,0.7
		l1.4-0.2c0,0,1,0.2,1.1,0.5c0.5,0.5,1,0.1,1.2-0.4c0.2-0.4,5.4-2.2,5.4-2.2s-1.1,0.6-2,1c-0.9,0.4-2.9,0.7-3.2,1.4
		c-0.2,0.7,0.3,0.4,0.6,0.8c0.3,0.4,0.7,0.5,1.1,0.5c0.4,0,0.4,0.1,0.6,0.2c0.3,0.1,0.5-0.3,0.7,0c0.3,0.3,0.2,0.5,0.7,0.7
		c0.5,0.2,0.7,0.4,0.7,0.2c0-0.2-0.1-1,0.2-0.6c0.3,0.4,0.6,0.8,0.9,0.9c0.9,0.8,0.7,1,1.3,1.2c0.5,0.3,0.3,0.1,0.7,0.4
		c0.4,0.3,0.5,0.3,0.7,0c0.5,0.8,1,0.8,1.2,0.8c0.2,0,0.4,0.2,0.9,0.5c0.5,0.3,1.2,1,1.2,0.4c0-0.6,0.1-0.8,0.1-0.8s0.3,0.2,0.3,0.9
		c-0.1,0.7-0.4,0.7,0.2,0.6c0.6-0.1,1.1,0.2,1.1,0.5c0,0.4,0.5,0.6,0.8,0.3c0.3-0.3,0.4,0.2,0.6,0.5c0.2,0.3,0.4,0.8,0.8,0.5
		c0.4-0.3,0.7-0.2,0.8,0.2c0.1,0.3,0.4-0.4,0.8-0.4c0.4-0.1,0.4-0.2,0.6,0.3c0.1,0.4,0.4,1.3,0.4,1.3l1.2-0.1l0.1,1l0.6,0.3l0.6-0.6
		l0.2,1.9l0.7-0.9l0.1-0.9l-0.8-1.2c0,0-0.9-0.3-1.1-0.3c-0.2,0-0.7-1.7-0.7-1.7s-0.5,0-1.3-0.4c-0.7-0.4-1-0.5-1-0.5
		s-0.1-0.9-0.6-1c-0.5-0.2-0.2-0.8-0.2-0.8l-0.9,0.2l-0.3-1l-0.8-0.7l-0.6-0.6l-1.2-0.4l-0.1-1.1l-1.4-0.6l0.1-0.7
		c0,0-0.7-0.8-1.4-0.9c-0.7-0.1-0.7-0.2-0.7-0.2l-0.3-1.7c0,0-1.2-0.3-1.5-0.3c-0.2,0.1,0-0.9,0-0.9h-0.8v-0.8l-1-0.1L202,210
		l-0.5-0.8l-1.4,0.3l0.2-1.2l-0.6-0.1l-0.6-0.9l-0.5-1.3l-0.6,0.1l0-1.1h-1.2v-1.3c0,0-0.7-0.5-1.4-0.9c-0.7-0.4-1.5-1.2-1.5-1.2
		s-0.1-1-0.7-1.1c-0.6,0-0.8-0.3-0.8-0.3l0.3-0.9L192,199c0,0-0.6-1.1-1.3-1.2c-0.7-0.2-0.6-0.4-0.6-0.4s0.2-0.7-0.1-0.7
		c-0.2,0-1.4-0.2-1.4-0.2l-0.2-1.3c0,0-0.3,0.1-1-0.4c-0.6-0.5-0.6-1.1-0.7-1.6c-0.2-0.5-0.4-0.6-0.7-0.6c-0.5-0.1-0.1-1-0.7-1.1
		c-0.6-0.1-0.5-0.2-0.5-0.2l0.1-0.6l-1-0.3l-0.2-0.6l-0.8,0.2v-1.7c0,0-0.5-0.5-0.8-0.6c-0.4-0.1,0.3-0.9-0.1-1
		c-0.3-0.1-0.6-0.3-0.8-0.5c-0.2-0.2-0.4-0.2-0.5-0.8c-0.1-0.6-0.2-0.4-0.7-1c-0.5-0.6-0.6-0.5-0.7-1c0-0.5-0.2-0.8-0.6-1l-0.7-0.5
		c-1-0.6-1.6-0.7-1.7-1.3c-0.2-0.7-0.3-0.8-0.9-1.2c-0.5-0.3-1-0.7-1-0.7c0.8-0.6,0.6-1.2,0.6-1.4c0-0.3-0.5-0.9-0.7-1.3
		c-0.2-0.3-0.5-0.5-0.6-1.2c-0.1-0.7-0.5-1-0.9-1.2c-0.3-0.2-1-0.2-1-0.2l-0.2,1.1h-1.3l0.3,1.1l-0.7-0.8c0,0-0.6,0.3-0.9,0.7
		c-0.3,0.3-0.3,0.5-0.8,0.5c-0.5,0-0.9-0.2-1,0.3c0,0.5-0.2,1-0.6,1c-0.4-0.1-0.4-0.5-0.7,0.1c-0.3,0.5-0.2,0.7-0.8,0.6
		c-0.5-0.1-0.8-0.4-1-0.1c-0.7,0-1.3-0.4-1.5,0.2c-0.2,0.6-0.4,1.5-0.4,0.9c-0.1-0.6-0.9-0.7-1.5-0.5c-0.5,0.3-0.8,0.8-1,1.3
		c-0.2,0.5-0.3,1.3-0.3,1.3s0.8-1.9,0.4-2.4c-0.4-0.5-0.8-0.3-1.2,0c-0.4,0.3-0.9-0.1-1,0.3c-0.1,0.4-0.5,1.2-0.5,1.2l0.2-1.9
		c0,0-0.8-0.8-1.3-0.5c-0.5,0.3-1.2,0.7-1.3,1.3c-0.1,0.6-0.2,1.4-0.2,1.4l-0.8,1.8c0,0,0.4-2.2,0.6-3.3c0.1-1.1-0.5-1.1-0.8-1.1
		c-0.3,0-0.5,0.5-0.8,0.5c-0.3,0-1.1-0.3-1.5,0c-0.3,0.2,0,0.3-0.8,0.3c-0.8,0-1.9,0.2-2.1,0.2c-0.1,0-0.7,1.7-0.9,3.1
		c-0.3,1.6-0.3,2.8-0.3,2.8l0.2-5.6c0,0-1.6,0.3-2,0.5l-1.2,0.7l-1.2,5c0,0,1.4-4.8,0.8-5.1c-0.6-0.3-1.7,0.1-2,0.5
		c-0.3,0.4-0.3,0.4-0.7,0.5c-0.4,0.1-1,0.5-1,0.5s-0.3,1.7-1.1,3.6c-0.8,1.9-1.2,2.2-1.2,2.2s1.3-3.1,1.5-4.2
		c0.2-1.1-0.2-1.5-0.5-1.4c-0.3,0.1-0.9,0.7-1.4,0.8c-0.5,0.1-0.3-0.2-0.6,0.3c-0.3,0.5-0.5,0.7-0.7,0.7c-0.3-0.1-0.7-0.4-0.7-0.1
		c0,0.2,0,0.7,0,0.7l-0.7,2.7l0.4-2.7c0.1-0.6-0.7-0.6-0.8-0.2c-0.1,0.4-0.6,0.8-0.6,0.8s-0.7-0.1-0.9,0.2c-0.2,0.3-0.3,0.4-0.6,0.5
		c-0.3,0.1-0.8,0-0.9,0.5c-0.1,0.4-0.3,1.1-0.3,1.1l-0.6,1.2c0,0-0.9-0.3-1.3-0.2c-0.3,0.1-0.4,0.5-1.2,0.6
		c-0.7,0.1-0.8,0.2-0.8,0.2s0,1.2-0.2,1.3c-0.2,0.1-0.6,0.5-0.6,0.9c0,0.1,0,1.5,0,0.8c0-0.7,0,0.7,0,0.7l-0.8,1.1
		c0,0,0.4-0.9,0.5-1.8c0.1-0.9,0-2,0-2.4l0.1-0.8c0,0-0.2,0.2-1,0.3c-0.7,0.2-0.9,0.2-0.9,0.2l-0.1-0.7c0,0-0.8,0-1.2,0.5
		c-0.4,0.5-1.1,0.8-2.1,1.5l-3.3,2.1l2-1.8c0.8-0.8,0.8-0.6,1.1-1.1c0.2-0.5-0.9-0.7-0.9-0.7l-1.8,1.8c0,0,1-1.3,1.1-1.8
		c0.1-0.5-0.3-0.5-0.3-0.5l-3.6,0l-1.6-0.2c0,0,0.2-0.7-0.2-0.7c-0.4-0.1-1.4-0.5-1.7-0.5c-0.7-0.2-2.7-0.2-2.9,0
		c-0.2,0.2-0.5,0.3-0.9,0.4c-0.4,0.1-0.5-0.2-0.8,0.2c-0.3,0.4-0.6,0.8-0.6,0.8l-0.3-0.8c0,0-0.6,0.4-0.9,0.8c-0.3,0.4-1,0.1-1,0.1
		s-0.3,3.5-0.5,3.4c-0.2-0.2-0.4-1.6-0.4-1.6l-0.8,2.3l0.3-1.5c0,0,0.5-0.9,0.8-1.9c0.3-1-0.9-1.6-1.2-0.9c-0.3,0.7-0.2,0.6-0.2,0.1
		c0-0.4-1-0.2-1.1,0.1c0,0.3-0.8,2.9-0.8,2.9s0.7-2.2,0.5-2.9c-0.2-0.6-0.8-0.4-1.1,0.1c-0.3,0.6-0.7,0.8-0.5,0.2
		c0.2-0.7-1.1-1-1.3,0.1c-0.3,1.1-1.3,1-0.9,0.4c0.4-0.6-1.2-0.2-1.2-0.2l-0.2,1.3l-0.2-1.2c0,0-1.1,0.2-1.9,0.9
		c-0.8,0.6-2.3,2.2-2.3,2.2l-1.7,0.9c0,0,1-1.1,1.4-1.3c0.4-0.2,0.9-0.7,1-1c0.1-0.3,0-1,0-1l-1,0.4l-0.5,1.3l0-1l-1.3,0.8l-1.9,1.6
		c0,0,0.8-1.4,1.3-1.7c0.5-0.4,1.2-1.2,1.2-1.2s-0.6-0.4-1.1,0c-0.5,0.3-0.7,0.4-1.2,0.5c-0.5,0.1-1.6,2.7-1.6,2.7l1-2.8
		c0,0-0.9,0-1.5,0.6c-0.6,0.5-0.6,0.8-1.6,0.8s-1.6-1-2,0c-0.4,1-1,1.4-1,1.4l0.2-1.6c0,0-1.8,0.8-2,0.9l-1.7,1l0.1-1.5l-1-0.3
		l-1.2,2.4l0.2-2.1c0,0-0.8,0.2-1.2,0.6c-0.4,0.4-0.7,1.4-0.7,1.4l0-1.5l-0.8,0.6l-0.3,2.1l-0.2-1.8l-0.7,0.2l-0.2,2.6l-0.3-2.1
		l-0.7,0.8l-0.1,2l-0.3-1.3l-1.4,0.6c0,0,1.1-1.3,1.6-1.8c0.5-0.5,0.7-1.2,0.7-1.2s-1.3,0.1-1.4,0.4c-0.2,0.3-0.7,0.8-0.7,0.8
		s-0.7-0.3-1.1,0.7c-0.4,1-2.3,3.7-2.3,3.7l1.1-2.8l-0.7-0.1l-4.7,2.8l-0.9,0.4l-0.1-0.9l-2.2,1.5l0.1-2l-2,1.4l-0.1-1l-0.7-0.1
		v-1.4c0,0-1.1-0.4-2-0.5c-0.9,0-1.2-1.3-1.2-1.3l-1.4-1.4l-0.7,0.1l-0.1-0.8c0,0-1.8-1-3.1-1.9c-1.4-0.9-1.8-0.9-2.2-1.1
		c-0.4-0.2-0.5-0.4-0.6-0.6c-0.1-0.3-0.6-0.2-1.5-0.4c-0.8-0.1-0.7-0.2-1.1-0.8c-0.4-0.6-0.8-0.7-1.6-0.8c-0.7-0.1-1.8-0.7-2.6-1
		c-0.8-0.3-1.1-0.6-1.7-0.9c-0.5-0.4-0.8-0.4-1.4-0.7c-0.7-0.4-0.3-0.4-0.9-0.6c-0.5-0.2-0.4,0.3-0.8-0.4c-0.4-0.7,0-0.6-0.7-0.9
		c-0.7-0.2-0.3-0.2-0.7-0.9c-0.4-0.7-0.8-0.6-1.2-1.3c-0.4-0.7-0.9-1.2-1-2.9c0-1.7-0.2-3.2-1.1-3.3c-0.9-0.2-3-0.3-3.8-0.4
		c-0.8-0.1-0.8-0.2-0.8-0.2s2.7-0.1,3.9-0.6c1.2-0.5-0.6-0.4-0.2-0.7c0.3-0.4,1.6-1.1,2.3-1.5c0.7-0.4,0.5-0.4,1.3,0
		c0.8,0.4,0.8,0.7,2,1c1.1,0.3,1.9,0.1,1.9,0.1l-1.4-1.4c0,0,1.3,0.9,1.9,1.2c0.6,0.3,1.2-0.4,1.2-0.4l-1.1-1.2c0,0,0.7,0.2,1.4,1
		c0.7,0.7,1,0.5,1,0.5l0.2-1c0,0,0,0.6,0.2,1c0.2,0.4,0.9,0.4,0.9,0.4l-0.4-1.2l1,1.2l0.4-0.7l0.6,1.1l0.7,0.2l-0.4-1.1l1.2,1.3
		l-0.6-4.4c0,0,1,2.7,1.2,3.2c0.1,0.5,0.3,0.9,0.3,0.9L43,174l0.4-0.9l0.4,1.4c0,0,2.2,1.4,2.7,1.8c0.4,0.4,1.4,0.7,1.4,0.7
		s-0.3-2.5,0-2.2c0.3,0.3,0.4,2.6,0.4,2.6l1,0.5l0-1.7l0.4,1.1c0,0,0.9,0.3,0.9,0.6c0,0.3-0.1,0.5,0.4,1c0.5,0.5,1.6,1,2.2,1.5
		c0.6,0.4,1.1,0.7,1.1,0.7l0.1-2.3l0.4,2.1c0,0,0,0.9,0.6,1c0.6,0.2,1.3,0.7,1.3,0.7s1.2,0.4,1.5,0.3c0.3-0.1,1.1-0.6,1.1-1.1
		c-0.1-0.5-0.1-0.9-0.8-1.4c-0.7-0.5-1.3-1-1.3-1s2.5,0.9,3.3,1.6c0.8,0.6,1.2,0.7,2.2,0.8c1,0.1,0.7-0.2,0.7-0.2l-0.9-1.1
		c0,0,0.6,0.7,1.2,0.9c0.6,0.2,0.9-0.1,0.9-0.1l-2.9-2.3c0,0,2.9,1.5,3.3,1.9c0.3,0.4,1.7,0.5,1.7,0.5s0.6-1.2-0.1-1.6
		c-0.7-0.4-3-1.8-2.7-1.7c0.3,0.1,2.8,1.5,3.4,1.7c0.2,0.1-0.9,1.1,0.3,1.7c0.8,0.4,1.1-0.1,1.1-0.1l-0.2-1.8l0.8,2v-1.7l1.6,1.2
		c0,0,1.1-0.1,1.6,0.1c0.6,0.1,1.4,0.3,1,0l-3.4-2.6l2.9,1.6c0,0,0.3,1.1,1.1,1.2c0.8,0.1,1.8-0.7,1.8-0.7l-2.7-2.2
		c0,0,2.5,1.7,3.2,2.2c0.7,0.4,1.4,0,1.4,0l-1.2-1.5l1.8,1.2l1.1-0.1l-1.9-2.4c0,0,1.7,2,2.2,2.3c0.5,0.4,0.3,0.2,0.7-0.2
		c0.3-0.4,1-0.1,1.4,0c0.4,0.1,0.9-0.1,1.6-0.2c0.7-0.1,0.5-0.3,1.2-0.4c0.7-0.1-1.7-2.2-1.7-2.2l-3.1-2.8c0,0,5,4.1,5.5,4.5
		c0.5,0.4,1.5,0.3,1.5,0.3l2.3-0.9c0,0-0.9-2.1-2-2.2c-1-0.1-1.6-0.5-1.6-0.5s-2.2-2-1.9-2c0.3,0.1,3.2,1.3,3.8,1.9
		c0.7,0.6,1.6,2.6,2.2,2.7c0.6,0.1,0.3-0.6,0.3-0.6L89,176l1.6,1.7l1.9-0.3c0,0-0.1-0.7-0.9-1c-0.8-0.3-1.2-0.4-1.2-0.4
		s2,0.7,2.8,1.2c0.8,0.5,2.7-0.2,3.7-0.3c1.1-0.1,2.7-0.3,2.7-0.3s-1.9-1.7-2.4-1.8c-0.5-0.1-1.1-0.3-1.1-0.3s0.5-0.3,1.4,0.2
		c0.7,0.4,1.7,1.4,2.3,1.6c1.3,0.3,1.8-0.2,1.8-0.2s-0.5-0.6-1.1-1c-0.7-0.3-0.3-0.3,0.3,0c0.6,0.4,1,0.6,1.3,0.7
		c0.3,0.1,0.6-0.5,1.2-0.3c0.6,0.2,1.2,0.1,1.9,0c0.6-0.1,0.6-0.5,0.6-0.5l-3.2-1.3c0,0,2.1,0.2,2.6,0.6c0.4,0.4,0,0.7,1.3,0.9
		c1.4,0.2,3.3-0.1,3.8-0.1c0.6,0,0.3-1.5,0.3-1.5l0.7,1.2c0,0,1.6,0.2,1.9-0.2c0.2-0.4,0.3-0.5,0.7-0.5c0.4,0,0.7-0.4,1.2-0.7
		c0.5-0.4,0.9-0.4,0.6-0.5c-0.3-0.2-1-1.2-1-1.2s1,0.8,1.5,0.9c0.5,0.1,1.2-1,1.9-1.2c0.8-0.1,1.8-0.9,2.5-0.9
		c0.7,0,1.3-0.1,1.3-0.1s-0.3-0.9,0-0.9l2.1,0.1c0,0-0.4-0.4,0.4-0.7c0.9-0.2,1.1,0.2,1.3-0.3c0.2-0.6,0.2-0.7,1-0.7
		c0.8,0.1,0.6,0.6,0.9,0.3c0.4-0.3,0.4-0.7,1-0.7c0.6,0,0.7-0.4,0.7-0.4l-0.7-0.6l-3-0.1c0,0,1-0.3,1.9-0.4l1.1-0.1
		c0,0,0.7,0.9,1.3,0.9c0.6,0,0.6-0.2,0.6-0.2s0.5-0.3,1-0.3c0.5,0,0.9-0.4,0.6-0.6c-0.3-0.1-1.3-1.2-1.3-1.2l-1-0.3
		c0,0,1.6-0.1,2.2,0.4c0.6,0.5,0.1,1.1,0.7,1.2c0.7,0.1,0.6-0.2,1-0.3l1-0.1c0.9-0.1,2.1-0.3,1.7-0.5c-0.4-0.1-4.4-3.1-5.2-3
		l-0.8,0.1c0,0,2.7,0.1,3.7,0.9c1,0.7,2.7,2.2,2.7,2.2l1.1-0.1l1.3-0.5l0.1-0.7l1.9,0.1l0.2-0.6l2.5-0.1l0.4-1.1l1.2-0.1l2-1
		l-4.2-1.4c0,0,2.7,0.5,3.8,0.9c1.2,0.4,1.4,0.7,2,0.3c0.6-0.5,0.5-1.2,0.5-1.2l-3.2-2c0,0,2.8,1.6,3.7,2c0.9,0.4,1.6,0.4,1.2-0.2
		c-0.4-0.6-1.2-1.2-1.2-1.2s0.8,0.7,1.6,0.8c0.8,0.1,1.9-0.6,1.1-1.1c-0.8-0.6-1.2-0.9-1.8-1.5c-0.6-0.6-1.2-1.2-1.2-1.2
		s1.2,1.5,3.3,2.1c2,0.6,2.7-0.5,2.7-0.5s-1.9-1.7-3-1.7c1.3,0.2,2.7,1,3.4,1.5c1.2,1,0.9,0.1,0.8-0.4c-0.1-0.5-0.1-0.7,0.3-0.1
		c0.4,0.6,1.1,0.2,1.4,0.1c0.3-0.1,2.9,0.4,3.6-0.4c0.7-0.7,1.1-1.2,3-1.2c1.9,0,2.3,0.2,3,0.4c0.2,0.1,0.7,0.8,0.8,0.7
		c0.8-0.8,1.4-1.2,2.5-1c1.3,0.1,2.4,0,3.2,0.3c1.1,0.4,1.4,0.4,2.3,0.3c0.6-0.1,2.9,0.6,3.5,0.9c0.6,0.3,0.3,1.1,1.2,1.1
		c0.9,0,0.6-0.5,1.3-0.1c0.7,0.4-0.1,0.6,1.2,1.2c0.4,0.2,0.9-0.1,1.2,0c0.6,0.2,0.8,0.7,0.8,0.7l1.7,0.6c0,0,0.9,1.1,1.8,0.6
		c0.9-0.4,1.1-0.9,2.4,0.6c1.3,1.6,3.8,2.6,4.4,3.1c0.6,0.4,1.1,1,1.7,1.4c0.6,0.4,0.9,1,1.7,1.5c0.9,0.4,1.5-0.4,1.5,0.7
		c-0.1,0.9,1.4,1.3,1.4,1.3s0.7,0.9,1,0.6c0.5-0.5,1-0.6,0.8,0.4c-0.2,0.7,0,0.3,0.6,0.9c0.6,0.6,0.9-0.7,0.7,0.2
		c-0.1,0.9,1.5,0.9,1.5,0.9s-0.4-1.9-0.7-4.8c-0.2-2.9-0.3-3.3-0.5-4c-0.1-0.7,0.4-0.5,0.4-1.2c0-0.7,0.1-0.7,0-1.2
		c-0.2-0.4-0.3-0.4-0.1-0.8c0.2-0.4,0.4-0.9,0.4-1.5c0-0.6,0.2-1.5,0.5-2.7c0.3-1.2,1.5-3.6,1.7-4.4c0.2-0.8,0.3-0.3,0.4-1.3
		c0-0.3-0.2-1.3,0.1-0.8c0.3,0.5,0.3-1.4,0.3-1.4s-0.4,1.7,0.3,1.9c0.7,0.1,1.2-1.5,1.1-2.2c-0.1-0.6-0.2-0.3,0.2-0.7
		c0.4-0.4,0.8-2.2,1-2.7c0.2-0.6,2.4-5.3,2.9-6c0.5-0.7,1.5-2.6,1.5-2.6s-1,1.9-1,2.2c0,0.3-0.6,1.4-1.1,2.8
		c-0.5,1.4-1.1,1.4-0.2,1.4c0.9,0,1.2-0.2,1-0.8c-0.2-0.6-0.3-0.9-0.3-0.9s0.1,0.6,0.9,0.4c0.8-0.2,1.1,0.3,1-0.7
		c-0.1-0.9-0.2-1.2-0.2-1.2s0.9,0.2,1.2,0.2c0.2,0,0.6-1.4,0.8-1.9c0.3-0.5,0.6-0.9,1.1-1.1c0.5-0.2,0.2-0.9,0.1-1.4
		c0.1,0.4,0,0.6,0,0.6c0,0,0-0.5,1.1-0.6c0.9-0.1,1.1,0.2,1.3,0.2c0.3,0,1.4-0.9,1-1.2c0.9,0.1,0.9,0.1,1.2-0.3
		c0.3-0.3,0-0.3,0.6-0.5c0.6-0.1,0.3-1.1,0-1.3c-0.3-0.2-0.7-0.5-0.7-0.5s0.7,0.1,1.2,0.1c0.5,0,0.1-0.5,0.6-0.5
		c0.5,0,1.1-0.1,1.1-0.1l0.4-1.1l1.5,0.1v-0.8l1.1-0.1c0,0,0.8-0.1,0.8-0.6c0-0.5,0.3-0.7,0.3-0.7h1.1c0,0,0.6-0.2,1-0.8
		c0.4-0.6,0.9-0.9,0.5-1c-0.3-0.1-2-0.1-2-0.1s0.9-0.2,2-0.4c1.2-0.1,2.8-0.1,2.8-0.1l0.2-1.4l1.5,0.6l0.3-0.6l1.4-0.1
		c0,0,0.4,0.1,0.7-0.4c0.2-0.5,1.1-1.3,1.6-1.8c0.5-0.5,0.2-0.8,0.8-1.1c0.7-0.3,0.5-0.5,0.5-0.5s0.2,0.2,0.9,0.4
		c0.8,0.2,0.9,0.2,1.3-0.1c0.4-0.4,1.4-0.5,1.4-0.5c0-0.4,0.9-0.5,1.6-0.4c0.7,0.1,1.3,0.2,1.7,0.1c0.4-0.2,0.5-0.8,1.3-0.7
		c0.8,0.1,1.2,0.8,1.3,0.5l0.2-0.6c0,0,1.7,0.1,2.2,0c0.6-0.1,1.4-0.5,2-0.4c0.6,0.1,0.7,0.1,1.3-0.2c0.6-0.3,0.7-0.3,1.7-0.3
		c1,0.1,1.9-0.1,1.9-0.1l-1.9-2.2l-1.9-2.2c0,0,2.9,2.9,3.4,3.6c0.5,0.6,1,1.2,1,1.2s0.1-0.7,1.4-0.7c1.3,0,4-0.2,4-0.2l-4.3-6
		l4.7,5.9c0,0,1.5,0.1,2.2,0.4c0.6,0.3,1,0.7,1.3,0.8c0.3,0.1,0.4-0.3,1.1-0.1c0.3,0.1-2.7-2.7-2-2.2l-3.7-3.3c0,0,3.5,2.7,4.4,3.5
		c0.9,0.8,1.1,1.5,2,2c0.8,0.5,2.6,0.8,3.8,1l1.3,0.2c0,0-4-3.5-5.8-4.7c-1.7-1.2-3.2-2-3.2-2s2.6,0.9,3.3,1.4
		c0.4,0.3,2,1.8,3.2,2.7c1.1,0.8,1.7,1.7,2,1.9c0.5,0.4,1.4,1.4,1.4,1.4s0.7-0.4,1-0.5c0.9,0.7,0.9,1.2,1.5,1.1
		c0.7-0.1,0.5-0.2,0.9,0.2c0.4,0.4,0.8,0.7,1.6,0.9c0.8,0.2,2.6,0.9,3.3,0.9c0.7,0,1.4,0,1.9,0.5c0.5,0.5,1.1,0.4,2.1,0.6
		c0.9,0.1,1.4,0.1,2,0.5c0.6,0.4,0.3,0.5,1,0.6c0.7,0.1,0.4,0.1,1.1,0.5c0.7,0.4,0.9,0.7,1.3,0.4c0.4-0.3,0.8-0.6,0.7,0
		c0,0.7,0.4,0.6,0.7,0.4c0.4-0.2,0.4-0.6,0.5,0.1c0.1,0.7,0.1,1.5,0.9,1.7c0.7,0.1,0.8,0.7,1.4,1c0.7,0.3,1.7,0.5,1.7,0.5
		s0.4-0.7-0.2-1.3c-0.6-0.6-1.5-1.4-1.5-1.4s1.6,0.9,2.2,1.9c0.6,0.9,2.6,3.3,3.7,3.9c1,0.7,0.6,0.6,1.4,1c0.9,0.4,0.6,0.6,1.4,1.5
		c0.8,0.9,0.6,0.2,1-0.1c0.3-0.4,0.6-0.2,0.8,0.1c0.2,0.4,0.9,0.6,0.4,0.8c-0.5,0.1-1.1-0.4-0.9,0.1c0.2,0.5,0.5,1.1,0.9,1.8
		c0.4,0.7,0.2,1.2,0.9,1.7c0.7,0.4,0.6,0,0.7,0.7c0.2,0.7,0.4,1.6,0.9,2.4c0.4,0.8,0.7,0.9,1.1,1.7c0.4,0.8,0.4,0.9,0.7,1.4
		c0.3,0.5,0.5,1.3,0.6,2.2c0.1,1,0,1.7,0.5,2.7c0.5,1,1.5,3.7,2.4,5.9c0.5,1.2,0.6,1.5,0.7,1.7c0,0.2,0.1,0.4,0.3,1.1
		c0.4,1.6,0.8,2,0.9,2.6c0.2,0.7,0.2,1.6,0.2,2c0,0.5-0.1,1.4-0.4,2.6c-0.3,1.2-0.6,2.1-0.6,2.8c0,0.7-0.2,1.8-0.5,3
		c-0.3,1.1,0,2-0.4,2.5c-0.4,0.5-0.5,1.4-0.6,2.2c-0.1,0.8,0,0.3-0.4,1.2c-0.4,0.9-0.7,0.5-0.4,1c0.3,0.5,0.7,0.7,0.7,0.7
		s-0.9,0.1-1,0.7c-0.1,0.6,0.3,1,0.2,1.6c-0.1,0.7,0.1,1,0.1,1h0.9c0,0,0.1,0.8-0.5,0.9c-0.6,0.1-0.7,0.2-0.7,0.2l0.3,0.8
		c0,0,1.4,0.6,0.8,0.6c-0.7,0-1.5,0.4-1.5,0.4s-0.4,0.8-0.2,1.6c0.2,0.8,0.4,1.1,0.4,1.1l-1.2,0.9l0.4,1.2l-1.2,0.5
		c0,0-1.3,0.8-0.6,1.4c0.8,0.6,1.4,0.3,1.4,0.3l-1.1,1l0.7,1.7l-1.5,0.2v0.9l-0.8,0.7l0.4,1.7l-0.8,0.2v2.5c0,0,1.1,0.1,1.7-0.2
		c0.6-0.3,0.2-0.7,0.8-1.2c0.6-0.5,2.6-2.4,2.8-3.3c0.2-0.9,0.2-1,0.2-1l0.6-0.9c0,0,2-2.2,2-3.1c0-0.9-0.2-1.4-0.2-1.4l1,0.8
		c0,0,0.6-0.1,0.6-1v-1l0.6,0.5l-0.4-1.9l0.6,0.9c0,0,0.6,0,0.4-0.9l-0.2-0.9l1,0.3l0.2-1.4l0.6-1.2l0.7-0.2l-0.2-1.7l1,0.4
		c0,0,0-0.7,0.1-1.2c0.1-0.5,0.6-0.6,0.5-1.3l-0.1-0.9l0.9,0.1c0,0,0.5-0.6,0.6-1.6c0.1-1.1-0.1-1.9-0.1-1.9l0.9,0.3l0.4-1.6
		l-0.4-0.7l0.8-0.4l0.1-1.2l-0.8-0.5l1.1-0.3c0,0,0.4-1.7,0-2l-0.6-0.5c0,0,0.8,0.7,1.4,0.2c0.6-0.5,0.2-0.7,0.4-1.4
		c0.2-0.8,0-1.2,0-1.2l-0.8-0.3c0,0,1.4,0.2,1.4-0.3c0-0.5,0.1-1.6,0.1-1.6s0.5-1.1,0.4-1.9c-0.1-0.8,0.3-0.9,0.3-0.9v-2.1l0.7-1.3
		l0.1-1.3l-0.6-0.4c0,0,0.8-0.1,0.9-0.7c0.1-0.6-0.1-1.2,0.2-1.9c0.3-0.8,0.5-1.3,0.1-2l-0.5-1l1.2-0.9c0,0-0.2-1.4-0.2-2.9
		c0-1.5,0-2.5,0.2-3c0.2-0.5,0.6-2,0.2-2.8c-0.4-0.8-0.5-1.7-0.5-1.7s0.6-0.6,0.6-1c0-0.4,0.5-0.9,0.1-2c-0.3-0.9-0.5-0.5-0.2-1.5
		c0.3-1,0.6-1.8,0.7-2.8c0.1-1,0.5-2.6,0.5-4.1c0-1.4,0-1.3,0.4-2c0.4-0.8,0.9-4,1.3-6.1c0.5-2.1,1.9-4.7,2.4-5.2
		c0.5-0.6,1.1-0.1,1.4-0.7c0.3-0.6,0.9-4.2,2-6c1.2-1.7,1.6-1.5,2.5-3.1c1-1.5,1.6-3,1.6-3s0.3-0.3,1-0.4c0.7-0.1,0.8-0.5,0.8-1
		c-0.1-0.5,0.7-2.7,0.7-2.7s-0.7,1.7,0,2c0.8,0.3,2.1-0.4,2.7-0.8l0.6-0.4l-0.2-1.5l0.7,1.4l1-0.3l-0.2-1.9c0,0,0.3,1.6,0.7,1.7
		c0.4,0.2,0.7-0.3,0.7-0.3l-0.3-1.6l1.1,1.5l0.4-1.2l0.3-1.1l0.2,1.4c0,0,0.6,0.1,0.6,0.4c0,0.4-0.1,0.6,0.4,0.7
		c0.4,0.1,0.8,0.2,0.9-0.1c0.1-0.3-0.8-1-0.6-2.3c0.1-1.3,1.1-2.8,1.1-2.8s-0.1,0.9-0.4,1.8c-0.2,0.9-0.4,1.2-0.1,1.8
		c0.3,0.6,0.6,1.4,0.6,1.4s0.2-3,0.3-3.8c0.1-0.8,0.6-1.7,0.5-1.4c0,0.4-0.6,3.4-0.6,4c0,0.7-0.1,1,0.1,1.2c0.3,0.3,0.7,0.3,0.7,0.3
		l1.5-3.9c0,0-1.1,3.3-1.1,3.8c0,0.6,0.9,0.3,1.1,0.2c0.3-0.1,0.6-0.3,0.6-0.7c0-0.5,0.2-1.7,0.2-1.7l0.5,1.5l1-0.7l0.2-9.1l0.3,9.1
		l1.5-3.3c0,0-1.4,2.6-1,3c0.4,0.4,1.5,0.5,1.6,0.1c0.1-0.4,0.2-2.2,0.2-2.2s-0.3,1.6,0.3,1.8c0.6,0.2,0.8,0.4,1.3,0.1
		c0.5-0.2,0.7-0.4,1.6-0.1c0.9,0.3,1.1,0.1,1.1,0.1l1-3c0.3-0.3-0.6,2-0.6,2.7c-0.1,0.7,0.7,0.8,1.1,0.6c0.4-0.2,0.4-0.3,0.4-0.6
		c0.1-0.4,1-2.1,1-2.1l-0.6,2.6l1.1-0.3l2.7-5.3l-2.1,5.1v0.8c0,0,1.4,0.3,1.7,0.1c0.4-0.1,0.9-0.3,1.2-0.7c0.4-0.4,0.5-0.6,0.5-0.6
		v1.3l1.4-0.1l3-4.4c0,0-2.2,3.5-2.2,4.1c-0.1,0.6,1.1,0.9,1.5,0.6c0.4-0.3,2.9-4.4,2.9-4.4s-2.7,4.1-2.4,4.4
		c0.4,0.3,1.7,0.1,1.7,0.1l1.6-2.1l-1.1,2.3l0.9-0.1l2.4-2.5c0,0-2.3,2.2-2,2.8c0.4,0.5,0.3,0.4,0.8,0.1c0.5-0.3,0.8-0.6,0.7-0.1
		c-0.1,0.5,0.6,0.6,0.9,0.3c0.3-0.3,0.2-0.5-0.1-0.9c-0.6-0.6-0.3-0.6,0.2-0.5c0.6,0.1,0.9-1.9,0.6-2c-0.3-0.1-0.6-1.1,0.1-1.1
		c0.7,0,0.8-0.2,0.8,0.4c0,0.6,0.1,0.7,0.3,1.4c0.2,0.7-0.2,1.1,0.8,1.3c1,0.1,1.1,0.1,1.4-1.3C396.8,93.9,396.1,91,396.8,91.5"/>
</g>
</svg>
