<?xml version="1.0" encoding="utf-8"?>
<!-- Generator: Adobe Illustrator 21.1.0, SVG Export Plug-In . SVG Version: 6.00 Build 0)  -->
<svg version="1.1" id="Layer_1" xmlns="http://www.w3.org/2000/svg" xmlns:xlink="http://www.w3.org/1999/xlink" x="0px" y="0px"
	 viewBox="0 0 612 612" style="enable-background:new 0 0 612 612;" xml:space="preserve">
<style type="text/css">
	.st0{display:none;}
	.st1{display:inline;}
</style>
<g id="REF" class="st0">
</g>
<g class="st0">
	<path class="st1" d="M600.9,303.6C600.8,466.4,469,598.2,306.4,598.2c-163,0-294.9-132-294.6-294.8C12.1,140.5,144,8.8,306.6,9.1
		C469.1,9.3,601,141.3,600.9,303.6z M569.9,365.9c13.2-50.7,11.2-122-22.8-186.9c-22.9-43.7-55.1-78.6-96.9-105.2
		c0,9.9,0,19.2,0,28.6c-17.1-5.2-34-10.3-51.4-15.6c1.5,14.6,2.9,28.7,4.3,43.1c-29.3-4.1-57.9-8-86.5-12.1
		c-1.7-0.2-3.5-1.5-4.8-2.8c-8.1-8.4-16.1-17-24.1-25.5c-7.2-7.6-7.2-7.6-16.4-2.7c-8.2,4.3-16.4,8.7-25,13.2
		c9.3,11.3,18.2,22.3,27.9,34.1c-2.3-0.7-3.4-1-4.4-1.3c-27.4-8.4-54.7-16.8-82.1-25.4c-2.5-0.8-4.3-0.5-6.4,1.2
		c-15.3,12.2-30.8,24.3-46.2,36.5c-1.5,1.2-3,2.3-5.2,3.9c1.6-18.7,3-36.5,4.6-55.3c-34.3,28.5-59.9,62.4-77.5,102.8
		c19.7,6.1,39,12,58.2,18c2.8,0.9,4.9,0.5,7.4-1c25.5-15.4,51-30.7,76.4-46.2c2.7-1.6,4.5-1.5,7,0.2c16.5,10.9,33,21.7,49.6,32.5
		c1.1,0.7,2.2,1.5,3.6,2.5c-28.1,16.1-55.8,32.1-84.1,48.3c10.7,6.6,20.8,13,31.4,19.6c-11.3,9.3-21.9,18.3-32.8,26.9
		c-4.1,3.3-6.9,6.9-7.9,12.1c-0.9,5-2.5,9.8-3.9,15c15.8,0.7,30.9,1.5,46.2,2.2c0.1,0.8,0.3,1.3,0.3,1.9
		c-1.1,15.7-2.1,31.4-3.4,47.1c-0.1,1-1.9,2.5-3,2.7c-21.2,3.7-42.5,7.1-63.7,10.9c-5.5,1-9.9,0-14.6-2.6
		c-10.9-6.1-22-11.8-33.3-17.8c-10.4,14.8-20.7,29.4-30.7,44c-0.7,1-0.2,3.1,0.4,4.5c18,39,43.9,71.8,77.4,98.6
		c0.9,0.7,1.8,1.2,3.6,2.4c-3.9-15.5-7.5-30-11.2-44.9c1.6,0.3,2.5,0.5,3.4,0.8c26,7.2,52,14.4,77.9,21.7c2.7,0.8,4.9,0.5,7.4-0.9
		c18.2-10,36.4-19.8,54.7-29.6c1.3-0.7,2.6-1.3,4.1-2c5.4,16.4,10.9,32.3,16,48.3c1,3.2,2.5,3.9,5.7,3.5c22-2.6,44-5.1,65.9-7.5
		c4.7-0.5,8.6-1.9,12.5-4.8c24-17.9,48.1-35.6,72.1-53.5c2.5-1.9,4.2-2.1,6.8-0.1c15.5,11.3,31.2,22.4,46.8,33.6
		c1.2,0.9,2.5,1.7,3.8,2.6c0.6-0.5,1.1-0.8,1.4-1.2c18.6-20.8,33.7-43.9,45-69.4c0.8-1.7,0.5-4.4-0.2-6.2
		c-7.8-19.9-15.8-39.8-23.8-59.6c-0.6-1.5-1.1-3-1.9-5.3C542.1,351.3,555.9,358.5,569.9,365.9z"/>
	<path class="st1" d="M337.2,237.2c38.1-4.5,75.5-8.8,113.8-13.3c-4.5,14.5-8.8,28.5-13.1,42.7c4.6,2.4,9,4.7,13.4,7
		c12.7,6.6,25.4,13.3,38.2,19.7c2.6,1.3,3.2,2.8,2.8,5.5c-2.5,17.8-4.9,35.6-7.1,53.4c-0.3,2.2,0.1,4.8,0.8,6.9
		c6.1,16.8,12.4,33.6,18.7,50.4c0.5,1.3,0.8,2.6,1.6,5.1c-26.5-20.6-52.1-40.4-78.1-60.7c-4.8,11.9-9.5,23.5-14.4,35.5
		c-10.2-4.8-19.9-9.8-30-14c-5.1-2.1-6.8-4.8-7-10.4c-0.7-22.3-2.1-44.5-3.1-66.7c-0.2-4.6-1.4-8.5-4-12.4
		c-10.2-14.8-20-29.8-30-44.7C338.9,240.1,338.2,238.9,337.2,237.2z"/>
	<path class="st1" d="M226,255c13.6-9.1,26.5-17.8,39.7-26.6c8.7,9.2,17.3,18.2,26.1,27.4c-5.8,5.1-12.2,10.9-18.7,16.5
		c-0.7,0.6-2.4,0.8-3.3,0.4C255.3,266.9,241.1,261.1,226,255z"/>
	<path class="st1" d="M316.8,475.7c-8-22.4-15.6-43.8-23.4-65.9c16.2,4.2,31.9,8.3,48.1,12.5C333.4,440,325.3,457.4,316.8,475.7z"/>
</g>
<path class="st0" d="M293.6,79.8c-49.6,6.8-90.8,26-119.6,67.1c-3.3,4.8-10.2,9.9-2.6,16.9c6.1,5.6,9.2,13.2,21.6,9.4
	c126.1-39.4,252.1,32.5,282.9,160.5c29.7,123.3-58.1,250.9-183.4,266.6c-126,15.7-235.3-66.8-250-192.7
	C32.8,324,64.3,255.4,131.7,204c4.5-3.4,9.2-6.5,13.8-9.7c0.4-0.3,0.6-0.7,5.1-5.2c-7.1-5.3-14.6-10.2-21.3-16
	c-8.8-7.6-17-16.3-8.7-28.8c8.4-12.7,19.5-9.8,30.2-3.2C198,67.8,293.7,43.4,364,65c4,1.2,8,4,11.9,3.8c5.6-0.3,11.1-2.6,16.7-4.1
	c-2.9-5.1-4.9-13.5-8.9-14.7c-19.2-5.4-39-9-58.6-12.8c-4.9-0.9-10.1-0.1-18-0.1c12.2-17.3,27.6-24.7,45.1-28
	c24.4-4.6,47.6,0.4,69.1,12.2c16.4,9,32.3,19,48.5,28.3c27.7,16,56.5,24.9,91,11.5c-12.6,35.2-31,62.9-59.6,83.2
	c-59.3,42.3-137.9,24-181.3-13.2C304.9,118.2,296.2,101.4,293.6,79.8z M159.8,294.8c0.2-13-9.5-23.6-22.3-24.1
	c-13.2-0.5-24.4,10.3-24.5,23.6c-0.1,12.3,10.8,23.3,23.3,23.6C148.6,318.1,159.5,307.4,159.8,294.8z"/>
<g class="st0">
	<path class="st1" d="M69.5,363.9c5.8,0,11.5,0,17.4,0c0-0.9,0.1-1.6,0.1-2.3c0-72.4,0-144.9,0-217.3c0-1.5-0.4-2.4-1.8-3.2
		c-20.2-11.9-30.9-29.6-31.9-53c0-1,0.2-2.1,0.4-3.2c6.6-24.5,13.2-49,19.8-73.5c0.2-0.6,0.4-1.1,0.6-1.8c0.8,0,1.5,0,2.2,0
		c150.9,0,301.8,0,452.7,0c1.7,0,2.4,0.4,2.9,2.1c6.5,24.6,13.3,49.1,19.7,73.7c0.9,3.5,0.3,7.5-0.3,11.2
		c-3.6,20.6-14.8,35.9-33.4,45.7c-1,0.5-1.6,1.2-1.4,2.4c0.1,0.4,0,0.8,0,1.2c0,71.6,0,143.3,0,214.9c0,0.9,0,1.9,0,3
		c6.3,0,12.5,0,18.8,0c0,74.6,0,149,0,223.6c-6.3,0-12.4,0-18.8,0c0,7,0,13.8,0,20.6c-9.6,0-18.9,0-28.4,0c0-6.8,0-13.6,0-20.5
		c-124.2,0-248.1,0-372.3,0c0,6.7,0,13.5,0,20.4c-9.6,0-19,0-28.6,0c0-6.8,0-13.5,0-20.5c-6,0-11.7,0-17.6,0
		C69.5,512.8,69.5,438.4,69.5,363.9z M302.6,91.5c-2.7,31.9-28.4,56-59.2,57.5c-16.9,0.8-31.9-4.4-44.5-15.7
		c-12.6-11.2-19.4-25.5-20.8-41.4c-5.7,34.8-26.5,54.2-62.5,57.6c0,71.2,0,142.6,0,214.2c124.1,0,248.1,0,372.1,0
		c0-71.6,0-143.1,0-214.5c-31.1-0.8-57.7-25.6-60.5-57.5c-1.7,16.5-8.5,30.5-20.9,41.5c-12.5,11.1-27.2,16.3-43.9,15.7
		c-13.8-0.5-26.2-5.2-36.9-14C311.9,123.8,304.5,109.1,302.6,91.5z"/>
</g>
<path d="M335.2,436.7c0,55.1,0,109.9,0,165.1c-13.8,0-27.4,0-41.9,0c0-34.1,0-68.3,0-103c-22.7,0-44.7,0-67.5,0
	c0,34.2,0,68.4,0,103.1c-57,0-113.1,0-169.8,0c0-54.8,0-109.7,0-165.1C148.9,436.7,241.8,436.7,335.2,436.7z M96.4,477
	c0,22.4,0,44.5,0,66.6c22.5,0,44.6,0,66.6,0c0-22.5,0-44.4,0-66.6C140.6,477,118.7,477,96.4,477z M1.4,411.5
	c130.1,0,258.4,0,388.3,0c-65.5-54.6-129.8-108.1-194.2-161.8C130.9,303.6,66.6,357.1,1.4,411.5z M570.7,415.2c-46,0-91.5,0-138.3,0
	c8.4,7.2,15.8,13.5,24.8,21.1c-33.6,0-65.1,0-96.8,0c0,35.1,0,69.3,0,103.9c27.2,0,53.8,0,81.2,0c0-28.4,0-56.4,0-84.6
	c22.8,0,44.9,0,67.7,0c0,28.5,0,56.5,0,84.5c20.8,0,41,0,61.4,0C570.7,498.2,570.7,456.8,570.7,415.2z M414.6,195.4
	C365.3,154.3,317,114,268.5,73.6c-48.6,40.5-96.9,80.7-146.2,121.8C220.4,195.4,316.9,195.4,414.6,195.4z M608,388.9
	c-48.2-40.2-96.5-80.4-145.2-121c-34.7,28.9-69,57.5-103.7,86.4c13.3,11.1,25.7,21.7,38.6,31.9c2.9,2.3,7.1,3.9,10.7,3.9
	c64.3,0.2,128.6,0.2,192.9,0.2c2,0,4,0,6,0C607.5,389.8,607.8,389.4,608,388.9z M376.7,220.6c0,28.5,0,56.4-0.1,84.3
	c0,1.6-0.8,3.6-2,4.6c-11.3,9.6-22.7,19-34.6,28.9c-47-39.1-93.6-78-141.5-117.8C258.8,220.6,317.3,220.6,376.7,220.6z M299.5,239.5
	c0,15.3,0,30.2,0,45c16.1,0,31.7,0,47.4,0c0-15.2,0-29.9,0-45C331.1,239.5,315.7,239.5,299.5,239.5z M423.4,155.9
	c-2.7,9.6-0.2,16.4,7.9,21.7c5.2,3.4,9.7,8,14.6,12c2.2,1.9,4.5,3.7,8.1,6.6c0-8.5,0-14.9,0-21.5c7.2,0,13.9,0,20.8,0
	c0,8.1,0,15.8,0,24.3c-5.6,0-10.8,0-17.5,0c8.7,7.4,16,13.6,23.4,19.9c-0.2,0.5-0.5,1-0.7,1.5c-19,0-38,0-57,0c0,6.5,0,12.2,0,18.2
	c35,0,69.7,0,105,0c0-17.5,0-34.4,0-51.7c8.3,0,16,0,24.3,0c0,17.5,0,34.5,0,51.6c6.5,0,12.4,0,18.5,0c0-27.7,0-54.8,0-82.7
	C521.2,155.9,472.1,155.9,423.4,155.9z M34.3,112.6c49.2,0,98.1,0,147.9,0c-1.4,1.6-2.1,2.8-3.2,3.7c-30.8,25.8-61.7,51.6-92.6,77.3
	c-1.3,1.1-3.1,2.2-4.7,2.2c-15.7,0.2-31.4,0.1-47.5,0.1C34.3,167.9,34.3,140.4,34.3,112.6z M65.4,131.4c0,8.3,0,16,0,23.7
	c7.1,0,13.8,0,20.6,0c0-8.1,0-15.7,0-23.7C79,131.4,72.6,131.4,65.4,131.4z M13,87.3c64.1,0,126.6,0,190.2,0
	c-32.2-26.9-63.3-53-95.1-79.6C76.4,34.3,45.1,60.5,13,87.3z M496.8,51c-31.8,26.6-63,52.7-95.5,79.9c64.3,0,126.7,0,191,0
	C559.6,103.5,528.2,77.2,496.8,51z M160.8,220.6c0,8.5,0,16.6,0,26.2c10.8-8.9,20.5-17,31.5-26.2
	C180.6,220.6,170.9,220.6,160.8,220.6z"/>
</svg>
