<?xml version="1.0" encoding="utf-8"?>
<!-- Generator: Adobe Illustrator 21.0.0, SVG Export Plug-In . SVG Version: 6.00 Build 0)  -->
<svg version="1.1" id="Layer_1" xmlns="http://www.w3.org/2000/svg" xmlns:xlink="http://www.w3.org/1999/xlink" x="0px" y="0px"
	 viewBox="0 0 612 612" style="enable-background:new 0 0 612 612;" xml:space="preserve">
<style type="text/css">
	.st0{display:none;}
	.st1{display:inline;}
</style>
<g id="REF" class="st0">
</g>
<g class="st0">
	<path class="st1" d="M600.9,303.6C600.8,466.4,469,598.2,306.4,598.2c-163,0-294.9-132-294.6-294.8C12.1,140.5,144,8.8,306.6,9.1
		C469.1,9.3,601,141.3,600.9,303.6z M569.9,365.9c13.2-50.7,11.2-122-22.8-186.9c-22.9-43.7-55.1-78.6-96.9-105.2
		c0,9.9,0,19.2,0,28.6c-17.1-5.2-34-10.3-51.4-15.6c1.5,14.6,2.9,28.7,4.3,43.1c-29.3-4.1-57.9-8-86.5-12.1
		c-1.7-0.2-3.5-1.5-4.8-2.8c-8.1-8.4-16.1-17-24.1-25.5c-7.2-7.6-7.2-7.6-16.4-2.7c-8.2,4.3-16.4,8.7-25,13.2
		c9.3,11.3,18.2,22.3,27.9,34.1c-2.3-0.7-3.4-1-4.4-1.3c-27.4-8.4-54.7-16.8-82.1-25.4c-2.5-0.8-4.3-0.5-6.4,1.2
		c-15.3,12.2-30.8,24.3-46.2,36.5c-1.5,1.2-3,2.3-5.2,3.9c1.6-18.7,3-36.5,4.6-55.3c-34.3,28.5-59.9,62.4-77.5,102.8
		c19.7,6.1,39,12,58.2,18c2.8,0.9,4.9,0.5,7.4-1c25.5-15.4,51-30.7,76.4-46.2c2.7-1.6,4.5-1.5,7,0.2c16.5,10.9,33,21.7,49.6,32.5
		c1.1,0.7,2.2,1.5,3.6,2.5c-28.1,16.1-55.8,32.1-84.1,48.3c10.7,6.6,20.8,13,31.4,19.6c-11.3,9.3-21.9,18.3-32.8,26.9
		c-4.1,3.3-6.9,6.9-7.9,12.1c-0.9,5-2.5,9.8-3.9,15c15.8,0.7,30.9,1.5,46.2,2.2c0.1,0.8,0.3,1.3,0.3,1.9
		c-1.1,15.7-2.1,31.4-3.4,47.1c-0.1,1-1.9,2.5-3,2.7c-21.2,3.7-42.5,7.1-63.7,10.9c-5.5,1-9.9,0-14.6-2.6
		c-10.9-6.1-22-11.8-33.3-17.8c-10.4,14.8-20.7,29.4-30.7,44c-0.7,1-0.2,3.1,0.4,4.5c18,39,43.9,71.8,77.4,98.6
		c0.9,0.7,1.8,1.2,3.6,2.4c-3.9-15.5-7.5-30-11.2-44.9c1.6,0.3,2.5,0.5,3.4,0.8c26,7.2,52,14.4,77.9,21.7c2.7,0.8,4.9,0.5,7.4-0.9
		c18.2-10,36.4-19.8,54.7-29.6c1.3-0.7,2.6-1.3,4.1-2c5.4,16.4,10.9,32.3,16,48.3c1,3.2,2.5,3.9,5.7,3.5c22-2.6,44-5.1,65.9-7.5
		c4.7-0.5,8.6-1.9,12.5-4.8c24-17.9,48.1-35.6,72.1-53.5c2.5-1.9,4.2-2.1,6.8-0.1c15.5,11.3,31.2,22.4,46.8,33.6
		c1.2,0.9,2.5,1.7,3.8,2.6c0.6-0.5,1.1-0.8,1.4-1.2c18.6-20.8,33.7-43.9,45-69.4c0.8-1.7,0.5-4.4-0.2-6.2
		c-7.8-19.9-15.8-39.8-23.8-59.6c-0.6-1.5-1.1-3-1.9-5.3C542.1,351.3,555.9,358.5,569.9,365.9z"/>
	<path class="st1" d="M337.2,237.2c38.1-4.5,75.5-8.8,113.8-13.3c-4.5,14.5-8.8,28.5-13.1,42.7c4.6,2.4,9,4.7,13.4,7
		c12.7,6.6,25.4,13.3,38.2,19.7c2.6,1.3,3.2,2.8,2.8,5.5c-2.5,17.8-4.9,35.6-7.1,53.4c-0.3,2.2,0.1,4.8,0.8,6.9
		c6.1,16.8,12.4,33.6,18.7,50.4c0.5,1.3,0.8,2.6,1.6,5.1c-26.5-20.6-52.1-40.4-78.1-60.7c-4.8,11.9-9.5,23.5-14.4,35.5
		c-10.2-4.8-19.9-9.8-30-14c-5.1-2.1-6.8-4.8-7-10.4c-0.7-22.3-2.1-44.5-3.1-66.7c-0.2-4.6-1.4-8.5-4-12.4
		c-10.2-14.8-20-29.8-30-44.7C338.9,240.1,338.2,238.9,337.2,237.2z"/>
	<path class="st1" d="M226,255c13.6-9.1,26.5-17.8,39.7-26.6c8.7,9.2,17.3,18.2,26.1,27.4c-5.8,5.1-12.2,10.9-18.7,16.5
		c-0.7,0.6-2.4,0.8-3.3,0.4C255.3,266.9,241.1,261.1,226,255z"/>
	<path class="st1" d="M316.8,475.7c-8-22.4-15.6-43.8-23.4-65.9c16.2,4.2,31.9,8.3,48.1,12.5C333.4,440,325.3,457.4,316.8,475.7z"/>
</g>
<path class="st0" d="M293.6,79.8c-49.6,6.8-90.8,26-119.6,67.1c-3.3,4.8-10.2,9.9-2.6,16.9c6.1,5.6,9.2,13.2,21.6,9.4
	c126.1-39.4,252.1,32.5,282.9,160.5c29.7,123.3-58.1,250.9-183.4,266.6c-126,15.7-235.3-66.8-250-192.7
	C32.8,324,64.3,255.4,131.7,204c4.5-3.4,9.2-6.5,13.8-9.7c0.4-0.3,0.6-0.7,5.1-5.2c-7.1-5.3-14.6-10.2-21.3-16
	c-8.8-7.6-17-16.3-8.7-28.8c8.4-12.7,19.5-9.8,30.2-3.2C198,67.8,293.7,43.4,364,65c4,1.2,8,4,11.9,3.8c5.6-0.3,11.1-2.6,16.7-4.1
	c-2.9-5.1-4.9-13.5-8.9-14.7c-19.2-5.4-39-9-58.6-12.8c-4.9-0.9-10.1-0.1-18-0.1c12.2-17.3,27.6-24.7,45.1-28
	c24.4-4.6,47.6,0.4,69.1,12.2c16.4,9,32.3,19,48.5,28.3c27.7,16,56.5,24.9,91,11.5c-12.6,35.2-31,62.9-59.6,83.2
	c-59.3,42.3-137.9,24-181.3-13.2C304.9,118.2,296.2,101.4,293.6,79.8z M159.8,294.8c0.2-13-9.5-23.6-22.3-24.1
	c-13.2-0.5-24.4,10.3-24.5,23.6c-0.1,12.3,10.8,23.3,23.3,23.6C148.6,318.1,159.5,307.4,159.8,294.8z"/>
<g class="st0">
	<path class="st1" d="M69.5,363.9c5.8,0,11.5,0,17.4,0c0-0.9,0.1-1.6,0.1-2.3c0-72.4,0-144.9,0-217.3c0-1.5-0.4-2.4-1.8-3.2
		c-20.2-11.9-30.9-29.6-31.9-53c0-1,0.2-2.1,0.4-3.2c6.6-24.5,13.2-49,19.8-73.5c0.2-0.6,0.4-1.1,0.6-1.8c0.8,0,1.5,0,2.2,0
		c150.9,0,301.8,0,452.7,0c1.7,0,2.4,0.4,2.9,2.1c6.5,24.6,13.3,49.1,19.7,73.7c0.9,3.5,0.3,7.5-0.3,11.2
		c-3.6,20.6-14.8,35.9-33.4,45.7c-1,0.5-1.6,1.2-1.4,2.4c0.1,0.4,0,0.8,0,1.2c0,71.6,0,143.3,0,214.9c0,0.9,0,1.9,0,3
		c6.3,0,12.5,0,18.8,0c0,74.6,0,149,0,223.6c-6.3,0-12.4,0-18.8,0c0,7,0,13.8,0,20.6c-9.6,0-18.9,0-28.4,0c0-6.8,0-13.6,0-20.5
		c-124.2,0-248.1,0-372.3,0c0,6.7,0,13.5,0,20.4c-9.6,0-19,0-28.6,0c0-6.8,0-13.5,0-20.5c-6,0-11.7,0-17.6,0
		C69.5,512.8,69.5,438.4,69.5,363.9z M302.6,91.5c-2.7,31.9-28.4,56-59.2,57.5c-16.9,0.8-31.9-4.4-44.5-15.7
		c-12.6-11.2-19.4-25.5-20.8-41.4c-5.7,34.8-26.5,54.2-62.5,57.6c0,71.2,0,142.6,0,214.2c124.1,0,248.1,0,372.1,0
		c0-71.6,0-143.1,0-214.5c-31.1-0.8-57.7-25.6-60.5-57.5c-1.7,16.5-8.5,30.5-20.9,41.5c-12.5,11.1-27.2,16.3-43.9,15.7
		c-13.8-0.5-26.2-5.2-36.9-14C311.9,123.8,304.5,109.1,302.6,91.5z"/>
</g>
<g id="_x30_BBaEW.tif">
	<g>
		<path d="M602.5,491.8c-8,20.3-22.5,35.5-39.4,48.5c-26.6,20.5-56.8,34.4-88.9,43.6c-23.5,6.7-47.6,12-71.7,16.4
			c-18.6,3.3-37.6,4.2-56.4,6.2c-0.8,0.1-1.6,0.7-2.4,1.1c-25.1,0-50.3,0-75.4,0c-1-0.4-2-1-3-1.1c-20.7-2.4-41.6-3.6-62.1-7.3
			c-23.3-4.2-46.5-9.8-69.3-16.4c-26.6-7.7-51.7-19.4-74.8-35c-19.4-13-36.1-28.6-46.9-49.6c-3.6-7-5.3-14.9-7.9-22.4
			c0-8.6,0-17.3,0-25.9c1.7-5.4,2.9-11,5.2-16.1c8.6-19.1,21.6-34.7,38.2-47.5c28.6-22,61-36.4,95.4-46.1
			c22.5-6.3,45.6-10.2,68.5-15.2c1.9-0.4,3.7-1,6.2-1.7c-0.5-7.7-0.7-15.4-1.5-23.1c-0.9-8.6-2.1-17.2-3.4-25.8
			c-2.4-16.4-4.2-32.9-7.6-49.1c-4.7-23.1-9.8-46.1-16.2-68.8c-5.2-18.6-12-36.8-19-54.8c-6.6-16.8-14.6-33.3-26.7-47
			c-3.8-4.2-10-6.6-15.6-8.8c-17.5-7-35.7-12.1-54.4-14c-17.2-1.8-34.6-2.2-51.9-2.4c-7.5-0.1-13.1-2.2-17.1-8.4c0-5.5,0-11,0-16.5
			c18.1,0,36.1,0,54.2,0c5.6,0.8,11.2,1.7,16.9,2.3c22.1,2.3,43.4,8,63.9,16.4c3.5,1.5,7.1,2.8,10.8,4c9.4,3.1,14.1,11.2,19.1,18.6
			c18.6,27.3,30.3,57.7,40.1,88.9c9.1,28.9,16.5,58.3,21.2,88.3c3.2,20.2,6.7,40.3,9.2,60.5c1.9,15.2,2.9,30.5,3.6,45.8
			c1.1,22.4,1.9,44.8,2.4,67.3c0.4,18.1,0.2,36.2,0,54.3c-0.1,5.6-1.7,10.8-7.8,12.8c-5.9,2-11.4,0.6-14.7-4.4c-1.4-2.1-2-5-2.1-7.6
			c-0.2-10.8-0.1-21.5-0.1-33.3c-19.6,6.4-39.4,10.5-54.5,25.1c-6.3,6.1-6.2,13,0.9,17.7c9,5.8,18.3,11.3,28.1,15.5
			c22.2,9.5,45.9,13.8,69.6,17.6c12.2,1.9,24.8,1.9,37.2,2.5c7.7,0.4,13.8,4.1,15.2,9.9c2.2,8.9-2.7,16.1-12.5,15.9
			c-12.4-0.2-24.9-0.9-37.2-2.5c-13.1-1.6-26.3-3.9-39.2-6.9c-26.3-6.1-52.2-13.3-74.3-29.7c-9.9-7.3-17.5-17-18.1-29.8
			c-0.5-10.3,3.7-19.5,10.7-27.3c9.7-10.8,22.4-17.1,35.5-22.2c12.3-4.8,25.1-8.2,38.1-12.4c0-4.8,0-10.4,0-17.2
			c-11.8,3.1-23.1,5.8-34.3,9.1c-19.8,5.9-38.8,13.6-55.7,25.8c-10.7,7.7-20.8,16.1-26.1,28.8c-5.5,13-3.1,25,5,36
			c13.2,18,32.3,27.8,52,36.6c19.6,8.7,40.1,14.3,61,18.4c12.8,2.5,25.9,4.2,39,5.1c19.2,1.4,38.6,3,57.8,2.2
			c21.4-0.9,42.7-4.1,64-6.7c20.1-2.4,39.5-8.2,58.3-15.5c20.6-8,40.4-17.7,55.7-34.2c11.4-12.3,16.3-26.4,9.6-42.5
			c-4.6-11-13.6-18.9-23-25.8c-12.7-9.4-26.8-16.5-41.6-22.1c-0.5-0.2-1.1,0.1-2.3,0.2c0,3.9-0.6,7.9,0.2,11.6
			c0.5,2.1,3,4.1,5.1,5.6c9.2,6.3,19.4,11.4,27.5,18.8c19.8,18.1,13.8,44.8-5.8,58.7c-13.1,9.3-27.4,14.7-43.6,14.6
			c-3.9,0-8.1,0.4-11.6-0.8c-5.1-1.7-8.1-8.2-7-12.6c1.8-7.4,6.2-11.2,13.3-11.3c11.4-0.1,22.2-2.6,31.6-9.2
			c14.7-10.4,11.4-15.8,0.5-25.6c-2.1-1.9-4.8-3-6.2-3.9c-2.3,5-3.6,10.8-7.1,14.7c-5.3,6-16.2,2.6-18.5-5.1c-1-3.3-1.9-6.7-2-10.1
			c-0.6-11.9-0.4-23.8-1.4-35.7c-1.5-17.1-3.5-34.2-5.8-51.2c-2.4-17.9-4.3-36.1-8.5-53.6c-6.5-27-13.8-53.9-22.7-80.1
			c-6.3-18.7-15.5-36.4-24.1-54.2c-10.9-22.6-25-43.3-40.7-62.8c-13-16.2-26.7-31.7-40.2-47.4c-6.3-7.4-4.4-18.4,4.4-21.7
			c15.4-5.7,30.8-11.9,46.7-16c14.3-3.7,29.2-4.7,43.9-7c1.2-0.2,2.4-0.8,3.6-1.2c15.7,0,31.4,0,47.1,0c4.5,4,10,7.3,7.3,15.1
			c-2,5.9-5.7,9.5-11.9,9.6c-5.9,0.1-11.8-0.1-17.7,0.1c-31.4,0.9-62.4,3.7-92.6,16.6c3.3,4.1,6.8,8.1,10,12.3
			c15.8,20.9,32.3,41.3,46.9,63c18.5,27.5,31.9,57.8,43.1,89c9.8,27.2,16.7,55,22.9,83.1c2.5,11,4.2,22.3,5.7,33.5
			c0.5,3.5,2.3,4.6,4.9,5.2c22.4,4.8,44.2,11.4,65.3,20.2c23.4,9.7,45.6,21.3,65.2,37.7c16.6,13.8,29.7,29.8,36.3,50.6
			c1,3.2,2,6.4,3,9.6c0,8.6,0,17.3,0,25.9C606,481.1,604.6,486.6,602.5,491.8z M174.3,357.9c-26.6,6.4-52.5,14.9-76.9,27.2
			c-18.7,9.4-36.3,20.8-50.3,36.7c-10.7,12.2-18.2,25.9-17.9,42.6c0.3,12.3,5.1,23.2,12.6,32.8c21.3,27.2,50.6,42.4,81.7,54.9
			c23.9,9.6,48.9,15.8,74.1,21c14.9,3.1,30.1,5,45.3,6c26.2,1.8,52.5,3.4,78.8,3.4c18.5,0,37.1-2.8,55.6-4.4
			c35.8-3.2,70.5-11.5,104.3-23.5c25-8.9,48.8-20.4,69.2-37.3c12.7-10.5,24.3-22.5,29.5-39c6.1-19,0.7-35.7-10.9-50.8
			c-12.6-16.4-29-28.1-46.9-38.1c-26.7-14.9-55.5-24.1-84.8-31.8c-0.4,0.6-0.8,1.2-1.2,1.7c1.4,0.9,2.6,2.1,4.1,2.8
			c12.2,5.2,24.6,9.8,36.5,15.6c17.7,8.6,33.8,20,45.4,36.1c15.5,21.5,17.7,45.2,4.5,68.8c-9.9,17.8-25.3,29.5-42.2,39.5
			c-26.9,16-56.4,25.3-86.9,31c-18,3.4-36.3,5.2-54.5,7.2c-12,1.3-24,2.3-36,2.3c-12.4,0-24.8-1.3-37.2-2.2c-8.7-0.6-17.5-1-26-2.5
			c-19.1-3.3-38.5-6-57-11.3c-18.2-5.2-36-12.3-53-20.6c-20.1-9.8-37.9-22.9-49.3-43.2c-11.9-21.2-11.8-42.1,0.5-63
			c10.9-18.5,27.5-30.7,45.8-40.7c19.8-10.8,40.7-19,62.8-23.8c1.3-0.3,2.4-1.1,3.6-1.7c-0.1-0.3-0.1-0.7-0.2-1
			C189.8,354.4,182,356,174.3,357.9z"/>
		<path d="M315.2,456c-0.7-19.3-1.2-38.6-2.2-57.9c-0.8-16.3-2-32.6-3.5-48.8c-1.6-16.3-3.6-32.6-5.8-48.9
			c-2.6-18.9-4.9-37.9-8.4-56.6c-6.6-35.1-15.6-69.6-28.6-102.9c-10.3-26.4-22.7-51.8-38.1-75.6c-6.7-10.3-13.9-20.3-20.9-30.4
			c-4.7-6.8-12.6-9.2-18.3-5.1c-5,3.6-8.8,10.3-2.8,19.4c10.1,15.4,21,30.4,29.9,46.5c10,18.1,19,37,26.9,56.1
			c11.2,27.2,18.6,55.6,24.6,84.4c4.2,20.3,6.9,41,9.7,61.6c2.4,18,4.3,36.1,5.9,54.2c1.5,16.8,2.6,33.7,3.5,50.5
			c1,19.5,1.4,39,2.5,58.4c0.7,12.6,11,17.5,20.2,12.2c5.5-3.2,5.6-8.8,5.7-14.3c0-1,0-2,0-2.9C315.3,456,315.2,456,315.2,456z"/>
		<path d="M227,44.4c2.5,4.2,4.6,8.7,7.5,12.6c9.1,12.2,19.2,23.7,27.7,36.3c20.3,29.9,36.1,62,48.7,95.9
			c12.5,34,22,68.7,28.1,104.3c3.6,21.1,6.6,42.3,9.4,63.4c1.6,12.1,2.7,24.2,3.5,36.4c1.4,19.4,2.4,38.8,3.6,58.2
			c0.4,5.7,3.2,10.2,8.3,12c5.3,1.8,11,0.9,14.3-4.4c1.8-2.9,2.6-6.7,3-10.1c0.3-2.8-0.7-5.7-0.9-8.5c-1.2-21-1.9-42-3.7-62.9
			c-1.7-19.6-3.6-39.3-7.2-58.6c-5.6-30.4-11.7-60.7-19.5-90.6c-6.1-23.3-13.7-46.4-23.2-68.6c-9.6-22.6-21.8-44.2-33.8-65.7
			c-11.6-20.7-26.2-39.5-42-57.3c-3.6-4.1-8.3-5.7-13.2-4.7C232.1,33.2,228.3,38.7,227,44.4z"/>
	</g>
</g>
</svg>
