<?xml version="1.0" encoding="utf-8"?>
<!-- Generator: Adobe Illustrator 17.1.0, SVG Export Plug-In . SVG Version: 6.00 Build 0)  -->
<!DOCTYPE svg PUBLIC "-//W3C//DTD SVG 1.1//EN" "http://www.w3.org/Graphics/SVG/1.1/DTD/svg11.dtd">
<svg version="1.1" id="Layer_1" xmlns="http://www.w3.org/2000/svg" xmlns:xlink="http://www.w3.org/1999/xlink" x="0px" y="0px"
	 viewBox="90 0 612 612" enable-background="new 90 0 612 612" xml:space="preserve">
<g id="REF" display="none">
</g>
<path display="none" d="M582.4,283.1c4.2,12.9,8.9,25.2,12.5,38c7.1,25.4,10,51.4,11,77.6c0.1,2.9-1.3,3.8-3.4,4.9
	c-22.1,11.2-42.9,24.3-61,41.4c-22.1,20.8-37.9,45.3-43.5,75.6c-3.2,16.9-2.8,33.8,1,50.6c0.8,3.7,0.1,5.7-3.2,7.3
	c-8.6,4.4-17.2,9.1-26.6,14.2c-2.4-20.7-4.7-40.2-7-60.2c-8,0.9-15.5,1.8-23.4,2.8c2.4,21.5,4.9,42.6,7.5,64.6
	c-12.3,1.9-24.3,3.8-36.9,5.8c0-23.9,0-46.7,0-69.6c-8,0-15.5,0-23.5,0c0,23,0,45.9,0,69.8c-12.8-1.8-24.9-3.4-37.2-5.2
	c2.6-22.3,5-43.5,7.6-65.4c-7.7-0.9-15.2-1.8-23.4-2.8c-2.4,20.2-4.7,40.2-7.1,61c-5.4-2.4-10.7-4.6-15.8-7c-4.1-2-8-4.6-12.2-6.6
	c-2.9-1.5-3.3-3.4-2.8-6.4c5-26.4,2.8-52.2-7.6-77.1c-11.4-27.5-30.5-48.7-54-66.4c-13.7-10.3-28.5-18.9-44-26.2
	c-1.9-0.9-3.5-1.6-3.4-4.4c1.1-38.6,8.1-76,23.3-111.7c0.3-0.8,0.7-1.5,1.1-2.3c0.2-0.2,0.4-0.4,0.7-0.7c12,3.4,24,7,36.2,10.2
	c42.5,11.2,85.8,18.1,129.8,20.1c1.8,0.1,4,1.3,5,2.8c5.6,7.3,10.9,14.9,16.6,22.9c5.5-7.7,10.8-14.8,15.8-22.2
	c1.6-2.3,3.4-3.3,6.2-3.4c54.8-1.7,107.9-12,159.4-30.9C580.2,283.7,580.6,283.7,582.4,283.1z M423.4,389.2
	c13.3,9.4,27.4,16.1,42.5,20.9c20,6.2,40.2,9.3,60.9,4.7c17.2-3.7,30.5-12.6,35.7-30.6c3.8-13.3,1.8-26.4-2-39.3
	c-0.3-1-2.4-2.1-3.7-2.1c-8.6,0.2-17.4,0.4-26,1.3C490.7,348.4,455.9,365.1,423.4,389.2z M372.6,389.2
	c-14.3-10.8-28.9-19.7-44.5-27.1c-27.7-13.1-56.8-19.7-87.4-19.6c-3.5,0-5.4,0.9-6,4.6c-0.8,5.4-2.1,10.7-2.8,16.1
	c-3.1,25.2,9.8,44.3,34.3,50.8c19.4,5.1,38.6,3,57.7-2.1C341.2,407.2,357.4,399.9,372.6,389.2z M428.1,487.8
	c-8-28.5-17.6-55.8-32-82.1c-14.1,26.5-25.8,53-32,82.1C385.6,487.8,406.5,487.8,428.1,487.8z M462.4,2.8
	c-22.7,43.9-45.1,87.1-67.9,131c-22.8-44-45.1-87.1-67.9-131c-15,40.5-29.8,80.2-44.8,120.6c-30.4-40.3-60.4-79.9-90.3-119.3
	c-0.3,0.1-0.5,0.2-0.8,0.3c0,65.1,0,130.3,0,195.5c4.1,1.4,8.5,2.5,12.6,4.1c43.7,16.9,88.9,27,135.5,31.4c3.6,0.3,5.7-0.5,8-3.6
	c16.1-22.6,32.3-45.1,48.5-67.7c0.9-1.2,1.8-2.4,3-4c1.1,1.5,2.1,2.7,2.9,3.9c16.1,22.3,32.1,44.6,48,67c1.5,2.1,2.8,3,5.4,2.7
	c28.2-3.5,56-8.5,83.3-15.9c20.3-5.6,40.5-11.9,61.1-18.1c0.6-64.9,1.2-130.1,1.9-195.3c-0.4-0.1-0.7-0.1-1.1-0.2
	c-31.4,39.6-62.7,79-94.6,119.3C491,82.9,476.9,43.2,462.4,2.8z M435.5,290.7c9.5-1,18.9-1.8,28.4-3c41.8-5,82.2-15.5,121.3-31.2
	c8.3-3.4,15.9-7.9,21.3-15.1c2.4-3.2,4.2-7,5.3-10.8c1.3-4.7-0.7-7.2-5.6-7c-4.5,0.2-9.3,1-13.5,2.4c-42.8,14.5-86.6,25-131.6,30.6
	c-1.3,0.2-2.9,0.8-3.6,1.7c-7.7,10.3-15.1,20.8-22.6,31.3C435.1,289.9,435.2,290.3,435.5,290.7z M361.7,289.4
	c-6.9-9.6-13.6-19.1-20.7-28.6c-0.8-1.1-2.8-1.7-4.3-1.9c-23.6-3.8-47.4-6.9-70.9-11.5c-24.9-4.8-48.9-13.2-72.8-22
	c-4.5-1.7-9.9-2-14.7-1.6c-4.6,0.4-7.3,4.7-5.4,9c2.1,4.6,4.7,9.6,8.7,12.4c7,4.9,14.9,9,22.9,11.9c37.6,13.3,76.2,22.8,115.7,28.5
	c13.5,2,27.2,3.3,40.9,4.8C361.5,290.2,361.6,289.8,361.7,289.4z M399.8,298.9c11.1-15.5,22.2-31,33.4-46.4c1.7-2.3,0.8-3.7-0.5-5.4
	c-10.7-14.8-21.4-29.8-32.1-44.7c-0.7-0.9-1.5-1.8-2.4-3c-12.3,17.1-24.3,33.9-36.4,50.6c12.2,17.1,24.3,33.7,36.4,50.6
	C399,300,399.4,299.5,399.8,298.9z"/>
<g display="none">
	<path display="inline" d="M241.8,395.7l128.6-181.5c0,0,99.3-12.2,104.2-13c0,0,0.8,90.3,0.8,102.5L311,453.5L241.8,395.7z"/>
	<path display="inline" d="M237,327.4l114.8-162.7l172.5-17.1l4.1,175l-162,143.9l36.6,35.8l-21.2,21.2c0,0,32.5,27.7,62.7,27.7
		c30.1,0,197.1-107.2,211.6-261.2c13-139.2,4.3-178.2,4.3-178.2s-87.1,0-115.1-99.3H342.7c0,0-46,99.3-118.8,99.3
		c0,0-14.6,161.1,13,212.4"/>
	<polygon display="inline" points="201.9,450.3 158.9,404.7 184.9,380.3 334.6,509.6 308.6,535.7 266.3,501.5 197.9,567.4 
		203.6,576.4 180.8,603.2 109.2,538.9 132.8,517.8 142.6,522.6 	"/>
</g>
<path display="none" d="M306.4,426c7-2.1,13.4-3.6,19.4-6c6-2.4,11.9-5.4,17.1-9.2c6.9-4.9,7.8-12.2,3.3-19.4
	c-3.6-5.7-8.2-10.4-14.4-13.4c-18.3-8.8-34.5-20.5-49.3-34.3c-1-0.9-2-1.8-3.7-3.4c-8,7-16.1,13.9-24.6,21.3
	c4.7,4.2,8.9,8.1,13.2,11.6c2.3,1.8,2.4,3.2,1,5.7c-6.1,11.2-11.9,22.5-18.2,34.3c-44.5-43.1-79.1-92.6-103.7-148.9
	c-29.8-68.1-42-139.3-36.4-214.1c11.7,2.8,22.9,5.4,34,8c0,10.3,0,20.3,0,30.4c10.9,0,21.5,0,32.7,0c-0.3-6.7-0.7-13.5-0.9-20.1
	c-0.2-4.5-0.4-8.6-3.5-12.5c-2.8-3.3-2-8.3,2-11.3c5.4-4.2,11.2-8.3,17.4-10.9C208,27,225.2,24,242.4,21.4c45.1-7,90.4-9.3,135.9-10
	c39.9-0.6,79.6,0.4,119.3,3.6c32.5,2.7,64.9,6,96.3,15.5c7,2.1,13.5,5.4,20.1,8.6c2.8,1.3,5.1,3.6,7.3,5.8c4,4.2,3.8,8.5,0.5,13.2
	c-1.2,1.8-2.1,4.3-2.2,6.5c-0.3,7.9-0.1,15.7-0.1,23.9c9.8,0,20.3,0,31.3,0c0-9.6,0-19.1,0-29c11.2-3.3,22.6-6.6,34.6-10
	c3.7,68.7-5.7,134.9-29.8,198.9c-23.9,63.6-60.3,118.8-110.7,165.2c-7-12.8-13.8-25.1-20.4-37.3c5.4-5.5,10.5-10.8,16.1-16.5
	c-7.8-6.7-15.4-13.2-23.3-19.8c-2.6,2.4-4.9,4.4-7.2,6.5c-13.9,12.7-29.2,23.4-46.2,31.7c-6.5,3.1-11.2,8-14.8,14.1
	c-3.9,6.6-3.4,13.4,2.8,17.8c6,4.4,13,7.7,19.9,10.7c5.4,2.4,11.3,3.5,16.9,5.1c-6.1,2-12.3,3.5-18.1,6c-24.2,10.1-32,30.2-21,54.1
	c7.7,17,20.1,30.4,34.7,41.4c9.6,7.3,19.8,13.8,30.4,19.5c5.4,2.9,12.2,2.9,18.4,4.5c11.2,2.8,22.6,5.6,33.7,9c4,1.2,7.7,4,11,6.7
	c5,4.3,5.2,9.3-0.3,12.9c-5.9,3.9-12.4,7.4-19.1,9.6c-19.5,6.2-39.8,8.6-60.1,10.6c-38.4,3.9-77,5-115.6,4.5
	c-40.5-0.6-80.9-2.4-120.9-9.4c-10-1.8-19.9-4.4-29.5-7.4c-5.2-1.7-10.1-4.7-14.5-8c-5.1-3.9-5.3-8.8-0.2-12.5
	c5.1-3.8,10.9-7.4,17.1-9.1c12.4-3.5,25.1-5.7,37.7-8.4c2.1-0.5,4.4-0.5,6.3-1.5c23.3-11.7,43.8-26.8,59.2-48
	c5.7-7.7,9.9-16.2,12.1-25.6c3.9-17.5-3.6-32.3-20.7-40.8c-3.5-1.8-7.2-3.2-10.9-4.5C314.7,428,310.9,427.2,306.4,426z M403.6,77
	c0-0.3,0-0.7,0.1-1c44-0.2,87.9-2.1,131.6-8.3c16-2.3,32-4.9,47.1-10.7c2.8-1.1,7.2-1.6,6.6-5.4c-0.3-2-4-4-6.6-5
	c-16.3-6.4-33.5-9-50.7-11.3c-41.4-5.7-83-7.6-124.7-7.8c-20.1-0.1-40.2,0.5-60.3,1.1c-34.5,1.1-68.9,3.7-102.8,10
	c-11.6,2.1-22.7,6-34,9.5c-1.5,0.5-3.2,2.4-3.4,3.9c-0.2,1,1.9,2.9,3.4,3.5c4.5,1.9,9.1,3.7,13.8,5c26.5,7.1,53.6,10.3,80.8,12.1
	C337.4,74.5,370.4,75.5,403.6,77z M145.7,123.3c7.6,78.2,32.1,149.1,81.9,210.1c8.1-8.6,15.8-16.8,23.6-25.1
	c-39.6-54.6-60.6-117.7-70.6-185.1C168.9,123.3,157.5,123.3,145.7,123.3z M614.8,123.2c-10,67.5-31.1,130.4-71.1,185.7
	c7.6,7.2,15.1,14.2,22.8,21.6c48-61,75-130.1,82.8-207.4C637.5,123.2,626.3,123.2,614.8,123.2z"/>
<path display="none" d="M348.1,277.2h304.7c0,149-20.4,300.2-152.4,326.9C380.5,572.8,348.1,425.8,348.1,277.2L348.1,277.2z
	 M337.1,462.1V426c-23.4,6.3-47.2,10.9-71.1,13.2c0.1-145.7,3.1-282.6-31.3-418.5C201.9,160.6,200.1,293.5,200,440
	c-23.9-1.9-47.6-6.5-71-14.1v36.2h87.5c11,44.4,8.2,88.7-1.3,133.1h35.6c-9.1-44.4-10.4-88.7-1.1-133.1L337.1,462.1L337.1,462.1z
	 M491.4,80.7c-21.5-35.5-60.1-59.1-92.4-70.4c-34.5,11.2-68.5,35.5-91.7,70.4l0,0c22.3,60.7,22.3,72.5,0,133.3
	c25.2,19.6,51,31.4,77,34.8c-2.6-32.4-4.6-64.8,1.5-97.2c-17.3-1.9-29.6-7.6-46.9-17.6V93.2l0,0c45.4,24.2,78.3,23.8,125.2,0V134
	c-16.9,8.3-27.7,14.2-44.7,16.8c4.6,32.4,4.4,64.8,1.8,97.2c23.6-4.1,47.2-15.4,70.3-34C473.2,153.3,473.2,141.4,491.4,80.7z"/>
<path display="none" d="M360,598.3c-40.5-0.9-80.4-5-119.3-16.8c-5.2-1.5-10.3-3.5-15.3-5.4c-24.8-8.6-38.7-26.9-45.1-51.6
	c-5.4-21.2-5.6-42.8-2.1-64.1c12-75.5,45.4-140.2,100.4-193.4c23.7-22.9,51.2-39.9,83.6-48c29.8-7.4,59.1-5,87.4,6.5
	c15.8,6.3,27.5,18.1,38.1,31c21.8,26.5,36.8,56.8,48.3,88.8c13.9,38.7,22.3,78.5,21.6,119.8c-0.3,19-2.8,37.6-9.2,55.6
	c-9.4,26.3-26.5,45-53.2,54.8c-27.4,10-55.6,16.4-84.6,19.2C393.9,596.5,377,597.2,360,598.3z M533.9,127.7
	c21-15.4,42.8-29.8,64.1-44.9c14.4-10.2,16.6-22.3,5.6-35.9c-17.3-21.2-40.1-32.1-67.5-32.1c-9.3,0-17.8,3.1-22.7,11.6
	c-15.1,26.3-30.4,52.6-44.7,79.5c-7,13.2-11.5,27.5-16.8,40.6c12.9,6.1,24.6,11.7,36.3,17.3C503.2,151.9,518.2,139.2,533.9,127.7z
	 M484.1,30.1c-7.1-5.7-14.3-10.6-22.8-13.2c-10.6-3.3-19.7-0.8-27.4,7.1c-6.4,6.6-10.5,14.7-13.3,23.3c-9.7,29.7-8.6,59.6-1.5,89.6
	c1.8,7.5,1.8,7.5,10.5,6.7C440.8,102.4,462.4,66.3,484.1,30.1z M582.9,121.4c-25.6,17.5-50.9,35.3-74,56.1c-1.3,1.1-2.1,2.9-3.1,4.4
	c1.8-0.1,3.6,0.3,5.2-0.2c16.3-4.7,32.4-9.9,48.7-14.2c14.2-3.7,28.8-6.2,43.1-9.6c12.2-3,18.7-11.2,18.4-23.3
	c-0.2-11.6-4.8-21.7-11.5-31.6C600.6,109.3,591.7,115.4,582.9,121.4z M483.8,219.7c9.3-7,10.6-13.9,4-23c-2.4-3.4-5.4-6.4-8.5-9.1
	c-10.6-9-22.8-14.7-36.2-18.1c-9.1-2.3-18.3-3.3-27.6-1.5c-12.5,2.4-21.5,12.2-21.4,23.7C426.8,192.7,457.7,198.7,483.8,219.7z
	 M289.2,198.1c12.5-7.2,25.5-11.9,39.8-12.9c14.2-0.9,27.8,2.1,40.5,7c2.1-7.6,4.1-14.8,6.1-22.3c-33.7-12.9-66.3-10.5-98.3,8.3
	C281.4,185,285.2,191.4,289.2,198.1z M393.1,152.3c6-4.1,6.3-4.7,2-10.6c-0.5-0.7-1-1.3-1.5-2c-16.6-21.5-38.6-36.6-60.8-51.4
	c-0.2-0.2-0.5,0-1,0c-4.1,6-8.3,12.2-12.6,18.7c23.1,16.1,46.7,30.9,61.7,55.2C385.1,158.6,388.9,155.1,393.1,152.3z"/>
<path id="YOneTV.tif" display="none" d="M235.3,279.4c0-60.1,0-119.9,0-180.1c116.1,0,232.1,0,348.6,0c0,59.9,0,119.8,0,180.1
	C467.9,279.4,351.9,279.4,235.3,279.4z M572.2,424.2c-1.9-2.1-3.1-3.4-4.4-4.7c-31.9-32.7-56.5-70.1-70.5-113.9
	c-1.2-3.9-3.5-4.2-6.8-4.2c-51.6,0.1-103.3,0.1-154.9,0c-3.8,0-5.7,1.1-7,4.9c-14.1,41.4-37.3,77.3-66.2,109.8
	c-2.2,2.5-4.4,5-7.3,8.3C361.3,424.2,466.4,424.2,572.2,424.2z M201.9,448.1c0,17.7,0,35.2,0,52.7c138,0,275.6,0,413.5,0
	c0-17.7,0-35,0-52.7C477.2,448.1,339.7,448.1,201.9,448.1z M213.1,120.9c-37.9,0-75.3,0-113.6,0c21.9,54.4,58.6,92.6,113.6,113.8
	C213.1,196.1,213.1,158.5,213.1,120.9z M686,186.1c-22.7-23.4-47.9-42.2-80-50.7c0,36.7,0,72.5,0,109.2
	C637.7,231.2,662.6,210,686,186.1z"/>
<g display="none">
	<path display="inline" d="M405.1,512.5c25.3-14.8,50-31.1,74.4-50.3c-1.8-1.2-3.4-2-4.5-3.1c-50.3-50.9-101-101.5-150.8-153
		c-63-65-121.3-133.9-170.7-209.8c-16.7-25.6-31.5-52.5-47.2-78.8c-0.5-0.9-0.9-1.9-1.8-3.8c6.9,3.9,12.9,7.3,18.8,10.7
		c82,47.5,157.7,103.8,229.4,165.5c47,40.4,91.3,83.5,136.1,126.2c22.4,21.3,44.1,43.4,66.1,65.2c1.1,1.1,2,2.3,3.7,4.4
		c9.1-12.8,18.1-24.6,26.1-36.9c8.1-12.4,15.3-25.4,22.7-37.7c11.2,11.4,22.7,23,34.3,34.7c-27.6,27.6-56,56-84.4,84.4
		c32.9,54.5,78.9,94.9,130.8,128.7c-11.6,11.6-23,23-34.5,34.5c-1.6-2.4-3.4-4.9-5.1-7.5c-32.1-47-70.8-87.4-118.1-119.4
		c-5.3-3.5-5.2-3.6-9.6,0.8c-25.8,25.8-51.6,51.6-77.4,77.4c-1.1,1.1-1.8,2.5-2.5,3.6C428.4,535.9,416.9,524.3,405.1,512.5z
		 M265.3,185.3c82.5,82.5,165.2,165.1,248.2,248.1c4.7-5,9.8-10.3,14.5-15.3c-82.5-82.5-165.2-165.2-247.7-247.8
		C275.2,175.3,269.9,180.5,265.3,185.3z"/>
	<path display="inline" d="M139,593.4c-11.5-11.5-22.8-22.7-34.4-34.4c52-33.7,98-74.1,130.6-128.1c-28.5-28.5-56.8-56.8-84.7-84.7
		c12-12.1,23.6-23.7,35-35.2c7.3,12.2,14.5,25.1,22.5,37.4c8.1,12.4,17.1,24.2,26.2,37.2c22.8-23.6,44.8-46.4,67.3-69.6
		c11.2,11.6,21.2,21.9,31.2,32.2c-23.1,23.1-46,46-68.4,68.4c5.7,6.1,10.7,11.6,16.1,17.5c23-23,45.7-45.7,68.8-68.8
		c10.3,10.6,20.3,21,30.4,31.4c-21.9,22-43.5,43.9-65.4,66c23.3,18.4,48,34.7,73.4,49.5c-11.7,11.7-23.3,23.3-35.1,35.1
		c-0.8-0.8-2-1.8-3.1-3c-26.1-26.1-52.2-52.2-78.3-78.3c-2.8-2.8-4.4-2.8-7.5-0.6c-47.7,32.3-86.9,73.1-119.3,120.5
		c-1.5,2.3-3.1,4.6-4.7,6.9C139.5,593.1,139.2,593.3,139,593.4z"/>
	<path display="inline" d="M442.4,240.2c-9.9-9.4-19.1-18.1-28.8-27.1c84.8-75.7,174.6-143.7,274.1-198.7
		c-25.9,49.6-56.4,96.3-89.9,141.1c-33.7,44.9-70.2,87.4-108.5,128.9c-10.1-9.6-20-18.9-30.1-28.4c23.3-23.3,46.5-46.5,69.5-69.5
		c-5.9-5.9-11.2-11.1-16.3-16.3C489.4,193.2,466.1,216.6,442.4,240.2z"/>
</g>
<g>
	<path d="M690.9,303.6C690.8,466.4,559,598.2,396.4,598.2c-163,0-294.9-132-294.6-294.8C102.1,140.5,234,8.8,396.6,9.1
		C559.1,9.3,691,141.3,690.9,303.6z M659.9,365.9c13.2-50.7,11.2-122-22.8-186.9c-22.9-43.7-55.1-78.6-96.9-105.2
		c0,9.9,0,19.2,0,28.6c-17.1-5.2-34-10.3-51.4-15.6c1.5,14.6,2.9,28.7,4.3,43.1c-29.3-4.1-57.9-8-86.5-12.1
		c-1.7-0.2-3.5-1.5-4.8-2.8c-8.1-8.4-16.1-17-24.1-25.5c-7.2-7.6-7.2-7.6-16.4-2.7c-8.2,4.3-16.4,8.7-25,13.2
		c9.3,11.3,18.2,22.3,27.9,34.1c-2.3-0.7-3.4-1-4.4-1.3c-27.4-8.4-54.7-16.8-82.1-25.4c-2.5-0.8-4.3-0.5-6.4,1.2
		c-15.3,12.2-30.8,24.3-46.2,36.5c-1.5,1.2-3,2.3-5.2,3.9c1.6-18.7,3-36.5,4.6-55.3c-34.3,28.5-59.9,62.4-77.5,102.8
		c19.7,6.1,39,12,58.2,18c2.8,0.9,4.9,0.5,7.4-1c25.5-15.4,51-30.7,76.4-46.2c2.7-1.6,4.5-1.5,7,0.2c16.5,10.9,33,21.7,49.6,32.5
		c1.1,0.7,2.2,1.5,3.6,2.5c-28.1,16.1-55.8,32.1-84.1,48.3c10.7,6.6,20.8,13,31.4,19.6c-11.3,9.3-21.9,18.3-32.8,26.9
		c-4.1,3.3-6.9,6.9-7.9,12.1c-0.9,5-2.5,9.8-3.9,15c15.8,0.7,30.9,1.5,46.2,2.2c0.1,0.8,0.3,1.3,0.3,1.9
		c-1.1,15.7-2.1,31.4-3.4,47.1c-0.1,1-1.9,2.5-3,2.7c-21.2,3.7-42.5,7.1-63.7,10.9c-5.5,1-9.9,0-14.6-2.6
		c-10.9-6.1-22-11.8-33.3-17.8c-10.4,14.8-20.7,29.4-30.7,44c-0.7,1-0.2,3.1,0.4,4.5c18,39,43.9,71.8,77.4,98.6
		c0.9,0.7,1.8,1.2,3.6,2.4c-3.9-15.5-7.5-30-11.2-44.9c1.6,0.3,2.5,0.5,3.4,0.8c26,7.2,52,14.4,77.9,21.7c2.7,0.8,4.9,0.5,7.4-0.9
		c18.2-10,36.4-19.8,54.7-29.6c1.3-0.7,2.6-1.3,4.1-2c5.4,16.4,10.9,32.3,16,48.3c1,3.2,2.5,3.9,5.7,3.5c22-2.6,44-5.1,65.9-7.5
		c4.7-0.5,8.6-1.9,12.5-4.8c24-17.9,48.1-35.6,72.1-53.5c2.5-1.9,4.2-2.1,6.8-0.1c15.5,11.3,31.2,22.4,46.8,33.6
		c1.2,0.9,2.5,1.7,3.8,2.6c0.6-0.5,1.1-0.8,1.4-1.2c18.6-20.8,33.7-43.9,45-69.4c0.8-1.7,0.5-4.4-0.2-6.2
		c-7.8-19.9-15.8-39.8-23.8-59.6c-0.6-1.5-1.1-3-1.9-5.3C632.1,351.3,645.9,358.5,659.9,365.9z"/>
	<path d="M427.2,237.2c38.1-4.5,75.5-8.8,113.8-13.3c-4.5,14.5-8.8,28.5-13.1,42.7c4.6,2.4,9,4.7,13.4,7
		c12.7,6.6,25.4,13.3,38.2,19.7c2.6,1.3,3.2,2.8,2.8,5.5c-2.5,17.8-4.9,35.6-7.1,53.4c-0.3,2.2,0.1,4.8,0.8,6.9
		c6.1,16.8,12.4,33.6,18.7,50.4c0.5,1.3,0.8,2.6,1.6,5.1c-26.5-20.6-52.1-40.4-78.1-60.7c-4.8,11.9-9.5,23.5-14.4,35.5
		c-10.2-4.8-19.9-9.8-30-14c-5.1-2.1-6.8-4.8-7-10.4c-0.7-22.3-2.1-44.5-3.1-66.7c-0.2-4.6-1.4-8.5-4-12.4
		c-10.2-14.8-20-29.8-30-44.7C428.9,240.1,428.2,238.9,427.2,237.2z"/>
	<path d="M316,255c13.6-9.1,26.5-17.8,39.7-26.6c8.7,9.2,17.3,18.2,26.1,27.4c-5.8,5.1-12.2,10.9-18.7,16.5
		c-0.7,0.6-2.4,0.8-3.3,0.4C345.3,266.9,331.1,261.1,316,255z"/>
	<path d="M406.8,475.7c-8-22.4-15.6-43.8-23.4-65.9c16.2,4.2,31.9,8.3,48.1,12.5C423.4,440,415.3,457.4,406.8,475.7z"/>
</g>
<g display="none">
	<path display="inline" d="M251.3,270.6c-0.5,5.1-0.8,9.9-1.4,14.7c-0.1,0.7-1.3,1.6-2.2,1.8c-14.9,3.1-29.7,6.6-44,11.9
		c-11.1,4.1-22,8.7-31,16.7c-4.3,3.9-7.6,8.4-7.5,14.6c0.1,4.8,2.3,8.7,5.5,12.1c5.9,6.4,13.3,10.5,21.1,14.1
		c18.5,8.5,38.1,13.3,58,17.3c23.7,4.7,47.6,7.5,71.6,9.5c0.7,0.1,1.5,0,2.5,0c-0.9-12.7-1.9-25.2-2.8-37.9c-16.1,0-32,0-48.3,0
		c0.7-41.1,2.2-81.8,11.8-122.2c-2.5-0.3-5-0.6-7.5-0.8c-26.3-2.4-52.4-5.9-78.3-10.9c-28-5.5-55.7-12.2-81.9-23.9
		c-11.8-5.3-23.1-11.4-31.8-21.3c-8.9-10.2-9.2-21.7-0.5-32.1c2.7-3.2,5.9-6.2,9.3-8.7c11.5-8.8,24.7-14.5,38.2-19.5
		c25.5-9.3,51.8-15.2,78.4-19.9c29.1-5.1,58.4-8.3,87.8-10.6c1.2-0.1,2.4,0,4,0c0,4.4,0,8.8,0,13.3c-8.1,1-16.3,1.9-24.5,3.1
		c-27,3.8-53.7,8.8-79.2,18.7c-9.5,3.7-18.6,8.1-26.2,15c-9.3,8.5-9.7,18-1.1,27.2c1.5,1.6,3.1,3,4.8,4.3c10,7.5,21.5,12.1,33.3,16
		c23.8,7.9,48.4,12.5,73.3,15.8c3.5,0.5,7,0.7,10.4,1.4c2.5,0.5,3.4-0.4,4.5-2.4c6.1-11.9,14.3-22,26-28.8c7.4-4.3,15.6-5.5,23.8-7
		c4-0.8,7.9-1.5,12.2-2.3c-5-6.1-9.7-11.8-14.4-17.7c-10-12.6-15.5-27-17.1-43c-1.7-16.1,0.1-31.7,6.5-46.5
		c5.5-12.8,13.2-23.9,25.3-31.5c15.8-9.9,35.1-7.3,48.7,2.6c13.7,10,21.6,24,25.9,40.1c5.7,21.7,4.4,43-5.1,63.5
		c-4.6,10.1-12,18.3-18.7,26.9c-1.2,1.6-2.4,3.1-4,5.1c4.5,0.7,8.7,1.4,12.8,2.1c4.9,0.8,9.9,1.4,14.8,2.6
		c15.2,3.8,25.8,13.7,34,26.6c1.7,2.6,2.9,5.5,4.6,8.1c0.5,0.7,1.7,1.5,2.5,1.4c27.9-3.2,55.6-7.9,82.3-16.7
		c11.9-3.9,23.5-8.5,33.6-16c2.4-1.8,4.7-3.9,6.6-6.1c6.4-7.3,6.4-15.7,0.1-23.1c-6-7-13.9-11.3-22.1-15
		c-17.4-7.9-35.7-12.9-54.5-16.2c-18.6-3.3-37.4-5.6-56.1-8.2c-2.1-0.3-2.8-0.9-2.6-3.2c0.3-3.4,0.1-6.9,0.1-10.7
		c7.6,0.6,14.8,0.9,21.9,1.7c19.9,2.3,39.8,4.3,59.7,7.3c34.1,5.1,67.7,12.2,99.8,25c10.4,4.1,20.4,9,29.5,15.6
		c5.5,4,10.4,8.5,13.8,14.5c4.6,8.3,3.9,16.3-1.4,24c-4.6,6.8-11,11.7-17.9,15.9c-15.2,9.4-31.9,15.5-48.9,20.6
		c-27.5,8.3-55.5,13.8-83.9,17.7c-16.5,2.2-33,3.9-49.6,5.8c-0.4,0-0.7,0.2-1.4,0.3c8.2,40.3,8.7,81,8.7,122.1
		c-15.3,0-30.4,0-45.8,0c-0.8,12.7-1.7,25.2-2.5,38.1c5.3-0.4,10.5-0.6,15.6-1.3c20.4-2.9,40.8-5.4,61.1-9
		c20.3-3.6,40.1-9.2,58.7-18.5c6.4-3.2,12.4-6.9,17.2-12.3c7.2-7.9,7.2-16.7,0-24.6c-6.1-6.6-13.8-10.8-21.9-14.4
		c-17.8-8-36.6-12.6-55.6-16.4c-2.1-0.4-3-1.1-3-3.4c0-4.3-0.4-8.6-0.7-13.3c5.4,0.7,10.4,1.3,15.4,2c26.7,3.8,53.2,8.6,79.1,15.8
		c19,5.3,37.6,11.5,54.7,21.4c6.9,4,13.4,8.6,18.5,14.8c8.8,10.7,8.7,21.8-0.4,32.3c-6.8,7.9-15.5,13.2-24.6,17.9
		c-19.5,9.9-40.3,16.1-61.4,21.3c-26.9,6.6-54.2,11.4-81.7,14.3c-23.9,2.5-47.8,4.2-71.7,6.2c-0.4,0-0.7,0.1-1.4,0.2
		c-0.4,6.1-0.9,12.2-1.3,18.3c-1.5,22.1-2.9,44.1-4.4,66.2c-0.4,6.7-1,13.4-1.3,20.1c-0.1,2.1-0.9,2.9-2.7,3.1
		c-10.9,1.4-21.7,3.2-32.6,4c-20.1,1.4-40.3,0.6-60.1-3.4c-7.2-1.4-5.8,0-6.3-7.1c-1.8-24.1-3.6-48.3-5.4-72.4
		c-0.6-8.7-1.3-17.3-1.9-26c-0.1-0.8-0.2-1.7-0.3-2.8c-5.5-0.4-11-0.8-16.4-1.1c-27.4-1.6-54.6-4.4-81.8-8.5
		c-26.8-4-53.4-9.2-79.4-17.2c-18-5.5-35.7-11.8-51.4-22.6c-4.4-3-8.6-6.6-12.1-10.6c-9.6-10.9-9.2-22.6,0.5-33.3
		c6.6-7.3,14.9-12.5,23.6-17c19.2-9.8,39.7-16,60.5-21.3c26.3-6.6,53.1-11,80-14.4C250.2,270.6,250.5,270.6,251.3,270.6z"/>
	<path display="inline" d="M464.5,463.7c0.2-3.6,0.5-7.8,0.8-12.4c5.2,0.4,10.1,0.5,15.1,1.1c20.5,2.3,41,4.3,61.4,7.3
		c34.4,5,68.5,12.1,101,24.9c12.4,4.9,24.5,10.6,34.7,19.4c2.6,2.3,5.1,4.8,7.2,7.6c7.3,9.6,7.1,20-0.4,29.4
		c-6.8,8.6-15.9,14.2-25.4,19.1c-19.5,10-40.4,16.2-61.6,21.5c-28.3,7-57,11.6-85.9,14.9c-37.7,4.3-75.5,6.5-113.4,6.9
		c-35.3,0.4-70.5-0.7-105.7-3.4c-36.7-2.9-73.1-7.5-109.1-15.5c-24.4-5.4-48.4-12-71-22.9c-9.7-4.7-19-10.1-26.4-18.3
		c-5.9-6.5-9.3-13.8-7-22.8c1.6-5.9,5.3-10.6,9.7-14.7c8.9-8.2,19.4-13.7,30.4-18.5c22.3-9.7,45.6-15.9,69.3-20.9
		c28-5.9,56.4-10,84.9-12.7c10.2-1,20.3-1.8,30.9-2.8c0.3,4.2,0.7,8.2,0.8,12.2c0,0.4-1.2,1.2-1.9,1.3c-16.2,2.3-32.4,4.2-48.5,7
		c-22.7,4-45.1,9.5-66,19.8c-6.6,3.2-12.7,7.1-17.7,12.6c-6.9,7.7-6.9,16.5,0.1,24.1c7.6,8.2,17.4,12.9,27.5,17
		c20,8.1,40.9,12.8,62,16.5c32.3,5.6,64.8,8.3,97.6,9.3c29.6,0.9,59.2,0.3,88.7-1.9c34.3-2.6,68.2-7,101.4-16.4
		c14.1-4,28-8.7,40.3-16.9c3.4-2.3,6.7-5,9.5-8.1c6.7-7.2,6.6-15.8,0.1-23.2c-6.2-7.1-14.2-11.5-22.6-15.3
		c-16-7.2-32.8-12.1-50-15.3C505.1,470.1,485,467.1,464.5,463.7z"/>
</g>
<g display="none">
	<path display="inline" d="M157.5,335.3c5.4,7.7,10.3,15.3,15.8,22.3c16.2,20.9,35.4,38.4,58.9,50.9c10.5,5.6,21.5,9.9,33.6,10.5
		c17.3,0.8,27.7-9,27.9-26.4c0.2-21-7.4-39.2-20.5-55.3c-11-13.6-24.2-24.7-38.3-34.8c-17.7-12.7-35.7-24.9-53.4-37.6
		c-15.4-11.1-29.7-23.4-41.2-38.6c-19.1-25.2-23.6-53.2-16.3-83.6c2.8-11.8,7-23.2,12.1-34.2c0.3-0.7,0.7-1.3,1.4-2.6
		c0.7,3.2,1.1,5.8,1.8,8.4c7.6,31.2,24,56.5,50.7,74.7c9.2,6.3,19.3,10.8,30.7,11.1c14.1,0.4,23.6-6.8,27.3-20.4
		c2.7-10.1,2.2-20.3,0.8-30.5c-0.2-1.2-0.3-2.3,0-3.7c1.1,2,2.2,4.1,3.3,6.1c11.1,20.7,24.7,39.4,43.4,54
		c12.7,9.9,26.7,17,42.9,18.6c17,1.7,32.1-2.4,43-16.6c7.3-9.6,9.4-20.7,8.3-32.5c-1.9-20-11.3-36.8-23.1-52.5
		c-10.7-14.2-23.4-26.5-37-37.9c-0.7-0.6-1.3-1.2-2-1.8c-0.2-0.2-0.2-0.5-0.4-1.2c1.3,0.3,2.5,0.6,3.6,0.9
		c45.7,14.3,90.3,31.2,133.1,52.6c40.9,20.4,79.6,44.2,114.3,74.1c28.8,24.7,53.9,52.7,72.9,85.7c14.7,25.6,25,52.8,28.8,82.2
		c7,53.7-5.7,102.4-39,145.1c-32.7,42-76.1,66.8-128.4,75.8c-41.8,7.2-82.4,1.7-121.8-13.2c-32.7-12.4-61.9-30.6-88.8-52.8
		c-35.1-29-64.2-63.3-89.8-100.8c-20.4-29.9-38-61.3-53.7-93.8C158.1,336.9,157.9,336.2,157.5,335.3z M539.9,304.5
		c3,5.1,5.4,10.7,9,15.3c15.6,19.5,35.8,32.4,59.3,40.3c6.6,2.2,13.4,3.7,20.5,2.4c7.2-1.3,11.2-5.8,11.3-13.1c0-1.8,0-3.6-0.3-5.4
		c-2.1-11.4-6.8-21.9-13.3-31.3c-10-14.6-22.8-26.6-37.8-36c-45-28.1-93.2-34.6-144.2-20.3c-6.8,1.9-13.3,4.8-20.5,7.5
		c2.4,1.9,3.9,3.6,5.7,4.7c10.9,6.5,21.7,13.2,32.8,19.3c13.5,7.5,26.9,15,37.8,26.3c14.3,14.9,21.7,33,25.5,52.3
		c-6.3-2.7-12.6-6-19.2-8.2c-15.8-5.3-32.5-6.6-48.9-9c-13.5-2-26.9-4.1-39.7-8.9c-17.4-6.6-29.5-18.1-33.2-37
		c-0.8-3.8-1.1-7.7-1.7-11.7c-46.2,40.4-69.7,113.2-41.5,182.3c10.2,25,26,46.1,46.8,63.5c19.4,16.2,59.7,35.3,71,33.6
		c-25.5-17.6-31.6-56.7-31-76.6c3.7,5.7,7.2,11.6,11.1,17.2c8.4,12,17.9,22.9,31,30c19,10.3,37.7,5.1,48.5-13.6
		c6.4-11,8.6-23,8.5-35.5c-0.2-19.9-6-38.1-15.9-55.2c-13.7-23.8-33.2-42-56-56.9c-0.9-0.6-1.7-1.1-3.3-2.2c1.6-0.1,2.2-0.2,2.9-0.3
		c14.8-0.4,29.4,0.8,43.7,4.8c25.5,7.1,46.3,20.9,60.2,43.8c12.4,20.5,16.7,42.6,10.5,66.1c-1.7,6.5-5.1,12.6-7.6,18.5
		c6.6-4.3,13.3-9.5,19.2-15.6c15.7-16.1,20.7-34.8,13.6-56.4c-3.4-10.3-8.3-19.8-14-28.9c-9-14.3-18.4-28.3-27.3-42.7
		c-7.8-12.7-14.2-26-15.8-41.1C536.8,318.8,537.5,311.4,539.9,304.5z"/>
	<path display="inline" d="M207.4,10.9c2.9,0.9,5.9,1.6,8.7,2.6c17.4,6.6,32.2,17.3,45.7,29.7c8.8,8.1,16.9,16.9,22.4,27.7
		c1.8,3.6,3.3,7.5,4.2,11.4c2,9.2-1.5,16.1-9.7,20.6c-11.8,6.5-24.5,8.6-37.7,8.2c-26.3-0.8-50.4-9.5-73.4-21.6
		c-18.9-10-36.2-22.3-50.7-38.2c-8.2-9.1-15.3-18.9-18-31.1c-0.4-1.8-0.6-3.7-0.9-5.7c4.7,3.2,8.9,6.6,13.4,9.3
		c23.2,13.7,48,22.9,74.7,26.8c6.6,1,13.3,1.2,19.9-0.4c9.6-2.2,14-8.7,11-18.1c-1.9-6.2-5.4-11.8-8.3-17.7
		c-0.5-0.9-1.1-1.8-1.7-2.7C207.1,11.4,207.3,11.2,207.4,10.9z"/>
	<path display="inline" d="M358.7,369.1c11.2-0.8,21.5,1,31.5,4.7c31.1,11.5,56.7,30.2,75.3,57.8c4.5,6.6,7.8,13.9,8.7,22
		c1.9,17.6-10.4,29.5-27.8,26.2c-17.9-3.3-32.2-13-43.3-27.4c-1.5-1.9-2.4-4.2-3.9-7c3.9,1.5,6.9,2.8,9.9,3.8
		c1.4,0.5,2.9,0.7,4.4,0.7c3.4,0,5.4-1.7,5.1-5.1c-0.4-3.9-1-8-2.6-11.5c-10.4-22.6-25.3-41.7-44.9-57.1c-1.8-1.4-3.8-2.6-5.7-3.7
		C363.4,371.2,361.3,370.3,358.7,369.1z"/>
</g>
<g display="none">
	<path display="inline" d="M202.1,8.3c18.9,1.5,37.1,3,55.4,4.4c22.3,1.8,44.6,3.6,66.9,5.4c22,1.8,44,3.6,66,5.4
		c21.6,1.7,43.2,3.5,64.7,5.2c21.9,1.8,43.8,3.5,65.7,5.3c16,1.3,32,2.7,48,3.8c2.2,0.2,2.9,1.1,3.4,3c11.5,44.3,23,88.5,34.6,132.8
		c17.9,68.8,35.8,137.6,53.7,206.4c8.6,32.8,17.1,65.7,25.7,98.5c0.2,0.9,0.4,1.8,0.7,3.1c-6.7-0.5-13.3-1-19.9-1.5
		c-19.5-1.6-39-3.2-58.5-4.7c-22.3-1.8-44.6-3.6-66.9-5.4c-24.5-2-48.9-3.9-73.4-5.9c-21.9-1.8-43.8-3.6-65.7-5.3
		c-19.1-1.5-38.2-3.1-57.3-4.6c-7.8-0.6-15.7-1.2-23.5-1.9c-2.6-0.2-4.4-1.2-5.3-4.4c-22.1-85.3-44.4-170.6-66.6-256
		c-15.6-60.1-31.3-120.2-46.9-180.3C202.6,10.6,202.4,9.7,202.1,8.3z M234.8,34.7c0.3,1.3,0.4,2.1,0.6,2.9
		c8.6,33.1,17.1,66.1,25.7,99.2c14.7,56.7,29.3,113.4,44,170.1c10.2,39.4,20.4,78.7,30.5,118.1c0.6,2.4,1.6,3,4,3.1
		c8.6,0.5,17.1,1.3,25.7,2c24.5,2,48.9,4,73.4,5.9c21.9,1.8,43.8,3.5,65.7,5.2c22,1.8,44,3.6,66,5.4c22.3,1.8,44.6,3.6,66.9,5.4
		c6.1,0.5,12.3,1,18.7,1.5c-0.2-1.1-0.4-1.8-0.6-2.5c-3.9-14.8-7.8-29.6-11.8-44.4c-21.5-81-42.9-162-64.4-243
		c-8.7-32.8-17.4-65.6-26.1-98.4c-0.6-2.1-1.5-2.9-3.8-3c-8.2-0.5-16.3-1.4-24.5-2.1c-22.3-2-44.6-3.9-66.9-5.8
		c-22.8-2-45.6-3.9-68.4-5.9c-20-1.7-40-3.5-60.1-5.3c-22.8-2-45.6-4-68.4-5.9C252.6,36.3,243.9,35.5,234.8,34.7z"/>
	<path display="inline" d="M671.7,504c-11.6,5.9-22.2,12.6-30.6,23c5.7,5.5,11.3,10.8,17.3,16.6c-19.8,3.1-39,6.1-59.1,9.3
		c1.3,0.7,2,1.1,2.6,1.4c7.8,3.1,15.5,6.3,23.3,9.4c1.4,0.6,2.5,1,2.5,3c0.2,11.9,3.6,22.8,9.9,32.9c0.2,0.3,0.3,0.7,0.6,1.4
		c-5.6-0.4-10.9-0.8-16.2-1.3c-29.2-2.5-58.4-4.9-87.6-7.4c-33-2.8-66-5.7-99.1-8.5c-30.8-2.6-61.5-5.1-92.3-7.7
		c-24.4-2-48.7-4.2-73.1-6.2c-2.1-0.2-2.7-1.1-3.1-3c-2.6-12.9-0.4-25.1,4.4-37.1c9.1-22.8,24.2-40.3,45.5-52.4
		c1.7-0.9,3.9-1.5,5.8-1.4c19,1.4,38,3,57,4.5c19.5,1.6,39,3.2,58.5,4.7c22.1,1.8,44.2,3.6,66.3,5.3c22,1.8,44,3.5,66,5.3
		c22,1.8,44,3.6,66,5.4C648.2,502.1,660,503.1,671.7,504z"/>
	<path display="inline" d="M214.2,473.1c-2.4-8.6-4.6-16.6-6.8-24.5c-25.2-91.7-50.6-183.3-75.6-275c-1.2-4.5-0.5-9.9,0.4-14.7
		c5-28.3,16.4-53.8,34.9-75.8c6.5-7.7,14.1-14.3,23.1-19.5c2.6,9.9,5.1,19.6,7.7,29.3c20.6,79.2,41.2,158.4,61.8,237.6
		c6.6,25.5,13.3,51.1,20,76.6c0.4,1.6,0.7,2.7-1.3,3.7c-26.8,13.6-47.4,33.7-62.6,59.6C215.5,471,215.1,471.7,214.2,473.1z"/>
	<path display="inline" d="M286.3,432.3c1.9,7.1,3.7,14.1,5.6,21.2c0.9,3.6,3.1,7.6,2.2,10.7c-0.9,2.9-5.1,4.7-7.8,7.1
		c-19.7,16.9-34.4,37.1-41.2,62.5c-2.7,10.3-4.1,20.7-3.2,31.4c0,0.6,0,1.2-0.6,2.2c-0.5-0.6-1.3-1.2-1.5-1.9
		c-4.9-17.5-9.7-35.1-14.5-52.7c-0.3-1.2-0.1-2.7,0.2-3.9c9.6-33.1,28.4-59,58.8-76c0.4-0.2,0.7-0.4,1.1-0.5
		C285.6,432.4,285.8,432.4,286.3,432.3z"/>
	<path display="inline" d="M176.6,10.7c2.6,10.1,5.2,19.8,7.8,29.8c-32.5,18.5-52.9,47-66.5,80.8c-7.3-16.3-7.1-32.5,0-48.7
		c11.4-25.9,28.5-46.6,54-59.9C173.3,12.1,174.8,11.5,176.6,10.7z"/>
</g>
<g id="J3RTnl.tif" display="none">
	<g display="inline">
		<path d="M224,560.9c4-8.3,7.5-16.9,12.2-24.8c14.7-25.3,29.6-50.5,45-75.4c6.8-11,11.3-22.4,14.1-34.9c15.3-69.1,31-138,46.6-207
			c0.2-1.1,0.3-2.2,0.6-4.1c-1.7,1.2-2.9,1.9-4,2.8c-8.8,7-17.6,14-26.2,21.3c-2,1.7-3.8,4.5-4.4,7.1c-5.7,25-11.2,50.1-16.7,75.2
			c-2.1,9.8-7.1,17.3-17.2,19.9c-15.5,4-29.5-9.8-26-25.8c6.3-29.3,13.2-58.4,19.3-87.6c2.1-9.8,6.7-17.1,14.5-23.3
			c29.7-23.6,59.1-47.6,88.5-71.5c26.5-21.5,62.4-13.8,77.8,16.8c14.7,29.2,29.4,58.4,44.2,87.5c1.4,2.7,3.7,5.4,6.2,7.1
			c18.1,12.7,36.3,25.3,54.7,37.7c7.1,4.8,13.6,9.9,16.5,18.3c0,2.6,0,5.2,0,7.8c-4.8,18.7-23.1,23.4-38.7,11.7
			c-16.8-12.6-34.1-24.6-51.9-35.7c-13.6-8.5-23.9-19.1-29.7-34.2c-2.4-6.3-6-12.1-9.4-18.9c-0.7,1.7-1,2.4-1.2,3.1
			c-6.8,29.8-13.6,59.6-20.2,89.5c-0.5,2.1,0.6,5.1,2.1,6.8c26.4,31.4,53.1,62.6,79.3,94.2c3.8,4.5,6.7,10.6,7.9,16.4
			c7.8,39.1,15.2,78.2,22.4,117.4c2.2,11.7-0.3,22.8-9.7,30.7c-4.9,4.1-11.5,6.3-17.3,9.3c-3.3,0-6.5,0-9.8,0
			c-0.2-0.2-0.4-0.6-0.7-0.6c-15.7-3.5-24.2-13.8-27.2-29c-6.7-34.8-13.3-69.6-19.9-104.5c-0.8-4.3-2.2-7.8-5.3-11.1
			c-21-22.7-41.8-45.6-62.7-68.5c-0.9-1-2-1.9-3.4-3.3c-3.7,17.2-7.9,33.6-10.8,50.3c-3.3,18.7-10,35.7-20.1,51.8
			c-18.6,30-36.5,60.5-54.1,91.1c-6.7,11.7-14.8,20.8-28.5,23.9c-2.6,0-5.2,0-7.8,0c-6.7-1.8-13.2-3.8-18.6-8.7
			c-5.9-5.4-8.6-12.3-10.8-19.6C224,566.7,224,563.8,224,560.9z"/>
		<path d="M424.4,13.5c6.4,2.6,13.4,4.3,19.2,7.9c16.9,10.5,24.6,26.4,22.5,46c-2.2,19.6-13.3,33.5-32,40
			c-19.5,6.8-37.3,2.2-51.2-12.9c-13.1-14.2-16.5-31.1-9.6-49.4c6.1-16.1,17.8-26,34.5-30.1c1.4-0.3,2.7-1,4-1.5
			C415.9,13.5,420.1,13.5,424.4,13.5z"/>
	</g>
</g>
<g id="d238As.tif" display="none">
	<g display="inline">
		<path d="M79,389.5c1.3-3.9,2.1-8,4-11.7c6.1-12,16.1-18.3,29.6-18.3c39.2-0.1,78.4,0,117.6,0.2c3.6,0,6.1-0.9,8.4-3.7
			c57.7-67,115.4-134,173.2-201c0.9-1,1.7-2.1,2.6-3.3c-0.6-0.4-1-0.9-1.4-0.9c-14.3-0.1-28.7-0.4-43-0.1c-1.9,0-4.2,2-5.7,3.7
			c-25.6,29.4-51.1,59-76.7,88.5c-10,11.5-22.5,14.4-34.1,8.1c-14.4-7.8-18.1-27.1-7.4-39.5c29.5-34.1,59.2-68,88.7-102.1
			c6.7-7.7,14.6-11.4,24.9-11.3c40.4,0.2,80.8,0.2,121.2-0.1c11.8-0.1,21.3,4,29.6,12.3c24.4,24.7,49,49.1,73.6,73.7
			c1.5,1.5,2.6,3.2,4.2,5.3c2.1-1.9,3.5-3.1,4.8-4.4c19.9-19.9,40.4-39.3,59.6-59.8c16.5-17.7,44.2-9.2,47.5,12.6
			c0.1,0.7,0.5,1.3,0.8,1.9c0,2.1,0,4.1,0,6.2c-3.3,5.7-5.8,12.1-10.2,16.9c-9.9,11-20.7,21.2-31.2,31.8
			c-16.1,16.2-31.9,32.6-48.4,48.3c-14.4,13.8-30.3,13.1-44.3-0.9c-14.4-14.4-28.7-28.9-43.1-43.3c-1.3-1.3-2.6-2.5-4.3-4.1
			c-26.2,30.3-52,60.2-78.9,91.4c2,1.2,3.8,2,5.2,3.3c21.4,21.3,42.6,42.8,64.2,64c10.9,10.6,13.8,23.3,10.7,37.5
			c-13.4,60.9-27.2,121.7-40.7,182.6c-2.8,12.4-9,21.9-21.1,26.9c-2.8,1.2-5.8,1.9-8.8,2.9c-2.1,0-4.1,0-6.2,0
			c-0.8-0.3-1.6-0.8-2.4-0.9c-20.2-3.9-31.9-20.7-27.6-40.7c10.4-47.3,21.1-94.5,31.8-141.7c0.8-3.7,0.3-6.3-2.6-9.1
			c-24.8-23.8-49.4-47.8-74-71.8c-1.1-1.1-2.3-2-3.7-3.3c-1.8,1.9-3.5,3.7-5,5.4c-20.1,22.4-40.4,44.5-60.1,67.2
			c-10.4,12.1-23.4,17.3-38.7,17.4c-48.5,0.3-97.1,0.4-145.6,0.5c-2.1,0-4.1-0.2-6.2-0.4c-11.9-1.1-20.8-7-26.3-17.6
			c-2-3.9-3-8.3-4.5-12.5C79,393.7,79,391.6,79,389.5z"/>
		<path d="M553.8,7c2.8,0.8,5.6,1.5,8.3,2.4c21.3,6.6,34.3,21.1,37.5,42.9c3.1,20.5-5,37.2-21.4,49.5c-27,20.3-68.6,6.8-78.9-25.3
			c-10.1-31.7,7.9-61.9,40.9-68.4c0.8-0.2,1.5-0.7,2.2-1.1C546.2,7,550,7,553.8,7z"/>
	</g>
</g>
<g id="LChbv6.tif" display="none">
	<g display="inline">
		<path d="M337.8,246.5c-9.1-26.9-44.5-37.3-69.1-21.4c-9.7,6.3-16.6,14.8-20.1,25.8c-11,34.6-17.7,70.1-21.1,106.2
			c-2.8,29.3-3,58.5,0,87.8c2.3,23.1,6.3,45.9,13.3,68.2c7.9,25.6,32.1,41.9,59.2,40.6c25.4-1.2,47.7-20.2,53.5-45.3
			c0.7-3.2,2-6.4,3.9-9c19.7-27.6,39.6-55.1,59.5-82.6c1.7-2.4,3.9-4.4,6.5-7.3c6.7,7.1,13.5,13.7,19.5,20.9
			c23.4,28.2,41.6,59,50.2,95.1c4.9,20.9,26.9,33.3,47.6,27.9c21.3-5.5,34.2-26.9,28.3-48.3c-9.3-33.6-24.9-64.4-44.8-92.8
			c-11.5-16.4-24.7-31.5-37.3-47.1c-1.1-1.4-3.2-2.7-4.9-2.8c-32.8-1.3-64.3-8.7-95-19.6c-4.2-1.5-6.9-0.9-9.7,2.1
			c-13.2,14.3-26.5,28.5-39.8,42.8c-1,1.1-2,2.1-3,3.2c-0.6,0-1.2-0.1-1.8-0.1c0-10.4-0.3-20.9,0.1-31.3c0.4-12,1.4-24.1,1.8-36.1
			c0-1.5-1.9-3.6-3.4-4.6c-18-11.5-36.4-22.2-54-34.3c-13.9-9.6-17-28.6-8.5-42.8c10-16.7,31.8-21.1,48-9.7
			C323.9,236.8,330.9,241.7,337.8,246.5z"/>
		<path d="M267.7,144.2c0,42,34.1,76.3,76,76.4c42,0.2,76.5-34.4,76.5-76.5c0-41.8-34.6-76.2-76.3-76.1
			C301.9,68.1,267.7,102.4,267.7,144.2z"/>
		<path d="M478.1,358.8c17.2,0.4,30.4-11.2,31.5-26.8c1.2-16.4-9.6-30-26.3-31.4c-62.8-5.4-118.1-29.6-168.8-65.8
			c-13.2-9.4-31.1-6.7-40.7,6.1c-9.6,12.7-7.4,31.1,5.6,40.7c51.5,37.6,108.2,63.5,171.4,74c4.9,0.8,9.9,1.5,14.9,2.1
			C470.1,358.2,474.6,358.5,478.1,358.8z"/>
	</g>
</g>
<g display="none">
	<path display="inline" d="M324,13.8c50.1,0,100,0,150.2,0c0,82.9,0,165.7,0,248.7c-50,0-99.9,0-150.2,0
		C324,179.7,324,96.9,324,13.8z"/>
	<path display="inline" d="M401.9,510c-20.8,15.1-41.5,30-62.2,45c-0.2-0.1-0.4-0.2-0.6-0.3c7.8-24.3,15.7-48.7,23.6-73.2
		c-8.7-6.3-17.3-12.6-25.9-18.9c-19.6-14.3-39.1-28.6-58.8-42.8c-2-1.5-2.4-2.6-1.4-4.8c19.9-44.2,52.9-72.3,101-81.7
		c3-0.6,6-0.9,9.6-1.4c-9.7,29.7-19.2,58.9-28.9,88.4c7.3,2.4,14.5,4.8,21.9,7.2c2.9-8.9,5.8-17.6,8.6-26.3
		c7.3-22.4,14.7-44.9,21.9-67.4c0.6-1.8,1.3-2.3,3.1-2.2c30.4,2.9,56.7,14.6,79,35.4c14.7,13.7,26.1,29.8,33.7,48.5
		c0.9,2.2,0.4,3.3-1.4,4.6c-25,18.2-50,36.4-75,54.7c-0.7,0.5-1.4,1.1-2.5,1.8c4.5,6.2,8.9,12.2,13.6,18.6
		c24.2-17.6,48.2-35.2,72.7-53.1c3.4,21.7,2.5,42.7-3.8,63.4c-8,26.3-23.3,47.6-44.5,65.2C457.8,550.5,429.9,530.3,401.9,510z"/>
	<path display="inline" d="M300.4,262.6c-6,0-11.8,0.1-17.6-0.1c-0.8,0-1.9-0.6-2.4-1.3c-8.3-10.7-16.6-21.5-24.7-32.4
		c-0.9-1.2-1.2-3.1-1.2-4.7c-0.1-33.5,0-67.1,0-100.6c0-35.1,0-70.3,0-105.4c0-1.3,0-2.6,0-4.1c15.3,0,30.5,0,45.8,0
		C300.4,96.7,300.4,179.5,300.4,262.6z"/>
	<path display="inline" d="M497.6,262.6c0-83.2,0-165.9,0-248.8c14.1,0,28,0,42.4,0c0,1.1,0,2.1,0,3.2c0,69.2,0,138.3-0.1,207.5
		c0,1.6-0.6,3.5-1.6,4.8c-8,10.6-16.1,21.1-24.4,31.5c-0.7,0.9-2.2,1.6-3.4,1.7C506.4,262.8,502.1,262.6,497.6,262.6z"/>
	<path display="inline" d="M311.3,565.5c-18.6-17.1-31.8-37.2-38.8-61.1c-6-20.4-6.8-41.1-3.4-62.7c4.1,3,7.7,5.6,11.3,8.2
		c17.7,12.9,35.5,25.9,53.2,38.8c1.2,0.9,2.3,1.6,1.6,3.5c-7.8,23.9-15.5,47.7-23.2,71.6C311.8,564.3,311.6,564.6,311.3,565.5z"/>
	<path display="inline" d="M296.1,307.9c0-7.3,0-14.5,0-21.9c67.3,0,134.6,0,202.1,0c0,7.3,0,14.5,0,21.9
		C430.7,307.9,363.5,307.9,296.1,307.9z"/>
	<path display="inline" d="M465.6,584.7c-42.7,20.7-84.7,20.8-127.5,0.2c1.3-1,2-1.6,2.7-2.1c19.5-14.2,39.1-28.3,58.6-42.5
		c1.9-1.4,3.1-1.6,5.1-0.1c19.2,14.1,38.6,28,57.9,42C463.2,582.9,464,583.6,465.6,584.7z"/>
</g>
<g display="none">
	<path display="inline" d="M339.1,453.8c-0.6-0.4-1.4-0.9-2-1.5c-17.5-17.6-35-35.1-52.6-52.7c-20.1-20.2-40.2-40.4-60.5-60.3
		c-3.6-3.5-4.5-6.5-3.1-11.5c14-51.4,27.7-102.9,41.5-154.4c0.5-1.7,1-2.8,3.1-3.4c52.8-14.1,105.6-28.4,158.4-42.7
		c1.8-0.5,3-0.3,4.4,1.1c26.4,26.6,53,53.1,79.5,79.7c12.1,12.1,24.1,24.2,36.2,36.3c1.5,1.4,1.8,2.7,1.3,4.6
		c-14.2,52.6-28.3,105.2-42.3,157.9c-0.6,2.3-1.7,3.3-4,3.9c-52.4,14-104.9,28.1-157.3,42.3C340.8,453.2,340.2,453.4,339.1,453.8z
		 M267.5,235c3.8-3.4,6.8-6.3,10.1-9.1c22.8-19.4,48.9-31.4,79.1-32.5c39.3-1.4,72.7,12.4,98.6,42c25.1,28.7,32.8,62,22.7,99
		c-6.3,23-19,42.3-35.1,59.7c-4.2,4.5-8.8,8.8-13.6,13.5c1.1-0.1,1.5-0.1,1.8-0.2c16.8-4.5,33.7-9.1,50.5-13.5
		c1.9-0.5,2.3-1.6,2.6-3.1C496.2,346,508,301.1,520,256.2c0.5-1.9,0.1-3.1-1.3-4.4c-4.8-4.6-9.4-9.4-14.1-14.1
		c-27.8-28-55.7-56-83.5-84c-1.5-1.5-2.7-1.8-4.7-1.2c-19.6,5.3-39.2,10.6-58.8,15.9c-25.1,6.7-50.1,13.5-75.2,20.3
		c-1.3,0.3-3,1.3-3.3,2.3C275.2,205.3,271.5,219.8,267.5,235z"/>
	<path display="inline" d="M597.6,523.2c-90.6,24.2-180.9,48.3-271.8,72.6c0.8-4.4,1.4-8.5,2.2-12.5c6.3-35,12.6-70,18.8-105.1
		c0.4-2.4,1.5-3.2,3.7-3.8c51.5-13.8,102.9-27.7,154.4-41.5c1.9-0.5,3.2-0.3,4.7,1.2c7.7,8,15.6,15.9,23.4,23.7
		c21,21.1,41.9,42.2,62.9,63.4C596.3,521.7,596.8,522.3,597.6,523.2z M530.9,484.8c-2.9,4.5-5.4,9.1-8.6,13.2
		c-6.7,8.5-15.5,14.4-24.7,19.7c-21.6,12.6-44.6,22.3-67.5,32.3c-2.7,1.2-5.4,2.4-8,3.6c0.1,0.1,0.1,0.2,0.2,0.4
		c45.8-13,91.7-26,137.9-39.2C550,504.4,540.3,494.5,530.9,484.8z"/>
	<path display="inline" d="M682,241.1c-23.5,87.8-47,175.2-70.5,263.3c-2.3-2.3-4.3-4.2-6.3-6.2c-14.4-14.6-28.9-29.2-43.3-43.8
		c-11.9-12-23.9-24.1-35.9-36c-1.6-1.5-1.8-2.9-1.3-5c14.2-53,28.4-106,42.6-159c0.6-2.2,1.6-2.9,3.8-3.1c16-1.4,32-2.9,48-4.4
		c18.4-1.7,36.7-3.4,55.1-5.1C676.5,241.6,678.9,241.4,682,241.1z M587.4,263.8c2.3,1.7,3.9,2.8,5.5,4
		c15.8,11.4,26.8,26.2,31.3,45.5c2.5,11,3.8,22.1,3.6,33.3c-0.3,17-1.2,34-1.9,50.3c11.5-45.6,23.2-92,35-138.8
		C636.3,260,612.3,261.8,587.4,263.8z"/>
	<path display="inline" d="M106.1,392.3c32.5-13,65.8-26.2,99.6-39.7c0.5,0.7,1.1,1.6,1.8,2.2c38.3,38.3,76.5,76.7,114.9,115
		c1.7,1.7,2.2,3.2,1.8,5.5c-6.7,37.4-13.4,74.9-20.1,112.3c-0.2,0.9-0.4,1.7-0.6,2.9C237.5,524.4,171.8,458.3,106.1,392.3z
		 M208.3,380.3c-0.1,0.1-0.3,0.2-0.4,0.4c0.7,1,1.5,2.1,2.2,3.1c18.4,25.5,36.2,51.4,51.1,79.1c13.1,24.2,23.5,49.3,28.7,76.5
		c0.8,4.1,1.4,8.2,2.1,12.3c0.5-1,0.5-1.8,0.7-2.7c2.7-21.9,5.3-43.9,8.1-65.8c0.4-3.2-0.1-5.5-2.5-7.9
		c-21.2-22.1-42.2-44.4-63.3-66.6C226.2,399.2,217.3,389.8,208.3,380.3z"/>
	<path display="inline" d="M171.8,99.6c13.3,11.7,26.2,23,39.1,34.3c9.6,8.4,19.2,16.9,28.9,25.3c1.5,1.3,2,2.5,1.5,4.6
		c-14.9,55.2-29.6,110.4-44.5,165.5c-0.3,1.2-1.4,2.7-2.5,3.2c-31.2,12.6-62.5,25-93.8,37.4c-0.2,0.1-0.4,0.1-1.1,0.1
		C123.5,279.9,147.6,190,171.8,99.6z M137,335.6c-0.1-0.1-0.3-0.2-0.4-0.3c0.4-0.1,0.9-0.2,1.3-0.4c14.1-5.7,28.3-11.4,42.4-17.3
		c1.1-0.4,2.1-2,2.4-3.2c12-46.9,23.8-93.9,35.8-140.8c0.5-1.9,0.1-3.1-1.3-4.4c-5.9-5.3-11.6-10.8-17.5-16.2
		c-6.2-5.7-12.4-11.5-18.8-17.4c2.5,4.8,5.2,9.2,7.2,13.9c6.5,15,8.6,30.9,8.8,47c0.3,21.5-2.9,42.5-9.3,63
		c-6.7,21.4-16.2,41.4-31.5,58.1C150.4,324.1,143.5,329.6,137,335.6z"/>
	<path display="inline" d="M189.9,84.9c90.4-24.1,180.4-48.2,271-72.4c-2.5,7.2-4.8,13.8-7.2,20.3C445.9,55,438,77.1,430.3,99.3
		c-0.8,2.2-1.9,3-4,3.6c-54.1,14.5-108.1,29.1-162.1,43.7c-2.2,0.6-3.7,0.3-5.5-1.2c-21.7-19.1-43.4-38.1-65.1-57.1
		C192.4,87.3,191.4,86.2,189.9,84.9z M294.4,71.3c17.3-2.3,34.6-4.9,52-6.9c16.5-1.9,33-3,49.5-0.9c9.5,1.2,19.5,2.2,24.5,13.2
		c3.4-13.4,6.7-26.4,10.1-39.8C384.6,48.5,339.4,59.9,294.4,71.3z"/>
	<path display="inline" d="M481.8,22.3c65.3,65.6,130.3,130.8,195.2,196c-0.7,0.1-2.2,0.4-3.7,0.5c-23,2.1-46,4.2-69,6.4
		c-13.5,1.2-27,2.5-40.6,3.8c-1.9,0.2-3.3-0.3-4.7-1.7c-32.8-32.9-65.6-65.7-98.4-98.6c-3.4-3.4-6.6-6.9-10.1-10.1
		c-1.6-1.5-1.9-2.8-1.2-4.9c9.8-27.6,19.6-55.2,29.4-82.9C479.7,28.1,480.7,25.4,481.8,22.3z M496,58.2c0.4,0.6,0.7,1,1,1.5
		c15.5,19.4,30.2,39.3,43.6,60.2c11.4,17.7,22.3,35.7,29.7,55.4c4.9,12.9,9.4,26,2.7,40.2c23.9-3.1,47.5-6.1,71.1-9.1
		C594.7,156.9,545.4,107.6,496,58.2z"/>
</g>
<g display="none">
	<path display="inline" d="M700.7,265.8c0.1,1.7,0.2,3,0.2,4.4c0,78.3,0,156.7,0.1,235c0,3.3-1.1,4.7-4,6
		c-72.1,30.4-144.1,60.8-216.1,91.2c-1.2,0.5-2.5,1-4.2,1.6c-0.1-1.7-0.2-2.9-0.2-4.2c0-78.5,0-156.9-0.1-235.4c0-3,0.9-4.5,3.8-5.8
		c72.3-30.4,144.6-61,216.8-91.5C698,266.6,699.2,266.3,700.7,265.8z"/>
	<path display="inline" d="M166.7,235.3c0.5-14.6,2.6-28.7,6.6-42.4C188.5,141,216.2,97.4,259.1,64c17.4-13.6,36.9-23.7,58.8-28
		c10.4-2,20.6-1.4,30.8,2c54,18.2,108,36.2,162,54.3c1.5,0.5,3,1.1,3.5,1.3c-12.2,7-25.3,13.3-37.1,21.6
		c-41.6,29.4-70.9,68.8-90.6,115.6c-9.3,22.1-15.5,45-17.6,69c-0.1,1.2-0.4,2.4-0.6,4C301.1,281,234.1,258.2,166.7,235.3z"/>
	<path display="inline" d="M330.7,470.2c0-51.2,0-102.1,0-153.4c1.7,0.4,3,0.7,4.3,1.1c10,3.4,19.9,6.9,30,10.1
		c2.4,0.8,3.4,1.9,3.4,4.6c-0.1,79.3-0.1,158.6-0.1,237.9c0,0.7-0.1,1.4-0.1,2.6c-8.4-2.9-16.7-5.7-24.9-8.6
		c-57.4-20-114.8-40-172.3-59.9c-3.3-1.1-4.3-2.6-4.3-6c0.1-77.7,0.1-155.3,0.1-233c0-1.5,0-3,0-5c11.1,3.8,21.7,7.3,32.2,11.1
		c0.8,0.3,1.5,2.4,1.5,3.6c0.1,12.1,0.1,24.1,0.1,36.2c0,37,0,74.1,0,111.1c0,2.4,0.2,3.9,3,4.8c41.8,14,83.6,28.1,125.3,42.2
		C329.1,470,329.6,470,330.7,470.2z"/>
	<path display="inline" d="M475.6,334.4c1.2-8.4,1.7-15.9,3.3-23.2c13.2-58.8,42.8-107.5,90.6-144.5c16.6-12.9,35.1-22.4,55.9-26.7
		c30.1-6.1,52.9,6.3,64.6,34.6c8.2,19.8,10.5,40.7,11.1,61.9c0.1,2.5-1.2,3.2-3.1,4c-66.3,28-132.7,56-199,84
		C491.6,327.6,484.2,330.8,475.6,334.4z"/>
	<path display="inline" d="M600.5,122.3c-18.8,7.1-35,16.5-49.7,28.4c-44,35.5-73.9,80.6-89.9,134.6c-4.3,14.3-5.9,29.5-8.7,44.3
		c-0.1,0.7-0.3,1.3-0.5,2.6c-19.8-6.7-39.5-13.4-60.2-20.5c1.8-11.7,2.8-23.6,5.4-35.1c10.4-44.7,32.5-83.2,64-116.4
		c18.8-19.7,40.6-35.1,66.3-44.6c11.3-4.2,22.9-6.5,35.1-5.3c1.1,0.1,2.2,0.2,3.2,0.5C576.8,114.5,588.1,118.2,600.5,122.3z"/>
	<path display="inline" d="M452,602.3c-13.4-4.7-26.6-9.2-39.8-13.8c-5.3-1.8-10.5-3.9-15.9-5.5c-3.2-0.9-4.2-2.4-4.2-5.7
		c0.1-52.8,0.1-105.6,0.1-158.4c0-25.5,0-51,0-76.5c0-1.5,0-3,0-5c6.7,2.3,13,4.5,19.3,6.6c12.6,4.3,25.1,8.5,37.7,12.7
		c2,0.7,3.1,1.4,3.1,3.9c-0.1,80.1-0.1,160.2-0.1,240.2C452.3,601.2,452.2,601.5,452,602.3z"/>
	<path display="inline" d="M289.5,18.3c-10.9,6-22.3,11.3-32.6,18.1c-36.7,24.1-64,56.7-84.6,95.2c-14.4,26.9-24.2,55.4-28.2,85.8
		c-0.2,1.6-0.3,3.3-0.5,4.9c-0.2,1.5-0.4,2.9-0.7,4.8c-1.5-0.5-2.8-0.8-4-1.2c-15.4-5.2-30.8-10.5-46.3-15.6c-2.8-0.9-3.5-2.1-3.4-5
		c1.5-25.8,8.3-50.2,19-73.5c16-35,37.8-65.8,67.8-90.2c18.1-14.8,38-26.5,61.4-30.9c12.1-2.3,24.1-2.8,35.9,2.2
		C278.7,15,284.4,16.5,289.5,18.3z"/>
	<path display="inline" d="M142.3,494.6c-9.3-3.2-18.2-6.4-27.1-9.5c-7.6-2.7-15.2-5.4-22.9-7.8c-2.7-0.9-3.8-2.2-3.5-5
		c0.2-1.6,0-3.3,0-4.9c0-75.7,0-151.4,0-227.1c0-1.8,0-3.5,0-6c4.7,1.6,8.8,3,12.9,4.4c12.6,4.3,25.1,8.5,37.7,12.8
		c2,0.7,3.2,1.4,3.2,3.9c-0.1,79.1-0.1,158.3-0.1,237.4C142.7,493.2,142.5,493.6,142.3,494.6z"/>
	<path display="inline" d="M306.5,308.3c0,43,0,85.5,0,128.6c-4.7-1.6-9.1-3-13.4-4.5c-21.8-7.4-43.6-14.7-65.4-22
		c-2.3-0.8-3.3-1.6-3.3-4.2c0.1-41,0.1-82,0.1-123c0-0.7,0.1-1.3,0.2-2.6C252.1,289.8,279.2,299,306.5,308.3z M276.6,396.1
		c0-11.3-0.1-22.1,0.1-32.9c0-1.9,1.1-4.2,2.5-5.4c7.4-6.7,10.2-16.3,6.8-25.3c-3.3-8.9-11.7-14.9-21.1-14.9
		c-9.1-0.1-17.5,5.5-21,13.9c-3.7,8.8-1.7,18.7,5.5,25.2c2.3,2,3.1,4.1,3,7c-0.2,7.4-0.1,14.8-0.1,22.2c0,3.4,0,6.7,0,10.2
		C260.7,396.1,268.4,396.1,276.6,396.1z"/>
</g>
<g display="none">
	<path display="inline" d="M257.7,603.8c-20.2-0.1-39.6-4.5-58.2-12.1c-2.3-1-4-0.9-6.3,0.4c-18.8,10.4-37.6,9.9-55.5-1.7
		c-17.4-11.3-24.7-28.2-23.8-48.8c0.2-3.7,1.2-7.4,2.3-10.9c0.9-2.6,0.4-4.5-1-6.6c-11-16.3-18.8-33.9-21.8-53.5
		c-6.7-44.4,17.8-79.8,61.9-89.1c25.9-5.5,51.2-2.1,75.7,7c5.1,1.9,9.5,5.9,14.1,9.1c20.8,14.4,41.5,29,62.3,43.4
		c7.9,5.4,12.7,13.4,17.6,21.1c13.3,20.9,21.3,43.4,20.4,68.5c-1.3,32.3-23,59.7-55.3,68.5c-10.5,2.9-21.5,3.9-32.2,5.8
		C257.8,604.6,257.8,604.2,257.7,603.8z M167,516.5c-16.8,0-29.8,12.9-29.8,29.7c0,16.7,13.2,29.8,29.9,29.7
		c16.5,0,29.5-13.1,29.6-29.6C196.7,529.5,183.8,516.6,167,516.5z"/>
	<path display="inline" d="M561.5,33.7c-73,107.9-145.7,215.4-218.6,323.1c-14.5-10.1-28.5-19.9-42.6-29.7
		C373.7,220,447,113,520.6,5.7C534.1,15,547.5,24.1,561.5,33.7z"/>
	<path display="inline" d="M547.7,95.8c8.7,3.8,16.7,8,25.1,11c22.7,7.9,41.5,2.2,56.5-16.5c1.6-2,3.1-4,4.9-6.2
		c18,12.3,35.9,24.6,54,37c-7.2,10.6-14.3,20.9-21.5,31.4c-10.2-6.4-20.2-12.6-30.5-18.9c-4.3,6.9-8.5,13.5-12.8,20.3
		c-6.3-3.9-12.4-7.7-18.8-11.6c-4.6,7.5-9.2,14.7-13.9,22.3c15.9,9.9,31.5,19.6,47.5,29.6c-7.6,11.1-15,21.9-22.6,33
		c-6.3-3.9-12.4-7.6-18.3-11.5c-1-0.6-1.7-2.3-1.8-3.6c-1.2-12.1-9.2-21.7-20.6-24.3c-11.6-2.7-23.5,2.2-29.4,12.3
		c-6.1,10.3-5,22.9,2.8,31.8c7.8,8.9,20,11.5,31.2,7c1.5-0.6,3.9-0.4,5.3,0.4c5.2,2.9,10.3,6.2,15.9,9.7
		c-12.1,17.7-24.1,35.2-36.4,53.1c-18.1-12.4-36-24.7-53.4-36.6c2.8-6.6,6.1-12.7,7.9-19.2c3.6-13.2,0.1-25.4-8.4-35.8
		c-6.9-8.4-15-15.9-23-24.3C507.2,156.5,527.5,126,547.7,95.8z"/>
	<path display="inline" d="M360.1,405.2c0,9.4-9.8,22.3-18.9,24.8c-3.8,1-7.3,0.8-10.7-1.6c-32.4-22.6-64.7-45.2-97.2-67.8
		c-5.3-3.7-7-8.9-6-14.7c1.5-9.1,6.5-16.1,14.6-20.5c5.9-3.2,11.6-2.4,17.3,1.7c26.2,18.5,52.6,36.8,79,55.2
		c5.3,3.7,10.4,7.5,15.8,11C358.5,396.1,360.2,400.2,360.1,405.2z"/>
</g>
<g id="Hr2qo7_1_" display="none">
	<g display="inline">
		<path d="M601.3,602c-12.1-4.5-20.6-12.1-21-25.9c-0.3-10.7,6.3-19.5,15.8-21.7c9.1-2.1,17,2.6,21.9,12.9c1.3-5.7,0.5-8.7-4.1-14.9
			c-8.3-11.1-19.9-17.8-32.2-23.5c-22.1-10.3-45.6-16-69.6-18.4c-45-4.4-90.1-7.4-135.1-11.6c-35.5-3.3-71.1-6.7-105.7-16
			c-11.2-3-21.1-8.3-26-17.8c4.1-7.4,10.6-13.9,10.7-20.5c0.1-6.5-6.3-13.1-10.2-20.4c7.4-6.2,15.6-13.1,24-20.2
			c6.4,5.7,12.5,11.2,18.7,16.5c16.2,13.8,36,19.1,56.2,22.3c36.1,5.6,72.3,9.8,108.4,15.2c47.2,7,93.1,18,134.6,42.8
			c6,3.6,11.5,7.8,18.4,12.4c-2-12.1-3.8-23.1-5.6-34.1c-6.8-41.7-13.7-83.4-20.5-125.1c-7.7-46.8-15.4-93.6-23.1-140.4
			c-2.1-12.6-3.8-25.3-6.3-37.8c-1.1-5.8,0.9-8.9,6.4-11.4c2,11.5,3.9,22.6,5.7,33.7c8.3,50.3,16.5,100.5,24.7,150.8
			c9.1,55.5,18.2,111.1,27.5,166.6c0.5,3.2,3.1,6.6,5.6,8.8c18.1,15.6,23.1,34.9,17.4,57.5c-3,12.2-11.9,17.7-23.2,20.3
			C610.4,602,605.9,602,601.3,602z"/>
		<path d="M99,35.2c5.4-16.7,18.7-21.9,34.3-23.7c18.9-2.2,35.3,4,50.3,15.2c2.6,1.9,5.5,3.8,8.5,4.7
			c103,29.8,206.1,59.5,309.2,89.2c5.9,1.7,11.8,3.5,18.2,5.3c-3.1,4.9-6.3,6.9-12.3,5.1c-87.8-25.6-175.6-50.9-263.5-76.2
			c-14.2-4.1-28.4-8-42.6-12c20,41.3,22.1,85.2,19.2,129.4c-1.5,21.9-6.1,43.7-11.2,65.1c-10.6,43.8-1.9,83.5,23.3,120
			c3.9,5.6,3.2,8.5-2.1,12.2c-6.2,4.4-11.7,9.9-17.7,14.5c-1.4,1.1-4.4,1.5-5.8,0.8c-6.2-3.2-11.9-2.1-17.7,0.8
			c-8.7,4.3-12.9,3.2-18-5c-11-17.7-14.3-37.3-12.8-57.6c3.2-45.2,11.3-89.5,21.7-133.6c7.4-31.5,10.6-63.4,7-95.8
			c-2.8-25.1-14.8-43.8-37-55.8c-3.8-2.1-8.5-2.9-12.9-3.4c-2.5-0.2-5.1,1.6-8.6,2.8c5,1.7,9.5,2,12,4.5c2.5,2.4,3.7,6.8,4.2,10.6
			c1.3,10.1-3.3,17.3-12.3,20.3c-10.5,3.5-22.5,0.1-26.8-8.2c-2.7-5.2-4.4-11.1-6.5-16.6C99,43.4,99,39.3,99,35.2z"/>
		<path d="M677,68.7c-27.6,21.4-55.2,42.7-82.7,64.2c-3.3,2.6-6.3,4.1-9.9,1.5c-10.8-7.7-18.5-4-28.1,4.1
			c-101,85.3-202.5,170-303.8,254.9c-16.8,14-33.6,28.1-50.9,42.5c5.6,6.3,11,12.4,17.3,19.5c-24.1,5.4-47.1,10.6-72,16.1
			c10.7-22.3,20.7-43.1,31.1-65c5.3,6.6,10,12.5,15.2,19c5.5-4.5,10.8-8.9,16.2-13.3c83.9-70.3,167.8-140.6,251.8-210.9
			c31.3-26.3,62.6-52.6,94.1-78.7c3.6-3,4.8-6.1,3.1-10.1c-5.6-13.6-1.2-23.2,9.2-33.3c21.2-20.6,40.8-42.7,61-64.2
			c0.6-0.7,1.5-1.2,3.2-2.5c-1.2,17.9-2.3,34.7-3.5,52.1c16.5,0.6,32.5,1.1,48.5,1.7C677,67,677,67.8,677,68.7z"/>
	</g>
</g>
<g id="IDZXXl_1_" display="none">
	<g display="inline">
		<path d="M121.6,9.8c12,3.7,18.9,5.7,28.5,9.1c99.2,34.6,97.7,36.7,169.4,112.9c66,70.1,132.5,139.7,198.8,209.5
			c3.6,3.8,7,7.6,9.8,10.6c-24.7,24.7-48.9,48.9-74.3,74.3c-17.3-16.3-36.3-34-55.1-51.9C323.4,302.8,248,231.4,173.1,159.6
			c-7.2-6.9-13.1-16.2-16.8-25.5c-16.9-41.9-32.8-84.2-49-126.3C111.9,7.7,116.3,8.5,121.6,9.8z"/>
		<path d="M423.1,505.9c46.1-76.8,107.7-138.5,186.8-186c7.3,8.6,16.1,18.9,26,30.5c-20.9,19.9-43.5,41.5-67.4,64.2
			c27.1,27.2,52.2,52.6,77.7,77.5c2.9,2.8,8.2,3.4,12.6,4.3c30.2,6,48.7,27.4,47.3,55.1c-1.4,27.9-23.7,50.2-51.6,51.6
			c-27.9,1.5-50.1-17.1-56-46.5c-0.9-4.4-1.7-9.6-4.6-12.6c-24.6-25.3-49.6-50.1-75.5-76.1c-22.7,23.6-44.2,46-67.2,69.9
			C440.3,525.5,431.6,515.6,423.1,505.9z"/>
	</g>
</g>
<path display="none" d="M299.9,499c9.5-5,19.1-10,29.1-15.3c-21.1-26.3-39.9-53.8-56.4-83.3c-6.5,7.5-13.6,13.5-22.2,17.4
	c-15.4,7-31.4,7.4-47.6,3.4c-16-4-35.5-14-45.5-23.6C176,400,193,397,208,385.9c14.9-11.1,23-26.5,27.4-44.5c-6.6,0.4-12.9,1-19.1,1
	c-28.6,0-52.9-11.2-73.8-30.1c-25.9-23.6-40.6-53.6-48.6-87.3c-0.1-0.4-0.1-0.8-0.1-1.2c0-0.2,0.1-0.5,0.4-1.2
	c20.7,24,45.8,40.1,77.7,43.9c13,1.5,25.9,0.6,39-3.2c-53.9-27.9-88.5-70.7-102.8-129.1c-8.5-34.8-6.6-69.4,4.7-104.4
	c14.3,55.2,45.6,96.4,94.5,125.3c-16.7-51.8-7.1-97,29.6-137.1c-1,9.3-2.4,17.8-2.8,26.4c-1.2,27.5,6.1,52.8,21.1,75.7
	c15,22.9,35.1,39.8,60.8,49.2c7,2.6,15.1,2.5,22.8,2.9c42.1,2.2,84.1,2,126.2-0.7c6-0.4,11.7-1.7,17.2-4.3
	c45.2-21.9,70.5-57.9,76-107.8c1.4-12.5,0.2-24.9-2.3-37.1c-0.2-1-0.3-2.1-0.5-4.2c18.3,18.6,29.9,39.7,35.2,64.2
	c5.2,24.4,3.3,48.3-4.9,72c48.5-28.1,79.8-69.1,93.9-123.2c6.4,12.3,14,52.7,7.7,89.9c-5.2,30.7-16.8,58.7-35.2,83.7
	c-18.5,25.1-41.9,44.3-69.6,58.6c47.1,11.1,84.7-5.5,116.7-40c-1.5,5.5-2.8,11.1-4.5,16.6c-9.4,29.9-24.7,56.2-49.2,76.4
	c-22.5,18.6-48.3,27.9-77.7,25.9c-1.8-0.1-3.5-0.5-5.2-0.7c-1.6-0.2-3.2-0.3-5.4-0.5c4.3,18,12.3,33.3,27.1,44.5
	c14.9,11.3,32,14.5,51.2,11.9c-1.3,1.2-2,1.9-2.8,2.5c-14.9,11.2-31.1,19.7-49.7,22.6c-24.9,3.9-46.4-2.5-63.4-22.6
	c-17.4,31-37.4,60-59.9,87.7c9.7,5.1,19.2,10,29.3,15.3c-6.1,8.3-11.8,16.5-18,24.2c-20.8,25.9-44.9,48.4-71.6,68.1
	c-1.6,1.2-2.8,2.2-4.9,0.6c-33.3-24.6-63.6-52.2-87.6-86.3c-2.1-3-4.1-6.1-6.1-9.1C300.3,500.2,300.2,499.8,299.9,499z M395.6,523
	c9.6-10.2,18.5-19.5,27.1-29c37-41.1,68.3-86,92.1-136c23.4-49.1,38-100.6,42.9-154.8c0.6-6.4,0.8-12.8,1.2-19
	c-108.8,17.8-216.9,18-325.2,0c0,1-0.1,2,0,2.9c2.1,18.7,3.4,37.5,6.6,56c7.6,44.9,22.7,87.3,43.3,127.8
	c19.3,38.1,43,73.3,70.6,105.8C367.3,492.3,381.3,507.2,395.6,523z M481.4,326.9c0,6.4-5.2,11.6-11.6,11.6h-50.3v50.3
	c0,6.4-5.2,11.6-11.6,11.6h-23.2c-6.4,0-11.6-5.2-11.6-11.6v-50.3h-50.3c-6.4,0-11.6-5.2-11.6-11.6v-23.2c0-6.4,5.2-11.6,11.6-11.6
	h50.3v-50.3c0-6.4,5.2-11.6,11.6-11.6H408c6.4,0,11.6,5.2,11.6,11.6v50.3h50.3c6.4,0,11.6,5.2,11.6,11.6V326.9z"/>
<path display="none" d="M580.4,427.7c-0.2,1.6-0.2,2.2-3.2,5.1c-3,3-4.6,7.8-4.6,7.8s-1.2-5,0.7-7c1.8-2,4.3-5,4.5-7.2
	s0.4-3.8-1-6.7c-1.4-2.9-2.3-4.6-4.8-7c-2.5-2.4-4-3.7-5.5-4.9c-1.5-1.2-4.2-1.5-9-2.5c-4.8-1-7.2,0.4-9.8-1
	c-2.6-1.3-7.2-5.1-7.2-5.1s2.6,1.3,4.8,1c0,0,7,1.2,10.2,1.5c3.2,0.3,7,1.2,9.7,1.5c2.7,0.2,7.7-0.3,7.7-0.3s-5.3,3.8-1.2,7
	c4.1,3.1,4,3.7,6.2,3.9c2.1,0.2,3.6,2.6,3.6,2.6l0,6l-2.4-3.5C579.1,418.8,580.5,426.1,580.4,427.7 M525.1,383.4
	c-6.5-0.6-9.2-0.9-13-1.2c-3.8-0.4-5.9-1.1-9.7-1.5c-3.8-0.4-22.6-3.8-28.3-7.1c-5.7-3.3-7.2-5.1-12-5.5c-4.9-0.5-2.7-0.8-12.1-16.5
	c-9.4-15.7-3.8-28.8-3.8-28.8s-1.4,3.1-2.7,4.7c-1.2,1.5-0.3,14.2,0.9,19.2c1.1,5,7.5,12.2,7.5,12.2s-6.3-2.3-8.7-6.3
	c-2.3-4-3.2-5.8-2.8-10.1c0.4-4.3-1-12.1-0.6-16.5c0.4-4.3,0.6-11.4,0.6-11.4s-2.2,0.3-2.1-1.3c0.2-1.6-3.4-4.2-6.6-5
	c-3.2-0.9-5.1,1.7-5.1,1.7s0.2,3.3,3,8c1.4,2.4,2.8,6.7,3.9,10.4c1.2,3.2,1.6,6.5,1.6,6.5s-0.6-3-1.6-6.5c-0.6-1.6-1.3-3.1-2.3-4.3
	c-2.9-3.6-5.3-7.6-6.1-10.4c-0.8-2.8,0.9-3.2-1.3-3.4c-2.1-0.2-5.5,1.1-5.5,1.1s-2.1,4.7-2.3,6.9c-0.2,2.2-1.6,5.3-2.3,12.9
	c-0.8,7.6-2.1,21.7-2.1,21.7s-0.2-3.3-0.6-5.5c-0.3-2.2,0.1-7.1,0.6-12c0.5-4.9,0.8-7.6,1.2-11.9c0.4-4.3,0.8-8.1,1.1-11.3
	c0.3-3.3,1.7-6.4,4.3-4.6c2.6,1.9,7,1.3,7.2-0.9c0.2-2.2-1.6-0.7-3.2-0.9c-1.6-0.1-2.9-4.1-2.9-4.1s-4.7-2.6-6.9-1.8
	c-2.2,0.9-1.7,0.9-6.1,1c-4.3,0.1-3.8-0.3-8.2,0.8c-1.7,1-3.4,2.1-5.1,3.1c-1.7,1.7-2.7,3.3-2.7,3.3s3.4,4.1,5.9,7.1
	c2.4,3,2.5,2.4,3.1,7.9c0.5,5.5-0.5,4.9-0.8,8.1c-0.3,3.3,1.3,3.4,1,7.2c-0.4,3.8-6.9,14.1-7.3,18.4c-0.4,4.3-3.3,11.2-3.3,11.2
	s0.8-8.7,2-14.6c1-5.4,2-5.8,3.7-8.2c0.2-0.2,0.3-0.5,0.5-0.7c1.9-3.1,0.2-18.6-0.2-20.3c-0.4-1.7-1.3,7.5-2.1,10.2
	c-0.8,2.7-3.6,3.5-7.9,8c-4.3,4.5-4.1,2.9-4.9,5.5c-0.8,2.7-8.3,6.8-8.3,6.8s-0.2,7.1-0.5,10.4c-0.3,3.2-0.6,6.5-2,9.1
	c-1.3,2.6-6.8,7.5-8.5,9c-1.8,1.4-5.8,3.2-7.6,5.3c-1.8,2-7.9,2-11.7,1.6s-10.4,0.6-13.3,1.4c-2.8,0.9-7.2,1.5-9.5,1.8
	c-2.2,0.3-14.4,2.4-18.3,3.1c-3.9,0.7-8.9,1.9-11.4,4.9c-2.5,3-4.1,2.9-7.5,3.7c-3.3,0.8-7.1-0.1-10,1.2c-2.9,1.4-9.8-1-12.5-0.1
	c-2.1,0.6-6.3-0.2-10-0.8c-0.6,1.4-2.1,4.8-4.7,5.4c-3.3,0.8-5.8-2.2-7.8,2c-2.1,4.2-0.7,6.5-6.1,6.5c-5.4,0-5.5,1.1-5.5,1.1
	l-0.4,4.4c0.1,1.4-0.1,3.1-0.3,4.2c-0.1,0.7-0.2,1.1-0.2,1.1l0.5-5.3c-0.1-1.2-0.5-2.2-1.4-2.4c-2.7-0.8-5.2-2.7-5.2-2.7
	s1.9-2,5.2-2.8c3.3-0.8,9.7,1.5,10.1-2.3c0.4-3.8,2.7-10.1,2.7-10.1s-1.4,8.1,1.6,5.6c3-2.4,7.1,0.1,8.4-2.4c0.7-1.3,1.6-2,2.3-2.4
	c-0.9-0.1-1.8-0.3-2.5-0.3c-3.8-0.4-14.6-12.9-14.6-12.9s6.5,6.7,9.7,7.5c3.2,0.9,5.7,3.3,8.3,4.1c2.7,0.8,8.7,0.8,13.2-0.9
	c4.6-1.8-1.2,1.5,9.3,0.3c10.5-1.2,7,0.7,10.5-1.2c3.5-1.8,7.2-6.4,7.2-6.4s12.3-2.6,14-3c1.7-0.4,12.7-0.9,14.9-1.8
	c2.3-0.9,16.9-4.9,19.1-4.7c2.2,0.2,2.1,1.3,4.2,2c2.1,0.7,6.5,0.6,9-1.9c2.4-2.5,2-4.2,5.4-4.9c3.4-0.8,4.6-1.8,8.2-5.2
	c3.6-3.5,2.3-6.9,3.8-10.5c1.4-3.7,1.4-9.2,1.3-7.5c-0.1,1.6-5.3,4.4-7.8,6.9c-2.4,2.5-6.8,2.1-6.8,2.1l-0.9,3.8c0,0-4.9,0-7.1,0.4
	c-2.2,0.3-3.5,2.4-5.2,2.8c-1.7,0.4-3.6,3.5-6.4,4.3c-2.8,0.8-4.4,0.1-7.8,1.4c-3.4,1.3-6.2,2.1-10.2,3.9c-4,1.8-9.4,0.7-14.9,1.3
	l-4.4,0.7c0,0-6-0.6-8.7-0.3c-2.8,0.3-8.1-0.8-8.1-0.8s-5.3-1.6-7.5-1.8c-2.2-0.2-3.8-0.4-7-0.7c-3.2-0.3-4.3-0.4-9.1-2.5
	c-4.7-2.1-3.5-3.1-6.2-8.8c-2.7-5.8-6-11-9-14.5c-2.9-3.6-2.6-7.4-5.3-13.1c-2.7-5.8-0.7-15.4-0.7-15.4c0.3,7.7,3.5,3.7,4.9,0
	c1.4-3.7,2.3-6.9,0.5-10.9c-1.8-4-6.7-3.9-6.7-3.9l-2.9-3.6l1.3-2.6c0,0,2.7-4.7,1.1-5.9c-1.6-1.2-2-2.4-2.7-5.7
	c-0.8-3.3-1.1-5.6,0.3-8.7c1.4-3.1-1.6-5.6,0-11c1.6-5.3,18.4-9.1,18.4-9.1s-5.6,1.7-6.4,3.8c-0.8,2.1-6.2,2.1-8,3.6
	c-1.8,1.4-1.2,7-2.1,10.2c-0.9,3.2-1.8,7.5,0.6,11c2.4,3.5,3.6,2,3.6,2s4.2-3.4,5-6.7c0.8-3.2,6.2-7,9.3-11.1
	c3.1-4.1,8-7.9,11.9-8.1c3.9-0.2,12.5,2.1,17.1-0.2c4.6-2.3,7.4-2.6,12.2-2.1c4.9,0.5,13.1,0.2,13.1,0.2s-5.6-4.4-12.6-5.6
	c-7-1.2-18.5-0.7-18.5-0.7s11.2-2.7,16.1-2.2c4.9,0.4,10.8,1.6,14.9,4.2c4.1,2.6,10.4,6,15,8.6c4.7,2.7,10.7,4.4,14.8,7
	c4.1,2.6,14.6,6.8,18.2,8.8c3.6,2,11.1,5.7,11.1,5.7s0.3-2.7,0.4-4.3c0.2-1.6-2.6-7.4-4.8-12.5c-1.5-3.5-2.9-5.7-4.6-7.9
	c-6.7-2.9-13.8-5.9-15.5-6.5c-3.2-1.2-15.1-5.4-15.1-5.4s0-1.1-2.1-2.2c-2.1-1.2-15.5-8.2-18.2-9.4c-2.7-1.2-13.3-10.3-22.4-14.4
	c-9.1-4.1-25-1.4-25-1.4s12.1-3.4,19.7-2.6c7.6,0.8,14.5,4.9,16.6,6.6c2.1,1.7,10.1,6.3,15.4,10.3c5.3,4,11.8,4.8,16,9.3
	c4.2,4.5,12.4,3.7,19.3,7.8c2.2,1.3,5.4,3.1,8.7,5c0,0-0.1-0.1-0.1-0.2c-2.9-3.6-11.5-16.4-13.8-21c-2.3-4.6-13.3-4-18.1-5.1
	c-4.8-1-17.5-5.5-17.5-5.5s9.1,2.6,16.1,3.2c7.1,0.7,13.4,2.4,18.8,3.5c5.3,1.1,15.8,22.9,18.1,26.9c0.1,0.1,0.1,0.2,0.2,0.2
	c5.9,3.3,11.2,6.3,11.2,6.3s-4.5-1.9-10-4.3c2.6,4.1,6.6,9.4,8.1,12.3c1.9,3.4,2.6,18.3,2.9,20.5c0.3,2.2,0.5,11.5,0.1,15.9
	c-0.4,4.3,2.8,5.2,4.1,8.1c1.4,2.9,2.8,5.2,2.8,5.2c2-3.6,1.6-10.8,1.6-10.8s2.1,6.8,1.7,11.1c-0.4,4.3-1.1,5.4-3.5,7.9
	c-2.4,2.5-4.9,11.5-4.9,11.5s2.9-1.4,4.2-4s4.3-4.5,6.1-6.5c1.9-2,3.2-4.6,7.2-6.4c4-1.8,1.5-4.2,2-8.5c0.4-4.3,3.3-5.7,4-7.8
	c0.8-2.1-3.7-6.9-6.4-7.7c-2.3-0.7-3.9,8-4.2,10.1c0,0.1,0,0.3-0.1,0.4c0,0,0-0.1,0.1-0.4c1-5.7,0.3-10.5-2.2-11.8
	c-2.6-1.3-2.4,2.5-3.7,4.6c-1.3,2.1-0.2-3.9,0.2-8.2c0.4-4.3,4-1.2,4-1.2s-1.6,4.8,5.2,2.7c1.7-0.5,3.5-1.4,5.4-2.4
	c1.3-1.3,3-2.6,5-3.1c0.1,0,0.1,0,0.1,0c3.9-2.5,7.3-4.7,9.1-4.6c3.3,0.3,4.7-3.4,8-3.1c3.2,0.3,2.4-2,2.7-5.2s0.6-6,3.2-10.1
	c2.6-4.1,12.8-12.9,12.8-12.9s-4.9,5-5.1,7.1c-0.2,2.2-4.2,4-6.3,8.7c-2.1,4.7-2.3,6.3,0.1,10.4c2.3,4-0.4,3.8-0.6,6
	c-0.2,2.1,3.7,1.4,3.7,1.4s1.3,3.4,4.6,3.7c3.3,0.3,3.9-0.7,3.9-0.7s3.2,0.9,3.6-2.9c0.4-3.8-4.4-11.4-1.3-14.4
	c2.9-2.8,7.2-5.5,10-6c-4.1-1.5-8.2-3.7-8.2-3.7s7.6,0.8,9.2,0.9c1.7,0.1,0.4,5.4,7.1-0.8c6.8-6.3,5-4.7,6.8-6.3
	c1.7-1.6,8.9-5.7,9.5-7.3c0.6-1.6,6.9-8.5,9.1-10.5c2.3-2.1,6.2-7.4,7.4-9.6c1.2-2.1,10.5-5.6,11.2-7.8c0.6-2.1,3.4-4.8,5.1-5.3
	c1.7-0.5,1.7-2.7,4.5-3.7c2.8-1,4.4-3.1,6.1-3.1c1.6,0.1,9.3-2.9,9.3-2.9s-11.1,6.1-13.3,8.3c-2.3,2.1-5.7,5.8-8.5,8.9
	c-2.9,3.2-8.4,6.2-11.8,8.9c-3.4,2.6-10.7,10-13,13.2c-2.3,3.2-9,7.3-11.3,11.6c-0.4,0.7-0.9,1.4-1.5,2.2c0.3-0.2,0.6-0.4,1-0.5
	c3.4-1.3,8.5-9,11-11.5c2.4-2.5,9.2-4.6,13.8-6.9c4.6-2.3,14.1-4.1,22.3-3.8c8.2,0.3,25.2,5.2,25.2,5.2s-6.4-1.2-13-1.8
	c-6.5-0.6-29.1,1.6-36,4.1c-6.8,2.6-11.1,7.1-12.4,9.2c-1.3,2-8.8,5.7-10.7,8.2c-1.9,2.6-3.9,6.2-5.9,9.8c-2,3.6-4.8-1.6-7.7,0.3
	s-12.6,5.9-11.9,10.3c0.7,4.4,2.8,10.7,3.7,12.9c0.9,2.3,4.5,4.3,4.8,1.6c0.3-2.7,0.8-7.6,0.8-7.6s6.1-7.1,10.2-9.4
	c4.1-2.3,12.3-7.1,15.2-8.5c2.9-1.4,10.4-7.5,14.5-10.4c4.1-2.9,10.8-0.3,13.7-1.7c2.9-1.3,6.7-3.2,10.4-2.9
	c3.8,0.4,13.3-3.3,12.1-1.8c-1.3,1.5,8.2-0.5,12.5,0.4c4.3,1,8.1,2.1,10.5,5c2.4,3,12.4,7.2,14.8,10.8c2.4,3.5,7.3,9.5,8.1,12.8
	s2.2,5.1,2.2,5.1l2.7,0.3c2.7,0.3,4.1,8.6,4.1,8.6s-2.3-4.1-5.1-3.8c-2.8,0.2-3.9,0.2-2.6,3.6c1.3,3.4,1.8,4,1.4,7.8
	c-0.4,3.8-2.8,5.8-5.2,8.2c-2.4,2.5-0.9,3.7-0.1,6.5c0.8,2.8-0.2,7.7,1.8,3.4c2-4.2,3.2-10.6,3.2-10.6s-0.8,8.1-1,10.8
	c-0.3,2.7-0.8,7.6-0.5,10.3c0.3,2.8-0.6,6-2.4,7.4c-1.8,1.5-5.1,7.2-5.4,11c-0.3,3.8-4.7,3.9-5.5,6.5c-0.8,2.7-5.4,5-7.9,8.5
	c-2.6,3.6-5.2,3.3-10.2,3.9C535.4,384.5,531.6,384.1,525.1,383.4 M498.8,523.6c-1.4,2.3-1.7,5.2-2.4,7.5c-0.6,2.4-0.8,8.1-0.8,8.1
	s-0.8-8.7-2.2-11.3c-1.4-2.6-2.5-3.9-3.2-0.7c-0.7,3.2-2.5,8.8-2.5,8.8s0-4.5-0.1-7.8c-0.1-3.3,0.7-7.3-1.9-5.9
	c-2.6,1.4-2.6,1.4-3.9,2.4c-1.3,1.1-3.9,19.3-4.1,21.4c0,0,0.9-22.1,0.3-24.2c-0.6-2.1,0-4.1-2.9-4.4c-2.8-0.3-4.4-1.2-4.4-1.2
	s1.4-1.5,3.4-1.7c2.1-0.2,4.6-0.4,6,1.8c1.4,2.2,1.1,5.8,3.3,4c2.2-1.8,4-2.9,5.5-2.3c1.6,0.6,0.9-0.8,2.7,2.3c1.8,3,0.7,5.4,3.5,2
	c2.8-3.4,4.8-3.2,5.4-5.2c0.6-2,4.7-2,4.7-2S500.3,521.3,498.8,523.6 M462.1,499.9c-0.3,2.9-2.8,12-3.4,14c0,0-3.1-10.1-4.1-12.7
	c-1-2.6-6.4-13.8-7-16.3c-0.6-2.5,1.6-12.1,1.6-12.1s1.4,1.8,2.3,6c0.8,4.2,1.7,3.9,3.4,7.3C456.6,489.6,462.4,497.1,462.1,499.9
	 M475.8,456.4c-3.2-5-8.7-13.8-9.1-17.2c-0.7-4.9-3.7-8.8-6-15.7c-2.2-6.6-7.2-28-7.2-28s12,29.8,13.4,35.6
	c1.4,5.8,5.3,10.8,5.2,15.7C472,449.6,474,453.6,475.8,456.4c1.4,2.2,2.4,3.6,2.4,3.6S477,458.6,475.8,456.4 M490.1,507.6
	c0,0-1-3-2-5.5c-1-2.6-1.8-2.7-2.7-5.6c-1-3-0.8-0.5-2.9-4.4c-2.1-3.9-1.7-3.9-2.4-5.1c-0.7-1.3-0.4,0-1.8-2.6
	c-1.4-2.6-0.7-1.7-2.9-4.4l-2.2-2.7l-5.1-6.2l13,14l6.7,6.8c0,0,2,4.7,1.9,6.3C489.6,499.8,490.1,507.6,490.1,507.6 M444,362.5
	l5.6,3.4c0,0-0.1,2.5,2.4,2.6c2.4,0.1,6.4,3.5,6.4,3.5l6.5,1.9c0,0-4.2,2.3-8.2,1.4C452.6,374.2,444,362.5,444,362.5 M455.7,382.7
	c11.2,8.2,20,13.4,20,13.4s-17.2-8.2-27.9-16.9c-10.6-8.7-19.1-22.7-19.1-22.7S444.5,374.5,455.7,382.7 M382.7,393.7
	c3.2-3.4,6.4-10.9,6.4-10.9s-1.3,0.7-3.7,3.7c-2.3,3.1-7.3,7.5-7.3,7.5s3.1-6.3,4-7.8s5.1-6.1,7.2-7.1c2.2-1,4.6-0.4,6.8-1.8
	c2.2-1.4,2.2-1.4,2.4-3.4c0.2-2,4-3.3,5.8-4.4c1.8-1,5.7-3.5,5.7-3.5s-0.2,2-0.3,3.7c-0.2,1.6,2.1,3.9,2.2,6.4s-1.6,3.5-1.9,6.8
	c-0.3,3.2-1.7,4.8-1.1,7.3c0.6,2.5,0.8,4.2,0.5,7c-0.3,2.8,0,8.2,0,8.2s1.3-5.2,2.7-6.7c1.4-1.5,0.7-2.4,0.4-4.1
	c-0.2-1.7,0.6-6.5,2-8.4c1.4-1.9,0.3-11.1,0.1-13.1c-0.2-2.1,1.1-6.9,1.1-6.9l4.2-4.9c0,0,0.1,2.9,1.5,5.5c1.4,2.6,4.7,6.6,4.7,6.6
	s3.3,3.6,5.9,7.1c2.5,3.5,7.5,11.4,7.5,11.4c-2.5-3.9-6.8-6.4-6.8-6.4s-0.3,3.3-0.5,4.9c-0.2,1.6-0.1,5.3,2.4,8.9
	c2.5,3.6,1.9,6.3,1.2,8.3c-0.6,2,0.8,4.6,0.8,8.3c0,3.7,4.6,11.5,4.6,11.5c-0.2-1.7-1.8-6.8-1.8-6.8s4.3,6.2,5.8,7.5
	c1.5,1.4,1.4,2.2,2,4.7c0.6,2.5-0.6,6.1,0.8,8.7c1.4,2.6-1.7,4.8-2,7.2c-0.2,2.4-4.2,4.9-4.2,4.9c2.8-3-3.6-0.8-10.2,3.5
	c-6.6,4.3,4.7,2.5,4.7,2.5s-3,1.4-4.3,2.5c-1.3,1.1-5.9,1.9-7.6,2.5c-1.7,0.7-4.2,0.8-5.7-0.1c-1.6-1-5.1-2.6-5.1-2.6
	s-4-1.2-4.7-2.5c-0.7-1.3-1.8-2.6-4.1-4.1c-2.3-1.4-0.3-5.3-0.1-7.8c0.2-2.4,0.8-4,0.8-4s-2.5,0.1-3.7,0c-1.2-0.1,0-4.5,0.3-7
	c0.2-2.4,1.2-16.7,1.2-16.7s-2.9,8.3-2.8,11.6c0.1,3.3-1.1,7.3-1.5,10.9c-0.3,3.7-0.2,6.5-3.7,4.6c-1.7-0.9-1.7-2.6-1.2-4
	c-0.7,1.3-1.4,3-2.1,4.9c-1.7,4.4-0.9,4.9,1.2,8.3c2.1,3.5,0,0,2.3,1.9c2.3,1.9,0,0,2.1,3.9c2.1,3.9-1.2,0.3-6.4,2.7
	c0,0-5.1,2-8,2.1c-2.9,0.1-4.1-0.4-5.3-0.5c-1.2-0.1-4.2-3.3-5.8-3.4c-1.6-0.2-4.2-2.9-4.2-2.9s-2.7-1.5-4.5-4.1
	c-1.8-2.7-1.9-5.9-1.9-5.9s0-4.1,1.6-8c1.1-2.9,1.8-7.2,2-8.7c-0.3,2-4.2,5.6-4.2,5.6s1.2-4.4,1.4-6.4c0.2-2,1.1-7.3,2.6-10
	c1.5-2.8,4.4-11.1,6.2-13.3c1.8-2.3,1.4-2.3,1.7-5.2c0.3-2.9,2.7-6.3,2.7-6.3l-0.4,4.1C375.4,401.6,379.5,397.1,382.7,393.7
	 M467.2,523.8c-0.2,2.5-2.7,2.2-3.8,5c-1.1,2.8-1.1,2.8-2.6,5.5c-1.5,2.7-3.1,6.7-3.1,6.7c-0.6-2.1-3.6-5.3-3.3-7.7
	c0.2-2.4-1.1-5.9-3-6.9c-1.9-1-5.7-0.6-7.4,0.5c-1.8,1.1-2.5,4.3-2.7,6.7c-0.2,2.4-3.4,1.3-6,3.1c-2.7,1.8-0.4,4.4,0.9,7.9
	c1.3,3.4,2.2,11.3,2.2,11.3s-0.1,1.3-0.2,2c0.2-2-1.6-8.4-1.9-9.6c-0.3-1.3-3.5-6.1-4.4-9.4c-0.9-3.4-1.7-7.6-1.5-9.6
	c0.2-2-4.1-4.1-6.4-5.6c-2.3-1.4-7,0.6-9.1,1.2c-2.1,0.6-3,5.4-3.2,7.1c-0.1,1.6,0.7,5.8,0.5,7.9c-0.2,2-3.8,5.3-4.1,8.6
	c-0.3,3.2-2.5,13.3-2.5,13.3s0.4-8.5-1.8-10.8s-2.8-5.2-2.9-8.5c-0.1-3.3-1.9-5.5-2.1-8c-0.2-2.4-3.4-6.9-5.1-7
	c-1.7-0.2-6.9-0.7-9.5,0.3c-2.6,1-6.7,5.9-7,8.3s1,6.2,0.9,7.4c-0.1,1.2-1.7,4.8-2.2,6s-1.9,3.1-2.3,6.7c-0.3,3.7,1.8,15.8,1.8,15.8
	s-1.1-1.3-2.4-4.3s-0.6-10.7-1.2-13.3c-0.6-2.5-1.3-7.1-1.6-8.8c-0.3-1.7,1.4-6,2-7.6c0.6-1.6-3.8-3.6-5.1-6.2
	c-1.4-2.6-5.4-3-7.2-1.6c-1.8,1.5-1.7,4.8-2.7,6.7c-1,1.9-1.6,8.1-1.6,11.3c0.1,3.3-2.9,13.3-2.9,13.3s-0.7-5.8-1.3-7.5
	c-0.7-1.7-0.3-5-0.2-6.6c0.2-1.6-3.9-10.2-3.8-11.4c0.1-1.2-2.4-4.3-4.7-6.6s-9.2-2.1-9.2-2.1l-1.1,6.9c0,0,0,4.1,1.1,5
	c1.1,0.9,0.8,5,0.6,6.2c-0.1,1.2,2.5,12.1,2.5,12.1s-1.8-2.2-3.6-5.3c-1.8-3-3-3.2-2.8-5.6c0.2-2.4-2.4-12.5-3.1-14.3
	c-0.7-1.7-6.9-5.6-6.9-5.6s-0.6,2.4-0.8,3.6c-0.1,1.2,0.1,2.9-0.1,4.9c-0.2,2.1-0.8,4.4-1.1,7.3c-0.3,2.9,0.6,7,0.6,7
	s-3.1-6.4-3.3-7.7c-0.3-1.3,0.4-8.6,0.7-11c0.2-2.4-1.1-5.9-1.1-5.9s-1.8-2.2-1.7-3.4c0.1-1.2,1.8-1.9,3.8-1.3
	c2,0.6,2.5-0.6,2.5-0.6s2.4-3.4,3-5.4c0.6-2,3.1-7.1,3.3-8.7c0.1-1.6,3.2-7.5,5-9c1.8-1.4,10.9-15.3,12.4-17.6c1.5-2.3-2,8-4.7,10.2
	c-2.7,2.2-3.4,9.1-5.7,11.8s-1.6,11.8-1.7,13.4c-0.1,1.6,2.6,7.6,3.7,9c1.1,1.3,5.8-0.2,8.3-0.8c2.5-0.6,1.6-3.6,3.3,0.3
	c1.7,3.9,3.2,0.7,5.2,0.9c2,0.2,2-3.5,2.2-5.5c0.2-2,0.6-9.8,2.4-12.4c1.9-2.7,10-14.6,10-14.6s-1.2,8.5-2.8,12
	c-1.6,3.5-1.8,9.2-3.3,12.4c-1.6,3.1-3.6,11.5-3.6,11.5l3.9-1.7c0,0,5.3,0.1,8,2.4c2.6,2.3,4.1,0,6.1,0.2c2,0.2,4.1,0,5.1-2
	c1-1.9,5.1-1.5,7.5-1.3c2.4,0.2,4.2-0.8,5.2-2.8c1-2,5-0.8,7.6,2c2.6,2.7,5.8,3.9,5.8,3.9s1.4-1.5,1.1-2.8c-0.3-1.3-0.9-3-4.1-4.1
	c-3.2-1.1-2.8-4.8-4.1-8.2c-0.8-2-3.5-10.1-5.8-17c-2.2-5-4-10.8-3.5-9.8c0.3,0.6,1.8,4.8,3.5,9.8c0.5,1.1,1,2.1,1.4,3
	c2.8,5.2,4.7,6.6,7,11.8s2.6,7.2,5.2,9.9c2.6,2.7,4.8-2.4,4.8-2.4s4.9,0.5,7.2,1.5c2.3,1.1,3.2,1.1,6,1.4c2.8,0.3,5-1.2,7.1,2.3
	c2.1,3.5,2.9-0.6,4.1-0.4c1.2,0.1,1.1-3.2-2.1-3.9s-1.4-2.6-1.5-5.9c-0.1-3.3-1.6-4.3-1.5-10c0.1-3.2-0.5-7.7-1-10.9
	c-0.6-1.9-0.9-3.4-0.8-4.4c0,0,0.4,1.9,0.8,4.4c0.9,2.8,2.3,6.3,4,9.2c2.8,4.8,3.8,11.4,3.6,14.3c-0.3,2.9-1.4,6,0.6,6.2
	c2,0.2,4.7,2.1,5.3-0.3c0.7-2.4,4.8,0.9,7.3,1.1c2.4,0.2,5.3,0.5,8.2,0.4c2.9-0.1,5.1-1.9,7.2-2.1
	C467.9,520.6,467.4,521.4,467.2,523.8 M351.2,399.2c-4.3,4.8-18.2,5.9-27.4,11.3c-9.2,5.4-19.3,14-19.3,14s11.9-12.7,14.4-15.8
	c2.6-3.2,16.6-8.4,24.9-9.8c8.2-1.3,15.9-11.7,15.9-11.7S355.5,394.5,351.2,399.2 M322.4,427.7c0,0,3.2-2.6,7.1-5.6l0.8-2l1.5-3.6
	c0,0,1.5-2.1,3.2-3.9c0.9-1,1.9-1.9,2.7-2.4c2.5-1.6,6.7-3.1,6.7-3.1s-0.1,4.1-2.7,5.7c-1.4,0.9-7.3,5.4-12.2,9.3l-0.4,0.9
	L322.4,427.7z M317.2,461.8c16.4-25.6,38.6-53.4,38.6-53.4L317.2,461.8z M310.9,507.3c-0.7,2.8-0.1,1.2-0.6,5.7
	c-0.4,4.4,0,0-3.9,2.4l-2.9,0.1l2.1-4.3c0,0,0.9-4.9,1-6.5c0.2-1.6,2.9-3.8,3.4-5s2.3-7.2,2.5-8.4c0.1-1.2,4.3-6.1,4.8-7.7
	c0.6-1.6,8.5-7.4,8.5-7.4l-5.1,6.1c0,0-1.5,3.1-2.6,5.1c-1,2-0.8,4-1.4,6c-0.6,2-2.5,4.7-4.8,6.9
	C309.7,502.7,311.6,504.5,310.9,507.3 M310,553.3c-1.5-1.5-5.4-3.3-4.1-5.6c1.3-2.3,2.8,2.2,1-4.8c-1.8-7-0.6-5.8-2.5-8.2
	c-2-2.3-5.6-4.3-5.4-6c0.2-1.6-0.7-1.4-2-2.1c-1.3-0.7-0.8-2.8-1.9-2.9c0,0,8.5-0.3,10.8,1.3c2.3,1.6,6.3,2.3,6.1,4.4
	c-0.2,2.1,0.6,2.2,0.6,2.2l-0.6,6.2c0,0-0.1,3.3-0.3,5.4c-0.2,2.2-0.6,6.2-0.6,6.2s1.1,5,1.3,6.1C312.6,556.8,311.4,554.8,310,553.3
	 M263.5,167.5c6.1,0.9,6.9,0.4,7,0.2c0,0.1,0,0.3,0.6,1.1c2,2.4,8,7.9,8,7.9s-1.5,4.2,1.7,4.6c3.2,0.3,19.7-0.2,17.3,1.7
	c-2.4,2-10,7.2-10.5,12.7c-0.6,5.4-1.4,8.1-1.4,8.1l-5.4-0.5c-2.3,1.4-5.5,0-6.3,3.2c-0.9,3.2-3.7,4-3.7,4s0.4-4.3,0.9-9.2
	c0.4-4.9,0.4-4.9-3-9.1c-3.4-4.2-4.3-1-1.1-5.6c3.2-4.6,2.3-6.9,2.3-6.9s-2.3-4.6-7.7-5.1c-2.9-0.3-4.6,0.5-5.6,1.2
	c-0.5,0.9-1.2,1.4-1.2,1.4s0.3-0.7,1.2-1.4c0.8-1.3,1.4-3.6-0.9-6.8c-3.9-5.3-4.8-7-4.8-7S253.2,166,263.5,167.5 M332.7,225.7
	c2.6,1.9,17.3,1.7,19.9,4.1c2.5,2.4,6.2,3.9,9.6,7.5c3.5,3.6,14.8,10,11.3,8.2c-4.2-2.1-15-8.6-19-12.8c-4-4.2-14.5-3-17.7-3.3
	c-3.2-0.3-14.5-8-14.5-8S330.1,223.8,332.7,225.7 M598.4,393.9c-2.2-5.7-0.8-13.8,0.7-18c1.5-4.2-5-4.9-7.6-6.2
	c-0.9-0.5-1.6-0.9-2.3-1.1c-4.7,1.9-10.5,6.3-14.3,9.4l-4.1,3.6c0,0,1.7-1.5,4.1-3.6l8.5-7.4c0,0,1.1-1.1,2.1-2.6
	c-2,0.2-0.2-1.8,1.1-4.3c-0.3-1,0.4-3,1.5-5.2c1.2-5.4,2.5-13.1,2.8-15.7c0.4-3.8-0.8-19.8-0.6-22c0.2-2.1-1.1-16.5-0.7-21.4
	c0.5-4.9-2.3-4.1-2-2.4c0.4,1.7-1.3,2.1-2.8,0.8c-1.5-1.2,0,0-0.6,5.9c-0.6,6-3.4,1.9-3.3,0.2c0.2-1.6-0.7-3.9-1.5-6.7
	c-0.8-2.9-4.8-1-4.8-1s-0.3-2.8,1.3-2.6c1.6,0.2,0.9-3.7,3.3-6.2c2.4-2.5-0.1-4.9-0.1-4.9s3.4-1.3,5.2-3.3c1.9-2,0.3-8.2-11.1-20.8
	c-11.3-12.6-34.9-23.1-34.9-23.1c22.3,6.5,32.3,16.8,32.3,16.8s-1.7-4.5-4.8-13c-3-8.5,3.9-22.6,5.2-30.7c1.3-8.1,7.3-29.9,7.3-29.9
	s-0.9,8.7-1.6,16.3c-0.7,7.6,0,11.5,0.2,15.3c0.1,3.3-2.6,11.8-3.4,14.2c0.4-1,1.7-3.1,5.4-6.4c5.4-4.9,7-15.7,7-15.7
	c-0.8,13.6-9.6,25.3-11.3,31.7c-1.7,6.4,0,11,2,18.8c2,7.9,4.7,8.1,7.7,16.6c3,8.5,6.2,26.3,6.6,22c0.4-4.3,0.6-28.4,1.7-39.2
	c1-10.8,4.2-48.3,3.1-71.4c-1-23.1-14-47.3-18.9-58.7c-4.9-11.4-40.1-43.3-53.2-54.9c-13.1-11.7-48.6-34.3-65.3-42.5
	c-16.7-8.2-66.1-11.9-84.4-9.3c-18.3,2.6-57.8,15.1-66,20.3c-8.2,5.2-47.6,33.6-54.3,40.1c-6.6,6.4-33.3,27.9-43.2,39
	c-9.9,11.1-23.2,41.5-25.5,48.4c-2.3,6.9-3.6,36.3-3.5,41.8c0,5.5,4.4,27.2,4.1,36c-0.3,8.7,1,18.1,2.3,26.5
	c1.4,8.3,5.6,32.3,5.6,32.3s2.8,5.2,4.6,8.7c1.9,3.5,5.9,12.1,5.9,12.1s3-2.5,4-6.7c0.9-4.3,3.7-21,5.5-23.5
	c1.9-2.6,3-13.4,3.4-17.7c0.4-4.3-2.2-11.1-2.2-11.1l3,3c3,3,6.1-1,6.4-3.8c0.3-2.7-2.2-5.1-4.7-7.5c-2.5-2.4-4,2.3-6.4,3.8
	c-2.3,1.4-7.1-11.7-7.1-11.7s3,2.5,5.5,4.9c2.5,2.4,5.4,0.5,5.4,0.5s-2.7-6.3-4.5-10.3s3.1-3.5,7.6-5.3c4.6-1.8,9.9-5.6,9.9-5.6
	s-4.9-5.4-9.4-15.6c-4.4-10.3-1.6-17.7-0.4-24.1c1.2-6.4,2.1-15.7,2.3-18.4c0.3-2.7-9.3-16.8-10.9-22.4c-1.7-5.6,0.8-19.1,9.6-31.3
	c8.9-12.3,33.1-30.7,33.1-30.7s-6,5.4-12.1,11.4c-6,6-12.9,14.1-14.7,16.1c-1.8,2-7.7,11.8-9.3,17.1c-1.6,5.3-1.6,10.8-1,16.3
	c0.6,5.5,5,10.3,8.3,15.6c3.3,5.2,5.7,14.8,8.5,19.4c2.8,4.7,3.7,12.9,7,18.2c3.3,5.2,4.6,20.1,4.9,27.9c0.3,7.7-4.4,16.5-4.9,22.5
	c-0.6,6-11.2,13.7-14.7,15.5c-3.4,1.9-3.1,9.5-6.6,17.4c-3.5,7.9-6.3,19.6-5.7,24.1c0.7,4.4-4.3,28-5.2,36.7
	c-0.4,4.1-0.1,7.5-0.1,10.4c0.4,1.1,0.9,1.7,0.8,3.9c-0.2,4.1-0.1,3.2,4.7,5.9c4.8,2.7,3.2,2.6,3.9,5.9c0.7,3.3,1.5,3.3,5.5,5.9
	c4,2.6,2.4,2.5,2.3,5c-0.1,2.4-7.3-0.2-9.7-3.6c-2.3-3.3-1.6-2.5-2.2-5.8c-0.7-3.3-8-6.8-8-6.8s-3.8-1.1-7.4-1.3
	c-1,0.1-1.8,0.3-2.1,0.7c-1.3,1.5-4.9,5.5-7.8,6.9c-2.9,1.3-2.4,1.9-2.7,4.7c-0.3,2.7-2.3,6.3-3.6,19.9
	c-1.3,13.5,10.1,30.5,12.3,36.2c2.2,5.7,3.7,7.4,10.2,8.1c6.5,0.7,9.9,5.3,13.9,9c4,3.7,3,9.1,6.8,9.4c3.8,0.3,4.7-3.4,16-6.7
	c11.3-3.3,6.3,2.8,7.9,3c4.5,0.4,9,3.1,14,7.9c5,4.9,5.7,2.7,9.2,6.3c3.5,3.7,2.5,2.4,3.6,7.5c1.2,5,0.5,6,0.7,9.9
	c0.2,3.9,4.4,16.3,8.9,21.1c4.4,4.8,0.5,6.1,0.2,8.8c-0.2,2.7,2.2,5.2,2.2,5.2s2.7,6.3,2.5,7.9c-0.2,1.6-0.3,3.2,0,6
	c0.3,2.8,0.4,1.1,0.2,3.9c-0.3,2.7,1.7,4.6,3.6,8c1.9,3.5,3,8,6.4,13.2c2.2,3.5,2.6,6.3,2.5,7.8c0.1-1.2,0.3-3.1,0.5-4.8
	c0.3-2.7,5.4-5,5.4-5l0.8,2.8c0.8,2.8,6.9,2.3,6.9,2.3l1.9-2.6c0,0,0.4,1.1,0.7,3.9c0.3,2.8,9.2,25.9,13.5,29.5
	c2.7,2.3-0.6-18.7,1.8-20.1c2.3-1.4,2.2-9.4,2.2-9.4l1.2,4.5c0,0,2.3,4.1,5.4,6.5c3.1,2.4,2.9-1.9,3.7-4c0.8-2.1,4.8,1.6,5.1-1.7
	c0.3-3.2,1.9,2.4,1.9,2.4l1.9,3.5c0,0,3.2,0.3,5.2,2.7c2,2.4,5.2,2.7,8.4,3c3.2,0.3,3.1-4.1,3.1-4.1s0.4,1.7,2.3,4.1
	c2,2.4,4.2,2,8,2.4c3.8,0.4,17.5,0.1,20.4-1.3c2.9-1.3,3.2-5.1,3.2-5.1l0.9,2.8c0,0,3,3,8.4,3.6c5.4,0.5,18,0.1,19.8-0.8
	c1.7-0.9,3.8-5.1,3.8-5.1s1.4,2.3,3,3.6c1.5,1.2,3.2,0.9,5.9,1.1c2.7,0.3,4.4-5.6,7.8-7.4c3.5-1.8,3.8-5.7,3.8-5.7s0.6,6.5,3.7,8.4
	c3.1,1.9,4.4,13.2,4.4,13.2s0.5,1.5,3.2,1.2c2.8-0.3,3.8-21.2,4.7-24.3c0.9-3.2,1.2-6.1,1.2-6.1l1.9,2.3c2,2.4,1.3,4,2.8,5.2
	c1.5,1.2,2.1,1.3,4.2,1.5c2.1,0.2,0.9-3.2,2.8-6.3c1.9-3.1,4.1-2.9,4.9-5.5c0.8-2.7,0.7-7.6,0.7-7.6s1.3,2.9,2.8,5.2
	c1.4,2.3,2.4,3,2.4,3s1.5-4.2,4.1-7.8c2.5-3.6,3.6-13.9,4.9-17c1.4-3.2,1.6-15.7,0.8-19.6c-0.7-3.9,0.3-2.7,1.2-6.4l1.4-3.2
	c0,0,2.2-5.8,3.5-7.9c1.9-3.1,4.3-11.1,5.3-15.3c1-4.3,5.9-10.3,9.5-13.8c3.6-3.5,3.2-10.1,8.3-12.3c5.2-2.2,9.4-6.2,12.2-7
	c2.8-0.8-5-10.9-0.9-7.8c4.1,3.2,3.9,5.3,7.4,8.4c3.5,3.1,4.8-4.4,8.6-4.1c3.8,0.4,6.3-2.7,8.4-2.4c2.1,0.2,4.6-2.3,10.5-1.7
	c6,0.6,6.2-7,8.1-10.1c2-3.1,5.5-6,6.3-14.7C600.7,409.4,600.6,399.5,598.4,393.9 M303.5,569c0,0.7-0.1,1.2-0.1,1.2
	S303.5,569.7,303.5,569 M573.6,224.5c-0.2,0.5-0.2,0.7-0.2,0.7S573.4,224.9,573.6,224.5 M462,274.2c-1.7,1.7-3.6,3.2-5.4,4.4
	c0.9-0.1,1.6-0.3,2.2-0.6C460.5,277.2,461.1,275.6,462,274.2"/>
</svg>
